<?xml version="1.0" encoding="UTF-8" standalone="no"?>
<!DOCTYPE svg PUBLIC "-//W3C//DTD SVG 1.1//EN"
 "http://www.w3.org/Graphics/SVG/1.1/DTD/svg11.dtd">
<!-- Generated by graphviz version 2.42.3 (20191010.1750)
 -->
<!-- Title: monster Pages: 1 -->
<svg width="1885pt" height="609pt"
 viewBox="0.00 0.00 1885.19 608.61" xmlns="http://www.w3.org/2000/svg" xmlns:xlink="http://www.w3.org/1999/xlink">
<g id="graph0" class="graph" transform="scale(1 1) rotate(0) translate(4 604.61)">
<title>monster</title>
<polygon fill="white" stroke="transparent" points="-4,4 -4,-604.61 1881.19,-604.61 1881.19,4 -4,4"/>
<!-- room_556 -->
<g id="node1" class="node">
<title>room_556</title>
<ellipse fill="none" stroke="black" cx="62.56" cy="-23.34" rx="62.62" ry="18"/>
<text text-anchor="middle" x="62.56" y="-19.14" font-family="Times,serif" font-size="14.00">Walls of Water</text>
</g>
<!-- room_674 -->
<g id="node2" class="node">
<title>room_674</title>
<ellipse fill="none" stroke="black" cx="200.48" cy="-25.12" rx="64.55" ry="18"/>
<text text-anchor="middle" x="200.48" y="-20.92" font-family="Times,serif" font-size="14.00">Ocean&#39;s Tunnel</text>
</g>
<!-- room_556&#45;&gt;room_674 -->
<g id="edge1" class="edge">
<title>room_556&#45;&gt;room_674</title>
<path fill="none" stroke="black" d="M119.76,-30.74C122.92,-30.83 126.11,-30.9 129.3,-30.95"/>
<polygon fill="black" stroke="black" points="129.46,-34.45 139.49,-31.04 129.52,-27.45 129.46,-34.45"/>
<text text-anchor="middle" x="127.26" y="-33.65" font-family="Times,serif" font-size="14.00">s</text>
</g>
<!-- room_674&#45;&gt;room_556 -->
<g id="edge2" class="edge">
<title>room_674&#45;&gt;room_556</title>
<path fill="none" stroke="black" d="M141.67,-17.68C138.48,-17.59 135.26,-17.53 132.04,-17.49"/>
<polygon fill="black" stroke="black" points="131.8,-13.99 121.78,-17.42 131.75,-20.99 131.8,-13.99"/>
<text text-anchor="middle" x="133.36" y="-6.38" font-family="Times,serif" font-size="14.00">n</text>
</g>
<!-- room_678 -->
<g id="node3" class="node">
<title>room_678</title>
<ellipse fill="none" stroke="black" cx="337.61" cy="-18" rx="64.55" ry="18"/>
<text text-anchor="middle" x="337.61" y="-13.8" font-family="Times,serif" font-size="14.00">Ocean&#39;s Tunnel</text>
</g>
<!-- room_674&#45;&gt;room_678 -->
<g id="edge3" class="edge">
<title>room_674&#45;&gt;room_678</title>
<path fill="none" stroke="black" d="M264.17,-28.55C266.97,-28.43 269.78,-28.29 272.59,-28.13"/>
<polygon fill="black" stroke="black" points="272.9,-31.62 282.66,-27.5 272.47,-24.63 272.9,-31.62"/>
<text text-anchor="middle" x="271.1" y="-31.14" font-family="Times,serif" font-size="14.00">s</text>
</g>
<!-- room_678&#45;&gt;room_674 -->
<g id="edge4" class="edge">
<title>room_678&#45;&gt;room_674</title>
<path fill="none" stroke="black" d="M273.91,-14.57C271.11,-14.69 268.3,-14.83 265.5,-14.99"/>
<polygon fill="black" stroke="black" points="265.18,-11.5 255.42,-15.62 265.62,-18.49 265.18,-11.5"/>
<text text-anchor="middle" x="269.71" y="-3.58" font-family="Times,serif" font-size="14.00">n</text>
</g>
<!-- room_679 -->
<g id="node4" class="node">
<title>room_679</title>
<ellipse fill="none" stroke="black" cx="476.41" cy="-42.88" rx="66.43" ry="18"/>
<text text-anchor="middle" x="476.41" y="-38.68" font-family="Times,serif" font-size="14.00">Towering Gates</text>
</g>
<!-- room_678&#45;&gt;room_679 -->
<g id="edge5" class="edge">
<title>room_678&#45;&gt;room_679</title>
<path fill="none" stroke="black" d="M379.28,-31.86C386.57,-33.44 394.34,-34.98 402.21,-36.43"/>
<polygon fill="black" stroke="black" points="401.72,-39.9 412.18,-38.2 402.94,-33.01 401.72,-39.9"/>
<text text-anchor="middle" x="388.02" y="-36.94" font-family="Times,serif" font-size="14.00">s</text>
</g>
<!-- room_679&#45;&gt;room_678 -->
<g id="edge6" class="edge">
<title>room_679&#45;&gt;room_678</title>
<path fill="none" stroke="black" d="M434.36,-28.94C426.72,-27.29 418.55,-25.68 410.31,-24.18"/>
<polygon fill="black" stroke="black" points="410.72,-20.7 400.27,-22.41 409.51,-27.59 410.72,-20.7"/>
<text text-anchor="middle" x="418.84" y="-15.36" font-family="Times,serif" font-size="14.00">n</text>
</g>
<!-- room_680 -->
<g id="node5" class="node">
<title>room_680</title>
<ellipse fill="none" stroke="black" cx="604.73" cy="-50.45" rx="54.16" ry="18"/>
<text text-anchor="middle" x="604.73" y="-46.25" font-family="Times,serif" font-size="14.00">Bottom Hall</text>
</g>
<!-- room_679&#45;&gt;room_680 -->
<g id="edge7" class="edge">
<title>room_679&#45;&gt;room_680</title>
<path fill="none" stroke="black" d="M531.93,-52.87C535.06,-53.09 538.23,-53.3 541.4,-53.48"/>
<polygon fill="black" stroke="black" points="541.29,-56.98 551.45,-53.98 541.64,-49.98 541.29,-56.98"/>
<text text-anchor="middle" x="533.94" y="-55.97" font-family="Times,serif" font-size="14.00">s</text>
</g>
<!-- room_680&#45;&gt;room_679 -->
<g id="edge8" class="edge">
<title>room_680&#45;&gt;room_679</title>
<path fill="none" stroke="black" d="M558.06,-41.16C556.08,-40.99 554.08,-40.83 552.05,-40.67"/>
<polygon fill="black" stroke="black" points="552.07,-37.17 541.85,-39.98 551.59,-44.15 552.07,-37.17"/>
<text text-anchor="middle" x="551.56" y="-29.71" font-family="Times,serif" font-size="14.00">n</text>
</g>
<!-- room_681 -->
<g id="node6" class="node">
<title>room_681</title>
<ellipse fill="none" stroke="black" cx="717.5" cy="-52.07" rx="50.77" ry="18"/>
<text text-anchor="middle" x="717.5" y="-47.87" font-family="Times,serif" font-size="14.00">Ivory Steps</text>
</g>
<!-- room_680&#45;&gt;room_681 -->
<g id="edge9" class="edge">
<title>room_680&#45;&gt;room_681</title>
<path fill="none" stroke="black" d="M654.1,-57.87C655.85,-57.91 657.61,-57.95 659.37,-57.98"/>
<polygon fill="black" stroke="black" points="659.4,-61.48 669.43,-58.06 659.46,-54.48 659.4,-61.48"/>
<text text-anchor="middle" x="660.23" y="-60.73" font-family="Times,serif" font-size="14.00">u</text>
</g>
<!-- room_681&#45;&gt;room_680 -->
<g id="edge11" class="edge">
<title>room_681&#45;&gt;room_680</title>
<path fill="none" stroke="black" d="M671.08,-44.75C669.52,-44.69 667.96,-44.65 666.39,-44.61"/>
<polygon fill="black" stroke="black" points="666.05,-41.11 656,-44.46 665.95,-48.11 666.05,-41.11"/>
<text text-anchor="middle" x="665.23" y="-33.48" font-family="Times,serif" font-size="14.00">d</text>
</g>
<!-- room_682 -->
<g id="node7" class="node">
<title>room_682</title>
<ellipse fill="none" stroke="black" cx="822.89" cy="-64.66" rx="46.91" ry="18"/>
<text text-anchor="middle" x="822.89" y="-60.46" font-family="Times,serif" font-size="14.00">Brass Bell</text>
</g>
<!-- room_681&#45;&gt;room_682 -->
<g id="edge10" class="edge">
<title>room_681&#45;&gt;room_682</title>
<path fill="none" stroke="black" d="M756.86,-63.4C759.9,-63.84 762.99,-64.27 766.11,-64.66"/>
<polygon fill="black" stroke="black" points="765.73,-68.14 776.07,-65.81 766.54,-61.19 765.73,-68.14"/>
<text text-anchor="middle" x="757.99" y="-66.83" font-family="Times,serif" font-size="14.00">u</text>
</g>
<!-- room_682&#45;&gt;room_681 -->
<g id="edge13" class="edge">
<title>room_682&#45;&gt;room_681</title>
<path fill="none" stroke="black" d="M785.61,-53.65C783.23,-53.28 780.81,-52.93 778.36,-52.6"/>
<polygon fill="black" stroke="black" points="778.57,-49.1 768.22,-51.34 777.71,-56.05 778.57,-49.1"/>
<text text-anchor="middle" x="778.49" y="-41.92" font-family="Times,serif" font-size="14.00">d</text>
</g>
<!-- room_683 -->
<g id="node8" class="node">
<title>room_683</title>
<ellipse fill="none" stroke="black" cx="930.66" cy="-89.71" rx="53.04" ry="18"/>
<text text-anchor="middle" x="930.66" y="-85.51" font-family="Times,serif" font-size="14.00">Trial of Fire</text>
</g>
<!-- room_682&#45;&gt;room_683 -->
<g id="edge12" class="edge">
<title>room_682&#45;&gt;room_683</title>
<path fill="none" stroke="black" d="M853.81,-78.26C858.79,-79.67 864.09,-81.06 869.49,-82.38"/>
<polygon fill="black" stroke="black" points="868.74,-85.8 879.28,-84.68 870.34,-78.99 868.74,-85.8"/>
<text text-anchor="middle" x="858.93" y="-83.12" font-family="Times,serif" font-size="14.00">s</text>
</g>
<!-- room_683&#45;&gt;room_682 -->
<g id="edge14" class="edge">
<title>room_683&#45;&gt;room_682</title>
<path fill="none" stroke="black" d="M897.7,-75.53C891.69,-73.87 885.28,-72.24 878.83,-70.73"/>
<polygon fill="black" stroke="black" points="879.23,-67.23 868.71,-68.48 877.71,-74.07 879.23,-67.23"/>
<text text-anchor="middle" x="884.76" y="-61.93" font-family="Times,serif" font-size="14.00">n</text>
</g>
<!-- room_683&#45;&gt;room_683 -->
<g id="edge16" class="edge">
<title>room_683&#45;&gt;room_683</title>
<path fill="none" stroke="black" d="M980.11,-96.36C992.45,-95.9 1001.68,-93.68 1001.68,-89.71 1001.68,-86.91 997.12,-84.99 990.12,-83.93"/>
<polygon fill="black" stroke="black" points="990.38,-80.44 980.11,-83.05 989.77,-87.41 990.38,-80.44"/>
<text text-anchor="middle" x="1004.78" y="-85.51" font-family="Times,serif" font-size="14.00">e</text>
</g>
<!-- room_684 -->
<g id="node9" class="node">
<title>room_684</title>
<ellipse fill="none" stroke="black" cx="1032.26" cy="-124.8" rx="40.62" ry="18"/>
<text text-anchor="middle" x="1032.26" y="-120.6" font-family="Times,serif" font-size="14.00">Gauntlet</text>
</g>
<!-- room_683&#45;&gt;room_684 -->
<g id="edge15" class="edge">
<title>room_683&#45;&gt;room_684</title>
<path fill="none" stroke="black" d="M957.23,-105.38C965.6,-108.8 975.12,-112.29 984.5,-115.41"/>
<polygon fill="black" stroke="black" points="983.58,-118.79 994.17,-118.51 985.72,-112.13 983.58,-118.79"/>
<text text-anchor="middle" x="968.14" y="-113.19" font-family="Times,serif" font-size="14.00">s</text>
</g>
<!-- room_684&#45;&gt;room_683 -->
<g id="edge17" class="edge">
<title>room_684&#45;&gt;room_683</title>
<path fill="none" stroke="black" d="M1008.31,-110.21C1001.68,-107.43 994.2,-104.58 986.56,-101.88"/>
<polygon fill="black" stroke="black" points="987.45,-98.49 976.86,-98.58 985.19,-105.12 987.45,-98.49"/>
<text text-anchor="middle" x="993.94" y="-94.85" font-family="Times,serif" font-size="14.00">n</text>
</g>
<!-- room_685 -->
<g id="node10" class="node">
<title>room_685</title>
<ellipse fill="none" stroke="black" cx="1151.83" cy="-163.84" rx="71.02" ry="18"/>
<text text-anchor="middle" x="1151.83" y="-159.64" font-family="Times,serif" font-size="14.00">Gallery of Hopes</text>
</g>
<!-- room_684&#45;&gt;room_685 -->
<g id="edge18" class="edge">
<title>room_684&#45;&gt;room_685</title>
<path fill="none" stroke="black" d="M1057.31,-139.02C1065.79,-142.41 1075.69,-145.99 1085.83,-149.38"/>
<polygon fill="black" stroke="black" points="1085,-152.78 1095.59,-152.55 1087.17,-146.13 1085,-152.78"/>
<text text-anchor="middle" x="1068.85" y="-147" font-family="Times,serif" font-size="14.00">s</text>
</g>
<!-- room_685&#45;&gt;room_684 -->
<g id="edge19" class="edge">
<title>room_685&#45;&gt;room_684</title>
<path fill="none" stroke="black" d="M1121.36,-147.5C1108.99,-142.76 1094.4,-137.81 1080.64,-133.66"/>
<polygon fill="black" stroke="black" points="1081.4,-130.23 1070.82,-130.78 1079.43,-136.95 1081.4,-130.23"/>
<text text-anchor="middle" x="1097.5" y="-129.38" font-family="Times,serif" font-size="14.00">n</text>
</g>
<!-- room_686 -->
<g id="node11" class="node">
<title>room_686</title>
<ellipse fill="none" stroke="black" cx="1280.54" cy="-205.28" rx="49.64" ry="18"/>
<text text-anchor="middle" x="1280.54" y="-201.08" font-family="Times,serif" font-size="14.00">Trial of Ice</text>
</g>
<!-- room_685&#45;&gt;room_686 -->
<g id="edge20" class="edge">
<title>room_685&#45;&gt;room_686</title>
<path fill="none" stroke="black" d="M1182.81,-180.08C1195.67,-184.96 1210.98,-190.13 1225.62,-194.58"/>
<polygon fill="black" stroke="black" points="1225.03,-198.06 1235.61,-197.54 1227.02,-191.35 1225.03,-198.06"/>
<text text-anchor="middle" x="1200.72" y="-190.13" font-family="Times,serif" font-size="14.00">u</text>
</g>
<!-- room_686&#45;&gt;room_685 -->
<g id="edge23" class="edge">
<title>room_686&#45;&gt;room_685</title>
<path fill="none" stroke="black" d="M1252.78,-190.27C1242.44,-186.25 1230.22,-181.98 1217.91,-178.02"/>
<polygon fill="black" stroke="black" points="1218.64,-174.58 1208.05,-174.92 1216.54,-181.26 1218.64,-174.58"/>
<text text-anchor="middle" x="1231.84" y="-172.94" font-family="Times,serif" font-size="14.00">d</text>
</g>
<!-- room_686&#45;&gt;room_686 -->
<g id="edge21" class="edge">
<title>room_686&#45;&gt;room_686</title>
<path fill="none" stroke="black" d="M1326.65,-211.97C1338.86,-211.58 1348.11,-209.35 1348.11,-205.28 1348.11,-202.47 1343.74,-200.54 1337.04,-199.49"/>
<polygon fill="black" stroke="black" points="1336.91,-195.96 1326.65,-198.59 1336.31,-202.94 1336.91,-195.96"/>
<text text-anchor="middle" x="1351.61" y="-201.08" font-family="Times,serif" font-size="14.00">n</text>
</g>
<!-- room_687 -->
<g id="node12" class="node">
<title>room_687</title>
<ellipse fill="none" stroke="black" cx="1420.8" cy="-235.57" rx="82.85" ry="18"/>
<text text-anchor="middle" x="1420.8" y="-231.37" font-family="Times,serif" font-size="14.00">Guardian&#39;s Chamber</text>
</g>
<!-- room_686&#45;&gt;room_687 -->
<g id="edge22" class="edge">
<title>room_686&#45;&gt;room_687</title>
<path fill="none" stroke="black" d="M1314.32,-218.64C1321.76,-220.64 1329.96,-222.67 1338.4,-224.6"/>
<polygon fill="black" stroke="black" points="1337.87,-228.07 1348.39,-226.84 1339.39,-221.24 1337.87,-228.07"/>
<text text-anchor="middle" x="1329.47" y="-224.42" font-family="Times,serif" font-size="14.00">e</text>
</g>
<!-- room_687&#45;&gt;room_686 -->
<g id="edge25" class="edge">
<title>room_687&#45;&gt;room_686</title>
<path fill="none" stroke="black" d="M1378.52,-219.99C1366.18,-216.88 1352.47,-213.8 1339.31,-211.17"/>
<polygon fill="black" stroke="black" points="1339.86,-207.71 1329.38,-209.25 1338.53,-214.58 1339.86,-207.71"/>
<text text-anchor="middle" x="1363.97" y="-204.38" font-family="Times,serif" font-size="14.00">w</text>
</g>
<!-- room_688 -->
<g id="node13" class="node">
<title>room_688</title>
<ellipse fill="none" stroke="black" cx="1582.26" cy="-255.29" rx="70.53" ry="18"/>
<text text-anchor="middle" x="1582.26" y="-251.09" font-family="Times,serif" font-size="14.00">Central Chamber</text>
</g>
<!-- room_687&#45;&gt;room_688 -->
<g id="edge24" class="edge">
<title>room_687&#45;&gt;room_688</title>
<path fill="none" stroke="black" d="M1476.49,-248.89C1484.63,-250.08 1493.16,-251.22 1501.68,-252.25"/>
<polygon fill="black" stroke="black" points="1501.32,-255.73 1511.66,-253.41 1502.13,-248.78 1501.32,-255.73"/>
<text text-anchor="middle" x="1492.19" y="-253.37" font-family="Times,serif" font-size="14.00">e</text>
</g>
<!-- room_688&#45;&gt;room_687 -->
<g id="edge27" class="edge">
<title>room_688&#45;&gt;room_687</title>
<path fill="none" stroke="black" d="M1531.5,-242.7C1525.4,-241.78 1519.04,-240.88 1512.59,-240.03"/>
<polygon fill="black" stroke="black" points="1512.74,-236.52 1502.38,-238.73 1511.86,-243.47 1512.74,-236.52"/>
<text text-anchor="middle" x="1527.1" y="-230.17" font-family="Times,serif" font-size="14.00">w</text>
</g>
<!-- room_692 -->
<g id="node14" class="node">
<title>room_692</title>
<ellipse fill="none" stroke="black" cx="1628.13" cy="-147.1" rx="61.06" ry="18"/>
<text text-anchor="middle" x="1628.13" y="-142.9" font-family="Times,serif" font-size="14.00">Arthur&#39;s Tomb</text>
</g>
<!-- room_688&#45;&gt;room_692 -->
<g id="edge26" class="edge">
<title>room_688&#45;&gt;room_692</title>
<path fill="none" stroke="black" d="M1595.61,-237.54C1604.64,-220.53 1615.79,-194.66 1622.67,-174.92"/>
<polygon fill="black" stroke="black" points="1626.06,-175.83 1625.85,-165.24 1619.41,-173.65 1626.06,-175.83"/>
<text text-anchor="middle" x="1606.04" y="-209.03" font-family="Times,serif" font-size="14.00">e</text>
</g>
<!-- room_689 -->
<g id="node15" class="node">
<title>room_689</title>
<ellipse fill="none" stroke="black" cx="1610.45" cy="-351.1" rx="57.52" ry="18"/>
<text text-anchor="middle" x="1610.45" y="-346.9" font-family="Times,serif" font-size="14.00">Central Steps</text>
</g>
<!-- room_688&#45;&gt;room_689 -->
<g id="edge28" class="edge">
<title>room_688&#45;&gt;room_689</title>
<path fill="none" stroke="black" d="M1582.12,-273.46C1584.68,-287.67 1590.2,-307.61 1595.87,-323.74"/>
<polygon fill="black" stroke="black" points="1592.62,-325.05 1599.39,-333.2 1599.18,-322.61 1592.62,-325.05"/>
<text text-anchor="middle" x="1585.49" y="-301.4" font-family="Times,serif" font-size="14.00">u</text>
</g>
<!-- room_692&#45;&gt;room_688 -->
<g id="edge38" class="edge">
<title>room_692&#45;&gt;room_688</title>
<path fill="none" stroke="black" d="M1614.78,-164.85C1605.75,-181.86 1594.61,-207.74 1587.72,-227.47"/>
<polygon fill="black" stroke="black" points="1584.34,-226.56 1584.54,-237.16 1590.99,-228.75 1584.34,-226.56"/>
<text text-anchor="middle" x="1596.2" y="-198.96" font-family="Times,serif" font-size="14.00">w</text>
</g>
<!-- room_692&#45;&gt;room_692 -->
<g id="edge37" class="edge">
<title>room_692&#45;&gt;room_692</title>
<path fill="none" stroke="black" d="M1685.5,-153.67C1698.18,-153.06 1707.41,-150.87 1707.41,-147.1 1707.41,-144.46 1702.85,-142.59 1695.73,-141.5"/>
<polygon fill="black" stroke="black" points="1695.79,-137.99 1685.5,-140.54 1695.13,-144.96 1695.79,-137.99"/>
<text text-anchor="middle" x="1710.52" y="-142.9" font-family="Times,serif" font-size="14.00">e</text>
</g>
<!-- room_689&#45;&gt;room_688 -->
<g id="edge30" class="edge">
<title>room_689&#45;&gt;room_688</title>
<path fill="none" stroke="black" d="M1610.59,-332.92C1608.03,-318.72 1602.51,-298.77 1596.84,-282.65"/>
<polygon fill="black" stroke="black" points="1600.09,-281.34 1593.32,-273.19 1593.53,-283.78 1600.09,-281.34"/>
<text text-anchor="middle" x="1600.22" y="-310.59" font-family="Times,serif" font-size="14.00">d</text>
</g>
<!-- room_690 -->
<g id="node16" class="node">
<title>room_690</title>
<ellipse fill="none" stroke="black" cx="1652.95" cy="-434.09" rx="45.95" ry="18"/>
<text text-anchor="middle" x="1652.95" y="-429.89" font-family="Times,serif" font-size="14.00">Misty Isle</text>
</g>
<!-- room_689&#45;&gt;room_690 -->
<g id="edge29" class="edge">
<title>room_689&#45;&gt;room_690</title>
<path fill="none" stroke="black" d="M1613.62,-369.17C1618.03,-380.65 1625.32,-395.65 1632.51,-408.35"/>
<polygon fill="black" stroke="black" points="1629.59,-410.28 1637.69,-417.11 1635.62,-406.72 1629.59,-410.28"/>
<text text-anchor="middle" x="1619.57" y="-391.56" font-family="Times,serif" font-size="14.00">u</text>
</g>
<!-- room_690&#45;&gt;room_689 -->
<g id="edge32" class="edge">
<title>room_690&#45;&gt;room_689</title>
<path fill="none" stroke="black" d="M1649.77,-416.01C1645.43,-404.69 1638.28,-389.95 1631.18,-377.37"/>
<polygon fill="black" stroke="black" points="1634.15,-375.51 1626.06,-368.66 1628.11,-379.06 1634.15,-375.51"/>
<text text-anchor="middle" x="1636.98" y="-399.49" font-family="Times,serif" font-size="14.00">d</text>
</g>
<!-- room_691 -->
<g id="node17" class="node">
<title>room_691</title>
<ellipse fill="none" stroke="black" cx="1708.13" cy="-507.47" rx="49.34" ry="18"/>
<text text-anchor="middle" x="1708.13" y="-503.27" font-family="Times,serif" font-size="14.00">Misty Seas</text>
</g>
<!-- room_690&#45;&gt;room_691 -->
<g id="edge31" class="edge">
<title>room_690&#45;&gt;room_691</title>
<path fill="none" stroke="black" d="M1659.68,-452.27C1665.36,-461.66 1673.59,-473.18 1681.71,-483.28"/>
<polygon fill="black" stroke="black" points="1679.05,-485.57 1688.13,-491.02 1684.43,-481.09 1679.05,-485.57"/>
<text text-anchor="middle" x="1667.19" y="-470.58" font-family="Times,serif" font-size="14.00">n</text>
</g>
<!-- room_691&#45;&gt;room_690 -->
<g id="edge34" class="edge">
<title>room_691&#45;&gt;room_690</title>
<path fill="none" stroke="black" d="M1701.4,-489.28C1695.72,-479.9 1687.48,-468.38 1679.37,-458.27"/>
<polygon fill="black" stroke="black" points="1682.03,-455.99 1672.94,-450.54 1676.64,-460.46 1682.03,-455.99"/>
<text text-anchor="middle" x="1687.66" y="-476.58" font-family="Times,serif" font-size="14.00">s</text>
</g>
<!-- room_691&#45;&gt;room_691 -->
<g id="edge35" class="edge">
<title>room_691&#45;&gt;room_691</title>
<path fill="none" stroke="black" d="M1756.74,-510.75C1767.48,-510.44 1775.3,-509.35 1775.3,-507.47 1775.3,-506.26 1772.09,-505.38 1766.96,-504.82"/>
<polygon fill="black" stroke="black" points="1766.93,-501.31 1756.74,-504.18 1766.5,-508.3 1766.93,-501.31"/>
<text text-anchor="middle" x="1778.41" y="-503.27" font-family="Times,serif" font-size="14.00">e</text>
</g>
<!-- room_691&#45;&gt;room_691 -->
<g id="edge36" class="edge">
<title>room_691&#45;&gt;room_691</title>
<path fill="none" stroke="black" d="M1754.13,-514.1C1775.08,-514.78 1793.3,-512.57 1793.3,-507.47 1793.3,-503.21 1780.57,-500.96 1764.15,-500.74"/>
<polygon fill="black" stroke="black" points="1764.09,-497.24 1754.13,-500.84 1764.16,-504.24 1764.09,-497.24"/>
<text text-anchor="middle" x="1798.35" y="-503.27" font-family="Times,serif" font-size="14.00">w</text>
</g>
<!-- room_693 -->
<g id="node18" class="node">
<title>room_693</title>
<ellipse fill="none" stroke="black" cx="1781.91" cy="-582.61" rx="49.34" ry="18"/>
<text text-anchor="middle" x="1781.91" y="-578.41" font-family="Times,serif" font-size="14.00">Misty Seas</text>
</g>
<!-- room_691&#45;&gt;room_693 -->
<g id="edge33" class="edge">
<title>room_691&#45;&gt;room_693</title>
<path fill="none" stroke="black" d="M1718.15,-525.39C1726.56,-535.76 1738.87,-548.83 1750.47,-559.89"/>
<polygon fill="black" stroke="black" points="1748.22,-562.59 1757.94,-566.83 1752.99,-557.46 1748.22,-562.59"/>
<text text-anchor="middle" x="1730.81" y="-545.44" font-family="Times,serif" font-size="14.00">n</text>
</g>
<!-- room_693&#45;&gt;room_691 -->
<g id="edge39" class="edge">
<title>room_693&#45;&gt;room_691</title>
<path fill="none" stroke="black" d="M1771.9,-564.69C1763.48,-554.32 1751.17,-541.25 1739.58,-530.19"/>
<polygon fill="black" stroke="black" points="1741.82,-527.5 1732.11,-523.26 1737.06,-532.63 1741.82,-527.5"/>
<text text-anchor="middle" x="1753.01" y="-550.24" font-family="Times,serif" font-size="14.00">s</text>
</g>
<!-- room_693&#45;&gt;room_693 -->
<g id="edge40" class="edge">
<title>room_693&#45;&gt;room_693</title>
<path fill="none" stroke="black" d="M1830.52,-585.9C1841.26,-585.59 1849.08,-584.5 1849.08,-582.61 1849.08,-581.41 1845.87,-580.53 1840.74,-579.97"/>
<polygon fill="black" stroke="black" points="1840.72,-576.46 1830.52,-579.33 1840.28,-583.45 1840.72,-576.46"/>
<text text-anchor="middle" x="1852.19" y="-578.41" font-family="Times,serif" font-size="14.00">e</text>
</g>
<!-- room_693&#45;&gt;room_693 -->
<g id="edge41" class="edge">
<title>room_693&#45;&gt;room_693</title>
<path fill="none" stroke="black" d="M1827.91,-589.25C1848.87,-589.92 1867.08,-587.71 1867.08,-582.61 1867.08,-578.35 1854.35,-576.11 1837.94,-575.88"/>
<polygon fill="black" stroke="black" points="1837.88,-572.38 1827.91,-575.98 1837.95,-579.38 1837.88,-572.38"/>
<text text-anchor="middle" x="1872.14" y="-578.41" font-family="Times,serif" font-size="14.00">w</text>
</g>
</g>
</svg>
