<?xml version="1.0" encoding="UTF-8" standalone="no"?>
<!DOCTYPE svg PUBLIC "-//W3C//DTD SVG 1.1//EN"
 "http://www.w3.org/Graphics/SVG/1.1/DTD/svg11.dtd">
<!-- Generated by graphviz version 2.42.3 (20191010.1750)
 -->
<!-- Title: monster Pages: 1 -->
<svg width="1091pt" height="1056pt"
 viewBox="0.00 0.00 1090.98 1056.05" xmlns="http://www.w3.org/2000/svg" xmlns:xlink="http://www.w3.org/1999/xlink">
<g id="graph0" class="graph" transform="scale(1 1) rotate(0) translate(4 1052.05)">
<title>monster</title>
<polygon fill="white" stroke="transparent" points="-4,4 -4,-1052.05 1086.98,-1052.05 1086.98,4 -4,4"/>
<!-- room_81 -->
<g id="node1" class="node">
<title>room_81</title>
<ellipse fill="none" stroke="black" cx="563.46" cy="-803.53" rx="66.22" ry="18"/>
<text text-anchor="middle" x="563.46" y="-799.33" font-family="Times,serif" font-size="14.00">Shadowed Hills</text>
</g>
<!-- room_208 -->
<g id="node2" class="node">
<title>room_208</title>
<ellipse fill="none" stroke="black" cx="422.77" cy="-856.38" rx="59.68" ry="18"/>
<text text-anchor="middle" x="422.77" y="-852.18" font-family="Times,serif" font-size="14.00">Ashen Wastes</text>
</g>
<!-- room_81&#45;&gt;room_208 -->
<g id="edge1" class="edge">
<title>room_81&#45;&gt;room_208</title>
<path fill="none" stroke="black" d="M513.57,-815.41C495.66,-821.58 475.82,-829.15 459.25,-836.16"/>
<polygon fill="black" stroke="black" points="457.7,-833.02 449.92,-840.21 460.49,-839.44 457.7,-833.02"/>
<text text-anchor="middle" x="482.91" y="-814.58" font-family="Times,serif" font-size="14.00">n</text>
</g>
<!-- room_439 -->
<g id="node3" class="node">
<title>room_439</title>
<ellipse fill="none" stroke="black" cx="710.09" cy="-887.58" rx="63.78" ry="18"/>
<text text-anchor="middle" x="710.09" y="-883.38" font-family="Times,serif" font-size="14.00">Haunted Lands</text>
</g>
<!-- room_81&#45;&gt;room_439 -->
<g id="edge2" class="edge">
<title>room_81&#45;&gt;room_439</title>
<path fill="none" stroke="black" d="M583.54,-820.85C604.16,-834.72 636.9,-853.94 663.93,-868.28"/>
<polygon fill="black" stroke="black" points="662.36,-871.41 672.85,-872.94 665.6,-865.2 662.36,-871.41"/>
<text text-anchor="middle" x="621.01" y="-847.36" font-family="Times,serif" font-size="14.00">s</text>
</g>
<!-- room_207 -->
<g id="node4" class="node">
<title>room_207</title>
<ellipse fill="none" stroke="black" cx="423.15" cy="-702.18" rx="64.24" ry="18"/>
<text text-anchor="middle" x="423.15" y="-697.98" font-family="Times,serif" font-size="14.00">Scorched Earth</text>
</g>
<!-- room_81&#45;&gt;room_207 -->
<g id="edge3" class="edge">
<title>room_81&#45;&gt;room_207</title>
<path fill="none" stroke="black" d="M547.34,-785.98C526.82,-768.54 490.84,-742.06 462.84,-723.46"/>
<polygon fill="black" stroke="black" points="464.72,-720.51 454.43,-717.96 460.89,-726.37 464.72,-720.51"/>
<text text-anchor="middle" x="500.03" y="-757.52" font-family="Times,serif" font-size="14.00">w</text>
</g>
<!-- room_208&#45;&gt;room_81 -->
<g id="edge20" class="edge">
<title>room_208&#45;&gt;room_81</title>
<path fill="none" stroke="black" d="M470.29,-845.32C488.5,-839.11 508.98,-831.34 526.11,-824.12"/>
<polygon fill="black" stroke="black" points="527.96,-827.13 535.76,-819.95 525.19,-820.7 527.96,-827.13"/>
<text text-anchor="middle" x="495.48" y="-837.52" font-family="Times,serif" font-size="14.00">s</text>
</g>
<!-- room_208&#45;&gt;room_207 -->
<g id="edge22" class="edge">
<title>room_208&#45;&gt;room_207</title>
<path fill="none" stroke="black" d="M427.34,-838.4C430.05,-811.97 430.46,-762.36 428.47,-730.86"/>
<polygon fill="black" stroke="black" points="431.93,-730.24 427.66,-720.54 424.95,-730.79 431.93,-730.24"/>
<text text-anchor="middle" x="422.85" y="-787.43" font-family="Times,serif" font-size="14.00">w</text>
</g>
<!-- room_210 -->
<g id="node11" class="node">
<title>room_210</title>
<ellipse fill="none" stroke="black" cx="294.49" cy="-970.66" rx="59.68" ry="18"/>
<text text-anchor="middle" x="294.49" y="-966.46" font-family="Times,serif" font-size="14.00">Ashen Wastes</text>
</g>
<!-- room_208&#45;&gt;room_210 -->
<g id="edge21" class="edge">
<title>room_208&#45;&gt;room_210</title>
<path fill="none" stroke="black" d="M396.61,-872.6C372.3,-891.69 336.74,-923.33 314.58,-945.57"/>
<polygon fill="black" stroke="black" points="311.81,-943.4 307.34,-953 316.82,-948.28 311.81,-943.4"/>
<text text-anchor="middle" x="352.49" y="-911.88" font-family="Times,serif" font-size="14.00">e</text>
</g>
<!-- room_439&#45;&gt;room_81 -->
<g id="edge29" class="edge">
<title>room_439&#45;&gt;room_81</title>
<path fill="none" stroke="black" d="M690,-870.26C669.52,-856.48 637.08,-837.43 610.16,-823.12"/>
<polygon fill="black" stroke="black" points="611.75,-820 601.27,-818.47 608.51,-826.2 611.75,-820"/>
<text text-anchor="middle" x="646.58" y="-849.49" font-family="Times,serif" font-size="14.00">n</text>
</g>
<!-- room_444 -->
<g id="node13" class="node">
<title>room_444</title>
<ellipse fill="none" stroke="black" cx="857.16" cy="-876.82" rx="60.42" ry="18"/>
<text text-anchor="middle" x="857.16" y="-872.62" font-family="Times,serif" font-size="14.00">Ilutian Downs</text>
</g>
<!-- room_439&#45;&gt;room_444 -->
<g id="edge30" class="edge">
<title>room_439&#45;&gt;room_444</title>
<path fill="none" stroke="black" d="M773.8,-889.62C781.41,-889.16 789.16,-888.58 796.72,-887.92"/>
<polygon fill="black" stroke="black" points="797.24,-891.39 806.88,-886.97 796.59,-884.42 797.24,-891.39"/>
<text text-anchor="middle" x="782.53" y="-891.57" font-family="Times,serif" font-size="14.00">s</text>
</g>
<!-- room_440 -->
<g id="node14" class="node">
<title>room_440</title>
<ellipse fill="none" stroke="black" cx="860.2" cy="-986.05" rx="72" ry="18"/>
<text text-anchor="middle" x="860.2" y="-981.85" font-family="Times,serif" font-size="14.00">Plain of the Dead</text>
</g>
<!-- room_439&#45;&gt;room_440 -->
<g id="edge31" class="edge">
<title>room_439&#45;&gt;room_440</title>
<path fill="none" stroke="black" d="M728,-905.09C749.86,-921.9 787.44,-947.04 816.98,-964.92"/>
<polygon fill="black" stroke="black" points="815.48,-968.11 825.86,-970.22 819.07,-962.09 815.48,-968.11"/>
<text text-anchor="middle" x="769.38" y="-937.81" font-family="Times,serif" font-size="14.00">e</text>
</g>
<!-- room_443 -->
<g id="node15" class="node">
<title>room_443</title>
<ellipse fill="none" stroke="black" cx="747.66" cy="-1030.05" rx="68.34" ry="18"/>
<text text-anchor="middle" x="747.66" y="-1025.85" font-family="Times,serif" font-size="14.00">Weathered Bluff</text>
</g>
<!-- room_439&#45;&gt;room_443 -->
<g id="edge32" class="edge">
<title>room_439&#45;&gt;room_443</title>
<path fill="none" stroke="black" d="M710.14,-905.64C713.95,-930.05 725.13,-973.77 734.59,-1002.35"/>
<polygon fill="black" stroke="black" points="731.4,-1003.82 737.98,-1012.13 738.01,-1001.53 731.4,-1003.82"/>
<text text-anchor="middle" x="717.31" y="-956.79" font-family="Times,serif" font-size="14.00">w</text>
</g>
<!-- room_207&#45;&gt;room_81 -->
<g id="edge17" class="edge">
<title>room_207&#45;&gt;room_81</title>
<path fill="none" stroke="black" d="M439.27,-719.73C459.72,-737.11 495.55,-763.49 523.5,-782.08"/>
<polygon fill="black" stroke="black" points="521.62,-785.03 531.9,-787.58 525.45,-779.17 521.62,-785.03"/>
<text text-anchor="middle" x="478.66" y="-753.7" font-family="Times,serif" font-size="14.00">s</text>
</g>
<!-- room_207&#45;&gt;room_208 -->
<g id="edge18" class="edge">
<title>room_207&#45;&gt;room_208</title>
<path fill="none" stroke="black" d="M418.58,-720.16C415.87,-746.59 415.46,-796.2 417.45,-827.7"/>
<polygon fill="black" stroke="black" points="413.99,-828.32 418.25,-838.01 420.97,-827.77 413.99,-828.32"/>
<text text-anchor="middle" x="414.91" y="-762.73" font-family="Times,serif" font-size="14.00">e</text>
</g>
<!-- room_204 -->
<g id="node8" class="node">
<title>room_204</title>
<ellipse fill="none" stroke="black" cx="414.3" cy="-529.04" rx="77.15" ry="18"/>
<text text-anchor="middle" x="414.3" y="-524.84" font-family="Times,serif" font-size="14.00">Windswept Tundra</text>
</g>
<!-- room_207&#45;&gt;room_204 -->
<g id="edge19" class="edge">
<title>room_207&#45;&gt;room_204</title>
<path fill="none" stroke="black" d="M426.54,-684.08C427.94,-653.94 425.12,-593.25 420.92,-557.39"/>
<polygon fill="black" stroke="black" points="424.34,-556.58 419.57,-547.12 417.4,-557.49 424.34,-556.58"/>
<text text-anchor="middle" x="418.67" y="-623.54" font-family="Times,serif" font-size="14.00">w</text>
</g>
<!-- room_209 -->
<g id="node10" class="node">
<title>room_209</title>
<ellipse fill="none" stroke="black" cx="251.34" cy="-756.91" rx="59.68" ry="18"/>
<text text-anchor="middle" x="251.34" y="-752.71" font-family="Times,serif" font-size="14.00">Ashen Wastes</text>
</g>
<!-- room_207&#45;&gt;room_209 -->
<g id="edge16" class="edge">
<title>room_207&#45;&gt;room_209</title>
<path fill="none" stroke="black" d="M370.17,-712.51C344.92,-719.73 315.2,-729.31 291.79,-737.82"/>
<polygon fill="black" stroke="black" points="290.34,-734.63 282.18,-741.39 292.77,-741.19 290.34,-734.63"/>
<text text-anchor="middle" x="327.48" y="-727.97" font-family="Times,serif" font-size="14.00">n</text>
</g>
<!-- room_202 -->
<g id="node5" class="node">
<title>room_202</title>
<ellipse fill="none" stroke="black" cx="501.28" cy="-250.27" rx="73.43" ry="18"/>
<text text-anchor="middle" x="501.28" y="-246.07" font-family="Times,serif" font-size="14.00">Desolate Expanse</text>
</g>
<!-- room_206 -->
<g id="node6" class="node">
<title>room_206</title>
<ellipse fill="none" stroke="black" cx="370.43" cy="-365.36" rx="66.72" ry="18"/>
<text text-anchor="middle" x="370.43" y="-361.16" font-family="Times,serif" font-size="14.00">Rocky Foothills</text>
</g>
<!-- room_202&#45;&gt;room_206 -->
<g id="edge4" class="edge">
<title>room_202&#45;&gt;room_206</title>
<path fill="none" stroke="black" d="M474.06,-267.1C449.26,-286.42 413.32,-318.02 390.89,-340.23"/>
<polygon fill="black" stroke="black" points="388.37,-337.8 383.83,-347.37 393.35,-342.72 388.37,-337.8"/>
<text text-anchor="middle" x="429.75" y="-306.47" font-family="Times,serif" font-size="14.00">s</text>
</g>
<!-- room_203 -->
<g id="node7" class="node">
<title>room_203</title>
<ellipse fill="none" stroke="black" cx="502.14" cy="-397.55" rx="43.05" ry="18"/>
<text text-anchor="middle" x="502.14" y="-393.35" font-family="Times,serif" font-size="14.00">Salt Flats</text>
</g>
<!-- room_202&#45;&gt;room_203 -->
<g id="edge5" class="edge">
<title>room_202&#45;&gt;room_203</title>
<path fill="none" stroke="black" d="M496.77,-268.35C494.38,-293.54 494.37,-339.44 496.51,-369.2"/>
<polygon fill="black" stroke="black" points="493.05,-369.71 497.4,-379.37 500.02,-369.1 493.05,-369.71"/>
<text text-anchor="middle" x="493.53" y="-321.58" font-family="Times,serif" font-size="14.00">e</text>
</g>
<!-- room_206&#45;&gt;room_202 -->
<g id="edge14" class="edge">
<title>room_206&#45;&gt;room_202</title>
<path fill="none" stroke="black" d="M397.34,-348.78C422.1,-329.52 458.18,-297.81 480.72,-275.51"/>
<polygon fill="black" stroke="black" points="483.26,-277.91 487.8,-268.34 478.28,-272.99 483.26,-277.91"/>
<text text-anchor="middle" x="444.08" y="-314.94" font-family="Times,serif" font-size="14.00">w</text>
</g>
<!-- room_206&#45;&gt;room_203 -->
<g id="edge12" class="edge">
<title>room_206&#45;&gt;room_203</title>
<path fill="none" stroke="black" d="M406.71,-380.58C420.03,-384.44 435.39,-388.34 449.84,-391.55"/>
<polygon fill="black" stroke="black" points="449.16,-394.99 459.67,-393.66 450.62,-388.14 449.16,-394.99"/>
<text text-anchor="middle" x="424.78" y="-388.87" font-family="Times,serif" font-size="14.00">n</text>
</g>
<!-- room_206&#45;&gt;room_204 -->
<g id="edge13" class="edge">
<title>room_206&#45;&gt;room_204</title>
<path fill="none" stroke="black" d="M370.8,-383.38C375.47,-411.96 390.11,-467.84 401.43,-501.48"/>
<polygon fill="black" stroke="black" points="398.21,-502.87 404.82,-511.15 404.81,-500.55 398.21,-502.87"/>
<text text-anchor="middle" x="383.01" y="-445.23" font-family="Times,serif" font-size="14.00">e</text>
</g>
<!-- room_560 -->
<g id="node9" class="node">
<title>room_560</title>
<ellipse fill="none" stroke="black" cx="243.64" cy="-261.72" rx="52.22" ry="18"/>
<text text-anchor="middle" x="243.64" y="-257.52" font-family="Times,serif" font-size="14.00">Stone Cairn</text>
</g>
<!-- room_206&#45;&gt;room_560 -->
<g id="edge15" class="edge">
<title>room_206&#45;&gt;room_560</title>
<path fill="none" stroke="black" d="M356.36,-347.68C337.92,-329.84 305.12,-302.53 279.61,-283.42"/>
<polygon fill="black" stroke="black" points="281.4,-280.39 271.27,-277.28 277.25,-286.03 281.4,-280.39"/>
<text text-anchor="middle" x="314.49" y="-318.35" font-family="Times,serif" font-size="14.00">u</text>
</g>
<!-- room_203&#45;&gt;room_202 -->
<g id="edge8" class="edge">
<title>room_203&#45;&gt;room_202</title>
<path fill="none" stroke="black" d="M506.65,-379.46C509.03,-354.27 509.04,-308.38 506.9,-278.61"/>
<polygon fill="black" stroke="black" points="510.37,-278.11 506.01,-268.45 503.4,-278.71 510.37,-278.11"/>
<text text-anchor="middle" x="501.72" y="-331.84" font-family="Times,serif" font-size="14.00">w</text>
</g>
<!-- room_203&#45;&gt;room_206 -->
<g id="edge6" class="edge">
<title>room_203&#45;&gt;room_206</title>
<path fill="none" stroke="black" d="M472.64,-384.35C463.07,-381.42 452.02,-378.41 440.78,-375.61"/>
<polygon fill="black" stroke="black" points="441.44,-372.17 430.9,-373.23 439.8,-378.98 441.44,-372.17"/>
<text text-anchor="middle" x="453.99" y="-382.78" font-family="Times,serif" font-size="14.00">s</text>
</g>
<!-- room_203&#45;&gt;room_204 -->
<g id="edge7" class="edge">
<title>room_203&#45;&gt;room_204</title>
<path fill="none" stroke="black" d="M485.06,-414.2C467.56,-436.34 441.19,-475.57 425.93,-501.98"/>
<polygon fill="black" stroke="black" points="422.86,-500.3 421.03,-510.73 428.96,-503.72 422.86,-500.3"/>
<text text-anchor="middle" x="452.38" y="-460.89" font-family="Times,serif" font-size="14.00">e</text>
</g>
<!-- room_204&#45;&gt;room_207 -->
<g id="edge10" class="edge">
<title>room_204&#45;&gt;room_207</title>
<path fill="none" stroke="black" d="M410.91,-547.14C409.51,-577.28 412.32,-637.97 416.52,-673.83"/>
<polygon fill="black" stroke="black" points="413.1,-674.64 417.87,-684.1 420.04,-673.73 413.1,-674.64"/>
<text text-anchor="middle" x="410.61" y="-613.28" font-family="Times,serif" font-size="14.00">e</text>
</g>
<!-- room_204&#45;&gt;room_206 -->
<g id="edge9" class="edge">
<title>room_204&#45;&gt;room_206</title>
<path fill="none" stroke="black" d="M413.93,-511.03C409.26,-482.45 394.62,-426.56 383.3,-392.93"/>
<polygon fill="black" stroke="black" points="386.52,-391.54 379.91,-383.26 379.92,-393.85 386.52,-391.54"/>
<text text-anchor="middle" x="395.89" y="-454.78" font-family="Times,serif" font-size="14.00">s</text>
</g>
<!-- room_204&#45;&gt;room_203 -->
<g id="edge11" class="edge">
<title>room_204&#45;&gt;room_203</title>
<path fill="none" stroke="black" d="M432.23,-511.31C449.75,-488.96 475.57,-450.48 490.57,-424.49"/>
<polygon fill="black" stroke="black" points="493.75,-425.98 495.58,-415.54 487.64,-422.56 493.75,-425.98"/>
<text text-anchor="middle" x="466.46" y="-470.7" font-family="Times,serif" font-size="14.00">w</text>
</g>
<!-- room_560&#45;&gt;room_206 -->
<g id="edge47" class="edge">
<title>room_560&#45;&gt;room_206</title>
<path fill="none" stroke="black" d="M257.71,-279.4C275.82,-296.91 307.75,-323.55 333.05,-342.6"/>
<polygon fill="black" stroke="black" points="331.22,-345.6 341.34,-348.74 335.39,-339.98 331.22,-345.6"/>
<text text-anchor="middle" x="291.88" y="-313.8" font-family="Times,serif" font-size="14.00">d</text>
</g>
<!-- room_559 -->
<g id="node17" class="node">
<title>room_559</title>
<ellipse fill="none" stroke="black" cx="155.62" cy="-132.31" rx="69.61" ry="18"/>
<text text-anchor="middle" x="155.62" y="-128.11" font-family="Times,serif" font-size="14.00">Path of Shadows</text>
</g>
<!-- room_560&#45;&gt;room_559 -->
<g id="edge46" class="edge">
<title>room_560&#45;&gt;room_559</title>
<path fill="none" stroke="black" d="M236.97,-243.8C224.76,-221.49 199.31,-183.37 180.01,-157.98"/>
<polygon fill="black" stroke="black" points="182.63,-155.64 173.73,-149.89 177.1,-159.94 182.63,-155.64"/>
<text text-anchor="middle" x="205.76" y="-203.69" font-family="Times,serif" font-size="14.00">s</text>
</g>
<!-- room_209&#45;&gt;room_207 -->
<g id="edge24" class="edge">
<title>room_209&#45;&gt;room_207</title>
<path fill="none" stroke="black" d="M301.98,-747.23C327.53,-740 358.11,-730.18 382.16,-721.46"/>
<polygon fill="black" stroke="black" points="383.54,-724.68 391.7,-717.93 381.1,-718.12 383.54,-724.68"/>
<text text-anchor="middle" x="339.35" y="-737.15" font-family="Times,serif" font-size="14.00">s</text>
</g>
<!-- room_211 -->
<g id="node12" class="node">
<title>room_211</title>
<ellipse fill="none" stroke="black" cx="155.18" cy="-893.41" rx="59.68" ry="18"/>
<text text-anchor="middle" x="155.18" y="-889.21" font-family="Times,serif" font-size="14.00">Ashen Wastes</text>
</g>
<!-- room_209&#45;&gt;room_211 -->
<g id="edge23" class="edge">
<title>room_209&#45;&gt;room_211</title>
<path fill="none" stroke="black" d="M233.1,-774.19C213.86,-797.53 184.41,-839.17 167.64,-866.57"/>
<polygon fill="black" stroke="black" points="164.57,-864.89 162.47,-875.28 170.59,-868.47 164.57,-864.89"/>
<text text-anchor="middle" x="196.87" y="-823.18" font-family="Times,serif" font-size="14.00">n</text>
</g>
<!-- room_210&#45;&gt;room_208 -->
<g id="edge26" class="edge">
<title>room_210&#45;&gt;room_208</title>
<path fill="none" stroke="black" d="M320.65,-954.44C344.96,-935.35 380.53,-903.71 402.68,-881.47"/>
<polygon fill="black" stroke="black" points="405.45,-883.64 409.92,-874.04 400.44,-878.76 405.45,-883.64"/>
<text text-anchor="middle" x="358.94" y="-920.76" font-family="Times,serif" font-size="14.00">s</text>
</g>
<!-- room_210&#45;&gt;room_211 -->
<g id="edge25" class="edge">
<title>room_210&#45;&gt;room_211</title>
<path fill="none" stroke="black" d="M274.29,-953.58C255.39,-941.24 226.52,-924.78 201.92,-912.11"/>
<polygon fill="black" stroke="black" points="203.24,-908.86 192.74,-907.46 200.07,-915.1 203.24,-908.86"/>
<text text-anchor="middle" x="234.61" y="-935.65" font-family="Times,serif" font-size="14.00">n</text>
</g>
<!-- room_211&#45;&gt;room_209 -->
<g id="edge28" class="edge">
<title>room_211&#45;&gt;room_209</title>
<path fill="none" stroke="black" d="M173.42,-876.12C192.65,-852.79 222.11,-811.15 238.88,-783.75"/>
<polygon fill="black" stroke="black" points="241.95,-785.43 244.05,-775.04 235.93,-781.85 241.95,-785.43"/>
<text text-anchor="middle" x="211.2" y="-832.73" font-family="Times,serif" font-size="14.00">w</text>
</g>
<!-- room_211&#45;&gt;room_210 -->
<g id="edge27" class="edge">
<title>room_211&#45;&gt;room_210</title>
<path fill="none" stroke="black" d="M175.38,-910.49C194.28,-922.84 223.15,-939.29 247.75,-951.96"/>
<polygon fill="black" stroke="black" points="246.43,-955.22 256.93,-956.61 249.59,-948.97 246.43,-955.22"/>
<text text-anchor="middle" x="208.45" y="-934.03" font-family="Times,serif" font-size="14.00">e</text>
</g>
<!-- room_444&#45;&gt;room_439 -->
<g id="edge37" class="edge">
<title>room_444&#45;&gt;room_439</title>
<path fill="none" stroke="black" d="M796.86,-874.57C788.91,-875.03 780.74,-875.61 772.76,-876.29"/>
<polygon fill="black" stroke="black" points="772.4,-872.8 762.76,-877.19 773.04,-879.77 772.4,-872.8"/>
<text text-anchor="middle" x="781.31" y="-864.23" font-family="Times,serif" font-size="14.00">n</text>
</g>
<!-- room_444&#45;&gt;room_443 -->
<g id="edge40" class="edge">
<title>room_444&#45;&gt;room_443</title>
<path fill="none" stroke="black" d="M839,-894.1C816.85,-920.67 780.36,-971.53 760.76,-1002.99"/>
<polygon fill="black" stroke="black" points="757.67,-1001.33 755.48,-1011.7 763.65,-1004.97 757.67,-1001.33"/>
<text text-anchor="middle" x="794.82" y="-951.35" font-family="Times,serif" font-size="14.00">w</text>
</g>
<!-- room_445 -->
<g id="node16" class="node">
<title>room_445</title>
<ellipse fill="none" stroke="black" cx="1005.34" cy="-940.98" rx="77.78" ry="18"/>
<text text-anchor="middle" x="1005.34" y="-936.78" font-family="Times,serif" font-size="14.00">Carolingian Prairie</text>
</g>
<!-- room_444&#45;&gt;room_445 -->
<g id="edge38" class="edge">
<title>room_444&#45;&gt;room_445</title>
<path fill="none" stroke="black" d="M866.85,-894.89C879.63,-906.14 902.7,-918.86 926.42,-928.86"/>
<polygon fill="black" stroke="black" points="925.3,-932.18 935.88,-932.69 927.92,-925.69 925.3,-932.18"/>
<text text-anchor="middle" x="893.91" y="-914.67" font-family="Times,serif" font-size="14.00">s</text>
</g>
<!-- room_444&#45;&gt;room_445 -->
<g id="edge39" class="edge">
<title>room_444&#45;&gt;room_445</title>
<path fill="none" stroke="black" d="M916.27,-881.29C941.67,-890.18 969.48,-903.65 987.28,-916.34"/>
<polygon fill="black" stroke="black" points="985.58,-919.45 995.61,-922.87 989.9,-913.95 985.58,-919.45"/>
<text text-anchor="middle" x="948.67" y="-901.62" font-family="Times,serif" font-size="14.00">e</text>
</g>
<!-- room_440&#45;&gt;room_439 -->
<g id="edge34" class="edge">
<title>room_440&#45;&gt;room_439</title>
<path fill="none" stroke="black" d="M842.28,-968.54C820.28,-951.62 782.37,-926.26 752.75,-908.36"/>
<polygon fill="black" stroke="black" points="754.23,-905.17 743.85,-903.06 750.65,-911.19 754.23,-905.17"/>
<text text-anchor="middle" x="792.46" y="-927.25" font-family="Times,serif" font-size="14.00">w</text>
</g>
<!-- room_440&#45;&gt;room_445 -->
<g id="edge33" class="edge">
<title>room_440&#45;&gt;room_445</title>
<path fill="none" stroke="black" d="M917.43,-975.16C932.63,-970.77 948.76,-965.65 963,-960.69"/>
<polygon fill="black" stroke="black" points="964.28,-963.95 972.52,-957.29 961.93,-957.36 964.28,-963.95"/>
<text text-anchor="middle" x="937.49" y="-970.73" font-family="Times,serif" font-size="14.00">s</text>
</g>
<!-- room_443&#45;&gt;room_439 -->
<g id="edge36" class="edge">
<title>room_443&#45;&gt;room_439</title>
<path fill="none" stroke="black" d="M747.6,-1011.99C743.79,-987.58 732.61,-943.86 723.15,-915.28"/>
<polygon fill="black" stroke="black" points="726.34,-913.81 719.76,-905.5 719.73,-916.1 726.34,-913.81"/>
<text text-anchor="middle" x="732.27" y="-966.44" font-family="Times,serif" font-size="14.00">e</text>
</g>
<!-- room_443&#45;&gt;room_444 -->
<g id="edge35" class="edge">
<title>room_443&#45;&gt;room_444</title>
<path fill="none" stroke="black" d="M766.07,-1012.47C788.26,-985.8 824.62,-935.1 844.13,-903.77"/>
<polygon fill="black" stroke="black" points="847.2,-905.46 849.39,-895.1 841.21,-901.83 847.2,-905.46"/>
<text text-anchor="middle" x="807.82" y="-946.92" font-family="Times,serif" font-size="14.00">s</text>
</g>
<!-- room_445&#45;&gt;room_444 -->
<g id="edge41" class="edge">
<title>room_445&#45;&gt;room_444</title>
<path fill="none" stroke="black" d="M979.62,-923.95C960.69,-914.32 934.3,-902.51 910.85,-893.04"/>
<polygon fill="black" stroke="black" points="911.94,-889.7 901.36,-889.26 909.36,-896.21 911.94,-889.7"/>
<text text-anchor="middle" x="941.74" y="-911.29" font-family="Times,serif" font-size="14.00">n</text>
</g>
<!-- room_445&#45;&gt;room_444 -->
<g id="edge43" class="edge">
<title>room_445&#45;&gt;room_444</title>
<path fill="none" stroke="black" d="M956.76,-926.81C935.31,-918.3 910.61,-907.46 891.16,-897.98"/>
<polygon fill="black" stroke="black" points="892.59,-894.78 882.08,-893.45 889.47,-901.04 892.59,-894.78"/>
<text text-anchor="middle" x="918.91" y="-915.2" font-family="Times,serif" font-size="14.00">w</text>
</g>
<!-- room_445&#45;&gt;room_440 -->
<g id="edge42" class="edge">
<title>room_445&#45;&gt;room_440</title>
<path fill="none" stroke="black" d="M945.6,-952.6C931.02,-956.86 915.73,-961.74 902.18,-966.46"/>
<polygon fill="black" stroke="black" points="900.89,-963.21 892.65,-969.87 903.25,-969.8 900.89,-963.21"/>
<text text-anchor="middle" x="920.78" y="-948.33" font-family="Times,serif" font-size="14.00">e</text>
</g>
<!-- room_559&#45;&gt;room_560 -->
<g id="edge44" class="edge">
<title>room_559&#45;&gt;room_560</title>
<path fill="none" stroke="black" d="M162.45,-150.5C174.8,-173.02 200.41,-211.32 219.68,-236.61"/>
<polygon fill="black" stroke="black" points="217.04,-238.91 225.95,-244.65 222.56,-234.61 217.04,-238.91"/>
<text text-anchor="middle" x="187.56" y="-196.36" font-family="Times,serif" font-size="14.00">n</text>
</g>
<!-- room_613 -->
<g id="node18" class="node">
<title>room_613</title>
<ellipse fill="none" stroke="black" cx="54.57" cy="-18" rx="54.64" ry="18"/>
<text text-anchor="middle" x="54.57" y="-13.8" font-family="Times,serif" font-size="14.00">Long Stones</text>
</g>
<!-- room_559&#45;&gt;room_613 -->
<g id="edge45" class="edge">
<title>room_559&#45;&gt;room_613</title>
<path fill="none" stroke="black" d="M145.96,-114.24C131.64,-94.68 104.69,-63.61 83.69,-42.04"/>
<polygon fill="black" stroke="black" points="86.07,-39.47 76.54,-34.83 81.1,-44.4 86.07,-39.47"/>
<text text-anchor="middle" x="112.1" y="-80.94" font-family="Times,serif" font-size="14.00">s</text>
</g>
<!-- room_613&#45;&gt;room_559 -->
<g id="edge48" class="edge">
<title>room_613&#45;&gt;room_559</title>
<path fill="none" stroke="black" d="M64.05,-35.82C78.21,-55.21 104.99,-86.13 126.01,-107.77"/>
<polygon fill="black" stroke="black" points="123.65,-110.36 133.18,-115.01 128.63,-105.44 123.65,-110.36"/>
<text text-anchor="middle" x="91.53" y="-74.6" font-family="Times,serif" font-size="14.00">n</text>
</g>
</g>
</svg>
