<?xml version="1.0" encoding="UTF-8" standalone="no"?>
<!DOCTYPE svg PUBLIC "-//W3C//DTD SVG 1.1//EN"
 "http://www.w3.org/Graphics/SVG/1.1/DTD/svg11.dtd">
<!-- Generated by graphviz version 2.42.3 (20191010.1750)
 -->
<!-- Title: monster Pages: 1 -->
<svg width="1442pt" height="637pt"
 viewBox="0.00 0.00 1441.69 637.33" xmlns="http://www.w3.org/2000/svg" xmlns:xlink="http://www.w3.org/1999/xlink">
<g id="graph0" class="graph" transform="scale(1 1) rotate(0) translate(4 633.33)">
<title>monster</title>
<polygon fill="white" stroke="transparent" points="-4,4 -4,-633.33 1437.69,-633.33 1437.69,4 -4,4"/>
<!-- room_81 -->
<g id="node1" class="node">
<title>room_81</title>
<ellipse fill="none" stroke="black" cx="955.4" cy="-287.6" rx="66.22" ry="18"/>
<text text-anchor="middle" x="955.4" y="-283.4" font-family="Times,serif" font-size="14.00">Shadowed Hills</text>
</g>
<!-- room_208 -->
<g id="node2" class="node">
<title>room_208</title>
<ellipse fill="none" stroke="black" cx="919.31" cy="-184.97" rx="59.68" ry="18"/>
<text text-anchor="middle" x="919.31" y="-180.77" font-family="Times,serif" font-size="14.00">Ashen Wastes</text>
</g>
<!-- room_81&#45;&gt;room_208 -->
<g id="edge1" class="edge">
<title>room_81&#45;&gt;room_208</title>
<path fill="none" stroke="black" d="M954.43,-269.42C950.69,-253.54 942.89,-230.31 935.43,-212.22"/>
<polygon fill="black" stroke="black" points="938.52,-210.56 931.34,-202.77 932.1,-213.34 938.52,-210.56"/>
<text text-anchor="middle" x="941.43" y="-243.62" font-family="Times,serif" font-size="14.00">n</text>
</g>
<!-- room_439 -->
<g id="node3" class="node">
<title>room_439</title>
<ellipse fill="none" stroke="black" cx="1077.39" cy="-331.64" rx="63.78" ry="18"/>
<text text-anchor="middle" x="1077.39" y="-327.44" font-family="Times,serif" font-size="14.00">Haunted Lands</text>
</g>
<!-- room_81&#45;&gt;room_439 -->
<g id="edge2" class="edge">
<title>room_81&#45;&gt;room_439</title>
<path fill="none" stroke="black" d="M983.55,-304.05C993.59,-308.32 1005.33,-312.85 1017.03,-317.02"/>
<polygon fill="black" stroke="black" points="1016.23,-320.44 1026.82,-320.42 1018.52,-313.83 1016.23,-320.44"/>
<text text-anchor="middle" x="997.57" y="-313.34" font-family="Times,serif" font-size="14.00">s</text>
</g>
<!-- room_207 -->
<g id="node4" class="node">
<title>room_207</title>
<ellipse fill="none" stroke="black" cx="816.58" cy="-256.42" rx="64.24" ry="18"/>
<text text-anchor="middle" x="816.58" y="-252.22" font-family="Times,serif" font-size="14.00">Scorched Earth</text>
</g>
<!-- room_81&#45;&gt;room_207 -->
<g id="edge3" class="edge">
<title>room_81&#45;&gt;room_207</title>
<path fill="none" stroke="black" d="M917.34,-272.75C907.67,-270.15 896.98,-267.55 886.28,-265.16"/>
<polygon fill="black" stroke="black" points="886.99,-261.73 876.47,-263.03 885.5,-268.57 886.99,-261.73"/>
<text text-anchor="middle" x="896.75" y="-257.75" font-family="Times,serif" font-size="14.00">w</text>
</g>
<!-- room_208&#45;&gt;room_81 -->
<g id="edge20" class="edge">
<title>room_208&#45;&gt;room_81</title>
<path fill="none" stroke="black" d="M920.29,-203.16C924.02,-219.04 931.82,-242.27 939.29,-260.36"/>
<polygon fill="black" stroke="black" points="936.19,-262.02 943.38,-269.8 942.62,-259.24 936.19,-262.02"/>
<text text-anchor="middle" x="927.06" y="-234.56" font-family="Times,serif" font-size="14.00">s</text>
</g>
<!-- room_208&#45;&gt;room_207 -->
<g id="edge22" class="edge">
<title>room_208&#45;&gt;room_207</title>
<path fill="none" stroke="black" d="M886.63,-200.2C871.62,-209.64 854.16,-221.82 840.4,-232.49"/>
<polygon fill="black" stroke="black" points="838.01,-229.93 832.37,-238.9 842.37,-235.4 838.01,-229.93"/>
<text text-anchor="middle" x="858.46" y="-219.15" font-family="Times,serif" font-size="14.00">w</text>
</g>
<!-- room_210 -->
<g id="node11" class="node">
<title>room_210</title>
<ellipse fill="none" stroke="black" cx="937.26" cy="-62" rx="59.68" ry="18"/>
<text text-anchor="middle" x="937.26" y="-57.8" font-family="Times,serif" font-size="14.00">Ashen Wastes</text>
</g>
<!-- room_208&#45;&gt;room_210 -->
<g id="edge21" class="edge">
<title>room_208&#45;&gt;room_210</title>
<path fill="none" stroke="black" d="M927,-167.02C931.99,-146.92 937.03,-114.09 938.91,-90.49"/>
<polygon fill="black" stroke="black" points="942.41,-90.56 939.54,-80.37 935.42,-90.13 942.41,-90.56"/>
<text text-anchor="middle" x="929.85" y="-131.55" font-family="Times,serif" font-size="14.00">e</text>
</g>
<!-- room_439&#45;&gt;room_81 -->
<g id="edge29" class="edge">
<title>room_439&#45;&gt;room_81</title>
<path fill="none" stroke="black" d="M1049.55,-315.32C1039.62,-311.09 1028,-306.59 1016.39,-302.45"/>
<polygon fill="black" stroke="black" points="1017.27,-299.05 1006.67,-299.06 1014.96,-305.66 1017.27,-299.05"/>
<text text-anchor="middle" x="1029.47" y="-297.68" font-family="Times,serif" font-size="14.00">n</text>
</g>
<!-- room_444 -->
<g id="node13" class="node">
<title>room_444</title>
<ellipse fill="none" stroke="black" cx="1209.83" cy="-293.23" rx="60.42" ry="18"/>
<text text-anchor="middle" x="1209.83" y="-289.03" font-family="Times,serif" font-size="14.00">Ilutian Downs</text>
</g>
<!-- room_439&#45;&gt;room_444 -->
<g id="edge30" class="edge">
<title>room_439&#45;&gt;room_444</title>
<path fill="none" stroke="black" d="M1132.72,-322.5C1144.67,-319.26 1157.09,-315.56 1168.4,-311.88"/>
<polygon fill="black" stroke="black" points="1169.63,-315.16 1178,-308.66 1167.4,-308.52 1169.63,-315.16"/>
<text text-anchor="middle" x="1147.84" y="-319.99" font-family="Times,serif" font-size="14.00">s</text>
</g>
<!-- room_440 -->
<g id="node14" class="node">
<title>room_440</title>
<ellipse fill="none" stroke="black" cx="1223.92" cy="-377.79" rx="72" ry="18"/>
<text text-anchor="middle" x="1223.92" y="-373.59" font-family="Times,serif" font-size="14.00">Plain of the Dead</text>
</g>
<!-- room_439&#45;&gt;room_440 -->
<g id="edge31" class="edge">
<title>room_439&#45;&gt;room_440</title>
<path fill="none" stroke="black" d="M1108.55,-347.47C1122.76,-352.79 1140.18,-358.62 1157.13,-363.79"/>
<polygon fill="black" stroke="black" points="1156.44,-367.23 1167.03,-366.75 1158.45,-360.53 1156.44,-367.23"/>
<text text-anchor="middle" x="1129.73" y="-358.43" font-family="Times,serif" font-size="14.00">e</text>
</g>
<!-- room_443 -->
<g id="node15" class="node">
<title>room_443</title>
<ellipse fill="none" stroke="black" cx="1141.97" cy="-423.74" rx="68.34" ry="18"/>
<text text-anchor="middle" x="1141.97" y="-419.54" font-family="Times,serif" font-size="14.00">Weathered Bluff</text>
</g>
<!-- room_439&#45;&gt;room_443 -->
<g id="edge32" class="edge">
<title>room_439&#45;&gt;room_443</title>
<path fill="none" stroke="black" d="M1083.82,-349.81C1091.58,-363.66 1104.54,-382.82 1116.33,-398.2"/>
<polygon fill="black" stroke="black" points="1113.77,-400.61 1122.72,-406.29 1119.27,-396.27 1113.77,-400.61"/>
<text text-anchor="middle" x="1095.02" y="-376.8" font-family="Times,serif" font-size="14.00">w</text>
</g>
<!-- room_207&#45;&gt;room_81 -->
<g id="edge17" class="edge">
<title>room_207&#45;&gt;room_81</title>
<path fill="none" stroke="black" d="M854.27,-271.18C863.54,-273.67 873.78,-276.18 884.06,-278.5"/>
<polygon fill="black" stroke="black" points="883.4,-281.94 893.92,-280.65 884.9,-275.1 883.4,-281.94"/>
<text text-anchor="middle" x="866.44" y="-277.64" font-family="Times,serif" font-size="14.00">s</text>
</g>
<!-- room_207&#45;&gt;room_208 -->
<g id="edge18" class="edge">
<title>room_207&#45;&gt;room_208</title>
<path fill="none" stroke="black" d="M849.83,-240.83C864.71,-231.45 881.9,-219.44 895.48,-208.91"/>
<polygon fill="black" stroke="black" points="897.78,-211.55 903.42,-202.58 893.42,-206.08 897.78,-211.55"/>
<text text-anchor="middle" x="869.55" y="-227.67" font-family="Times,serif" font-size="14.00">e</text>
</g>
<!-- room_204 -->
<g id="node8" class="node">
<title>room_204</title>
<ellipse fill="none" stroke="black" cx="750.13" cy="-335.4" rx="77.15" ry="18"/>
<text text-anchor="middle" x="750.13" y="-331.2" font-family="Times,serif" font-size="14.00">Windswept Tundra</text>
</g>
<!-- room_207&#45;&gt;room_204 -->
<g id="edge19" class="edge">
<title>room_207&#45;&gt;room_204</title>
<path fill="none" stroke="black" d="M794.14,-273.69C784.17,-284.14 772.81,-297.6 764.06,-309.32"/>
<polygon fill="black" stroke="black" points="761.2,-307.3 758.21,-317.47 766.88,-311.38 761.2,-307.3"/>
<text text-anchor="middle" x="774.04" y="-294.3" font-family="Times,serif" font-size="14.00">w</text>
</g>
<!-- room_209 -->
<g id="node10" class="node">
<title>room_209</title>
<ellipse fill="none" stroke="black" cx="788.77" cy="-136.04" rx="59.68" ry="18"/>
<text text-anchor="middle" x="788.77" y="-131.84" font-family="Times,serif" font-size="14.00">Ashen Wastes</text>
</g>
<!-- room_207&#45;&gt;room_209 -->
<g id="edge16" class="edge">
<title>room_207&#45;&gt;room_209</title>
<path fill="none" stroke="black" d="M817.4,-238.33C815.01,-218.64 808.03,-186.92 801.27,-164.01"/>
<polygon fill="black" stroke="black" points="804.53,-162.69 798.2,-154.18 797.84,-164.77 804.53,-162.69"/>
<text text-anchor="middle" x="805.84" y="-203.97" font-family="Times,serif" font-size="14.00">n</text>
</g>
<!-- room_202 -->
<g id="node5" class="node">
<title>room_202</title>
<ellipse fill="none" stroke="black" cx="675.03" cy="-528.09" rx="73.43" ry="18"/>
<text text-anchor="middle" x="675.03" y="-523.89" font-family="Times,serif" font-size="14.00">Desolate Expanse</text>
</g>
<!-- room_206 -->
<g id="node6" class="node">
<title>room_206</title>
<ellipse fill="none" stroke="black" cx="669.32" cy="-398.36" rx="66.72" ry="18"/>
<text text-anchor="middle" x="669.32" y="-394.16" font-family="Times,serif" font-size="14.00">Rocky Foothills</text>
</g>
<!-- room_202&#45;&gt;room_206 -->
<g id="edge4" class="edge">
<title>room_202&#45;&gt;room_206</title>
<path fill="none" stroke="black" d="M679.06,-510.11C680.35,-488.51 679.04,-452.04 676.27,-426.65"/>
<polygon fill="black" stroke="black" points="679.72,-426.02 675,-416.53 672.77,-426.89 679.72,-426.02"/>
<text text-anchor="middle" x="674.94" y="-471.18" font-family="Times,serif" font-size="14.00">s</text>
</g>
<!-- room_203 -->
<g id="node7" class="node">
<title>room_203</title>
<ellipse fill="none" stroke="black" cx="740.96" cy="-447.85" rx="43.05" ry="18"/>
<text text-anchor="middle" x="740.96" y="-443.65" font-family="Times,serif" font-size="14.00">Salt Flats</text>
</g>
<!-- room_202&#45;&gt;room_203 -->
<g id="edge5" class="edge">
<title>room_202&#45;&gt;room_203</title>
<path fill="none" stroke="black" d="M697.01,-510.83C707.06,-500.07 718.6,-486.08 727.4,-473.99"/>
<polygon fill="black" stroke="black" points="730.4,-475.8 733.26,-465.6 724.67,-471.79 730.4,-475.8"/>
<text text-anchor="middle" x="709.1" y="-495.21" font-family="Times,serif" font-size="14.00">e</text>
</g>
<!-- room_206&#45;&gt;room_202 -->
<g id="edge14" class="edge">
<title>room_206&#45;&gt;room_202</title>
<path fill="none" stroke="black" d="M665.29,-416.34C664,-437.93 665.31,-474.41 668.08,-499.79"/>
<polygon fill="black" stroke="black" points="664.63,-500.43 669.35,-509.91 671.57,-499.56 664.63,-500.43"/>
<text text-anchor="middle" x="661.63" y="-460.86" font-family="Times,serif" font-size="14.00">w</text>
</g>
<!-- room_206&#45;&gt;room_203 -->
<g id="edge12" class="edge">
<title>room_206&#45;&gt;room_203</title>
<path fill="none" stroke="black" d="M684.36,-416.03C689.65,-420.33 695.83,-424.91 702.14,-429.24"/>
<polygon fill="black" stroke="black" points="700.48,-432.33 710.75,-434.93 704.34,-426.5 700.48,-432.33"/>
<text text-anchor="middle" x="689.75" y="-425.43" font-family="Times,serif" font-size="14.00">n</text>
</g>
<!-- room_206&#45;&gt;room_204 -->
<g id="edge13" class="edge">
<title>room_206&#45;&gt;room_204</title>
<path fill="none" stroke="black" d="M700.63,-382.11C709.93,-375.45 719.91,-367.63 728.47,-360.3"/>
<polygon fill="black" stroke="black" points="731.01,-362.72 736.17,-353.46 726.37,-357.48 731.01,-362.72"/>
<text text-anchor="middle" x="711.44" y="-360" font-family="Times,serif" font-size="14.00">e</text>
</g>
<!-- room_560 -->
<g id="node9" class="node">
<title>room_560</title>
<ellipse fill="none" stroke="black" cx="542.28" cy="-388.98" rx="52.22" ry="18"/>
<text text-anchor="middle" x="542.28" y="-384.78" font-family="Times,serif" font-size="14.00">Stone Cairn</text>
</g>
<!-- room_206&#45;&gt;room_560 -->
<g id="edge15" class="edge">
<title>room_206&#45;&gt;room_560</title>
<path fill="none" stroke="black" d="M615.2,-387.65C611.59,-387.34 607.95,-387.05 604.31,-386.8"/>
<polygon fill="black" stroke="black" points="604.32,-383.29 594.12,-386.15 603.88,-390.27 604.32,-383.29"/>
<text text-anchor="middle" x="606.26" y="-376.03" font-family="Times,serif" font-size="14.00">u</text>
</g>
<!-- room_203&#45;&gt;room_202 -->
<g id="edge8" class="edge">
<title>room_203&#45;&gt;room_202</title>
<path fill="none" stroke="black" d="M720.09,-463.93C709.81,-474.81 697.78,-489.34 688.66,-501.85"/>
<polygon fill="black" stroke="black" points="685.74,-499.92 682.87,-510.12 691.48,-503.94 685.74,-499.92"/>
<text text-anchor="middle" x="699.32" y="-485.69" font-family="Times,serif" font-size="14.00">w</text>
</g>
<!-- room_203&#45;&gt;room_206 -->
<g id="edge6" class="edge">
<title>room_203&#45;&gt;room_206</title>
<path fill="none" stroke="black" d="M726.61,-430.75C722.25,-427.17 717.24,-423.38 712.02,-419.69"/>
<polygon fill="black" stroke="black" points="713.96,-416.77 703.73,-414.01 710,-422.54 713.96,-416.77"/>
<text text-anchor="middle" x="722.04" y="-414.02" font-family="Times,serif" font-size="14.00">s</text>
</g>
<!-- room_203&#45;&gt;room_204 -->
<g id="edge7" class="edge">
<title>room_203&#45;&gt;room_204</title>
<path fill="none" stroke="black" d="M747.62,-429.7C750.9,-411.89 753.39,-384.48 753.76,-363.79"/>
<polygon fill="black" stroke="black" points="757.26,-363.66 753.75,-353.66 750.26,-363.67 757.26,-363.66"/>
<text text-anchor="middle" x="747.58" y="-399.54" font-family="Times,serif" font-size="14.00">e</text>
</g>
<!-- room_204&#45;&gt;room_207 -->
<g id="edge10" class="edge">
<title>room_204&#45;&gt;room_207</title>
<path fill="none" stroke="black" d="M772.57,-318.13C782.54,-307.68 793.9,-294.22 802.65,-282.5"/>
<polygon fill="black" stroke="black" points="805.51,-284.52 808.5,-274.35 799.83,-280.43 805.51,-284.52"/>
<text text-anchor="middle" x="784.51" y="-303.12" font-family="Times,serif" font-size="14.00">e</text>
</g>
<!-- room_204&#45;&gt;room_206 -->
<g id="edge9" class="edge">
<title>room_204&#45;&gt;room_206</title>
<path fill="none" stroke="black" d="M718.36,-351.98C709.09,-358.64 699.19,-366.4 690.72,-373.68"/>
<polygon fill="black" stroke="black" points="688.24,-371.2 683.1,-380.46 692.9,-376.43 688.24,-371.2"/>
<text text-anchor="middle" x="701.81" y="-365.63" font-family="Times,serif" font-size="14.00">s</text>
</g>
<!-- room_204&#45;&gt;room_203 -->
<g id="edge11" class="edge">
<title>room_204&#45;&gt;room_203</title>
<path fill="none" stroke="black" d="M743.47,-353.55C740.19,-371.35 737.7,-398.77 737.33,-419.46"/>
<polygon fill="black" stroke="black" points="733.83,-419.59 737.34,-429.58 740.83,-419.58 733.83,-419.59"/>
<text text-anchor="middle" x="745.45" y="-375.31" font-family="Times,serif" font-size="14.00">w</text>
</g>
<!-- room_560&#45;&gt;room_206 -->
<g id="edge47" class="edge">
<title>room_560&#45;&gt;room_206</title>
<path fill="none" stroke="black" d="M586.24,-398.72C588.3,-398.93 590.39,-399.14 592.51,-399.33"/>
<polygon fill="black" stroke="black" points="592.26,-402.83 602.52,-400.19 592.85,-395.85 592.26,-402.83"/>
<text text-anchor="middle" x="592.87" y="-401.82" font-family="Times,serif" font-size="14.00">d</text>
</g>
<!-- room_559 -->
<g id="node17" class="node">
<title>room_559</title>
<ellipse fill="none" stroke="black" cx="412.56" cy="-414.37" rx="69.61" ry="18"/>
<text text-anchor="middle" x="412.56" y="-410.17" font-family="Times,serif" font-size="14.00">Path of Shadows</text>
</g>
<!-- room_560&#45;&gt;room_559 -->
<g id="edge46" class="edge">
<title>room_560&#45;&gt;room_559</title>
<path fill="none" stroke="black" d="M490.86,-392.33C481.92,-393.88 472.61,-395.69 463.68,-397.6"/>
<polygon fill="black" stroke="black" points="462.78,-394.21 453.78,-399.8 464.3,-401.05 462.78,-394.21"/>
<text text-anchor="middle" x="474.55" y="-383.76" font-family="Times,serif" font-size="14.00">s</text>
</g>
<!-- room_209&#45;&gt;room_207 -->
<g id="edge24" class="edge">
<title>room_209&#45;&gt;room_207</title>
<path fill="none" stroke="black" d="M787.95,-154.13C790.34,-173.82 797.32,-205.54 804.07,-228.45"/>
<polygon fill="black" stroke="black" points="800.82,-229.77 807.14,-238.28 807.5,-227.69 800.82,-229.77"/>
<text text-anchor="middle" x="793.29" y="-194.09" font-family="Times,serif" font-size="14.00">s</text>
</g>
<!-- room_211 -->
<g id="node12" class="node">
<title>room_211</title>
<ellipse fill="none" stroke="black" cx="822.33" cy="-18" rx="59.68" ry="18"/>
<text text-anchor="middle" x="822.33" y="-13.8" font-family="Times,serif" font-size="14.00">Ashen Wastes</text>
</g>
<!-- room_209&#45;&gt;room_211 -->
<g id="edge23" class="edge">
<title>room_209&#45;&gt;room_211</title>
<path fill="none" stroke="black" d="M799.18,-118.22C806.61,-99.12 815.5,-68.56 820.29,-46.19"/>
<polygon fill="black" stroke="black" points="823.75,-46.75 822.23,-36.26 816.88,-45.4 823.75,-46.75"/>
<text text-anchor="middle" x="806.23" y="-85.01" font-family="Times,serif" font-size="14.00">n</text>
</g>
<!-- room_210&#45;&gt;room_208 -->
<g id="edge26" class="edge">
<title>room_210&#45;&gt;room_208</title>
<path fill="none" stroke="black" d="M929.58,-79.96C924.58,-100.05 919.54,-132.88 917.66,-156.49"/>
<polygon fill="black" stroke="black" points="914.16,-156.41 917.04,-166.61 921.15,-156.85 914.16,-156.41"/>
<text text-anchor="middle" x="920.9" y="-121.03" font-family="Times,serif" font-size="14.00">s</text>
</g>
<!-- room_210&#45;&gt;room_211 -->
<g id="edge25" class="edge">
<title>room_210&#45;&gt;room_211</title>
<path fill="none" stroke="black" d="M911.25,-45.73C901.61,-41.37 890.27,-36.73 878.97,-32.47"/>
<polygon fill="black" stroke="black" points="880.12,-29.16 869.53,-29 877.71,-35.73 880.12,-29.16"/>
<text text-anchor="middle" x="891.61" y="-27.9" font-family="Times,serif" font-size="14.00">n</text>
</g>
<!-- room_211&#45;&gt;room_209 -->
<g id="edge28" class="edge">
<title>room_211&#45;&gt;room_209</title>
<path fill="none" stroke="black" d="M811.92,-35.82C804.49,-54.92 795.59,-85.48 790.81,-107.85"/>
<polygon fill="black" stroke="black" points="787.35,-107.29 788.86,-117.78 794.22,-108.63 787.35,-107.29"/>
<text text-anchor="middle" x="796.31" y="-74.63" font-family="Times,serif" font-size="14.00">w</text>
</g>
<!-- room_211&#45;&gt;room_210 -->
<g id="edge27" class="edge">
<title>room_211&#45;&gt;room_210</title>
<path fill="none" stroke="black" d="M848.34,-34.27C857.98,-38.64 869.32,-43.28 880.62,-47.53"/>
<polygon fill="black" stroke="black" points="879.46,-50.84 890.06,-51 881.88,-44.27 879.46,-50.84"/>
<text text-anchor="middle" x="861.37" y="-43.7" font-family="Times,serif" font-size="14.00">e</text>
</g>
<!-- room_444&#45;&gt;room_439 -->
<g id="edge37" class="edge">
<title>room_444&#45;&gt;room_439</title>
<path fill="none" stroke="black" d="M1156.41,-301.85C1144.08,-305.16 1131.14,-308.99 1119.38,-312.8"/>
<polygon fill="black" stroke="black" points="1118.19,-309.51 1109.82,-316 1120.41,-316.15 1118.19,-309.51"/>
<text text-anchor="middle" x="1134.39" y="-296.13" font-family="Times,serif" font-size="14.00">n</text>
</g>
<!-- room_444&#45;&gt;room_443 -->
<g id="edge40" class="edge">
<title>room_444&#45;&gt;room_443</title>
<path fill="none" stroke="black" d="M1195.08,-310.74C1181.19,-332.75 1161.31,-370.67 1150.03,-396.48"/>
<polygon fill="black" stroke="black" points="1146.79,-395.14 1146.15,-405.72 1153.25,-397.85 1146.79,-395.14"/>
<text text-anchor="middle" x="1177.61" y="-342.41" font-family="Times,serif" font-size="14.00">w</text>
</g>
<!-- room_445 -->
<g id="node16" class="node">
<title>room_445</title>
<ellipse fill="none" stroke="black" cx="1356.04" cy="-327.49" rx="77.78" ry="18"/>
<text text-anchor="middle" x="1356.04" y="-323.29" font-family="Times,serif" font-size="14.00">Carolingian Prairie</text>
</g>
<!-- room_444&#45;&gt;room_445 -->
<g id="edge38" class="edge">
<title>room_444&#45;&gt;room_445</title>
<path fill="none" stroke="black" d="M1224.33,-310.75C1235.53,-317.19 1251.97,-323.22 1269.47,-327.87"/>
<polygon fill="black" stroke="black" points="1268.73,-331.29 1279.28,-330.3 1270.42,-324.5 1268.73,-331.29"/>
<text text-anchor="middle" x="1244.18" y="-322.11" font-family="Times,serif" font-size="14.00">s</text>
</g>
<!-- room_444&#45;&gt;room_445 -->
<g id="edge39" class="edge">
<title>room_444&#45;&gt;room_445</title>
<path fill="none" stroke="black" d="M1265.82,-286.38C1288.69,-289.97 1313.91,-296.95 1331.89,-305.08"/>
<polygon fill="black" stroke="black" points="1330.57,-308.33 1341.08,-309.7 1333.72,-302.08 1330.57,-308.33"/>
<text text-anchor="middle" x="1295.75" y="-284.53" font-family="Times,serif" font-size="14.00">e</text>
</g>
<!-- room_440&#45;&gt;room_439 -->
<g id="edge34" class="edge">
<title>room_440&#45;&gt;room_439</title>
<path fill="none" stroke="black" d="M1191.67,-361.55C1176.58,-355.94 1158.07,-349.8 1140.38,-344.49"/>
<polygon fill="black" stroke="black" points="1141.24,-341.09 1130.66,-341.63 1139.26,-347.81 1141.24,-341.09"/>
<text text-anchor="middle" x="1160.97" y="-341.82" font-family="Times,serif" font-size="14.00">w</text>
</g>
<!-- room_440&#45;&gt;room_445 -->
<g id="edge33" class="edge">
<title>room_440&#45;&gt;room_445</title>
<path fill="none" stroke="black" d="M1275.45,-365.18C1289.86,-360.07 1305.24,-354.1 1318.66,-348.4"/>
<polygon fill="black" stroke="black" points="1320.27,-351.52 1328.05,-344.32 1317.48,-345.1 1320.27,-351.52"/>
<text text-anchor="middle" x="1299.78" y="-359.59" font-family="Times,serif" font-size="14.00">s</text>
</g>
<!-- room_443&#45;&gt;room_439 -->
<g id="edge36" class="edge">
<title>room_443&#45;&gt;room_439</title>
<path fill="none" stroke="black" d="M1135.54,-405.56C1127.78,-391.71 1114.81,-372.55 1103.03,-357.18"/>
<polygon fill="black" stroke="black" points="1105.58,-354.77 1096.64,-349.08 1100.09,-359.1 1105.58,-354.77"/>
<text text-anchor="middle" x="1116.18" y="-384.17" font-family="Times,serif" font-size="14.00">e</text>
</g>
<!-- room_443&#45;&gt;room_444 -->
<g id="edge35" class="edge">
<title>room_443&#45;&gt;room_444</title>
<path fill="none" stroke="black" d="M1156.89,-405.95C1170.66,-384.09 1190.21,-346.82 1201.49,-321.13"/>
<polygon fill="black" stroke="black" points="1204.86,-322.15 1205.52,-311.58 1198.41,-319.44 1204.86,-322.15"/>
<text text-anchor="middle" x="1181.92" y="-352.34" font-family="Times,serif" font-size="14.00">s</text>
</g>
<!-- room_445&#45;&gt;room_444 -->
<g id="edge41" class="edge">
<title>room_445&#45;&gt;room_444</title>
<path fill="none" stroke="black" d="M1316.33,-311.88C1303.94,-308.45 1289.92,-304.97 1276.22,-301.89"/>
<polygon fill="black" stroke="black" points="1276.84,-298.45 1266.33,-299.73 1275.35,-305.28 1276.84,-298.45"/>
<text text-anchor="middle" x="1299.77" y="-295.69" font-family="Times,serif" font-size="14.00">n</text>
</g>
<!-- room_445&#45;&gt;room_444 -->
<g id="edge43" class="edge">
<title>room_445&#45;&gt;room_444</title>
<path fill="none" stroke="black" d="M1288.25,-318.51C1277.12,-315.99 1265.83,-313.22 1255.41,-310.43"/>
<polygon fill="black" stroke="black" points="1256.29,-307.05 1245.72,-307.77 1254.43,-313.8 1256.29,-307.05"/>
<text text-anchor="middle" x="1266.77" y="-317.27" font-family="Times,serif" font-size="14.00">w</text>
</g>
<!-- room_445&#45;&gt;room_440 -->
<g id="edge42" class="edge">
<title>room_445&#45;&gt;room_440</title>
<path fill="none" stroke="black" d="M1303,-340.64C1288.97,-345.65 1274.13,-351.43 1261.14,-356.95"/>
<polygon fill="black" stroke="black" points="1259.38,-353.9 1251.61,-361.1 1262.17,-360.31 1259.38,-353.9"/>
<text text-anchor="middle" x="1285.17" y="-351.59" font-family="Times,serif" font-size="14.00">e</text>
</g>
<!-- room_559&#45;&gt;room_560 -->
<g id="edge44" class="edge">
<title>room_559&#45;&gt;room_560</title>
<path fill="none" stroke="black" d="M478.34,-408.37C484.61,-407.15 490.88,-405.84 496.89,-404.5"/>
<polygon fill="black" stroke="black" points="497.8,-407.88 506.74,-402.2 496.21,-401.06 497.8,-407.88"/>
<text text-anchor="middle" x="491.12" y="-409.23" font-family="Times,serif" font-size="14.00">n</text>
</g>
<!-- room_613 -->
<g id="node18" class="node">
<title>room_613</title>
<ellipse fill="none" stroke="black" cx="289.16" cy="-458.4" rx="54.64" ry="18"/>
<text text-anchor="middle" x="289.16" y="-454.2" font-family="Times,serif" font-size="14.00">Long Stones</text>
</g>
<!-- room_559&#45;&gt;room_613 -->
<g id="edge45" class="edge">
<title>room_559&#45;&gt;room_613</title>
<path fill="none" stroke="black" d="M359.78,-426.14C348.19,-430.05 336.18,-434.47 325.42,-438.77"/>
<polygon fill="black" stroke="black" points="323.84,-435.64 315.93,-442.68 326.51,-442.11 323.84,-435.64"/>
<text text-anchor="middle" x="339.87" y="-421.26" font-family="Times,serif" font-size="14.00">s</text>
</g>
<!-- room_613&#45;&gt;room_559 -->
<g id="edge48" class="edge">
<title>room_613&#45;&gt;room_559</title>
<path fill="none" stroke="black" d="M335.55,-448.75C348.33,-444.58 362.05,-439.64 374.32,-434.79"/>
<polygon fill="black" stroke="black" points="375.86,-437.94 383.8,-430.93 373.22,-431.45 375.86,-437.94"/>
<text text-anchor="middle" x="351.43" y="-444.57" font-family="Times,serif" font-size="14.00">n</text>
</g>
<!-- room_614 -->
<g id="node19" class="node">
<title>room_614</title>
<ellipse fill="none" stroke="black" cx="159.23" cy="-502.43" rx="78.29" ry="18"/>
<text text-anchor="middle" x="159.23" y="-498.23" font-family="Times,serif" font-size="14.00">Cobbled Courtyard</text>
</g>
<!-- room_613&#45;&gt;room_614 -->
<g id="edge49" class="edge">
<title>room_613&#45;&gt;room_614</title>
<path fill="none" stroke="black" d="M242.01,-467.56C228.07,-471.84 212.96,-477 199.5,-482.06"/>
<polygon fill="black" stroke="black" points="198.1,-478.85 190.03,-485.71 200.62,-485.38 198.1,-478.85"/>
<text text-anchor="middle" x="217.65" y="-463.61" font-family="Times,serif" font-size="14.00">e</text>
</g>
<!-- room_614&#45;&gt;room_613 -->
<g id="edge52" class="edge">
<title>room_614&#45;&gt;room_613</title>
<path fill="none" stroke="black" d="M216.48,-490.09C228.51,-486.19 240.91,-481.84 251.98,-477.6"/>
<polygon fill="black" stroke="black" points="253.3,-480.85 261.33,-473.93 250.74,-474.33 253.3,-480.85"/>
<text text-anchor="middle" x="229.17" y="-472.65" font-family="Times,serif" font-size="14.00">w</text>
</g>
<!-- room_615 -->
<g id="node20" class="node">
<title>room_615</title>
<ellipse fill="none" stroke="black" cx="118.35" cy="-611.33" rx="60.9" ry="18"/>
<text text-anchor="middle" x="118.35" y="-607.13" font-family="Times,serif" font-size="14.00">Chapel Stones</text>
</g>
<!-- room_614&#45;&gt;room_615 -->
<g id="edge50" class="edge">
<title>room_614&#45;&gt;room_615</title>
<path fill="none" stroke="black" d="M146.71,-520.52C138.47,-537.71 128.52,-563.76 122.54,-583.57"/>
<polygon fill="black" stroke="black" points="119.14,-582.71 119.8,-593.28 125.88,-584.61 119.14,-582.71"/>
<text text-anchor="middle" x="131.12" y="-554.85" font-family="Times,serif" font-size="14.00">n</text>
</g>
<!-- room_616 -->
<g id="node21" class="node">
<title>room_616</title>
<ellipse fill="none" stroke="black" cx="67.29" cy="-434.13" rx="67.08" ry="18"/>
<text text-anchor="middle" x="67.29" y="-429.93" font-family="Times,serif" font-size="14.00">Old Tower Base</text>
</g>
<!-- room_614&#45;&gt;room_616 -->
<g id="edge51" class="edge">
<title>room_614&#45;&gt;room_616</title>
<path fill="none" stroke="black" d="M144.35,-484.52C134.36,-475.73 120.75,-465.15 107.73,-455.92"/>
<polygon fill="black" stroke="black" points="109.52,-452.9 99.3,-450.08 105.53,-458.66 109.52,-452.9"/>
<text text-anchor="middle" x="122.93" y="-473.02" font-family="Times,serif" font-size="14.00">e</text>
</g>
<!-- room_615&#45;&gt;room_614 -->
<g id="edge53" class="edge">
<title>room_615&#45;&gt;room_614</title>
<path fill="none" stroke="black" d="M130.87,-593.24C139.11,-576.05 149.06,-550 155.04,-530.19"/>
<polygon fill="black" stroke="black" points="158.43,-531.05 157.78,-520.48 151.69,-529.16 158.43,-531.05"/>
<text text-anchor="middle" x="140.23" y="-564.52" font-family="Times,serif" font-size="14.00">s</text>
</g>
<!-- room_616&#45;&gt;room_614 -->
<g id="edge54" class="edge">
<title>room_616&#45;&gt;room_614</title>
<path fill="none" stroke="black" d="M82.17,-452.04C92,-460.69 105.34,-471.07 118.16,-480.19"/>
<polygon fill="black" stroke="black" points="116.27,-483.14 126.48,-485.98 120.27,-477.39 116.27,-483.14"/>
<text text-anchor="middle" x="95.11" y="-468.92" font-family="Times,serif" font-size="14.00">w</text>
</g>
</g>
</svg>
