<?xml version="1.0" encoding="UTF-8" standalone="no"?>
<!DOCTYPE svg PUBLIC "-//W3C//DTD SVG 1.1//EN"
 "http://www.w3.org/Graphics/SVG/1.1/DTD/svg11.dtd">
<!-- Generated by graphviz version 2.42.3 (20191010.1750)
 -->
<!-- Title: monster Pages: 1 -->
<svg width="342pt" height="358pt"
 viewBox="0.00 0.00 342.27 357.79" xmlns="http://www.w3.org/2000/svg" xmlns:xlink="http://www.w3.org/1999/xlink">
<g id="graph0" class="graph" transform="scale(1 1) rotate(0) translate(4 353.79)">
<title>monster</title>
<polygon fill="white" stroke="transparent" points="-4,4 -4,-353.79 338.27,-353.79 338.27,4 -4,4"/>
<!-- room_81 -->
<g id="node1" class="node">
<title>room_81</title>
<ellipse fill="none" stroke="black" cx="97.5" cy="-18" rx="66.22" ry="18"/>
<text text-anchor="middle" x="97.5" y="-13.8" font-family="Times,serif" font-size="14.00">Shadowed Hills</text>
</g>
<!-- room_208 -->
<g id="node2" class="node">
<title>room_208</title>
<ellipse fill="none" stroke="black" cx="196.35" cy="-99.94" rx="59.68" ry="18"/>
<text text-anchor="middle" x="196.35" y="-95.74" font-family="Times,serif" font-size="14.00">Ashen Wastes</text>
</g>
<!-- room_81&#45;&gt;room_208 -->
<g id="edge1" class="edge">
<title>room_81&#45;&gt;room_208</title>
<path fill="none" stroke="black" d="M110.94,-35.92C123.51,-48.31 142.71,-64.74 159.76,-77.9"/>
<polygon fill="black" stroke="black" points="157.83,-80.83 167.91,-84.07 162.05,-75.25 157.83,-80.83"/>
<text text-anchor="middle" x="131.85" y="-59.71" font-family="Times,serif" font-size="14.00">n</text>
</g>
<!-- room_207 -->
<g id="node3" class="node">
<title>room_207</title>
<ellipse fill="none" stroke="black" cx="64.37" cy="-141.73" rx="64.24" ry="18"/>
<text text-anchor="middle" x="64.37" y="-137.53" font-family="Times,serif" font-size="14.00">Scorched Earth</text>
</g>
<!-- room_81&#45;&gt;room_207 -->
<g id="edge2" class="edge">
<title>room_81&#45;&gt;room_207</title>
<path fill="none" stroke="black" d="M87.43,-36.02C79.86,-56.46 70.68,-89.99 66,-113.81"/>
<polygon fill="black" stroke="black" points="62.55,-113.22 64.24,-123.68 69.44,-114.45 62.55,-113.22"/>
<text text-anchor="middle" x="71.66" y="-77.72" font-family="Times,serif" font-size="14.00">w</text>
</g>
<!-- room_208&#45;&gt;room_81 -->
<g id="edge6" class="edge">
<title>room_208&#45;&gt;room_81</title>
<path fill="none" stroke="black" d="M182.91,-82.02C170.52,-69.8 151.67,-53.66 134.81,-40.59"/>
<polygon fill="black" stroke="black" points="136.81,-37.71 126.73,-34.45 132.57,-43.29 136.81,-37.71"/>
<text text-anchor="middle" x="156.14" y="-64.11" font-family="Times,serif" font-size="14.00">s</text>
</g>
<!-- room_208&#45;&gt;room_207 -->
<g id="edge8" class="edge">
<title>room_208&#45;&gt;room_207</title>
<path fill="none" stroke="black" d="M145.23,-109.26C131.7,-113.2 117.29,-117.84 104.44,-122.4"/>
<polygon fill="black" stroke="black" points="103.15,-119.14 94.96,-125.86 105.55,-125.72 103.15,-119.14"/>
<text text-anchor="middle" x="119.78" y="-104.63" font-family="Times,serif" font-size="14.00">w</text>
</g>
<!-- room_210 -->
<g id="node5" class="node">
<title>room_210</title>
<ellipse fill="none" stroke="black" cx="274.68" cy="-214.73" rx="59.68" ry="18"/>
<text text-anchor="middle" x="274.68" y="-210.53" font-family="Times,serif" font-size="14.00">Ashen Wastes</text>
</g>
<!-- room_208&#45;&gt;room_210 -->
<g id="edge7" class="edge">
<title>room_208&#45;&gt;room_210</title>
<path fill="none" stroke="black" d="M202.82,-117.86C213.3,-137.07 233.64,-167.58 250.1,-189.25"/>
<polygon fill="black" stroke="black" points="247.51,-191.63 256.42,-197.37 253.04,-187.33 247.51,-191.63"/>
<text text-anchor="middle" x="223.35" y="-156.36" font-family="Times,serif" font-size="14.00">e</text>
</g>
<!-- room_207&#45;&gt;room_81 -->
<g id="edge4" class="edge">
<title>room_207&#45;&gt;room_81</title>
<path fill="none" stroke="black" d="M74.44,-123.71C82.01,-103.28 91.2,-69.74 95.88,-45.92"/>
<polygon fill="black" stroke="black" points="99.32,-46.52 97.64,-36.06 92.43,-45.29 99.32,-46.52"/>
<text text-anchor="middle" x="82.43" y="-87.62" font-family="Times,serif" font-size="14.00">s</text>
</g>
<!-- room_207&#45;&gt;room_208 -->
<g id="edge5" class="edge">
<title>room_207&#45;&gt;room_208</title>
<path fill="none" stroke="black" d="M118.15,-131.64C131.11,-127.8 144.71,-123.39 156.88,-119.06"/>
<polygon fill="black" stroke="black" points="158.1,-122.34 166.29,-115.62 155.69,-115.77 158.1,-122.34"/>
<text text-anchor="middle" x="134.41" y="-128.15" font-family="Times,serif" font-size="14.00">e</text>
</g>
<!-- room_209 -->
<g id="node4" class="node">
<title>room_209</title>
<ellipse fill="none" stroke="black" cx="64.62" cy="-280.56" rx="59.68" ry="18"/>
<text text-anchor="middle" x="64.62" y="-276.36" font-family="Times,serif" font-size="14.00">Ashen Wastes</text>
</g>
<!-- room_207&#45;&gt;room_209 -->
<g id="edge3" class="edge">
<title>room_207&#45;&gt;room_209</title>
<path fill="none" stroke="black" d="M59.67,-159.89C57.34,-183.38 57.14,-224.57 59.01,-252.2"/>
<polygon fill="black" stroke="black" points="55.54,-252.74 59.86,-262.41 62.51,-252.16 55.54,-252.74"/>
<text text-anchor="middle" x="55.84" y="-208.84" font-family="Times,serif" font-size="14.00">n</text>
</g>
<!-- room_209&#45;&gt;room_207 -->
<g id="edge10" class="edge">
<title>room_209&#45;&gt;room_207</title>
<path fill="none" stroke="black" d="M69.32,-262.4C71.66,-238.91 71.86,-197.73 69.99,-170.09"/>
<polygon fill="black" stroke="black" points="73.46,-169.55 69.14,-159.88 66.48,-170.14 73.46,-169.55"/>
<text text-anchor="middle" x="66.93" y="-219.05" font-family="Times,serif" font-size="14.00">s</text>
</g>
<!-- room_211 -->
<g id="node6" class="node">
<title>room_211</title>
<ellipse fill="none" stroke="black" cx="195.97" cy="-331.79" rx="59.68" ry="18"/>
<text text-anchor="middle" x="195.97" y="-327.59" font-family="Times,serif" font-size="14.00">Ashen Wastes</text>
</g>
<!-- room_209&#45;&gt;room_211 -->
<g id="edge9" class="edge">
<title>room_209&#45;&gt;room_211</title>
<path fill="none" stroke="black" d="M90.75,-296.82C104.71,-303.28 122.46,-310.56 139.39,-316.87"/>
<polygon fill="black" stroke="black" points="138.63,-320.32 149.23,-320.45 141.03,-313.74 138.63,-320.32"/>
<text text-anchor="middle" x="111.57" y="-309.64" font-family="Times,serif" font-size="14.00">n</text>
</g>
<!-- room_210&#45;&gt;room_208 -->
<g id="edge12" class="edge">
<title>room_210&#45;&gt;room_208</title>
<path fill="none" stroke="black" d="M268.21,-196.8C257.73,-177.6 237.39,-147.09 220.93,-125.41"/>
<polygon fill="black" stroke="black" points="223.51,-123.04 214.61,-117.3 217.99,-127.34 223.51,-123.04"/>
<text text-anchor="middle" x="241.84" y="-163.91" font-family="Times,serif" font-size="14.00">s</text>
</g>
<!-- room_210&#45;&gt;room_211 -->
<g id="edge11" class="edge">
<title>room_210&#45;&gt;room_211</title>
<path fill="none" stroke="black" d="M256.6,-232.18C241.4,-251.42 220.39,-282.49 207.38,-304.85"/>
<polygon fill="black" stroke="black" points="204.18,-303.4 202.34,-313.84 210.28,-306.83 204.18,-303.4"/>
<text text-anchor="middle" x="228.49" y="-271.31" font-family="Times,serif" font-size="14.00">n</text>
</g>
<!-- room_211&#45;&gt;room_209 -->
<g id="edge14" class="edge">
<title>room_211&#45;&gt;room_209</title>
<path fill="none" stroke="black" d="M169.85,-315.53C155.89,-309.07 138.14,-301.79 121.2,-295.48"/>
<polygon fill="black" stroke="black" points="121.96,-292.03 111.37,-291.89 119.56,-298.61 121.96,-292.03"/>
<text text-anchor="middle" x="140.47" y="-294.31" font-family="Times,serif" font-size="14.00">w</text>
</g>
<!-- room_211&#45;&gt;room_210 -->
<g id="edge13" class="edge">
<title>room_211&#45;&gt;room_210</title>
<path fill="none" stroke="black" d="M214.05,-314.34C229.25,-295.09 250.25,-264.03 263.26,-241.67"/>
<polygon fill="black" stroke="black" points="266.47,-243.11 268.31,-232.68 260.36,-239.69 266.47,-243.11"/>
<text text-anchor="middle" x="235.55" y="-280.8" font-family="Times,serif" font-size="14.00">e</text>
</g>
</g>
</svg>
