<?xml version="1.0" encoding="UTF-8" standalone="no"?>
<!DOCTYPE svg PUBLIC "-//W3C//DTD SVG 1.1//EN"
 "http://www.w3.org/Graphics/SVG/1.1/DTD/svg11.dtd">
<!-- Generated by graphviz version 2.42.3 (20191010.1750)
 -->
<!-- Title: monster Pages: 1 -->
<svg width="663pt" height="633pt"
 viewBox="0.00 0.00 662.62 632.60" xmlns="http://www.w3.org/2000/svg" xmlns:xlink="http://www.w3.org/1999/xlink">
<g id="graph0" class="graph" transform="scale(1 1) rotate(0) translate(4 628.6)">
<title>monster</title>
<polygon fill="white" stroke="transparent" points="-4,4 -4,-628.6 658.62,-628.6 658.62,4 -4,4"/>
<!-- room_81 -->
<g id="node1" class="node">
<title>room_81</title>
<ellipse fill="none" stroke="black" cx="329.6" cy="-337.48" rx="66.22" ry="18"/>
<text text-anchor="middle" x="329.6" y="-333.28" font-family="Times,serif" font-size="14.00">Shadowed Hills</text>
</g>
<!-- room_208 -->
<g id="node2" class="node">
<title>room_208</title>
<ellipse fill="none" stroke="black" cx="291.24" cy="-475.59" rx="59.68" ry="18"/>
<text text-anchor="middle" x="291.24" y="-471.39" font-family="Times,serif" font-size="14.00">Ashen Wastes</text>
</g>
<!-- room_81&#45;&gt;room_208 -->
<g id="edge1" class="edge">
<title>room_81&#45;&gt;room_208</title>
<path fill="none" stroke="black" d="M319.59,-355.39C310.72,-378.72 299.11,-419.74 293.42,-447.3"/>
<polygon fill="black" stroke="black" points="289.91,-447.01 291.49,-457.48 296.79,-448.31 289.91,-447.01"/>
<text text-anchor="middle" x="303.01" y="-404.14" font-family="Times,serif" font-size="14.00">n</text>
</g>
<!-- room_439 -->
<g id="node3" class="node">
<title>room_439</title>
<ellipse fill="none" stroke="black" cx="440.92" cy="-235.39" rx="63.78" ry="18"/>
<text text-anchor="middle" x="440.92" y="-231.19" font-family="Times,serif" font-size="14.00">Haunted Lands</text>
</g>
<!-- room_81&#45;&gt;room_439 -->
<g id="edge2" class="edge">
<title>room_81&#45;&gt;room_439</title>
<path fill="none" stroke="black" d="M355.87,-320.91C375.95,-304.64 403.09,-279.79 421.31,-261"/>
<polygon fill="black" stroke="black" points="424.2,-263.03 428.53,-253.36 419.12,-258.23 424.2,-263.03"/>
<text text-anchor="middle" x="385.87" y="-293.76" font-family="Times,serif" font-size="14.00">s</text>
</g>
<!-- room_207 -->
<g id="node4" class="node">
<title>room_207</title>
<ellipse fill="none" stroke="black" cx="190.85" cy="-372.47" rx="64.24" ry="18"/>
<text text-anchor="middle" x="190.85" y="-368.27" font-family="Times,serif" font-size="14.00">Scorched Earth</text>
</g>
<!-- room_81&#45;&gt;room_207 -->
<g id="edge3" class="edge">
<title>room_81&#45;&gt;room_207</title>
<path fill="none" stroke="black" d="M269.93,-345.65C258.52,-348.36 246.75,-351.41 235.89,-354.49"/>
<polygon fill="black" stroke="black" points="234.83,-351.16 226.21,-357.32 236.79,-357.88 234.83,-351.16"/>
<text text-anchor="middle" x="247.85" y="-338.87" font-family="Times,serif" font-size="14.00">w</text>
</g>
<!-- room_208&#45;&gt;room_81 -->
<g id="edge7" class="edge">
<title>room_208&#45;&gt;room_81</title>
<path fill="none" stroke="black" d="M301.25,-457.68C310.12,-434.35 321.73,-393.33 327.42,-365.78"/>
<polygon fill="black" stroke="black" points="330.92,-366.07 329.35,-355.59 324.05,-364.76 330.92,-366.07"/>
<text text-anchor="middle" x="311.61" y="-414.53" font-family="Times,serif" font-size="14.00">s</text>
</g>
<!-- room_208&#45;&gt;room_207 -->
<g id="edge9" class="edge">
<title>room_208&#45;&gt;room_207</title>
<path fill="none" stroke="black" d="M280.37,-457.4C266.56,-440.39 242.46,-415.06 222.69,-396.44"/>
<polygon fill="black" stroke="black" points="224.8,-393.63 215.08,-389.41 220.06,-398.77 224.8,-393.63"/>
<text text-anchor="middle" x="246.48" y="-429.72" font-family="Times,serif" font-size="14.00">w</text>
</g>
<!-- room_210 -->
<g id="node6" class="node">
<title>room_210</title>
<ellipse fill="none" stroke="black" cx="219.4" cy="-606.6" rx="59.68" ry="18"/>
<text text-anchor="middle" x="219.4" y="-602.4" font-family="Times,serif" font-size="14.00">Ashen Wastes</text>
</g>
<!-- room_208&#45;&gt;room_210 -->
<g id="edge8" class="edge">
<title>room_208&#45;&gt;room_210</title>
<path fill="none" stroke="black" d="M275.94,-493.08C261.36,-515.14 240.33,-553.2 228.26,-579.14"/>
<polygon fill="black" stroke="black" points="225,-577.87 224.11,-588.43 231.39,-580.73 225,-577.87"/>
<text text-anchor="middle" x="248.99" y="-538.91" font-family="Times,serif" font-size="14.00">e</text>
</g>
<!-- room_439&#45;&gt;room_81 -->
<g id="edge16" class="edge">
<title>room_439&#45;&gt;room_81</title>
<path fill="none" stroke="black" d="M414.64,-251.96C394.56,-268.24 367.42,-293.09 349.2,-311.88"/>
<polygon fill="black" stroke="black" points="346.31,-309.84 341.99,-319.51 351.4,-314.65 346.31,-309.84"/>
<text text-anchor="middle" x="378.42" y="-284.72" font-family="Times,serif" font-size="14.00">n</text>
</g>
<!-- room_444 -->
<g id="node8" class="node">
<title>room_444</title>
<ellipse fill="none" stroke="black" cx="568.55" cy="-163.53" rx="60.42" ry="18"/>
<text text-anchor="middle" x="568.55" y="-159.33" font-family="Times,serif" font-size="14.00">Ilutian Downs</text>
</g>
<!-- room_439&#45;&gt;room_444 -->
<g id="edge17" class="edge">
<title>room_439&#45;&gt;room_444</title>
<path fill="none" stroke="black" d="M479.13,-220.89C498.68,-210.93 522.06,-197.7 540.02,-186.37"/>
<polygon fill="black" stroke="black" points="542.38,-189.02 548.88,-180.66 538.58,-183.14 542.38,-189.02"/>
<text text-anchor="middle" x="506.85" y="-206.43" font-family="Times,serif" font-size="14.00">s</text>
</g>
<!-- room_440 -->
<g id="node9" class="node">
<title>room_440</title>
<ellipse fill="none" stroke="black" cx="412.08" cy="-77.88" rx="72" ry="18"/>
<text text-anchor="middle" x="412.08" y="-73.68" font-family="Times,serif" font-size="14.00">Plain of the Dead</text>
</g>
<!-- room_439&#45;&gt;room_440 -->
<g id="edge18" class="edge">
<title>room_439&#45;&gt;room_440</title>
<path fill="none" stroke="black" d="M442.08,-217.14C439.86,-189.76 430.67,-137.87 422.63,-105.74"/>
<polygon fill="black" stroke="black" points="426.01,-104.83 420.07,-96.06 419.24,-106.62 426.01,-104.83"/>
<text text-anchor="middle" x="429.25" y="-164.24" font-family="Times,serif" font-size="14.00">e</text>
</g>
<!-- room_443 -->
<g id="node10" class="node">
<title>room_443</title>
<ellipse fill="none" stroke="black" cx="586.2" cy="-286.09" rx="68.34" ry="18"/>
<text text-anchor="middle" x="586.2" y="-281.89" font-family="Times,serif" font-size="14.00">Weathered Bluff</text>
</g>
<!-- room_439&#45;&gt;room_443 -->
<g id="edge19" class="edge">
<title>room_439&#45;&gt;room_443</title>
<path fill="none" stroke="black" d="M469.87,-251.47C485.37,-257.89 505.09,-265.13 523.87,-271.4"/>
<polygon fill="black" stroke="black" points="522.99,-274.79 533.58,-274.58 525.17,-268.14 522.99,-274.79"/>
<text text-anchor="middle" x="491.82" y="-264.23" font-family="Times,serif" font-size="14.00">w</text>
</g>
<!-- room_207&#45;&gt;room_81 -->
<g id="edge5" class="edge">
<title>room_207&#45;&gt;room_81</title>
<path fill="none" stroke="black" d="M248.91,-364.68C260.68,-361.91 272.89,-358.76 284.15,-355.57"/>
<polygon fill="black" stroke="black" points="285.14,-358.93 293.76,-352.77 283.18,-352.21 285.14,-358.93"/>
<text text-anchor="middle" x="263.8" y="-362.93" font-family="Times,serif" font-size="14.00">s</text>
</g>
<!-- room_207&#45;&gt;room_208 -->
<g id="edge6" class="edge">
<title>room_207&#45;&gt;room_208</title>
<path fill="none" stroke="black" d="M201.72,-390.66C215.68,-407.85 240.16,-433.54 260.04,-452.22"/>
<polygon fill="black" stroke="black" points="257.68,-454.8 267.4,-459 262.42,-449.65 257.68,-454.8"/>
<text text-anchor="middle" x="227.77" y="-424.24" font-family="Times,serif" font-size="14.00">e</text>
</g>
<!-- room_209 -->
<g id="node5" class="node">
<title>room_209</title>
<ellipse fill="none" stroke="black" cx="59.59" cy="-444.21" rx="59.68" ry="18"/>
<text text-anchor="middle" x="59.59" y="-440.01" font-family="Times,serif" font-size="14.00">Ashen Wastes</text>
</g>
<!-- room_207&#45;&gt;room_209 -->
<g id="edge4" class="edge">
<title>room_207&#45;&gt;room_209</title>
<path fill="none" stroke="black" d="M151.71,-386.9C131.44,-396.92 107.14,-410.29 88.57,-421.67"/>
<polygon fill="black" stroke="black" points="86.57,-418.79 79.96,-427.07 90.29,-424.72 86.57,-418.79"/>
<text text-anchor="middle" x="116.64" y="-407.09" font-family="Times,serif" font-size="14.00">n</text>
</g>
<!-- room_209&#45;&gt;room_207 -->
<g id="edge11" class="edge">
<title>room_209&#45;&gt;room_207</title>
<path fill="none" stroke="black" d="M97.67,-430.3C118.2,-420.2 143.11,-406.51 162.02,-394.92"/>
<polygon fill="black" stroke="black" points="163.91,-397.87 170.52,-389.59 160.18,-391.94 163.91,-397.87"/>
<text text-anchor="middle" x="127.12" y="-415.41" font-family="Times,serif" font-size="14.00">s</text>
</g>
<!-- room_211 -->
<g id="node7" class="node">
<title>room_211</title>
<ellipse fill="none" stroke="black" cx="66.52" cy="-597.44" rx="59.68" ry="18"/>
<text text-anchor="middle" x="66.52" y="-593.24" font-family="Times,serif" font-size="14.00">Ashen Wastes</text>
</g>
<!-- room_209&#45;&gt;room_211 -->
<g id="edge10" class="edge">
<title>room_209&#45;&gt;room_211</title>
<path fill="none" stroke="black" d="M55.88,-462.29C54.43,-488.68 56.37,-537.99 59.84,-569.19"/>
<polygon fill="black" stroke="black" points="56.41,-569.92 61.14,-579.41 63.35,-569.05 56.41,-569.92"/>
<text text-anchor="middle" x="54.36" y="-518.54" font-family="Times,serif" font-size="14.00">n</text>
</g>
<!-- room_210&#45;&gt;room_208 -->
<g id="edge13" class="edge">
<title>room_210&#45;&gt;room_208</title>
<path fill="none" stroke="black" d="M234.7,-589.11C249.28,-567.05 270.31,-528.99 282.38,-503.05"/>
<polygon fill="black" stroke="black" points="285.64,-504.32 286.53,-493.76 279.25,-501.46 285.64,-504.32"/>
<text text-anchor="middle" x="255.81" y="-548.88" font-family="Times,serif" font-size="14.00">s</text>
</g>
<!-- room_210&#45;&gt;room_211 -->
<g id="edge12" class="edge">
<title>room_210&#45;&gt;room_211</title>
<path fill="none" stroke="black" d="M168.45,-597.12C157.91,-596.19 146.63,-595.42 135.57,-594.84"/>
<polygon fill="black" stroke="black" points="135.64,-591.34 125.49,-594.38 135.32,-598.34 135.64,-591.34"/>
<text text-anchor="middle" x="148.51" y="-598.78" font-family="Times,serif" font-size="14.00">n</text>
</g>
<!-- room_211&#45;&gt;room_209 -->
<g id="edge15" class="edge">
<title>room_211&#45;&gt;room_209</title>
<path fill="none" stroke="black" d="M70.23,-579.36C71.68,-552.97 69.74,-503.66 66.26,-472.46"/>
<polygon fill="black" stroke="black" points="69.7,-471.72 64.97,-462.24 62.75,-472.6 69.7,-471.72"/>
<text text-anchor="middle" x="63.19" y="-528.71" font-family="Times,serif" font-size="14.00">w</text>
</g>
<!-- room_211&#45;&gt;room_210 -->
<g id="edge14" class="edge">
<title>room_211&#45;&gt;room_210</title>
<path fill="none" stroke="black" d="M117.46,-606.92C128.01,-607.84 139.28,-608.62 150.34,-609.19"/>
<polygon fill="black" stroke="black" points="150.27,-612.69 160.42,-609.66 150.59,-605.7 150.27,-612.69"/>
<text text-anchor="middle" x="130.8" y="-610.85" font-family="Times,serif" font-size="14.00">e</text>
</g>
<!-- room_444&#45;&gt;room_439 -->
<g id="edge24" class="edge">
<title>room_444&#45;&gt;room_439</title>
<path fill="none" stroke="black" d="M531.03,-177.69C511.28,-187.71 487.46,-201.19 469.26,-212.67"/>
<polygon fill="black" stroke="black" points="467.32,-209.75 460.82,-218.12 471.12,-215.63 467.32,-209.75"/>
<text text-anchor="middle" x="496.65" y="-197.98" font-family="Times,serif" font-size="14.00">n</text>
</g>
<!-- room_444&#45;&gt;room_443 -->
<g id="edge27" class="edge">
<title>room_444&#45;&gt;room_443</title>
<path fill="none" stroke="black" d="M566.22,-181.53C566.97,-201.63 571.36,-234.42 576.24,-257.92"/>
<polygon fill="black" stroke="black" points="572.9,-259 578.51,-267.99 579.73,-257.47 572.9,-259"/>
<text text-anchor="middle" x="566.18" y="-222.53" font-family="Times,serif" font-size="14.00">w</text>
</g>
<!-- room_445 -->
<g id="node11" class="node">
<title>room_445</title>
<ellipse fill="none" stroke="black" cx="548.69" cy="-18" rx="77.78" ry="18"/>
<text text-anchor="middle" x="548.69" y="-13.8" font-family="Times,serif" font-size="14.00">Carolingian Prairie</text>
</g>
<!-- room_444&#45;&gt;room_445 -->
<g id="edge25" class="edge">
<title>room_444&#45;&gt;room_445</title>
<path fill="none" stroke="black" d="M579.53,-145.6C584.12,-120.57 579.05,-75 569.34,-45.62"/>
<polygon fill="black" stroke="black" points="572.51,-44.1 565.72,-35.96 565.96,-46.55 572.51,-44.1"/>
<text text-anchor="middle" x="571.71" y="-98.41" font-family="Times,serif" font-size="14.00">s</text>
</g>
<!-- room_444&#45;&gt;room_445 -->
<g id="edge26" class="edge">
<title>room_444&#45;&gt;room_445</title>
<path fill="none" stroke="black" d="M551.77,-146.14C540.96,-121.38 534.18,-75.79 536.44,-46.18"/>
<polygon fill="black" stroke="black" points="539.94,-46.42 537.69,-36.06 532.99,-45.56 539.94,-46.42"/>
<text text-anchor="middle" x="541" y="-98.96" font-family="Times,serif" font-size="14.00">e</text>
</g>
<!-- room_440&#45;&gt;room_439 -->
<g id="edge21" class="edge">
<title>room_440&#45;&gt;room_439</title>
<path fill="none" stroke="black" d="M410.92,-96.14C413.14,-123.52 422.33,-175.4 430.37,-207.53"/>
<polygon fill="black" stroke="black" points="426.99,-208.44 432.93,-217.21 433.76,-206.65 426.99,-208.44"/>
<text text-anchor="middle" x="415.59" y="-154.64" font-family="Times,serif" font-size="14.00">w</text>
</g>
<!-- room_440&#45;&gt;room_445 -->
<g id="edge20" class="edge">
<title>room_440&#45;&gt;room_445</title>
<path fill="none" stroke="black" d="M459.37,-64.12C477.3,-56.89 497.36,-47.99 513.93,-39.88"/>
<polygon fill="black" stroke="black" points="515.86,-42.83 523.24,-35.22 512.73,-36.57 515.86,-42.83"/>
<text text-anchor="middle" x="483.93" y="-40.8" font-family="Times,serif" font-size="14.00">s</text>
</g>
<!-- room_443&#45;&gt;room_439 -->
<g id="edge23" class="edge">
<title>room_443&#45;&gt;room_439</title>
<path fill="none" stroke="black" d="M556.55,-269.73C540.65,-263.18 520.48,-255.8 501.45,-249.49"/>
<polygon fill="black" stroke="black" points="502.52,-246.16 491.93,-246.4 500.35,-252.82 502.52,-246.16"/>
<text text-anchor="middle" x="525.89" y="-248.41" font-family="Times,serif" font-size="14.00">e</text>
</g>
<!-- room_443&#45;&gt;room_444 -->
<g id="edge22" class="edge">
<title>room_443&#45;&gt;room_444</title>
<path fill="none" stroke="black" d="M588.53,-268.1C587.78,-248 583.39,-215.21 578.5,-191.7"/>
<polygon fill="black" stroke="black" points="581.85,-190.62 576.24,-181.64 575.02,-192.16 581.85,-190.62"/>
<text text-anchor="middle" x="580.79" y="-232.7" font-family="Times,serif" font-size="14.00">s</text>
</g>
<!-- room_445&#45;&gt;room_444 -->
<g id="edge28" class="edge">
<title>room_445&#45;&gt;room_444</title>
<path fill="none" stroke="black" d="M546.55,-36.17C547.39,-61.16 553.25,-106.34 559.2,-135.63"/>
<polygon fill="black" stroke="black" points="555.83,-136.61 561.38,-145.63 562.67,-135.11 555.83,-136.61"/>
<text text-anchor="middle" x="549.37" y="-88.7" font-family="Times,serif" font-size="14.00">n</text>
</g>
<!-- room_445&#45;&gt;room_444 -->
<g id="edge30" class="edge">
<title>room_445&#45;&gt;room_444</title>
<path fill="none" stroke="black" d="M555.91,-36.09C561.78,-60.92 568.15,-105.8 570.16,-135.13"/>
<polygon fill="black" stroke="black" points="566.66,-135.37 570.69,-145.16 573.65,-134.99 566.66,-135.37"/>
<text text-anchor="middle" x="557.98" y="-88.41" font-family="Times,serif" font-size="14.00">w</text>
</g>
<!-- room_445&#45;&gt;room_440 -->
<g id="edge29" class="edge">
<title>room_445&#45;&gt;room_440</title>
<path fill="none" stroke="black" d="M500.25,-32.23C482.41,-39.46 462.59,-48.28 446.26,-56.29"/>
<polygon fill="black" stroke="black" points="444.46,-53.28 437.09,-60.89 447.6,-59.53 444.46,-53.28"/>
<text text-anchor="middle" x="470.15" y="-47.06" font-family="Times,serif" font-size="14.00">e</text>
</g>
</g>
</svg>
