<?xml version="1.0" encoding="UTF-8" standalone="no"?>
<!DOCTYPE svg PUBLIC "-//W3C//DTD SVG 1.1//EN"
 "http://www.w3.org/Graphics/SVG/1.1/DTD/svg11.dtd">
<!-- Generated by graphviz version 2.42.3 (20191010.1750)
 -->
<!-- Title: monster Pages: 1 -->
<svg width="469pt" height="515pt"
 viewBox="0.00 0.00 469.35 515.44" xmlns="http://www.w3.org/2000/svg" xmlns:xlink="http://www.w3.org/1999/xlink">
<g id="graph0" class="graph" transform="scale(1 1) rotate(0) translate(4 511.44)">
<title>monster</title>
<polygon fill="white" stroke="transparent" points="-4,4 -4,-511.44 465.35,-511.44 465.35,4 -4,4"/>
<!-- room_587 -->
<g id="node1" class="node">
<title>room_587</title>
<ellipse fill="none" stroke="black" cx="104.39" cy="-320.82" rx="39.66" ry="18"/>
<text text-anchor="middle" x="104.39" y="-316.62" font-family="Times,serif" font-size="14.00">Dark Pit</text>
</g>
<!-- room_699 -->
<g id="node2" class="node">
<title>room_699</title>
<ellipse fill="none" stroke="black" cx="229.41" cy="-276" rx="28.06" ry="18"/>
<text text-anchor="middle" x="229.41" y="-271.8" font-family="Times,serif" font-size="14.00">Cave</text>
</g>
<!-- room_587&#45;&gt;room_699 -->
<g id="edge1" class="edge">
<title>room_587&#45;&gt;room_699</title>
<path fill="none" stroke="black" d="M141.62,-313.99C160.15,-308.28 182.23,-300.3 199.61,-293.02"/>
<polygon fill="black" stroke="black" points="201.47,-296.03 209.25,-288.84 198.68,-289.61 201.47,-296.03"/>
<text text-anchor="middle" x="167.12" y="-306.31" font-family="Times,serif" font-size="14.00">u</text>
</g>
<!-- room_699&#45;&gt;room_587 -->
<g id="edge16" class="edge">
<title>room_699&#45;&gt;room_587</title>
<path fill="none" stroke="black" d="M201.62,-280.02C182.73,-285.38 157.67,-294.17 137.71,-302.34"/>
<polygon fill="black" stroke="black" points="136.23,-299.17 128.37,-306.28 138.95,-305.62 136.23,-299.17"/>
<text text-anchor="middle" x="166.16" y="-279.98" font-family="Times,serif" font-size="14.00">d</text>
</g>
<!-- room_698 -->
<g id="node6" class="node">
<title>room_698</title>
<ellipse fill="none" stroke="black" cx="177.16" cy="-423.38" rx="28.06" ry="18"/>
<text text-anchor="middle" x="177.16" y="-419.18" font-family="Times,serif" font-size="14.00">Cave</text>
</g>
<!-- room_699&#45;&gt;room_698 -->
<g id="edge15" class="edge">
<title>room_699&#45;&gt;room_698</title>
<path fill="none" stroke="black" d="M218.52,-292.82C206.96,-317.78 190.02,-364.86 181.52,-395.16"/>
<polygon fill="black" stroke="black" points="178.06,-394.55 178.89,-405.11 184.83,-396.34 178.06,-394.55"/>
<text text-anchor="middle" x="196.91" y="-346.79" font-family="Times,serif" font-size="14.00">e</text>
</g>
<!-- room_696 -->
<g id="node7" class="node">
<title>room_696</title>
<ellipse fill="none" stroke="black" cx="361.09" cy="-354.16" rx="28.06" ry="18"/>
<text text-anchor="middle" x="361.09" y="-349.96" font-family="Times,serif" font-size="14.00">Cave</text>
</g>
<!-- room_699&#45;&gt;room_696 -->
<g id="edge14" class="edge">
<title>room_699&#45;&gt;room_696</title>
<path fill="none" stroke="black" d="M245.25,-291.04C265.39,-305.49 300.59,-326.77 326.94,-340.68"/>
<polygon fill="black" stroke="black" points="325.36,-343.81 335.86,-345.27 328.57,-337.58 325.36,-343.81"/>
<text text-anchor="middle" x="283.37" y="-318.66" font-family="Times,serif" font-size="14.00">s</text>
</g>
<!-- room_702 -->
<g id="node10" class="node">
<title>room_702</title>
<ellipse fill="none" stroke="black" cx="92.32" cy="-200.26" rx="28.06" ry="18"/>
<text text-anchor="middle" x="92.32" y="-196.06" font-family="Times,serif" font-size="14.00">Cave</text>
</g>
<!-- room_699&#45;&gt;room_702 -->
<g id="edge13" class="edge">
<title>room_699&#45;&gt;room_702</title>
<path fill="none" stroke="black" d="M212.69,-261.23C191.49,-247.05 154.51,-226.25 127.1,-212.84"/>
<polygon fill="black" stroke="black" points="128.38,-209.57 117.84,-208.43 125.36,-215.89 128.38,-209.57"/>
<text text-anchor="middle" x="166.4" y="-239.84" font-family="Times,serif" font-size="14.00">n</text>
</g>
<!-- room_647 -->
<g id="node3" class="node">
<title>room_647</title>
<ellipse fill="none" stroke="black" cx="376.94" cy="-18" rx="61.82" ry="18"/>
<text text-anchor="middle" x="376.94" y="-13.8" font-family="Times,serif" font-size="14.00">Cave Entrance</text>
</g>
<!-- room_700 -->
<g id="node4" class="node">
<title>room_700</title>
<ellipse fill="none" stroke="black" cx="305.38" cy="-143.75" rx="28.06" ry="18"/>
<text text-anchor="middle" x="305.38" y="-139.55" font-family="Times,serif" font-size="14.00">Cave</text>
</g>
<!-- room_647&#45;&gt;room_700 -->
<g id="edge2" class="edge">
<title>room_647&#45;&gt;room_700</title>
<path fill="none" stroke="black" d="M361.18,-35.41C346.77,-56.51 326.33,-92.18 314.43,-116.82"/>
<polygon fill="black" stroke="black" points="311.21,-115.45 310.17,-125.99 317.56,-118.4 311.21,-115.45"/>
<text text-anchor="middle" x="332.75" y="-78.92" font-family="Times,serif" font-size="14.00">w</text>
</g>
<!-- room_700&#45;&gt;room_699 -->
<g id="edge20" class="edge">
<title>room_700&#45;&gt;room_699</title>
<path fill="none" stroke="black" d="M295.61,-160.77C282.56,-183.48 259.33,-223.91 244.15,-250.34"/>
<polygon fill="black" stroke="black" points="241.09,-248.63 239.15,-259.05 247.16,-252.12 241.09,-248.63"/>
<text text-anchor="middle" x="264.82" y="-208.35" font-family="Times,serif" font-size="14.00">w</text>
</g>
<!-- room_700&#45;&gt;room_647 -->
<g id="edge19" class="edge">
<title>room_700&#45;&gt;room_647</title>
<path fill="none" stroke="black" d="M319.9,-128.16C334.26,-107.47 355.37,-70.76 367.66,-45.41"/>
<polygon fill="black" stroke="black" points="370.85,-46.85 371.91,-36.31 364.51,-43.89 370.85,-46.85"/>
<text text-anchor="middle" x="340.67" y="-89.58" font-family="Times,serif" font-size="14.00">e</text>
</g>
<!-- room_697 -->
<g id="node8" class="node">
<title>room_697</title>
<ellipse fill="none" stroke="black" cx="433.07" cy="-228.77" rx="28.06" ry="18"/>
<text text-anchor="middle" x="433.07" y="-224.57" font-family="Times,serif" font-size="14.00">Cave</text>
</g>
<!-- room_700&#45;&gt;room_697 -->
<g id="edge18" class="edge">
<title>room_700&#45;&gt;room_697</title>
<path fill="none" stroke="black" d="M319.95,-159.2C339.43,-174.83 374.33,-198.48 400.26,-213.89"/>
<polygon fill="black" stroke="black" points="398.61,-216.98 409.02,-218.97 402.12,-210.92 398.61,-216.98"/>
<text text-anchor="middle" x="357.38" y="-189.34" font-family="Times,serif" font-size="14.00">s</text>
</g>
<!-- room_703 -->
<g id="node11" class="node">
<title>room_703</title>
<ellipse fill="none" stroke="black" cx="168.52" cy="-75.86" rx="28.06" ry="18"/>
<text text-anchor="middle" x="168.52" y="-71.66" font-family="Times,serif" font-size="14.00">Cave</text>
</g>
<!-- room_700&#45;&gt;room_703 -->
<g id="edge17" class="edge">
<title>room_700&#45;&gt;room_703</title>
<path fill="none" stroke="black" d="M287.67,-129.46C266.66,-116.75 231.19,-98.8 204.38,-87.08"/>
<polygon fill="black" stroke="black" points="205.52,-83.76 194.94,-83.07 202.78,-90.2 205.52,-83.76"/>
<text text-anchor="middle" x="242.53" y="-111.07" font-family="Times,serif" font-size="14.00">n</text>
</g>
<!-- room_695 -->
<g id="node5" class="node">
<title>room_695</title>
<ellipse fill="none" stroke="black" cx="308.04" cy="-489.44" rx="28.06" ry="18"/>
<text text-anchor="middle" x="308.04" y="-485.24" font-family="Times,serif" font-size="14.00">Cave</text>
</g>
<!-- room_695&#45;&gt;room_698 -->
<g id="edge3" class="edge">
<title>room_695&#45;&gt;room_698</title>
<path fill="none" stroke="black" d="M290.69,-475.1C270.84,-462.87 237.9,-445.88 212.58,-434.61"/>
<polygon fill="black" stroke="black" points="213.86,-431.35 203.29,-430.59 211.08,-437.77 213.86,-431.35"/>
<text text-anchor="middle" x="248.13" y="-457.65" font-family="Times,serif" font-size="14.00">n</text>
</g>
<!-- room_695&#45;&gt;room_696 -->
<g id="edge4" class="edge">
<title>room_695&#45;&gt;room_696</title>
<path fill="none" stroke="black" d="M319.65,-472.94C331.03,-450.4 347.23,-409.73 355.92,-382.32"/>
<polygon fill="black" stroke="black" points="359.33,-383.12 358.85,-372.53 352.63,-381.11 359.33,-383.12"/>
<text text-anchor="middle" x="332.73" y="-430.43" font-family="Times,serif" font-size="14.00">w</text>
</g>
<!-- room_698&#45;&gt;room_699 -->
<g id="edge12" class="edge">
<title>room_698&#45;&gt;room_699</title>
<path fill="none" stroke="black" d="M188.05,-406.56C199.62,-381.6 216.55,-334.52 225.05,-304.22"/>
<polygon fill="black" stroke="black" points="228.51,-304.84 227.68,-294.27 221.74,-303.05 228.51,-304.84"/>
<text text-anchor="middle" x="211.61" y="-358.19" font-family="Times,serif" font-size="14.00">w</text>
</g>
<!-- room_698&#45;&gt;room_695 -->
<g id="edge11" class="edge">
<title>room_698&#45;&gt;room_695</title>
<path fill="none" stroke="black" d="M194.51,-437.72C214.36,-449.95 247.3,-466.94 272.62,-478.21"/>
<polygon fill="black" stroke="black" points="271.34,-481.47 281.9,-482.23 274.12,-475.05 271.34,-481.47"/>
<text text-anchor="middle" x="230.84" y="-460.76" font-family="Times,serif" font-size="14.00">s</text>
</g>
<!-- room_701 -->
<g id="node9" class="node">
<title>room_701</title>
<ellipse fill="none" stroke="black" cx="28.28" cy="-352.61" rx="28.06" ry="18"/>
<text text-anchor="middle" x="28.28" y="-348.41" font-family="Times,serif" font-size="14.00">Cave</text>
</g>
<!-- room_698&#45;&gt;room_701 -->
<g id="edge10" class="edge">
<title>room_698&#45;&gt;room_701</title>
<path fill="none" stroke="black" d="M158.84,-409.34C135.32,-395.7 94.08,-375.75 64.21,-363.33"/>
<polygon fill="black" stroke="black" points="65.14,-359.93 54.56,-359.43 62.52,-366.42 65.14,-359.93"/>
<text text-anchor="middle" x="108.03" y="-389.13" font-family="Times,serif" font-size="14.00">n</text>
</g>
<!-- room_696&#45;&gt;room_699 -->
<g id="edge5" class="edge">
<title>room_696&#45;&gt;room_699</title>
<path fill="none" stroke="black" d="M345.25,-339.13C325.11,-324.67 289.91,-303.39 263.56,-289.48"/>
<polygon fill="black" stroke="black" points="265.14,-286.36 254.64,-284.89 261.93,-292.58 265.14,-286.36"/>
<text text-anchor="middle" x="300.91" y="-317.1" font-family="Times,serif" font-size="14.00">n</text>
</g>
<!-- room_696&#45;&gt;room_695 -->
<g id="edge6" class="edge">
<title>room_696&#45;&gt;room_695</title>
<path fill="none" stroke="black" d="M349.48,-370.66C338.1,-393.2 321.9,-433.87 313.21,-461.28"/>
<polygon fill="black" stroke="black" points="309.8,-460.48 310.27,-471.07 316.5,-462.49 309.8,-460.48"/>
<text text-anchor="middle" x="328.24" y="-404.77" font-family="Times,serif" font-size="14.00">e</text>
</g>
<!-- room_696&#45;&gt;room_697 -->
<g id="edge7" class="edge">
<title>room_696&#45;&gt;room_697</title>
<path fill="none" stroke="black" d="M375.65,-338.64C390.16,-317.9 411.56,-281.01 423.91,-255.71"/>
<polygon fill="black" stroke="black" points="427.08,-257.18 428.16,-246.64 420.74,-254.2 427.08,-257.18"/>
<text text-anchor="middle" x="394.73" y="-299.97" font-family="Times,serif" font-size="14.00">w</text>
</g>
<!-- room_697&#45;&gt;room_700 -->
<g id="edge8" class="edge">
<title>room_697&#45;&gt;room_700</title>
<path fill="none" stroke="black" d="M418.51,-213.32C399.03,-197.69 364.13,-174.04 338.2,-158.63"/>
<polygon fill="black" stroke="black" points="339.85,-155.54 329.44,-153.55 336.33,-161.6 339.85,-155.54"/>
<text text-anchor="middle" x="374.85" y="-188.77" font-family="Times,serif" font-size="14.00">n</text>
</g>
<!-- room_697&#45;&gt;room_696 -->
<g id="edge9" class="edge">
<title>room_697&#45;&gt;room_696</title>
<path fill="none" stroke="black" d="M418.51,-244.29C404,-265.03 382.6,-301.92 370.26,-327.22"/>
<polygon fill="black" stroke="black" points="367.08,-325.75 366,-336.29 373.42,-328.73 367.08,-325.75"/>
<text text-anchor="middle" x="391.28" y="-274.56" font-family="Times,serif" font-size="14.00">e</text>
</g>
<!-- room_701&#45;&gt;room_698 -->
<g id="edge21" class="edge">
<title>room_701&#45;&gt;room_698</title>
<path fill="none" stroke="black" d="M46.6,-366.65C70.12,-380.29 111.36,-400.23 141.23,-412.66"/>
<polygon fill="black" stroke="black" points="140.3,-416.06 150.88,-416.56 142.92,-409.57 140.3,-416.06"/>
<text text-anchor="middle" x="91.19" y="-392.45" font-family="Times,serif" font-size="14.00">s</text>
</g>
<!-- room_701&#45;&gt;room_702 -->
<g id="edge22" class="edge">
<title>room_701&#45;&gt;room_702</title>
<path fill="none" stroke="black" d="M40.23,-336.01C54.03,-310.05 75.44,-259.64 86.28,-228.08"/>
<polygon fill="black" stroke="black" points="89.62,-229.14 89.4,-218.55 82.96,-226.96 89.62,-229.14"/>
<text text-anchor="middle" x="58.2" y="-284.84" font-family="Times,serif" font-size="14.00">w</text>
</g>
<!-- room_702&#45;&gt;room_699 -->
<g id="edge23" class="edge">
<title>room_702&#45;&gt;room_699</title>
<path fill="none" stroke="black" d="M109.04,-215.04C130.24,-229.22 167.21,-250.01 194.63,-263.42"/>
<polygon fill="black" stroke="black" points="193.35,-266.69 203.88,-267.84 196.36,-260.37 193.35,-266.69"/>
<text text-anchor="middle" x="149.11" y="-242.03" font-family="Times,serif" font-size="14.00">s</text>
</g>
<!-- room_702&#45;&gt;room_701 -->
<g id="edge24" class="edge">
<title>room_702&#45;&gt;room_701</title>
<path fill="none" stroke="black" d="M80.37,-216.86C66.57,-242.83 45.15,-293.23 34.31,-324.79"/>
<polygon fill="black" stroke="black" points="30.98,-323.73 31.19,-334.32 37.63,-325.91 30.98,-323.73"/>
<text text-anchor="middle" x="54.23" y="-259.63" font-family="Times,serif" font-size="14.00">e</text>
</g>
<!-- room_702&#45;&gt;room_703 -->
<g id="edge25" class="edge">
<title>room_702&#45;&gt;room_703</title>
<path fill="none" stroke="black" d="M107.41,-185C122.63,-164.5 145.26,-127.89 158.46,-102.74"/>
<polygon fill="black" stroke="black" points="161.63,-104.22 163.01,-93.72 155.38,-101.07 161.63,-104.22"/>
<text text-anchor="middle" x="127.88" y="-146.67" font-family="Times,serif" font-size="14.00">w</text>
</g>
<!-- room_703&#45;&gt;room_700 -->
<g id="edge26" class="edge">
<title>room_703&#45;&gt;room_700</title>
<path fill="none" stroke="black" d="M186.23,-90.15C207.24,-102.86 242.71,-120.81 269.52,-132.53"/>
<polygon fill="black" stroke="black" points="268.39,-135.85 278.96,-136.54 271.12,-129.41 268.39,-135.85"/>
<text text-anchor="middle" x="225.15" y="-114.14" font-family="Times,serif" font-size="14.00">s</text>
</g>
<!-- room_703&#45;&gt;room_702 -->
<g id="edge27" class="edge">
<title>room_703&#45;&gt;room_702</title>
<path fill="none" stroke="black" d="M153.42,-91.12C138.21,-111.63 115.57,-148.23 102.38,-173.38"/>
<polygon fill="black" stroke="black" points="99.21,-171.9 97.82,-182.4 105.45,-175.06 99.21,-171.9"/>
<text text-anchor="middle" x="124.79" y="-121.05" font-family="Times,serif" font-size="14.00">e</text>
</g>
</g>
</svg>
