<?xml version="1.0" encoding="UTF-8" standalone="no"?>
<!DOCTYPE svg PUBLIC "-//W3C//DTD SVG 1.1//EN"
 "http://www.w3.org/Graphics/SVG/1.1/DTD/svg11.dtd">
<!-- Generated by graphviz version 2.42.3 (20191010.1750)
 -->
<!-- Title: monster Pages: 1 -->
<svg width="1345pt" height="1129pt"
 viewBox="0.00 0.00 1344.92 1129.19" xmlns="http://www.w3.org/2000/svg" xmlns:xlink="http://www.w3.org/1999/xlink">
<g id="graph0" class="graph" transform="scale(1 1) rotate(0) translate(4 1125.19)">
<title>monster</title>
<polygon fill="white" stroke="transparent" points="-4,4 -4,-1125.19 1340.92,-1125.19 1340.92,4 -4,4"/>
<!-- room_51 -->
<g id="node1" class="node">
<title>room_51</title>
<ellipse fill="none" stroke="black" cx="406.13" cy="-57.36" rx="75.85" ry="18"/>
<text text-anchor="middle" x="406.13" y="-53.16" font-family="Times,serif" font-size="14.00">Archive Basement</text>
</g>
<!-- room_56 -->
<g id="node2" class="node">
<title>room_56</title>
<ellipse fill="none" stroke="black" cx="556.75" cy="-18" rx="66.67" ry="18"/>
<text text-anchor="middle" x="556.75" y="-13.8" font-family="Times,serif" font-size="14.00">Bhalge Beltaine</text>
</g>
<!-- room_51&#45;&gt;room_56 -->
<g id="edge1" class="edge">
<title>room_51&#45;&gt;room_56</title>
<path fill="none" stroke="black" d="M469.94,-47.56C483.94,-44.11 498.48,-40.19 511.57,-36.32"/>
<polygon fill="black" stroke="black" points="512.71,-39.63 521.26,-33.37 510.68,-32.93 512.71,-39.63"/>
<text text-anchor="middle" x="488.03" y="-44.74" font-family="Times,serif" font-size="14.00">s</text>
</g>
<!-- room_125 -->
<g id="node3" class="node">
<title>room_125</title>
<ellipse fill="none" stroke="black" cx="471.64" cy="-198.21" rx="64.28" ry="18"/>
<text text-anchor="middle" x="471.64" y="-194.01" font-family="Times,serif" font-size="14.00">Druid Archives</text>
</g>
<!-- room_51&#45;&gt;room_125 -->
<g id="edge2" class="edge">
<title>room_51&#45;&gt;room_125</title>
<path fill="none" stroke="black" d="M409.57,-75.41C418.04,-99.74 437.82,-143.15 452.96,-171.32"/>
<polygon fill="black" stroke="black" points="449.99,-173.18 457.89,-180.24 456.12,-169.79 449.99,-173.18"/>
<text text-anchor="middle" x="427.76" y="-126.16" font-family="Times,serif" font-size="14.00">u</text>
</g>
<!-- room_56&#45;&gt;room_51 -->
<g id="edge12" class="edge">
<title>room_56&#45;&gt;room_51</title>
<path fill="none" stroke="black" d="M497.71,-26.63C482.92,-30.19 467.25,-34.36 453.13,-38.5"/>
<polygon fill="black" stroke="black" points="451.73,-35.27 443.16,-41.5 453.75,-41.97 451.73,-35.27"/>
<text text-anchor="middle" x="471.92" y="-21.36" font-family="Times,serif" font-size="14.00">n</text>
</g>
<!-- room_53 -->
<g id="node5" class="node">
<title>room_53</title>
<ellipse fill="none" stroke="black" cx="595.31" cy="-166.84" rx="51.49" ry="18"/>
<text text-anchor="middle" x="595.31" y="-162.64" font-family="Times,serif" font-size="14.00">Lugh&#39;s Hall</text>
</g>
<!-- room_56&#45;&gt;room_53 -->
<g id="edge13" class="edge">
<title>room_56&#45;&gt;room_53</title>
<path fill="none" stroke="black" d="M556.82,-36.2C560.77,-61.97 572.69,-109.26 582.53,-139.32"/>
<polygon fill="black" stroke="black" points="579.23,-140.47 585.77,-148.8 585.85,-138.21 579.23,-140.47"/>
<text text-anchor="middle" x="566.95" y="-90.56" font-family="Times,serif" font-size="14.00">s</text>
</g>
<!-- room_125&#45;&gt;room_51 -->
<g id="edge64" class="edge">
<title>room_125&#45;&gt;room_51</title>
<path fill="none" stroke="black" d="M468.2,-180.16C459.73,-155.83 439.95,-112.42 424.81,-84.25"/>
<polygon fill="black" stroke="black" points="427.78,-82.39 419.88,-75.33 421.65,-85.78 427.78,-82.39"/>
<text text-anchor="middle" x="443.01" y="-135.01" font-family="Times,serif" font-size="14.00">d</text>
</g>
<!-- room_124 -->
<g id="node21" class="node">
<title>room_124</title>
<ellipse fill="none" stroke="black" cx="618.05" cy="-337.51" rx="71.01" ry="18"/>
<text text-anchor="middle" x="618.05" y="-333.31" font-family="Times,serif" font-size="14.00">Chamber of Lore</text>
</g>
<!-- room_125&#45;&gt;room_124 -->
<g id="edge63" class="edge">
<title>room_125&#45;&gt;room_124</title>
<path fill="none" stroke="black" d="M484.04,-216C506.3,-240.99 553.27,-286.21 585.3,-313.94"/>
<polygon fill="black" stroke="black" points="583.21,-316.77 593.09,-320.6 587.76,-311.44 583.21,-316.77"/>
<text text-anchor="middle" x="531.95" y="-267.77" font-family="Times,serif" font-size="14.00">s</text>
</g>
<!-- room_52 -->
<g id="node4" class="node">
<title>room_52</title>
<ellipse fill="none" stroke="black" cx="453.62" cy="-318.41" rx="84.53" ry="18"/>
<text text-anchor="middle" x="453.62" y="-314.21" font-family="Times,serif" font-size="14.00">Mead Hall Basement</text>
</g>
<!-- room_52&#45;&gt;room_53 -->
<g id="edge3" class="edge">
<title>room_52&#45;&gt;room_53</title>
<path fill="none" stroke="black" d="M476.55,-300.94C504.85,-274.35 552.13,-223.85 577.74,-192.92"/>
<polygon fill="black" stroke="black" points="580.78,-194.73 584.36,-184.76 575.34,-190.32 580.78,-194.73"/>
<text text-anchor="middle" x="522.09" y="-249.73" font-family="Times,serif" font-size="14.00">w</text>
</g>
<!-- room_108 -->
<g id="node6" class="node">
<title>room_108</title>
<ellipse fill="none" stroke="black" cx="455.14" cy="-471.54" rx="75.83" ry="18"/>
<text text-anchor="middle" x="455.14" y="-467.34" font-family="Times,serif" font-size="14.00">Grande Mead Hall</text>
</g>
<!-- room_52&#45;&gt;room_108 -->
<g id="edge4" class="edge">
<title>room_52&#45;&gt;room_108</title>
<path fill="none" stroke="black" d="M449.25,-336.62C446.89,-363.01 447.1,-412.12 449.48,-443.25"/>
<polygon fill="black" stroke="black" points="446.01,-443.8 450.41,-453.44 452.99,-443.17 446.01,-443.8"/>
<text text-anchor="middle" x="445.86" y="-392.73" font-family="Times,serif" font-size="14.00">u</text>
</g>
<!-- room_53&#45;&gt;room_56 -->
<g id="edge5" class="edge">
<title>room_53&#45;&gt;room_56</title>
<path fill="none" stroke="black" d="M595.24,-148.64C591.28,-122.87 579.37,-75.58 569.53,-45.51"/>
<polygon fill="black" stroke="black" points="572.83,-44.36 566.28,-36.03 566.21,-46.63 572.83,-44.36"/>
<text text-anchor="middle" x="578.88" y="-99.87" font-family="Times,serif" font-size="14.00">n</text>
</g>
<!-- room_53&#45;&gt;room_52 -->
<g id="edge6" class="edge">
<title>room_53&#45;&gt;room_52</title>
<path fill="none" stroke="black" d="M573.33,-183.42C545.12,-209.78 497.02,-261.12 471.13,-292.39"/>
<polygon fill="black" stroke="black" points="468.33,-290.28 464.76,-300.26 473.77,-294.69 468.33,-290.28"/>
<text text-anchor="middle" x="519.13" y="-226.7" font-family="Times,serif" font-size="14.00">e</text>
</g>
<!-- room_54 -->
<g id="node7" class="node">
<title>room_54</title>
<ellipse fill="none" stroke="black" cx="733.76" cy="-125.55" rx="58.9" ry="18"/>
<text text-anchor="middle" x="733.76" y="-121.35" font-family="Times,serif" font-size="14.00">Victory Stone</text>
</g>
<!-- room_53&#45;&gt;room_54 -->
<g id="edge7" class="edge">
<title>room_53&#45;&gt;room_54</title>
<path fill="none" stroke="black" d="M642.47,-159.43C658.95,-155.07 677.28,-149.56 693.18,-144.2"/>
<polygon fill="black" stroke="black" points="694.42,-147.48 702.72,-140.89 692.13,-140.86 694.42,-147.48"/>
<text text-anchor="middle" x="662.77" y="-154.62" font-family="Times,serif" font-size="14.00">w</text>
</g>
<!-- room_108&#45;&gt;room_52 -->
<g id="edge21" class="edge">
<title>room_108&#45;&gt;room_52</title>
<path fill="none" stroke="black" d="M459.51,-453.33C461.87,-426.94 461.66,-377.83 459.29,-346.7"/>
<polygon fill="black" stroke="black" points="462.75,-346.15 458.36,-336.5 455.78,-346.78 462.75,-346.15"/>
<text text-anchor="middle" x="455.9" y="-402.81" font-family="Times,serif" font-size="14.00">d</text>
</g>
<!-- room_107 -->
<g id="node11" class="node">
<title>room_107</title>
<ellipse fill="none" stroke="black" cx="320.25" cy="-386.21" rx="58.96" ry="18"/>
<text text-anchor="middle" x="320.25" y="-382.01" font-family="Times,serif" font-size="14.00">Oak Archway</text>
</g>
<!-- room_108&#45;&gt;room_107 -->
<g id="edge19" class="edge">
<title>room_108&#45;&gt;room_107</title>
<path fill="none" stroke="black" d="M436.77,-453.93C417.98,-439.97 388.19,-420.67 363.42,-406.16"/>
<polygon fill="black" stroke="black" points="364.97,-403.01 354.55,-401.05 361.47,-409.08 364.97,-403.01"/>
<text text-anchor="middle" x="396.99" y="-432.85" font-family="Times,serif" font-size="14.00">e</text>
</g>
<!-- room_109 -->
<g id="node12" class="node">
<title>room_109</title>
<ellipse fill="none" stroke="black" cx="316.4" cy="-542.98" rx="81.55" ry="18"/>
<text text-anchor="middle" x="316.4" y="-538.78" font-family="Times,serif" font-size="14.00">Earthen Tower Base</text>
</g>
<!-- room_108&#45;&gt;room_109 -->
<g id="edge17" class="edge">
<title>room_108&#45;&gt;room_109</title>
<path fill="none" stroke="black" d="M412.56,-486.53C391.57,-496.37 366.72,-509.27 347.53,-520.32"/>
<polygon fill="black" stroke="black" points="345.72,-517.33 338.88,-525.42 349.27,-523.36 345.72,-517.33"/>
<text text-anchor="middle" x="376.54" y="-506.22" font-family="Times,serif" font-size="14.00">n</text>
</g>
<!-- room_110 -->
<g id="node13" class="node">
<title>room_110</title>
<ellipse fill="none" stroke="black" cx="426.87" cy="-601.03" rx="68.53" ry="18"/>
<text text-anchor="middle" x="426.87" y="-596.83" font-family="Times,serif" font-size="14.00">Tower of Vapors</text>
</g>
<!-- room_108&#45;&gt;room_110 -->
<g id="edge18" class="edge">
<title>room_108&#45;&gt;room_110</title>
<path fill="none" stroke="black" d="M446.13,-489.59C439.21,-511.17 431.06,-547.52 427.29,-572.81"/>
<polygon fill="black" stroke="black" points="423.8,-572.53 425.96,-582.9 430.74,-573.45 423.8,-572.53"/>
<text text-anchor="middle" x="433.99" y="-534" font-family="Times,serif" font-size="14.00">s</text>
</g>
<!-- room_114 -->
<g id="node14" class="node">
<title>room_114</title>
<ellipse fill="none" stroke="black" cx="619.21" cy="-482.5" rx="80.19" ry="18"/>
<text text-anchor="middle" x="619.21" y="-478.3" font-family="Times,serif" font-size="14.00">Emerald Concourse</text>
</g>
<!-- room_108&#45;&gt;room_114 -->
<g id="edge20" class="edge">
<title>room_108&#45;&gt;room_114</title>
<path fill="none" stroke="black" d="M516.73,-482.24C520.74,-482.58 524.83,-482.9 528.94,-483.21"/>
<polygon fill="black" stroke="black" points="528.98,-486.72 539.2,-483.92 529.46,-479.73 528.98,-486.72"/>
<text text-anchor="middle" x="527.89" y="-485.52" font-family="Times,serif" font-size="14.00">w</text>
</g>
<!-- room_54&#45;&gt;room_53 -->
<g id="edge8" class="edge">
<title>room_54&#45;&gt;room_53</title>
<path fill="none" stroke="black" d="M681.92,-134.21C666.32,-138.46 649.47,-143.58 634.82,-148.55"/>
<polygon fill="black" stroke="black" points="633.35,-145.35 625.06,-151.95 635.65,-151.96 633.35,-145.35"/>
<text text-anchor="middle" x="655.26" y="-130.18" font-family="Times,serif" font-size="14.00">e</text>
</g>
<!-- room_55 -->
<g id="node8" class="node">
<title>room_55</title>
<ellipse fill="none" stroke="black" cx="855.05" cy="-195.68" rx="82.2" ry="18"/>
<text text-anchor="middle" x="855.05" y="-191.48" font-family="Times,serif" font-size="14.00">Wellspring of Ulster</text>
</g>
<!-- room_54&#45;&gt;room_55 -->
<g id="edge9" class="edge">
<title>room_54&#45;&gt;room_55</title>
<path fill="none" stroke="black" d="M752.79,-142.69C767.12,-152.48 787.41,-164.7 806.15,-174.99"/>
<polygon fill="black" stroke="black" points="804.73,-178.2 815.2,-179.87 808.06,-172.04 804.73,-178.2"/>
<text text-anchor="middle" x="774.42" y="-161.64" font-family="Times,serif" font-size="14.00">w</text>
</g>
<!-- room_55&#45;&gt;room_54 -->
<g id="edge10" class="edge">
<title>room_55&#45;&gt;room_54</title>
<path fill="none" stroke="black" d="M835.49,-178.17C820.34,-167.86 798.78,-154.97 779.39,-144.46"/>
<polygon fill="black" stroke="black" points="780.85,-141.27 770.38,-139.66 777.56,-147.45 780.85,-141.27"/>
<text text-anchor="middle" x="804.33" y="-164.11" font-family="Times,serif" font-size="14.00">e</text>
</g>
<!-- room_149 -->
<g id="node9" class="node">
<title>room_149</title>
<ellipse fill="none" stroke="black" cx="885.09" cy="-349.87" rx="43.03" ry="18"/>
<text text-anchor="middle" x="885.09" y="-345.67" font-family="Times,serif" font-size="14.00">The Root</text>
</g>
<!-- room_55&#45;&gt;room_149 -->
<g id="edge11" class="edge">
<title>room_55&#45;&gt;room_149</title>
<path fill="none" stroke="black" d="M854.06,-213.92C856.51,-240.61 865.92,-290.53 874.12,-321.88"/>
<polygon fill="black" stroke="black" points="870.81,-323.04 876.85,-331.74 877.56,-321.17 870.81,-323.04"/>
<text text-anchor="middle" x="859.03" y="-270.7" font-family="Times,serif" font-size="14.00">w</text>
</g>
<!-- room_149&#45;&gt;room_55 -->
<g id="edge77" class="edge">
<title>room_149&#45;&gt;room_55</title>
<path fill="none" stroke="black" d="M886.08,-331.63C883.62,-304.93 874.22,-255.02 866.01,-223.66"/>
<polygon fill="black" stroke="black" points="869.33,-222.51 863.29,-213.8 862.58,-224.37 869.33,-222.51"/>
<text text-anchor="middle" x="872.94" y="-280.44" font-family="Times,serif" font-size="14.00">e</text>
</g>
<!-- room_116 -->
<g id="node26" class="node">
<title>room_116</title>
<ellipse fill="none" stroke="black" cx="840.25" cy="-519.01" rx="72.03" ry="18"/>
<text text-anchor="middle" x="840.25" y="-514.81" font-family="Times,serif" font-size="14.00">Room of the Tree</text>
</g>
<!-- room_149&#45;&gt;room_116 -->
<g id="edge78" class="edge">
<title>room_149&#45;&gt;room_116</title>
<path fill="none" stroke="black" d="M875.83,-367.48C865.12,-396.76 849.28,-455.65 842.46,-490.78"/>
<polygon fill="black" stroke="black" points="838.97,-490.4 840.65,-500.86 845.86,-491.64 838.97,-490.4"/>
<text text-anchor="middle" x="855.65" y="-431.93" font-family="Times,serif" font-size="14.00">u</text>
</g>
<!-- room_106 -->
<g id="node10" class="node">
<title>room_106</title>
<ellipse fill="none" stroke="black" cx="193.97" cy="-307.87" rx="78.24" ry="18"/>
<text text-anchor="middle" x="193.97" y="-303.67" font-family="Times,serif" font-size="14.00">Druid Palace Gates</text>
</g>
<!-- room_106&#45;&gt;room_107 -->
<g id="edge14" class="edge">
<title>room_106&#45;&gt;room_107</title>
<path fill="none" stroke="black" d="M212.37,-325.39C229.19,-337.68 254.65,-353.92 276.63,-366.61"/>
<polygon fill="black" stroke="black" points="275.06,-369.74 285.49,-371.63 278.52,-363.66 275.06,-369.74"/>
<text text-anchor="middle" x="239.45" y="-348.8" font-family="Times,serif" font-size="14.00">w</text>
</g>
<!-- room_107&#45;&gt;room_108 -->
<g id="edge16" class="edge">
<title>room_107&#45;&gt;room_108</title>
<path fill="none" stroke="black" d="M338.06,-403.41C356.36,-417.06 385.47,-435.98 410.11,-450.5"/>
<polygon fill="black" stroke="black" points="408.55,-453.64 418.95,-455.63 412.06,-447.59 408.55,-453.64"/>
<text text-anchor="middle" x="369.03" y="-429.75" font-family="Times,serif" font-size="14.00">w</text>
</g>
<!-- room_107&#45;&gt;room_106 -->
<g id="edge15" class="edge">
<title>room_107&#45;&gt;room_106</title>
<path fill="none" stroke="black" d="M302.13,-368.89C285.88,-357 261.43,-341.34 239.86,-328.79"/>
<polygon fill="black" stroke="black" points="241.56,-325.73 231.15,-323.79 238.09,-331.8 241.56,-325.73"/>
<text text-anchor="middle" x="267.89" y="-351.64" font-family="Times,serif" font-size="14.00">e</text>
</g>
<!-- room_109&#45;&gt;room_108 -->
<g id="edge22" class="edge">
<title>room_109&#45;&gt;room_108</title>
<path fill="none" stroke="black" d="M359.74,-527.64C380.6,-517.82 405.12,-505.08 424.09,-494.15"/>
<polygon fill="black" stroke="black" points="426.08,-497.04 432.92,-488.95 422.53,-491.01 426.08,-497.04"/>
<text text-anchor="middle" x="389.19" y="-513.69" font-family="Times,serif" font-size="14.00">s</text>
</g>
<!-- room_111 -->
<g id="node15" class="node">
<title>room_111</title>
<ellipse fill="none" stroke="black" cx="215.53" cy="-665.98" rx="62.25" ry="18"/>
<text text-anchor="middle" x="215.53" y="-661.78" font-family="Times,serif" font-size="14.00">Earthen Tower</text>
</g>
<!-- room_109&#45;&gt;room_111 -->
<g id="edge23" class="edge">
<title>room_109&#45;&gt;room_111</title>
<path fill="none" stroke="black" d="M295.25,-560.54C275.7,-581.25 247.35,-615.72 230.16,-639.63"/>
<polygon fill="black" stroke="black" points="227.23,-637.71 224.37,-647.92 232.97,-641.73 227.23,-637.71"/>
<text text-anchor="middle" x="259.21" y="-602.88" font-family="Times,serif" font-size="14.00">u</text>
</g>
<!-- room_110&#45;&gt;room_108 -->
<g id="edge24" class="edge">
<title>room_110&#45;&gt;room_108</title>
<path fill="none" stroke="black" d="M435.88,-582.98C442.8,-561.41 450.95,-525.06 454.72,-499.76"/>
<polygon fill="black" stroke="black" points="458.21,-500.04 456.05,-489.67 451.27,-499.13 458.21,-500.04"/>
<text text-anchor="middle" x="441.8" y="-544.17" font-family="Times,serif" font-size="14.00">n</text>
</g>
<!-- room_113 -->
<g id="node16" class="node">
<title>room_113</title>
<ellipse fill="none" stroke="black" cx="363.95" cy="-742.68" rx="68.53" ry="18"/>
<text text-anchor="middle" x="363.95" y="-738.48" font-family="Times,serif" font-size="14.00">Tower of Vapors</text>
</g>
<!-- room_110&#45;&gt;room_113 -->
<g id="edge25" class="edge">
<title>room_110&#45;&gt;room_113</title>
<path fill="none" stroke="black" d="M413.69,-618.76C400.41,-642.86 381.01,-686.11 370.55,-714.62"/>
<polygon fill="black" stroke="black" points="367.13,-713.8 367.13,-724.4 373.74,-716.11 367.13,-713.8"/>
<text text-anchor="middle" x="388.62" y="-669.49" font-family="Times,serif" font-size="14.00">u</text>
</g>
<!-- room_114&#45;&gt;room_108 -->
<g id="edge37" class="edge">
<title>room_114&#45;&gt;room_108</title>
<path fill="none" stroke="black" d="M555.27,-471.6C550.66,-471.22 545.97,-470.86 541.25,-470.53"/>
<polygon fill="black" stroke="black" points="541.14,-467.02 530.93,-469.86 540.68,-474 541.14,-467.02"/>
<text text-anchor="middle" x="545.16" y="-459.87" font-family="Times,serif" font-size="14.00">e</text>
</g>
<!-- room_114&#45;&gt;room_124 -->
<g id="edge35" class="edge">
<title>room_114&#45;&gt;room_124</title>
<path fill="none" stroke="black" d="M623.71,-464.39C626,-439.62 625.93,-394.94 623.76,-365.76"/>
<polygon fill="black" stroke="black" points="627.24,-365.42 622.86,-355.77 620.27,-366.04 627.24,-365.42"/>
<text text-anchor="middle" x="620.23" y="-417.87" font-family="Times,serif" font-size="14.00">n</text>
</g>
<!-- room_126 -->
<g id="node22" class="node">
<title>room_126</title>
<ellipse fill="none" stroke="black" cx="755.86" cy="-435.87" rx="87.78" ry="18"/>
<text text-anchor="middle" x="755.86" y="-431.67" font-family="Times,serif" font-size="14.00">Tuatha de Danan Hall</text>
</g>
<!-- room_114&#45;&gt;room_126 -->
<g id="edge36" class="edge">
<title>room_114&#45;&gt;room_126</title>
<path fill="none" stroke="black" d="M676.93,-469.82C689.7,-465.69 702.98,-461.05 714.92,-456.52"/>
<polygon fill="black" stroke="black" points="716.54,-459.64 724.59,-452.76 714,-453.12 716.54,-459.64"/>
<text text-anchor="middle" x="693.2" y="-451.97" font-family="Times,serif" font-size="14.00">s</text>
</g>
<!-- room_115 -->
<g id="node23" class="node">
<title>room_115</title>
<ellipse fill="none" stroke="black" cx="715.66" cy="-601.12" rx="41.5" ry="18"/>
<text text-anchor="middle" x="715.66" y="-596.92" font-family="Times,serif" font-size="14.00">The Taig</text>
</g>
<!-- room_114&#45;&gt;room_115 -->
<g id="edge38" class="edge">
<title>room_114&#45;&gt;room_115</title>
<path fill="none" stroke="black" d="M627.8,-500.47C641.59,-521.12 668.58,-554.9 689.1,-577.61"/>
<polygon fill="black" stroke="black" points="686.7,-580.17 696.06,-585.14 691.84,-575.42 686.7,-580.17"/>
<text text-anchor="middle" x="653.39" y="-541.84" font-family="Times,serif" font-size="14.00">w</text>
</g>
<!-- room_111&#45;&gt;room_109 -->
<g id="edge29" class="edge">
<title>room_111&#45;&gt;room_109</title>
<path fill="none" stroke="black" d="M236.18,-648.95C255.69,-628.35 284.25,-593.66 301.6,-569.56"/>
<polygon fill="black" stroke="black" points="304.58,-571.4 307.45,-561.2 298.85,-567.39 304.58,-571.4"/>
<text text-anchor="middle" x="272.39" y="-612.05" font-family="Times,serif" font-size="14.00">d</text>
</g>
<!-- room_112 -->
<g id="node17" class="node">
<title>room_112</title>
<ellipse fill="none" stroke="black" cx="198.68" cy="-758.62" rx="58.47" ry="18"/>
<text text-anchor="middle" x="198.68" y="-754.42" font-family="Times,serif" font-size="14.00">the Celtivirke</text>
</g>
<!-- room_111&#45;&gt;room_112 -->
<g id="edge26" class="edge">
<title>room_111&#45;&gt;room_112</title>
<path fill="none" stroke="black" d="M206.53,-684.18C202.84,-697.25 199.38,-715.13 197.54,-730.09"/>
<polygon fill="black" stroke="black" points="194.03,-730.06 196.51,-740.36 200.99,-730.76 194.03,-730.06"/>
<text text-anchor="middle" x="199.31" y="-709.93" font-family="Times,serif" font-size="14.00">s</text>
</g>
<!-- room_117 -->
<g id="node18" class="node">
<title>room_117</title>
<ellipse fill="none" stroke="black" cx="226.58" cy="-852.58" rx="58.47" ry="18"/>
<text text-anchor="middle" x="226.58" y="-848.38" font-family="Times,serif" font-size="14.00">the Celtivirke</text>
</g>
<!-- room_111&#45;&gt;room_117 -->
<g id="edge27" class="edge">
<title>room_111&#45;&gt;room_117</title>
<path fill="none" stroke="black" d="M212.42,-684.12C211.22,-716.74 215.01,-785.51 219.87,-824.34"/>
<polygon fill="black" stroke="black" points="216.43,-825.02 221.27,-834.45 223.37,-824.06 216.43,-825.02"/>
<text text-anchor="middle" x="211.09" y="-757.03" font-family="Times,serif" font-size="14.00">w</text>
</g>
<!-- room_453 -->
<g id="node19" class="node">
<title>room_453</title>
<ellipse fill="none" stroke="black" cx="65.85" cy="-646.7" rx="65.7" ry="18"/>
<text text-anchor="middle" x="65.85" y="-642.5" font-family="Times,serif" font-size="14.00">Death Chamber</text>
</g>
<!-- room_111&#45;&gt;room_453 -->
<g id="edge28" class="edge">
<title>room_111&#45;&gt;room_453</title>
<path fill="none" stroke="black" d="M169.79,-653.74C160.85,-652.28 151.25,-650.89 141.63,-649.65"/>
<polygon fill="black" stroke="black" points="141.98,-646.17 131.63,-648.42 141.12,-653.12 141.98,-646.17"/>
<text text-anchor="middle" x="152.21" y="-640.49" font-family="Times,serif" font-size="14.00">u</text>
</g>
<!-- room_113&#45;&gt;room_110 -->
<g id="edge34" class="edge">
<title>room_113&#45;&gt;room_110</title>
<path fill="none" stroke="black" d="M377.13,-724.95C390.41,-700.86 409.81,-657.6 420.27,-629.09"/>
<polygon fill="black" stroke="black" points="423.69,-629.91 423.69,-619.31 417.08,-627.6 423.69,-629.91"/>
<text text-anchor="middle" x="402.2" y="-679.82" font-family="Times,serif" font-size="14.00">d</text>
</g>
<!-- room_113&#45;&gt;room_112 -->
<g id="edge32" class="edge">
<title>room_113&#45;&gt;room_112</title>
<path fill="none" stroke="black" d="M295.14,-742.63C282.07,-743.72 268.53,-745.09 255.87,-746.6"/>
<polygon fill="black" stroke="black" points="255.42,-743.13 245.93,-747.84 256.29,-750.07 255.42,-743.13"/>
<text text-anchor="middle" x="272" y="-747.41" font-family="Times,serif" font-size="14.00">n</text>
</g>
<!-- room_123 -->
<g id="node20" class="node">
<title>room_123</title>
<ellipse fill="none" stroke="black" cx="424.82" cy="-891.13" rx="58.47" ry="18"/>
<text text-anchor="middle" x="424.82" y="-886.93" font-family="Times,serif" font-size="14.00">the Celtivirke</text>
</g>
<!-- room_113&#45;&gt;room_123 -->
<g id="edge33" class="edge">
<title>room_113&#45;&gt;room_123</title>
<path fill="none" stroke="black" d="M366.6,-760.81C374.28,-786.62 393.35,-834.06 407.78,-864.04"/>
<polygon fill="black" stroke="black" points="404.7,-865.71 412.28,-873.11 410.97,-862.6 404.7,-865.71"/>
<text text-anchor="middle" x="382.13" y="-815.23" font-family="Times,serif" font-size="14.00">w</text>
</g>
<!-- room_112&#45;&gt;room_111 -->
<g id="edge30" class="edge">
<title>room_112&#45;&gt;room_111</title>
<path fill="none" stroke="black" d="M207.67,-740.42C211.36,-727.35 214.83,-709.47 216.66,-694.51"/>
<polygon fill="black" stroke="black" points="220.18,-694.54 217.69,-684.24 213.21,-693.84 220.18,-694.54"/>
<text text-anchor="middle" x="208.67" y="-720.27" font-family="Times,serif" font-size="14.00">n</text>
</g>
<!-- room_112&#45;&gt;room_113 -->
<g id="edge31" class="edge">
<title>room_112&#45;&gt;room_113</title>
<path fill="none" stroke="black" d="M257.1,-759.48C271.22,-758.45 286.36,-757.03 300.69,-755.4"/>
<polygon fill="black" stroke="black" points="301.43,-758.84 310.95,-754.18 300.6,-751.89 301.43,-758.84"/>
<text text-anchor="middle" x="281.62" y="-760.24" font-family="Times,serif" font-size="14.00">s</text>
</g>
<!-- room_117&#45;&gt;room_111 -->
<g id="edge45" class="edge">
<title>room_117&#45;&gt;room_111</title>
<path fill="none" stroke="black" d="M229.69,-834.45C230.88,-801.83 227.09,-733.06 222.23,-694.22"/>
<polygon fill="black" stroke="black" points="225.67,-693.55 220.84,-684.12 218.74,-694.51 225.67,-693.55"/>
<text text-anchor="middle" x="222.85" y="-767.13" font-family="Times,serif" font-size="14.00">e</text>
</g>
<!-- room_118 -->
<g id="node27" class="node">
<title>room_118</title>
<ellipse fill="none" stroke="black" cx="325.16" cy="-977.54" rx="64.75" ry="18"/>
<text text-anchor="middle" x="325.16" y="-973.34" font-family="Times,serif" font-size="14.00">Flame Pinnacle</text>
</g>
<!-- room_117&#45;&gt;room_118 -->
<g id="edge46" class="edge">
<title>room_117&#45;&gt;room_118</title>
<path fill="none" stroke="black" d="M234.87,-870.5C248.8,-892.05 276.8,-928.18 298.02,-952.47"/>
<polygon fill="black" stroke="black" points="295.66,-955.08 304.93,-960.22 300.88,-950.42 295.66,-955.08"/>
<text text-anchor="middle" x="261.39" y="-914.28" font-family="Times,serif" font-size="14.00">w</text>
</g>
<!-- room_453&#45;&gt;room_111 -->
<g id="edge79" class="edge">
<title>room_453&#45;&gt;room_111</title>
<path fill="none" stroke="black" d="M113.22,-659.21C122.8,-660.74 133.07,-662.19 143.28,-663.47"/>
<polygon fill="black" stroke="black" points="143.09,-666.97 153.44,-664.69 143.92,-660.02 143.09,-666.97"/>
<text text-anchor="middle" x="131.75" y="-664.14" font-family="Times,serif" font-size="14.00">d</text>
</g>
<!-- room_123&#45;&gt;room_113 -->
<g id="edge59" class="edge">
<title>room_123&#45;&gt;room_113</title>
<path fill="none" stroke="black" d="M422.18,-872.99C414.49,-847.18 395.42,-799.74 381,-769.76"/>
<polygon fill="black" stroke="black" points="384.07,-768.09 376.49,-760.69 377.8,-771.2 384.07,-768.09"/>
<text text-anchor="middle" x="398.48" y="-824.18" font-family="Times,serif" font-size="14.00">e</text>
</g>
<!-- room_121 -->
<g id="node31" class="node">
<title>room_121</title>
<ellipse fill="none" stroke="black" cx="519.85" cy="-1037.08" rx="63.29" ry="18"/>
<text text-anchor="middle" x="519.85" y="-1032.88" font-family="Times,serif" font-size="14.00">Spire of Winds</text>
</g>
<!-- room_123&#45;&gt;room_121 -->
<g id="edge60" class="edge">
<title>room_123&#45;&gt;room_121</title>
<path fill="none" stroke="black" d="M431.33,-909.13C444.81,-934.85 475.11,-982.08 496.6,-1011.43"/>
<polygon fill="black" stroke="black" points="493.89,-1013.65 502.68,-1019.56 499.49,-1009.46 493.89,-1013.65"/>
<text text-anchor="middle" x="458.91" y="-963.08" font-family="Times,serif" font-size="14.00">w</text>
</g>
<!-- room_124&#45;&gt;room_125 -->
<g id="edge61" class="edge">
<title>room_124&#45;&gt;room_125</title>
<path fill="none" stroke="black" d="M605.65,-319.72C583.33,-294.66 536.16,-249.26 504.13,-221.54"/>
<polygon fill="black" stroke="black" points="506.22,-218.73 496.34,-214.9 501.68,-224.05 506.22,-218.73"/>
<text text-anchor="middle" x="551.39" y="-273.43" font-family="Times,serif" font-size="14.00">n</text>
</g>
<!-- room_124&#45;&gt;room_114 -->
<g id="edge62" class="edge">
<title>room_124&#45;&gt;room_114</title>
<path fill="none" stroke="black" d="M613.55,-355.62C611.25,-380.38 611.33,-425.06 613.5,-454.25"/>
<polygon fill="black" stroke="black" points="610.02,-454.59 614.39,-464.24 616.99,-453.96 610.02,-454.59"/>
<text text-anchor="middle" x="610.8" y="-407.73" font-family="Times,serif" font-size="14.00">s</text>
</g>
<!-- room_126&#45;&gt;room_114 -->
<g id="edge65" class="edge">
<title>room_126&#45;&gt;room_114</title>
<path fill="none" stroke="black" d="M696.15,-449.19C683.67,-453.27 670.8,-457.79 659.24,-462.2"/>
<polygon fill="black" stroke="black" points="657.92,-458.95 649.88,-465.85 660.47,-465.47 657.92,-458.95"/>
<text text-anchor="middle" x="674.19" y="-458.49" font-family="Times,serif" font-size="14.00">n</text>
</g>
<!-- room_127 -->
<g id="node34" class="node">
<title>room_127</title>
<ellipse fill="none" stroke="black" cx="927.45" cy="-430.08" rx="75.83" ry="18"/>
<text text-anchor="middle" x="927.45" y="-425.88" font-family="Times,serif" font-size="14.00">Gallery of Dreams</text>
</g>
<!-- room_126&#45;&gt;room_127 -->
<g id="edge66" class="edge">
<title>room_126&#45;&gt;room_127</title>
<path fill="none" stroke="black" d="M841.63,-439.73C844.81,-439.62 847.98,-439.51 851.13,-439.38"/>
<polygon fill="black" stroke="black" points="851.3,-442.87 861.13,-438.92 850.98,-435.88 851.3,-442.87"/>
<text text-anchor="middle" x="849.11" y="-442.35" font-family="Times,serif" font-size="14.00">s</text>
</g>
<!-- room_115&#45;&gt;room_114 -->
<g id="edge41" class="edge">
<title>room_115&#45;&gt;room_114</title>
<path fill="none" stroke="black" d="M707.24,-583.4C693.85,-563.29 667.72,-530.49 647.32,-507.73"/>
<polygon fill="black" stroke="black" points="649.7,-505.15 640.37,-500.13 644.54,-509.87 649.7,-505.15"/>
<text text-anchor="middle" x="674.17" y="-548.37" font-family="Times,serif" font-size="14.00">e</text>
</g>
<!-- room_128 -->
<g id="node24" class="node">
<title>room_128</title>
<ellipse fill="none" stroke="black" cx="670.11" cy="-725.09" rx="67.16" ry="18"/>
<text text-anchor="middle" x="670.11" y="-720.89" font-family="Times,serif" font-size="14.00">Speckled House</text>
</g>
<!-- room_115&#45;&gt;room_128 -->
<g id="edge39" class="edge">
<title>room_115&#45;&gt;room_128</title>
<path fill="none" stroke="black" d="M703.92,-618.48C694.2,-638.92 681.44,-673.09 674.37,-697.23"/>
<polygon fill="black" stroke="black" points="670.99,-696.33 671.71,-706.9 677.74,-698.19 670.99,-696.33"/>
<text text-anchor="middle" x="685.64" y="-660.66" font-family="Times,serif" font-size="14.00">n</text>
</g>
<!-- room_130 -->
<g id="node25" class="node">
<title>room_130</title>
<ellipse fill="none" stroke="black" cx="831.99" cy="-739.23" rx="86.47" ry="18"/>
<text text-anchor="middle" x="831.99" y="-735.03" font-family="Times,serif" font-size="14.00">House of Red Branch</text>
</g>
<!-- room_115&#45;&gt;room_130 -->
<g id="edge40" class="edge">
<title>room_115&#45;&gt;room_130</title>
<path fill="none" stroke="black" d="M724.77,-618.71C741.67,-642.97 777.85,-686.55 803.56,-714.17"/>
<polygon fill="black" stroke="black" points="801.1,-716.66 810.52,-721.51 806.18,-711.84 801.1,-716.66"/>
<text text-anchor="middle" x="761.44" y="-669.24" font-family="Times,serif" font-size="14.00">s</text>
</g>
<!-- room_115&#45;&gt;room_116 -->
<g id="edge42" class="edge">
<title>room_115&#45;&gt;room_116</title>
<path fill="none" stroke="black" d="M745.18,-588.41C766.35,-576.18 794.52,-557.67 814.72,-542.77"/>
<polygon fill="black" stroke="black" points="816.97,-545.45 822.84,-536.63 812.75,-539.87 816.97,-545.45"/>
<text text-anchor="middle" x="774.9" y="-568.39" font-family="Times,serif" font-size="14.00">w</text>
</g>
<!-- room_128&#45;&gt;room_115 -->
<g id="edge70" class="edge">
<title>room_128&#45;&gt;room_115</title>
<path fill="none" stroke="black" d="M682.11,-707.2C691.78,-686.72 704.37,-652.99 711.38,-629.05"/>
<polygon fill="black" stroke="black" points="714.83,-629.71 714.1,-619.14 708.08,-627.86 714.83,-629.71"/>
<text text-anchor="middle" x="694.02" y="-670.92" font-family="Times,serif" font-size="14.00">s</text>
</g>
<!-- room_129 -->
<g id="node30" class="node">
<title>room_129</title>
<ellipse fill="none" stroke="black" cx="617.65" cy="-861.06" rx="69.81" ry="18"/>
<text text-anchor="middle" x="617.65" y="-856.86" font-family="Times,serif" font-size="14.00">Manannan&#39;s Hall</text>
</g>
<!-- room_128&#45;&gt;room_129 -->
<g id="edge69" class="edge">
<title>room_128&#45;&gt;room_129</title>
<path fill="none" stroke="black" d="M658.02,-742.81C646.71,-765.82 630.94,-806.18 622.55,-833.28"/>
<polygon fill="black" stroke="black" points="619.17,-832.37 619.72,-842.95 625.89,-834.34 619.17,-832.37"/>
<text text-anchor="middle" x="636.79" y="-790.84" font-family="Times,serif" font-size="14.00">n</text>
</g>
<!-- room_130&#45;&gt;room_115 -->
<g id="edge73" class="edge">
<title>room_130&#45;&gt;room_115</title>
<path fill="none" stroke="black" d="M822.49,-721.07C805.15,-696.33 768.49,-652.25 742.91,-624.92"/>
<polygon fill="black" stroke="black" points="745.12,-622.16 735.68,-617.35 740.05,-627 745.12,-622.16"/>
<text text-anchor="middle" x="779.2" y="-675.79" font-family="Times,serif" font-size="14.00">n</text>
</g>
<!-- room_131 -->
<g id="node33" class="node">
<title>room_131</title>
<ellipse fill="none" stroke="black" cx="798.73" cy="-899.51" rx="78.99" ry="18"/>
<text text-anchor="middle" x="798.73" y="-895.31" font-family="Times,serif" font-size="14.00">Nuada&#39;s Silver Hall</text>
</g>
<!-- room_130&#45;&gt;room_131 -->
<g id="edge74" class="edge">
<title>room_130&#45;&gt;room_131</title>
<path fill="none" stroke="black" d="M823.58,-757.32C815.12,-784.94 803.91,-837.85 799.33,-870.76"/>
<polygon fill="black" stroke="black" points="795.81,-870.74 798.05,-881.09 802.75,-871.6 795.81,-870.74"/>
<text text-anchor="middle" x="808.73" y="-816.84" font-family="Times,serif" font-size="14.00">s</text>
</g>
<!-- room_116&#45;&gt;room_149 -->
<g id="edge44" class="edge">
<title>room_116&#45;&gt;room_149</title>
<path fill="none" stroke="black" d="M849.62,-501.08C860.34,-471.66 876.12,-412.96 882.9,-377.98"/>
<polygon fill="black" stroke="black" points="886.38,-378.4 884.7,-367.94 879.49,-377.16 886.38,-378.4"/>
<text text-anchor="middle" x="862.76" y="-442.33" font-family="Times,serif" font-size="14.00">d</text>
</g>
<!-- room_116&#45;&gt;room_115 -->
<g id="edge43" class="edge">
<title>room_116&#45;&gt;room_115</title>
<path fill="none" stroke="black" d="M805.2,-534.96C784.33,-547.37 758.4,-564.56 739.8,-578.39"/>
<polygon fill="black" stroke="black" points="737.65,-575.63 731.81,-584.48 741.89,-581.2 737.65,-575.63"/>
<text text-anchor="middle" x="769.39" y="-545.47" font-family="Times,serif" font-size="14.00">e</text>
</g>
<!-- room_118&#45;&gt;room_117 -->
<g id="edge48" class="edge">
<title>room_118&#45;&gt;room_117</title>
<path fill="none" stroke="black" d="M316.87,-959.63C302.93,-938.07 274.94,-901.95 253.72,-877.65"/>
<polygon fill="black" stroke="black" points="256.08,-875.04 246.81,-869.91 250.85,-879.7 256.08,-875.04"/>
<text text-anchor="middle" x="282.18" y="-921.44" font-family="Times,serif" font-size="14.00">e</text>
</g>
<!-- room_120 -->
<g id="node28" class="node">
<title>room_120</title>
<ellipse fill="none" stroke="black" cx="388.79" cy="-1103.19" rx="58.47" ry="18"/>
<text text-anchor="middle" x="388.79" y="-1098.99" font-family="Times,serif" font-size="14.00">the Celtivirke</text>
</g>
<!-- room_118&#45;&gt;room_120 -->
<g id="edge47" class="edge">
<title>room_118&#45;&gt;room_120</title>
<path fill="none" stroke="black" d="M329.05,-995.56C337.23,-1016.87 354.82,-1052.42 368.95,-1076.82"/>
<polygon fill="black" stroke="black" points="366.03,-1078.77 374.16,-1085.57 372.05,-1075.18 366.03,-1078.77"/>
<text text-anchor="middle" x="346.27" y="-1038.99" font-family="Times,serif" font-size="14.00">s</text>
</g>
<!-- room_119 -->
<g id="node29" class="node">
<title>room_119</title>
<ellipse fill="none" stroke="black" cx="488.21" cy="-950.62" rx="58.71" ry="18"/>
<text text-anchor="middle" x="488.21" y="-946.42" font-family="Times,serif" font-size="14.00">Tower of Fire</text>
</g>
<!-- room_118&#45;&gt;room_119 -->
<g id="edge49" class="edge">
<title>room_118&#45;&gt;room_119</title>
<path fill="none" stroke="black" d="M388.81,-973.71C404.61,-971.38 421.36,-968.54 436.52,-965.6"/>
<polygon fill="black" stroke="black" points="437.6,-968.96 446.72,-963.56 436.23,-962.09 437.6,-968.96"/>
<text text-anchor="middle" x="409.16" y="-972.45" font-family="Times,serif" font-size="14.00">d</text>
</g>
<!-- room_120&#45;&gt;room_118 -->
<g id="edge52" class="edge">
<title>room_120&#45;&gt;room_118</title>
<path fill="none" stroke="black" d="M384.9,-1085.16C376.72,-1063.85 359.13,-1028.3 345,-1003.91"/>
<polygon fill="black" stroke="black" points="347.91,-1001.95 339.79,-995.16 341.9,-1005.54 347.91,-1001.95"/>
<text text-anchor="middle" x="361.45" y="-1047.33" font-family="Times,serif" font-size="14.00">n</text>
</g>
<!-- room_120&#45;&gt;room_121 -->
<g id="edge53" class="edge">
<title>room_120&#45;&gt;room_121</title>
<path fill="none" stroke="black" d="M428.77,-1089.92C448.23,-1081.05 471.24,-1069.38 489.28,-1059.18"/>
<polygon fill="black" stroke="black" points="491.31,-1062.05 498.21,-1054 487.8,-1055.99 491.31,-1062.05"/>
<text text-anchor="middle" x="456.3" y="-1077.35" font-family="Times,serif" font-size="14.00">s</text>
</g>
<!-- room_119&#45;&gt;room_118 -->
<g id="edge51" class="edge">
<title>room_119&#45;&gt;room_118</title>
<path fill="none" stroke="black" d="M430.13,-953.65C413.41,-956.02 395.26,-959.03 378.82,-962.18"/>
<polygon fill="black" stroke="black" points="377.96,-958.78 368.83,-964.15 379.32,-965.65 377.96,-958.78"/>
<text text-anchor="middle" x="400.97" y="-960.72" font-family="Times,serif" font-size="14.00">u</text>
</g>
<!-- room_119&#45;&gt;room_129 -->
<g id="edge50" class="edge">
<title>room_119&#45;&gt;room_129</title>
<path fill="none" stroke="black" d="M520.19,-935.45C542.72,-921.56 572.38,-901.01 593.07,-884.95"/>
<polygon fill="black" stroke="black" points="595.41,-887.56 601.07,-878.6 591.06,-882.08 595.41,-887.56"/>
<text text-anchor="middle" x="553.91" y="-913" font-family="Times,serif" font-size="14.00">s</text>
</g>
<!-- room_129&#45;&gt;room_128 -->
<g id="edge72" class="edge">
<title>room_129&#45;&gt;room_128</title>
<path fill="none" stroke="black" d="M629.88,-843.06C641.2,-819.97 656.9,-779.74 665.25,-752.75"/>
<polygon fill="black" stroke="black" points="668.62,-753.7 668.07,-743.12 661.9,-751.73 668.62,-753.7"/>
<text text-anchor="middle" x="644.84" y="-800.71" font-family="Times,serif" font-size="14.00">s</text>
</g>
<!-- room_129&#45;&gt;room_119 -->
<g id="edge71" class="edge">
<title>room_129&#45;&gt;room_119</title>
<path fill="none" stroke="black" d="M584.33,-877.06C561.92,-890.97 532.93,-911.09 512.64,-926.85"/>
<polygon fill="black" stroke="black" points="510.44,-924.13 504.79,-933.09 514.8,-929.61 510.44,-924.13"/>
<text text-anchor="middle" x="544.98" y="-904.76" font-family="Times,serif" font-size="14.00">n</text>
</g>
<!-- room_121&#45;&gt;room_123 -->
<g id="edge55" class="edge">
<title>room_121&#45;&gt;room_123</title>
<path fill="none" stroke="black" d="M513.34,-1019.07C499.86,-993.35 469.56,-946.13 448.07,-916.77"/>
<polygon fill="black" stroke="black" points="450.78,-914.55 441.99,-908.64 445.18,-918.74 450.78,-914.55"/>
<text text-anchor="middle" x="477.6" y="-970.72" font-family="Times,serif" font-size="14.00">e</text>
</g>
<!-- room_121&#45;&gt;room_120 -->
<g id="edge54" class="edge">
<title>room_121&#45;&gt;room_120</title>
<path fill="none" stroke="black" d="M478.8,-1050.84C459.52,-1059.66 436.95,-1071.14 419.22,-1081.17"/>
<polygon fill="black" stroke="black" points="417.34,-1078.22 410.44,-1086.26 420.85,-1084.27 417.34,-1078.22"/>
<text text-anchor="middle" x="445.51" y="-1068.8" font-family="Times,serif" font-size="14.00">n</text>
</g>
<!-- room_122 -->
<g id="node32" class="node">
<title>room_122</title>
<ellipse fill="none" stroke="black" cx="683.48" cy="-1019.95" rx="66.88" ry="18"/>
<text text-anchor="middle" x="683.48" y="-1015.75" font-family="Times,serif" font-size="14.00">Tower of Winds</text>
</g>
<!-- room_121&#45;&gt;room_122 -->
<g id="edge56" class="edge">
<title>room_121&#45;&gt;room_122</title>
<path fill="none" stroke="black" d="M583.33,-1037.05C596.15,-1035.94 609.61,-1034.52 622.35,-1032.95"/>
<polygon fill="black" stroke="black" points="622.92,-1036.41 632.39,-1031.66 622.03,-1029.46 622.92,-1036.41"/>
<text text-anchor="middle" x="599.34" y="-1037.8" font-family="Times,serif" font-size="14.00">d</text>
</g>
<!-- room_122&#45;&gt;room_121 -->
<g id="edge58" class="edge">
<title>room_122&#45;&gt;room_121</title>
<path fill="none" stroke="black" d="M616.23,-1020.31C603.91,-1021.42 591.13,-1022.8 579.07,-1024.31"/>
<polygon fill="black" stroke="black" points="578.58,-1020.85 569.12,-1025.61 579.49,-1027.79 578.58,-1020.85"/>
<text text-anchor="middle" x="594.15" y="-1011.11" font-family="Times,serif" font-size="14.00">u</text>
</g>
<!-- room_122&#45;&gt;room_131 -->
<g id="edge57" class="edge">
<title>room_122&#45;&gt;room_131</title>
<path fill="none" stroke="black" d="M707.08,-1002.87C729.22,-982.57 761.66,-948.73 781.49,-925.27"/>
<polygon fill="black" stroke="black" points="784.28,-927.39 787.95,-917.45 778.88,-922.94 784.28,-927.39"/>
<text text-anchor="middle" x="740.78" y="-966.87" font-family="Times,serif" font-size="14.00">n</text>
</g>
<!-- room_131&#45;&gt;room_130 -->
<g id="edge75" class="edge">
<title>room_131&#45;&gt;room_130</title>
<path fill="none" stroke="black" d="M807.13,-881.42C815.59,-853.8 826.81,-800.9 831.39,-767.98"/>
<polygon fill="black" stroke="black" points="834.91,-768.01 832.67,-757.65 827.96,-767.14 834.91,-768.01"/>
<text text-anchor="middle" x="815.76" y="-827.5" font-family="Times,serif" font-size="14.00">n</text>
</g>
<!-- room_131&#45;&gt;room_122 -->
<g id="edge76" class="edge">
<title>room_131&#45;&gt;room_122</title>
<path fill="none" stroke="black" d="M774.85,-916.85C752.67,-937.2 720.36,-970.93 700.62,-994.29"/>
<polygon fill="black" stroke="black" points="697.85,-992.14 694.2,-1002.09 703.26,-996.59 697.85,-992.14"/>
<text text-anchor="middle" x="735.01" y="-958.37" font-family="Times,serif" font-size="14.00">s</text>
</g>
<!-- room_127&#45;&gt;room_126 -->
<g id="edge67" class="edge">
<title>room_127&#45;&gt;room_126</title>
<path fill="none" stroke="black" d="M853.46,-425.88C849.44,-425.98 845.38,-426.1 841.32,-426.23"/>
<polygon fill="black" stroke="black" points="841.11,-422.74 831.25,-426.62 841.38,-429.73 841.11,-422.74"/>
<text text-anchor="middle" x="847.39" y="-414.86" font-family="Times,serif" font-size="14.00">n</text>
</g>
<!-- room_561 -->
<g id="node35" class="node">
<title>room_561</title>
<ellipse fill="none" stroke="black" cx="1103.76" cy="-407.13" rx="92.24" ry="18"/>
<text text-anchor="middle" x="1103.76" y="-402.93" font-family="Times,serif" font-size="14.00">Realm of Dark Dreams</text>
</g>
<!-- room_127&#45;&gt;room_561 -->
<g id="edge68" class="edge">
<title>room_127&#45;&gt;room_561</title>
<path fill="none" stroke="black" d="M1002.32,-427.06C1013.26,-425.76 1024.48,-424.28 1035.29,-422.71"/>
<polygon fill="black" stroke="black" points="1036.12,-426.12 1045.5,-421.18 1035.09,-419.2 1036.12,-426.12"/>
<text text-anchor="middle" x="1015.3" y="-427.68" font-family="Times,serif" font-size="14.00">u</text>
</g>
<!-- room_561&#45;&gt;room_127 -->
<g id="edge81" class="edge">
<title>room_561&#45;&gt;room_127</title>
<path fill="none" stroke="black" d="M1014.48,-411.94C1006.14,-413.03 997.82,-414.2 989.81,-415.4"/>
<polygon fill="black" stroke="black" points="989.19,-411.96 979.85,-416.95 990.27,-418.87 989.19,-411.96"/>
<text text-anchor="middle" x="1005.64" y="-402.47" font-family="Times,serif" font-size="14.00">d</text>
</g>
<!-- room_562 -->
<g id="node36" class="node">
<title>room_562</title>
<ellipse fill="none" stroke="black" cx="1270.57" cy="-381.3" rx="66.19" ry="18"/>
<text text-anchor="middle" x="1270.57" y="-377.1" font-family="Times,serif" font-size="14.00">Fire in the Dark</text>
</g>
<!-- room_561&#45;&gt;room_562 -->
<g id="edge80" class="edge">
<title>room_561&#45;&gt;room_562</title>
<path fill="none" stroke="black" d="M1190.15,-400.58C1198.6,-399.26 1207.02,-397.85 1215.04,-396.4"/>
<polygon fill="black" stroke="black" points="1215.77,-399.83 1224.97,-394.56 1214.5,-392.94 1215.77,-399.83"/>
<text text-anchor="middle" x="1200.85" y="-387.29" font-family="Times,serif" font-size="14.00">n</text>
</g>
<!-- room_562&#45;&gt;room_561 -->
<g id="edge82" class="edge">
<title>room_562&#45;&gt;room_561</title>
<path fill="none" stroke="black" d="M1205.07,-384.77C1192.65,-386.48 1179.67,-388.49 1167.3,-390.61"/>
<polygon fill="black" stroke="black" points="1166.33,-387.23 1157.09,-392.42 1167.55,-394.13 1166.33,-387.23"/>
<text text-anchor="middle" x="1183.46" y="-376.49" font-family="Times,serif" font-size="14.00">s</text>
</g>
</g>
</svg>
