<?xml version="1.0" encoding="UTF-8" standalone="no"?>
<!DOCTYPE svg PUBLIC "-//W3C//DTD SVG 1.1//EN"
 "http://www.w3.org/Graphics/SVG/1.1/DTD/svg11.dtd">
<!-- Generated by graphviz version 2.42.3 (20191010.1750)
 -->
<!-- Title: monster Pages: 1 -->
<svg width="1030pt" height="1130pt"
 viewBox="0.00 0.00 1030.41 1130.43" xmlns="http://www.w3.org/2000/svg" xmlns:xlink="http://www.w3.org/1999/xlink">
<g id="graph0" class="graph" transform="scale(1 1) rotate(0) translate(4 1126.43)">
<title>monster</title>
<polygon fill="white" stroke="transparent" points="-4,4 -4,-1126.43 1026.41,-1126.43 1026.41,4 -4,4"/>
<!-- room_563 -->
<g id="node1" class="node">
<title>room_563</title>
<ellipse fill="none" stroke="black" cx="564.97" cy="-103.27" rx="67.18" ry="18"/>
<text text-anchor="middle" x="564.97" y="-99.07" font-family="Times,serif" font-size="14.00">Mholask Ilurum</text>
</g>
<!-- room_564 -->
<g id="node2" class="node">
<title>room_564</title>
<ellipse fill="none" stroke="black" cx="561.94" cy="-201.41" rx="66.69" ry="18"/>
<text text-anchor="middle" x="561.94" y="-197.21" font-family="Times,serif" font-size="14.00">Jhurvali Oporus</text>
</g>
<!-- room_563&#45;&gt;room_564 -->
<g id="edge1" class="edge">
<title>room_563&#45;&gt;room_564</title>
<path fill="none" stroke="black" d="M558.99,-121.56C557.07,-136 556.18,-156.4 556.64,-172.96"/>
<polygon fill="black" stroke="black" points="553.15,-173.38 557.13,-183.2 560.14,-173.04 553.15,-173.38"/>
<text text-anchor="middle" x="554.7" y="-150.06" font-family="Times,serif" font-size="14.00">e</text>
</g>
<!-- room_564&#45;&gt;room_563 -->
<g id="edge3" class="edge">
<title>room_564&#45;&gt;room_563</title>
<path fill="none" stroke="black" d="M567.92,-183.11C569.84,-168.67 570.72,-148.27 570.27,-131.71"/>
<polygon fill="black" stroke="black" points="573.75,-131.3 569.78,-121.48 566.76,-131.63 573.75,-131.3"/>
<text text-anchor="middle" x="564.04" y="-160.21" font-family="Times,serif" font-size="14.00">w</text>
</g>
<!-- room_617 -->
<g id="node3" class="node">
<title>room_617</title>
<ellipse fill="none" stroke="black" cx="730.17" cy="-257.5" rx="53.19" ry="18"/>
<text text-anchor="middle" x="730.17" y="-253.3" font-family="Times,serif" font-size="14.00">Damp Steps</text>
</g>
<!-- room_564&#45;&gt;room_617 -->
<g id="edge2" class="edge">
<title>room_564&#45;&gt;room_617</title>
<path fill="none" stroke="black" d="M592.65,-217.4C615.44,-226.42 647.13,-237.3 674.36,-245.58"/>
<polygon fill="black" stroke="black" points="673.58,-249 684.16,-248.51 675.58,-242.29 673.58,-249"/>
<text text-anchor="middle" x="630.4" y="-234.29" font-family="Times,serif" font-size="14.00">e</text>
</g>
<!-- room_617&#45;&gt;room_564 -->
<g id="edge13" class="edge">
<title>room_617&#45;&gt;room_564</title>
<path fill="none" stroke="black" d="M701.39,-242.28C680.31,-233.85 650.9,-223.63 624.52,-215.41"/>
<polygon fill="black" stroke="black" points="625.54,-212.07 614.96,-212.48 623.49,-218.76 625.54,-212.07"/>
<text text-anchor="middle" x="657.9" y="-231.65" font-family="Times,serif" font-size="14.00">w</text>
</g>
<!-- room_616 -->
<g id="node8" class="node">
<title>room_616</title>
<ellipse fill="none" stroke="black" cx="870.04" cy="-164.54" rx="67.08" ry="18"/>
<text text-anchor="middle" x="870.04" y="-160.34" font-family="Times,serif" font-size="14.00">Old Tower Base</text>
</g>
<!-- room_617&#45;&gt;room_616 -->
<g id="edge14" class="edge">
<title>room_617&#45;&gt;room_616</title>
<path fill="none" stroke="black" d="M762.24,-242.9C787.19,-228.18 821.28,-205.51 844.43,-188.26"/>
<polygon fill="black" stroke="black" points="846.59,-191.01 852.42,-182.17 842.35,-185.44 846.59,-191.01"/>
<text text-anchor="middle" x="799.84" y="-218.38" font-family="Times,serif" font-size="14.00">u</text>
</g>
<!-- room_620 -->
<g id="node9" class="node">
<title>room_620</title>
<ellipse fill="none" stroke="black" cx="715.74" cy="-171.62" rx="78.81" ry="18"/>
<text text-anchor="middle" x="715.74" y="-167.42" font-family="Times,serif" font-size="14.00">Well of Lost Hopes</text>
</g>
<!-- room_617&#45;&gt;room_620 -->
<g id="edge10" class="edge">
<title>room_617&#45;&gt;room_620</title>
<path fill="none" stroke="black" d="M732.72,-239.2C732.02,-227.63 729.76,-212.45 726.91,-199.41"/>
<polygon fill="black" stroke="black" points="730.28,-198.42 724.53,-189.52 723.47,-200.06 730.28,-198.42"/>
<text text-anchor="middle" x="726.32" y="-222.11" font-family="Times,serif" font-size="14.00">n</text>
</g>
<!-- room_619 -->
<g id="node10" class="node">
<title>room_619</title>
<ellipse fill="none" stroke="black" cx="857.06" cy="-254.15" rx="64.33" ry="18"/>
<text text-anchor="middle" x="857.06" y="-249.95" font-family="Times,serif" font-size="14.00">Well of Sorrow</text>
</g>
<!-- room_617&#45;&gt;room_619 -->
<g id="edge11" class="edge">
<title>room_617&#45;&gt;room_619</title>
<path fill="none" stroke="black" d="M781.22,-262.79C783.97,-262.77 786.76,-262.73 789.55,-262.67"/>
<polygon fill="black" stroke="black" points="789.77,-266.17 799.67,-262.39 789.58,-259.17 789.77,-266.17"/>
<text text-anchor="middle" x="788.11" y="-265.53" font-family="Times,serif" font-size="14.00">s</text>
</g>
<!-- room_618 -->
<g id="node11" class="node">
<title>room_618</title>
<ellipse fill="none" stroke="black" cx="835.4" cy="-310.48" rx="65.28" ry="18"/>
<text text-anchor="middle" x="835.4" y="-306.28" font-family="Times,serif" font-size="14.00">Well of Regrets</text>
</g>
<!-- room_617&#45;&gt;room_618 -->
<g id="edge12" class="edge">
<title>room_617&#45;&gt;room_618</title>
<path fill="none" stroke="black" d="M750.7,-274.22C760.37,-279.98 772.36,-286.4 784.25,-292.26"/>
<polygon fill="black" stroke="black" points="782.75,-295.43 793.28,-296.61 785.79,-289.12 782.75,-295.43"/>
<text text-anchor="middle" x="764.37" y="-286.04" font-family="Times,serif" font-size="14.00">e</text>
</g>
<!-- room_621 -->
<g id="node12" class="node">
<title>room_621</title>
<ellipse fill="none" stroke="black" cx="682.38" cy="-358.68" rx="48.86" ry="18"/>
<text text-anchor="middle" x="682.38" y="-354.48" font-family="Times,serif" font-size="14.00">Cold Steps</text>
</g>
<!-- room_617&#45;&gt;room_621 -->
<g id="edge15" class="edge">
<title>room_617&#45;&gt;room_621</title>
<path fill="none" stroke="black" d="M715.75,-275.14C706.85,-290.49 696.08,-312.93 689.02,-330.71"/>
<polygon fill="black" stroke="black" points="685.56,-329.96 685.33,-340.55 692.11,-332.42 685.56,-329.96"/>
<text text-anchor="middle" x="698.88" y="-305.73" font-family="Times,serif" font-size="14.00">d</text>
</g>
<!-- room_582 -->
<g id="node4" class="node">
<title>room_582</title>
<ellipse fill="none" stroke="black" cx="902.93" cy="-745.77" rx="77.53" ry="18"/>
<text text-anchor="middle" x="902.93" y="-741.57" font-family="Times,serif" font-size="14.00">Frognar&#39;s Chamber</text>
</g>
<!-- room_629 -->
<g id="node5" class="node">
<title>room_629</title>
<ellipse fill="none" stroke="black" cx="762.43" cy="-727.87" rx="54.87" ry="18"/>
<text text-anchor="middle" x="762.43" y="-723.67" font-family="Times,serif" font-size="14.00">Higett&#39;s Hall</text>
</g>
<!-- room_582&#45;&gt;room_629 -->
<g id="edge4" class="edge">
<title>room_582&#45;&gt;room_629</title>
<path fill="none" stroke="black" d="M850.24,-732.43C842.82,-731.32 835.12,-730.29 827.5,-729.38"/>
<polygon fill="black" stroke="black" points="827.9,-725.9 817.56,-728.25 827.1,-732.86 827.9,-725.9"/>
<text text-anchor="middle" x="835.77" y="-719.7" font-family="Times,serif" font-size="14.00">e</text>
</g>
<!-- room_629&#45;&gt;room_582 -->
<g id="edge43" class="edge">
<title>room_629&#45;&gt;room_582</title>
<path fill="none" stroke="black" d="M804.18,-739.5C808,-740.13 811.96,-740.75 816,-741.34"/>
<polygon fill="black" stroke="black" points="815.77,-744.85 826.17,-742.77 816.75,-737.91 815.77,-744.85"/>
<text text-anchor="middle" x="815.14" y="-743.22" font-family="Times,serif" font-size="14.00">w</text>
</g>
<!-- room_629&#45;&gt;room_629 -->
<g id="edge44" class="edge">
<title>room_629&#45;&gt;room_629</title>
<path fill="none" stroke="black" d="M813.38,-734.51C825.84,-734.02 835.11,-731.81 835.11,-727.87 835.11,-725.1 830.53,-723.18 823.47,-722.12"/>
<polygon fill="black" stroke="black" points="823.65,-718.62 813.38,-721.22 823.03,-725.59 823.65,-718.62"/>
<text text-anchor="middle" x="838.61" y="-723.67" font-family="Times,serif" font-size="14.00">d</text>
</g>
<!-- room_628 -->
<g id="node17" class="node">
<title>room_628</title>
<ellipse fill="none" stroke="black" cx="618.4" cy="-742.65" rx="81.16" ry="18"/>
<text text-anchor="middle" x="618.4" y="-738.45" font-family="Times,serif" font-size="14.00">Dungeons of Solace</text>
</g>
<!-- room_629&#45;&gt;room_628 -->
<g id="edge42" class="edge">
<title>room_629&#45;&gt;room_628</title>
<path fill="none" stroke="black" d="M707.72,-726.89C700.84,-727.45 693.74,-728.11 686.68,-728.86"/>
<polygon fill="black" stroke="black" points="685.96,-725.42 676.41,-730.02 686.74,-732.38 685.96,-725.42"/>
<text text-anchor="middle" x="700.7" y="-716.68" font-family="Times,serif" font-size="14.00">n</text>
</g>
<!-- room_614 -->
<g id="node6" class="node">
<title>room_614</title>
<ellipse fill="none" stroke="black" cx="913.65" cy="-96.86" rx="78.29" ry="18"/>
<text text-anchor="middle" x="913.65" y="-92.66" font-family="Times,serif" font-size="14.00">Cobbled Courtyard</text>
</g>
<!-- room_615 -->
<g id="node7" class="node">
<title>room_615</title>
<ellipse fill="none" stroke="black" cx="961.46" cy="-18" rx="60.9" ry="18"/>
<text text-anchor="middle" x="961.46" y="-13.8" font-family="Times,serif" font-size="14.00">Chapel Stones</text>
</g>
<!-- room_614&#45;&gt;room_615 -->
<g id="edge5" class="edge">
<title>room_614&#45;&gt;room_615</title>
<path fill="none" stroke="black" d="M931.36,-79.26C938.47,-69.24 946.28,-56.5 952.28,-45.22"/>
<polygon fill="black" stroke="black" points="955.46,-46.69 956.83,-36.19 949.21,-43.54 955.46,-46.69"/>
<text text-anchor="middle" x="938.32" y="-65.04" font-family="Times,serif" font-size="14.00">n</text>
</g>
<!-- room_614&#45;&gt;room_616 -->
<g id="edge6" class="edge">
<title>room_614&#45;&gt;room_616</title>
<path fill="none" stroke="black" d="M894.79,-114.49C889.59,-121.56 884.2,-129.84 879.7,-137.62"/>
<polygon fill="black" stroke="black" points="876.62,-135.97 874.91,-146.43 882.76,-139.32 876.62,-135.97"/>
<text text-anchor="middle" x="884.14" y="-128.86" font-family="Times,serif" font-size="14.00">e</text>
</g>
<!-- room_615&#45;&gt;room_614 -->
<g id="edge7" class="edge">
<title>room_615&#45;&gt;room_614</title>
<path fill="none" stroke="black" d="M943.75,-35.6C936.64,-45.62 928.82,-58.36 922.83,-69.63"/>
<polygon fill="black" stroke="black" points="919.65,-68.17 918.27,-78.67 925.9,-71.32 919.65,-68.17"/>
<text text-anchor="middle" x="930.56" y="-55.42" font-family="Times,serif" font-size="14.00">s</text>
</g>
<!-- room_616&#45;&gt;room_617 -->
<g id="edge9" class="edge">
<title>room_616&#45;&gt;room_617</title>
<path fill="none" stroke="black" d="M836.19,-180.19C811.28,-195.01 778.02,-217.18 755.41,-234.06"/>
<polygon fill="black" stroke="black" points="753.13,-231.4 747.3,-240.25 757.38,-236.97 753.13,-231.4"/>
<text text-anchor="middle" x="792.3" y="-209.93" font-family="Times,serif" font-size="14.00">d</text>
</g>
<!-- room_616&#45;&gt;room_614 -->
<g id="edge8" class="edge">
<title>room_616&#45;&gt;room_614</title>
<path fill="none" stroke="black" d="M888.9,-146.91C894.09,-139.84 899.49,-131.56 903.99,-123.77"/>
<polygon fill="black" stroke="black" points="907.07,-125.43 908.78,-114.97 900.93,-122.08 907.07,-125.43"/>
<text text-anchor="middle" x="901.5" y="-124.14" font-family="Times,serif" font-size="14.00">w</text>
</g>
<!-- room_620&#45;&gt;room_617 -->
<g id="edge18" class="edge">
<title>room_620&#45;&gt;room_617</title>
<path fill="none" stroke="black" d="M713.19,-189.92C713.89,-201.49 716.15,-216.67 718.99,-229.71"/>
<polygon fill="black" stroke="black" points="715.63,-230.7 721.38,-239.6 722.44,-229.06 715.63,-230.7"/>
<text text-anchor="middle" x="713.37" y="-212.61" font-family="Times,serif" font-size="14.00">s</text>
</g>
<!-- room_619&#45;&gt;room_617 -->
<g id="edge17" class="edge">
<title>room_619&#45;&gt;room_617</title>
<path fill="none" stroke="black" d="M795.29,-249.03C792.93,-249.09 790.57,-249.16 788.22,-249.24"/>
<polygon fill="black" stroke="black" points="787.85,-245.75 778,-249.67 788.14,-252.74 787.85,-245.75"/>
<text text-anchor="middle" x="788.25" y="-237.94" font-family="Times,serif" font-size="14.00">n</text>
</g>
<!-- room_618&#45;&gt;room_617 -->
<g id="edge16" class="edge">
<title>room_618&#45;&gt;room_617</title>
<path fill="none" stroke="black" d="M814.11,-293.31C803.75,-287.17 790.85,-280.33 778.29,-274.24"/>
<polygon fill="black" stroke="black" points="779.79,-271.08 769.25,-269.96 776.79,-277.4 779.79,-271.08"/>
<text text-anchor="middle" x="796.2" y="-272.58" font-family="Times,serif" font-size="14.00">w</text>
</g>
<!-- room_621&#45;&gt;room_617 -->
<g id="edge19" class="edge">
<title>room_621&#45;&gt;room_617</title>
<path fill="none" stroke="black" d="M696.8,-341.04C705.7,-325.7 716.47,-303.25 723.53,-285.47"/>
<polygon fill="black" stroke="black" points="726.99,-286.22 727.22,-275.63 720.44,-283.77 726.99,-286.22"/>
<text text-anchor="middle" x="706.67" y="-316.06" font-family="Times,serif" font-size="14.00">u</text>
</g>
<!-- room_622 -->
<g id="node13" class="node">
<title>room_622</title>
<ellipse fill="none" stroke="black" cx="661.8" cy="-457" rx="59.43" ry="18"/>
<text text-anchor="middle" x="661.8" y="-452.8" font-family="Times,serif" font-size="14.00">Dark Landing</text>
</g>
<!-- room_621&#45;&gt;room_622 -->
<g id="edge20" class="edge">
<title>room_621&#45;&gt;room_622</title>
<path fill="none" stroke="black" d="M673.07,-376.52C668.53,-391.05 663.96,-411.83 661.5,-428.63"/>
<polygon fill="black" stroke="black" points="657.97,-428.64 660.21,-439 664.91,-429.51 657.97,-428.64"/>
<text text-anchor="middle" x="663.78" y="-405.38" font-family="Times,serif" font-size="14.00">d</text>
</g>
<!-- room_622&#45;&gt;room_621 -->
<g id="edge22" class="edge">
<title>room_622&#45;&gt;room_621</title>
<path fill="none" stroke="black" d="M671.11,-439.16C675.65,-424.63 680.22,-403.86 682.68,-387.05"/>
<polygon fill="black" stroke="black" points="686.21,-387.04 683.97,-376.69 679.26,-386.18 686.21,-387.04"/>
<text text-anchor="middle" x="673.39" y="-415.91" font-family="Times,serif" font-size="14.00">u</text>
</g>
<!-- room_623 -->
<g id="node14" class="node">
<title>room_623</title>
<ellipse fill="none" stroke="black" cx="623.74" cy="-554.6" rx="59.44" ry="18"/>
<text text-anchor="middle" x="623.74" y="-550.4" font-family="Times,serif" font-size="14.00">Dank Passage</text>
</g>
<!-- room_622&#45;&gt;room_623 -->
<g id="edge21" class="edge">
<title>room_622&#45;&gt;room_623</title>
<path fill="none" stroke="black" d="M648.92,-474.74C641.73,-489.26 633.47,-510.02 628.13,-526.75"/>
<polygon fill="black" stroke="black" points="624.71,-525.97 625.22,-536.55 631.42,-527.96 624.71,-525.97"/>
<text text-anchor="middle" x="635.42" y="-503.54" font-family="Times,serif" font-size="14.00">e</text>
</g>
<!-- room_623&#45;&gt;room_622 -->
<g id="edge24" class="edge">
<title>room_623&#45;&gt;room_622</title>
<path fill="none" stroke="black" d="M636.61,-536.87C643.8,-522.35 652.07,-501.58 657.4,-484.85"/>
<polygon fill="black" stroke="black" points="660.82,-485.63 660.31,-475.05 654.11,-483.64 660.82,-485.63"/>
<text text-anchor="middle" x="652.06" y="-513.66" font-family="Times,serif" font-size="14.00">w</text>
</g>
<!-- room_624 -->
<g id="node15" class="node">
<title>room_624</title>
<ellipse fill="none" stroke="black" cx="549.78" cy="-648.65" rx="68.89" ry="18"/>
<text text-anchor="middle" x="549.78" y="-644.45" font-family="Times,serif" font-size="14.00">Ghantriak&#39;s Trap</text>
</g>
<!-- room_623&#45;&gt;room_624 -->
<g id="edge23" class="edge">
<title>room_623&#45;&gt;room_624</title>
<path fill="none" stroke="black" d="M603.23,-571.5C590.4,-585.61 574.38,-605.87 563.15,-622.13"/>
<polygon fill="black" stroke="black" points="560.08,-620.42 557.45,-630.68 565.91,-624.3 560.08,-620.42"/>
<text text-anchor="middle" x="580.08" y="-599.61" font-family="Times,serif" font-size="14.00">e</text>
</g>
<!-- room_624&#45;&gt;room_623 -->
<g id="edge28" class="edge">
<title>room_624&#45;&gt;room_623</title>
<path fill="none" stroke="black" d="M570.69,-631.31C583.43,-617.24 599.21,-597.26 610.33,-581.19"/>
<polygon fill="black" stroke="black" points="613.34,-582.98 615.97,-572.72 607.51,-579.1 613.34,-582.98"/>
<text text-anchor="middle" x="595.56" y="-609.05" font-family="Times,serif" font-size="14.00">w</text>
</g>
<!-- room_625 -->
<g id="node16" class="node">
<title>room_625</title>
<ellipse fill="none" stroke="black" cx="447.61" cy="-733.5" rx="81.16" ry="18"/>
<text text-anchor="middle" x="447.61" y="-729.3" font-family="Times,serif" font-size="14.00">Dungeons of Solace</text>
</g>
<!-- room_624&#45;&gt;room_625 -->
<g id="edge25" class="edge">
<title>room_624&#45;&gt;room_625</title>
<path fill="none" stroke="black" d="M520.74,-665.07C504.02,-677.49 483.44,-694.61 468.34,-708.67"/>
<polygon fill="black" stroke="black" points="465.79,-706.26 460.99,-715.7 470.63,-711.32 465.79,-706.26"/>
<text text-anchor="middle" x="491.04" y="-689.67" font-family="Times,serif" font-size="14.00">n</text>
</g>
<!-- room_624&#45;&gt;room_628 -->
<g id="edge26" class="edge">
<title>room_624&#45;&gt;room_628</title>
<path fill="none" stroke="black" d="M556.68,-666.77C565.08,-681.09 579.24,-701.17 591.95,-717.11"/>
<polygon fill="black" stroke="black" points="589.38,-719.49 598.43,-725.01 594.8,-715.06 589.38,-719.49"/>
<text text-anchor="middle" x="571.59" y="-694.74" font-family="Times,serif" font-size="14.00">s</text>
</g>
<!-- room_634 -->
<g id="node18" class="node">
<title>room_634</title>
<ellipse fill="none" stroke="black" cx="465.16" cy="-573.35" rx="60.9" ry="18"/>
<text text-anchor="middle" x="465.16" y="-569.15" font-family="Times,serif" font-size="14.00">Hall of Frobar</text>
</g>
<!-- room_624&#45;&gt;room_634 -->
<g id="edge27" class="edge">
<title>room_624&#45;&gt;room_634</title>
<path fill="none" stroke="black" d="M537.83,-630.83C528.09,-620.45 513.96,-607.35 500.72,-596.24"/>
<polygon fill="black" stroke="black" points="502.59,-593.25 492.63,-589.62 498.15,-598.66 502.59,-593.25"/>
<text text-anchor="middle" x="516.16" y="-616.33" font-family="Times,serif" font-size="14.00">e</text>
</g>
<!-- room_625&#45;&gt;room_624 -->
<g id="edge30" class="edge">
<title>room_625&#45;&gt;room_624</title>
<path fill="none" stroke="black" d="M477.19,-716.67C493.8,-704.3 514.07,-687.43 529,-673.53"/>
<polygon fill="black" stroke="black" points="531.47,-676.01 536.28,-666.57 526.63,-670.95 531.47,-676.01"/>
<text text-anchor="middle" x="500.37" y="-697.9" font-family="Times,serif" font-size="14.00">s</text>
</g>
<!-- room_625&#45;&gt;room_625 -->
<g id="edge32" class="edge">
<title>room_625&#45;&gt;room_625</title>
<path fill="none" stroke="black" d="M523.82,-739.85C537.43,-739.03 546.93,-736.91 546.93,-733.5 546.93,-731.02 541.92,-729.23 533.95,-728.11"/>
<polygon fill="black" stroke="black" points="534.1,-724.61 523.82,-727.15 533.44,-731.58 534.1,-724.61"/>
<text text-anchor="middle" x="550.43" y="-729.3" font-family="Times,serif" font-size="14.00">u</text>
</g>
<!-- room_626 -->
<g id="node19" class="node">
<title>room_626</title>
<ellipse fill="none" stroke="black" cx="346.99" cy="-673.52" rx="55.57" ry="18"/>
<text text-anchor="middle" x="346.99" y="-669.32" font-family="Times,serif" font-size="14.00">Tyviar&#39;s Hall</text>
</g>
<!-- room_625&#45;&gt;room_626 -->
<g id="edge29" class="edge">
<title>room_625&#45;&gt;room_626</title>
<path fill="none" stroke="black" d="M429.15,-715.94C418.59,-708.52 404.86,-699.94 391.66,-692.41"/>
<polygon fill="black" stroke="black" points="393.09,-689.19 382.65,-687.38 389.68,-695.31 393.09,-689.19"/>
<text text-anchor="middle" x="406.91" y="-692.97" font-family="Times,serif" font-size="14.00">n</text>
</g>
<!-- room_635 -->
<g id="node20" class="node">
<title>room_635</title>
<ellipse fill="none" stroke="black" cx="296.72" cy="-764.23" rx="61.38" ry="18"/>
<text text-anchor="middle" x="296.72" y="-760.03" font-family="Times,serif" font-size="14.00">Long Corridor</text>
</g>
<!-- room_625&#45;&gt;room_635 -->
<g id="edge31" class="edge">
<title>room_625&#45;&gt;room_635</title>
<path fill="none" stroke="black" d="M374.35,-741.54C364.54,-743.5 354.67,-745.63 345.42,-747.79"/>
<polygon fill="black" stroke="black" points="344.56,-744.39 335.65,-750.13 346.19,-751.2 344.56,-744.39"/>
<text text-anchor="middle" x="356.78" y="-733.46" font-family="Times,serif" font-size="14.00">e</text>
</g>
<!-- room_628&#45;&gt;room_629 -->
<g id="edge39" class="edge">
<title>room_628&#45;&gt;room_629</title>
<path fill="none" stroke="black" d="M699.52,-741.07C702.6,-740.72 705.66,-740.36 708.67,-739.99"/>
<polygon fill="black" stroke="black" points="709.23,-743.45 718.69,-738.68 708.32,-736.5 709.23,-743.45"/>
<text text-anchor="middle" x="704.1" y="-729.33" font-family="Times,serif" font-size="14.00">s</text>
</g>
<!-- room_628&#45;&gt;room_624 -->
<g id="edge38" class="edge">
<title>room_628&#45;&gt;room_624</title>
<path fill="none" stroke="black" d="M611.51,-724.53C603.05,-710.11 588.75,-689.86 575.98,-673.88"/>
<polygon fill="black" stroke="black" points="578.53,-671.47 569.48,-665.96 573.12,-675.91 578.53,-671.47"/>
<text text-anchor="middle" x="590.24" y="-702" font-family="Times,serif" font-size="14.00">n</text>
</g>
<!-- room_628&#45;&gt;room_625 -->
<g id="edge41" class="edge">
<title>room_628&#45;&gt;room_625</title>
<path fill="none" stroke="black" d="M539,-738.4C538.24,-738.36 537.47,-738.31 536.7,-738.27"/>
<polygon fill="black" stroke="black" points="536.88,-734.78 526.7,-737.74 536.5,-741.77 536.88,-734.78"/>
<text text-anchor="middle" x="534.35" y="-741.14" font-family="Times,serif" font-size="14.00">d</text>
</g>
<!-- room_630 -->
<g id="node22" class="node">
<title>room_630</title>
<ellipse fill="none" stroke="black" cx="718" cy="-831.64" rx="84.71" ry="18"/>
<text text-anchor="middle" x="718" y="-827.44" font-family="Times,serif" font-size="14.00">Chamber of Drassoff</text>
</g>
<!-- room_628&#45;&gt;room_630 -->
<g id="edge40" class="edge">
<title>room_628&#45;&gt;room_630</title>
<path fill="none" stroke="black" d="M631,-760.76C643.83,-774.42 664.16,-793.13 681.96,-807.95"/>
<polygon fill="black" stroke="black" points="679.97,-810.84 689.93,-814.45 684.4,-805.42 679.97,-810.84"/>
<text text-anchor="middle" x="653.37" y="-787.16" font-family="Times,serif" font-size="14.00">e</text>
</g>
<!-- room_634&#45;&gt;room_624 -->
<g id="edge57" class="edge">
<title>room_634&#45;&gt;room_624</title>
<path fill="none" stroke="black" d="M477.12,-591.17C486.78,-601.47 500.77,-614.46 513.93,-625.52"/>
<polygon fill="black" stroke="black" points="512.02,-628.47 521.97,-632.11 516.46,-623.06 512.02,-628.47"/>
<text text-anchor="middle" x="490.47" y="-611.14" font-family="Times,serif" font-size="14.00">w</text>
</g>
<!-- room_634&#45;&gt;room_634 -->
<g id="edge58" class="edge">
<title>room_634&#45;&gt;room_634</title>
<path fill="none" stroke="black" d="M521.75,-579.94C534.52,-579.34 543.86,-577.15 543.86,-573.35 543.86,-570.68 539.24,-568.8 532.06,-567.72"/>
<polygon fill="black" stroke="black" points="532.03,-564.2 521.75,-566.77 531.39,-571.17 532.03,-564.2"/>
<text text-anchor="middle" x="547.36" y="-569.15" font-family="Times,serif" font-size="14.00">d</text>
</g>
<!-- room_633 -->
<g id="node26" class="node">
<title>room_633</title>
<ellipse fill="none" stroke="black" cx="370.8" cy="-504.07" rx="61.86" ry="18"/>
<text text-anchor="middle" x="370.8" y="-499.87" font-family="Times,serif" font-size="14.00">lair of Nystrek</text>
</g>
<!-- room_634&#45;&gt;room_633 -->
<g id="edge56" class="edge">
<title>room_634&#45;&gt;room_633</title>
<path fill="none" stroke="black" d="M450.2,-555.59C439.62,-546.39 424.98,-535.17 411.13,-525.51"/>
<polygon fill="black" stroke="black" points="412.89,-522.47 402.66,-519.72 408.95,-528.25 412.89,-522.47"/>
<text text-anchor="middle" x="427.94" y="-543.35" font-family="Times,serif" font-size="14.00">s</text>
</g>
<!-- room_626&#45;&gt;room_625 -->
<g id="edge33" class="edge">
<title>room_626&#45;&gt;room_625</title>
<path fill="none" stroke="black" d="M364.98,-690.75C374.7,-697.61 387.19,-705.49 399.5,-712.64"/>
<polygon fill="black" stroke="black" points="397.97,-715.79 408.39,-717.69 401.43,-709.71 397.97,-715.79"/>
<text text-anchor="middle" x="379.51" y="-704.49" font-family="Times,serif" font-size="14.00">s</text>
</g>
<!-- room_626&#45;&gt;room_626 -->
<g id="edge35" class="edge">
<title>room_626&#45;&gt;room_626</title>
<path fill="none" stroke="black" d="M398.87,-680.15C411.31,-679.63 420.53,-677.42 420.53,-673.52 420.53,-670.78 415.97,-668.87 408.94,-667.8"/>
<polygon fill="black" stroke="black" points="409.15,-664.3 398.87,-666.89 408.52,-671.27 409.15,-664.3"/>
<text text-anchor="middle" x="424.03" y="-669.32" font-family="Times,serif" font-size="14.00">d</text>
</g>
<!-- room_627 -->
<g id="node21" class="node">
<title>room_627</title>
<ellipse fill="none" stroke="black" cx="250.48" cy="-627.13" rx="55.86" ry="18"/>
<text text-anchor="middle" x="250.48" y="-622.93" font-family="Times,serif" font-size="14.00">Lotrar&#39;s Trap</text>
</g>
<!-- room_626&#45;&gt;room_627 -->
<g id="edge34" class="edge">
<title>room_626&#45;&gt;room_627</title>
<path fill="none" stroke="black" d="M325.7,-656.72C318.24,-652.5 309.53,-648 300.73,-643.79"/>
<polygon fill="black" stroke="black" points="302.12,-640.58 291.58,-639.54 299.17,-646.93 302.12,-640.58"/>
<text text-anchor="middle" x="318.27" y="-639.06" font-family="Times,serif" font-size="14.00">w</text>
</g>
<!-- room_635&#45;&gt;room_625 -->
<g id="edge60" class="edge">
<title>room_635&#45;&gt;room_625</title>
<path fill="none" stroke="black" d="M355.51,-758.97C368.17,-756.64 381.5,-753.91 393.96,-751.08"/>
<polygon fill="black" stroke="black" points="394.79,-754.48 403.73,-748.8 393.2,-747.67 394.79,-754.48"/>
<text text-anchor="middle" x="369.68" y="-757.83" font-family="Times,serif" font-size="14.00">w</text>
</g>
<!-- room_637 -->
<g id="node27" class="node">
<title>room_637</title>
<ellipse fill="none" stroke="black" cx="331.5" cy="-813.18" rx="79.22" ry="18"/>
<text text-anchor="middle" x="331.5" y="-808.98" font-family="Times,serif" font-size="14.00">Chamber of Ippulet</text>
</g>
<!-- room_635&#45;&gt;room_637 -->
<g id="edge59" class="edge">
<title>room_635&#45;&gt;room_637</title>
<path fill="none" stroke="black" d="M301.9,-782.25C302.85,-783.88 303.87,-785.54 304.94,-787.21"/>
<polygon fill="black" stroke="black" points="302.12,-789.28 310.7,-795.49 307.87,-785.28 302.12,-789.28"/>
<text text-anchor="middle" x="300.32" y="-787.53" font-family="Times,serif" font-size="14.00">e</text>
</g>
<!-- room_627&#45;&gt;room_626 -->
<g id="edge36" class="edge">
<title>room_627&#45;&gt;room_626</title>
<path fill="none" stroke="black" d="M271.77,-643.93C279.31,-648.2 288.13,-652.74 297.03,-656.99"/>
<polygon fill="black" stroke="black" points="295.73,-660.25 306.27,-661.28 298.68,-653.9 295.73,-660.25"/>
<text text-anchor="middle" x="281.29" y="-653.26" font-family="Times,serif" font-size="14.00">e</text>
</g>
<!-- room_627&#45;&gt;room_627 -->
<g id="edge37" class="edge">
<title>room_627&#45;&gt;room_627</title>
<path fill="none" stroke="black" d="M302.46,-633.76C314.92,-633.24 324.16,-631.03 324.16,-627.13 324.16,-624.38 319.59,-622.47 312.55,-621.4"/>
<polygon fill="black" stroke="black" points="312.73,-617.91 302.46,-620.49 312.11,-624.88 312.73,-617.91"/>
<text text-anchor="middle" x="327.66" y="-622.93" font-family="Times,serif" font-size="14.00">d</text>
</g>
<!-- room_630&#45;&gt;room_628 -->
<g id="edge46" class="edge">
<title>room_630&#45;&gt;room_628</title>
<path fill="none" stroke="black" d="M705.4,-813.53C692.57,-799.87 672.24,-781.16 654.44,-766.34"/>
<polygon fill="black" stroke="black" points="656.43,-763.45 646.47,-759.84 652,-768.87 656.43,-763.45"/>
<text text-anchor="middle" x="674.86" y="-792.74" font-family="Times,serif" font-size="14.00">w</text>
</g>
<!-- room_630&#45;&gt;room_630 -->
<g id="edge47" class="edge">
<title>room_630&#45;&gt;room_630</title>
<path fill="none" stroke="black" d="M797.59,-837.94C811.18,-837.08 820.6,-834.98 820.6,-831.64 820.6,-829.21 815.63,-827.44 807.7,-826.32"/>
<polygon fill="black" stroke="black" points="807.88,-822.82 797.59,-825.34 807.2,-829.79 807.88,-822.82"/>
<text text-anchor="middle" x="824.1" y="-827.44" font-family="Times,serif" font-size="14.00">d</text>
</g>
<!-- room_631 -->
<g id="node23" class="node">
<title>room_631</title>
<ellipse fill="none" stroke="black" cx="805.43" cy="-904.51" rx="49.82" ry="18"/>
<text text-anchor="middle" x="805.43" y="-900.31" font-family="Times,serif" font-size="14.00">Lost Room</text>
</g>
<!-- room_630&#45;&gt;room_631 -->
<g id="edge45" class="edge">
<title>room_630&#45;&gt;room_631</title>
<path fill="none" stroke="black" d="M730.98,-849.5C741.23,-859.69 755.93,-872.43 769.59,-883.12"/>
<polygon fill="black" stroke="black" points="767.84,-886.19 777.91,-889.48 772.09,-880.62 767.84,-886.19"/>
<text text-anchor="middle" x="747.56" y="-869.11" font-family="Times,serif" font-size="14.00">s</text>
</g>
<!-- room_631&#45;&gt;room_630 -->
<g id="edge48" class="edge">
<title>room_631&#45;&gt;room_630</title>
<path fill="none" stroke="black" d="M792.83,-887.02C783.16,-877.37 769.39,-865.35 756.27,-854.94"/>
<polygon fill="black" stroke="black" points="758.27,-852.07 748.23,-848.71 753.98,-857.6 758.27,-852.07"/>
<text text-anchor="middle" x="771.05" y="-873.78" font-family="Times,serif" font-size="14.00">n</text>
</g>
<!-- room_631&#45;&gt;room_631 -->
<g id="edge50" class="edge">
<title>room_631&#45;&gt;room_631</title>
<path fill="none" stroke="black" d="M851.6,-911.2C863.83,-910.82 873.09,-908.59 873.09,-904.51 873.09,-901.7 868.71,-899.77 862,-898.72"/>
<polygon fill="black" stroke="black" points="861.86,-895.19 851.6,-897.82 861.26,-902.17 861.86,-895.19"/>
<text text-anchor="middle" x="876.59" y="-900.31" font-family="Times,serif" font-size="14.00">d</text>
</g>
<!-- room_632 -->
<g id="node24" class="node">
<title>room_632</title>
<ellipse fill="none" stroke="black" cx="874.97" cy="-969.53" rx="65.23" ry="18"/>
<text text-anchor="middle" x="874.97" y="-965.33" font-family="Times,serif" font-size="14.00">Lair of Bruniak</text>
</g>
<!-- room_631&#45;&gt;room_632 -->
<g id="edge49" class="edge">
<title>room_631&#45;&gt;room_632</title>
<path fill="none" stroke="black" d="M816.33,-922.41C822.92,-929.82 831.64,-938.46 840.35,-946.33"/>
<polygon fill="black" stroke="black" points="838.12,-949.03 847.95,-952.99 842.74,-943.77 838.12,-949.03"/>
<text text-anchor="middle" x="825.23" y="-937.17" font-family="Times,serif" font-size="14.00">e</text>
</g>
<!-- room_632&#45;&gt;room_631 -->
<g id="edge52" class="edge">
<title>room_632&#45;&gt;room_631</title>
<path fill="none" stroke="black" d="M864.07,-951.63C857.18,-943.88 847.97,-934.8 838.88,-926.66"/>
<polygon fill="black" stroke="black" points="841.17,-924.01 831.32,-920.1 836.57,-929.3 841.17,-924.01"/>
<text text-anchor="middle" x="846.42" y="-927.94" font-family="Times,serif" font-size="14.00">w</text>
</g>
<!-- room_632&#45;&gt;room_632 -->
<g id="edge53" class="edge">
<title>room_632&#45;&gt;room_632</title>
<path fill="none" stroke="black" d="M935.85,-976.06C948.76,-975.4 958.08,-973.22 958.08,-969.53 958.08,-966.94 953.47,-965.09 946.25,-963.99"/>
<polygon fill="black" stroke="black" points="946.14,-960.46 935.85,-963 945.47,-967.43 946.14,-960.46"/>
<text text-anchor="middle" x="961.58" y="-965.33" font-family="Times,serif" font-size="14.00">d</text>
</g>
<!-- room_643 -->
<g id="node25" class="node">
<title>room_643</title>
<ellipse fill="none" stroke="black" cx="943.78" cy="-1032.94" rx="55.17" ry="18"/>
<text text-anchor="middle" x="943.78" y="-1028.74" font-family="Times,serif" font-size="14.00">Well Bottom</text>
</g>
<!-- room_632&#45;&gt;room_643 -->
<g id="edge51" class="edge">
<title>room_632&#45;&gt;room_643</title>
<path fill="none" stroke="black" d="M886.05,-987.47C892.54,-994.64 901.03,-1002.92 909.52,-1010.47"/>
<polygon fill="black" stroke="black" points="907.39,-1013.26 917.25,-1017.14 911.96,-1007.96 907.39,-1013.26"/>
<text text-anchor="middle" x="895.06" y="-1001.77" font-family="Times,serif" font-size="14.00">s</text>
</g>
<!-- room_643&#45;&gt;room_632 -->
<g id="edge81" class="edge">
<title>room_643&#45;&gt;room_632</title>
<path fill="none" stroke="black" d="M932.7,-1015.01C926.44,-1008.09 918.32,-1000.14 910.14,-992.81"/>
<polygon fill="black" stroke="black" points="912.18,-989.95 902.33,-986.03 907.59,-995.23 912.18,-989.95"/>
<text text-anchor="middle" x="917.92" y="-992.71" font-family="Times,serif" font-size="14.00">n</text>
</g>
<!-- room_633&#45;&gt;room_634 -->
<g id="edge54" class="edge">
<title>room_633&#45;&gt;room_634</title>
<path fill="none" stroke="black" d="M385.76,-521.83C396.42,-531.11 411.21,-542.43 425.15,-552.14"/>
<polygon fill="black" stroke="black" points="423.44,-555.21 433.68,-557.95 427.38,-549.43 423.44,-555.21"/>
<text text-anchor="middle" x="401.96" y="-539.79" font-family="Times,serif" font-size="14.00">n</text>
</g>
<!-- room_633&#45;&gt;room_633 -->
<g id="edge55" class="edge">
<title>room_633&#45;&gt;room_633</title>
<path fill="none" stroke="black" d="M428.46,-510.64C441.2,-510.02 450.48,-507.83 450.48,-504.07 450.48,-501.43 445.89,-499.56 438.74,-498.47"/>
<polygon fill="black" stroke="black" points="438.74,-494.95 428.46,-497.5 438.09,-501.92 438.74,-494.95"/>
<text text-anchor="middle" x="453.98" y="-499.87" font-family="Times,serif" font-size="14.00">d</text>
</g>
<!-- room_637&#45;&gt;room_635 -->
<g id="edge66" class="edge">
<title>room_637&#45;&gt;room_635</title>
<path fill="none" stroke="black" d="M326.32,-795.16C325.35,-793.49 324.3,-791.78 323.19,-790.07"/>
<polygon fill="black" stroke="black" points="325.85,-787.76 317.25,-781.56 320.11,-791.77 325.85,-787.76"/>
<text text-anchor="middle" x="319.7" y="-781.41" font-family="Times,serif" font-size="14.00">w</text>
</g>
<!-- room_637&#45;&gt;room_637 -->
<g id="edge67" class="edge">
<title>room_637&#45;&gt;room_637</title>
<path fill="none" stroke="black" d="M405.79,-819.56C419.35,-818.75 428.86,-816.63 428.86,-813.18 428.86,-810.68 423.84,-808.87 415.9,-807.76"/>
<polygon fill="black" stroke="black" points="416.08,-804.26 405.79,-806.8 415.42,-811.23 416.08,-804.26"/>
<text text-anchor="middle" x="432.36" y="-808.98" font-family="Times,serif" font-size="14.00">d</text>
</g>
<!-- room_636 -->
<g id="node28" class="node">
<title>room_636</title>
<ellipse fill="none" stroke="black" cx="181.44" cy="-816.65" rx="62.82" ry="18"/>
<text text-anchor="middle" x="181.44" y="-812.45" font-family="Times,serif" font-size="14.00">Lair of Jorlock</text>
</g>
<!-- room_637&#45;&gt;room_636 -->
<g id="edge64" class="edge">
<title>room_637&#45;&gt;room_636</title>
<path fill="none" stroke="black" d="M255,-808.2C252.64,-808.26 250.29,-808.33 247.95,-808.4"/>
<polygon fill="black" stroke="black" points="247.65,-804.91 237.79,-808.79 247.92,-811.9 247.65,-804.91"/>
<text text-anchor="middle" x="247.97" y="-797.1" font-family="Times,serif" font-size="14.00">n</text>
</g>
<!-- room_638 -->
<g id="node30" class="node">
<title>room_638</title>
<ellipse fill="none" stroke="black" cx="500.35" cy="-841.66" rx="81.16" ry="18"/>
<text text-anchor="middle" x="500.35" y="-837.46" font-family="Times,serif" font-size="14.00">Dungeons of Solace</text>
</g>
<!-- room_637&#45;&gt;room_638 -->
<g id="edge65" class="edge">
<title>room_637&#45;&gt;room_638</title>
<path fill="none" stroke="black" d="M379.76,-827.61C390.4,-829.76 401.97,-831.9 413.61,-833.88"/>
<polygon fill="black" stroke="black" points="413.39,-837.39 423.82,-835.57 414.53,-830.48 413.39,-837.39"/>
<text text-anchor="middle" x="393.96" y="-833.54" font-family="Times,serif" font-size="14.00">s</text>
</g>
<!-- room_636&#45;&gt;room_637 -->
<g id="edge61" class="edge">
<title>room_636&#45;&gt;room_637</title>
<path fill="none" stroke="black" d="M241.76,-821.89C244.85,-821.87 247.96,-821.83 251.09,-821.78"/>
<polygon fill="black" stroke="black" points="251.18,-825.28 261.1,-821.55 251.02,-818.28 251.18,-825.28"/>
<text text-anchor="middle" x="249.15" y="-824.64" font-family="Times,serif" font-size="14.00">s</text>
</g>
<!-- room_636&#45;&gt;room_636 -->
<g id="edge63" class="edge">
<title>room_636&#45;&gt;room_636</title>
<path fill="none" stroke="black" d="M239.8,-823.22C252.7,-822.61 262.1,-820.42 262.1,-816.65 262.1,-814.01 257.45,-812.14 250.21,-811.05"/>
<polygon fill="black" stroke="black" points="250.08,-807.52 239.8,-810.09 249.44,-814.49 250.08,-807.52"/>
<text text-anchor="middle" x="265.6" y="-812.45" font-family="Times,serif" font-size="14.00">d</text>
</g>
<!-- room_644 -->
<g id="node29" class="node">
<title>room_644</title>
<ellipse fill="none" stroke="black" cx="55.33" cy="-822.48" rx="55.17" ry="18"/>
<text text-anchor="middle" x="55.33" y="-818.28" font-family="Times,serif" font-size="14.00">Well Bottom</text>
</g>
<!-- room_636&#45;&gt;room_644 -->
<g id="edge62" class="edge">
<title>room_636&#45;&gt;room_644</title>
<path fill="none" stroke="black" d="M120.29,-812.72C118.13,-812.82 115.96,-812.92 113.8,-813.03"/>
<polygon fill="black" stroke="black" points="113.54,-809.54 103.77,-813.64 113.97,-816.53 113.54,-809.54"/>
<text text-anchor="middle" x="114.52" y="-801.68" font-family="Times,serif" font-size="14.00">w</text>
</g>
<!-- room_644&#45;&gt;room_636 -->
<g id="edge82" class="edge">
<title>room_644&#45;&gt;room_636</title>
<path fill="none" stroke="black" d="M109.49,-826.67C112.07,-826.59 114.67,-826.49 117.27,-826.37"/>
<polygon fill="black" stroke="black" points="117.47,-829.87 127.28,-825.86 117.11,-822.88 117.47,-829.87"/>
<text text-anchor="middle" x="113.38" y="-815.32" font-family="Times,serif" font-size="14.00">e</text>
</g>
<!-- room_638&#45;&gt;room_625 -->
<g id="edge70" class="edge">
<title>room_638&#45;&gt;room_625</title>
<path fill="none" stroke="black" d="M491.41,-823.32C483.02,-806.12 470.38,-780.2 460.83,-760.62"/>
<polygon fill="black" stroke="black" points="463.95,-759.03 456.42,-751.58 457.66,-762.1 463.95,-759.03"/>
<text text-anchor="middle" x="472.62" y="-794.77" font-family="Times,serif" font-size="14.00">d</text>
</g>
<!-- room_638&#45;&gt;room_637 -->
<g id="edge68" class="edge">
<title>room_638&#45;&gt;room_637</title>
<path fill="none" stroke="black" d="M451.64,-827.14C440.68,-824.93 428.74,-822.74 416.77,-820.72"/>
<polygon fill="black" stroke="black" points="417.17,-817.24 406.73,-819.07 416.03,-824.15 417.17,-817.24"/>
<text text-anchor="middle" x="437.7" y="-812.73" font-family="Times,serif" font-size="14.00">n</text>
</g>
<!-- room_639 -->
<g id="node31" class="node">
<title>room_639</title>
<ellipse fill="none" stroke="black" cx="460.06" cy="-942.71" rx="61.12" ry="18"/>
<text text-anchor="middle" x="460.06" y="-938.51" font-family="Times,serif" font-size="14.00">Procriar&#39;s Hall</text>
</g>
<!-- room_638&#45;&gt;room_639 -->
<g id="edge69" class="edge">
<title>room_638&#45;&gt;room_639</title>
<path fill="none" stroke="black" d="M487.28,-859.59C479.57,-874.9 470.53,-897.15 464.77,-914.79"/>
<polygon fill="black" stroke="black" points="461.36,-913.97 461.79,-924.56 468.05,-916.01 461.36,-913.97"/>
<text text-anchor="middle" x="472.92" y="-889.99" font-family="Times,serif" font-size="14.00">e</text>
</g>
<!-- room_639&#45;&gt;room_638 -->
<g id="edge73" class="edge">
<title>room_639&#45;&gt;room_638</title>
<path fill="none" stroke="black" d="M473.13,-924.79C480.84,-909.47 489.88,-887.22 495.64,-869.58"/>
<polygon fill="black" stroke="black" points="499.05,-870.4 498.62,-859.82 492.36,-868.36 499.05,-870.4"/>
<text text-anchor="middle" x="489.44" y="-899.98" font-family="Times,serif" font-size="14.00">w</text>
</g>
<!-- room_639&#45;&gt;room_639 -->
<g id="edge74" class="edge">
<title>room_639&#45;&gt;room_639</title>
<path fill="none" stroke="black" d="M516.91,-949.3C529.74,-948.7 539.12,-946.51 539.12,-942.71 539.12,-940.04 534.48,-938.16 527.27,-937.08"/>
<polygon fill="black" stroke="black" points="527.19,-933.56 516.91,-936.13 526.55,-940.53 527.19,-933.56"/>
<text text-anchor="middle" x="542.62" y="-938.51" font-family="Times,serif" font-size="14.00">d</text>
</g>
<!-- room_641 -->
<g id="node32" class="node">
<title>room_641</title>
<ellipse fill="none" stroke="black" cx="507.98" cy="-1029.69" rx="45.44" ry="18"/>
<text text-anchor="middle" x="507.98" y="-1025.49" font-family="Times,serif" font-size="14.00">Dead End</text>
</g>
<!-- room_639&#45;&gt;room_641 -->
<g id="edge71" class="edge">
<title>room_639&#45;&gt;room_641</title>
<path fill="none" stroke="black" d="M463.97,-960.83C469.25,-973.39 478.12,-990.23 486.61,-1004.14"/>
<polygon fill="black" stroke="black" points="483.78,-1006.21 492.09,-1012.78 489.69,-1002.46 483.78,-1006.21"/>
<text text-anchor="middle" x="472.57" y="-985.28" font-family="Times,serif" font-size="14.00">s</text>
</g>
<!-- room_640 -->
<g id="node33" class="node">
<title>room_640</title>
<ellipse fill="none" stroke="black" cx="373.47" cy="-1018.15" rx="60.79" ry="18"/>
<text text-anchor="middle" x="373.47" y="-1013.95" font-family="Times,serif" font-size="14.00">Orguzar&#39;s Lair</text>
</g>
<!-- room_639&#45;&gt;room_640 -->
<g id="edge72" class="edge">
<title>room_639&#45;&gt;room_640</title>
<path fill="none" stroke="black" d="M431.92,-959.11C419.12,-969.12 404.34,-982.03 392.81,-993.26"/>
<polygon fill="black" stroke="black" points="390.33,-990.79 385.76,-1000.35 395.29,-995.73 390.33,-990.79"/>
<text text-anchor="middle" x="409.26" y="-978.98" font-family="Times,serif" font-size="14.00">e</text>
</g>
<!-- room_641&#45;&gt;room_639 -->
<g id="edge78" class="edge">
<title>room_641&#45;&gt;room_639</title>
<path fill="none" stroke="black" d="M504.07,-1011.58C498.86,-999.19 490.15,-982.62 481.77,-968.83"/>
<polygon fill="black" stroke="black" points="484.65,-966.82 476.35,-960.23 478.73,-970.56 484.65,-966.82"/>
<text text-anchor="middle" x="489.42" y="-993" font-family="Times,serif" font-size="14.00">n</text>
</g>
<!-- room_641&#45;&gt;room_641 -->
<g id="edge79" class="edge">
<title>room_641&#45;&gt;room_641</title>
<path fill="none" stroke="black" d="M549.93,-1036.42C561.94,-1036.15 571.2,-1033.91 571.2,-1029.69 571.2,-1026.79 566.83,-1024.83 560.19,-1023.8"/>
<polygon fill="black" stroke="black" points="560.18,-1020.28 549.93,-1022.97 559.62,-1027.26 560.18,-1020.28"/>
<text text-anchor="middle" x="574.7" y="-1025.49" font-family="Times,serif" font-size="14.00">d</text>
</g>
<!-- room_640&#45;&gt;room_639 -->
<g id="edge76" class="edge">
<title>room_640&#45;&gt;room_639</title>
<path fill="none" stroke="black" d="M401.61,-1001.76C414.41,-991.74 429.19,-978.84 440.72,-967.61"/>
<polygon fill="black" stroke="black" points="443.2,-970.07 447.77,-960.52 438.24,-965.14 443.2,-970.07"/>
<text text-anchor="middle" x="426.22" y="-987.48" font-family="Times,serif" font-size="14.00">w</text>
</g>
<!-- room_640&#45;&gt;room_640 -->
<g id="edge77" class="edge">
<title>room_640&#45;&gt;room_640</title>
<path fill="none" stroke="black" d="M430.21,-1024.74C443.01,-1024.15 452.37,-1021.95 452.37,-1018.15 452.37,-1015.49 447.74,-1013.61 440.54,-1012.52"/>
<polygon fill="black" stroke="black" points="440.49,-1009 430.21,-1011.57 439.85,-1015.97 440.49,-1009"/>
<text text-anchor="middle" x="455.87" y="-1013.95" font-family="Times,serif" font-size="14.00">d</text>
</g>
<!-- room_642 -->
<g id="node34" class="node">
<title>room_642</title>
<ellipse fill="none" stroke="black" cx="320.55" cy="-1104.43" rx="55.17" ry="18"/>
<text text-anchor="middle" x="320.55" y="-1100.23" font-family="Times,serif" font-size="14.00">Well Bottom</text>
</g>
<!-- room_640&#45;&gt;room_642 -->
<g id="edge75" class="edge">
<title>room_640&#45;&gt;room_642</title>
<path fill="none" stroke="black" d="M355.95,-1035.55C347.25,-1047.59 337.2,-1063.81 329.91,-1077.5"/>
<polygon fill="black" stroke="black" points="326.75,-1075.99 325.35,-1086.49 332.99,-1079.15 326.75,-1075.99"/>
<text text-anchor="middle" x="339.43" y="-1059.32" font-family="Times,serif" font-size="14.00">n</text>
</g>
<!-- room_642&#45;&gt;room_640 -->
<g id="edge80" class="edge">
<title>room_642&#45;&gt;room_640</title>
<path fill="none" stroke="black" d="M338.07,-1087.03C346.72,-1075.07 356.69,-1058.98 363.97,-1045.35"/>
<polygon fill="black" stroke="black" points="367.12,-1046.88 368.53,-1036.38 360.88,-1043.7 367.12,-1046.88"/>
<text text-anchor="middle" x="348.3" y="-1068.99" font-family="Times,serif" font-size="14.00">s</text>
</g>
</g>
</svg>
