<?xml version="1.0" encoding="UTF-8" standalone="no"?>
<!DOCTYPE svg PUBLIC "-//W3C//DTD SVG 1.1//EN"
 "http://www.w3.org/Graphics/SVG/1.1/DTD/svg11.dtd">
<!-- Generated by graphviz version 2.42.3 (20191010.1750)
 -->
<!-- Title: monster Pages: 1 -->
<svg width="1545pt" height="1437pt"
 viewBox="0.00 0.00 1544.75 1436.57" xmlns="http://www.w3.org/2000/svg" xmlns:xlink="http://www.w3.org/1999/xlink">
<g id="graph0" class="graph" transform="scale(1 1) rotate(0) translate(4 1432.57)">
<title>monster</title>
<polygon fill="white" stroke="transparent" points="-4,4 -4,-1432.57 1540.75,-1432.57 1540.75,4 -4,4"/>
<!-- room_563 -->
<g id="node1" class="node">
<title>room_563</title>
<ellipse fill="none" stroke="black" cx="187.26" cy="-18" rx="67.18" ry="18"/>
<text text-anchor="middle" x="187.26" y="-13.8" font-family="Times,serif" font-size="14.00">Mholask Ilurum</text>
</g>
<!-- room_564 -->
<g id="node2" class="node">
<title>room_564</title>
<ellipse fill="none" stroke="black" cx="300.12" cy="-124.23" rx="66.69" ry="18"/>
<text text-anchor="middle" x="300.12" y="-120.03" font-family="Times,serif" font-size="14.00">Jhurvali Oporus</text>
</g>
<!-- room_563&#45;&gt;room_564 -->
<g id="edge1" class="edge">
<title>room_563&#45;&gt;room_564</title>
<path fill="none" stroke="black" d="M199.2,-35.81C215.19,-53.77 243.9,-81.34 266.66,-100.98"/>
<polygon fill="black" stroke="black" points="264.54,-103.77 274.43,-107.56 269.06,-98.43 264.54,-103.77"/>
<text text-anchor="middle" x="229.82" y="-71.2" font-family="Times,serif" font-size="14.00">e</text>
</g>
<!-- room_564&#45;&gt;room_563 -->
<g id="edge3" class="edge">
<title>room_564&#45;&gt;room_563</title>
<path fill="none" stroke="black" d="M288.18,-106.42C272.19,-88.46 243.49,-60.89 220.73,-41.25"/>
<polygon fill="black" stroke="black" points="222.85,-38.46 212.95,-34.67 218.32,-43.8 222.85,-38.46"/>
<text text-anchor="middle" x="249.4" y="-76.63" font-family="Times,serif" font-size="14.00">w</text>
</g>
<!-- room_617 -->
<g id="node3" class="node">
<title>room_617</title>
<ellipse fill="none" stroke="black" cx="425.53" cy="-233.81" rx="53.19" ry="18"/>
<text text-anchor="middle" x="425.53" y="-229.61" font-family="Times,serif" font-size="14.00">Damp Steps</text>
</g>
<!-- room_564&#45;&gt;room_617 -->
<g id="edge2" class="edge">
<title>room_564&#45;&gt;room_617</title>
<path fill="none" stroke="black" d="M313.41,-142.12C331.83,-161.17 365.51,-191.12 391.21,-211.63"/>
<polygon fill="black" stroke="black" points="389.21,-214.51 399.24,-217.93 393.54,-209.01 389.21,-214.51"/>
<text text-anchor="middle" x="349.2" y="-179.67" font-family="Times,serif" font-size="14.00">e</text>
</g>
<!-- room_617&#45;&gt;room_564 -->
<g id="edge8" class="edge">
<title>room_617&#45;&gt;room_564</title>
<path fill="none" stroke="black" d="M412.25,-215.92C394.05,-197.09 360.95,-167.64 335.38,-147.15"/>
<polygon fill="black" stroke="black" points="337.39,-144.28 327.37,-140.84 333.06,-149.78 337.39,-144.28"/>
<text text-anchor="middle" x="368.76" y="-184.34" font-family="Times,serif" font-size="14.00">w</text>
</g>
<!-- room_620 -->
<g id="node6" class="node">
<title>room_620</title>
<ellipse fill="none" stroke="black" cx="263.9" cy="-272.4" rx="78.81" ry="18"/>
<text text-anchor="middle" x="263.9" y="-268.2" font-family="Times,serif" font-size="14.00">Well of Lost Hopes</text>
</g>
<!-- room_617&#45;&gt;room_620 -->
<g id="edge5" class="edge">
<title>room_617&#45;&gt;room_620</title>
<path fill="none" stroke="black" d="M374.7,-239.5C355.19,-243.52 332.96,-248.81 313.56,-254.04"/>
<polygon fill="black" stroke="black" points="312.41,-250.73 303.7,-256.76 314.27,-257.47 312.41,-250.73"/>
<text text-anchor="middle" x="340.63" y="-235.57" font-family="Times,serif" font-size="14.00">n</text>
</g>
<!-- room_619 -->
<g id="node7" class="node">
<title>room_619</title>
<ellipse fill="none" stroke="black" cx="470.73" cy="-77.9" rx="64.33" ry="18"/>
<text text-anchor="middle" x="470.73" y="-73.7" font-family="Times,serif" font-size="14.00">Well of Sorrow</text>
</g>
<!-- room_617&#45;&gt;room_619 -->
<g id="edge6" class="edge">
<title>room_617&#45;&gt;room_619</title>
<path fill="none" stroke="black" d="M435.51,-215.98C446.03,-189.09 461.06,-137.99 468.02,-106.05"/>
<polygon fill="black" stroke="black" points="471.49,-106.51 470.05,-96.02 464.63,-105.12 471.49,-106.51"/>
<text text-anchor="middle" x="449.04" y="-163.81" font-family="Times,serif" font-size="14.00">s</text>
</g>
<!-- room_618 -->
<g id="node8" class="node">
<title>room_618</title>
<ellipse fill="none" stroke="black" cx="568.46" cy="-140.98" rx="65.28" ry="18"/>
<text text-anchor="middle" x="568.46" y="-136.78" font-family="Times,serif" font-size="14.00">Well of Regrets</text>
</g>
<!-- room_617&#45;&gt;room_618 -->
<g id="edge7" class="edge">
<title>room_617&#45;&gt;room_618</title>
<path fill="none" stroke="black" d="M457.84,-219.47C483.43,-204.73 518.66,-181.85 542.46,-164.5"/>
<polygon fill="black" stroke="black" points="544.74,-167.16 550.67,-158.38 540.56,-161.55 544.74,-167.16"/>
<text text-anchor="middle" x="497.04" y="-194.78" font-family="Times,serif" font-size="14.00">e</text>
</g>
<!-- room_621 -->
<g id="node9" class="node">
<title>room_621</title>
<ellipse fill="none" stroke="black" cx="483.46" cy="-392.41" rx="48.86" ry="18"/>
<text text-anchor="middle" x="483.46" y="-388.21" font-family="Times,serif" font-size="14.00">Cold Steps</text>
</g>
<!-- room_617&#45;&gt;room_621 -->
<g id="edge9" class="edge">
<title>room_617&#45;&gt;room_621</title>
<path fill="none" stroke="black" d="M427.55,-251.97C434.68,-279.75 453.73,-332.91 467.84,-365.27"/>
<polygon fill="black" stroke="black" points="464.75,-366.92 472.04,-374.6 471.13,-364.04 464.75,-366.92"/>
<text text-anchor="middle" x="444.19" y="-311.42" font-family="Times,serif" font-size="14.00">d</text>
</g>
<!-- room_582 -->
<g id="node4" class="node">
<title>room_582</title>
<ellipse fill="none" stroke="black" cx="548.7" cy="-1308.07" rx="77.53" ry="18"/>
<text text-anchor="middle" x="548.7" y="-1303.87" font-family="Times,serif" font-size="14.00">Frognar&#39;s Chamber</text>
</g>
<!-- room_629 -->
<g id="node5" class="node">
<title>room_629</title>
<ellipse fill="none" stroke="black" cx="584.19" cy="-1138.12" rx="54.87" ry="18"/>
<text text-anchor="middle" x="584.19" y="-1133.92" font-family="Times,serif" font-size="14.00">Higett&#39;s Hall</text>
</g>
<!-- room_582&#45;&gt;room_629 -->
<g id="edge4" class="edge">
<title>room_582&#45;&gt;room_629</title>
<path fill="none" stroke="black" d="M556.97,-1290.14C566.06,-1260.57 578.64,-1201.38 583.53,-1166.21"/>
<polygon fill="black" stroke="black" points="587.02,-1166.48 584.79,-1156.13 580.08,-1165.62 587.02,-1166.48"/>
<text text-anchor="middle" x="567.14" y="-1230.98" font-family="Times,serif" font-size="14.00">e</text>
</g>
<!-- room_629&#45;&gt;room_582 -->
<g id="edge37" class="edge">
<title>room_629&#45;&gt;room_582</title>
<path fill="none" stroke="black" d="M575.92,-1156.05C566.83,-1185.62 554.24,-1244.81 549.36,-1279.98"/>
<polygon fill="black" stroke="black" points="545.87,-1279.7 548.1,-1290.06 552.81,-1280.57 545.87,-1279.7"/>
<text text-anchor="middle" x="557.58" y="-1220.81" font-family="Times,serif" font-size="14.00">w</text>
</g>
<!-- room_629&#45;&gt;room_629 -->
<g id="edge38" class="edge">
<title>room_629&#45;&gt;room_629</title>
<path fill="none" stroke="black" d="M635.13,-1144.76C647.6,-1144.27 656.87,-1142.05 656.87,-1138.12 656.87,-1135.35 652.29,-1133.43 645.23,-1132.37"/>
<polygon fill="black" stroke="black" points="645.4,-1128.87 635.13,-1131.47 644.79,-1135.84 645.4,-1128.87"/>
<text text-anchor="middle" x="660.37" y="-1133.92" font-family="Times,serif" font-size="14.00">d</text>
</g>
<!-- room_628 -->
<g id="node14" class="node">
<title>room_628</title>
<ellipse fill="none" stroke="black" cx="628.09" cy="-965.97" rx="81.16" ry="18"/>
<text text-anchor="middle" x="628.09" y="-961.77" font-family="Times,serif" font-size="14.00">Dungeons of Solace</text>
</g>
<!-- room_629&#45;&gt;room_628 -->
<g id="edge36" class="edge">
<title>room_629&#45;&gt;room_628</title>
<path fill="none" stroke="black" d="M593.35,-1120.13C603.93,-1090.21 619.5,-1030.04 626.09,-994.35"/>
<polygon fill="black" stroke="black" points="629.6,-994.57 627.83,-984.13 622.7,-993.4 629.6,-994.57"/>
<text text-anchor="middle" x="606.22" y="-1060.04" font-family="Times,serif" font-size="14.00">n</text>
</g>
<!-- room_620&#45;&gt;room_617 -->
<g id="edge12" class="edge">
<title>room_620&#45;&gt;room_617</title>
<path fill="none" stroke="black" d="M331.65,-263.06C348.58,-259.26 366.3,-254.85 381.73,-250.57"/>
<polygon fill="black" stroke="black" points="382.84,-253.89 391.5,-247.79 380.92,-247.16 382.84,-253.89"/>
<text text-anchor="middle" x="353.96" y="-259.62" font-family="Times,serif" font-size="14.00">s</text>
</g>
<!-- room_619&#45;&gt;room_617 -->
<g id="edge11" class="edge">
<title>room_619&#45;&gt;room_617</title>
<path fill="none" stroke="black" d="M460.75,-95.74C450.23,-122.62 435.2,-173.73 428.24,-205.66"/>
<polygon fill="black" stroke="black" points="424.76,-205.2 426.21,-215.7 431.62,-206.59 424.76,-205.2"/>
<text text-anchor="middle" x="441" y="-153.5" font-family="Times,serif" font-size="14.00">n</text>
</g>
<!-- room_618&#45;&gt;room_617 -->
<g id="edge10" class="edge">
<title>room_618&#45;&gt;room_617</title>
<path fill="none" stroke="black" d="M534.36,-156.36C508.69,-171.27 474.12,-193.78 450.86,-210.79"/>
<polygon fill="black" stroke="black" points="448.76,-207.99 442.84,-216.78 452.95,-213.6 448.76,-207.99"/>
<text text-anchor="middle" x="487.55" y="-186.38" font-family="Times,serif" font-size="14.00">w</text>
</g>
<!-- room_621&#45;&gt;room_617 -->
<g id="edge13" class="edge">
<title>room_621&#45;&gt;room_617</title>
<path fill="none" stroke="black" d="M481.44,-374.25C474.31,-346.47 455.26,-293.31 441.15,-260.95"/>
<polygon fill="black" stroke="black" points="444.25,-259.3 436.95,-251.62 437.86,-262.18 444.25,-259.3"/>
<text text-anchor="middle" x="457.8" y="-320.4" font-family="Times,serif" font-size="14.00">u</text>
</g>
<!-- room_622 -->
<g id="node10" class="node">
<title>room_622</title>
<ellipse fill="none" stroke="black" cx="538.31" cy="-544.86" rx="59.43" ry="18"/>
<text text-anchor="middle" x="538.31" y="-540.66" font-family="Times,serif" font-size="14.00">Dark Landing</text>
</g>
<!-- room_621&#45;&gt;room_622 -->
<g id="edge14" class="edge">
<title>room_621&#45;&gt;room_622</title>
<path fill="none" stroke="black" d="M485.29,-410.51C491.94,-437.06 509.43,-486.7 522.75,-517.65"/>
<polygon fill="black" stroke="black" points="519.64,-519.28 526.9,-526.99 526.03,-516.43 519.64,-519.28"/>
<text text-anchor="middle" x="500.52" y="-466.88" font-family="Times,serif" font-size="14.00">d</text>
</g>
<!-- room_622&#45;&gt;room_621 -->
<g id="edge16" class="edge">
<title>room_622&#45;&gt;room_621</title>
<path fill="none" stroke="black" d="M536.48,-526.76C529.83,-500.21 512.34,-450.57 499.02,-419.62"/>
<polygon fill="black" stroke="black" points="502.13,-417.99 494.87,-410.28 495.74,-420.84 502.13,-417.99"/>
<text text-anchor="middle" x="514.25" y="-475.99" font-family="Times,serif" font-size="14.00">u</text>
</g>
<!-- room_623 -->
<g id="node11" class="node">
<title>room_623</title>
<ellipse fill="none" stroke="black" cx="602.71" cy="-696.7" rx="59.44" ry="18"/>
<text text-anchor="middle" x="602.71" y="-692.5" font-family="Times,serif" font-size="14.00">Dank Passage</text>
</g>
<!-- room_622&#45;&gt;room_623 -->
<g id="edge15" class="edge">
<title>room_622&#45;&gt;room_623</title>
<path fill="none" stroke="black" d="M541.27,-563.12C549.53,-589.56 569.96,-638.63 585.19,-669.39"/>
<polygon fill="black" stroke="black" points="582.26,-671.36 589.93,-678.68 588.5,-668.18 582.26,-671.36"/>
<text text-anchor="middle" x="560.12" y="-619.05" font-family="Times,serif" font-size="14.00">e</text>
</g>
<!-- room_623&#45;&gt;room_622 -->
<g id="edge18" class="edge">
<title>room_623&#45;&gt;room_622</title>
<path fill="none" stroke="black" d="M599.75,-678.44C591.49,-651.99 571.06,-602.92 555.83,-572.17"/>
<polygon fill="black" stroke="black" points="558.76,-570.2 551.1,-562.88 552.52,-573.38 558.76,-570.2"/>
<text text-anchor="middle" x="572.74" y="-628.1" font-family="Times,serif" font-size="14.00">w</text>
</g>
<!-- room_624 -->
<g id="node12" class="node">
<title>room_624</title>
<ellipse fill="none" stroke="black" cx="680.36" cy="-852.11" rx="68.89" ry="18"/>
<text text-anchor="middle" x="680.36" y="-847.91" font-family="Times,serif" font-size="14.00">Ghantriak&#39;s Trap</text>
</g>
<!-- room_623&#45;&gt;room_624 -->
<g id="edge17" class="edge">
<title>room_623&#45;&gt;room_624</title>
<path fill="none" stroke="black" d="M606.87,-714.67C617.31,-741.91 642.78,-793.71 660.95,-825.37"/>
<polygon fill="black" stroke="black" points="658.01,-827.27 666.1,-834.12 664.05,-823.72 658.01,-827.27"/>
<text text-anchor="middle" x="630.81" y="-772.82" font-family="Times,serif" font-size="14.00">e</text>
</g>
<!-- room_624&#45;&gt;room_623 -->
<g id="edge22" class="edge">
<title>room_624&#45;&gt;room_623</title>
<path fill="none" stroke="black" d="M676.19,-834.14C665.7,-806.75 640.01,-754.54 621.82,-722.92"/>
<polygon fill="black" stroke="black" points="624.77,-721.04 616.67,-714.21 618.74,-724.6 624.77,-721.04"/>
<text text-anchor="middle" x="643.95" y="-781.33" font-family="Times,serif" font-size="14.00">w</text>
</g>
<!-- room_625 -->
<g id="node13" class="node">
<title>room_625</title>
<ellipse fill="none" stroke="black" cx="820.63" cy="-923.86" rx="81.16" ry="18"/>
<text text-anchor="middle" x="820.63" y="-919.66" font-family="Times,serif" font-size="14.00">Dungeons of Solace</text>
</g>
<!-- room_624&#45;&gt;room_625 -->
<g id="edge19" class="edge">
<title>room_624&#45;&gt;room_625</title>
<path fill="none" stroke="black" d="M702.39,-869.29C719.97,-879.86 745.28,-893.27 767.98,-904.22"/>
<polygon fill="black" stroke="black" points="766.66,-907.46 777.19,-908.59 769.66,-901.14 766.66,-907.46"/>
<text text-anchor="middle" x="731.69" y="-889.56" font-family="Times,serif" font-size="14.00">n</text>
</g>
<!-- room_624&#45;&gt;room_628 -->
<g id="edge20" class="edge">
<title>room_624&#45;&gt;room_628</title>
<path fill="none" stroke="black" d="M666.47,-869.74C656.09,-888.02 642.71,-916.78 634.56,-938.13"/>
<polygon fill="black" stroke="black" points="631.23,-937.04 631.12,-947.64 637.81,-939.43 631.23,-937.04"/>
<text text-anchor="middle" x="647.79" y="-906.73" font-family="Times,serif" font-size="14.00">s</text>
</g>
<!-- room_634 -->
<g id="node15" class="node">
<title>room_634</title>
<ellipse fill="none" stroke="black" cx="670.16" cy="-1018.02" rx="60.9" ry="18"/>
<text text-anchor="middle" x="670.16" y="-1013.82" font-family="Times,serif" font-size="14.00">Hall of Frobar</text>
</g>
<!-- room_624&#45;&gt;room_634 -->
<g id="edge21" class="edge">
<title>room_624&#45;&gt;room_634</title>
<path fill="none" stroke="black" d="M674.8,-870.22C670.22,-899.06 666.49,-955.61 666.69,-989.79"/>
<polygon fill="black" stroke="black" points="663.19,-990.1 666.89,-1000.03 670.19,-989.96 663.19,-990.1"/>
<text text-anchor="middle" x="667.64" y="-932.8" font-family="Times,serif" font-size="14.00">e</text>
</g>
<!-- room_625&#45;&gt;room_624 -->
<g id="edge24" class="edge">
<title>room_625&#45;&gt;room_624</title>
<path fill="none" stroke="black" d="M798.29,-906.49C780.27,-895.67 754.26,-881.94 731.25,-870.9"/>
<polygon fill="black" stroke="black" points="732.47,-867.61 721.93,-866.51 729.48,-873.94 732.47,-867.61"/>
<text text-anchor="middle" x="762.04" y="-891.5" font-family="Times,serif" font-size="14.00">s</text>
</g>
<!-- room_625&#45;&gt;room_625 -->
<g id="edge26" class="edge">
<title>room_625&#45;&gt;room_625</title>
<path fill="none" stroke="black" d="M896.84,-930.21C910.45,-929.39 919.96,-927.27 919.96,-923.86 919.96,-921.38 914.94,-919.59 906.98,-918.47"/>
<polygon fill="black" stroke="black" points="907.13,-914.97 896.84,-917.51 906.46,-921.94 907.13,-914.97"/>
<text text-anchor="middle" x="923.46" y="-919.66" font-family="Times,serif" font-size="14.00">u</text>
</g>
<!-- room_626 -->
<g id="node16" class="node">
<title>room_626</title>
<ellipse fill="none" stroke="black" cx="884.7" cy="-779.2" rx="55.57" ry="18"/>
<text text-anchor="middle" x="884.7" y="-775" font-family="Times,serif" font-size="14.00">Tyviar&#39;s Hall</text>
</g>
<!-- room_625&#45;&gt;room_626 -->
<g id="edge23" class="edge">
<title>room_625&#45;&gt;room_626</title>
<path fill="none" stroke="black" d="M833.81,-906C847.41,-881.22 867.5,-836.27 878.16,-807.07"/>
<polygon fill="black" stroke="black" points="881.52,-808.05 881.51,-797.46 874.91,-805.75 881.52,-808.05"/>
<text text-anchor="middle" x="852.48" y="-859.34" font-family="Times,serif" font-size="14.00">n</text>
</g>
<!-- room_635 -->
<g id="node17" class="node">
<title>room_635</title>
<ellipse fill="none" stroke="black" cx="896.6" cy="-1070.85" rx="61.38" ry="18"/>
<text text-anchor="middle" x="896.6" y="-1066.65" font-family="Times,serif" font-size="14.00">Long Corridor</text>
</g>
<!-- room_625&#45;&gt;room_635 -->
<g id="edge25" class="edge">
<title>room_625&#45;&gt;room_635</title>
<path fill="none" stroke="black" d="M825,-941.89C835.27,-967.68 859.39,-1015.13 876.95,-1044.75"/>
<polygon fill="black" stroke="black" points="873.98,-1046.6 882.17,-1053.32 879.96,-1042.96 873.98,-1046.6"/>
<text text-anchor="middle" x="847.87" y="-996.12" font-family="Times,serif" font-size="14.00">e</text>
</g>
<!-- room_628&#45;&gt;room_629 -->
<g id="edge33" class="edge">
<title>room_628&#45;&gt;room_629</title>
<path fill="none" stroke="black" d="M618.93,-983.95C608.35,-1013.87 592.78,-1074.05 586.19,-1109.73"/>
<polygon fill="black" stroke="black" points="582.67,-1109.51 584.44,-1119.96 589.57,-1110.69 582.67,-1109.51"/>
<text text-anchor="middle" x="599.83" y="-1049.64" font-family="Times,serif" font-size="14.00">s</text>
</g>
<!-- room_628&#45;&gt;room_624 -->
<g id="edge32" class="edge">
<title>room_628&#45;&gt;room_624</title>
<path fill="none" stroke="black" d="M642.12,-948.08C652.5,-929.76 665.82,-901.09 673.93,-879.83"/>
<polygon fill="black" stroke="black" points="677.25,-880.95 677.36,-870.36 670.66,-878.57 677.25,-880.95"/>
<text text-anchor="middle" x="654.53" y="-916.76" font-family="Times,serif" font-size="14.00">n</text>
</g>
<!-- room_628&#45;&gt;room_625 -->
<g id="edge35" class="edge">
<title>room_628&#45;&gt;room_625</title>
<path fill="none" stroke="black" d="M686.12,-953.28C707.15,-948.68 731.08,-943.44 752.88,-938.68"/>
<polygon fill="black" stroke="black" points="753.7,-942.08 762.72,-936.53 752.2,-935.24 753.7,-942.08"/>
<text text-anchor="middle" x="716" y="-948.78" font-family="Times,serif" font-size="14.00">d</text>
</g>
<!-- room_630 -->
<g id="node19" class="node">
<title>room_630</title>
<ellipse fill="none" stroke="black" cx="454.13" cy="-999.76" rx="84.71" ry="18"/>
<text text-anchor="middle" x="454.13" y="-995.56" font-family="Times,serif" font-size="14.00">Chamber of Drassoff</text>
</g>
<!-- room_628&#45;&gt;room_630 -->
<g id="edge34" class="edge">
<title>room_628&#45;&gt;room_630</title>
<path fill="none" stroke="black" d="M554.05,-973.56C539.34,-976.24 524.12,-979.3 510.12,-982.38"/>
<polygon fill="black" stroke="black" points="509.16,-979.01 500.18,-984.62 510.7,-985.84 509.16,-979.01"/>
<text text-anchor="middle" x="528.98" y="-966.77" font-family="Times,serif" font-size="14.00">e</text>
</g>
<!-- room_634&#45;&gt;room_624 -->
<g id="edge51" class="edge">
<title>room_634&#45;&gt;room_624</title>
<path fill="none" stroke="black" d="M675.72,-999.9C680.3,-971.07 684.03,-914.52 683.83,-880.34"/>
<polygon fill="black" stroke="black" points="687.33,-880.02 683.63,-870.09 680.33,-880.16 687.33,-880.02"/>
<text text-anchor="middle" x="684.83" y="-928.92" font-family="Times,serif" font-size="14.00">w</text>
</g>
<!-- room_634&#45;&gt;room_634 -->
<g id="edge52" class="edge">
<title>room_634&#45;&gt;room_634</title>
<path fill="none" stroke="black" d="M726.76,-1024.6C739.52,-1024.01 748.86,-1021.81 748.86,-1018.02 748.86,-1015.35 744.24,-1013.47 737.07,-1012.38"/>
<polygon fill="black" stroke="black" points="737.04,-1008.87 726.76,-1011.43 736.39,-1015.84 737.04,-1008.87"/>
<text text-anchor="middle" x="752.36" y="-1013.82" font-family="Times,serif" font-size="14.00">d</text>
</g>
<!-- room_633 -->
<g id="node23" class="node">
<title>room_633</title>
<ellipse fill="none" stroke="black" cx="666.86" cy="-1199.74" rx="61.86" ry="18"/>
<text text-anchor="middle" x="666.86" y="-1195.54" font-family="Times,serif" font-size="14.00">lair of Nystrek</text>
</g>
<!-- room_634&#45;&gt;room_633 -->
<g id="edge50" class="edge">
<title>room_634&#45;&gt;room_633</title>
<path fill="none" stroke="black" d="M665.59,-1036.03C661.97,-1067.68 660.51,-1133.48 662.32,-1171.32"/>
<polygon fill="black" stroke="black" points="658.85,-1171.88 662.95,-1181.64 665.84,-1171.45 658.85,-1171.88"/>
<text text-anchor="middle" x="661.23" y="-1106.47" font-family="Times,serif" font-size="14.00">s</text>
</g>
<!-- room_626&#45;&gt;room_625 -->
<g id="edge27" class="edge">
<title>room_626&#45;&gt;room_625</title>
<path fill="none" stroke="black" d="M871.68,-796.77C858.1,-821.45 837.93,-866.55 827.22,-895.87"/>
<polygon fill="black" stroke="black" points="823.84,-894.93 823.85,-905.52 830.45,-897.24 823.84,-894.93"/>
<text text-anchor="middle" x="846.72" y="-835.12" font-family="Times,serif" font-size="14.00">s</text>
</g>
<!-- room_626&#45;&gt;room_626 -->
<g id="edge29" class="edge">
<title>room_626&#45;&gt;room_626</title>
<path fill="none" stroke="black" d="M936.58,-785.83C949.02,-785.31 958.23,-783.1 958.23,-779.2 958.23,-776.46 953.68,-774.55 946.65,-773.48"/>
<polygon fill="black" stroke="black" points="946.85,-769.98 936.58,-772.57 946.22,-776.96 946.85,-769.98"/>
<text text-anchor="middle" x="961.73" y="-775" font-family="Times,serif" font-size="14.00">d</text>
</g>
<!-- room_627 -->
<g id="node18" class="node">
<title>room_627</title>
<ellipse fill="none" stroke="black" cx="968.09" cy="-641.04" rx="55.86" ry="18"/>
<text text-anchor="middle" x="968.09" y="-636.84" font-family="Times,serif" font-size="14.00">Lotrar&#39;s Trap</text>
</g>
<!-- room_626&#45;&gt;room_627 -->
<g id="edge28" class="edge">
<title>room_626&#45;&gt;room_627</title>
<path fill="none" stroke="black" d="M900.84,-761.94C917.73,-738.44 943.34,-696.28 957.75,-668.45"/>
<polygon fill="black" stroke="black" points="961,-669.77 962.35,-659.26 954.74,-666.64 961,-669.77"/>
<text text-anchor="middle" x="924.24" y="-717.99" font-family="Times,serif" font-size="14.00">w</text>
</g>
<!-- room_635&#45;&gt;room_625 -->
<g id="edge54" class="edge">
<title>room_635&#45;&gt;room_625</title>
<path fill="none" stroke="black" d="M892.24,-1052.81C882.02,-1027.16 858.11,-980.09 840.57,-950.45"/>
<polygon fill="black" stroke="black" points="843.54,-948.58 835.36,-941.85 837.55,-952.21 843.54,-948.58"/>
<text text-anchor="middle" x="861.35" y="-1004.43" font-family="Times,serif" font-size="14.00">w</text>
</g>
<!-- room_637 -->
<g id="node24" class="node">
<title>room_637</title>
<ellipse fill="none" stroke="black" cx="1044.09" cy="-1134.56" rx="79.22" ry="18"/>
<text text-anchor="middle" x="1044.09" y="-1130.36" font-family="Times,serif" font-size="14.00">Chamber of Ippulet</text>
</g>
<!-- room_635&#45;&gt;room_637 -->
<g id="edge53" class="edge">
<title>room_635&#45;&gt;room_637</title>
<path fill="none" stroke="black" d="M921.53,-1087.46C939.15,-1096.44 963.5,-1107.4 985.86,-1116.55"/>
<polygon fill="black" stroke="black" points="984.71,-1119.87 995.29,-1120.36 987.33,-1113.37 984.71,-1119.87"/>
<text text-anchor="middle" x="950.59" y="-1104.81" font-family="Times,serif" font-size="14.00">e</text>
</g>
<!-- room_627&#45;&gt;room_626 -->
<g id="edge30" class="edge">
<title>room_627&#45;&gt;room_626</title>
<path fill="none" stroke="black" d="M951.94,-658.3C935.05,-681.8 909.45,-723.96 895.04,-751.79"/>
<polygon fill="black" stroke="black" points="891.78,-750.47 890.44,-760.98 898.04,-753.6 891.78,-750.47"/>
<text text-anchor="middle" x="920.38" y="-693.85" font-family="Times,serif" font-size="14.00">e</text>
</g>
<!-- room_627&#45;&gt;room_627 -->
<g id="edge31" class="edge">
<title>room_627&#45;&gt;room_627</title>
<path fill="none" stroke="black" d="M1020.07,-647.67C1032.53,-647.15 1041.77,-644.94 1041.77,-641.04 1041.77,-638.29 1037.2,-636.39 1030.16,-635.32"/>
<polygon fill="black" stroke="black" points="1030.34,-631.82 1020.07,-634.41 1029.71,-638.79 1030.34,-631.82"/>
<text text-anchor="middle" x="1045.27" y="-636.84" font-family="Times,serif" font-size="14.00">d</text>
</g>
<!-- room_630&#45;&gt;room_628 -->
<g id="edge40" class="edge">
<title>room_630&#45;&gt;room_628</title>
<path fill="none" stroke="black" d="M530.19,-991.8C544.45,-989.17 559.11,-986.22 572.61,-983.24"/>
<polygon fill="black" stroke="black" points="573.69,-986.58 582.67,-980.96 572.14,-979.75 573.69,-986.58"/>
<text text-anchor="middle" x="546.34" y="-990.32" font-family="Times,serif" font-size="14.00">w</text>
</g>
<!-- room_630&#45;&gt;room_630 -->
<g id="edge41" class="edge">
<title>room_630&#45;&gt;room_630</title>
<path fill="none" stroke="black" d="M533.72,-1006.06C547.32,-1005.2 556.74,-1003.1 556.74,-999.76 556.74,-997.33 551.77,-995.56 543.83,-994.44"/>
<polygon fill="black" stroke="black" points="544.02,-990.94 533.72,-993.46 543.34,-997.91 544.02,-990.94"/>
<text text-anchor="middle" x="560.24" y="-995.56" font-family="Times,serif" font-size="14.00">d</text>
</g>
<!-- room_631 -->
<g id="node20" class="node">
<title>room_631</title>
<ellipse fill="none" stroke="black" cx="306.35" cy="-1083.29" rx="49.82" ry="18"/>
<text text-anchor="middle" x="306.35" y="-1079.09" font-family="Times,serif" font-size="14.00">Lost Room</text>
</g>
<!-- room_630&#45;&gt;room_631 -->
<g id="edge39" class="edge">
<title>room_630&#45;&gt;room_631</title>
<path fill="none" stroke="black" d="M413.91,-1015.66C388.73,-1028.55 356.93,-1046.66 334.44,-1060.98"/>
<polygon fill="black" stroke="black" points="332.48,-1058.07 326.01,-1066.46 336.3,-1063.94 332.48,-1058.07"/>
<text text-anchor="middle" x="371.45" y="-1041.12" font-family="Times,serif" font-size="14.00">s</text>
</g>
<!-- room_631&#45;&gt;room_630 -->
<g id="edge42" class="edge">
<title>room_631&#45;&gt;room_630</title>
<path fill="none" stroke="black" d="M340.83,-1070.3C366.32,-1057.56 400.62,-1038.18 424.8,-1022.87"/>
<polygon fill="black" stroke="black" points="426.72,-1025.8 433.22,-1017.43 422.92,-1019.92 426.72,-1025.8"/>
<text text-anchor="middle" x="379.32" y="-1049.38" font-family="Times,serif" font-size="14.00">n</text>
</g>
<!-- room_631&#45;&gt;room_631 -->
<g id="edge44" class="edge">
<title>room_631&#45;&gt;room_631</title>
<path fill="none" stroke="black" d="M352.52,-1089.98C364.74,-1089.6 374.01,-1087.37 374.01,-1083.29 374.01,-1080.49 369.63,-1078.56 362.92,-1077.5"/>
<polygon fill="black" stroke="black" points="362.78,-1073.98 352.52,-1076.6 362.18,-1080.95 362.78,-1073.98"/>
<text text-anchor="middle" x="377.51" y="-1079.09" font-family="Times,serif" font-size="14.00">d</text>
</g>
<!-- room_632 -->
<g id="node21" class="node">
<title>room_632</title>
<ellipse fill="none" stroke="black" cx="177.84" cy="-1179.17" rx="65.23" ry="18"/>
<text text-anchor="middle" x="177.84" y="-1174.97" font-family="Times,serif" font-size="14.00">Lair of Bruniak</text>
</g>
<!-- room_631&#45;&gt;room_632 -->
<g id="edge43" class="edge">
<title>room_631&#45;&gt;room_632</title>
<path fill="none" stroke="black" d="M277.34,-1098.04C254.3,-1113.22 222.56,-1136.87 201.14,-1154.8"/>
<polygon fill="black" stroke="black" points="198.8,-1152.2 193.48,-1161.36 203.35,-1157.52 198.8,-1152.2"/>
<text text-anchor="middle" x="236.14" y="-1129.22" font-family="Times,serif" font-size="14.00">e</text>
</g>
<!-- room_632&#45;&gt;room_631 -->
<g id="edge46" class="edge">
<title>room_632&#45;&gt;room_631</title>
<path fill="none" stroke="black" d="M208.79,-1163.14C231.82,-1147.81 262.67,-1124.75 283.5,-1107.28"/>
<polygon fill="black" stroke="black" points="285.92,-1109.81 291.22,-1100.64 281.36,-1104.5 285.92,-1109.81"/>
<text text-anchor="middle" x="251.2" y="-1138.01" font-family="Times,serif" font-size="14.00">w</text>
</g>
<!-- room_632&#45;&gt;room_632 -->
<g id="edge47" class="edge">
<title>room_632&#45;&gt;room_632</title>
<path fill="none" stroke="black" d="M238.72,-1185.7C251.63,-1185.04 260.95,-1182.86 260.95,-1179.17 260.95,-1176.57 256.35,-1174.73 249.12,-1173.63"/>
<polygon fill="black" stroke="black" points="249.01,-1170.1 238.72,-1172.64 248.35,-1177.07 249.01,-1170.1"/>
<text text-anchor="middle" x="264.45" y="-1174.97" font-family="Times,serif" font-size="14.00">d</text>
</g>
<!-- room_643 -->
<g id="node22" class="node">
<title>room_643</title>
<ellipse fill="none" stroke="black" cx="55.33" cy="-1271.22" rx="55.17" ry="18"/>
<text text-anchor="middle" x="55.33" y="-1267.02" font-family="Times,serif" font-size="14.00">Well Bottom</text>
</g>
<!-- room_632&#45;&gt;room_643 -->
<g id="edge45" class="edge">
<title>room_632&#45;&gt;room_643</title>
<path fill="none" stroke="black" d="M146.9,-1195.24C125.45,-1209.63 97.44,-1230.72 78.03,-1247.11"/>
<polygon fill="black" stroke="black" points="75.56,-1244.62 70.29,-1253.81 80.14,-1249.91 75.56,-1244.62"/>
<text text-anchor="middle" x="109.74" y="-1223.97" font-family="Times,serif" font-size="14.00">s</text>
</g>
<!-- room_643&#45;&gt;room_632 -->
<g id="edge75" class="edge">
<title>room_643&#45;&gt;room_632</title>
<path fill="none" stroke="black" d="M85.01,-1256C106.53,-1241.65 135.13,-1220.16 154.91,-1203.48"/>
<polygon fill="black" stroke="black" points="157.26,-1206.08 162.54,-1196.89 152.68,-1200.78 157.26,-1206.08"/>
<text text-anchor="middle" x="116.46" y="-1232.54" font-family="Times,serif" font-size="14.00">n</text>
</g>
<!-- room_633&#45;&gt;room_634 -->
<g id="edge48" class="edge">
<title>room_633&#45;&gt;room_634</title>
<path fill="none" stroke="black" d="M671.43,-1181.72C675.05,-1150.08 676.52,-1084.27 674.71,-1046.44"/>
<polygon fill="black" stroke="black" points="678.18,-1045.88 674.07,-1036.11 671.19,-1046.3 678.18,-1045.88"/>
<text text-anchor="middle" x="669.57" y="-1116.88" font-family="Times,serif" font-size="14.00">n</text>
</g>
<!-- room_633&#45;&gt;room_633 -->
<g id="edge49" class="edge">
<title>room_633&#45;&gt;room_633</title>
<path fill="none" stroke="black" d="M724.52,-1206.3C737.26,-1205.69 746.54,-1203.5 746.54,-1199.74 746.54,-1197.09 741.95,-1195.22 734.8,-1194.13"/>
<polygon fill="black" stroke="black" points="734.8,-1190.62 724.52,-1193.17 734.15,-1197.59 734.8,-1190.62"/>
<text text-anchor="middle" x="750.04" y="-1195.54" font-family="Times,serif" font-size="14.00">d</text>
</g>
<!-- room_637&#45;&gt;room_635 -->
<g id="edge60" class="edge">
<title>room_637&#45;&gt;room_635</title>
<path fill="none" stroke="black" d="M1018.16,-1117.44C999.42,-1107.94 973.47,-1096.36 950.35,-1087.03"/>
<polygon fill="black" stroke="black" points="951.57,-1083.74 940.98,-1083.31 948.99,-1090.25 951.57,-1083.74"/>
<text text-anchor="middle" x="979.2" y="-1105.03" font-family="Times,serif" font-size="14.00">w</text>
</g>
<!-- room_637&#45;&gt;room_637 -->
<g id="edge61" class="edge">
<title>room_637&#45;&gt;room_637</title>
<path fill="none" stroke="black" d="M1118.38,-1140.94C1131.94,-1140.13 1141.46,-1138.01 1141.46,-1134.56 1141.46,-1132.06 1136.43,-1130.25 1128.49,-1129.14"/>
<polygon fill="black" stroke="black" points="1128.67,-1125.64 1118.38,-1128.18 1128.01,-1132.61 1128.67,-1125.64"/>
<text text-anchor="middle" x="1144.96" y="-1130.36" font-family="Times,serif" font-size="14.00">d</text>
</g>
<!-- room_636 -->
<g id="node25" class="node">
<title>room_636</title>
<ellipse fill="none" stroke="black" cx="1124.12" cy="-1279.03" rx="62.82" ry="18"/>
<text text-anchor="middle" x="1124.12" y="-1274.83" font-family="Times,serif" font-size="14.00">Lair of Jorlock</text>
</g>
<!-- room_637&#45;&gt;room_636 -->
<g id="edge58" class="edge">
<title>room_637&#45;&gt;room_636</title>
<path fill="none" stroke="black" d="M1049.09,-1152.72C1060.03,-1177.98 1084.96,-1223.74 1103.22,-1252.72"/>
<polygon fill="black" stroke="black" points="1100.29,-1254.63 1108.65,-1261.13 1106.17,-1250.83 1100.29,-1254.63"/>
<text text-anchor="middle" x="1072.65" y="-1205.52" font-family="Times,serif" font-size="14.00">n</text>
</g>
<!-- room_638 -->
<g id="node27" class="node">
<title>room_638</title>
<ellipse fill="none" stroke="black" cx="1002.09" cy="-967.67" rx="81.16" ry="18"/>
<text text-anchor="middle" x="1002.09" y="-963.47" font-family="Times,serif" font-size="14.00">Dungeons of Solace</text>
</g>
<!-- room_637&#45;&gt;room_638 -->
<g id="edge59" class="edge">
<title>room_637&#45;&gt;room_638</title>
<path fill="none" stroke="black" d="M1043.94,-1116.28C1039.58,-1087.12 1025.52,-1029.92 1014.57,-995.61"/>
<polygon fill="black" stroke="black" points="1017.76,-994.14 1011.28,-985.75 1011.12,-996.35 1017.76,-994.14"/>
<text text-anchor="middle" x="1026.53" y="-1058.74" font-family="Times,serif" font-size="14.00">s</text>
</g>
<!-- room_636&#45;&gt;room_637 -->
<g id="edge55" class="edge">
<title>room_636&#45;&gt;room_637</title>
<path fill="none" stroke="black" d="M1119.13,-1260.87C1108.18,-1235.61 1083.25,-1189.85 1064.99,-1160.87"/>
<polygon fill="black" stroke="black" points="1067.93,-1158.96 1059.56,-1152.45 1062.04,-1162.75 1067.93,-1158.96"/>
<text text-anchor="middle" x="1089.34" y="-1213.67" font-family="Times,serif" font-size="14.00">s</text>
</g>
<!-- room_636&#45;&gt;room_636 -->
<g id="edge57" class="edge">
<title>room_636&#45;&gt;room_636</title>
<path fill="none" stroke="black" d="M1182.49,-1285.59C1195.38,-1284.98 1204.78,-1282.79 1204.78,-1279.03 1204.78,-1276.38 1200.13,-1274.51 1192.89,-1273.42"/>
<polygon fill="black" stroke="black" points="1192.77,-1269.9 1182.49,-1272.46 1192.12,-1276.87 1192.77,-1269.9"/>
<text text-anchor="middle" x="1208.28" y="-1274.83" font-family="Times,serif" font-size="14.00">d</text>
</g>
<!-- room_644 -->
<g id="node26" class="node">
<title>room_644</title>
<ellipse fill="none" stroke="black" cx="1207.65" cy="-1410.57" rx="55.17" ry="18"/>
<text text-anchor="middle" x="1207.65" y="-1406.37" font-family="Times,serif" font-size="14.00">Well Bottom</text>
</g>
<!-- room_636&#45;&gt;room_644 -->
<g id="edge56" class="edge">
<title>room_636&#45;&gt;room_644</title>
<path fill="none" stroke="black" d="M1130.18,-1297.07C1141.75,-1319.93 1166.31,-1359.3 1184.8,-1385.17"/>
<polygon fill="black" stroke="black" points="1182.08,-1387.38 1190.81,-1393.38 1187.73,-1383.24 1182.08,-1387.38"/>
<text text-anchor="middle" x="1152.44" y="-1343.92" font-family="Times,serif" font-size="14.00">w</text>
</g>
<!-- room_644&#45;&gt;room_636 -->
<g id="edge76" class="edge">
<title>room_644&#45;&gt;room_636</title>
<path fill="none" stroke="black" d="M1201.59,-1392.52C1190.09,-1369.79 1165.74,-1330.74 1147.29,-1304.87"/>
<polygon fill="black" stroke="black" points="1150,-1302.66 1141.28,-1296.64 1144.35,-1306.79 1150,-1302.66"/>
<text text-anchor="middle" x="1171.33" y="-1351.5" font-family="Times,serif" font-size="14.00">e</text>
</g>
<!-- room_638&#45;&gt;room_625 -->
<g id="edge64" class="edge">
<title>room_638&#45;&gt;room_625</title>
<path fill="none" stroke="black" d="M946.66,-954.29C927.4,-949.64 905.63,-944.38 885.67,-939.56"/>
<polygon fill="black" stroke="black" points="886.26,-936.11 875.72,-937.16 884.62,-942.91 886.26,-936.11"/>
<text text-anchor="middle" x="912.66" y="-949.73" font-family="Times,serif" font-size="14.00">d</text>
</g>
<!-- room_638&#45;&gt;room_637 -->
<g id="edge62" class="edge">
<title>room_638&#45;&gt;room_637</title>
<path fill="none" stroke="black" d="M1002.25,-985.96C1006.61,-1015.12 1020.67,-1072.31 1031.62,-1106.62"/>
<polygon fill="black" stroke="black" points="1028.42,-1108.1 1034.91,-1116.48 1035.07,-1105.89 1028.42,-1108.1"/>
<text text-anchor="middle" x="1013.44" y="-1049.09" font-family="Times,serif" font-size="14.00">n</text>
</g>
<!-- room_639 -->
<g id="node28" class="node">
<title>room_639</title>
<ellipse fill="none" stroke="black" cx="1165.12" cy="-905.45" rx="61.12" ry="18"/>
<text text-anchor="middle" x="1165.12" y="-901.25" font-family="Times,serif" font-size="14.00">Procriar&#39;s Hall</text>
</g>
<!-- room_638&#45;&gt;room_639 -->
<g id="edge63" class="edge">
<title>room_638&#45;&gt;room_639</title>
<path fill="none" stroke="black" d="M1055.48,-954.06C1079.22,-945.75 1106.57,-935.15 1128.03,-925.88"/>
<polygon fill="black" stroke="black" points="1129.7,-928.97 1137.44,-921.74 1126.87,-922.57 1129.7,-928.97"/>
<text text-anchor="middle" x="1088.65" y="-942.77" font-family="Times,serif" font-size="14.00">e</text>
</g>
<!-- room_639&#45;&gt;room_638 -->
<g id="edge67" class="edge">
<title>room_639&#45;&gt;room_638</title>
<path fill="none" stroke="black" d="M1117.97,-916.91C1093.28,-925.35 1063.47,-936.8 1040.26,-946.78"/>
<polygon fill="black" stroke="black" points="1038.82,-943.59 1031.07,-950.81 1041.63,-950 1038.82,-943.59"/>
<text text-anchor="middle" x="1074.06" y="-934.64" font-family="Times,serif" font-size="14.00">w</text>
</g>
<!-- room_639&#45;&gt;room_639 -->
<g id="edge68" class="edge">
<title>room_639&#45;&gt;room_639</title>
<path fill="none" stroke="black" d="M1221.98,-912.03C1234.8,-911.44 1244.18,-909.24 1244.18,-905.45 1244.18,-902.78 1239.55,-900.9 1232.33,-899.81"/>
<polygon fill="black" stroke="black" points="1232.26,-896.29 1221.98,-898.86 1231.62,-903.26 1232.26,-896.29"/>
<text text-anchor="middle" x="1247.68" y="-901.25" font-family="Times,serif" font-size="14.00">d</text>
</g>
<!-- room_641 -->
<g id="node29" class="node">
<title>room_641</title>
<ellipse fill="none" stroke="black" cx="1252.7" cy="-766.8" rx="45.44" ry="18"/>
<text text-anchor="middle" x="1252.7" y="-762.6" font-family="Times,serif" font-size="14.00">Dead End</text>
</g>
<!-- room_639&#45;&gt;room_641 -->
<g id="edge65" class="edge">
<title>room_639&#45;&gt;room_641</title>
<path fill="none" stroke="black" d="M1182.02,-887.92C1199.67,-864.29 1226.45,-822.12 1241.63,-794.27"/>
<polygon fill="black" stroke="black" points="1244.91,-795.55 1246.47,-785.08 1238.71,-792.29 1244.91,-795.55"/>
<text text-anchor="middle" x="1209.1" y="-843.9" font-family="Times,serif" font-size="14.00">s</text>
</g>
<!-- room_640 -->
<g id="node30" class="node">
<title>room_640</title>
<ellipse fill="none" stroke="black" cx="1325.7" cy="-943.32" rx="60.79" ry="18"/>
<text text-anchor="middle" x="1325.7" y="-939.12" font-family="Times,serif" font-size="14.00">Orguzar&#39;s Lair</text>
</g>
<!-- room_639&#45;&gt;room_640 -->
<g id="edge66" class="edge">
<title>room_639&#45;&gt;room_640</title>
<path fill="none" stroke="black" d="M1201.44,-919.99C1218.53,-924.88 1239.47,-930.1 1259.26,-934.47"/>
<polygon fill="black" stroke="black" points="1258.65,-937.92 1269.16,-936.6 1260.13,-931.07 1258.65,-937.92"/>
<text text-anchor="middle" x="1227.24" y="-930.03" font-family="Times,serif" font-size="14.00">e</text>
</g>
<!-- room_641&#45;&gt;room_639 -->
<g id="edge72" class="edge">
<title>room_641&#45;&gt;room_639</title>
<path fill="none" stroke="black" d="M1236.22,-783.77C1218.46,-807.45 1191.12,-850.5 1175.88,-878.56"/>
<polygon fill="black" stroke="black" points="1172.76,-876.97 1171.21,-887.45 1178.96,-880.23 1172.76,-876.97"/>
<text text-anchor="middle" x="1202.55" y="-833.97" font-family="Times,serif" font-size="14.00">n</text>
</g>
<!-- room_641&#45;&gt;room_641 -->
<g id="edge73" class="edge">
<title>room_641&#45;&gt;room_641</title>
<path fill="none" stroke="black" d="M1294.65,-773.53C1306.67,-773.26 1315.93,-771.02 1315.93,-766.8 1315.93,-763.9 1311.55,-761.94 1304.91,-760.91"/>
<polygon fill="black" stroke="black" points="1304.9,-757.39 1294.65,-760.08 1304.34,-764.37 1304.9,-757.39"/>
<text text-anchor="middle" x="1319.43" y="-762.6" font-family="Times,serif" font-size="14.00">d</text>
</g>
<!-- room_640&#45;&gt;room_639 -->
<g id="edge70" class="edge">
<title>room_640&#45;&gt;room_639</title>
<path fill="none" stroke="black" d="M1289.39,-928.77C1272.37,-923.91 1251.54,-918.71 1231.84,-914.36"/>
<polygon fill="black" stroke="black" points="1232.49,-910.91 1221.97,-912.22 1231.01,-917.76 1232.49,-910.91"/>
<text text-anchor="middle" x="1255.56" y="-924.36" font-family="Times,serif" font-size="14.00">w</text>
</g>
<!-- room_640&#45;&gt;room_640 -->
<g id="edge71" class="edge">
<title>room_640&#45;&gt;room_640</title>
<path fill="none" stroke="black" d="M1382.44,-949.9C1395.24,-949.31 1404.6,-947.11 1404.6,-943.32 1404.6,-940.65 1399.97,-938.77 1392.77,-937.68"/>
<polygon fill="black" stroke="black" points="1392.72,-934.16 1382.44,-936.73 1392.08,-941.13 1392.72,-934.16"/>
<text text-anchor="middle" x="1408.1" y="-939.12" font-family="Times,serif" font-size="14.00">d</text>
</g>
<!-- room_642 -->
<g id="node31" class="node">
<title>room_642</title>
<ellipse fill="none" stroke="black" cx="1481.41" cy="-932.81" rx="55.17" ry="18"/>
<text text-anchor="middle" x="1481.41" y="-928.61" font-family="Times,serif" font-size="14.00">Well Bottom</text>
</g>
<!-- room_640&#45;&gt;room_642 -->
<g id="edge69" class="edge">
<title>room_640&#45;&gt;room_642</title>
<path fill="none" stroke="black" d="M1386.35,-945.83C1398.66,-945.23 1411.59,-944.34 1423.79,-943.27"/>
<polygon fill="black" stroke="black" points="1424.22,-946.74 1433.85,-942.32 1423.57,-939.77 1424.22,-946.74"/>
<text text-anchor="middle" x="1401.57" y="-947.35" font-family="Times,serif" font-size="14.00">n</text>
</g>
<!-- room_642&#45;&gt;room_640 -->
<g id="edge74" class="edge">
<title>room_642&#45;&gt;room_640</title>
<path fill="none" stroke="black" d="M1426.52,-930.03C1413.76,-930.58 1400.11,-931.45 1387.09,-932.54"/>
<polygon fill="black" stroke="black" points="1386.47,-929.08 1376.82,-933.46 1387.1,-936.05 1386.47,-929.08"/>
<text text-anchor="middle" x="1404.08" y="-920.08" font-family="Times,serif" font-size="14.00">s</text>
</g>
</g>
</svg>
