<?xml version="1.0" encoding="UTF-8" standalone="no"?>
<!DOCTYPE svg PUBLIC "-//W3C//DTD SVG 1.1//EN"
 "http://www.w3.org/Graphics/SVG/1.1/DTD/svg11.dtd">
<!-- Generated by graphviz version 2.42.3 (20191010.1750)
 -->
<!-- Title: monster Pages: 1 -->
<svg width="696pt" height="1049pt"
 viewBox="0.00 0.00 696.13 1048.77" xmlns="http://www.w3.org/2000/svg" xmlns:xlink="http://www.w3.org/1999/xlink">
<g id="graph0" class="graph" transform="scale(1 1) rotate(0) translate(4 1044.77)">
<title>monster</title>
<polygon fill="white" stroke="transparent" points="-4,4 -4,-1044.77 692.13,-1044.77 692.13,4 -4,4"/>
<!-- room_134 -->
<g id="node1" class="node">
<title>room_134</title>
<ellipse fill="none" stroke="black" cx="254.29" cy="-868.4" rx="72.49" ry="18"/>
<text text-anchor="middle" x="254.29" y="-864.2" font-family="Times,serif" font-size="14.00">Sparkling Cavern</text>
</g>
<!-- room_135 -->
<g id="node2" class="node">
<title>room_135</title>
<ellipse fill="none" stroke="black" cx="154.59" cy="-938.57" rx="80.21" ry="18"/>
<text text-anchor="middle" x="154.59" y="-934.37" font-family="Times,serif" font-size="14.00">Rotunda Schlindera</text>
</g>
<!-- room_134&#45;&gt;room_135 -->
<g id="edge1" class="edge">
<title>room_134&#45;&gt;room_135</title>
<path fill="none" stroke="black" d="M220.5,-884.53C206.55,-893.47 190.74,-904.68 178.08,-914.61"/>
<polygon fill="black" stroke="black" points="175.85,-911.91 170.27,-920.91 180.25,-917.36 175.85,-911.91"/>
<text text-anchor="middle" x="195.79" y="-902.37" font-family="Times,serif" font-size="14.00">n</text>
</g>
<!-- room_145 -->
<g id="node3" class="node">
<title>room_145</title>
<ellipse fill="none" stroke="black" cx="352.07" cy="-940.51" rx="79.7" ry="18"/>
<text text-anchor="middle" x="352.07" y="-936.31" font-family="Times,serif" font-size="14.00">Chamber of Echoes</text>
</g>
<!-- room_134&#45;&gt;room_145 -->
<g id="edge2" class="edge">
<title>room_134&#45;&gt;room_145</title>
<path fill="none" stroke="black" d="M269.47,-886.32C280.59,-896.02 296.17,-908 310.82,-918.26"/>
<polygon fill="black" stroke="black" points="309.07,-921.31 319.3,-924.08 313.04,-915.54 309.07,-921.31"/>
<text text-anchor="middle" x="287.04" y="-905.09" font-family="Times,serif" font-size="14.00">e</text>
</g>
<!-- room_141 -->
<g id="node4" class="node">
<title>room_141</title>
<ellipse fill="none" stroke="black" cx="252.72" cy="-747.3" rx="50.28" ry="18"/>
<text text-anchor="middle" x="252.72" y="-743.1" font-family="Times,serif" font-size="14.00">Green Pool</text>
</g>
<!-- room_134&#45;&gt;room_141 -->
<g id="edge3" class="edge">
<title>room_134&#45;&gt;room_141</title>
<path fill="none" stroke="black" d="M259.04,-850.21C260.81,-830.47 260.68,-798.71 258.92,-775.69"/>
<polygon fill="black" stroke="black" points="262.38,-775.12 257.95,-765.49 255.41,-775.77 262.38,-775.12"/>
<text text-anchor="middle" x="253.92" y="-815.75" font-family="Times,serif" font-size="14.00">w</text>
</g>
<!-- room_135&#45;&gt;room_134 -->
<g id="edge5" class="edge">
<title>room_135&#45;&gt;room_134</title>
<path fill="none" stroke="black" d="M188.66,-922.27C202.45,-913.4 218.03,-902.36 230.57,-892.54"/>
<polygon fill="black" stroke="black" points="233.12,-894.98 238.71,-885.98 228.72,-889.53 233.12,-894.98"/>
<text text-anchor="middle" x="206.89" y="-896.2" font-family="Times,serif" font-size="14.00">s</text>
</g>
<!-- room_136 -->
<g id="node5" class="node">
<title>room_136</title>
<ellipse fill="none" stroke="black" cx="68.81" cy="-1012.9" rx="68.61" ry="18"/>
<text text-anchor="middle" x="68.81" y="-1008.7" font-family="Times,serif" font-size="14.00">Split&#45;Level Stair</text>
</g>
<!-- room_135&#45;&gt;room_136 -->
<g id="edge4" class="edge">
<title>room_135&#45;&gt;room_136</title>
<path fill="none" stroke="black" d="M125.73,-955.39C113.48,-964.98 99.54,-977.09 88.49,-987.76"/>
<polygon fill="black" stroke="black" points="85.97,-985.33 81.36,-994.87 90.91,-990.29 85.97,-985.33"/>
<text text-anchor="middle" x="103.61" y="-974.38" font-family="Times,serif" font-size="14.00">n</text>
</g>
<!-- room_145&#45;&gt;room_134 -->
<g id="edge20" class="edge">
<title>room_145&#45;&gt;room_134</title>
<path fill="none" stroke="black" d="M336.89,-922.59C325.68,-912.81 309.95,-900.72 295.19,-890.4"/>
<polygon fill="black" stroke="black" points="296.89,-887.32 286.66,-884.56 292.94,-893.1 296.89,-887.32"/>
<text text-anchor="middle" x="310.99" y="-909.3" font-family="Times,serif" font-size="14.00">w</text>
</g>
<!-- room_694 -->
<g id="node14" class="node">
<title>room_694</title>
<ellipse fill="none" stroke="black" cx="430.54" cy="-1022.77" rx="58.24" ry="18"/>
<text text-anchor="middle" x="430.54" y="-1018.57" font-family="Times,serif" font-size="14.00">Hokka&#39;s Hole</text>
</g>
<!-- room_145&#45;&gt;room_694 -->
<g id="edge19" class="edge">
<title>room_145&#45;&gt;room_694</title>
<path fill="none" stroke="black" d="M361.93,-958.47C371.31,-970.39 385.72,-986.06 398.95,-998.99"/>
<polygon fill="black" stroke="black" points="396.9,-1001.87 406.55,-1006.23 401.72,-996.8 396.9,-1001.87"/>
<text text-anchor="middle" x="377.71" y="-981.53" font-family="Times,serif" font-size="14.00">s</text>
</g>
<!-- room_141&#45;&gt;room_134 -->
<g id="edge11" class="edge">
<title>room_141&#45;&gt;room_134</title>
<path fill="none" stroke="black" d="M248,-765.23C246.2,-784.91 246.32,-816.77 248.09,-839.89"/>
<polygon fill="black" stroke="black" points="244.63,-840.5 249.05,-850.13 251.6,-839.84 244.63,-840.5"/>
<text text-anchor="middle" x="244.94" y="-805.36" font-family="Times,serif" font-size="14.00">e</text>
</g>
<!-- room_140 -->
<g id="node7" class="node">
<title>room_140</title>
<ellipse fill="none" stroke="black" cx="246.31" cy="-633.95" rx="73.17" ry="18"/>
<text text-anchor="middle" x="246.31" y="-629.75" font-family="Times,serif" font-size="14.00">Cascading Waters</text>
</g>
<!-- room_141&#45;&gt;room_140 -->
<g id="edge12" class="edge">
<title>room_141&#45;&gt;room_140</title>
<path fill="none" stroke="black" d="M256.78,-729.3C257.66,-711.19 256.36,-683 253.84,-661.97"/>
<polygon fill="black" stroke="black" points="257.3,-661.43 252.46,-652 250.36,-662.38 257.3,-661.43"/>
<text text-anchor="middle" x="251.81" y="-698.43" font-family="Times,serif" font-size="14.00">u</text>
</g>
<!-- room_136&#45;&gt;room_135 -->
<g id="edge6" class="edge">
<title>room_136&#45;&gt;room_135</title>
<path fill="none" stroke="black" d="M97.19,-996.45C109.47,-986.87 123.51,-974.69 134.67,-963.94"/>
<polygon fill="black" stroke="black" points="137.26,-966.3 141.88,-956.77 132.32,-961.34 137.26,-966.3"/>
<text text-anchor="middle" x="113.21" y="-982.99" font-family="Times,serif" font-size="14.00">s</text>
</g>
<!-- room_138 -->
<g id="node6" class="node">
<title>room_138</title>
<ellipse fill="none" stroke="black" cx="88.78" cy="-593.6" rx="76.35" ry="18"/>
<text text-anchor="middle" x="88.78" y="-589.4" font-family="Times,serif" font-size="14.00">Limestone Curtain</text>
</g>
<!-- room_138&#45;&gt;room_140 -->
<g id="edge7" class="edge">
<title>room_138&#45;&gt;room_140</title>
<path fill="none" stroke="black" d="M126.25,-609.31C140.35,-613.59 156.91,-618.11 173.14,-622.15"/>
<polygon fill="black" stroke="black" points="172.64,-625.63 183.19,-624.6 174.3,-618.83 172.64,-625.63"/>
<text text-anchor="middle" x="144.64" y="-618.53" font-family="Times,serif" font-size="14.00">w</text>
</g>
<!-- room_140&#45;&gt;room_141 -->
<g id="edge10" class="edge">
<title>room_140&#45;&gt;room_141</title>
<path fill="none" stroke="black" d="M242.25,-651.95C241.37,-670.06 242.67,-698.25 245.19,-719.28"/>
<polygon fill="black" stroke="black" points="241.73,-719.82 246.57,-729.25 248.67,-718.87 241.73,-719.82"/>
<text text-anchor="middle" x="240.22" y="-688.42" font-family="Times,serif" font-size="14.00">d</text>
</g>
<!-- room_140&#45;&gt;room_138 -->
<g id="edge8" class="edge">
<title>room_140&#45;&gt;room_138</title>
<path fill="none" stroke="black" d="M209.23,-618.37C195.44,-614.16 179.25,-609.73 163.3,-605.74"/>
<polygon fill="black" stroke="black" points="163.96,-602.3 153.42,-603.31 162.29,-609.1 163.96,-602.3"/>
<text text-anchor="middle" x="183.16" y="-600.85" font-family="Times,serif" font-size="14.00">e</text>
</g>
<!-- room_142 -->
<g id="node8" class="node">
<title>room_142</title>
<ellipse fill="none" stroke="black" cx="296.46" cy="-532.57" rx="68.09" ry="18"/>
<text text-anchor="middle" x="296.46" y="-528.37" font-family="Times,serif" font-size="14.00">Top of Waterfall</text>
</g>
<!-- room_140&#45;&gt;room_142 -->
<g id="edge9" class="edge">
<title>room_140&#45;&gt;room_142</title>
<path fill="none" stroke="black" d="M261.43,-615.89C270.68,-600.48 281.88,-578.13 289.29,-560.44"/>
<polygon fill="black" stroke="black" points="292.74,-561.23 293.16,-550.64 286.23,-558.65 292.74,-561.23"/>
<text text-anchor="middle" x="271.86" y="-590.96" font-family="Times,serif" font-size="14.00">u</text>
</g>
<!-- room_142&#45;&gt;room_140 -->
<g id="edge14" class="edge">
<title>room_142&#45;&gt;room_140</title>
<path fill="none" stroke="black" d="M281.62,-550.16C272.27,-565.65 260.85,-588.42 253.37,-606.33"/>
<polygon fill="black" stroke="black" points="250.09,-605.12 249.66,-615.71 256.6,-607.7 250.09,-605.12"/>
<text text-anchor="middle" x="264" y="-581.04" font-family="Times,serif" font-size="14.00">d</text>
</g>
<!-- room_544 -->
<g id="node9" class="node">
<title>room_544</title>
<ellipse fill="none" stroke="black" cx="344.8" cy="-431.13" rx="64.73" ry="18"/>
<text text-anchor="middle" x="344.8" y="-426.93" font-family="Times,serif" font-size="14.00">Dwarven Gates</text>
</g>
<!-- room_142&#45;&gt;room_544 -->
<g id="edge13" class="edge">
<title>room_142&#45;&gt;room_544</title>
<path fill="none" stroke="black" d="M310.98,-514.89C320.05,-499.37 331.06,-476.59 338.22,-458.69"/>
<polygon fill="black" stroke="black" points="341.49,-459.91 341.76,-449.32 334.95,-457.43 341.49,-459.91"/>
<text text-anchor="middle" x="319.54" y="-489.59" font-family="Times,serif" font-size="14.00">w</text>
</g>
<!-- room_544&#45;&gt;room_142 -->
<g id="edge21" class="edge">
<title>room_544&#45;&gt;room_142</title>
<path fill="none" stroke="black" d="M330.28,-448.81C321.21,-464.33 310.2,-487.11 303.04,-505.01"/>
<polygon fill="black" stroke="black" points="299.76,-503.79 299.5,-514.38 306.31,-506.27 299.76,-503.79"/>
<text text-anchor="middle" x="313.55" y="-465.71" font-family="Times,serif" font-size="14.00">e</text>
</g>
<!-- room_545 -->
<g id="node15" class="node">
<title>room_545</title>
<ellipse fill="none" stroke="black" cx="387.81" cy="-329.13" rx="55.58" ry="18"/>
<text text-anchor="middle" x="387.81" y="-324.93" font-family="Times,serif" font-size="14.00">Granite Stair</text>
</g>
<!-- room_544&#45;&gt;room_545 -->
<g id="edge22" class="edge">
<title>room_544&#45;&gt;room_545</title>
<path fill="none" stroke="black" d="M358.37,-413.12C366.58,-397.52 376.34,-374.74 382.57,-356.83"/>
<polygon fill="black" stroke="black" points="385.94,-357.78 385.71,-347.19 379.28,-355.61 385.94,-357.78"/>
<text text-anchor="middle" x="365.41" y="-387.77" font-family="Times,serif" font-size="14.00">w</text>
</g>
<!-- room_143 -->
<g id="node10" class="node">
<title>room_143</title>
<ellipse fill="none" stroke="black" cx="455.17" cy="-128.48" rx="84.27" ry="18"/>
<text text-anchor="middle" x="455.17" y="-124.28" font-family="Times,serif" font-size="14.00">Gallery of Weaponry</text>
</g>
<!-- room_547 -->
<g id="node11" class="node">
<title>room_547</title>
<ellipse fill="none" stroke="black" cx="422.65" cy="-18" rx="53.2" ry="18"/>
<text text-anchor="middle" x="422.65" y="-13.8" font-family="Times,serif" font-size="14.00">Silver Anvil</text>
</g>
<!-- room_143&#45;&gt;room_547 -->
<g id="edge15" class="edge">
<title>room_143&#45;&gt;room_547</title>
<path fill="none" stroke="black" d="M455.04,-110.29C451.82,-92.6 444.21,-65.55 436.96,-45.29"/>
<polygon fill="black" stroke="black" points="440.14,-43.81 433.34,-35.68 433.59,-46.28 440.14,-43.81"/>
<text text-anchor="middle" x="442.5" y="-80.59" font-family="Times,serif" font-size="14.00">n</text>
</g>
<!-- room_546 -->
<g id="node12" class="node">
<title>room_546</title>
<ellipse fill="none" stroke="black" cx="432.4" cy="-227.68" rx="53.66" ry="18"/>
<text text-anchor="middle" x="432.4" y="-223.48" font-family="Times,serif" font-size="14.00">Onyx Dome</text>
</g>
<!-- room_143&#45;&gt;room_546 -->
<g id="edge16" class="edge">
<title>room_143&#45;&gt;room_546</title>
<path fill="none" stroke="black" d="M445.46,-146.39C440.55,-161.16 435.47,-182.38 432.65,-199.44"/>
<polygon fill="black" stroke="black" points="429.17,-199.03 431.21,-209.43 436.1,-200.03 429.17,-199.03"/>
<text text-anchor="middle" x="435.95" y="-175.71" font-family="Times,serif" font-size="14.00">e</text>
</g>
<!-- room_144 -->
<g id="node13" class="node">
<title>room_144</title>
<ellipse fill="none" stroke="black" cx="617.85" cy="-85.46" rx="70.07" ry="18"/>
<text text-anchor="middle" x="617.85" y="-81.26" font-family="Times,serif" font-size="14.00">Dwarven Smithy</text>
</g>
<!-- room_143&#45;&gt;room_144 -->
<g id="edge17" class="edge">
<title>room_143&#45;&gt;room_144</title>
<path fill="none" stroke="black" d="M522.57,-117.52C539.27,-113.36 556.77,-108.57 572.16,-103.95"/>
<polygon fill="black" stroke="black" points="573.41,-107.23 581.94,-100.94 571.35,-100.54 573.41,-107.23"/>
<text text-anchor="middle" x="542.31" y="-99.54" font-family="Times,serif" font-size="14.00">w</text>
</g>
<!-- room_547&#45;&gt;room_143 -->
<g id="edge27" class="edge">
<title>room_547&#45;&gt;room_143</title>
<path fill="none" stroke="black" d="M422.79,-36.19C425.98,-53.77 433.52,-80.6 440.73,-100.82"/>
<polygon fill="black" stroke="black" points="437.54,-102.29 444.33,-110.43 444.1,-99.83 437.54,-102.29"/>
<text text-anchor="middle" x="429.03" y="-71.31" font-family="Times,serif" font-size="14.00">s</text>
</g>
<!-- room_546&#45;&gt;room_143 -->
<g id="edge25" class="edge">
<title>room_546&#45;&gt;room_143</title>
<path fill="none" stroke="black" d="M442.11,-209.78C447.03,-195 452.11,-173.78 454.92,-156.72"/>
<polygon fill="black" stroke="black" points="458.4,-157.13 456.36,-146.74 451.47,-156.13 458.4,-157.13"/>
<text text-anchor="middle" x="453.57" y="-186.05" font-family="Times,serif" font-size="14.00">w</text>
</g>
<!-- room_546&#45;&gt;room_545 -->
<g id="edge26" class="edge">
<title>room_546&#45;&gt;room_545</title>
<path fill="none" stroke="black" d="M418.56,-245.51C410.1,-261 399.99,-283.65 393.49,-301.49"/>
<polygon fill="black" stroke="black" points="390.13,-300.49 390.2,-311.08 396.75,-302.76 390.13,-300.49"/>
<text text-anchor="middle" x="402.52" y="-276.3" font-family="Times,serif" font-size="14.00">d</text>
</g>
<!-- room_144&#45;&gt;room_143 -->
<g id="edge18" class="edge">
<title>room_144&#45;&gt;room_143</title>
<path fill="none" stroke="black" d="M557.45,-94.7C539.55,-99.03 520.2,-104.23 503.2,-109.29"/>
<polygon fill="black" stroke="black" points="502.03,-105.99 493.48,-112.25 504.07,-112.69 502.03,-105.99"/>
<text text-anchor="middle" x="527.22" y="-90.79" font-family="Times,serif" font-size="14.00">e</text>
</g>
<!-- room_694&#45;&gt;room_145 -->
<g id="edge28" class="edge">
<title>room_694&#45;&gt;room_145</title>
<path fill="none" stroke="black" d="M420.68,-1004.8C411.43,-993.05 397.3,-977.65 384.22,-964.84"/>
<polygon fill="black" stroke="black" points="386.34,-962.02 376.69,-957.63 381.5,-967.07 386.34,-962.02"/>
<text text-anchor="middle" x="398.95" y="-987.62" font-family="Times,serif" font-size="14.00">n</text>
</g>
<!-- room_545&#45;&gt;room_544 -->
<g id="edge23" class="edge">
<title>room_545&#45;&gt;room_544</title>
<path fill="none" stroke="black" d="M374.49,-346.68C366.26,-362.22 356.42,-385.14 350.13,-403.19"/>
<polygon fill="black" stroke="black" points="346.73,-402.31 346.95,-412.91 353.39,-404.49 346.73,-402.31"/>
<text text-anchor="middle" x="359.2" y="-363.73" font-family="Times,serif" font-size="14.00">e</text>
</g>
<!-- room_545&#45;&gt;room_546 -->
<g id="edge24" class="edge">
<title>room_545&#45;&gt;room_546</title>
<path fill="none" stroke="black" d="M401.66,-311.3C410.12,-295.81 420.23,-273.16 426.73,-255.32"/>
<polygon fill="black" stroke="black" points="430.09,-256.32 430.02,-245.73 423.47,-254.05 430.09,-256.32"/>
<text text-anchor="middle" x="410.7" y="-286.11" font-family="Times,serif" font-size="14.00">u</text>
</g>
</g>
</svg>
