<?xml version="1.0" encoding="UTF-8" standalone="no"?>
<!DOCTYPE svg PUBLIC "-//W3C//DTD SVG 1.1//EN"
 "http://www.w3.org/Graphics/SVG/1.1/DTD/svg11.dtd">
<!-- Generated by graphviz version 2.42.3 (20191010.1750)
 -->
<!-- Title: monster Pages: 1 -->
<svg width="906pt" height="672pt"
 viewBox="0.00 0.00 905.61 672.24" xmlns="http://www.w3.org/2000/svg" xmlns:xlink="http://www.w3.org/1999/xlink">
<g id="graph0" class="graph" transform="scale(1 1) rotate(0) translate(4 668.24)">
<title>monster</title>
<polygon fill="white" stroke="transparent" points="-4,4 -4,-668.24 901.61,-668.24 901.61,4 -4,4"/>
<!-- room_64 -->
<g id="node1" class="node">
<title>room_64</title>
<ellipse fill="none" stroke="black" cx="422.34" cy="-380" rx="46.89" ry="18"/>
<text text-anchor="middle" x="422.34" y="-375.8" font-family="Times,serif" font-size="14.00">Valleyside</text>
</g>
<!-- room_705 -->
<g id="node2" class="node">
<title>room_705</title>
<ellipse fill="none" stroke="black" cx="358.64" cy="-509.92" rx="54.15" ry="18"/>
<text text-anchor="middle" x="358.64" y="-505.72" font-family="Times,serif" font-size="14.00">Valley Floor</text>
</g>
<!-- room_64&#45;&gt;room_705 -->
<g id="edge1" class="edge">
<title>room_64&#45;&gt;room_705</title>
<path fill="none" stroke="black" d="M408.33,-397.26C395.29,-418.92 376.79,-456.27 366.21,-482.01"/>
<polygon fill="black" stroke="black" points="362.85,-481 362.45,-491.58 369.37,-483.56 362.85,-481"/>
<text text-anchor="middle" x="383.77" y="-442.43" font-family="Times,serif" font-size="14.00">n</text>
</g>
<!-- room_590 -->
<g id="node3" class="node">
<title>room_590</title>
<ellipse fill="none" stroke="black" cx="530.63" cy="-274.95" rx="58.01" ry="18"/>
<text text-anchor="middle" x="530.63" y="-270.75" font-family="Times,serif" font-size="14.00">Mountain top</text>
</g>
<!-- room_64&#45;&gt;room_590 -->
<g id="edge2" class="edge">
<title>room_64&#45;&gt;room_590</title>
<path fill="none" stroke="black" d="M452.86,-366.04C474.84,-349.22 502.95,-321.65 518.96,-301"/>
<polygon fill="black" stroke="black" points="521.79,-303.05 524.84,-292.9 516.13,-298.94 521.79,-303.05"/>
<text text-anchor="middle" x="483.18" y="-336.32" font-family="Times,serif" font-size="14.00">s</text>
</g>
<!-- room_710 -->
<g id="node4" class="node">
<title>room_710</title>
<ellipse fill="none" stroke="black" cx="501.3" cy="-496.09" rx="49.82" ry="18"/>
<text text-anchor="middle" x="501.3" y="-491.89" font-family="Times,serif" font-size="14.00">Burnt Hills</text>
</g>
<!-- room_64&#45;&gt;room_710 -->
<g id="edge3" class="edge">
<title>room_64&#45;&gt;room_710</title>
<path fill="none" stroke="black" d="M428.75,-397.84C439.44,-417.51 460.5,-449.16 477.28,-471.24"/>
<polygon fill="black" stroke="black" points="474.57,-473.45 483.48,-479.19 480.09,-469.15 474.57,-473.45"/>
<text text-anchor="middle" x="449.52" y="-437.34" font-family="Times,serif" font-size="14.00">d</text>
</g>
<!-- room_705&#45;&gt;room_64 -->
<g id="edge16" class="edge">
<title>room_705&#45;&gt;room_64</title>
<path fill="none" stroke="black" d="M372.82,-492.4C385.87,-470.66 404.3,-433.43 414.82,-407.79"/>
<polygon fill="black" stroke="black" points="418.17,-408.85 418.56,-398.26 411.65,-406.29 418.17,-408.85"/>
<text text-anchor="middle" x="391.09" y="-452.9" font-family="Times,serif" font-size="14.00">s</text>
</g>
<!-- room_705&#45;&gt;room_710 -->
<g id="edge17" class="edge">
<title>room_705&#45;&gt;room_710</title>
<path fill="none" stroke="black" d="M412.8,-511.26C425.06,-510.34 438.03,-509.07 450.16,-507.6"/>
<polygon fill="black" stroke="black" points="450.64,-511.07 460.11,-506.32 449.75,-504.13 450.64,-511.07"/>
<text text-anchor="middle" x="428.37" y="-512.23" font-family="Times,serif" font-size="14.00">e</text>
</g>
<!-- room_733 -->
<g id="node10" class="node">
<title>room_733</title>
<ellipse fill="none" stroke="black" cx="310.81" cy="-646.24" rx="57.5" ry="18"/>
<text text-anchor="middle" x="310.81" y="-642.04" font-family="Times,serif" font-size="14.00">Covered path</text>
</g>
<!-- room_705&#45;&gt;room_733 -->
<g id="edge15" class="edge">
<title>room_705&#45;&gt;room_733</title>
<path fill="none" stroke="black" d="M347.29,-527.55C336.77,-550.61 322.32,-591.21 314.8,-618.42"/>
<polygon fill="black" stroke="black" points="311.41,-617.58 312.28,-628.14 318.18,-619.34 311.41,-617.58"/>
<text text-anchor="middle" x="327.55" y="-575.79" font-family="Times,serif" font-size="14.00">n</text>
</g>
<!-- room_706 -->
<g id="node11" class="node">
<title>room_706</title>
<ellipse fill="none" stroke="black" cx="220.33" cy="-546.58" rx="54.15" ry="18"/>
<text text-anchor="middle" x="220.33" y="-542.38" font-family="Times,serif" font-size="14.00">Shaded Path</text>
</g>
<!-- room_705&#45;&gt;room_706 -->
<g id="edge18" class="edge">
<title>room_705&#45;&gt;room_706</title>
<path fill="none" stroke="black" d="M308.22,-516.58C293.07,-520.18 276.63,-524.59 262.11,-528.98"/>
<polygon fill="black" stroke="black" points="260.91,-525.68 252.4,-532 262.99,-532.37 260.91,-525.68"/>
<text text-anchor="middle" x="280.11" y="-525.58" font-family="Times,serif" font-size="14.00">w</text>
</g>
<!-- room_590&#45;&gt;room_64 -->
<g id="edge12" class="edge">
<title>room_590&#45;&gt;room_64</title>
<path fill="none" stroke="black" d="M498.63,-290.06C476.91,-306.94 449.74,-333.69 434.08,-353.87"/>
<polygon fill="black" stroke="black" points="431.17,-351.92 428.12,-362.07 436.83,-356.04 431.17,-351.92"/>
<text text-anchor="middle" x="462.85" y="-324.76" font-family="Times,serif" font-size="14.00">n</text>
</g>
<!-- room_590&#45;&gt;room_64 -->
<g id="edge13" class="edge">
<title>room_590&#45;&gt;room_64</title>
<path fill="none" stroke="black" d="M512.75,-292.3C494.85,-309.66 467.17,-336.51 447.15,-355.93"/>
<polygon fill="black" stroke="black" points="444.63,-353.5 439.89,-362.98 449.5,-358.53 444.63,-353.5"/>
<text text-anchor="middle" x="474.89" y="-326.92" font-family="Times,serif" font-size="14.00">w</text>
</g>
<!-- room_543 -->
<g id="node5" class="node">
<title>room_543</title>
<ellipse fill="none" stroke="black" cx="688.57" cy="-292.87" rx="67.68" ry="18"/>
<text text-anchor="middle" x="688.57" y="-288.67" font-family="Times,serif" font-size="14.00">Sloping Hillside</text>
</g>
<!-- room_590&#45;&gt;room_543 -->
<g id="edge14" class="edge">
<title>room_590&#45;&gt;room_543</title>
<path fill="none" stroke="black" d="M576.04,-286.35C586.95,-287.97 598.91,-289.51 610.83,-290.84"/>
<polygon fill="black" stroke="black" points="610.5,-294.33 620.82,-291.91 611.24,-287.37 610.5,-294.33"/>
<text text-anchor="middle" x="596.93" y="-291.4" font-family="Times,serif" font-size="14.00">d</text>
</g>
<!-- room_710&#45;&gt;room_64 -->
<g id="edge25" class="edge">
<title>room_710&#45;&gt;room_64</title>
<path fill="none" stroke="black" d="M494.75,-478C484,-458.27 462.99,-426.72 446.27,-404.73"/>
<polygon fill="black" stroke="black" points="449.01,-402.55 440.1,-396.82 443.49,-406.86 449.01,-402.55"/>
<text text-anchor="middle" x="467.01" y="-444.17" font-family="Times,serif" font-size="14.00">u</text>
</g>
<!-- room_710&#45;&gt;room_705 -->
<g id="edge23" class="edge">
<title>room_710&#45;&gt;room_705</title>
<path fill="none" stroke="black" d="M451.58,-494.43C438.96,-495.31 425.33,-496.58 412.51,-498.09"/>
<polygon fill="black" stroke="black" points="411.93,-494.64 402.44,-499.35 412.79,-501.58 411.93,-494.64"/>
<text text-anchor="middle" x="428.55" y="-485.06" font-family="Times,serif" font-size="14.00">n</text>
</g>
<!-- room_711 -->
<g id="node7" class="node">
<title>room_711</title>
<ellipse fill="none" stroke="black" cx="640.36" cy="-440.29" rx="50.29" ry="18"/>
<text text-anchor="middle" x="640.36" y="-436.09" font-family="Times,serif" font-size="14.00">Black Hills</text>
</g>
<!-- room_710&#45;&gt;room_711 -->
<g id="edge24" class="edge">
<title>room_710&#45;&gt;room_711</title>
<path fill="none" stroke="black" d="M542.69,-486.1C562.94,-478.89 587.01,-469.19 606.19,-460.49"/>
<polygon fill="black" stroke="black" points="607.86,-463.57 615.45,-456.18 604.91,-457.22 607.86,-463.57"/>
<text text-anchor="middle" x="571.72" y="-476.09" font-family="Times,serif" font-size="14.00">s</text>
</g>
<!-- room_543&#45;&gt;room_590 -->
<g id="edge7" class="edge">
<title>room_543&#45;&gt;room_590</title>
<path fill="none" stroke="black" d="M638.01,-280.73C625.49,-278.94 611.87,-277.29 598.67,-275.95"/>
<polygon fill="black" stroke="black" points="598.97,-272.46 588.67,-274.98 598.29,-279.43 598.97,-272.46"/>
<text text-anchor="middle" x="614.84" y="-281.14" font-family="Times,serif" font-size="14.00">u</text>
</g>
<!-- room_585 -->
<g id="node6" class="node">
<title>room_585</title>
<ellipse fill="none" stroke="black" cx="836.65" cy="-345.76" rx="60.9" ry="18"/>
<text text-anchor="middle" x="836.65" y="-341.56" font-family="Times,serif" font-size="14.00">Mountain side</text>
</g>
<!-- room_543&#45;&gt;room_585 -->
<g id="edge4" class="edge">
<title>room_543&#45;&gt;room_585</title>
<path fill="none" stroke="black" d="M717.72,-309.25C734.87,-316.48 757.16,-324.79 777.81,-331.73"/>
<polygon fill="black" stroke="black" points="776.88,-335.11 787.47,-334.92 779.07,-328.46 776.88,-335.11"/>
<text text-anchor="middle" x="745.04" y="-323.29" font-family="Times,serif" font-size="14.00">s</text>
</g>
<!-- room_543&#45;&gt;room_711 -->
<g id="edge5" class="edge">
<title>room_543&#45;&gt;room_711</title>
<path fill="none" stroke="black" d="M677.77,-310.67C666.92,-335.88 651.58,-382.16 643.98,-412.07"/>
<polygon fill="black" stroke="black" points="640.55,-411.36 641.63,-421.9 647.36,-412.99 640.55,-411.36"/>
<text text-anchor="middle" x="657.77" y="-364.17" font-family="Times,serif" font-size="14.00">e</text>
</g>
<!-- room_588 -->
<g id="node8" class="node">
<title>room_588</title>
<ellipse fill="none" stroke="black" cx="736.28" cy="-147.68" rx="68.61" ry="18"/>
<text text-anchor="middle" x="736.28" y="-143.48" font-family="Times,serif" font-size="14.00">Mountain Ledge</text>
</g>
<!-- room_543&#45;&gt;room_588 -->
<g id="edge6" class="edge">
<title>room_543&#45;&gt;room_588</title>
<path fill="none" stroke="black" d="M699.43,-275.08C710.14,-250.28 725.18,-205.14 732.68,-175.78"/>
<polygon fill="black" stroke="black" points="736.16,-176.28 735.08,-165.74 729.35,-174.65 736.16,-176.28"/>
<text text-anchor="middle" x="711" y="-228.23" font-family="Times,serif" font-size="14.00">w</text>
</g>
<!-- room_585&#45;&gt;room_543 -->
<g id="edge8" class="edge">
<title>room_585&#45;&gt;room_543</title>
<path fill="none" stroke="black" d="M808.2,-329.68C791.75,-322.71 770.4,-314.71 750.29,-307.87"/>
<polygon fill="black" stroke="black" points="751.14,-304.47 740.54,-304.62 748.92,-311.11 751.14,-304.47"/>
<text text-anchor="middle" x="775.75" y="-307.58" font-family="Times,serif" font-size="14.00">n</text>
</g>
<!-- room_711&#45;&gt;room_710 -->
<g id="edge26" class="edge">
<title>room_711&#45;&gt;room_710</title>
<path fill="none" stroke="black" d="M598.59,-450.42C578.35,-457.64 554.38,-467.31 535.28,-475.98"/>
<polygon fill="black" stroke="black" points="533.65,-472.88 526.06,-480.28 536.61,-479.23 533.65,-472.88"/>
<text text-anchor="middle" x="563.43" y="-466" font-family="Times,serif" font-size="14.00">n</text>
</g>
<!-- room_711&#45;&gt;room_543 -->
<g id="edge27" class="edge">
<title>room_711&#45;&gt;room_543</title>
<path fill="none" stroke="black" d="M651.16,-422.49C662,-397.29 677.35,-351.01 684.95,-321.1"/>
<polygon fill="black" stroke="black" points="688.38,-321.8 687.29,-311.26 681.57,-320.18 688.38,-321.8"/>
<text text-anchor="middle" x="673.11" y="-374.59" font-family="Times,serif" font-size="14.00">w</text>
</g>
<!-- room_588&#45;&gt;room_543 -->
<g id="edge9" class="edge">
<title>room_588&#45;&gt;room_543</title>
<path fill="none" stroke="black" d="M725.42,-165.48C714.71,-190.27 699.67,-235.41 692.17,-264.78"/>
<polygon fill="black" stroke="black" points="688.69,-264.27 689.77,-274.81 695.5,-265.9 688.69,-264.27"/>
<text text-anchor="middle" x="705.69" y="-203.93" font-family="Times,serif" font-size="14.00">e</text>
</g>
<!-- room_589 -->
<g id="node9" class="node">
<title>room_589</title>
<ellipse fill="none" stroke="black" cx="794.67" cy="-18" rx="72.97" ry="18"/>
<text text-anchor="middle" x="794.67" y="-13.8" font-family="Times,serif" font-size="14.00">Crumbling Ledge</text>
</g>
<!-- room_588&#45;&gt;room_589 -->
<g id="edge10" class="edge">
<title>room_588&#45;&gt;room_589</title>
<path fill="none" stroke="black" d="M749.87,-129.77C762.03,-107.94 778.87,-70.9 788.31,-45.46"/>
<polygon fill="black" stroke="black" points="791.61,-46.61 791.64,-36.01 785.01,-44.28 791.61,-46.61"/>
<text text-anchor="middle" x="764.03" y="-90.42" font-family="Times,serif" font-size="14.00">w</text>
</g>
<!-- room_589&#45;&gt;room_588 -->
<g id="edge11" class="edge">
<title>room_589&#45;&gt;room_588</title>
<path fill="none" stroke="black" d="M781.08,-35.91C768.92,-57.74 752.08,-94.78 742.64,-120.22"/>
<polygon fill="black" stroke="black" points="739.34,-119.07 739.3,-129.67 745.94,-121.41 739.34,-119.07"/>
<text text-anchor="middle" x="758.76" y="-66.86" font-family="Times,serif" font-size="14.00">e</text>
</g>
<!-- room_733&#45;&gt;room_705 -->
<g id="edge29" class="edge">
<title>room_733&#45;&gt;room_705</title>
<path fill="none" stroke="black" d="M322.28,-628.33C332.77,-605.29 347.08,-565.08 354.58,-537.97"/>
<polygon fill="black" stroke="black" points="358.06,-538.5 357.18,-527.94 351.28,-536.74 358.06,-538.5"/>
<text text-anchor="middle" x="335.32" y="-585.95" font-family="Times,serif" font-size="14.00">e</text>
</g>
<!-- room_733&#45;&gt;room_706 -->
<g id="edge28" class="edge">
<title>room_733&#45;&gt;room_706</title>
<path fill="none" stroke="black" d="M301.12,-628.2C288.94,-611.96 267.82,-588.12 250.18,-570.35"/>
<polygon fill="black" stroke="black" points="252.45,-567.67 242.87,-563.14 247.53,-572.65 252.45,-567.67"/>
<text text-anchor="middle" x="272.93" y="-602.07" font-family="Times,serif" font-size="14.00">s</text>
</g>
<!-- room_706&#45;&gt;room_705 -->
<g id="edge20" class="edge">
<title>room_706&#45;&gt;room_705</title>
<path fill="none" stroke="black" d="M270.75,-539.93C285.9,-536.33 302.34,-531.92 316.86,-527.53"/>
<polygon fill="black" stroke="black" points="318.05,-530.83 326.56,-524.51 315.98,-524.14 318.05,-530.83"/>
<text text-anchor="middle" x="290.7" y="-536.53" font-family="Times,serif" font-size="14.00">e</text>
</g>
<!-- room_706&#45;&gt;room_733 -->
<g id="edge19" class="edge">
<title>room_706&#45;&gt;room_733</title>
<path fill="none" stroke="black" d="M230.01,-564.62C242.12,-580.76 263.04,-604.4 280.62,-622.14"/>
<polygon fill="black" stroke="black" points="278.33,-624.8 287.91,-629.34 283.25,-619.82 278.33,-624.8"/>
<text text-anchor="middle" x="251.81" y="-596.18" font-family="Times,serif" font-size="14.00">n</text>
</g>
<!-- room_707 -->
<g id="node12" class="node">
<title>room_707</title>
<ellipse fill="none" stroke="black" cx="79.12" cy="-560.49" rx="79.24" ry="18"/>
<text text-anchor="middle" x="79.12" y="-556.29" font-family="Times,serif" font-size="14.00">Steep Embankment</text>
</g>
<!-- room_706&#45;&gt;room_707 -->
<g id="edge21" class="edge">
<title>room_706&#45;&gt;room_707</title>
<path fill="none" stroke="black" d="M166.3,-545.31C160.03,-545.79 153.58,-546.36 147.16,-547.01"/>
<polygon fill="black" stroke="black" points="146.69,-543.54 137.12,-548.08 147.44,-550.5 146.69,-543.54"/>
<text text-anchor="middle" x="161.78" y="-534.96" font-family="Times,serif" font-size="14.00">w</text>
</g>
<!-- room_707&#45;&gt;room_706 -->
<g id="edge22" class="edge">
<title>room_707&#45;&gt;room_706</title>
<path fill="none" stroke="black" d="M158.23,-559.45C160.94,-559.15 163.65,-558.85 166.32,-558.53"/>
<polygon fill="black" stroke="black" points="166.92,-561.98 176.41,-557.26 166.05,-555.04 166.92,-561.98"/>
<text text-anchor="middle" x="165.38" y="-561.79" font-family="Times,serif" font-size="14.00">e</text>
</g>
</g>
</svg>
