<?xml version="1.0" encoding="UTF-8" standalone="no"?>
<!DOCTYPE svg PUBLIC "-//W3C//DTD SVG 1.1//EN"
 "http://www.w3.org/Graphics/SVG/1.1/DTD/svg11.dtd">
<!-- Generated by graphviz version 2.42.3 (20191010.1750)
 -->
<!-- Title: monster Pages: 1 -->
<svg width="878pt" height="666pt"
 viewBox="0.00 0.00 877.91 666.34" xmlns="http://www.w3.org/2000/svg" xmlns:xlink="http://www.w3.org/1999/xlink">
<g id="graph0" class="graph" transform="scale(1 1) rotate(0) translate(4 662.34)">
<title>monster</title>
<polygon fill="white" stroke="transparent" points="-4,4 -4,-662.34 873.91,-662.34 873.91,4 -4,4"/>
<!-- room_5 -->
<g id="node1" class="node">
<title>room_5</title>
<ellipse fill="none" stroke="black" cx="366.66" cy="-640.34" rx="61.99" ry="18"/>
<text text-anchor="middle" x="366.66" y="-636.14" font-family="Times,serif" font-size="14.00">Tu&#39;matei Alras</text>
</g>
<!-- room_571 -->
<g id="node2" class="node">
<title>room_571</title>
<ellipse fill="none" stroke="black" cx="364.81" cy="-478.79" rx="81.64" ry="18"/>
<text text-anchor="middle" x="364.81" y="-474.59" font-family="Times,serif" font-size="14.00">Chamber of Making</text>
</g>
<!-- room_5&#45;&gt;room_571 -->
<g id="edge1" class="edge">
<title>room_5&#45;&gt;room_571</title>
<path fill="none" stroke="black" d="M370.91,-622.07C373.34,-594.04 373,-540.21 370.42,-507.1"/>
<polygon fill="black" stroke="black" points="373.9,-506.78 369.5,-497.14 366.93,-507.42 373.9,-506.78"/>
<text text-anchor="middle" x="367.17" y="-567.39" font-family="Times,serif" font-size="14.00">d</text>
</g>
<!-- room_571&#45;&gt;room_5 -->
<g id="edge12" class="edge">
<title>room_571&#45;&gt;room_5</title>
<path fill="none" stroke="black" d="M360.56,-497.06C358.13,-525.09 358.47,-578.92 361.05,-612.03"/>
<polygon fill="black" stroke="black" points="357.57,-612.35 361.97,-621.99 364.54,-611.71 357.57,-612.35"/>
<text text-anchor="middle" x="357.3" y="-557.34" font-family="Times,serif" font-size="14.00">u</text>
</g>
<!-- room_570 -->
<g id="node5" class="node">
<title>room_570</title>
<ellipse fill="none" stroke="black" cx="389.61" cy="-305.07" rx="81.11" ry="18"/>
<text text-anchor="middle" x="389.61" y="-300.87" font-family="Times,serif" font-size="14.00">Balcony of Twilight</text>
</g>
<!-- room_571&#45;&gt;room_570 -->
<g id="edge13" class="edge">
<title>room_571&#45;&gt;room_570</title>
<path fill="none" stroke="black" d="M371.79,-460.82C379.04,-430.61 388.02,-369.45 390.71,-333.41"/>
<polygon fill="black" stroke="black" points="394.22,-333.29 391.34,-323.1 387.24,-332.87 394.22,-333.29"/>
<text text-anchor="middle" x="377.75" y="-399.91" font-family="Times,serif" font-size="14.00">d</text>
</g>
<!-- room_257 -->
<g id="node3" class="node">
<title>room_257</title>
<ellipse fill="none" stroke="black" cx="525.8" cy="-193.17" rx="83.11" ry="18"/>
<text text-anchor="middle" x="525.8" y="-188.97" font-family="Times,serif" font-size="14.00">Hall of Nightflowers</text>
</g>
<!-- room_725 -->
<g id="node4" class="node">
<title>room_725</title>
<ellipse fill="none" stroke="black" cx="651.54" cy="-93.79" rx="76.36" ry="18"/>
<text text-anchor="middle" x="651.54" y="-89.59" font-family="Times,serif" font-size="14.00">Council Chambers</text>
</g>
<!-- room_257&#45;&gt;room_725 -->
<g id="edge2" class="edge">
<title>room_257&#45;&gt;room_725</title>
<path fill="none" stroke="black" d="M556.28,-176.29C578.86,-160.34 609.05,-136.44 629.38,-118.39"/>
<polygon fill="black" stroke="black" points="631.87,-120.86 636.91,-111.55 627.16,-115.68 631.87,-120.86"/>
<text text-anchor="middle" x="589.33" y="-150.14" font-family="Times,serif" font-size="14.00">n</text>
</g>
<!-- room_257&#45;&gt;room_570 -->
<g id="edge3" class="edge">
<title>room_257&#45;&gt;room_570</title>
<path fill="none" stroke="black" d="M496.41,-210.28C470.85,-229 434.47,-258.9 411.42,-280.19"/>
<polygon fill="black" stroke="black" points="408.73,-277.91 403.86,-287.32 413.53,-283 408.73,-277.91"/>
<text text-anchor="middle" x="451.19" y="-248.04" font-family="Times,serif" font-size="14.00">s</text>
</g>
<!-- room_725&#45;&gt;room_257 -->
<g id="edge15" class="edge">
<title>room_725&#45;&gt;room_257</title>
<path fill="none" stroke="black" d="M621.38,-110.44C598.81,-126.36 568.5,-150.34 548.08,-168.46"/>
<polygon fill="black" stroke="black" points="545.56,-166.02 540.51,-175.34 550.26,-171.21 545.56,-166.02"/>
<text text-anchor="middle" x="582" y="-142.25" font-family="Times,serif" font-size="14.00">s</text>
</g>
<!-- room_726 -->
<g id="node10" class="node">
<title>room_726</title>
<ellipse fill="none" stroke="black" cx="785.64" cy="-18" rx="84.05" ry="18"/>
<text text-anchor="middle" x="785.64" y="-13.8" font-family="Times,serif" font-size="14.00">Wood&#45;King&#39;s Throne</text>
</g>
<!-- room_725&#45;&gt;room_726 -->
<g id="edge14" class="edge">
<title>room_725&#45;&gt;room_726</title>
<path fill="none" stroke="black" d="M691.18,-78.38C712.14,-67.63 737.39,-53.27 756.52,-41.18"/>
<polygon fill="black" stroke="black" points="758.61,-44 765.11,-35.63 754.81,-38.12 758.61,-44"/>
<text text-anchor="middle" x="720.35" y="-62.58" font-family="Times,serif" font-size="14.00">n</text>
</g>
<!-- room_570&#45;&gt;room_571 -->
<g id="edge10" class="edge">
<title>room_570&#45;&gt;room_571</title>
<path fill="none" stroke="black" d="M382.63,-323.05C375.38,-353.25 366.4,-414.41 363.71,-450.45"/>
<polygon fill="black" stroke="black" points="360.2,-450.57 363.08,-460.77 367.18,-451 360.2,-450.57"/>
<text text-anchor="middle" x="369.67" y="-389.55" font-family="Times,serif" font-size="14.00">u</text>
</g>
<!-- room_570&#45;&gt;room_257 -->
<g id="edge7" class="edge">
<title>room_570&#45;&gt;room_257</title>
<path fill="none" stroke="black" d="M418.66,-288.21C444.31,-269.46 481.02,-239.27 504.17,-217.89"/>
<polygon fill="black" stroke="black" points="506.6,-220.41 511.47,-211 501.79,-215.32 506.6,-220.41"/>
<text text-anchor="middle" x="457.92" y="-255.85" font-family="Times,serif" font-size="14.00">n</text>
</g>
<!-- room_569 -->
<g id="node7" class="node">
<title>room_569</title>
<ellipse fill="none" stroke="black" cx="215.28" cy="-296.66" rx="85.02" ry="18"/>
<text text-anchor="middle" x="215.28" y="-292.46" font-family="Times,serif" font-size="14.00">Battlements of Dawn</text>
</g>
<!-- room_570&#45;&gt;room_569 -->
<g id="edge11" class="edge">
<title>room_570&#45;&gt;room_569</title>
<path fill="none" stroke="black" d="M321.53,-295.17C317.73,-294.93 313.88,-294.7 310.01,-294.5"/>
<polygon fill="black" stroke="black" points="309.91,-290.99 299.75,-293.98 309.56,-297.98 309.91,-290.99"/>
<text text-anchor="middle" x="312.27" y="-283.63" font-family="Times,serif" font-size="14.00">d</text>
</g>
<!-- room_729 -->
<g id="node8" class="node">
<title>room_729</title>
<ellipse fill="none" stroke="black" cx="527.24" cy="-397.79" rx="88.9" ry="18"/>
<text text-anchor="middle" x="527.24" y="-393.59" font-family="Times,serif" font-size="14.00">Autumnfire Chambers</text>
</g>
<!-- room_570&#45;&gt;room_729 -->
<g id="edge8" class="edge">
<title>room_570&#45;&gt;room_729</title>
<path fill="none" stroke="black" d="M407.15,-322.86C426.33,-338.03 457.69,-359.65 483.58,-375.85"/>
<polygon fill="black" stroke="black" points="481.77,-378.85 492.12,-381.12 485.44,-372.89 481.77,-378.85"/>
<text text-anchor="middle" x="442.26" y="-352.16" font-family="Times,serif" font-size="14.00">e</text>
</g>
<!-- room_730 -->
<g id="node9" class="node">
<title>room_730</title>
<ellipse fill="none" stroke="black" cx="325.81" cy="-150.63" rx="94.67" ry="18"/>
<text text-anchor="middle" x="325.81" y="-146.43" font-family="Times,serif" font-size="14.00">Chambers of Greydawn</text>
</g>
<!-- room_570&#45;&gt;room_730 -->
<g id="edge9" class="edge">
<title>room_570&#45;&gt;room_730</title>
<path fill="none" stroke="black" d="M386.82,-286.88C378.66,-259.86 358.06,-209.07 342.86,-177.7"/>
<polygon fill="black" stroke="black" points="345.93,-176.01 338.33,-168.63 339.66,-179.14 345.93,-176.01"/>
<text text-anchor="middle" x="359.78" y="-235.09" font-family="Times,serif" font-size="14.00">w</text>
</g>
<!-- room_548 -->
<g id="node6" class="node">
<title>room_548</title>
<ellipse fill="none" stroke="black" cx="56.52" cy="-268.9" rx="56.54" ry="18"/>
<text text-anchor="middle" x="56.52" y="-264.7" font-family="Times,serif" font-size="14.00">Eldren Spyre</text>
</g>
<!-- room_548&#45;&gt;room_569 -->
<g id="edge4" class="edge">
<title>room_548&#45;&gt;room_569</title>
<path fill="none" stroke="black" d="M95.97,-281.86C105.29,-283.9 115.62,-285.96 126.17,-287.9"/>
<polygon fill="black" stroke="black" points="125.88,-291.4 136.34,-289.71 127.11,-284.51 125.88,-291.4"/>
<text text-anchor="middle" x="114.57" y="-287.68" font-family="Times,serif" font-size="14.00">u</text>
</g>
<!-- room_569&#45;&gt;room_570 -->
<g id="edge5" class="edge">
<title>room_569&#45;&gt;room_570</title>
<path fill="none" stroke="black" d="M286.12,-306.73C290.46,-307 294.85,-307.25 299.26,-307.47"/>
<polygon fill="black" stroke="black" points="299.39,-310.98 309.54,-307.95 299.71,-303.99 299.39,-310.98"/>
<text text-anchor="middle" x="289.19" y="-309.9" font-family="Times,serif" font-size="14.00">u</text>
</g>
<!-- room_569&#45;&gt;room_548 -->
<g id="edge6" class="edge">
<title>room_569&#45;&gt;room_548</title>
<path fill="none" stroke="black" d="M167,-281.82C152.95,-278.92 137.36,-276.07 122.42,-273.68"/>
<polygon fill="black" stroke="black" points="122.63,-270.17 112.21,-272.09 121.56,-277.08 122.63,-270.17"/>
<text text-anchor="middle" x="141.21" y="-266.55" font-family="Times,serif" font-size="14.00">d</text>
</g>
<!-- room_729&#45;&gt;room_570 -->
<g id="edge17" class="edge">
<title>room_729&#45;&gt;room_570</title>
<path fill="none" stroke="black" d="M509.7,-380C490.39,-364.73 458.74,-342.92 432.76,-326.69"/>
<polygon fill="black" stroke="black" points="434.55,-323.68 424.19,-321.42 430.88,-329.64 434.55,-323.68"/>
<text text-anchor="middle" x="466.18" y="-356.14" font-family="Times,serif" font-size="14.00">w</text>
</g>
<!-- room_730&#45;&gt;room_570 -->
<g id="edge18" class="edge">
<title>room_730&#45;&gt;room_570</title>
<path fill="none" stroke="black" d="M328.6,-168.82C336.76,-195.83 357.36,-246.63 372.57,-278"/>
<polygon fill="black" stroke="black" points="369.49,-279.68 377.09,-287.07 375.76,-276.56 369.49,-279.68"/>
<text text-anchor="middle" x="347.48" y="-226.21" font-family="Times,serif" font-size="14.00">e</text>
</g>
<!-- room_726&#45;&gt;room_725 -->
<g id="edge16" class="edge">
<title>room_726&#45;&gt;room_725</title>
<path fill="none" stroke="black" d="M744.91,-33.97C724,-44.74 699.04,-58.97 680.18,-70.91"/>
<polygon fill="black" stroke="black" points="678.21,-68.02 671.72,-76.4 682.01,-73.9 678.21,-68.02"/>
<text text-anchor="middle" x="709.82" y="-55.24" font-family="Times,serif" font-size="14.00">s</text>
</g>
<!-- room_727 -->
<g id="node11" class="node">
<title>room_727</title>
<ellipse fill="none" stroke="black" cx="728.86" cy="-313" rx="79.72" ry="18"/>
<text text-anchor="middle" x="728.86" y="-308.8" font-family="Times,serif" font-size="14.00">Hall of MindMirror</text>
</g>
</g>
</svg>
