<?xml version="1.0" encoding="UTF-8" standalone="no"?>
<!DOCTYPE svg PUBLIC "-//W3C//DTD SVG 1.1//EN"
 "http://www.w3.org/Graphics/SVG/1.1/DTD/svg11.dtd">
<!-- Generated by graphviz version 2.42.3 (20191010.1750)
 -->
<!-- Title: monster Pages: 1 -->
<svg width="1326pt" height="850pt"
 viewBox="0.00 0.00 1325.73 850.44" xmlns="http://www.w3.org/2000/svg" xmlns:xlink="http://www.w3.org/1999/xlink">
<g id="graph0" class="graph" transform="scale(1 1) rotate(0) translate(4 846.44)">
<title>monster</title>
<polygon fill="white" stroke="transparent" points="-4,4 -4,-846.44 1321.73,-846.44 1321.73,4 -4,4"/>
<!-- room_100 -->
<g id="node1" class="node">
<title>room_100</title>
<ellipse fill="none" stroke="black" cx="281.04" cy="-162.04" rx="64.72" ry="18"/>
<text text-anchor="middle" x="281.04" y="-157.84" font-family="Times,serif" font-size="14.00">Inner courtyard</text>
</g>
<!-- room_252 -->
<g id="node2" class="node">
<title>room_252</title>
<ellipse fill="none" stroke="black" cx="397.4" cy="-230.43" rx="70.53" ry="18"/>
<text text-anchor="middle" x="397.4" y="-226.23" font-family="Times,serif" font-size="14.00">Great Iron Doors</text>
</g>
<!-- room_100&#45;&gt;room_252 -->
<g id="edge1" class="edge">
<title>room_100&#45;&gt;room_252</title>
<path fill="none" stroke="black" d="M299.93,-179.39C313.51,-188.81 332.43,-200.38 349.99,-210.19"/>
<polygon fill="black" stroke="black" points="348.56,-213.4 359.02,-215.13 351.93,-207.26 348.56,-213.4"/>
<text text-anchor="middle" x="321.46" y="-197.59" font-family="Times,serif" font-size="14.00">n</text>
</g>
<!-- room_709 -->
<g id="node3" class="node">
<title>room_709</title>
<ellipse fill="none" stroke="black" cx="169.65" cy="-95.29" rx="73.15" ry="18"/>
<text text-anchor="middle" x="169.65" y="-91.09" font-family="Times,serif" font-size="14.00">Forgotten fortress</text>
</g>
<!-- room_100&#45;&gt;room_709 -->
<g id="edge2" class="edge">
<title>room_100&#45;&gt;room_709</title>
<path fill="none" stroke="black" d="M262.37,-144.49C249.84,-135.64 232.78,-124.97 216.7,-115.78"/>
<polygon fill="black" stroke="black" points="218.33,-112.68 207.9,-110.84 214.91,-118.79 218.33,-112.68"/>
<text text-anchor="middle" x="236.81" y="-132.93" font-family="Times,serif" font-size="14.00">s</text>
</g>
<!-- room_103 -->
<g id="node4" class="node">
<title>room_103</title>
<ellipse fill="none" stroke="black" cx="174.69" cy="-250.84" rx="58" ry="18"/>
<text text-anchor="middle" x="174.69" y="-246.64" font-family="Times,serif" font-size="14.00">Fortress alley</text>
</g>
<!-- room_100&#45;&gt;room_103 -->
<g id="edge3" class="edge">
<title>room_100&#45;&gt;room_103</title>
<path fill="none" stroke="black" d="M252.38,-178.39C234.37,-191.79 211.63,-210.8 195.37,-226.05"/>
<polygon fill="black" stroke="black" points="192.73,-223.73 187.96,-233.19 197.59,-228.77 192.73,-223.73"/>
<text text-anchor="middle" x="220.77" y="-205.02" font-family="Times,serif" font-size="14.00">e</text>
</g>
<!-- room_105 -->
<g id="node5" class="node">
<title>room_105</title>
<ellipse fill="none" stroke="black" cx="301.31" cy="-24.82" rx="58" ry="18"/>
<text text-anchor="middle" x="301.31" y="-20.62" font-family="Times,serif" font-size="14.00">Fortress alley</text>
</g>
<!-- room_100&#45;&gt;room_105 -->
<g id="edge4" class="edge">
<title>room_100&#45;&gt;room_105</title>
<path fill="none" stroke="black" d="M288.58,-143.95C294.33,-120.83 300.52,-80.56 302.7,-53.3"/>
<polygon fill="black" stroke="black" points="306.2,-53.41 303.35,-43.21 299.22,-52.96 306.2,-53.41"/>
<text text-anchor="middle" x="290.59" y="-101.43" font-family="Times,serif" font-size="14.00">w</text>
</g>
<!-- room_252&#45;&gt;room_100 -->
<g id="edge8" class="edge">
<title>room_252&#45;&gt;room_100</title>
<path fill="none" stroke="black" d="M378.52,-213.08C364.71,-203.51 345.42,-191.72 327.62,-181.82"/>
<polygon fill="black" stroke="black" points="328.94,-178.56 318.49,-176.84 325.59,-184.7 328.94,-178.56"/>
<text text-anchor="middle" x="350.34" y="-200.25" font-family="Times,serif" font-size="14.00">s</text>
</g>
<!-- room_732 -->
<g id="node6" class="node">
<title>room_732</title>
<ellipse fill="none" stroke="black" cx="516.36" cy="-291.24" rx="66.68" ry="18"/>
<text text-anchor="middle" x="516.36" y="-287.04" font-family="Times,serif" font-size="14.00">marble columns</text>
</g>
<!-- room_252&#45;&gt;room_732 -->
<g id="edge7" class="edge">
<title>room_252&#45;&gt;room_732</title>
<path fill="none" stroke="black" d="M418.95,-247.68C431.87,-255.45 448.86,-264.54 465.04,-272.46"/>
<polygon fill="black" stroke="black" points="463.9,-275.8 474.43,-276.97 466.93,-269.49 463.9,-275.8"/>
<text text-anchor="middle" x="438.49" y="-262.87" font-family="Times,serif" font-size="14.00">n</text>
</g>
<!-- room_709&#45;&gt;room_100 -->
<g id="edge12" class="edge">
<title>room_709&#45;&gt;room_100</title>
<path fill="none" stroke="black" d="M188.33,-112.84C201.16,-121.91 218.76,-132.88 235.18,-142.22"/>
<polygon fill="black" stroke="black" points="233.7,-145.41 244.14,-147.22 237.11,-139.3 233.7,-145.41"/>
<text text-anchor="middle" x="208.25" y="-130.33" font-family="Times,serif" font-size="14.00">n</text>
</g>
<!-- room_708 -->
<g id="node9" class="node">
<title>room_708</title>
<ellipse fill="none" stroke="black" cx="71.76" cy="-18" rx="71.51" ry="18"/>
<text text-anchor="middle" x="71.76" y="-13.8" font-family="Times,serif" font-size="14.00">Fortress Meadow</text>
</g>
<!-- room_709&#45;&gt;room_708 -->
<g id="edge13" class="edge">
<title>room_709&#45;&gt;room_708</title>
<path fill="none" stroke="black" d="M167.55,-77.17C160.62,-64.91 145.56,-49.94 129.28,-37.69"/>
<polygon fill="black" stroke="black" points="130.86,-34.52 120.69,-31.56 126.79,-40.21 130.86,-34.52"/>
<text text-anchor="middle" x="145.69" y="-60.23" font-family="Times,serif" font-size="14.00">s</text>
</g>
<!-- room_709&#45;&gt;room_708 -->
<g id="edge14" class="edge">
<title>room_709&#45;&gt;room_708</title>
<path fill="none" stroke="black" d="M120.73,-81.74C104.95,-71.09 89.2,-57.09 79.49,-44.48"/>
<polygon fill="black" stroke="black" points="82.29,-42.38 73.81,-36.04 76.49,-46.29 82.29,-42.38"/>
<text text-anchor="middle" x="97" y="-65.91" font-family="Times,serif" font-size="14.00">e</text>
</g>
<!-- room_103&#45;&gt;room_100 -->
<g id="edge5" class="edge">
<title>room_103&#45;&gt;room_100</title>
<path fill="none" stroke="black" d="M202.8,-234.91C220.8,-221.55 243.72,-202.42 260.13,-187.05"/>
<polygon fill="black" stroke="black" points="262.84,-189.31 267.62,-179.85 257.98,-184.26 262.84,-189.31"/>
<text text-anchor="middle" x="236.52" y="-213.78" font-family="Times,serif" font-size="14.00">w</text>
</g>
<!-- room_105&#45;&gt;room_100 -->
<g id="edge6" class="edge">
<title>room_105&#45;&gt;room_100</title>
<path fill="none" stroke="black" d="M293.77,-42.91C288.02,-66.03 281.83,-106.31 279.65,-133.56"/>
<polygon fill="black" stroke="black" points="276.15,-133.45 279,-143.66 283.13,-133.9 276.15,-133.45"/>
<text text-anchor="middle" x="283.6" y="-77.04" font-family="Times,serif" font-size="14.00">e</text>
</g>
<!-- room_732&#45;&gt;room_252 -->
<g id="edge16" class="edge">
<title>room_732&#45;&gt;room_252</title>
<path fill="none" stroke="black" d="M495.08,-274.16C482.3,-266.45 465.45,-257.41 449.34,-249.51"/>
<polygon fill="black" stroke="black" points="450.51,-246.19 439.99,-245 447.48,-252.5 450.51,-246.19"/>
<text text-anchor="middle" x="474.94" y="-250.63" font-family="Times,serif" font-size="14.00">s</text>
</g>
<!-- room_734 -->
<g id="node10" class="node">
<title>room_734</title>
<ellipse fill="none" stroke="black" cx="647.02" cy="-339.86" rx="61.35" ry="18"/>
<text text-anchor="middle" x="647.02" y="-335.66" font-family="Times,serif" font-size="14.00">Great Landing</text>
</g>
<!-- room_732&#45;&gt;room_734 -->
<g id="edge15" class="edge">
<title>room_732&#45;&gt;room_734</title>
<path fill="none" stroke="black" d="M544,-307.67C557.11,-313.43 573.3,-319.79 588.94,-325.38"/>
<polygon fill="black" stroke="black" points="587.97,-328.75 598.56,-328.75 590.28,-322.14 587.97,-328.75"/>
<text text-anchor="middle" x="562.97" y="-319.32" font-family="Times,serif" font-size="14.00">n</text>
</g>
<!-- room_704 -->
<g id="node7" class="node">
<title>room_704</title>
<ellipse fill="none" stroke="black" cx="1262.07" cy="-537.45" rx="55.82" ry="18"/>
<text text-anchor="middle" x="1262.07" y="-533.25" font-family="Times,serif" font-size="14.00">Top of tower</text>
</g>
<!-- room_750 -->
<g id="node8" class="node">
<title>room_750</title>
<ellipse fill="none" stroke="black" cx="1140.15" cy="-497.44" rx="47.86" ry="18"/>
<text text-anchor="middle" x="1140.15" y="-493.24" font-family="Times,serif" font-size="14.00">East tower</text>
</g>
<!-- room_704&#45;&gt;room_750 -->
<g id="edge9" class="edge">
<title>room_704&#45;&gt;room_750</title>
<path fill="none" stroke="black" d="M1233.78,-521.94C1221.86,-517.27 1207.58,-512.32 1193.81,-508.02"/>
<polygon fill="black" stroke="black" points="1194.49,-504.57 1183.91,-505.02 1192.46,-511.27 1194.49,-504.57"/>
<text text-anchor="middle" x="1210.29" y="-503.78" font-family="Times,serif" font-size="14.00">d</text>
</g>
<!-- room_750&#45;&gt;room_704 -->
<g id="edge54" class="edge">
<title>room_750&#45;&gt;room_704</title>
<path fill="none" stroke="black" d="M1166.92,-512.35C1177.81,-516.67 1190.84,-521.26 1203.71,-525.39"/>
<polygon fill="black" stroke="black" points="1202.9,-528.8 1213.49,-528.43 1204.98,-522.12 1202.9,-528.8"/>
<text text-anchor="middle" x="1181.82" y="-521.67" font-family="Times,serif" font-size="14.00">u</text>
</g>
<!-- room_749 -->
<g id="node25" class="node">
<title>room_749</title>
<ellipse fill="none" stroke="black" cx="1019.35" cy="-561.71" rx="55.58" ry="18"/>
<text text-anchor="middle" x="1019.35" y="-557.51" font-family="Times,serif" font-size="14.00">long passage</text>
</g>
<!-- room_750&#45;&gt;room_749 -->
<g id="edge53" class="edge">
<title>room_750&#45;&gt;room_749</title>
<path fill="none" stroke="black" d="M1104.61,-509.47C1086.73,-517.95 1065.34,-529.34 1048.45,-539.4"/>
<polygon fill="black" stroke="black" points="1046.29,-536.62 1039.58,-544.82 1049.94,-542.59 1046.29,-536.62"/>
<text text-anchor="middle" x="1073.8" y="-527.24" font-family="Times,serif" font-size="14.00">s</text>
</g>
<!-- room_751 -->
<g id="node26" class="node">
<title>room_751</title>
<ellipse fill="none" stroke="black" cx="1136.04" cy="-364.22" rx="60.38" ry="18"/>
<text text-anchor="middle" x="1136.04" y="-360.02" font-family="Times,serif" font-size="14.00">secret passage</text>
</g>
<!-- room_750&#45;&gt;room_751 -->
<g id="edge55" class="edge">
<title>room_750&#45;&gt;room_751</title>
<path fill="none" stroke="black" d="M1144.38,-479.33C1145.99,-456.91 1145.08,-418.49 1142.54,-392.26"/>
<polygon fill="black" stroke="black" points="1146.01,-391.72 1141.4,-382.18 1139.05,-392.51 1146.01,-391.72"/>
<text text-anchor="middle" x="1139.96" y="-438.59" font-family="Times,serif" font-size="14.00">d</text>
</g>
<!-- room_708&#45;&gt;room_709 -->
<g id="edge10" class="edge">
<title>room_708&#45;&gt;room_709</title>
<path fill="none" stroke="black" d="M85.96,-35.99C97.77,-47.04 115.02,-61.17 130.83,-72.91"/>
<polygon fill="black" stroke="black" points="128.78,-75.75 138.92,-78.8 132.9,-70.09 128.78,-75.75"/>
<text text-anchor="middle" x="104.9" y="-57.25" font-family="Times,serif" font-size="14.00">n</text>
</g>
<!-- room_708&#45;&gt;room_709 -->
<g id="edge11" class="edge">
<title>room_708&#45;&gt;room_709</title>
<path fill="none" stroke="black" d="M102.28,-34.34C117.24,-44.98 134.84,-58.93 148.34,-70.85"/>
<polygon fill="black" stroke="black" points="146.01,-73.46 155.76,-77.6 150.72,-68.28 146.01,-73.46"/>
<text text-anchor="middle" x="120.26" y="-55.4" font-family="Times,serif" font-size="14.00">w</text>
</g>
<!-- room_734&#45;&gt;room_732 -->
<g id="edge17" class="edge">
<title>room_734&#45;&gt;room_732</title>
<path fill="none" stroke="black" d="M619.7,-323.57C607.14,-318.04 591.72,-311.95 576.65,-306.51"/>
<polygon fill="black" stroke="black" points="577.43,-303.08 566.84,-303.04 575.1,-309.68 577.43,-303.08"/>
<text text-anchor="middle" x="595.45" y="-303.84" font-family="Times,serif" font-size="14.00">s</text>
</g>
<!-- room_735 -->
<g id="node11" class="node">
<title>room_735</title>
<ellipse fill="none" stroke="black" cx="626.38" cy="-472.93" rx="67.18" ry="18"/>
<text text-anchor="middle" x="626.38" y="-468.73" font-family="Times,serif" font-size="14.00">Hall of Portraits</text>
</g>
<!-- room_734&#45;&gt;room_735 -->
<g id="edge18" class="edge">
<title>room_734&#45;&gt;room_735</title>
<path fill="none" stroke="black" d="M639.29,-357.9C633.56,-380.22 627.39,-418.48 625.11,-444.71"/>
<polygon fill="black" stroke="black" points="621.62,-444.57 624.41,-454.79 628.6,-445.06 621.62,-444.57"/>
<text text-anchor="middle" x="629.1" y="-404.1" font-family="Times,serif" font-size="14.00">e</text>
</g>
<!-- room_736 -->
<g id="node12" class="node">
<title>room_736</title>
<ellipse fill="none" stroke="black" cx="717.67" cy="-209.33" rx="62.87" ry="18"/>
<text text-anchor="middle" x="717.67" y="-205.13" font-family="Times,serif" font-size="14.00">Room of Arms</text>
</g>
<!-- room_734&#45;&gt;room_736 -->
<g id="edge19" class="edge">
<title>room_734&#45;&gt;room_736</title>
<path fill="none" stroke="black" d="M662.33,-322.15C676.72,-300.09 697.32,-262.29 709.1,-236.55"/>
<polygon fill="black" stroke="black" points="712.33,-237.9 713.15,-227.34 705.92,-235.08 712.33,-237.9"/>
<text text-anchor="middle" x="680.66" y="-282.15" font-family="Times,serif" font-size="14.00">w</text>
</g>
<!-- room_737 -->
<g id="node13" class="node">
<title>room_737</title>
<ellipse fill="none" stroke="black" cx="763.74" cy="-421.89" rx="75.38" ry="18"/>
<text text-anchor="middle" x="763.74" y="-417.69" font-family="Times,serif" font-size="14.00">Landing Overlook</text>
</g>
<!-- room_734&#45;&gt;room_737 -->
<g id="edge20" class="edge">
<title>room_734&#45;&gt;room_737</title>
<path fill="none" stroke="black" d="M663.32,-357.63C678.41,-370.14 701.38,-386.78 721.57,-400.06"/>
<polygon fill="black" stroke="black" points="719.72,-403.03 730.02,-405.52 723.52,-397.16 719.72,-403.03"/>
<text text-anchor="middle" x="688.95" y="-381.65" font-family="Times,serif" font-size="14.00">u</text>
</g>
<!-- room_735&#45;&gt;room_734 -->
<g id="edge23" class="edge">
<title>room_735&#45;&gt;room_734</title>
<path fill="none" stroke="black" d="M634.11,-454.89C639.84,-432.57 646.01,-394.31 648.29,-368.08"/>
<polygon fill="black" stroke="black" points="651.79,-368.22 649,-358 644.8,-367.73 651.79,-368.22"/>
<text text-anchor="middle" x="646.26" y="-414.29" font-family="Times,serif" font-size="14.00">w</text>
</g>
<!-- room_741 -->
<g id="node14" class="node">
<title>room_741</title>
<ellipse fill="none" stroke="black" cx="766.93" cy="-485.16" rx="65.27" ry="18"/>
<text text-anchor="middle" x="766.93" y="-480.96" font-family="Times,serif" font-size="14.00">Hall of Treaties</text>
</g>
<!-- room_735&#45;&gt;room_741 -->
<g id="edge21" class="edge">
<title>room_735&#45;&gt;room_741</title>
<path fill="none" stroke="black" d="M679.35,-484.14C683.33,-484.57 687.39,-484.98 691.47,-485.36"/>
<polygon fill="black" stroke="black" points="691.38,-488.86 701.64,-486.23 691.98,-481.89 691.38,-488.86"/>
<text text-anchor="middle" x="681.91" y="-487.55" font-family="Times,serif" font-size="14.00">n</text>
</g>
<!-- room_738 -->
<g id="node15" class="node">
<title>room_738</title>
<ellipse fill="none" stroke="black" cx="554.14" cy="-592.46" rx="60.48" ry="18"/>
<text text-anchor="middle" x="554.14" y="-588.26" font-family="Times,serif" font-size="14.00">Warrior Study</text>
</g>
<!-- room_735&#45;&gt;room_738 -->
<g id="edge22" class="edge">
<title>room_735&#45;&gt;room_738</title>
<path fill="none" stroke="black" d="M609.66,-490.51C595.55,-510.15 576.11,-542.08 564.22,-565.01"/>
<polygon fill="black" stroke="black" points="560.95,-563.71 559.62,-574.22 567.22,-566.84 560.95,-563.71"/>
<text text-anchor="middle" x="583.83" y="-530.56" font-family="Times,serif" font-size="14.00">e</text>
</g>
<!-- room_736&#45;&gt;room_734 -->
<g id="edge25" class="edge">
<title>room_736&#45;&gt;room_734</title>
<path fill="none" stroke="black" d="M702.36,-227.04C687.98,-249.1 667.37,-286.9 655.59,-312.64"/>
<polygon fill="black" stroke="black" points="652.36,-311.29 651.54,-321.85 658.77,-314.11 652.36,-311.29"/>
<text text-anchor="middle" x="675.87" y="-258.64" font-family="Times,serif" font-size="14.00">e</text>
</g>
<!-- room_745 -->
<g id="node16" class="node">
<title>room_745</title>
<ellipse fill="none" stroke="black" cx="845.83" cy="-146.96" rx="67.69" ry="18"/>
<text text-anchor="middle" x="845.83" y="-142.76" font-family="Times,serif" font-size="14.00">Weapon Gallery</text>
</g>
<!-- room_736&#45;&gt;room_745 -->
<g id="edge24" class="edge">
<title>room_736&#45;&gt;room_745</title>
<path fill="none" stroke="black" d="M759.57,-195.92C777.22,-188.1 797.43,-178.19 813.86,-169.27"/>
<polygon fill="black" stroke="black" points="816.02,-172.07 823.05,-164.15 812.61,-165.96 816.02,-172.07"/>
<text text-anchor="middle" x="783.21" y="-171.39" font-family="Times,serif" font-size="14.00">n</text>
</g>
<!-- room_746 -->
<g id="node17" class="node">
<title>room_746</title>
<ellipse fill="none" stroke="black" cx="698.89" cy="-76.94" rx="62.83" ry="18"/>
<text text-anchor="middle" x="698.89" y="-72.74" font-family="Times,serif" font-size="14.00">Caved in room</text>
</g>
<!-- room_736&#45;&gt;room_746 -->
<g id="edge26" class="edge">
<title>room_736&#45;&gt;room_746</title>
<path fill="none" stroke="black" d="M719.89,-191.08C719.06,-168.88 714.02,-131.15 708.66,-105.18"/>
<polygon fill="black" stroke="black" points="712.02,-104.19 706.43,-95.19 705.19,-105.71 712.02,-104.19"/>
<text text-anchor="middle" x="709.22" y="-150.93" font-family="Times,serif" font-size="14.00">w</text>
</g>
<!-- room_737&#45;&gt;room_734 -->
<g id="edge28" class="edge">
<title>room_737&#45;&gt;room_734</title>
<path fill="none" stroke="black" d="M747.44,-404.12C732.04,-391.35 708.4,-374.26 687.91,-360.85"/>
<polygon fill="black" stroke="black" points="689.66,-357.81 679.35,-355.35 685.87,-363.7 689.66,-357.81"/>
<text text-anchor="middle" x="714.17" y="-385.28" font-family="Times,serif" font-size="14.00">d</text>
</g>
<!-- room_747 -->
<g id="node18" class="node">
<title>room_747</title>
<ellipse fill="none" stroke="black" cx="880.57" cy="-536.36" rx="65.71" ry="18"/>
<text text-anchor="middle" x="880.57" y="-532.16" font-family="Times,serif" font-size="14.00">Sentry Quarters</text>
</g>
<!-- room_737&#45;&gt;room_747 -->
<g id="edge27" class="edge">
<title>room_737&#45;&gt;room_747</title>
<path fill="none" stroke="black" d="M775.27,-439.72C792.18,-459.49 823.97,-491.2 848.27,-512.93"/>
<polygon fill="black" stroke="black" points="846.04,-515.63 855.86,-519.6 850.66,-510.37 846.04,-515.63"/>
<text text-anchor="middle" x="806.71" y="-465.13" font-family="Times,serif" font-size="14.00">w</text>
</g>
<!-- room_741&#45;&gt;room_735 -->
<g id="edge35" class="edge">
<title>room_741&#45;&gt;room_735</title>
<path fill="none" stroke="black" d="M715.17,-474.08C711.44,-473.67 707.64,-473.28 703.81,-472.92"/>
<polygon fill="black" stroke="black" points="703.92,-469.41 693.65,-472.02 703.3,-476.39 703.92,-469.41"/>
<text text-anchor="middle" x="706.77" y="-462.3" font-family="Times,serif" font-size="14.00">s</text>
</g>
<!-- room_742 -->
<g id="node21" class="node">
<title>room_742</title>
<ellipse fill="none" stroke="black" cx="902.25" cy="-390.14" rx="55.1" ry="18"/>
<text text-anchor="middle" x="902.25" y="-385.94" font-family="Times,serif" font-size="14.00">Hall of Faith</text>
</g>
<!-- room_741&#45;&gt;room_742 -->
<g id="edge34" class="edge">
<title>room_741&#45;&gt;room_742</title>
<path fill="none" stroke="black" d="M799.21,-469.4C823.48,-454.19 856.15,-431.2 878.18,-413.81"/>
<polygon fill="black" stroke="black" points="880.47,-416.46 886.05,-407.45 876.08,-411.01 880.47,-416.46"/>
<text text-anchor="middle" x="835.19" y="-444.41" font-family="Times,serif" font-size="14.00">n</text>
</g>
<!-- room_738&#45;&gt;room_735 -->
<g id="edge30" class="edge">
<title>room_738&#45;&gt;room_735</title>
<path fill="none" stroke="black" d="M570.68,-575.14C584.77,-555.56 604.29,-523.52 616.25,-500.5"/>
<polygon fill="black" stroke="black" points="619.53,-501.77 620.87,-491.26 613.27,-498.64 619.53,-501.77"/>
<text text-anchor="middle" x="598.52" y="-540.62" font-family="Times,serif" font-size="14.00">w</text>
</g>
<!-- room_739 -->
<g id="node19" class="node">
<title>room_739</title>
<ellipse fill="none" stroke="black" cx="496.4" cy="-710.73" rx="77.76" ry="18"/>
<text text-anchor="middle" x="496.4" y="-706.53" font-family="Times,serif" font-size="14.00">Library of warriors</text>
</g>
<!-- room_738&#45;&gt;room_739 -->
<g id="edge29" class="edge">
<title>room_738&#45;&gt;room_739</title>
<path fill="none" stroke="black" d="M539.81,-609.98C528.24,-629.3 512.82,-660.56 503.58,-683.16"/>
<polygon fill="black" stroke="black" points="500.29,-681.97 499.93,-692.56 506.82,-684.51 500.29,-681.97"/>
<text text-anchor="middle" x="518.2" y="-649.37" font-family="Times,serif" font-size="14.00">n</text>
</g>
<!-- room_745&#45;&gt;room_736 -->
<g id="edge43" class="edge">
<title>room_745&#45;&gt;room_736</title>
<path fill="none" stroke="black" d="M802.51,-161C784.94,-168.83 765.04,-178.63 748.93,-187.41"/>
<polygon fill="black" stroke="black" points="746.94,-184.51 739.92,-192.44 750.36,-190.62 746.94,-184.51"/>
<text text-anchor="middle" x="772.99" y="-177.01" font-family="Times,serif" font-size="14.00">s</text>
</g>
<!-- room_744 -->
<g id="node23" class="node">
<title>room_744</title>
<ellipse fill="none" stroke="black" cx="977.68" cy="-170.58" rx="50.3" ry="18"/>
<text text-anchor="middle" x="977.68" y="-166.38" font-family="Times,serif" font-size="14.00">High Court</text>
</g>
<!-- room_745&#45;&gt;room_744 -->
<g id="edge42" class="edge">
<title>room_745&#45;&gt;room_744</title>
<path fill="none" stroke="black" d="M888.24,-161.05C897.54,-163.03 907.55,-164.94 917.4,-166.61"/>
<polygon fill="black" stroke="black" points="917.13,-170.11 927.56,-168.25 918.25,-163.2 917.13,-170.11"/>
<text text-anchor="middle" x="899.32" y="-166.63" font-family="Times,serif" font-size="14.00">n</text>
</g>
<!-- room_746&#45;&gt;room_736 -->
<g id="edge44" class="edge">
<title>room_746&#45;&gt;room_736</title>
<path fill="none" stroke="black" d="M696.68,-95.19C697.51,-117.39 702.55,-155.12 707.91,-181.09"/>
<polygon fill="black" stroke="black" points="704.55,-182.08 710.14,-191.08 711.38,-180.56 704.55,-182.08"/>
<text text-anchor="middle" x="699.19" y="-140.94" font-family="Times,serif" font-size="14.00">e</text>
</g>
<!-- room_747&#45;&gt;room_737 -->
<g id="edge46" class="edge">
<title>room_747&#45;&gt;room_737</title>
<path fill="none" stroke="black" d="M869.05,-518.53C852.24,-498.88 820.73,-467.43 796.49,-445.71"/>
<polygon fill="black" stroke="black" points="798.72,-443.02 788.9,-439.03 794.1,-448.27 798.72,-443.02"/>
<text text-anchor="middle" x="835.88" y="-484.92" font-family="Times,serif" font-size="14.00">e</text>
</g>
<!-- room_748 -->
<g id="node24" class="node">
<title>room_748</title>
<ellipse fill="none" stroke="black" cx="944.26" cy="-648.76" rx="66.67" ry="18"/>
<text text-anchor="middle" x="944.26" y="-644.56" font-family="Times,serif" font-size="14.00">sentry2 quarters</text>
</g>
<!-- room_747&#45;&gt;room_748 -->
<g id="edge45" class="edge">
<title>room_747&#45;&gt;room_748</title>
<path fill="none" stroke="black" d="M885.21,-554.38C893.29,-572.81 909.12,-601.56 922.48,-622.5"/>
<polygon fill="black" stroke="black" points="919.61,-624.51 928.02,-630.95 925.46,-620.67 919.61,-624.51"/>
<text text-anchor="middle" x="900.35" y="-591.24" font-family="Times,serif" font-size="14.00">n</text>
</g>
<!-- room_747&#45;&gt;room_749 -->
<g id="edge47" class="edge">
<title>room_747&#45;&gt;room_749</title>
<path fill="none" stroke="black" d="M922.21,-550.36C932.39,-552.6 943.52,-554.78 954.5,-556.71"/>
<polygon fill="black" stroke="black" points="954.06,-560.18 964.5,-558.4 955.23,-553.28 954.06,-560.18"/>
<text text-anchor="middle" x="943.41" y="-556.33" font-family="Times,serif" font-size="14.00">w</text>
</g>
<!-- room_739&#45;&gt;room_738 -->
<g id="edge32" class="edge">
<title>room_739&#45;&gt;room_738</title>
<path fill="none" stroke="black" d="M510.88,-692.95C522.45,-673.58 537.82,-642.41 547.01,-619.9"/>
<polygon fill="black" stroke="black" points="550.28,-621.13 550.64,-610.55 543.76,-618.6 550.28,-621.13"/>
<text text-anchor="middle" x="526.22" y="-659.23" font-family="Times,serif" font-size="14.00">s</text>
</g>
<!-- room_740 -->
<g id="node20" class="node">
<title>room_740</title>
<ellipse fill="none" stroke="black" cx="442.04" cy="-824.44" rx="63.3" ry="18"/>
<text text-anchor="middle" x="442.04" y="-820.24" font-family="Times,serif" font-size="14.00">Alchemy room</text>
</g>
<!-- room_739&#45;&gt;room_740 -->
<g id="edge31" class="edge">
<title>room_739&#45;&gt;room_740</title>
<path fill="none" stroke="black" d="M482.03,-728.51C471.32,-746.78 457.47,-775.42 448.97,-796.67"/>
<polygon fill="black" stroke="black" points="445.65,-795.55 445.37,-806.14 452.19,-798.04 445.65,-795.55"/>
<text text-anchor="middle" x="462" y="-765.39" font-family="Times,serif" font-size="14.00">n</text>
</g>
<!-- room_740&#45;&gt;room_739 -->
<g id="edge33" class="edge">
<title>room_740&#45;&gt;room_739</title>
<path fill="none" stroke="black" d="M456.41,-806.65C467.12,-788.38 480.97,-759.75 489.47,-738.5"/>
<polygon fill="black" stroke="black" points="492.79,-739.62 493.07,-729.03 486.24,-737.13 492.79,-739.62"/>
<text text-anchor="middle" x="470.21" y="-775.37" font-family="Times,serif" font-size="14.00">s</text>
</g>
<!-- room_742&#45;&gt;room_741 -->
<g id="edge36" class="edge">
<title>room_742&#45;&gt;room_741</title>
<path fill="none" stroke="black" d="M871,-405.25C846.77,-420.37 813.72,-443.58 791.39,-461.18"/>
<polygon fill="black" stroke="black" points="788.99,-458.62 783.4,-467.62 793.38,-464.07 788.99,-458.62"/>
<text text-anchor="middle" x="828.47" y="-436.02" font-family="Times,serif" font-size="14.00">s</text>
</g>
<!-- room_743 -->
<g id="node22" class="node">
<title>room_743</title>
<ellipse fill="none" stroke="black" cx="1018.5" cy="-300.24" rx="69.09" ry="18"/>
<text text-anchor="middle" x="1018.5" y="-296.04" font-family="Times,serif" font-size="14.00">Clandestine Hall</text>
</g>
<!-- room_742&#45;&gt;room_743 -->
<g id="edge37" class="edge">
<title>room_742&#45;&gt;room_743</title>
<path fill="none" stroke="black" d="M931.55,-374.72C951.52,-360.99 977.53,-340.89 995.92,-324.96"/>
<polygon fill="black" stroke="black" points="998.63,-327.24 1003.78,-317.98 993.98,-322 998.63,-327.24"/>
<text text-anchor="middle" x="958.68" y="-352.64" font-family="Times,serif" font-size="14.00">w</text>
</g>
<!-- room_743&#45;&gt;room_742 -->
<g id="edge38" class="edge">
<title>room_743&#45;&gt;room_742</title>
<path fill="none" stroke="black" d="M987.99,-316.5C968,-330.32 942.39,-350.17 924.34,-365.84"/>
<polygon fill="black" stroke="black" points="921.77,-363.45 916.63,-372.72 926.43,-368.67 921.77,-363.45"/>
<text text-anchor="middle" x="953.06" y="-329.97" font-family="Times,serif" font-size="14.00">e</text>
</g>
<!-- room_743&#45;&gt;room_744 -->
<g id="edge39" class="edge">
<title>room_743&#45;&gt;room_744</title>
<path fill="none" stroke="black" d="M1017.73,-282.14C1013.26,-260.19 1001.92,-223.02 992.2,-197.66"/>
<polygon fill="black" stroke="black" points="995.4,-196.23 988.43,-188.24 988.9,-198.83 995.4,-196.23"/>
<text text-anchor="middle" x="999.91" y="-242.7" font-family="Times,serif" font-size="14.00">w</text>
</g>
<!-- room_744&#45;&gt;room_745 -->
<g id="edge40" class="edge">
<title>room_744&#45;&gt;room_745</title>
<path fill="none" stroke="black" d="M941.68,-157.9C935.14,-156.42 928.09,-154.97 920.9,-153.6"/>
<polygon fill="black" stroke="black" points="921.5,-150.15 911.03,-151.79 920.23,-157.03 921.5,-150.15"/>
<text text-anchor="middle" x="928.57" y="-144.55" font-family="Times,serif" font-size="14.00">s</text>
</g>
<!-- room_744&#45;&gt;room_743 -->
<g id="edge41" class="edge">
<title>room_744&#45;&gt;room_743</title>
<path fill="none" stroke="black" d="M978.45,-188.68C982.89,-210.51 994.13,-247.39 1003.81,-272.74"/>
<polygon fill="black" stroke="black" points="1000.61,-274.16 1007.56,-282.16 1007.12,-271.57 1000.61,-274.16"/>
<text text-anchor="middle" x="988.02" y="-233.51" font-family="Times,serif" font-size="14.00">e</text>
</g>
<!-- room_748&#45;&gt;room_747 -->
<g id="edge48" class="edge">
<title>room_748&#45;&gt;room_747</title>
<path fill="none" stroke="black" d="M939.62,-630.74C931.54,-612.31 915.71,-583.57 902.35,-562.62"/>
<polygon fill="black" stroke="black" points="905.22,-560.61 896.81,-554.17 899.37,-564.45 905.22,-560.61"/>
<text text-anchor="middle" x="918.26" y="-599.48" font-family="Times,serif" font-size="14.00">s</text>
</g>
<!-- room_748&#45;&gt;room_749 -->
<g id="edge49" class="edge">
<title>room_748&#45;&gt;room_749</title>
<path fill="none" stroke="black" d="M966.88,-631.53C979.09,-619.1 993.74,-602.18 1004.52,-588.07"/>
<polygon fill="black" stroke="black" points="1007.56,-589.85 1010.68,-579.72 1001.93,-585.69 1007.56,-589.85"/>
<text text-anchor="middle" x="980.65" y="-612.6" font-family="Times,serif" font-size="14.00">w</text>
</g>
<!-- room_749&#45;&gt;room_750 -->
<g id="edge50" class="edge">
<title>room_749&#45;&gt;room_750</title>
<path fill="none" stroke="black" d="M1057.53,-548.43C1075.02,-540.02 1095.38,-529.11 1111.53,-519.48"/>
<polygon fill="black" stroke="black" points="1113.8,-522.19 1120.49,-513.98 1110.14,-516.22 1113.8,-522.19"/>
<text text-anchor="middle" x="1081.03" y="-536.75" font-family="Times,serif" font-size="14.00">n</text>
</g>
<!-- room_749&#45;&gt;room_747 -->
<g id="edge51" class="edge">
<title>room_749&#45;&gt;room_747</title>
<path fill="none" stroke="black" d="M981.43,-548.55C972.87,-546.61 963.5,-544.69 954.02,-542.92"/>
<polygon fill="black" stroke="black" points="954.61,-539.47 944.14,-541.14 953.37,-546.36 954.61,-539.47"/>
<text text-anchor="middle" x="965" y="-534.53" font-family="Times,serif" font-size="14.00">s</text>
</g>
<!-- room_749&#45;&gt;room_748 -->
<g id="edge52" class="edge">
<title>room_749&#45;&gt;room_748</title>
<path fill="none" stroke="black" d="M997.13,-578.53C984.83,-591.01 969.96,-608.17 959.06,-622.44"/>
<polygon fill="black" stroke="black" points="955.95,-620.75 952.84,-630.88 961.58,-624.91 955.95,-620.75"/>
<text text-anchor="middle" x="974.99" y="-589.28" font-family="Times,serif" font-size="14.00">e</text>
</g>
<!-- room_751&#45;&gt;room_750 -->
<g id="edge57" class="edge">
<title>room_751&#45;&gt;room_750</title>
<path fill="none" stroke="black" d="M1131.81,-382.34C1130.21,-404.75 1131.11,-443.17 1133.65,-469.41"/>
<polygon fill="black" stroke="black" points="1130.19,-469.94 1134.79,-479.48 1137.14,-469.15 1130.19,-469.94"/>
<text text-anchor="middle" x="1129.23" y="-428.67" font-family="Times,serif" font-size="14.00">u</text>
</g>
<!-- room_751&#45;&gt;room_743 -->
<g id="edge56" class="edge">
<title>room_751&#45;&gt;room_743</title>
<path fill="none" stroke="black" d="M1106.99,-348.41C1092.1,-340.3 1073.75,-330.32 1057.64,-321.55"/>
<polygon fill="black" stroke="black" points="1058.9,-318.25 1048.45,-316.54 1055.56,-324.4 1058.9,-318.25"/>
<text text-anchor="middle" x="1079.59" y="-323.78" font-family="Times,serif" font-size="14.00">s</text>
</g>
</g>
</svg>
