<?xml version="1.0" encoding="UTF-8" standalone="no"?>
<!DOCTYPE svg PUBLIC "-//W3C//DTD SVG 1.1//EN"
 "http://www.w3.org/Graphics/SVG/1.1/DTD/svg11.dtd">
<!-- Generated by graphviz version 2.42.3 (20191010.1750)
 -->
<!-- Title: monster Pages: 1 -->
<svg width="1100pt" height="681pt"
 viewBox="0.00 0.00 1099.63 680.88" xmlns="http://www.w3.org/2000/svg" xmlns:xlink="http://www.w3.org/1999/xlink">
<g id="graph0" class="graph" transform="scale(1 1) rotate(0) translate(4 676.88)">
<title>monster</title>
<polygon fill="white" stroke="transparent" points="-4,4 -4,-676.88 1095.63,-676.88 1095.63,4 -4,4"/>
<!-- room_368 -->
<g id="node1" class="node">
<title>room_368</title>
<ellipse fill="none" stroke="black" cx="478.94" cy="-202.92" rx="65.19" ry="18"/>
<text text-anchor="middle" x="478.94" y="-198.72" font-family="Times,serif" font-size="14.00">Arena Entrance</text>
</g>
<!-- room_368&#45;&gt;room_368 -->
<g id="edge1" class="edge">
<title>room_368&#45;&gt;room_368</title>
<path fill="none" stroke="black" d="M543.94,-205.01C554.79,-204.72 562.28,-204.02 562.28,-202.92 562.28,-202.22 559.21,-201.68 554.14,-201.3"/>
<polygon fill="black" stroke="black" points="554.09,-197.8 543.94,-200.83 553.76,-204.79 554.09,-197.8"/>
<text text-anchor="middle" x="565.78" y="-198.72" font-family="Times,serif" font-size="14.00">n</text>
</g>
<!-- room_368&#45;&gt;room_368 -->
<g id="edge2" class="edge">
<title>room_368&#45;&gt;room_368</title>
<path fill="none" stroke="black" d="M540.04,-209.46C570.79,-210.39 598.28,-208.21 598.28,-202.92 598.28,-198.23 576.66,-195.98 550.33,-196.18"/>
<polygon fill="black" stroke="black" points="549.97,-192.69 540.04,-196.38 550.1,-199.69 549.97,-192.69"/>
<text text-anchor="middle" x="601.01" y="-198.72" font-family="Times,serif" font-size="14.00">s</text>
</g>
<!-- room_368&#45;&gt;room_368 -->
<g id="edge3" class="edge">
<title>room_368&#45;&gt;room_368</title>
<path fill="none" stroke="black" d="M542.28,-207.42C563.39,-207.42 580.28,-205.92 580.28,-202.92 580.28,-200.44 568.7,-198.98 552.73,-198.56"/>
<polygon fill="black" stroke="black" points="552.32,-195.05 542.28,-198.42 552.23,-202.05 552.32,-195.05"/>
<text text-anchor="middle" x="583.39" y="-198.72" font-family="Times,serif" font-size="14.00">e</text>
</g>
<!-- room_369 -->
<g id="node2" class="node">
<title>room_369</title>
<ellipse fill="none" stroke="black" cx="520.64" cy="-289.53" rx="85.05" ry="18"/>
<text text-anchor="middle" x="520.64" y="-285.33" font-family="Times,serif" font-size="14.00">Fountain of the Gods</text>
</g>
<!-- room_368&#45;&gt;room_369 -->
<g id="edge4" class="edge">
<title>room_368&#45;&gt;room_369</title>
<path fill="none" stroke="black" d="M481.75,-221.13C486.06,-233.23 493.39,-249.28 500.63,-262.8"/>
<polygon fill="black" stroke="black" points="497.65,-264.66 505.58,-271.68 503.76,-261.25 497.65,-264.66"/>
<text text-anchor="middle" x="486.13" y="-244.77" font-family="Times,serif" font-size="14.00">w</text>
</g>
<!-- room_369&#45;&gt;room_368 -->
<g id="edge6" class="edge">
<title>room_369&#45;&gt;room_368</title>
<path fill="none" stroke="black" d="M517.82,-271.32C513.48,-259.13 506.08,-242.95 498.8,-229.37"/>
<polygon fill="black" stroke="black" points="501.75,-227.48 493.82,-220.46 495.64,-230.9 501.75,-227.48"/>
<text text-anchor="middle" x="505.2" y="-253.14" font-family="Times,serif" font-size="14.00">e</text>
</g>
<!-- room_372 -->
<g id="node3" class="node">
<title>room_372</title>
<ellipse fill="none" stroke="black" cx="691.97" cy="-261.14" rx="78.31" ry="18"/>
<text text-anchor="middle" x="691.97" y="-256.94" font-family="Times,serif" font-size="14.00">South Agamemnon</text>
</g>
<!-- room_369&#45;&gt;room_372 -->
<g id="edge5" class="edge">
<title>room_369&#45;&gt;room_372</title>
<path fill="none" stroke="black" d="M600.38,-283.13C611.59,-281.34 622.94,-279.37 633.64,-277.35"/>
<polygon fill="black" stroke="black" points="634.54,-280.74 643.69,-275.4 633.21,-273.87 634.54,-280.74"/>
<text text-anchor="middle" x="613.51" y="-283.04" font-family="Times,serif" font-size="14.00">n</text>
</g>
<!-- room_370 -->
<g id="node4" class="node">
<title>room_370</title>
<ellipse fill="none" stroke="black" cx="492.9" cy="-367.88" rx="74.7" ry="18"/>
<text text-anchor="middle" x="492.9" y="-363.68" font-family="Times,serif" font-size="14.00">East Tiberius Way</text>
</g>
<!-- room_369&#45;&gt;room_370 -->
<g id="edge7" class="edge">
<title>room_369&#45;&gt;room_370</title>
<path fill="none" stroke="black" d="M507.85,-307.71C503.53,-317.32 499.15,-329.3 495.98,-340.05"/>
<polygon fill="black" stroke="black" points="492.56,-339.29 493.36,-349.85 499.33,-341.1 492.56,-339.29"/>
<text text-anchor="middle" x="496.86" y="-326.68" font-family="Times,serif" font-size="14.00">w</text>
</g>
<!-- room_372&#45;&gt;room_369 -->
<g id="edge13" class="edge">
<title>room_372&#45;&gt;room_369</title>
<path fill="none" stroke="black" d="M617.22,-266.74C605.06,-268.63 592.61,-270.76 580.86,-272.96"/>
<polygon fill="black" stroke="black" points="579.9,-269.58 570.74,-274.9 581.22,-276.45 579.9,-269.58"/>
<text text-anchor="middle" x="596.31" y="-258.65" font-family="Times,serif" font-size="14.00">s</text>
</g>
<!-- room_373 -->
<g id="node7" class="node">
<title>room_373</title>
<ellipse fill="none" stroke="black" cx="853.59" cy="-217.1" rx="78.29" ry="18"/>
<text text-anchor="middle" x="853.59" y="-212.9" font-family="Times,serif" font-size="14.00">North Agamemnon</text>
</g>
<!-- room_372&#45;&gt;room_373 -->
<g id="edge12" class="edge">
<title>room_372&#45;&gt;room_373</title>
<path fill="none" stroke="black" d="M755.72,-250.59C772.9,-246.22 791.16,-241.13 807.2,-236.19"/>
<polygon fill="black" stroke="black" points="808.38,-239.49 816.87,-233.15 806.28,-232.82 808.38,-239.49"/>
<text text-anchor="middle" x="777.96" y="-246.19" font-family="Times,serif" font-size="14.00">n</text>
</g>
<!-- room_370&#45;&gt;room_369 -->
<g id="edge8" class="edge">
<title>room_370&#45;&gt;room_369</title>
<path fill="none" stroke="black" d="M505.51,-350.09C509.85,-340.5 514.27,-328.44 517.48,-317.61"/>
<polygon fill="black" stroke="black" points="520.92,-318.29 520.14,-307.73 514.16,-316.47 520.92,-318.29"/>
<text text-anchor="middle" x="508.39" y="-336.65" font-family="Times,serif" font-size="14.00">e</text>
</g>
<!-- room_371 -->
<g id="node5" class="node">
<title>room_371</title>
<ellipse fill="none" stroke="black" cx="444.05" cy="-430.54" rx="76.68" ry="18"/>
<text text-anchor="middle" x="444.05" y="-426.34" font-family="Times,serif" font-size="14.00">West Tiberius Way</text>
</g>
<!-- room_370&#45;&gt;room_371 -->
<g id="edge9" class="edge">
<title>room_370&#45;&gt;room_371</title>
<path fill="none" stroke="black" d="M471.29,-385.14C466.26,-390.95 461.08,-397.55 456.56,-403.9"/>
<polygon fill="black" stroke="black" points="453.59,-402.05 450.9,-412.29 459.39,-405.96 453.59,-402.05"/>
<text text-anchor="middle" x="458.87" y="-397.32" font-family="Times,serif" font-size="14.00">w</text>
</g>
<!-- room_371&#45;&gt;room_370 -->
<g id="edge10" class="edge">
<title>room_371&#45;&gt;room_370</title>
<path fill="none" stroke="black" d="M465.95,-412.94C470.95,-407.14 476.09,-400.58 480.56,-394.28"/>
<polygon fill="black" stroke="black" points="483.49,-396.2 486.16,-385.95 477.68,-392.3 483.49,-396.2"/>
<text text-anchor="middle" x="470.15" y="-392.41" font-family="Times,serif" font-size="14.00">e</text>
</g>
<!-- room_536 -->
<g id="node6" class="node">
<title>room_536</title>
<ellipse fill="none" stroke="black" cx="386.57" cy="-487.43" rx="52.18" ry="18"/>
<text text-anchor="middle" x="386.57" y="-483.23" font-family="Times,serif" font-size="14.00">Drawbridge</text>
</g>
<!-- room_371&#45;&gt;room_536 -->
<g id="edge11" class="edge">
<title>room_371&#45;&gt;room_536</title>
<path fill="none" stroke="black" d="M417.36,-447.69C412.57,-452.11 407.71,-456.93 403.29,-461.67"/>
<polygon fill="black" stroke="black" points="400.4,-459.65 396.37,-469.45 405.63,-464.31 400.4,-459.65"/>
<text text-anchor="middle" x="405.27" y="-457.48" font-family="Times,serif" font-size="14.00">w</text>
</g>
<!-- room_536&#45;&gt;room_371 -->
<g id="edge31" class="edge">
<title>room_536&#45;&gt;room_371</title>
<path fill="none" stroke="black" d="M411.9,-471.52C417.22,-466.7 422.68,-461.29 427.59,-456.02"/>
<polygon fill="black" stroke="black" points="430.27,-458.28 434.28,-448.47 425.03,-453.63 430.27,-458.28"/>
<text text-anchor="middle" x="416.64" y="-452.57" font-family="Times,serif" font-size="14.00">e</text>
</g>
<!-- room_536&#45;&gt;room_536 -->
<g id="edge33" class="edge">
<title>room_536&#45;&gt;room_536</title>
<path fill="none" stroke="black" d="M435.22,-494.1C447.61,-493.66 456.91,-491.44 456.91,-487.43 456.91,-484.62 452.31,-482.68 445.28,-481.63"/>
<polygon fill="black" stroke="black" points="445.48,-478.13 435.22,-480.76 444.89,-485.11 445.48,-478.13"/>
<text text-anchor="middle" x="460.41" y="-483.23" font-family="Times,serif" font-size="14.00">u</text>
</g>
<!-- room_537 -->
<g id="node16" class="node">
<title>room_537</title>
<ellipse fill="none" stroke="black" cx="327.51" cy="-552.49" rx="58.97" ry="18"/>
<text text-anchor="middle" x="327.51" y="-548.29" font-family="Times,serif" font-size="14.00">Hall of Kunta</text>
</g>
<!-- room_536&#45;&gt;room_537 -->
<g id="edge32" class="edge">
<title>room_536&#45;&gt;room_537</title>
<path fill="none" stroke="black" d="M363.19,-503.76C356.25,-510.62 348.85,-518.73 342.56,-526.36"/>
<polygon fill="black" stroke="black" points="339.69,-524.36 336.25,-534.38 345.19,-528.69 339.69,-524.36"/>
<text text-anchor="middle" x="347.82" y="-517.86" font-family="Times,serif" font-size="14.00">w</text>
</g>
<!-- room_373&#45;&gt;room_372 -->
<g id="edge15" class="edge">
<title>room_373&#45;&gt;room_372</title>
<path fill="none" stroke="black" d="M789.83,-227.65C772.65,-232.01 754.39,-237.11 738.35,-242.04"/>
<polygon fill="black" stroke="black" points="737.17,-238.74 728.68,-245.08 739.27,-245.42 737.17,-238.74"/>
<text text-anchor="middle" x="761.37" y="-223.64" font-family="Times,serif" font-size="14.00">s</text>
</g>
<!-- room_454 -->
<g id="node8" class="node">
<title>room_454</title>
<ellipse fill="none" stroke="black" cx="864.19" cy="-125.06" rx="83.99" ry="18"/>
<text text-anchor="middle" x="864.19" y="-120.86" font-family="Times,serif" font-size="14.00">Lookout Tower Base</text>
</g>
<!-- room_373&#45;&gt;room_454 -->
<g id="edge14" class="edge">
<title>room_373&#45;&gt;room_454</title>
<path fill="none" stroke="black" d="M861.24,-199.11C864.06,-186.16 866.34,-168.42 867.2,-153.56"/>
<polygon fill="black" stroke="black" points="870.71,-153.47 867.57,-143.35 863.71,-153.22 870.71,-153.47"/>
<text text-anchor="middle" x="860.72" y="-179.13" font-family="Times,serif" font-size="14.00">n</text>
</g>
<!-- room_534 -->
<g id="node9" class="node">
<title>room_534</title>
<ellipse fill="none" stroke="black" cx="882.82" cy="-316.03" rx="60.89" ry="18"/>
<text text-anchor="middle" x="882.82" y="-311.83" font-family="Times,serif" font-size="14.00">Long Hallway</text>
</g>
<!-- room_373&#45;&gt;room_534 -->
<g id="edge16" class="edge">
<title>room_373&#45;&gt;room_534</title>
<path fill="none" stroke="black" d="M853.54,-235.36C856.26,-250.29 862.21,-271.61 868.23,-288.59"/>
<polygon fill="black" stroke="black" points="864.97,-289.87 871.75,-298 871.52,-287.41 864.97,-289.87"/>
<text text-anchor="middle" x="855.83" y="-264.78" font-family="Times,serif" font-size="14.00">w</text>
</g>
<!-- room_454&#45;&gt;room_373 -->
<g id="edge18" class="edge">
<title>room_454&#45;&gt;room_373</title>
<path fill="none" stroke="black" d="M856.53,-143.05C853.72,-156.01 851.44,-173.74 850.57,-188.61"/>
<polygon fill="black" stroke="black" points="847.07,-188.7 850.21,-198.82 854.06,-188.95 847.07,-188.7"/>
<text text-anchor="middle" x="850.83" y="-168.63" font-family="Times,serif" font-size="14.00">s</text>
</g>
<!-- room_533 -->
<g id="node10" class="node">
<title>room_533</title>
<ellipse fill="none" stroke="black" cx="950.42" cy="-70.86" rx="47.37" ry="18"/>
<text text-anchor="middle" x="950.42" y="-66.66" font-family="Times,serif" font-size="14.00">Gatehouse</text>
</g>
<!-- room_454&#45;&gt;room_533 -->
<g id="edge17" class="edge">
<title>room_454&#45;&gt;room_533</title>
<path fill="none" stroke="black" d="M902.29,-108.94C910.05,-104.32 918.03,-99.22 925.2,-94.27"/>
<polygon fill="black" stroke="black" points="927.69,-96.79 933.79,-88.13 923.62,-91.1 927.69,-96.79"/>
<text text-anchor="middle" x="910.25" y="-90.41" font-family="Times,serif" font-size="14.00">n</text>
</g>
<!-- room_455 -->
<g id="node11" class="node">
<title>room_455</title>
<ellipse fill="none" stroke="black" cx="856.01" cy="-18" rx="63.79" ry="18"/>
<text text-anchor="middle" x="856.01" y="-13.8" font-family="Times,serif" font-size="14.00">Spartican Shop</text>
</g>
<!-- room_454&#45;&gt;room_455 -->
<g id="edge19" class="edge">
<title>room_454&#45;&gt;room_455</title>
<path fill="none" stroke="black" d="M867.99,-106.99C868.48,-90.32 866.87,-65.31 864.22,-46.05"/>
<polygon fill="black" stroke="black" points="867.65,-45.36 862.65,-36.02 860.74,-46.45 867.65,-45.36"/>
<text text-anchor="middle" x="861.05" y="-79.32" font-family="Times,serif" font-size="14.00">w</text>
</g>
<!-- room_532 -->
<g id="node12" class="node">
<title>room_532</title>
<ellipse fill="none" stroke="black" cx="760.97" cy="-62.04" rx="64.69" ry="18"/>
<text text-anchor="middle" x="760.97" y="-57.84" font-family="Times,serif" font-size="14.00">Lookout Tower</text>
</g>
<!-- room_454&#45;&gt;room_532 -->
<g id="edge20" class="edge">
<title>room_454&#45;&gt;room_532</title>
<path fill="none" stroke="black" d="M845.72,-107.23C834.8,-99.4 820.5,-90.25 806.75,-82.2"/>
<polygon fill="black" stroke="black" points="808.26,-79.03 797.84,-77.09 804.77,-85.1 808.26,-79.03"/>
<text text-anchor="middle" x="822.74" y="-83.52" font-family="Times,serif" font-size="14.00">u</text>
</g>
<!-- room_531 -->
<g id="node13" class="node">
<title>room_531</title>
<ellipse fill="none" stroke="black" cx="957.01" cy="-171.33" rx="70.77" ry="18"/>
<text text-anchor="middle" x="957.01" y="-167.13" font-family="Times,serif" font-size="14.00">Torture Chamber</text>
</g>
<!-- room_454&#45;&gt;room_531 -->
<g id="edge21" class="edge">
<title>room_454&#45;&gt;room_531</title>
<path fill="none" stroke="black" d="M885.89,-142.61C891.41,-145.82 897.59,-149.16 903.93,-152.39"/>
<polygon fill="black" stroke="black" points="902.77,-155.73 913.29,-157.03 905.88,-149.45 902.77,-155.73"/>
<text text-anchor="middle" x="891.41" y="-150.3" font-family="Times,serif" font-size="14.00">d</text>
</g>
<!-- room_534&#45;&gt;room_373 -->
<g id="edge28" class="edge">
<title>room_534&#45;&gt;room_373</title>
<path fill="none" stroke="black" d="M882.86,-297.77C880.14,-282.84 874.19,-261.52 868.18,-244.54"/>
<polygon fill="black" stroke="black" points="871.44,-243.27 864.66,-235.13 864.88,-245.72 871.44,-243.27"/>
<text text-anchor="middle" x="872.41" y="-273.96" font-family="Times,serif" font-size="14.00">e</text>
</g>
<!-- room_541 -->
<g id="node15" class="node">
<title>room_541</title>
<ellipse fill="none" stroke="black" cx="940.89" cy="-394.47" rx="66.46" ry="18"/>
<text text-anchor="middle" x="940.89" y="-390.27" font-family="Times,serif" font-size="14.00">Ninstar&#39;s Abode</text>
</g>
<!-- room_534&#45;&gt;room_541 -->
<g id="edge29" class="edge">
<title>room_534&#45;&gt;room_541</title>
<path fill="none" stroke="black" d="M889.39,-334.01C895.59,-344.46 904.94,-357.73 914.03,-369.2"/>
<polygon fill="black" stroke="black" points="911.51,-371.65 920.55,-377.17 916.93,-367.21 911.51,-371.65"/>
<text text-anchor="middle" x="896.66" y="-354.4" font-family="Times,serif" font-size="14.00">w</text>
</g>
<!-- room_533&#45;&gt;room_454 -->
<g id="edge27" class="edge">
<title>room_533&#45;&gt;room_454</title>
<path fill="none" stroke="black" d="M917.31,-84.06C908.1,-89.35 898.26,-95.56 889.56,-101.55"/>
<polygon fill="black" stroke="black" points="887.43,-98.77 881.32,-107.42 891.5,-104.47 887.43,-98.77"/>
<text text-anchor="middle" x="900.71" y="-95.6" font-family="Times,serif" font-size="14.00">s</text>
</g>
<!-- room_535 -->
<g id="node14" class="node">
<title>room_535</title>
<ellipse fill="none" stroke="black" cx="1034.61" cy="-20.69" rx="57.05" ry="18"/>
<text text-anchor="middle" x="1034.61" y="-16.49" font-family="Times,serif" font-size="14.00">Blasted Plain</text>
</g>
<!-- room_533&#45;&gt;room_535 -->
<g id="edge26" class="edge">
<title>room_533&#45;&gt;room_535</title>
<path fill="none" stroke="black" d="M984.63,-58.08C992.62,-53.68 1000.99,-48.67 1008.56,-43.75"/>
<polygon fill="black" stroke="black" points="1010.66,-46.55 1017,-38.05 1006.75,-40.74 1010.66,-46.55"/>
<text text-anchor="middle" x="1000.09" y="-53.71" font-family="Times,serif" font-size="14.00">n</text>
</g>
<!-- room_455&#45;&gt;room_454 -->
<g id="edge22" class="edge">
<title>room_455&#45;&gt;room_454</title>
<path fill="none" stroke="black" d="M852.21,-36.07C851.72,-52.74 853.34,-77.75 855.98,-97.02"/>
<polygon fill="black" stroke="black" points="852.55,-97.7 857.55,-107.04 859.46,-96.62 852.55,-97.7"/>
<text text-anchor="middle" x="857.2" y="-55.34" font-family="Times,serif" font-size="14.00">e</text>
</g>
<!-- room_532&#45;&gt;room_454 -->
<g id="edge25" class="edge">
<title>room_532&#45;&gt;room_454</title>
<path fill="none" stroke="black" d="M778.96,-79.53C789.47,-87.1 803.23,-95.94 816.62,-103.85"/>
<polygon fill="black" stroke="black" points="814.93,-106.91 825.33,-108.89 818.43,-100.86 814.93,-106.91"/>
<text text-anchor="middle" x="794.29" y="-94.49" font-family="Times,serif" font-size="14.00">d</text>
</g>
<!-- room_532&#45;&gt;room_532 -->
<g id="edge24" class="edge">
<title>room_532&#45;&gt;room_532</title>
<path fill="none" stroke="black" d="M821.47,-68.57C834.3,-67.91 843.56,-65.73 843.56,-62.04 843.56,-59.44 838.98,-57.6 831.8,-56.5"/>
<polygon fill="black" stroke="black" points="831.76,-52.98 821.47,-55.51 831.09,-59.95 831.76,-52.98"/>
<text text-anchor="middle" x="847.06" y="-57.84" font-family="Times,serif" font-size="14.00">u</text>
</g>
<!-- room_531&#45;&gt;room_454 -->
<g id="edge23" class="edge">
<title>room_531&#45;&gt;room_454</title>
<path fill="none" stroke="black" d="M935.78,-154.06C930.67,-151.08 924.97,-147.97 919.09,-144.93"/>
<polygon fill="black" stroke="black" points="920.26,-141.6 909.75,-140.25 917.12,-147.86 920.26,-141.6"/>
<text text-anchor="middle" x="923.93" y="-138.3" font-family="Times,serif" font-size="14.00">u</text>
</g>
<!-- room_535&#45;&gt;room_533 -->
<g id="edge30" class="edge">
<title>room_535&#45;&gt;room_533</title>
<path fill="none" stroke="black" d="M997.94,-34.84C990.46,-39.03 982.75,-43.7 975.76,-48.27"/>
<polygon fill="black" stroke="black" points="973.68,-45.45 967.37,-53.96 977.61,-51.24 973.68,-45.45"/>
<text text-anchor="middle" x="984.13" y="-44.35" font-family="Times,serif" font-size="14.00">s</text>
</g>
<!-- room_541&#45;&gt;room_534 -->
<g id="edge41" class="edge">
<title>room_541&#45;&gt;room_534</title>
<path fill="none" stroke="black" d="M934.32,-376.5C928.07,-365.97 918.63,-352.58 909.48,-341.05"/>
<polygon fill="black" stroke="black" points="911.96,-338.57 902.92,-333.06 906.55,-343.01 911.96,-338.57"/>
<text text-anchor="middle" x="918.79" y="-361.58" font-family="Times,serif" font-size="14.00">e</text>
</g>
<!-- room_537&#45;&gt;room_536 -->
<g id="edge35" class="edge">
<title>room_537&#45;&gt;room_536</title>
<path fill="none" stroke="black" d="M351.22,-535.82C358.14,-528.96 365.48,-520.9 371.71,-513.32"/>
<polygon fill="black" stroke="black" points="374.53,-515.4 377.95,-505.37 369.02,-511.07 374.53,-515.4"/>
<text text-anchor="middle" x="358.36" y="-513.37" font-family="Times,serif" font-size="14.00">e</text>
</g>
<!-- room_538 -->
<g id="node17" class="node">
<title>room_538</title>
<ellipse fill="none" stroke="black" cx="194.55" cy="-528.71" rx="66.21" ry="18"/>
<text text-anchor="middle" x="194.55" y="-524.51" font-family="Times,serif" font-size="14.00">House of Kunta</text>
</g>
<!-- room_537&#45;&gt;room_538 -->
<g id="edge34" class="edge">
<title>room_537&#45;&gt;room_538</title>
<path fill="none" stroke="black" d="M288,-539.05C281.78,-537.69 275.18,-536.36 268.48,-535.1"/>
<polygon fill="black" stroke="black" points="269.09,-531.66 258.63,-533.32 267.85,-538.54 269.09,-531.66"/>
<text text-anchor="middle" x="274.74" y="-525.88" font-family="Times,serif" font-size="14.00">n</text>
</g>
<!-- room_539 -->
<g id="node18" class="node">
<title>room_539</title>
<ellipse fill="none" stroke="black" cx="322.17" cy="-654.88" rx="78.25" ry="18"/>
<text text-anchor="middle" x="322.17" y="-650.68" font-family="Times,serif" font-size="14.00">Gardens of Cebeuq</text>
</g>
<!-- room_537&#45;&gt;room_539 -->
<g id="edge36" class="edge">
<title>room_537&#45;&gt;room_539</title>
<path fill="none" stroke="black" d="M321.25,-570.52C318.83,-586.03 317.39,-608.69 317.55,-626.62"/>
<polygon fill="black" stroke="black" points="314.05,-626.91 317.84,-636.8 321.05,-626.7 314.05,-626.91"/>
<text text-anchor="middle" x="314.34" y="-601.37" font-family="Times,serif" font-size="14.00">w</text>
</g>
<!-- room_538&#45;&gt;room_537 -->
<g id="edge38" class="edge">
<title>room_538&#45;&gt;room_537</title>
<path fill="none" stroke="black" d="M236.59,-542.7C244.01,-544.28 251.9,-545.83 259.82,-547.24"/>
<polygon fill="black" stroke="black" points="259.37,-550.71 269.82,-548.96 260.56,-543.82 259.37,-550.71"/>
<text text-anchor="middle" x="250.93" y="-547.77" font-family="Times,serif" font-size="14.00">s</text>
</g>
<!-- room_540 -->
<g id="node19" class="node">
<title>room_540</title>
<ellipse fill="none" stroke="black" cx="60.21" cy="-531.65" rx="60.43" ry="18"/>
<text text-anchor="middle" x="60.21" y="-527.45" font-family="Times,serif" font-size="14.00">House of Pain</text>
</g>
<!-- room_538&#45;&gt;room_540 -->
<g id="edge37" class="edge">
<title>room_538&#45;&gt;room_540</title>
<path fill="none" stroke="black" d="M131.17,-523.36C128.99,-523.4 126.8,-523.44 124.62,-523.5"/>
<polygon fill="black" stroke="black" points="124.36,-520 114.47,-523.82 124.58,-527 124.36,-520"/>
<text text-anchor="middle" x="124.39" y="-512.23" font-family="Times,serif" font-size="14.00">n</text>
</g>
<!-- room_539&#45;&gt;room_537 -->
<g id="edge39" class="edge">
<title>room_539&#45;&gt;room_537</title>
<path fill="none" stroke="black" d="M328.43,-636.85C330.85,-621.33 332.29,-598.67 332.13,-580.75"/>
<polygon fill="black" stroke="black" points="335.62,-580.46 331.84,-570.56 328.63,-580.66 335.62,-580.46"/>
<text text-anchor="middle" x="327.18" y="-611.6" font-family="Times,serif" font-size="14.00">e</text>
</g>
<!-- room_540&#45;&gt;room_538 -->
<g id="edge40" class="edge">
<title>room_540&#45;&gt;room_538</title>
<path fill="none" stroke="black" d="M117.72,-537.08C120.04,-537.06 122.37,-537.03 124.71,-536.99"/>
<polygon fill="black" stroke="black" points="125.04,-540.48 134.95,-536.73 124.87,-533.48 125.04,-540.48"/>
<text text-anchor="middle" x="123.94" y="-539.84" font-family="Times,serif" font-size="14.00">s</text>
</g>
</g>
</svg>
