<?xml version="1.0" encoding="UTF-8" standalone="no"?>
<!DOCTYPE svg PUBLIC "-//W3C//DTD SVG 1.1//EN"
 "http://www.w3.org/Graphics/SVG/1.1/DTD/svg11.dtd">
<!-- Generated by graphviz version 2.42.3 (20191010.1750)
 -->
<!-- Title: monster Pages: 1 -->
<svg width="1052pt" height="612pt"
 viewBox="0.00 0.00 1051.73 612.36" xmlns="http://www.w3.org/2000/svg" xmlns:xlink="http://www.w3.org/1999/xlink">
<g id="graph0" class="graph" transform="scale(1 1) rotate(0) translate(4 608.36)">
<title>monster</title>
<polygon fill="white" stroke="transparent" points="-4,4 -4,-608.36 1047.73,-608.36 1047.73,4 -4,4"/>
<!-- room_11 -->
<g id="node1" class="node">
<title>room_11</title>
<ellipse fill="none" stroke="black" cx="324.01" cy="-257.24" rx="82.15" ry="18"/>
<text text-anchor="middle" x="324.01" y="-253.04" font-family="Times,serif" font-size="14.00">Goblin Mural Room</text>
</g>
<!-- room_313 -->
<g id="node2" class="node">
<title>room_313</title>
<ellipse fill="none" stroke="black" cx="314" cy="-405.23" rx="53.23" ry="18"/>
<text text-anchor="middle" x="314" y="-401.03" font-family="Times,serif" font-size="14.00">Low Tunnel</text>
</g>
<!-- room_11&#45;&gt;room_313 -->
<g id="edge1" class="edge">
<title>room_11&#45;&gt;room_313</title>
<path fill="none" stroke="black" d="M318.13,-275.37C313.89,-300.73 310.5,-347.05 310.49,-376.96"/>
<polygon fill="black" stroke="black" points="306.99,-377.22 310.64,-387.17 313.99,-377.12 306.99,-377.22"/>
<text text-anchor="middle" x="310.81" y="-328.97" font-family="Times,serif" font-size="14.00">n</text>
</g>
<!-- room_34 -->
<g id="node3" class="node">
<title>room_34</title>
<ellipse fill="none" stroke="black" cx="198.16" cy="-195.75" rx="54.06" ry="18"/>
<text text-anchor="middle" x="198.16" y="-191.55" font-family="Times,serif" font-size="14.00">Troll Tunnel</text>
</g>
<!-- room_11&#45;&gt;room_34 -->
<g id="edge2" class="edge">
<title>room_11&#45;&gt;room_34</title>
<path fill="none" stroke="black" d="M300.98,-239.81C285.88,-231.16 265.58,-220.88 247,-212.35"/>
<polygon fill="black" stroke="black" points="248.32,-209.1 237.77,-208.19 245.45,-215.49 248.32,-209.1"/>
<text text-anchor="middle" x="270.88" y="-214.88" font-family="Times,serif" font-size="14.00">e</text>
</g>
<!-- room_147 -->
<g id="node4" class="node">
<title>room_147</title>
<ellipse fill="none" stroke="black" cx="450.07" cy="-181.66" rx="69.58" ry="18"/>
<text text-anchor="middle" x="450.07" y="-177.46" font-family="Times,serif" font-size="14.00">Cavern of Bones</text>
</g>
<!-- room_11&#45;&gt;room_147 -->
<g id="edge3" class="edge">
<title>room_11&#45;&gt;room_147</title>
<path fill="none" stroke="black" d="M362.62,-241.25C381.93,-230.71 404.83,-216.88 422.38,-205.13"/>
<polygon fill="black" stroke="black" points="424.75,-207.75 431.01,-199.21 420.79,-201.98 424.75,-207.75"/>
<text text-anchor="middle" x="387.44" y="-225.99" font-family="Times,serif" font-size="14.00">w</text>
</g>
<!-- room_313&#45;&gt;room_11 -->
<g id="edge15" class="edge">
<title>room_313&#45;&gt;room_11</title>
<path fill="none" stroke="black" d="M319.88,-387.1C324.13,-361.74 327.52,-315.42 327.53,-285.51"/>
<polygon fill="black" stroke="black" points="331.03,-285.25 327.38,-275.3 324.03,-285.35 331.03,-285.25"/>
<text text-anchor="middle" x="320.98" y="-339.1" font-family="Times,serif" font-size="14.00">s</text>
</g>
<!-- room_314 -->
<g id="node11" class="node">
<title>room_314</title>
<ellipse fill="none" stroke="black" cx="395.05" cy="-523.16" rx="47.6" ry="18"/>
<text text-anchor="middle" x="395.05" y="-518.96" font-family="Times,serif" font-size="14.00">Giant Web</text>
</g>
<!-- room_313&#45;&gt;room_314 -->
<g id="edge14" class="edge">
<title>room_313&#45;&gt;room_314</title>
<path fill="none" stroke="black" d="M320.7,-423.33C331.79,-443.42 353.61,-475.83 370.85,-498.28"/>
<polygon fill="black" stroke="black" points="368.26,-500.66 377.2,-506.35 373.76,-496.33 368.26,-500.66"/>
<text text-anchor="middle" x="342.27" y="-463.61" font-family="Times,serif" font-size="14.00">n</text>
</g>
<!-- room_34&#45;&gt;room_11 -->
<g id="edge5" class="edge">
<title>room_34&#45;&gt;room_11</title>
<path fill="none" stroke="black" d="M219.74,-212.34C233.34,-220.21 251.53,-229.56 268.91,-237.73"/>
<polygon fill="black" stroke="black" points="267.91,-241.12 278.46,-242.14 270.84,-234.77 267.91,-241.12"/>
<text text-anchor="middle" x="239.27" y="-227.84" font-family="Times,serif" font-size="14.00">w</text>
</g>
<!-- room_41 -->
<g id="node5" class="node">
<title>room_41</title>
<ellipse fill="none" stroke="black" cx="82.08" cy="-133.88" rx="82.16" ry="18"/>
<text text-anchor="middle" x="82.08" y="-129.68" font-family="Times,serif" font-size="14.00">Gaping Pit of Doom</text>
</g>
<!-- room_34&#45;&gt;room_41 -->
<g id="edge4" class="edge">
<title>room_34&#45;&gt;room_41</title>
<path fill="none" stroke="black" d="M178.08,-178.84C165.89,-171.15 149.74,-162.09 134.17,-154.08"/>
<polygon fill="black" stroke="black" points="135.61,-150.89 125.11,-149.5 132.46,-157.14 135.61,-150.89"/>
<text text-anchor="middle" x="153.02" y="-155.26" font-family="Times,serif" font-size="14.00">e</text>
</g>
<!-- room_147&#45;&gt;room_11 -->
<g id="edge11" class="edge">
<title>room_147&#45;&gt;room_11</title>
<path fill="none" stroke="black" d="M412.83,-196.91C393.16,-207.58 369.46,-221.86 351.48,-233.92"/>
<polygon fill="black" stroke="black" points="349.41,-231.09 343.15,-239.64 353.37,-236.86 349.41,-231.09"/>
<text text-anchor="middle" x="379.05" y="-218.21" font-family="Times,serif" font-size="14.00">e</text>
</g>
<!-- room_139 -->
<g id="node6" class="node">
<title>room_139</title>
<ellipse fill="none" stroke="black" cx="595.43" cy="-162.31" rx="67.61" ry="18"/>
<text text-anchor="middle" x="595.43" y="-158.11" font-family="Times,serif" font-size="14.00">Underdeep Gate</text>
</g>
<!-- room_147&#45;&gt;room_139 -->
<g id="edge12" class="edge">
<title>room_147&#45;&gt;room_139</title>
<path fill="none" stroke="black" d="M519.38,-179.23C525.52,-178.45 531.68,-177.59 537.71,-176.69"/>
<polygon fill="black" stroke="black" points="538.34,-180.13 547.68,-175.13 537.26,-173.21 538.34,-180.13"/>
<text text-anchor="middle" x="523.49" y="-180.76" font-family="Times,serif" font-size="14.00">w</text>
</g>
<!-- room_41&#45;&gt;room_34 -->
<g id="edge6" class="edge">
<title>room_41&#45;&gt;room_34</title>
<path fill="none" stroke="black" d="M102.96,-151.3C116.41,-159.73 134.43,-169.71 151.17,-178.15"/>
<polygon fill="black" stroke="black" points="149.79,-181.37 160.31,-182.66 152.89,-175.09 149.79,-181.37"/>
<text text-anchor="middle" x="122.01" y="-167.52" font-family="Times,serif" font-size="14.00">w</text>
</g>
<!-- room_139&#45;&gt;room_147 -->
<g id="edge8" class="edge">
<title>room_139&#45;&gt;room_147</title>
<path fill="none" stroke="black" d="M527.81,-164.52C521.5,-165.32 515.13,-166.19 508.9,-167.12"/>
<polygon fill="black" stroke="black" points="507.93,-163.72 498.59,-168.71 509.01,-170.64 507.93,-163.72"/>
<text text-anchor="middle" x="521.46" y="-154.62" font-family="Times,serif" font-size="14.00">e</text>
</g>
<!-- room_320 -->
<g id="node7" class="node">
<title>room_320</title>
<ellipse fill="none" stroke="black" cx="720.71" cy="-247.04" rx="62.03" ry="18"/>
<text text-anchor="middle" x="720.71" y="-242.84" font-family="Times,serif" font-size="14.00">Goblin Throne</text>
</g>
<!-- room_139&#45;&gt;room_320 -->
<g id="edge7" class="edge">
<title>room_139&#45;&gt;room_320</title>
<path fill="none" stroke="black" d="M612.43,-179.95C629.39,-193.46 656.01,-211.95 678.63,-226.16"/>
<polygon fill="black" stroke="black" points="677.05,-229.3 687.4,-231.58 680.73,-223.35 677.05,-229.3"/>
<text text-anchor="middle" x="642.03" y="-205.86" font-family="Times,serif" font-size="14.00">n</text>
</g>
<!-- room_146 -->
<g id="node8" class="node">
<title>room_146</title>
<ellipse fill="none" stroke="black" cx="610.73" cy="-18" rx="50.28" ry="18"/>
<text text-anchor="middle" x="610.73" y="-13.8" font-family="Times,serif" font-size="14.00">Dark Basin</text>
</g>
<!-- room_139&#45;&gt;room_146 -->
<g id="edge9" class="edge">
<title>room_139&#45;&gt;room_146</title>
<path fill="none" stroke="black" d="M602.07,-144.23C607.14,-119.65 612.08,-75.43 613.21,-46.39"/>
<polygon fill="black" stroke="black" points="616.71,-46.16 613.44,-36.08 609.71,-46 616.71,-46.16"/>
<text text-anchor="middle" x="602.58" y="-98.11" font-family="Times,serif" font-size="14.00">w</text>
</g>
<!-- room_320&#45;&gt;room_139 -->
<g id="edge30" class="edge">
<title>room_320&#45;&gt;room_139</title>
<path fill="none" stroke="black" d="M703.97,-229.6C687.18,-216.2 660.74,-197.81 638.14,-183.58"/>
<polygon fill="black" stroke="black" points="639.72,-180.44 629.38,-178.15 636.04,-186.39 639.72,-180.44"/>
<text text-anchor="middle" x="668.34" y="-209.39" font-family="Times,serif" font-size="14.00">s</text>
</g>
<!-- room_320&#45;&gt;room_320 -->
<g id="edge29" class="edge">
<title>room_320&#45;&gt;room_320</title>
<path fill="none" stroke="black" d="M778.8,-253.6C791.63,-252.99 800.98,-250.8 800.98,-247.04 800.98,-244.39 796.36,-242.52 789.15,-241.43"/>
<polygon fill="black" stroke="black" points="789.08,-237.91 778.8,-240.47 788.43,-244.88 789.08,-237.91"/>
<text text-anchor="middle" x="804.48" y="-242.84" font-family="Times,serif" font-size="14.00">n</text>
</g>
<!-- room_317 -->
<g id="node10" class="node">
<title>room_317</title>
<ellipse fill="none" stroke="black" cx="769.52" cy="-393.87" rx="44.49" ry="18"/>
<text text-anchor="middle" x="769.52" y="-389.67" font-family="Times,serif" font-size="14.00">Salt Cave</text>
</g>
<!-- room_320&#45;&gt;room_317 -->
<g id="edge31" class="edge">
<title>room_320&#45;&gt;room_317</title>
<path fill="none" stroke="black" d="M722.05,-265.3C727.78,-290.9 742.95,-337.57 754.86,-367.1"/>
<polygon fill="black" stroke="black" points="751.66,-368.53 758.75,-376.4 758.12,-365.82 751.66,-368.53"/>
<text text-anchor="middle" x="735.35" y="-319" font-family="Times,serif" font-size="14.00">e</text>
</g>
<!-- room_366 -->
<g id="node16" class="node">
<title>room_366</title>
<ellipse fill="none" stroke="black" cx="824.64" cy="-143.58" rx="57.22" ry="18"/>
<text text-anchor="middle" x="824.64" y="-139.38" font-family="Times,serif" font-size="14.00">Goblin Forge</text>
</g>
<!-- room_320&#45;&gt;room_366 -->
<g id="edge32" class="edge">
<title>room_320&#45;&gt;room_366</title>
<path fill="none" stroke="black" d="M745.39,-230.27C764.36,-213.66 789.97,-188.19 806.95,-169.09"/>
<polygon fill="black" stroke="black" points="809.76,-171.2 813.65,-161.35 804.46,-166.62 809.76,-171.2"/>
<text text-anchor="middle" x="771.12" y="-202.48" font-family="Times,serif" font-size="14.00">w</text>
</g>
<!-- room_146&#45;&gt;room_139 -->
<g id="edge10" class="edge">
<title>room_146&#45;&gt;room_139</title>
<path fill="none" stroke="black" d="M604.08,-36.07C599.01,-60.66 594.07,-104.88 592.95,-133.91"/>
<polygon fill="black" stroke="black" points="589.44,-134.15 592.71,-144.22 596.44,-134.31 589.44,-134.15"/>
<text text-anchor="middle" x="595.41" y="-73.79" font-family="Times,serif" font-size="14.00">e</text>
</g>
<!-- room_275 -->
<g id="node9" class="node">
<title>room_275</title>
<ellipse fill="none" stroke="black" cx="904.45" cy="-350.54" rx="72.49" ry="18"/>
<text text-anchor="middle" x="904.45" y="-346.34" font-family="Times,serif" font-size="14.00">Hole of Maximus</text>
</g>
<!-- room_275&#45;&gt;room_317 -->
<g id="edge13" class="edge">
<title>room_275&#45;&gt;room_317</title>
<path fill="none" stroke="black" d="M847.54,-361.84C833.4,-366.13 818.62,-371.05 805.78,-375.77"/>
<polygon fill="black" stroke="black" points="804.49,-372.52 796.38,-379.33 806.97,-379.06 804.49,-372.52"/>
<text text-anchor="middle" x="823.16" y="-371.6" font-family="Times,serif" font-size="14.00">u</text>
</g>
<!-- room_317&#45;&gt;room_320 -->
<g id="edge24" class="edge">
<title>room_317&#45;&gt;room_320</title>
<path fill="none" stroke="black" d="M768.19,-375.61C762.49,-350.15 747.45,-303.84 735.57,-274.29"/>
<polygon fill="black" stroke="black" points="738.76,-272.85 731.68,-264.97 732.3,-275.55 738.76,-272.85"/>
<text text-anchor="middle" x="746.83" y="-327.75" font-family="Times,serif" font-size="14.00">w</text>
</g>
<!-- room_317&#45;&gt;room_275 -->
<g id="edge25" class="edge">
<title>room_317&#45;&gt;room_275</title>
<path fill="none" stroke="black" d="M810.81,-387.13C827.54,-382.47 846.8,-376.33 863.49,-370.35"/>
<polygon fill="black" stroke="black" points="864.81,-373.59 872.98,-366.85 862.39,-367.02 864.81,-373.59"/>
<text text-anchor="middle" x="833.65" y="-381.54" font-family="Times,serif" font-size="14.00">d</text>
</g>
<!-- room_316 -->
<g id="node13" class="node">
<title>room_316</title>
<ellipse fill="none" stroke="black" cx="665.18" cy="-500.55" rx="76.81" ry="18"/>
<text text-anchor="middle" x="665.18" y="-496.35" font-family="Times,serif" font-size="14.00">Place of Memories</text>
</g>
<!-- room_317&#45;&gt;room_316 -->
<g id="edge23" class="edge">
<title>room_317&#45;&gt;room_316</title>
<path fill="none" stroke="black" d="M746.81,-409.46C727.48,-426.65 700.27,-454.35 682.61,-474.76"/>
<polygon fill="black" stroke="black" points="679.89,-472.56 676.12,-482.46 685.24,-477.07 679.89,-472.56"/>
<text text-anchor="middle" x="711.6" y="-444.91" font-family="Times,serif" font-size="14.00">e</text>
</g>
<!-- room_318 -->
<g id="node14" class="node">
<title>room_318</title>
<ellipse fill="none" stroke="black" cx="869.26" cy="-501.55" rx="60.42" ry="18"/>
<text text-anchor="middle" x="869.26" y="-497.35" font-family="Times,serif" font-size="14.00">Rubbish Heap</text>
</g>
<!-- room_317&#45;&gt;room_318 -->
<g id="edge22" class="edge">
<title>room_317&#45;&gt;room_318</title>
<path fill="none" stroke="black" d="M779.46,-411.65C793.35,-429.75 818.72,-457.75 839.02,-477.73"/>
<polygon fill="black" stroke="black" points="836.62,-480.28 846.24,-484.7 841.48,-475.24 836.62,-480.28"/>
<text text-anchor="middle" x="805.74" y="-447.49" font-family="Times,serif" font-size="14.00">n</text>
</g>
<!-- room_314&#45;&gt;room_313 -->
<g id="edge17" class="edge">
<title>room_314&#45;&gt;room_313</title>
<path fill="none" stroke="black" d="M388.49,-505.32C377.54,-485.4 355.85,-453.15 338.6,-430.63"/>
<polygon fill="black" stroke="black" points="341.16,-428.22 332.24,-422.51 335.66,-432.54 341.16,-428.22"/>
<text text-anchor="middle" x="360.82" y="-470.77" font-family="Times,serif" font-size="14.00">s</text>
</g>
<!-- room_315 -->
<g id="node12" class="node">
<title>room_315</title>
<ellipse fill="none" stroke="black" cx="534.07" cy="-558.94" rx="64.95" ry="18"/>
<text text-anchor="middle" x="534.07" y="-554.74" font-family="Times,serif" font-size="14.00">Forgotten Cave</text>
</g>
<!-- room_314&#45;&gt;room_315 -->
<g id="edge16" class="edge">
<title>room_314&#45;&gt;room_315</title>
<path fill="none" stroke="black" d="M425.85,-537.08C437.86,-540.88 452.14,-544.88 466.32,-548.47"/>
<polygon fill="black" stroke="black" points="465.55,-551.88 476.1,-550.88 467.23,-545.08 465.55,-551.88"/>
<text text-anchor="middle" x="442.59" y="-545.57" font-family="Times,serif" font-size="14.00">n</text>
</g>
<!-- room_315&#45;&gt;room_314 -->
<g id="edge19" class="edge">
<title>room_315&#45;&gt;room_314</title>
<path fill="none" stroke="black" d="M499.05,-543.71C484.43,-539.22 467.1,-534.56 450.81,-530.7"/>
<polygon fill="black" stroke="black" points="451.37,-527.23 440.84,-528.4 449.8,-534.06 451.37,-527.23"/>
<text text-anchor="middle" x="472.2" y="-526" font-family="Times,serif" font-size="14.00">s</text>
</g>
<!-- room_315&#45;&gt;room_316 -->
<g id="edge18" class="edge">
<title>room_315&#45;&gt;room_316</title>
<path fill="none" stroke="black" d="M579.23,-545.8C596.34,-538.82 615.51,-530.19 631.4,-522.28"/>
<polygon fill="black" stroke="black" points="633.02,-525.39 640.34,-517.73 629.84,-519.15 633.02,-525.39"/>
<text text-anchor="middle" x="601.81" y="-536.84" font-family="Times,serif" font-size="14.00">n</text>
</g>
<!-- room_316&#45;&gt;room_317 -->
<g id="edge21" class="edge">
<title>room_316&#45;&gt;room_317</title>
<path fill="none" stroke="black" d="M689.73,-483.32C709.07,-465.91 735.42,-438.98 752.53,-419.17"/>
<polygon fill="black" stroke="black" points="755.28,-421.33 759.02,-411.42 749.91,-416.83 755.28,-421.33"/>
<text text-anchor="middle" x="726.18" y="-454.04" font-family="Times,serif" font-size="14.00">w</text>
</g>
<!-- room_316&#45;&gt;room_315 -->
<g id="edge20" class="edge">
<title>room_316&#45;&gt;room_315</title>
<path fill="none" stroke="black" d="M617.43,-514.75C600.79,-521.62 582.5,-529.9 567.29,-537.49"/>
<polygon fill="black" stroke="black" points="565.58,-534.43 558.26,-542.1 568.76,-540.66 565.58,-534.43"/>
<text text-anchor="middle" x="589.64" y="-528.92" font-family="Times,serif" font-size="14.00">s</text>
</g>
<!-- room_318&#45;&gt;room_317 -->
<g id="edge27" class="edge">
<title>room_318&#45;&gt;room_317</title>
<path fill="none" stroke="black" d="M859.32,-483.77C845.18,-465.33 819.12,-436.64 798.64,-416.59"/>
<polygon fill="black" stroke="black" points="801.02,-414.02 791.38,-409.63 796.18,-419.08 801.02,-414.02"/>
<text text-anchor="middle" x="826.26" y="-452.98" font-family="Times,serif" font-size="14.00">s</text>
</g>
<!-- room_319 -->
<g id="node15" class="node">
<title>room_319</title>
<ellipse fill="none" stroke="black" cx="975.17" cy="-586.36" rx="68.61" ry="18"/>
<text text-anchor="middle" x="975.17" y="-582.16" font-family="Times,serif" font-size="14.00">Cave of Mortem</text>
</g>
<!-- room_318&#45;&gt;room_319 -->
<g id="edge26" class="edge">
<title>room_318&#45;&gt;room_319</title>
<path fill="none" stroke="black" d="M883.08,-519.17C896.83,-532.27 918.41,-550.08 937.25,-564.13"/>
<polygon fill="black" stroke="black" points="935.26,-567.01 945.39,-570.09 939.39,-561.36 935.26,-567.01"/>
<text text-anchor="middle" x="906.66" y="-544.45" font-family="Times,serif" font-size="14.00">n</text>
</g>
<!-- room_319&#45;&gt;room_318 -->
<g id="edge28" class="edge">
<title>room_319&#45;&gt;room_318</title>
<path fill="none" stroke="black" d="M960.91,-568.32C946.97,-555.1 925.29,-537.25 906.49,-523.27"/>
<polygon fill="black" stroke="black" points="908.51,-520.41 898.37,-517.35 904.38,-526.07 908.51,-520.41"/>
<text text-anchor="middle" x="930.98" y="-548.6" font-family="Times,serif" font-size="14.00">s</text>
</g>
<!-- room_366&#45;&gt;room_320 -->
<g id="edge33" class="edge">
<title>room_366&#45;&gt;room_320</title>
<path fill="none" stroke="black" d="M800.22,-160.12C781.27,-176.69 755.55,-202.24 738.5,-221.41"/>
<polygon fill="black" stroke="black" points="735.66,-219.34 731.76,-229.2 740.96,-223.92 735.66,-219.34"/>
<text text-anchor="middle" x="766.25" y="-179.57" font-family="Times,serif" font-size="14.00">e</text>
</g>
</g>
</svg>
