<?xml version="1.0" encoding="UTF-8" standalone="no"?>
<!DOCTYPE svg PUBLIC "-//W3C//DTD SVG 1.1//EN"
 "http://www.w3.org/Graphics/SVG/1.1/DTD/svg11.dtd">
<!-- Generated by graphviz version 2.42.3 (20191010.1750)
 -->
<!-- Title: monster Pages: 1 -->
<svg width="406pt" height="240pt"
 viewBox="0.00 0.00 405.58 239.99" xmlns="http://www.w3.org/2000/svg" xmlns:xlink="http://www.w3.org/1999/xlink">
<g id="graph0" class="graph" transform="scale(1 1) rotate(0) translate(4 235.99)">
<title>monster</title>
<polygon fill="white" stroke="transparent" points="-4,4 -4,-235.99 401.58,-235.99 401.58,4 -4,4"/>
<!-- room_6 -->
<g id="node1" class="node">
<title>room_6</title>
<ellipse fill="none" stroke="black" cx="159.41" cy="-136.9" rx="43.03" ry="18"/>
<text text-anchor="middle" x="159.41" y="-132.7" font-family="Times,serif" font-size="14.00">grey hills</text>
</g>
<!-- room_8 -->
<g id="node2" class="node">
<title>room_8</title>
<ellipse fill="none" stroke="black" cx="276.48" cy="-127.35" rx="45.44" ry="18"/>
<text text-anchor="middle" x="276.48" y="-123.15" font-family="Times,serif" font-size="14.00">wasteland</text>
</g>
<!-- room_6&#45;&gt;room_8 -->
<g id="edge1" class="edge">
<title>room_6&#45;&gt;room_8</title>
<path fill="none" stroke="black" d="M202.2,-139.94C210.51,-139.51 219.28,-138.85 227.76,-138.02"/>
<polygon fill="black" stroke="black" points="228.35,-141.48 237.92,-136.92 227.6,-134.52 228.35,-141.48"/>
<text text-anchor="middle" x="211.48" y="-141.78" font-family="Times,serif" font-size="14.00">n</text>
</g>
<!-- room_7 -->
<g id="node3" class="node">
<title>room_7</title>
<ellipse fill="none" stroke="black" cx="214.93" cy="-39.25" rx="43.03" ry="18"/>
<text text-anchor="middle" x="214.93" y="-35.05" font-family="Times,serif" font-size="14.00">grey hills</text>
</g>
<!-- room_6&#45;&gt;room_7 -->
<g id="edge2" class="edge">
<title>room_6&#45;&gt;room_7</title>
<path fill="none" stroke="black" d="M175.47,-119.88C185.47,-105.23 197.77,-83.88 206.11,-66.81"/>
<polygon fill="black" stroke="black" points="209.47,-67.87 210.52,-57.33 203.13,-64.92 209.47,-67.87"/>
<text text-anchor="middle" x="187.68" y="-96.14" font-family="Times,serif" font-size="14.00">e</text>
</g>
<!-- room_23 -->
<g id="node4" class="node">
<title>room_23</title>
<ellipse fill="none" stroke="black" cx="54.07" cy="-178.84" rx="54.13" ry="18"/>
<text text-anchor="middle" x="54.07" y="-174.64" font-family="Times,serif" font-size="14.00">Grey Steppe</text>
</g>
<!-- room_6&#45;&gt;room_23 -->
<g id="edge3" class="edge">
<title>room_6&#45;&gt;room_23</title>
<path fill="none" stroke="black" d="M120.77,-145.34C109.96,-149.21 98.3,-153.85 87.79,-158.47"/>
<polygon fill="black" stroke="black" points="86.19,-155.36 78.53,-162.68 89.08,-161.73 86.19,-155.36"/>
<text text-anchor="middle" x="99.23" y="-140.71" font-family="Times,serif" font-size="14.00">w</text>
</g>
<!-- room_8&#45;&gt;room_6 -->
<g id="edge9" class="edge">
<title>room_8&#45;&gt;room_6</title>
<path fill="none" stroke="black" d="M231.35,-124.43C223.25,-124.89 214.78,-125.55 206.62,-126.38"/>
<polygon fill="black" stroke="black" points="206.05,-122.92 196.49,-127.5 206.82,-129.88 206.05,-122.92"/>
<text text-anchor="middle" x="213.93" y="-114.21" font-family="Times,serif" font-size="14.00">w</text>
</g>
<!-- room_8&#45;&gt;room_7 -->
<g id="edge7" class="edge">
<title>room_8&#45;&gt;room_7</title>
<path fill="none" stroke="black" d="M270.32,-109.42C262.99,-96.22 250.86,-78.2 239.75,-63.7"/>
<polygon fill="black" stroke="black" points="242.31,-61.31 233.37,-55.64 236.82,-65.65 242.31,-61.31"/>
<text text-anchor="middle" x="252.31" y="-89.36" font-family="Times,serif" font-size="14.00">s</text>
</g>
<!-- room_9 -->
<g id="node5" class="node">
<title>room_9</title>
<ellipse fill="none" stroke="black" cx="323.22" cy="-18" rx="43.03" ry="18"/>
<text text-anchor="middle" x="323.22" y="-13.8" font-family="Times,serif" font-size="14.00">grey hills</text>
</g>
<!-- room_8&#45;&gt;room_9 -->
<g id="edge8" class="edge">
<title>room_8&#45;&gt;room_9</title>
<path fill="none" stroke="black" d="M289.72,-109.89C299,-92.6 310.58,-65.91 317.68,-45.72"/>
<polygon fill="black" stroke="black" points="321.04,-46.72 320.86,-36.13 314.39,-44.52 321.04,-46.72"/>
<text text-anchor="middle" x="300.6" y="-80.61" font-family="Times,serif" font-size="14.00">e</text>
</g>
<!-- room_88 -->
<g id="node6" class="node">
<title>room_88</title>
<ellipse fill="none" stroke="black" cx="355.3" cy="-213.99" rx="42.05" ry="18"/>
<text text-anchor="middle" x="355.3" y="-209.79" font-family="Times,serif" font-size="14.00">rabid lair</text>
</g>
<!-- room_8&#45;&gt;room_88 -->
<g id="edge10" class="edge">
<title>room_8&#45;&gt;room_88</title>
<path fill="none" stroke="black" d="M285.67,-145.13C295.65,-158.5 311.78,-176.79 326.05,-191.2"/>
<polygon fill="black" stroke="black" points="323.71,-193.82 333.3,-198.34 328.62,-188.83 323.71,-193.82"/>
<text text-anchor="middle" x="302.36" y="-170.97" font-family="Times,serif" font-size="14.00">d</text>
</g>
<!-- room_7&#45;&gt;room_6 -->
<g id="edge6" class="edge">
<title>room_7&#45;&gt;room_6</title>
<path fill="none" stroke="black" d="M198.87,-56.27C188.87,-70.93 176.57,-92.28 168.23,-109.35"/>
<polygon fill="black" stroke="black" points="164.86,-108.28 163.82,-118.82 171.21,-111.23 164.86,-108.28"/>
<text text-anchor="middle" x="178.49" y="-85.61" font-family="Times,serif" font-size="14.00">w</text>
</g>
<!-- room_7&#45;&gt;room_8 -->
<g id="edge4" class="edge">
<title>room_7&#45;&gt;room_8</title>
<path fill="none" stroke="black" d="M221.09,-57.19C228.38,-70.3 240.39,-88.16 251.44,-102.61"/>
<polygon fill="black" stroke="black" points="248.85,-104.98 257.79,-110.66 254.35,-100.64 248.85,-104.98"/>
<text text-anchor="middle" x="232.77" y="-82.7" font-family="Times,serif" font-size="14.00">n</text>
</g>
<!-- room_7&#45;&gt;room_9 -->
<g id="edge5" class="edge">
<title>room_7&#45;&gt;room_9</title>
<path fill="none" stroke="black" d="M258.07,-37.51C265.89,-36.18 274.02,-34.59 281.79,-32.87"/>
<polygon fill="black" stroke="black" points="282.79,-36.23 291.73,-30.55 281.2,-29.42 282.79,-36.23"/>
<text text-anchor="middle" x="266.82" y="-37.99" font-family="Times,serif" font-size="14.00">e</text>
</g>
<!-- room_23&#45;&gt;room_6 -->
<g id="edge13" class="edge">
<title>room_23&#45;&gt;room_6</title>
<path fill="none" stroke="black" d="M98.15,-168.41C107.97,-164.76 118.19,-160.6 127.42,-156.49"/>
<polygon fill="black" stroke="black" points="128.99,-159.62 136.61,-152.26 126.06,-153.26 128.99,-159.62"/>
<text text-anchor="middle" x="115.89" y="-165.25" font-family="Times,serif" font-size="14.00">e</text>
</g>
<!-- room_9&#45;&gt;room_8 -->
<g id="edge11" class="edge">
<title>room_9&#45;&gt;room_8</title>
<path fill="none" stroke="black" d="M309.97,-35.46C300.7,-52.75 289.11,-79.44 282.01,-99.63"/>
<polygon fill="black" stroke="black" points="278.66,-98.63 278.83,-109.22 285.3,-100.83 278.66,-98.63"/>
<text text-anchor="middle" x="292.49" y="-70.34" font-family="Times,serif" font-size="14.00">n</text>
</g>
<!-- room_9&#45;&gt;room_7 -->
<g id="edge12" class="edge">
<title>room_9&#45;&gt;room_7</title>
<path fill="none" stroke="black" d="M280.08,-19.75C272.26,-21.08 264.12,-22.67 256.36,-24.38"/>
<polygon fill="black" stroke="black" points="255.36,-21.02 246.42,-26.7 256.95,-27.84 255.36,-21.02"/>
<text text-anchor="middle" x="263.16" y="-10.87" font-family="Times,serif" font-size="14.00">w</text>
</g>
<!-- room_88&#45;&gt;room_8 -->
<g id="edge14" class="edge">
<title>room_88&#45;&gt;room_8</title>
<path fill="none" stroke="black" d="M346.11,-196.21C336.2,-182.93 320.22,-164.79 306.02,-150.42"/>
<polygon fill="black" stroke="black" points="308.38,-147.83 298.8,-143.3 303.46,-152.81 308.38,-147.83"/>
<text text-anchor="middle" x="322.57" y="-176.12" font-family="Times,serif" font-size="14.00">u</text>
</g>
</g>
</svg>
