<?xml version="1.0" encoding="UTF-8" standalone="no"?>
<!DOCTYPE svg PUBLIC "-//W3C//DTD SVG 1.1//EN"
 "http://www.w3.org/Graphics/SVG/1.1/DTD/svg11.dtd">
<!-- Generated by graphviz version 2.42.3 (20191010.1750)
 -->
<!-- Title: monster Pages: 1 -->
<svg width="457pt" height="1098pt"
 viewBox="0.00 0.00 456.74 1097.85" xmlns="http://www.w3.org/2000/svg" xmlns:xlink="http://www.w3.org/1999/xlink">
<g id="graph0" class="graph" transform="scale(1 1) rotate(0) translate(4 1093.85)">
<title>monster</title>
<polygon fill="white" stroke="transparent" points="-4,4 -4,-1093.85 452.74,-1093.85 452.74,4 -4,4"/>
<!-- room_24 -->
<g id="node1" class="node">
<title>room_24</title>
<ellipse fill="none" stroke="black" cx="58.97" cy="-1071.85" rx="58.93" ry="18"/>
<text text-anchor="middle" x="58.97" y="-1067.65" font-family="Times,serif" font-size="14.00">Entrance Hall</text>
</g>
<!-- room_265 -->
<g id="node2" class="node">
<title>room_265</title>
<ellipse fill="none" stroke="black" cx="114.91" cy="-975.68" rx="59.94" ry="18"/>
<text text-anchor="middle" x="114.91" y="-971.48" font-family="Times,serif" font-size="14.00">Cold Corridor</text>
</g>
<!-- room_24&#45;&gt;room_265 -->
<g id="edge1" class="edge">
<title>room_24&#45;&gt;room_265</title>
<path fill="none" stroke="black" d="M75.7,-1054.29C85.62,-1039.95 97.64,-1019.51 105.89,-1003.04"/>
<polygon fill="black" stroke="black" points="109.11,-1004.41 110.26,-993.88 102.79,-1001.39 109.11,-1004.41"/>
<text text-anchor="middle" x="87.69" y="-1031.46" font-family="Times,serif" font-size="14.00">e</text>
</g>
<!-- room_265&#45;&gt;room_24 -->
<g id="edge3" class="edge">
<title>room_265&#45;&gt;room_24</title>
<path fill="none" stroke="black" d="M98.17,-993.24C88.25,-1007.58 76.23,-1028.02 67.99,-1044.49"/>
<polygon fill="black" stroke="black" points="64.76,-1043.12 63.61,-1053.65 71.08,-1046.13 64.76,-1043.12"/>
<text text-anchor="middle" x="78.02" y="-1021.66" font-family="Times,serif" font-size="14.00">w</text>
</g>
<!-- room_266 -->
<g id="node3" class="node">
<title>room_266</title>
<ellipse fill="none" stroke="black" cx="144.66" cy="-868.53" rx="44.49" ry="18"/>
<text text-anchor="middle" x="144.66" y="-864.33" font-family="Times,serif" font-size="14.00">Blue Hall</text>
</g>
<!-- room_265&#45;&gt;room_266 -->
<g id="edge2" class="edge">
<title>room_265&#45;&gt;room_266</title>
<path fill="none" stroke="black" d="M125.35,-957.94C131.7,-941.33 138.88,-916.24 142.95,-896.86"/>
<polygon fill="black" stroke="black" points="146.44,-897.24 144.87,-886.76 139.56,-895.94 146.44,-897.24"/>
<text text-anchor="middle" x="131.04" y="-930.2" font-family="Times,serif" font-size="14.00">e</text>
</g>
<!-- room_266&#45;&gt;room_265 -->
<g id="edge5" class="edge">
<title>room_266&#45;&gt;room_265</title>
<path fill="none" stroke="black" d="M134.22,-886.26C127.86,-902.88 120.68,-927.97 116.62,-947.35"/>
<polygon fill="black" stroke="black" points="113.13,-946.97 114.7,-957.44 120,-948.27 113.13,-946.97"/>
<text text-anchor="middle" x="120.36" y="-919.61" font-family="Times,serif" font-size="14.00">w</text>
</g>
<!-- room_272 -->
<g id="node4" class="node">
<title>room_272</title>
<ellipse fill="none" stroke="black" cx="187.2" cy="-765.6" rx="56.54" ry="18"/>
<text text-anchor="middle" x="187.2" y="-761.4" font-family="Times,serif" font-size="14.00">Ice Ballroom</text>
</g>
<!-- room_266&#45;&gt;room_272 -->
<g id="edge4" class="edge">
<title>room_266&#45;&gt;room_272</title>
<path fill="none" stroke="black" d="M157.66,-851.24C165.92,-835.43 175.86,-811.84 182.12,-793.4"/>
<polygon fill="black" stroke="black" points="185.49,-794.36 185.19,-783.76 178.82,-792.23 185.49,-794.36"/>
<text text-anchor="middle" x="166.39" y="-825.12" font-family="Times,serif" font-size="14.00">n</text>
</g>
<!-- room_272&#45;&gt;room_266 -->
<g id="edge7" class="edge">
<title>room_272&#45;&gt;room_266</title>
<path fill="none" stroke="black" d="M173.96,-783.36C165.71,-799.23 155.86,-822.68 149.66,-840.98"/>
<polygon fill="black" stroke="black" points="146.31,-839.94 146.62,-850.53 152.99,-842.06 146.31,-839.94"/>
<text text-anchor="middle" x="159.08" y="-814.97" font-family="Times,serif" font-size="14.00">s</text>
</g>
<!-- room_273 -->
<g id="node5" class="node">
<title>room_273</title>
<ellipse fill="none" stroke="black" cx="212.52" cy="-657.02" rx="65.23" ry="18"/>
<text text-anchor="middle" x="212.52" y="-652.82" font-family="Times,serif" font-size="14.00">Chior of Icicles</text>
</g>
<!-- room_272&#45;&gt;room_273 -->
<g id="edge6" class="edge">
<title>room_272&#45;&gt;room_273</title>
<path fill="none" stroke="black" d="M196.91,-747.39C202.6,-730.4 208.77,-704.81 212.03,-685.19"/>
<polygon fill="black" stroke="black" points="215.49,-685.67 213.48,-675.27 208.57,-684.66 215.49,-685.67"/>
<text text-anchor="middle" x="200.97" y="-719.09" font-family="Times,serif" font-size="14.00">n</text>
</g>
<!-- room_273&#45;&gt;room_272 -->
<g id="edge8" class="edge">
<title>room_273&#45;&gt;room_272</title>
<path fill="none" stroke="black" d="M202.82,-675.22C197.13,-692.21 190.95,-717.81 187.7,-737.43"/>
<polygon fill="black" stroke="black" points="184.23,-736.94 186.25,-747.34 191.16,-737.96 184.23,-736.94"/>
<text text-anchor="middle" x="192.53" y="-709.13" font-family="Times,serif" font-size="14.00">s</text>
</g>
<!-- room_460 -->
<g id="node6" class="node">
<title>room_460</title>
<ellipse fill="none" stroke="black" cx="220.72" cy="-545.66" rx="57.04" ry="18"/>
<text text-anchor="middle" x="220.72" y="-541.46" font-family="Times,serif" font-size="14.00">Hall of Snow</text>
</g>
<!-- room_273&#45;&gt;room_460 -->
<g id="edge9" class="edge">
<title>room_273&#45;&gt;room_460</title>
<path fill="none" stroke="black" d="M219.03,-639.01C222.15,-621.36 224.4,-594.21 224.59,-573.73"/>
<polygon fill="black" stroke="black" points="228.09,-573.68 224.5,-563.72 221.09,-573.75 228.09,-573.68"/>
<text text-anchor="middle" x="216.75" y="-609.17" font-family="Times,serif" font-size="14.00">w</text>
</g>
<!-- room_460&#45;&gt;room_273 -->
<g id="edge10" class="edge">
<title>room_460&#45;&gt;room_273</title>
<path fill="none" stroke="black" d="M214.21,-563.67C211.09,-581.32 208.84,-608.47 208.65,-628.95"/>
<polygon fill="black" stroke="black" points="205.15,-629 208.74,-638.97 212.15,-628.93 205.15,-629"/>
<text text-anchor="middle" x="208.32" y="-599.11" font-family="Times,serif" font-size="14.00">e</text>
</g>
<!-- room_461 -->
<g id="node7" class="node">
<title>room_461</title>
<ellipse fill="none" stroke="black" cx="231.59" cy="-434.21" rx="60.41" ry="18"/>
<text text-anchor="middle" x="231.59" y="-430.01" font-family="Times,serif" font-size="14.00">Frigid Gallery</text>
</g>
<!-- room_460&#45;&gt;room_461 -->
<g id="edge11" class="edge">
<title>room_460&#45;&gt;room_461</title>
<path fill="none" stroke="black" d="M227.66,-527.76C231.2,-510.14 234.1,-482.97 234.78,-462.45"/>
<polygon fill="black" stroke="black" points="238.28,-462.45 234.93,-452.4 231.28,-462.35 238.28,-462.45"/>
<text text-anchor="middle" x="226.16" y="-497.9" font-family="Times,serif" font-size="14.00">w</text>
</g>
<!-- room_461&#45;&gt;room_460 -->
<g id="edge13" class="edge">
<title>room_461&#45;&gt;room_460</title>
<path fill="none" stroke="black" d="M224.65,-452.12C221.1,-469.73 218.2,-496.9 217.52,-517.43"/>
<polygon fill="black" stroke="black" points="214.02,-517.43 217.38,-527.48 221.02,-517.53 214.02,-517.43"/>
<text text-anchor="middle" x="217.98" y="-487.57" font-family="Times,serif" font-size="14.00">e</text>
</g>
<!-- room_462 -->
<g id="node8" class="node">
<title>room_462</title>
<ellipse fill="none" stroke="black" cx="246.83" cy="-321.74" rx="63.29" ry="18"/>
<text text-anchor="middle" x="246.83" y="-317.54" font-family="Times,serif" font-size="14.00">White Balcony</text>
</g>
<!-- room_461&#45;&gt;room_462 -->
<g id="edge12" class="edge">
<title>room_461&#45;&gt;room_462</title>
<path fill="none" stroke="black" d="M239.22,-416.33C243.48,-398.51 247.47,-370.88 248.94,-350.08"/>
<polygon fill="black" stroke="black" points="252.44,-350.07 249.46,-339.91 245.45,-349.71 252.44,-350.07"/>
<text text-anchor="middle" x="241.36" y="-386.01" font-family="Times,serif" font-size="14.00">s</text>
</g>
<!-- room_462&#45;&gt;room_461 -->
<g id="edge14" class="edge">
<title>room_462&#45;&gt;room_461</title>
<path fill="none" stroke="black" d="M239.19,-339.62C234.93,-357.44 230.94,-385.07 229.47,-405.87"/>
<polygon fill="black" stroke="black" points="225.97,-405.88 228.95,-416.04 232.96,-406.24 225.97,-405.88"/>
<text text-anchor="middle" x="230.83" y="-375.54" font-family="Times,serif" font-size="14.00">n</text>
</g>
<!-- room_463 -->
<g id="node9" class="node">
<title>room_463</title>
<ellipse fill="none" stroke="black" cx="268.44" cy="-204.32" rx="47.43" ry="18"/>
<text text-anchor="middle" x="268.44" y="-200.12" font-family="Times,serif" font-size="14.00">Rime Tree</text>
</g>
<!-- room_462&#45;&gt;room_463 -->
<g id="edge15" class="edge">
<title>room_462&#45;&gt;room_463</title>
<path fill="none" stroke="black" d="M255.33,-303.8C260.76,-284.87 266.53,-254.79 269.12,-232.65"/>
<polygon fill="black" stroke="black" points="272.63,-232.8 270.13,-222.51 265.66,-232.11 272.63,-232.8"/>
<text text-anchor="middle" x="259.12" y="-271.02" font-family="Times,serif" font-size="14.00">e</text>
</g>
<!-- room_463&#45;&gt;room_462 -->
<g id="edge16" class="edge">
<title>room_463&#45;&gt;room_462</title>
<path fill="none" stroke="black" d="M259.93,-222.26C254.5,-241.19 248.73,-271.27 246.14,-293.41"/>
<polygon fill="black" stroke="black" points="242.64,-293.26 245.14,-303.55 249.6,-293.95 242.64,-293.26"/>
<text text-anchor="middle" x="247.98" y="-260.64" font-family="Times,serif" font-size="14.00">w</text>
</g>
<!-- room_467 -->
<g id="node10" class="node">
<title>room_467</title>
<ellipse fill="none" stroke="black" cx="188.02" cy="-113.51" rx="63.34" ry="18"/>
<text text-anchor="middle" x="188.02" y="-109.31" font-family="Times,serif" font-size="14.00">The Rime Tree</text>
</g>
<!-- room_463&#45;&gt;room_467 -->
<g id="edge17" class="edge">
<title>room_463&#45;&gt;room_467</title>
<path fill="none" stroke="black" d="M259.35,-186.34C249.15,-172.31 232.41,-152.81 217.66,-137.48"/>
<polygon fill="black" stroke="black" points="220.13,-135 210.62,-130.33 215.14,-139.91 220.13,-135"/>
<text text-anchor="middle" x="235" y="-164.71" font-family="Times,serif" font-size="14.00">u</text>
</g>
<!-- room_464 -->
<g id="node11" class="node">
<title>room_464</title>
<ellipse fill="none" stroke="black" cx="383.74" cy="-160.32" rx="65" ry="18"/>
<text text-anchor="middle" x="383.74" y="-156.12" font-family="Times,serif" font-size="14.00">Hrungnir&#39;s Hall</text>
</g>
<!-- room_463&#45;&gt;room_464 -->
<g id="edge18" class="edge">
<title>room_463&#45;&gt;room_464</title>
<path fill="none" stroke="black" d="M309.77,-195.43C322.19,-191.16 335.72,-185.99 347.77,-180.9"/>
<polygon fill="black" stroke="black" points="349.29,-184.05 357.07,-176.85 346.5,-177.63 349.29,-184.05"/>
<text text-anchor="middle" x="325.27" y="-190.96" font-family="Times,serif" font-size="14.00">d</text>
</g>
<!-- room_467&#45;&gt;room_463 -->
<g id="edge22" class="edge">
<title>room_467&#45;&gt;room_463</title>
<path fill="none" stroke="black" d="M197.11,-131.49C207.45,-145.7 224.5,-165.54 239.39,-180.96"/>
<polygon fill="black" stroke="black" points="236.96,-183.48 246.48,-188.13 241.94,-178.56 236.96,-183.48"/>
<text text-anchor="middle" x="214.75" y="-159.02" font-family="Times,serif" font-size="14.00">d</text>
</g>
<!-- room_466 -->
<g id="node12" class="node">
<title>room_466</title>
<ellipse fill="none" stroke="black" cx="125.44" cy="-18" rx="48.49" ry="18"/>
<text text-anchor="middle" x="125.44" y="-13.8" font-family="Times,serif" font-size="14.00">Ice Throne</text>
</g>
<!-- room_467&#45;&gt;room_466 -->
<g id="edge21" class="edge">
<title>room_467&#45;&gt;room_466</title>
<path fill="none" stroke="black" d="M182.24,-95.36C174.55,-80.5 161.18,-59.42 149.27,-42.99"/>
<polygon fill="black" stroke="black" points="152,-40.8 143.21,-34.88 146.39,-44.99 152,-40.8"/>
<text text-anchor="middle" x="162.26" y="-71.97" font-family="Times,serif" font-size="14.00">n</text>
</g>
<!-- room_464&#45;&gt;room_463 -->
<g id="edge19" class="edge">
<title>room_464&#45;&gt;room_463</title>
<path fill="none" stroke="black" d="M334.14,-172.13C323.32,-176.04 312.11,-180.44 302.09,-184.73"/>
<polygon fill="black" stroke="black" points="300.62,-181.56 292.88,-188.8 303.45,-187.96 300.62,-181.56"/>
<text text-anchor="middle" x="314.61" y="-167.23" font-family="Times,serif" font-size="14.00">u</text>
</g>
<!-- room_466&#45;&gt;room_467 -->
<g id="edge20" class="edge">
<title>room_466&#45;&gt;room_467</title>
<path fill="none" stroke="black" d="M131.22,-36.15C138.82,-50.81 151.94,-71.54 163.73,-87.87"/>
<polygon fill="black" stroke="black" points="160.97,-90.02 169.74,-95.96 166.59,-85.85 160.97,-90.02"/>
<text text-anchor="middle" x="144.75" y="-64.81" font-family="Times,serif" font-size="14.00">s</text>
</g>
</g>
</svg>
