<?xml version="1.0" encoding="UTF-8" standalone="no"?>
<!DOCTYPE svg PUBLIC "-//W3C//DTD SVG 1.1//EN"
 "http://www.w3.org/Graphics/SVG/1.1/DTD/svg11.dtd">
<!-- Generated by graphviz version 2.42.3 (20191010.1750)
 -->
<!-- Title: monster Pages: 1 -->
<svg width="394pt" height="336pt"
 viewBox="0.00 0.00 394.14 336.36" xmlns="http://www.w3.org/2000/svg" xmlns:xlink="http://www.w3.org/1999/xlink">
<g id="graph0" class="graph" transform="scale(1 1) rotate(0) translate(4 332.36)">
<title>monster</title>
<polygon fill="white" stroke="transparent" points="-4,4 -4,-332.36 390.14,-332.36 390.14,4 -4,4"/>
<!-- room_205 -->
<g id="node1" class="node">
<title>room_205</title>
<ellipse fill="none" stroke="black" cx="174.78" cy="-310.36" rx="47.58" ry="18"/>
<text text-anchor="middle" x="174.78" y="-306.16" font-family="Times,serif" font-size="14.00">Ice Wastes</text>
</g>
<!-- room_407 -->
<g id="node2" class="node">
<title>room_407</title>
<ellipse fill="none" stroke="black" cx="207.78" cy="-192.21" rx="56.15" ry="18"/>
<text text-anchor="middle" x="207.78" y="-188.01" font-family="Times,serif" font-size="14.00">Glacial View</text>
</g>
<!-- room_205&#45;&gt;room_407 -->
<g id="edge1" class="edge">
<title>room_205&#45;&gt;room_407</title>
<path fill="none" stroke="black" d="M185.01,-292.76C192.35,-273.68 201.14,-242.99 205.85,-220.53"/>
<polygon fill="black" stroke="black" points="209.32,-221.03 207.76,-210.55 202.44,-219.71 209.32,-221.03"/>
<text text-anchor="middle" x="191.93" y="-259.44" font-family="Times,serif" font-size="14.00">n</text>
</g>
<!-- room_407&#45;&gt;room_205 -->
<g id="edge8" class="edge">
<title>room_407&#45;&gt;room_205</title>
<path fill="none" stroke="black" d="M197.45,-210.07C190.12,-229.2 181.36,-259.79 176.68,-282.17"/>
<polygon fill="black" stroke="black" points="173.23,-281.63 174.79,-292.11 180.1,-282.94 173.23,-281.63"/>
<text text-anchor="middle" x="184.35" y="-248.92" font-family="Times,serif" font-size="14.00">s</text>
</g>
<!-- room_212 -->
<g id="node3" class="node">
<title>room_212</title>
<ellipse fill="none" stroke="black" cx="128.24" cy="-100.86" rx="47.58" ry="18"/>
<text text-anchor="middle" x="128.24" y="-96.66" font-family="Times,serif" font-size="14.00">Ice Wastes</text>
</g>
<!-- room_407&#45;&gt;room_212 -->
<g id="edge9" class="edge">
<title>room_407&#45;&gt;room_212</title>
<path fill="none" stroke="black" d="M198.86,-174.17C188.66,-159.89 171.8,-139.95 157.06,-124.42"/>
<polygon fill="black" stroke="black" points="159.52,-121.93 150.04,-117.2 154.5,-126.81 159.52,-121.93"/>
<text text-anchor="middle" x="174.85" y="-152.1" font-family="Times,serif" font-size="14.00">e</text>
</g>
<!-- room_408 -->
<g id="node5" class="node">
<title>room_408</title>
<ellipse fill="none" stroke="black" cx="329.13" cy="-174.43" rx="57.02" ry="18"/>
<text text-anchor="middle" x="329.13" y="-170.23" font-family="Times,serif" font-size="14.00">Frozen Gates</text>
</g>
<!-- room_407&#45;&gt;room_408 -->
<g id="edge7" class="edge">
<title>room_407&#45;&gt;room_408</title>
<path fill="none" stroke="black" d="M264.1,-190.76C268.73,-190.12 273.4,-189.42 277.99,-188.68"/>
<polygon fill="black" stroke="black" points="278.6,-192.13 287.88,-187.01 277.43,-185.23 278.6,-192.13"/>
<text text-anchor="middle" x="267.55" y="-192.52" font-family="Times,serif" font-size="14.00">n</text>
</g>
<!-- room_212&#45;&gt;room_407 -->
<g id="edge3" class="edge">
<title>room_212&#45;&gt;room_407</title>
<path fill="none" stroke="black" d="M137.16,-118.89C147.3,-133.08 164,-152.86 178.67,-168.34"/>
<polygon fill="black" stroke="black" points="176.19,-170.81 185.67,-175.55 181.21,-165.93 176.19,-170.81"/>
<text text-anchor="middle" x="152.86" y="-146.42" font-family="Times,serif" font-size="14.00">w</text>
</g>
<!-- room_213 -->
<g id="node4" class="node">
<title>room_213</title>
<ellipse fill="none" stroke="black" cx="47.79" cy="-18" rx="47.58" ry="18"/>
<text text-anchor="middle" x="47.79" y="-13.8" font-family="Times,serif" font-size="14.00">Ice Wastes</text>
</g>
<!-- room_212&#45;&gt;room_213 -->
<g id="edge2" class="edge">
<title>room_212&#45;&gt;room_213</title>
<path fill="none" stroke="black" d="M118.34,-83.17C108.45,-70.82 92.99,-54.33 79.02,-40.99"/>
<polygon fill="black" stroke="black" points="81.16,-38.2 71.46,-33.94 76.39,-43.32 81.16,-38.2"/>
<text text-anchor="middle" x="95.57" y="-64.88" font-family="Times,serif" font-size="14.00">e</text>
</g>
<!-- room_213&#45;&gt;room_212 -->
<g id="edge4" class="edge">
<title>room_213&#45;&gt;room_212</title>
<path fill="none" stroke="black" d="M57.7,-35.69C67.58,-48.04 83.04,-64.53 97.01,-77.87"/>
<polygon fill="black" stroke="black" points="94.87,-80.66 104.57,-84.92 99.64,-75.54 94.87,-80.66"/>
<text text-anchor="middle" x="73.85" y="-59.58" font-family="Times,serif" font-size="14.00">n</text>
</g>
<!-- room_213&#45;&gt;room_213 -->
<g id="edge5" class="edge">
<title>room_213&#45;&gt;room_213</title>
<path fill="none" stroke="black" d="M94.81,-21.3C105.63,-21.02 113.58,-19.92 113.58,-18 113.58,-16.77 110.32,-15.88 105.13,-15.32"/>
<polygon fill="black" stroke="black" points="105,-11.81 94.81,-14.7 104.58,-18.8 105,-11.81"/>
<text text-anchor="middle" x="116.31" y="-13.8" font-family="Times,serif" font-size="14.00">s</text>
</g>
<!-- room_213&#45;&gt;room_213 -->
<g id="edge6" class="edge">
<title>room_213&#45;&gt;room_213</title>
<path fill="none" stroke="black" d="M92.62,-24.62C113.41,-25.34 131.58,-23.13 131.58,-18 131.58,-13.75 119.12,-11.51 103.03,-11.27"/>
<polygon fill="black" stroke="black" points="102.58,-7.78 92.62,-11.38 102.66,-14.77 102.58,-7.78"/>
<text text-anchor="middle" x="134.69" y="-13.8" font-family="Times,serif" font-size="14.00">e</text>
</g>
<!-- room_408&#45;&gt;room_407 -->
<g id="edge10" class="edge">
<title>room_408&#45;&gt;room_407</title>
<path fill="none" stroke="black" d="M272.09,-175.98C267.62,-176.6 263.12,-177.28 258.68,-177.99"/>
<polygon fill="black" stroke="black" points="257.79,-174.59 248.52,-179.72 258.97,-181.5 257.79,-174.59"/>
<text text-anchor="middle" x="268.11" y="-165.79" font-family="Times,serif" font-size="14.00">s</text>
</g>
</g>
</svg>
