<?xml version="1.0" encoding="UTF-8" standalone="no"?>
<!DOCTYPE svg PUBLIC "-//W3C//DTD SVG 1.1//EN"
 "http://www.w3.org/Graphics/SVG/1.1/DTD/svg11.dtd">
<!-- Generated by graphviz version 2.42.3 (20191010.1750)
 -->
<!-- Title: monster Pages: 1 -->
<svg width="1550pt" height="383pt"
 viewBox="0.00 0.00 1550.14 382.63" xmlns="http://www.w3.org/2000/svg" xmlns:xlink="http://www.w3.org/1999/xlink">
<g id="graph0" class="graph" transform="scale(1 1) rotate(0) translate(4 378.63)">
<title>monster</title>
<polygon fill="white" stroke="transparent" points="-4,4 -4,-378.63 1546.14,-378.63 1546.14,4 -4,4"/>
<!-- room_24 -->
<g id="node1" class="node">
<title>room_24</title>
<ellipse fill="none" stroke="black" cx="418.97" cy="-130.04" rx="58.93" ry="18"/>
<text text-anchor="middle" x="418.97" y="-125.84" font-family="Times,serif" font-size="14.00">Entrance Hall</text>
</g>
<!-- room_408 -->
<g id="node2" class="node">
<title>room_408</title>
<ellipse fill="none" stroke="black" cx="294.95" cy="-139.31" rx="57.02" ry="18"/>
<text text-anchor="middle" x="294.95" y="-135.11" font-family="Times,serif" font-size="14.00">Frozen Gates</text>
</g>
<!-- room_24&#45;&gt;room_408 -->
<g id="edge1" class="edge">
<title>room_24&#45;&gt;room_408</title>
<path fill="none" stroke="black" d="M360.46,-127.66C357.81,-127.84 355.15,-128.04 352.5,-128.25"/>
<polygon fill="black" stroke="black" points="352.04,-124.78 342.39,-129.15 352.66,-131.75 352.04,-124.78"/>
<text text-anchor="middle" x="353.76" y="-116.76" font-family="Times,serif" font-size="14.00">s</text>
</g>
<!-- room_265 -->
<g id="node3" class="node">
<title>room_265</title>
<ellipse fill="none" stroke="black" cx="546.02" cy="-121.11" rx="59.94" ry="18"/>
<text text-anchor="middle" x="546.02" y="-116.91" font-family="Times,serif" font-size="14.00">Cold Corridor</text>
</g>
<!-- room_24&#45;&gt;room_265 -->
<g id="edge2" class="edge">
<title>room_24&#45;&gt;room_265</title>
<path fill="none" stroke="black" d="M477.39,-132.68C480.24,-132.5 483.1,-132.3 485.96,-132.09"/>
<polygon fill="black" stroke="black" points="486.53,-135.56 496.2,-131.24 485.95,-128.58 486.53,-135.56"/>
<text text-anchor="middle" x="483.23" y="-121.18" font-family="Times,serif" font-size="14.00">e</text>
</g>
<!-- room_408&#45;&gt;room_24 -->
<g id="edge20" class="edge">
<title>room_408&#45;&gt;room_24</title>
<path fill="none" stroke="black" d="M351.66,-141.82C354.51,-141.63 357.37,-141.42 360.22,-141.2"/>
<polygon fill="black" stroke="black" points="360.82,-144.66 370.47,-140.3 360.21,-137.68 360.82,-144.66"/>
<text text-anchor="middle" x="355.94" y="-130.31" font-family="Times,serif" font-size="14.00">n</text>
</g>
<!-- room_407 -->
<g id="node5" class="node">
<title>room_407</title>
<ellipse fill="none" stroke="black" cx="173.6" cy="-150.61" rx="56.15" ry="18"/>
<text text-anchor="middle" x="173.6" y="-146.41" font-family="Times,serif" font-size="14.00">Glacial View</text>
</g>
<!-- room_408&#45;&gt;room_407 -->
<g id="edge21" class="edge">
<title>room_408&#45;&gt;room_407</title>
<path fill="none" stroke="black" d="M237.92,-137.86C234.9,-138.12 231.87,-138.4 228.85,-138.7"/>
<polygon fill="black" stroke="black" points="228.28,-135.25 218.72,-139.82 229.04,-142.2 228.28,-135.25"/>
<text text-anchor="middle" x="234.75" y="-127.08" font-family="Times,serif" font-size="14.00">s</text>
</g>
<!-- room_265&#45;&gt;room_24 -->
<g id="edge10" class="edge">
<title>room_265&#45;&gt;room_24</title>
<path fill="none" stroke="black" d="M486.49,-118.54C483.67,-118.72 480.84,-118.92 478.02,-119.13"/>
<polygon fill="black" stroke="black" points="477.57,-115.66 467.9,-119.99 478.16,-122.63 477.57,-115.66"/>
<text text-anchor="middle" x="482.25" y="-107.64" font-family="Times,serif" font-size="14.00">w</text>
</g>
<!-- room_266 -->
<g id="node8" class="node">
<title>room_266</title>
<ellipse fill="none" stroke="black" cx="658.28" cy="-111.27" rx="44.49" ry="18"/>
<text text-anchor="middle" x="658.28" y="-107.07" font-family="Times,serif" font-size="14.00">Blue Hall</text>
</g>
<!-- room_265&#45;&gt;room_266 -->
<g id="edge9" class="edge">
<title>room_265&#45;&gt;room_266</title>
<path fill="none" stroke="black" d="M606.02,-122.62C607.6,-122.47 609.17,-122.31 610.74,-122.15"/>
<polygon fill="black" stroke="black" points="611.33,-125.61 620.87,-121 610.54,-118.65 611.33,-125.61"/>
<text text-anchor="middle" x="611.49" y="-125.18" font-family="Times,serif" font-size="14.00">e</text>
</g>
<!-- room_205 -->
<g id="node4" class="node">
<title>room_205</title>
<ellipse fill="none" stroke="black" cx="141.66" cy="-238.37" rx="47.58" ry="18"/>
<text text-anchor="middle" x="141.66" y="-234.17" font-family="Times,serif" font-size="14.00">Ice Wastes</text>
</g>
<!-- room_205&#45;&gt;room_407 -->
<g id="edge3" class="edge">
<title>room_205&#45;&gt;room_407</title>
<path fill="none" stroke="black" d="M154.12,-220.85C159.77,-208.78 165.87,-192.5 170.01,-178.65"/>
<polygon fill="black" stroke="black" points="173.49,-179.21 172.76,-168.64 166.74,-177.36 173.49,-179.21"/>
<text text-anchor="middle" x="158.57" y="-202.55" font-family="Times,serif" font-size="14.00">n</text>
</g>
<!-- room_407&#45;&gt;room_408 -->
<g id="edge17" class="edge">
<title>room_407&#45;&gt;room_408</title>
<path fill="none" stroke="black" d="M229.93,-152.12C232.97,-151.87 236.02,-151.58 239.06,-151.28"/>
<polygon fill="black" stroke="black" points="239.72,-154.73 249.29,-150.17 238.97,-147.77 239.72,-154.73"/>
<text text-anchor="middle" x="232.75" y="-140.5" font-family="Times,serif" font-size="14.00">n</text>
</g>
<!-- room_407&#45;&gt;room_205 -->
<g id="edge18" class="edge">
<title>room_407&#45;&gt;room_205</title>
<path fill="none" stroke="black" d="M160.94,-168.55C155.35,-180.57 149.34,-196.62 145.25,-210.31"/>
<polygon fill="black" stroke="black" points="141.81,-209.64 142.53,-220.21 148.56,-211.5 141.81,-209.64"/>
<text text-anchor="middle" x="150.37" y="-192.23" font-family="Times,serif" font-size="14.00">s</text>
</g>
<!-- room_212 -->
<g id="node6" class="node">
<title>room_212</title>
<ellipse fill="none" stroke="black" cx="119.16" cy="-75.55" rx="47.58" ry="18"/>
<text text-anchor="middle" x="119.16" y="-71.35" font-family="Times,serif" font-size="14.00">Ice Wastes</text>
</g>
<!-- room_407&#45;&gt;room_212 -->
<g id="edge19" class="edge">
<title>room_407&#45;&gt;room_212</title>
<path fill="none" stroke="black" d="M167.3,-132.55C161.67,-122.84 153.37,-110.79 145.19,-100.25"/>
<polygon fill="black" stroke="black" points="147.71,-97.79 138.72,-92.19 142.25,-102.18 147.71,-97.79"/>
<text text-anchor="middle" x="153.14" y="-119.2" font-family="Times,serif" font-size="14.00">e</text>
</g>
<!-- room_212&#45;&gt;room_407 -->
<g id="edge5" class="edge">
<title>room_212&#45;&gt;room_407</title>
<path fill="none" stroke="black" d="M125.46,-93.61C131.04,-103.25 139.27,-115.19 147.38,-125.68"/>
<polygon fill="black" stroke="black" points="144.83,-128.09 153.82,-133.7 150.29,-123.71 144.83,-128.09"/>
<text text-anchor="middle" x="131.36" y="-112.45" font-family="Times,serif" font-size="14.00">w</text>
</g>
<!-- room_213 -->
<g id="node7" class="node">
<title>room_213</title>
<ellipse fill="none" stroke="black" cx="47.79" cy="-18" rx="47.58" ry="18"/>
<text text-anchor="middle" x="47.79" y="-13.8" font-family="Times,serif" font-size="14.00">Ice Wastes</text>
</g>
<!-- room_212&#45;&gt;room_213 -->
<g id="edge4" class="edge">
<title>room_212&#45;&gt;room_213</title>
<path fill="none" stroke="black" d="M106.58,-58.01C100.22,-51.88 92.19,-45 84.12,-38.66"/>
<polygon fill="black" stroke="black" points="86.17,-35.83 76.09,-32.56 81.93,-41.4 86.17,-35.83"/>
<text text-anchor="middle" x="98.45" y="-37.14" font-family="Times,serif" font-size="14.00">e</text>
</g>
<!-- room_213&#45;&gt;room_212 -->
<g id="edge6" class="edge">
<title>room_213&#45;&gt;room_212</title>
<path fill="none" stroke="black" d="M60.37,-35.54C66.73,-41.67 74.76,-48.55 82.83,-54.89"/>
<polygon fill="black" stroke="black" points="80.78,-57.73 90.86,-60.99 85.01,-52.15 80.78,-57.73"/>
<text text-anchor="middle" x="68.1" y="-48.02" font-family="Times,serif" font-size="14.00">n</text>
</g>
<!-- room_213&#45;&gt;room_213 -->
<g id="edge7" class="edge">
<title>room_213&#45;&gt;room_213</title>
<path fill="none" stroke="black" d="M94.81,-21.3C105.63,-21.02 113.58,-19.92 113.58,-18 113.58,-16.77 110.32,-15.88 105.13,-15.32"/>
<polygon fill="black" stroke="black" points="105,-11.81 94.81,-14.7 104.58,-18.8 105,-11.81"/>
<text text-anchor="middle" x="116.31" y="-13.8" font-family="Times,serif" font-size="14.00">s</text>
</g>
<!-- room_213&#45;&gt;room_213 -->
<g id="edge8" class="edge">
<title>room_213&#45;&gt;room_213</title>
<path fill="none" stroke="black" d="M92.62,-24.62C113.41,-25.34 131.58,-23.13 131.58,-18 131.58,-13.75 119.12,-11.51 103.03,-11.27"/>
<polygon fill="black" stroke="black" points="102.58,-7.78 92.62,-11.38 102.66,-14.77 102.58,-7.78"/>
<text text-anchor="middle" x="134.69" y="-13.8" font-family="Times,serif" font-size="14.00">e</text>
</g>
<!-- room_266&#45;&gt;room_265 -->
<g id="edge12" class="edge">
<title>room_266&#45;&gt;room_265</title>
<path fill="none" stroke="black" d="M614.3,-108.51C610.96,-108.72 607.56,-108.96 604.15,-109.24"/>
<polygon fill="black" stroke="black" points="603.58,-105.78 593.95,-110.19 604.23,-112.75 603.58,-105.78"/>
<text text-anchor="middle" x="609.23" y="-97.68" font-family="Times,serif" font-size="14.00">w</text>
</g>
<!-- room_272 -->
<g id="node9" class="node">
<title>room_272</title>
<ellipse fill="none" stroke="black" cx="767.09" cy="-118.38" rx="56.54" ry="18"/>
<text text-anchor="middle" x="767.09" y="-114.18" font-family="Times,serif" font-size="14.00">Ice Ballroom</text>
</g>
<!-- room_266&#45;&gt;room_272 -->
<g id="edge11" class="edge">
<title>room_266&#45;&gt;room_272</title>
<path fill="none" stroke="black" d="M696.83,-120.31C698.13,-120.43 699.45,-120.56 700.77,-120.68"/>
<polygon fill="black" stroke="black" points="700.81,-124.19 711.06,-121.48 701.36,-117.21 700.81,-124.19"/>
<text text-anchor="middle" x="702.3" y="-123.29" font-family="Times,serif" font-size="14.00">n</text>
</g>
<!-- room_272&#45;&gt;room_266 -->
<g id="edge14" class="edge">
<title>room_272&#45;&gt;room_266</title>
<path fill="none" stroke="black" d="M719.48,-108.55C716.99,-108.35 714.47,-108.17 711.96,-108.02"/>
<polygon fill="black" stroke="black" points="711.86,-104.51 701.69,-107.48 711.5,-111.5 711.86,-104.51"/>
<text text-anchor="middle" x="713" y="-97.08" font-family="Times,serif" font-size="14.00">s</text>
</g>
<!-- room_273 -->
<g id="node10" class="node">
<title>room_273</title>
<ellipse fill="none" stroke="black" cx="896.74" cy="-135.04" rx="65.23" ry="18"/>
<text text-anchor="middle" x="896.74" y="-130.84" font-family="Times,serif" font-size="14.00">Chior of Icicles</text>
</g>
<!-- room_272&#45;&gt;room_273 -->
<g id="edge13" class="edge">
<title>room_272&#45;&gt;room_273</title>
<path fill="none" stroke="black" d="M809.8,-130.34C813.65,-130.96 817.61,-131.56 821.63,-132.13"/>
<polygon fill="black" stroke="black" points="821.32,-135.62 831.7,-133.49 822.25,-128.68 821.32,-135.62"/>
<text text-anchor="middle" x="812.22" y="-134.03" font-family="Times,serif" font-size="14.00">n</text>
</g>
<!-- room_273&#45;&gt;room_272 -->
<g id="edge15" class="edge">
<title>room_273&#45;&gt;room_272</title>
<path fill="none" stroke="black" d="M850.03,-122.45C844.85,-121.65 839.51,-120.89 834.14,-120.19"/>
<polygon fill="black" stroke="black" points="834.18,-116.67 823.83,-118.92 833.33,-123.62 834.18,-116.67"/>
<text text-anchor="middle" x="844.81" y="-110.12" font-family="Times,serif" font-size="14.00">s</text>
</g>
<!-- room_460 -->
<g id="node11" class="node">
<title>room_460</title>
<ellipse fill="none" stroke="black" cx="1027.13" cy="-158.34" rx="57.04" ry="18"/>
<text text-anchor="middle" x="1027.13" y="-154.14" font-family="Times,serif" font-size="14.00">Hall of Snow</text>
</g>
<!-- room_273&#45;&gt;room_460 -->
<g id="edge16" class="edge">
<title>room_273&#45;&gt;room_460</title>
<path fill="none" stroke="black" d="M938.31,-148.95C945.5,-150.49 953.13,-151.97 960.78,-153.34"/>
<polygon fill="black" stroke="black" points="960.36,-156.82 970.81,-155.06 961.55,-149.92 960.36,-156.82"/>
<text text-anchor="middle" x="944.49" y="-153.95" font-family="Times,serif" font-size="14.00">w</text>
</g>
<!-- room_460&#45;&gt;room_273 -->
<g id="edge22" class="edge">
<title>room_460&#45;&gt;room_273</title>
<path fill="none" stroke="black" d="M988.4,-145.05C982.55,-143.76 976.35,-142.51 970.04,-141.32"/>
<polygon fill="black" stroke="black" points="970.55,-137.85 960.09,-139.51 969.3,-144.74 970.55,-137.85"/>
<text text-anchor="middle" x="976.12" y="-131.98" font-family="Times,serif" font-size="14.00">e</text>
</g>
<!-- room_461 -->
<g id="node12" class="node">
<title>room_461</title>
<ellipse fill="none" stroke="black" cx="1152.89" cy="-182.12" rx="60.41" ry="18"/>
<text text-anchor="middle" x="1152.89" y="-177.92" font-family="Times,serif" font-size="14.00">Frigid Gallery</text>
</g>
<!-- room_460&#45;&gt;room_461 -->
<g id="edge23" class="edge">
<title>room_460&#45;&gt;room_461</title>
<path fill="none" stroke="black" d="M1065.06,-171.92C1071.07,-173.31 1077.45,-174.66 1083.91,-175.93"/>
<polygon fill="black" stroke="black" points="1083.62,-179.43 1094.1,-177.85 1084.92,-172.56 1083.62,-179.43"/>
<text text-anchor="middle" x="1069.43" y="-176.73" font-family="Times,serif" font-size="14.00">w</text>
</g>
<!-- room_461&#45;&gt;room_460 -->
<g id="edge25" class="edge">
<title>room_461&#45;&gt;room_460</title>
<path fill="none" stroke="black" d="M1113.93,-168.3C1107.41,-166.82 1100.48,-165.37 1093.5,-164.02"/>
<polygon fill="black" stroke="black" points="1093.74,-160.51 1083.27,-162.13 1092.47,-167.39 1093.74,-160.51"/>
<text text-anchor="middle" x="1100.61" y="-154.96" font-family="Times,serif" font-size="14.00">e</text>
</g>
<!-- room_462 -->
<g id="node13" class="node">
<title>room_462</title>
<ellipse fill="none" stroke="black" cx="1284.79" cy="-198.58" rx="63.29" ry="18"/>
<text text-anchor="middle" x="1284.79" y="-194.38" font-family="Times,serif" font-size="14.00">White Balcony</text>
</g>
<!-- room_461&#45;&gt;room_462 -->
<g id="edge24" class="edge">
<title>room_461&#45;&gt;room_462</title>
<path fill="none" stroke="black" d="M1197.85,-194.24C1202.22,-194.92 1206.73,-195.57 1211.29,-196.18"/>
<polygon fill="black" stroke="black" points="1210.95,-199.66 1221.31,-197.45 1211.83,-192.72 1210.95,-199.66"/>
<text text-anchor="middle" x="1201.85" y="-198.01" font-family="Times,serif" font-size="14.00">s</text>
</g>
<!-- room_462&#45;&gt;room_461 -->
<g id="edge26" class="edge">
<title>room_462&#45;&gt;room_461</title>
<path fill="none" stroke="black" d="M1238.35,-186.23C1233.54,-185.5 1228.57,-184.8 1223.57,-184.15"/>
<polygon fill="black" stroke="black" points="1223.65,-180.63 1213.29,-182.88 1222.79,-187.58 1223.65,-180.63"/>
<text text-anchor="middle" x="1227.46" y="-173.99" font-family="Times,serif" font-size="14.00">n</text>
</g>
<!-- room_463 -->
<g id="node14" class="node">
<title>room_463</title>
<ellipse fill="none" stroke="black" cx="1403.46" cy="-208.27" rx="47.43" ry="18"/>
<text text-anchor="middle" x="1403.46" y="-204.07" font-family="Times,serif" font-size="14.00">Rime Tree</text>
</g>
<!-- room_462&#45;&gt;room_463 -->
<g id="edge27" class="edge">
<title>room_462&#45;&gt;room_463</title>
<path fill="none" stroke="black" d="M1335.61,-209.45C1339.22,-209.79 1342.88,-210.11 1346.52,-210.39"/>
<polygon fill="black" stroke="black" points="1346.5,-213.89 1356.71,-211.08 1346.97,-206.91 1346.5,-213.89"/>
<text text-anchor="middle" x="1344.17" y="-212.72" font-family="Times,serif" font-size="14.00">e</text>
</g>
<!-- room_463&#45;&gt;room_462 -->
<g id="edge28" class="edge">
<title>room_463&#45;&gt;room_462</title>
<path fill="none" stroke="black" d="M1363.48,-198.55C1361.77,-198.35 1360.05,-198.16 1358.3,-197.97"/>
<polygon fill="black" stroke="black" points="1358.46,-194.47 1348.17,-196.99 1357.78,-201.44 1358.46,-194.47"/>
<text text-anchor="middle" x="1355.84" y="-187.06" font-family="Times,serif" font-size="14.00">w</text>
</g>
<!-- room_467 -->
<g id="node15" class="node">
<title>room_467</title>
<ellipse fill="none" stroke="black" cx="1434.3" cy="-288.81" rx="63.34" ry="18"/>
<text text-anchor="middle" x="1434.3" y="-284.61" font-family="Times,serif" font-size="14.00">The Rime Tree</text>
</g>
<!-- room_463&#45;&gt;room_467 -->
<g id="edge29" class="edge">
<title>room_463&#45;&gt;room_467</title>
<path fill="none" stroke="black" d="M1404.52,-226.55C1407.27,-236.94 1411.97,-250.13 1416.93,-261.7"/>
<polygon fill="black" stroke="black" points="1413.8,-263.28 1421.12,-270.94 1420.18,-260.39 1413.8,-263.28"/>
<text text-anchor="middle" x="1407.23" y="-246.93" font-family="Times,serif" font-size="14.00">u</text>
</g>
<!-- room_464 -->
<g id="node16" class="node">
<title>room_464</title>
<ellipse fill="none" stroke="black" cx="1442.19" cy="-123.79" rx="65" ry="18"/>
<text text-anchor="middle" x="1442.19" y="-119.59" font-family="Times,serif" font-size="14.00">Hrungnir&#39;s Hall</text>
</g>
<!-- room_463&#45;&gt;room_464 -->
<g id="edge30" class="edge">
<title>room_463&#45;&gt;room_464</title>
<path fill="none" stroke="black" d="M1417.72,-191.1C1424.17,-179.67 1431.31,-164.45 1436.4,-151.36"/>
<polygon fill="black" stroke="black" points="1439.73,-152.45 1439.85,-141.86 1433.15,-150.06 1439.73,-152.45"/>
<text text-anchor="middle" x="1423.56" y="-174.03" font-family="Times,serif" font-size="14.00">d</text>
</g>
<!-- room_467&#45;&gt;room_463 -->
<g id="edge34" class="edge">
<title>room_467&#45;&gt;room_463</title>
<path fill="none" stroke="black" d="M1433.24,-270.52C1430.47,-260.06 1425.72,-246.75 1420.72,-235.13"/>
<polygon fill="black" stroke="black" points="1423.83,-233.51 1416.51,-225.85 1417.46,-236.4 1423.83,-233.51"/>
<text text-anchor="middle" x="1423.48" y="-255.62" font-family="Times,serif" font-size="14.00">d</text>
</g>
<!-- room_466 -->
<g id="node17" class="node">
<title>room_466</title>
<ellipse fill="none" stroke="black" cx="1493.64" cy="-356.63" rx="48.49" ry="18"/>
<text text-anchor="middle" x="1493.64" y="-352.43" font-family="Times,serif" font-size="14.00">Ice Throne</text>
</g>
<!-- room_467&#45;&gt;room_466 -->
<g id="edge33" class="edge">
<title>room_467&#45;&gt;room_466</title>
<path fill="none" stroke="black" d="M1442.64,-306.9C1448.44,-314.99 1456.39,-324.59 1464.31,-333.2"/>
<polygon fill="black" stroke="black" points="1461.78,-335.62 1471.2,-340.46 1466.85,-330.8 1461.78,-335.62"/>
<text text-anchor="middle" x="1449.97" y="-322.85" font-family="Times,serif" font-size="14.00">n</text>
</g>
<!-- room_464&#45;&gt;room_463 -->
<g id="edge31" class="edge">
<title>room_464&#45;&gt;room_463</title>
<path fill="none" stroke="black" d="M1427.71,-141.38C1421.38,-152.64 1414.43,-167.47 1409.41,-180.32"/>
<polygon fill="black" stroke="black" points="1405.98,-179.49 1405.84,-190.09 1412.56,-181.89 1405.98,-179.49"/>
<text text-anchor="middle" x="1415.06" y="-163.65" font-family="Times,serif" font-size="14.00">u</text>
</g>
<!-- room_466&#45;&gt;room_467 -->
<g id="edge32" class="edge">
<title>room_466&#45;&gt;room_467</title>
<path fill="none" stroke="black" d="M1485.3,-338.53C1479.74,-330.78 1472.22,-321.65 1464.63,-313.32"/>
<polygon fill="black" stroke="black" points="1467.11,-310.85 1457.71,-305.96 1462.01,-315.65 1467.11,-310.85"/>
<text text-anchor="middle" x="1472.24" y="-314.73" font-family="Times,serif" font-size="14.00">s</text>
</g>
</g>
</svg>
