<?xml version="1.0" encoding="UTF-8" standalone="no"?>
<!DOCTYPE svg PUBLIC "-//W3C//DTD SVG 1.1//EN"
 "http://www.w3.org/Graphics/SVG/1.1/DTD/svg11.dtd">
<!-- Generated by graphviz version 2.42.3 (20191010.1750)
 -->
<!-- Title: monster Pages: 1 -->
<svg width="1099pt" height="1854pt"
 viewBox="0.00 0.00 1098.78 1853.62" xmlns="http://www.w3.org/2000/svg" xmlns:xlink="http://www.w3.org/1999/xlink">
<g id="graph0" class="graph" transform="scale(1 1) rotate(0) translate(4 1849.62)">
<title>monster</title>
<polygon fill="white" stroke="transparent" points="-4,4 -4,-1849.62 1094.78,-1849.62 1094.78,4 -4,4"/>
<!-- room_214 -->
<g id="node1" class="node">
<title>room_214</title>
<ellipse fill="none" stroke="black" cx="98.34" cy="-702.24" rx="85.49" ry="18"/>
<text text-anchor="middle" x="98.34" y="-698.04" font-family="Times,serif" font-size="14.00">Improbable Structure</text>
</g>
<!-- room_215 -->
<g id="node2" class="node">
<title>room_215</title>
<ellipse fill="none" stroke="black" cx="178.93" cy="-767.72" rx="85.5" ry="18"/>
<text text-anchor="middle" x="178.93" y="-763.52" font-family="Times,serif" font-size="14.00">Unlikely Greenhouse</text>
</g>
<!-- room_214&#45;&gt;room_215 -->
<g id="edge1" class="edge">
<title>room_214&#45;&gt;room_215</title>
<path fill="none" stroke="black" d="M111.51,-720.15C119.35,-727.73 129.7,-736.61 139.93,-744.66"/>
<polygon fill="black" stroke="black" points="137.99,-747.59 148.06,-750.89 142.25,-742.03 137.99,-747.59"/>
<text text-anchor="middle" x="122.22" y="-735.2" font-family="Times,serif" font-size="14.00">u</text>
</g>
<!-- room_215&#45;&gt;room_214 -->
<g id="edge4" class="edge">
<title>room_215&#45;&gt;room_214</title>
<path fill="none" stroke="black" d="M165.76,-749.81C157.91,-742.22 147.57,-733.35 137.34,-725.3"/>
<polygon fill="black" stroke="black" points="139.27,-722.37 129.2,-719.07 135.01,-727.93 139.27,-722.37"/>
<text text-anchor="middle" x="148.05" y="-726.36" font-family="Times,serif" font-size="14.00">d</text>
</g>
<!-- room_216 -->
<g id="node3" class="node">
<title>room_216</title>
<ellipse fill="none" stroke="black" cx="350.88" cy="-778.36" rx="78.3" ry="18"/>
<text text-anchor="middle" x="350.88" y="-774.16" font-family="Times,serif" font-size="14.00">Rope Shaft Bottom</text>
</g>
<!-- room_215&#45;&gt;room_216 -->
<g id="edge2" class="edge">
<title>room_215&#45;&gt;room_216</title>
<path fill="none" stroke="black" d="M247.47,-778.61C252.4,-778.98 257.41,-779.33 262.44,-779.65"/>
<polygon fill="black" stroke="black" points="262.55,-783.17 272.74,-780.26 262.97,-776.18 262.55,-783.17"/>
<text text-anchor="middle" x="251.45" y="-781.93" font-family="Times,serif" font-size="14.00">n</text>
</g>
<!-- room_452 -->
<g id="node4" class="node">
<title>room_452</title>
<ellipse fill="none" stroke="black" cx="78.03" cy="-819.46" rx="78.07" ry="18"/>
<text text-anchor="middle" x="78.03" y="-815.26" font-family="Times,serif" font-size="14.00">Wizard Pawn Shop</text>
</g>
<!-- room_215&#45;&gt;room_452 -->
<g id="edge3" class="edge">
<title>room_215&#45;&gt;room_452</title>
<path fill="none" stroke="black" d="M134.27,-783.14C125.43,-787.47 116.35,-792.23 108.13,-796.86"/>
<polygon fill="black" stroke="black" points="106.17,-793.95 99.28,-802 109.68,-800.01 106.17,-793.95"/>
<text text-anchor="middle" x="123.93" y="-792.8" font-family="Times,serif" font-size="14.00">s</text>
</g>
<!-- room_216&#45;&gt;room_215 -->
<g id="edge5" class="edge">
<title>room_216&#45;&gt;room_215</title>
<path fill="none" stroke="black" d="M286.77,-767.83C282.76,-767.5 278.68,-767.2 274.58,-766.91"/>
<polygon fill="black" stroke="black" points="274.54,-763.4 264.33,-766.25 274.08,-770.39 274.54,-763.4"/>
<text text-anchor="middle" x="277.95" y="-756.17" font-family="Times,serif" font-size="14.00">s</text>
</g>
<!-- room_217 -->
<g id="node5" class="node">
<title>room_217</title>
<ellipse fill="none" stroke="black" cx="486.96" cy="-813.01" rx="49.8" ry="18"/>
<text text-anchor="middle" x="486.96" y="-808.81" font-family="Times,serif" font-size="14.00">Rope Shaft</text>
</g>
<!-- room_216&#45;&gt;room_217 -->
<g id="edge6" class="edge">
<title>room_216&#45;&gt;room_217</title>
<path fill="none" stroke="black" d="M388.35,-794.27C400.99,-798.05 415.39,-801.88 429.22,-805.18"/>
<polygon fill="black" stroke="black" points="428.62,-808.63 439.15,-807.48 430.19,-801.81 428.62,-808.63"/>
<text text-anchor="middle" x="405.29" y="-802.53" font-family="Times,serif" font-size="14.00">u</text>
</g>
<!-- room_452&#45;&gt;room_215 -->
<g id="edge87" class="edge">
<title>room_452&#45;&gt;room_215</title>
<path fill="none" stroke="black" d="M121.81,-804.47C130.9,-800.05 140.29,-795.14 148.76,-790.36"/>
<polygon fill="black" stroke="black" points="150.65,-793.31 157.54,-785.26 147.14,-787.26 150.65,-793.31"/>
<text text-anchor="middle" x="131.79" y="-786.22" font-family="Times,serif" font-size="14.00">n</text>
</g>
<!-- room_217&#45;&gt;room_216 -->
<g id="edge9" class="edge">
<title>room_217&#45;&gt;room_216</title>
<path fill="none" stroke="black" d="M455.47,-798.93C446.71,-796.2 436.8,-793.38 426.66,-790.72"/>
<polygon fill="black" stroke="black" points="427.45,-787.31 416.89,-788.22 425.71,-794.09 427.45,-787.31"/>
<text text-anchor="middle" x="437.56" y="-783.62" font-family="Times,serif" font-size="14.00">d</text>
</g>
<!-- room_218 -->
<g id="node6" class="node">
<title>room_218</title>
<ellipse fill="none" stroke="black" cx="548.38" cy="-721.3" rx="67.4" ry="18"/>
<text text-anchor="middle" x="548.38" y="-717.1" font-family="Times,serif" font-size="14.00">Alchemist&#39;s Lab</text>
</g>
<!-- room_217&#45;&gt;room_218 -->
<g id="edge7" class="edge">
<title>room_217&#45;&gt;room_218</title>
<path fill="none" stroke="black" d="M505.35,-795.84C515.83,-782.48 528.48,-763.76 537.46,-748.4"/>
<polygon fill="black" stroke="black" points="540.69,-749.78 542.52,-739.34 534.58,-746.36 540.69,-749.78"/>
<text text-anchor="middle" x="518.68" y="-774.92" font-family="Times,serif" font-size="14.00">s</text>
</g>
<!-- room_236 -->
<g id="node7" class="node">
<title>room_236</title>
<ellipse fill="none" stroke="black" cx="479.61" cy="-938.53" rx="65.17" ry="18"/>
<text text-anchor="middle" x="479.61" y="-934.33" font-family="Times,serif" font-size="14.00">Rope Shaft Top</text>
</g>
<!-- room_217&#45;&gt;room_236 -->
<g id="edge8" class="edge">
<title>room_217&#45;&gt;room_236</title>
<path fill="none" stroke="black" d="M480.97,-830.98C477.63,-851.7 475.35,-886.03 475.53,-910.33"/>
<polygon fill="black" stroke="black" points="472.03,-910.46 475.78,-920.38 479.03,-910.29 472.03,-910.46"/>
<text text-anchor="middle" x="474.75" y="-873.45" font-family="Times,serif" font-size="14.00">u</text>
</g>
<!-- room_218&#45;&gt;room_217 -->
<g id="edge10" class="edge">
<title>room_218&#45;&gt;room_217</title>
<path fill="none" stroke="black" d="M529.66,-738.91C519.19,-752.31 506.64,-770.91 497.75,-786.16"/>
<polygon fill="black" stroke="black" points="494.56,-784.7 492.74,-795.13 500.67,-788.11 494.56,-784.7"/>
<text text-anchor="middle" x="510.21" y="-765.33" font-family="Times,serif" font-size="14.00">n</text>
</g>
<!-- room_219 -->
<g id="node8" class="node">
<title>room_219</title>
<ellipse fill="none" stroke="black" cx="567.83" cy="-603.36" rx="81.18" ry="18"/>
<text text-anchor="middle" x="567.83" y="-599.16" font-family="Times,serif" font-size="14.00">Reagentum Aureum</text>
</g>
<!-- room_218&#45;&gt;room_219 -->
<g id="edge11" class="edge">
<title>room_218&#45;&gt;room_219</title>
<path fill="none" stroke="black" d="M556.55,-703.18C561.64,-684.13 566.86,-653.91 569.04,-631.7"/>
<polygon fill="black" stroke="black" points="572.54,-631.77 569.85,-621.53 565.57,-631.22 572.54,-631.77"/>
<text text-anchor="middle" x="559.69" y="-670.24" font-family="Times,serif" font-size="14.00">e</text>
</g>
<!-- room_221 -->
<g id="node9" class="node">
<title>room_221</title>
<ellipse fill="none" stroke="black" cx="702.49" cy="-755.12" rx="78.75" ry="18"/>
<text text-anchor="middle" x="702.49" y="-750.92" font-family="Times,serif" font-size="14.00">Reagentum Ferrum</text>
</g>
<!-- room_218&#45;&gt;room_221 -->
<g id="edge12" class="edge">
<title>room_218&#45;&gt;room_221</title>
<path fill="none" stroke="black" d="M587.58,-736.07C598.46,-738.94 610.67,-741.87 622.97,-744.58"/>
<polygon fill="black" stroke="black" points="622.32,-748.02 632.83,-746.7 623.79,-741.18 622.32,-748.02"/>
<text text-anchor="middle" x="600.22" y="-743.13" font-family="Times,serif" font-size="14.00">w</text>
</g>
<!-- room_236&#45;&gt;room_217 -->
<g id="edge52" class="edge">
<title>room_236&#45;&gt;room_217</title>
<path fill="none" stroke="black" d="M485.6,-920.57C488.94,-899.84 491.22,-865.51 491.04,-841.22"/>
<polygon fill="black" stroke="black" points="494.54,-841.08 490.8,-831.17 487.54,-841.25 494.54,-841.08"/>
<text text-anchor="middle" x="484.82" y="-883.69" font-family="Times,serif" font-size="14.00">d</text>
</g>
<!-- room_235 -->
<g id="node26" class="node">
<title>room_235</title>
<ellipse fill="none" stroke="black" cx="563.9" cy="-982.71" rx="83.81" ry="18"/>
<text text-anchor="middle" x="563.9" y="-978.51" font-family="Times,serif" font-size="14.00">Illusionary Walkway</text>
</g>
<!-- room_236&#45;&gt;room_235 -->
<g id="edge50" class="edge">
<title>room_236&#45;&gt;room_235</title>
<path fill="none" stroke="black" d="M499.39,-955.73C502.98,-957.94 506.87,-960.2 510.9,-962.43"/>
<polygon fill="black" stroke="black" points="509.43,-965.62 519.89,-967.26 512.74,-959.45 509.43,-965.62"/>
<text text-anchor="middle" x="507.87" y="-961.88" font-family="Times,serif" font-size="14.00">s</text>
</g>
<!-- room_238 -->
<g id="node28" class="node">
<title>room_238</title>
<ellipse fill="none" stroke="black" cx="413.16" cy="-1059.31" rx="72.01" ry="18"/>
<text text-anchor="middle" x="413.16" y="-1055.11" font-family="Times,serif" font-size="14.00">Room of Candles</text>
</g>
<!-- room_236&#45;&gt;room_238 -->
<g id="edge49" class="edge">
<title>room_236&#45;&gt;room_238</title>
<path fill="none" stroke="black" d="M463.94,-956.24C450.8,-976.11 432.84,-1008.49 421.99,-1031.68"/>
<polygon fill="black" stroke="black" points="418.71,-1030.43 417.81,-1040.99 425.1,-1033.3 418.71,-1030.43"/>
<text text-anchor="middle" x="439.46" y="-996.76" font-family="Times,serif" font-size="14.00">n</text>
</g>
<!-- room_237 -->
<g id="node29" class="node">
<title>room_237</title>
<ellipse fill="none" stroke="black" cx="350.66" cy="-951.69" rx="55.6" ry="18"/>
<text text-anchor="middle" x="350.66" y="-947.49" font-family="Times,serif" font-size="14.00">Hemp Room</text>
</g>
<!-- room_236&#45;&gt;room_237 -->
<g id="edge51" class="edge">
<title>room_236&#45;&gt;room_237</title>
<path fill="none" stroke="black" d="M414.07,-938.43C411.02,-938.74 407.96,-939.08 404.94,-939.43"/>
<polygon fill="black" stroke="black" points="404.31,-935.98 394.82,-940.68 405.17,-942.93 404.31,-935.98"/>
<text text-anchor="middle" x="411.06" y="-927.73" font-family="Times,serif" font-size="14.00">e</text>
</g>
<!-- room_219&#45;&gt;room_218 -->
<g id="edge14" class="edge">
<title>room_219&#45;&gt;room_218</title>
<path fill="none" stroke="black" d="M559.66,-621.47C554.57,-640.52 549.36,-670.75 547.17,-692.96"/>
<polygon fill="black" stroke="black" points="543.67,-692.88 546.36,-703.13 550.65,-693.44 543.67,-692.88"/>
<text text-anchor="middle" x="548.36" y="-660.01" font-family="Times,serif" font-size="14.00">w</text>
</g>
<!-- room_220 -->
<g id="node10" class="node">
<title>room_220</title>
<ellipse fill="none" stroke="black" cx="596.57" cy="-487.74" rx="87.62" ry="18"/>
<text text-anchor="middle" x="596.57" y="-483.54" font-family="Times,serif" font-size="14.00">Reagentum Argentum</text>
</g>
<!-- room_219&#45;&gt;room_220 -->
<g id="edge13" class="edge">
<title>room_219&#45;&gt;room_220</title>
<path fill="none" stroke="black" d="M577.68,-585.26C584.2,-566.7 591.64,-537.6 595.53,-516"/>
<polygon fill="black" stroke="black" points="598.99,-516.52 597.13,-506.09 592.08,-515.4 598.99,-516.52"/>
<text text-anchor="middle" x="583.5" y="-553.43" font-family="Times,serif" font-size="14.00">e</text>
</g>
<!-- room_221&#45;&gt;room_218 -->
<g id="edge17" class="edge">
<title>room_221&#45;&gt;room_218</title>
<path fill="none" stroke="black" d="M660.88,-739.72C648.51,-736.5 634.59,-733.24 620.86,-730.32"/>
<polygon fill="black" stroke="black" points="621.43,-726.86 610.93,-728.25 620.01,-733.71 621.43,-726.86"/>
<text text-anchor="middle" x="637.76" y="-723.82" font-family="Times,serif" font-size="14.00">e</text>
</g>
<!-- room_222 -->
<g id="node12" class="node">
<title>room_222</title>
<ellipse fill="none" stroke="black" cx="822.78" cy="-799.14" rx="86" ry="18"/>
<text text-anchor="middle" x="822.78" y="-794.94" font-family="Times,serif" font-size="14.00">Reagentum Sulfurum</text>
</g>
<!-- room_221&#45;&gt;room_222 -->
<g id="edge18" class="edge">
<title>room_221&#45;&gt;room_222</title>
<path fill="none" stroke="black" d="M731.11,-771.95C738.82,-775.25 747.5,-778.7 756.37,-782.01"/>
<polygon fill="black" stroke="black" points="755.42,-785.39 766.02,-785.52 757.82,-778.81 755.42,-785.39"/>
<text text-anchor="middle" x="738.68" y="-779.78" font-family="Times,serif" font-size="14.00">w</text>
</g>
<!-- room_220&#45;&gt;room_219 -->
<g id="edge16" class="edge">
<title>room_220&#45;&gt;room_219</title>
<path fill="none" stroke="black" d="M586.72,-505.84C580.21,-524.4 572.76,-553.5 568.88,-575.09"/>
<polygon fill="black" stroke="black" points="565.41,-574.58 567.28,-585.01 572.32,-575.7 565.41,-574.58"/>
<text text-anchor="middle" x="572.74" y="-543.27" font-family="Times,serif" font-size="14.00">w</text>
</g>
<!-- room_224 -->
<g id="node11" class="node">
<title>room_224</title>
<ellipse fill="none" stroke="black" cx="631.7" cy="-365.99" rx="60.9" ry="18"/>
<text text-anchor="middle" x="631.7" y="-361.79" font-family="Times,serif" font-size="14.00">Obsidian Stair</text>
</g>
<!-- room_220&#45;&gt;room_224 -->
<g id="edge15" class="edge">
<title>room_220&#45;&gt;room_224</title>
<path fill="none" stroke="black" d="M607.03,-469.86C614.85,-449.94 624.41,-417.52 629.49,-394.19"/>
<polygon fill="black" stroke="black" points="632.96,-394.67 631.49,-384.18 626.1,-393.3 632.96,-394.67"/>
<text text-anchor="middle" x="615.15" y="-434.82" font-family="Times,serif" font-size="14.00">e</text>
</g>
<!-- room_224&#45;&gt;room_220 -->
<g id="edge24" class="edge">
<title>room_224&#45;&gt;room_220</title>
<path fill="none" stroke="black" d="M621.25,-383.87C613.43,-403.79 603.86,-436.21 598.78,-459.55"/>
<polygon fill="black" stroke="black" points="595.31,-459.06 596.79,-469.55 602.18,-460.43 595.31,-459.06"/>
<text text-anchor="middle" x="604.96" y="-424.51" font-family="Times,serif" font-size="14.00">w</text>
</g>
<!-- room_572 -->
<g id="node15" class="node">
<title>room_572</title>
<ellipse fill="none" stroke="black" cx="479.63" cy="-356.6" rx="83.09" ry="18"/>
<text text-anchor="middle" x="479.63" y="-352.4" font-family="Times,serif" font-size="14.00">Implement Chamber</text>
</g>
<!-- room_224&#45;&gt;room_572 -->
<g id="edge23" class="edge">
<title>room_224&#45;&gt;room_572</title>
<path fill="none" stroke="black" d="M580.19,-356.36C577.67,-356.14 575.12,-355.92 572.53,-355.72"/>
<polygon fill="black" stroke="black" points="572.68,-352.22 562.45,-354.97 572.16,-359.2 572.68,-352.22"/>
<text text-anchor="middle" x="573.25" y="-344.84" font-family="Times,serif" font-size="14.00">e</text>
</g>
<!-- room_226 -->
<g id="node16" class="node">
<title>room_226</title>
<ellipse fill="none" stroke="black" cx="541.58" cy="-257.49" rx="85.03" ry="18"/>
<text text-anchor="middle" x="541.58" y="-253.29" font-family="Times,serif" font-size="14.00">Upper Obsidian Stair</text>
</g>
<!-- room_224&#45;&gt;room_226 -->
<g id="edge25" class="edge">
<title>room_224&#45;&gt;room_226</title>
<path fill="none" stroke="black" d="M622.9,-347.81C610.64,-329.85 588.35,-302.39 570.14,-282.42"/>
<polygon fill="black" stroke="black" points="572.52,-279.84 563.14,-274.9 567.4,-284.61 572.52,-279.84"/>
<text text-anchor="middle" x="593.02" y="-317.91" font-family="Times,serif" font-size="14.00">u</text>
</g>
<!-- room_308 -->
<g id="node17" class="node">
<title>room_308</title>
<ellipse fill="none" stroke="black" cx="726.86" cy="-314.15" rx="73.94" ry="18"/>
<text text-anchor="middle" x="726.86" y="-309.95" font-family="Times,serif" font-size="14.00">Obsidian Landing</text>
</g>
<!-- room_224&#45;&gt;room_308 -->
<g id="edge26" class="edge">
<title>room_224&#45;&gt;room_308</title>
<path fill="none" stroke="black" d="M670.82,-352.16C680.1,-347.44 689.82,-342.07 698.52,-336.87"/>
<polygon fill="black" stroke="black" points="700.48,-339.77 707.15,-331.53 696.8,-333.81 700.48,-339.77"/>
<text text-anchor="middle" x="681.17" y="-333.31" font-family="Times,serif" font-size="14.00">d</text>
</g>
<!-- room_222&#45;&gt;room_221 -->
<g id="edge19" class="edge">
<title>room_222&#45;&gt;room_221</title>
<path fill="none" stroke="black" d="M793.86,-782.18C785.67,-778.68 776.42,-775.02 767.02,-771.55"/>
<polygon fill="black" stroke="black" points="768.2,-768.25 757.6,-768.15 765.82,-774.84 768.2,-768.25"/>
<text text-anchor="middle" x="783.55" y="-765.66" font-family="Times,serif" font-size="14.00">e</text>
</g>
<!-- room_223 -->
<g id="node13" class="node">
<title>room_223</title>
<ellipse fill="none" stroke="black" cx="924.34" cy="-872.97" rx="76.31" ry="18"/>
<text text-anchor="middle" x="924.34" y="-868.77" font-family="Times,serif" font-size="14.00">Giant Lead Sphere</text>
</g>
<!-- room_222&#45;&gt;room_223 -->
<g id="edge20" class="edge">
<title>room_222&#45;&gt;room_223</title>
<path fill="none" stroke="black" d="M838.26,-817.02C850.17,-827.25 867.12,-840.07 882.86,-850.9"/>
<polygon fill="black" stroke="black" points="881.19,-853.99 891.43,-856.68 885.1,-848.19 881.19,-853.99"/>
<text text-anchor="middle" x="855.5" y="-836.76" font-family="Times,serif" font-size="14.00">w</text>
</g>
<!-- room_223&#45;&gt;room_222 -->
<g id="edge21" class="edge">
<title>room_223&#45;&gt;room_222</title>
<path fill="none" stroke="black" d="M908.87,-855.09C897.15,-845.01 880.52,-832.43 864.99,-821.7"/>
<polygon fill="black" stroke="black" points="866.76,-818.67 856.52,-815.96 862.84,-824.47 866.76,-818.67"/>
<text text-anchor="middle" x="883.83" y="-841.19" font-family="Times,serif" font-size="14.00">e</text>
</g>
<!-- room_225 -->
<g id="node14" class="node">
<title>room_225</title>
<ellipse fill="none" stroke="black" cx="999.12" cy="-981.33" rx="62.37" ry="18"/>
<text text-anchor="middle" x="999.12" y="-977.13" font-family="Times,serif" font-size="14.00">Climbing Stair</text>
</g>
<!-- room_223&#45;&gt;room_225 -->
<g id="edge22" class="edge">
<title>room_223&#45;&gt;room_225</title>
<path fill="none" stroke="black" d="M931.02,-891.28C940.9,-909.11 959.16,-936.23 974.37,-956.08"/>
<polygon fill="black" stroke="black" points="971.73,-958.4 980.66,-964.1 977.24,-954.07 971.73,-958.4"/>
<text text-anchor="middle" x="947.64" y="-926.48" font-family="Times,serif" font-size="14.00">w</text>
</g>
<!-- room_225&#45;&gt;room_223 -->
<g id="edge27" class="edge">
<title>room_225&#45;&gt;room_223</title>
<path fill="none" stroke="black" d="M992.44,-963.02C982.63,-945.3 964.53,-918.4 949.38,-898.58"/>
<polygon fill="black" stroke="black" points="952.02,-896.28 943.1,-890.57 946.51,-900.6 952.02,-896.28"/>
<text text-anchor="middle" x="967.8" y="-933.6" font-family="Times,serif" font-size="14.00">e</text>
</g>
<!-- room_231 -->
<g id="node18" class="node">
<title>room_231</title>
<ellipse fill="none" stroke="black" cx="1013.07" cy="-1106.61" rx="62.37" ry="18"/>
<text text-anchor="middle" x="1013.07" y="-1102.41" font-family="Times,serif" font-size="14.00">Climbing Stair</text>
</g>
<!-- room_225&#45;&gt;room_231 -->
<g id="edge28" class="edge">
<title>room_225&#45;&gt;room_231</title>
<path fill="none" stroke="black" d="M996.25,-999.55C996.39,-1020.24 999.87,-1054.22 1004.1,-1078.35"/>
<polygon fill="black" stroke="black" points="1000.69,-1079.18 1006.01,-1088.34 1007.57,-1077.86 1000.69,-1079.18"/>
<text text-anchor="middle" x="996.67" y="-1041.75" font-family="Times,serif" font-size="14.00">u</text>
</g>
<!-- room_572&#45;&gt;room_224 -->
<g id="edge88" class="edge">
<title>room_572&#45;&gt;room_224</title>
<path fill="none" stroke="black" d="M546.36,-367.44C551.27,-367.79 556.24,-368.11 561.17,-368.38"/>
<polygon fill="black" stroke="black" points="561.06,-371.88 571.22,-368.88 561.41,-364.89 561.06,-371.88"/>
<text text-anchor="middle" x="558.82" y="-370.71" font-family="Times,serif" font-size="14.00">w</text>
</g>
<!-- room_226&#45;&gt;room_224 -->
<g id="edge30" class="edge">
<title>room_226&#45;&gt;room_224</title>
<path fill="none" stroke="black" d="M550.38,-275.67C562.72,-293.74 585.21,-321.43 603.48,-341.43"/>
<polygon fill="black" stroke="black" points="601.11,-344.02 610.5,-348.94 606.23,-339.24 601.11,-344.02"/>
<text text-anchor="middle" x="573.43" y="-311.35" font-family="Times,serif" font-size="14.00">d</text>
</g>
<!-- room_227 -->
<g id="node19" class="node">
<title>room_227</title>
<ellipse fill="none" stroke="black" cx="478.49" cy="-156.65" rx="76.83" ry="18"/>
<text text-anchor="middle" x="478.49" y="-152.45" font-family="Times,serif" font-size="14.00">Obsidian Chamber</text>
</g>
<!-- room_226&#45;&gt;room_227 -->
<g id="edge29" class="edge">
<title>room_226&#45;&gt;room_227</title>
<path fill="none" stroke="black" d="M536.24,-239.51C528.48,-223.68 514.46,-200.52 502.09,-182.68"/>
<polygon fill="black" stroke="black" points="504.84,-180.51 496.18,-174.41 499.14,-184.58 504.84,-180.51"/>
<text text-anchor="middle" x="515.67" y="-213.9" font-family="Times,serif" font-size="14.00">u</text>
</g>
<!-- room_308&#45;&gt;room_224 -->
<g id="edge82" class="edge">
<title>room_308&#45;&gt;room_224</title>
<path fill="none" stroke="black" d="M685.53,-329.11C676.86,-333.59 667.91,-338.56 659.85,-343.39"/>
<polygon fill="black" stroke="black" points="657.86,-340.51 651.2,-348.75 661.54,-346.46 657.86,-340.51"/>
<text text-anchor="middle" x="669.19" y="-339.05" font-family="Times,serif" font-size="14.00">u</text>
</g>
<!-- room_312 -->
<g id="node42" class="node">
<title>room_312</title>
<ellipse fill="none" stroke="black" cx="814.27" cy="-247" rx="87.44" ry="18"/>
<text text-anchor="middle" x="814.27" y="-242.8" font-family="Times,serif" font-size="14.00">Top of Demon&#39;s Shaft</text>
</g>
<!-- room_308&#45;&gt;room_312 -->
<g id="edge81" class="edge">
<title>room_308&#45;&gt;room_312</title>
<path fill="none" stroke="black" d="M758.87,-297.57C769.92,-289.79 782.04,-280.43 792.14,-271.85"/>
<polygon fill="black" stroke="black" points="794.54,-274.41 799.75,-265.18 789.92,-269.14 794.54,-274.41"/>
<text text-anchor="middle" x="772.78" y="-273.51" font-family="Times,serif" font-size="14.00">s</text>
</g>
<!-- room_231&#45;&gt;room_225 -->
<g id="edge40" class="edge">
<title>room_231&#45;&gt;room_225</title>
<path fill="none" stroke="black" d="M1015.94,-1088.39C1015.8,-1067.7 1012.32,-1033.72 1008.09,-1009.59"/>
<polygon fill="black" stroke="black" points="1011.5,-1008.76 1006.17,-999.6 1004.62,-1010.08 1011.5,-1008.76"/>
<text text-anchor="middle" x="1008.52" y="-1051.79" font-family="Times,serif" font-size="14.00">d</text>
</g>
<!-- room_234 -->
<g id="node23" class="node">
<title>room_234</title>
<ellipse fill="none" stroke="black" cx="871.33" cy="-1115.24" rx="71.02" ry="18"/>
<text text-anchor="middle" x="871.33" y="-1111.04" font-family="Times,serif" font-size="14.00">Inquisitive Scene</text>
</g>
<!-- room_231&#45;&gt;room_234 -->
<g id="edge38" class="edge">
<title>room_231&#45;&gt;room_234</title>
<path fill="none" stroke="black" d="M951.32,-1103.66C947.69,-1103.84 944.03,-1104.05 940.37,-1104.28"/>
<polygon fill="black" stroke="black" points="939.86,-1100.8 930.12,-1104.98 940.34,-1107.79 939.86,-1100.8"/>
<text text-anchor="middle" x="947.4" y="-1092.77" font-family="Times,serif" font-size="14.00">e</text>
</g>
<!-- room_250 -->
<g id="node24" class="node">
<title>room_250</title>
<ellipse fill="none" stroke="black" cx="1022.47" cy="-1226.33" rx="68.13" ry="18"/>
<text text-anchor="middle" x="1022.47" y="-1222.13" font-family="Times,serif" font-size="14.00">Glittering Dome</text>
</g>
<!-- room_231&#45;&gt;room_250 -->
<g id="edge39" class="edge">
<title>room_231&#45;&gt;room_250</title>
<path fill="none" stroke="black" d="M1009.52,-1124.66C1009,-1144.14 1011.15,-1175.41 1014.38,-1198.13"/>
<polygon fill="black" stroke="black" points="1010.95,-1198.88 1015.99,-1208.2 1017.87,-1197.78 1010.95,-1198.88"/>
<text text-anchor="middle" x="1008.45" y="-1164.2" font-family="Times,serif" font-size="14.00">u</text>
</g>
<!-- room_227&#45;&gt;room_226 -->
<g id="edge33" class="edge">
<title>room_227&#45;&gt;room_226</title>
<path fill="none" stroke="black" d="M483.83,-174.62C491.59,-190.45 505.61,-213.61 517.98,-231.45"/>
<polygon fill="black" stroke="black" points="515.23,-233.62 523.89,-239.73 520.93,-229.55 515.23,-233.62"/>
<text text-anchor="middle" x="497.41" y="-205.84" font-family="Times,serif" font-size="14.00">d</text>
</g>
<!-- room_229 -->
<g id="node20" class="node">
<title>room_229</title>
<ellipse fill="none" stroke="black" cx="378.28" cy="-100.32" rx="65.72" ry="18"/>
<text text-anchor="middle" x="378.28" y="-96.12" font-family="Times,serif" font-size="14.00">Black Cauldron</text>
</g>
<!-- room_227&#45;&gt;room_229 -->
<g id="edge31" class="edge">
<title>room_227&#45;&gt;room_229</title>
<path fill="none" stroke="black" d="M459.05,-139.16C449.71,-132.98 438.08,-126.06 426.57,-119.76"/>
<polygon fill="black" stroke="black" points="427.89,-116.49 417.42,-114.86 424.58,-122.66 427.89,-116.49"/>
<text text-anchor="middle" x="445.54" y="-118.26" font-family="Times,serif" font-size="14.00">s</text>
</g>
<!-- room_228 -->
<g id="node21" class="node">
<title>room_228</title>
<ellipse fill="none" stroke="black" cx="534.59" cy="-54.91" rx="75.38" ry="18"/>
<text text-anchor="middle" x="534.59" y="-50.71" font-family="Times,serif" font-size="14.00">Forbidden Library</text>
</g>
<!-- room_227&#45;&gt;room_228 -->
<g id="edge32" class="edge">
<title>room_227&#45;&gt;room_228</title>
<path fill="none" stroke="black" d="M494.7,-138.74C505.03,-123.1 517.77,-100.21 526.2,-82.29"/>
<polygon fill="black" stroke="black" points="529.51,-83.47 530.4,-72.91 523.12,-80.61 529.51,-83.47"/>
<text text-anchor="middle" x="507.35" y="-113.31" font-family="Times,serif" font-size="14.00">e</text>
</g>
<!-- room_229&#45;&gt;room_227 -->
<g id="edge35" class="edge">
<title>room_229&#45;&gt;room_227</title>
<path fill="none" stroke="black" d="M397.71,-117.81C406.71,-123.75 417.82,-130.39 428.9,-136.5"/>
<polygon fill="black" stroke="black" points="427.28,-139.6 437.74,-141.27 430.6,-133.44 427.28,-139.6"/>
<text text-anchor="middle" x="409.81" y="-129.95" font-family="Times,serif" font-size="14.00">n</text>
</g>
<!-- room_230 -->
<g id="node22" class="node">
<title>room_230</title>
<ellipse fill="none" stroke="black" cx="308.55" cy="-18" rx="87.95" ry="18"/>
<text text-anchor="middle" x="308.55" y="-13.8" font-family="Times,serif" font-size="14.00">Summoning Chamber</text>
</g>
<!-- room_229&#45;&gt;room_230 -->
<g id="edge36" class="edge">
<title>room_229&#45;&gt;room_230</title>
<path fill="none" stroke="black" d="M369.87,-82.17C361.89,-70.64 349.7,-55.65 338.25,-43.02"/>
<polygon fill="black" stroke="black" points="340.63,-40.45 331.25,-35.52 335.51,-45.22 340.63,-40.45"/>
<text text-anchor="middle" x="351.33" y="-65.39" font-family="Times,serif" font-size="14.00">s</text>
</g>
<!-- room_228&#45;&gt;room_227 -->
<g id="edge34" class="edge">
<title>room_228&#45;&gt;room_227</title>
<path fill="none" stroke="black" d="M518.38,-72.82C508.06,-88.47 495.31,-111.35 486.88,-129.28"/>
<polygon fill="black" stroke="black" points="483.57,-128.09 482.68,-138.65 489.96,-130.96 483.57,-128.09"/>
<text text-anchor="middle" x="497.57" y="-103.85" font-family="Times,serif" font-size="14.00">w</text>
</g>
<!-- room_230&#45;&gt;room_229 -->
<g id="edge37" class="edge">
<title>room_230&#45;&gt;room_229</title>
<path fill="none" stroke="black" d="M316.96,-36.15C324.99,-47.76 337.3,-62.89 348.82,-75.57"/>
<polygon fill="black" stroke="black" points="346.47,-78.18 355.85,-83.1 351.58,-73.4 346.47,-78.18"/>
<text text-anchor="middle" x="329.39" y="-58.66" font-family="Times,serif" font-size="14.00">n</text>
</g>
<!-- room_234&#45;&gt;room_231 -->
<g id="edge46" class="edge">
<title>room_234&#45;&gt;room_231</title>
<path fill="none" stroke="black" d="M942.19,-1117.69C944.87,-1117.53 947.54,-1117.35 950.2,-1117.17"/>
<polygon fill="black" stroke="black" points="950.65,-1120.64 960.36,-1116.39 950.12,-1113.66 950.65,-1120.64"/>
<text text-anchor="middle" x="946.2" y="-1106.23" font-family="Times,serif" font-size="14.00">w</text>
</g>
<!-- room_233 -->
<g id="node27" class="node">
<title>room_233</title>
<ellipse fill="none" stroke="black" cx="729.8" cy="-1075.79" rx="62.47" ry="18"/>
<text text-anchor="middle" x="729.8" y="-1071.59" font-family="Times,serif" font-size="14.00">Frightful View</text>
</g>
<!-- room_234&#45;&gt;room_233 -->
<g id="edge45" class="edge">
<title>room_234&#45;&gt;room_233</title>
<path fill="none" stroke="black" d="M836.85,-1099.43C824.11,-1095.23 809.22,-1090.82 794.67,-1086.9"/>
<polygon fill="black" stroke="black" points="795.24,-1083.43 784.68,-1084.28 793.46,-1090.2 795.24,-1083.43"/>
<text text-anchor="middle" x="812.65" y="-1081.97" font-family="Times,serif" font-size="14.00">e</text>
</g>
<!-- room_250&#45;&gt;room_231 -->
<g id="edge80" class="edge">
<title>room_250&#45;&gt;room_231</title>
<path fill="none" stroke="black" d="M1026.02,-1208.28C1026.54,-1188.8 1024.39,-1157.54 1021.16,-1134.81"/>
<polygon fill="black" stroke="black" points="1024.58,-1134.06 1019.55,-1124.74 1017.67,-1135.17 1024.58,-1134.06"/>
<text text-anchor="middle" x="1020.09" y="-1174.35" font-family="Times,serif" font-size="14.00">d</text>
</g>
<!-- room_249 -->
<g id="node41" class="node">
<title>room_249</title>
<ellipse fill="none" stroke="black" cx="999.51" cy="-1347.52" rx="82.49" ry="18"/>
<text text-anchor="middle" x="999.51" y="-1343.32" font-family="Times,serif" font-size="14.00">Cantrips Gone Awry</text>
</g>
<!-- room_250&#45;&gt;room_249 -->
<g id="edge79" class="edge">
<title>room_250&#45;&gt;room_249</title>
<path fill="none" stroke="black" d="M1013.91,-1244.33C1008.14,-1264.07 1001.86,-1296.01 999.04,-1319.14"/>
<polygon fill="black" stroke="black" points="995.53,-1319.07 997.98,-1329.38 1002.49,-1319.79 995.53,-1319.07"/>
<text text-anchor="middle" x="1003.37" y="-1284.53" font-family="Times,serif" font-size="14.00">e</text>
</g>
<!-- room_232 -->
<g id="node25" class="node">
<title>room_232</title>
<ellipse fill="none" stroke="black" cx="647.02" cy="-1031.78" rx="67.58" ry="18"/>
<text text-anchor="middle" x="647.02" y="-1027.58" font-family="Times,serif" font-size="14.00">Shocking Terror</text>
</g>
<!-- room_232&#45;&gt;room_235 -->
<g id="edge41" class="edge">
<title>room_232&#45;&gt;room_235</title>
<path fill="none" stroke="black" d="M629.07,-1014.27C624.24,-1010.93 618.78,-1007.4 613.12,-1003.97"/>
<polygon fill="black" stroke="black" points="614.52,-1000.73 604.13,-998.67 610.97,-1006.76 614.52,-1000.73"/>
<text text-anchor="middle" x="624.2" y="-997.92" font-family="Times,serif" font-size="14.00">e</text>
</g>
<!-- room_232&#45;&gt;room_233 -->
<g id="edge42" class="edge">
<title>room_232&#45;&gt;room_233</title>
<path fill="none" stroke="black" d="M666.78,-1049.19C670.94,-1051.77 675.51,-1054.43 680.22,-1057.03"/>
<polygon fill="black" stroke="black" points="678.93,-1060.31 689.4,-1061.92 682.22,-1054.13 678.93,-1060.31"/>
<text text-anchor="middle" x="668.45" y="-1055.91" font-family="Times,serif" font-size="14.00">w</text>
</g>
<!-- room_235&#45;&gt;room_236 -->
<g id="edge47" class="edge">
<title>room_235&#45;&gt;room_236</title>
<path fill="none" stroke="black" d="M543.7,-965.24C539.4,-962.62 534.69,-959.92 529.83,-957.28"/>
<polygon fill="black" stroke="black" points="531.46,-954.18 520.98,-952.62 528.2,-960.37 531.46,-954.18"/>
<text text-anchor="middle" x="533.26" y="-950.06" font-family="Times,serif" font-size="14.00">n</text>
</g>
<!-- room_235&#45;&gt;room_232 -->
<g id="edge48" class="edge">
<title>room_235&#45;&gt;room_232</title>
<path fill="none" stroke="black" d="M582.26,-1000.5C587.65,-1004.22 593.79,-1008.14 600.1,-1011.91"/>
<polygon fill="black" stroke="black" points="598.35,-1014.94 608.75,-1016.94 601.86,-1008.89 598.35,-1014.94"/>
<text text-anchor="middle" x="586.13" y="-1009.01" font-family="Times,serif" font-size="14.00">w</text>
</g>
<!-- room_233&#45;&gt;room_234 -->
<g id="edge44" class="edge">
<title>room_233&#45;&gt;room_234</title>
<path fill="none" stroke="black" d="M762.84,-1091.12C774.46,-1094.99 788,-1099.06 801.5,-1102.78"/>
<polygon fill="black" stroke="black" points="800.72,-1106.19 811.29,-1105.41 802.54,-1099.44 800.72,-1106.19"/>
<text text-anchor="middle" x="777.11" y="-1099.75" font-family="Times,serif" font-size="14.00">w</text>
</g>
<!-- room_233&#45;&gt;room_232 -->
<g id="edge43" class="edge">
<title>room_233&#45;&gt;room_232</title>
<path fill="none" stroke="black" d="M710.46,-1058.65C706.41,-1056.12 701.97,-1053.52 697.37,-1050.97"/>
<polygon fill="black" stroke="black" points="698.87,-1047.8 688.4,-1046.16 695.56,-1053.97 698.87,-1047.8"/>
<text text-anchor="middle" x="700.81" y="-1043.61" font-family="Times,serif" font-size="14.00">e</text>
</g>
<!-- room_238&#45;&gt;room_236 -->
<g id="edge55" class="edge">
<title>room_238&#45;&gt;room_236</title>
<path fill="none" stroke="black" d="M428.83,-1041.6C441.97,-1021.73 459.94,-989.35 470.78,-966.16"/>
<polygon fill="black" stroke="black" points="474.06,-967.41 474.96,-956.85 467.68,-964.54 474.06,-967.41"/>
<text text-anchor="middle" x="447.08" y="-1006.68" font-family="Times,serif" font-size="14.00">s</text>
</g>
<!-- room_239 -->
<g id="node30" class="node">
<title>room_239</title>
<ellipse fill="none" stroke="black" cx="378.07" cy="-1175.92" rx="61.37" ry="18"/>
<text text-anchor="middle" x="378.07" y="-1171.72" font-family="Times,serif" font-size="14.00">Alibaster Stair</text>
</g>
<!-- room_238&#45;&gt;room_239 -->
<g id="edge54" class="edge">
<title>room_238&#45;&gt;room_239</title>
<path fill="none" stroke="black" d="M402.32,-1077.33C394.73,-1096.08 385.63,-1125.65 380.58,-1147.53"/>
<polygon fill="black" stroke="black" points="377.1,-1147.07 378.45,-1157.58 383.94,-1148.52 377.1,-1147.07"/>
<text text-anchor="middle" x="387.95" y="-1115.23" font-family="Times,serif" font-size="14.00">n</text>
</g>
<!-- room_237&#45;&gt;room_236 -->
<g id="edge53" class="edge">
<title>room_237&#45;&gt;room_236</title>
<path fill="none" stroke="black" d="M406.4,-952.72C410.8,-952.33 415.25,-951.9 419.67,-951.42"/>
<polygon fill="black" stroke="black" points="420.36,-954.86 429.9,-950.24 419.56,-947.91 420.36,-954.86"/>
<text text-anchor="middle" x="410.51" y="-940.87" font-family="Times,serif" font-size="14.00">w</text>
</g>
<!-- room_239&#45;&gt;room_238 -->
<g id="edge56" class="edge">
<title>room_239&#45;&gt;room_238</title>
<path fill="none" stroke="black" d="M388.81,-1158.15C396.44,-1139.35 405.65,-1109.45 410.71,-1087.45"/>
<polygon fill="black" stroke="black" points="414.2,-1087.87 412.84,-1077.36 407.35,-1086.42 414.2,-1087.87"/>
<text text-anchor="middle" x="397.04" y="-1125.6" font-family="Times,serif" font-size="14.00">s</text>
</g>
<!-- room_240 -->
<g id="node31" class="node">
<title>room_240</title>
<ellipse fill="none" stroke="black" cx="386.48" cy="-1294.35" rx="66.19" ry="18"/>
<text text-anchor="middle" x="386.48" y="-1290.15" font-family="Times,serif" font-size="14.00">Alibaster Dome</text>
</g>
<!-- room_239&#45;&gt;room_240 -->
<g id="edge57" class="edge">
<title>room_239&#45;&gt;room_240</title>
<path fill="none" stroke="black" d="M374.36,-1194C373.71,-1213.2 375.58,-1243.78 378.59,-1266.15"/>
<polygon fill="black" stroke="black" points="375.13,-1266.71 380.09,-1276.07 382.05,-1265.66 375.13,-1266.71"/>
<text text-anchor="middle" x="372.97" y="-1232.88" font-family="Times,serif" font-size="14.00">u</text>
</g>
<!-- room_240&#45;&gt;room_239 -->
<g id="edge59" class="edge">
<title>room_240&#45;&gt;room_239</title>
<path fill="none" stroke="black" d="M390.19,-1276.27C390.84,-1257.07 388.96,-1226.49 385.96,-1204.12"/>
<polygon fill="black" stroke="black" points="389.41,-1203.56 384.45,-1194.2 382.49,-1204.61 389.41,-1203.56"/>
<text text-anchor="middle" x="384.58" y="-1243" font-family="Times,serif" font-size="14.00">d</text>
</g>
<!-- room_241 -->
<g id="node32" class="node">
<title>room_241</title>
<ellipse fill="none" stroke="black" cx="432.95" cy="-1404.41" rx="87.44" ry="18"/>
<text text-anchor="middle" x="432.95" y="-1400.21" font-family="Times,serif" font-size="14.00">Hall of Enchantments</text>
</g>
<!-- room_240&#45;&gt;room_241 -->
<g id="edge58" class="edge">
<title>room_240&#45;&gt;room_241</title>
<path fill="none" stroke="black" d="M388.77,-1312.52C394.13,-1330.2 405.15,-1357.25 415,-1377.44"/>
<polygon fill="black" stroke="black" points="411.92,-1379.11 419.56,-1386.45 418.17,-1375.95 411.92,-1379.11"/>
<text text-anchor="middle" x="399.16" y="-1347.78" font-family="Times,serif" font-size="14.00">s</text>
</g>
<!-- room_241&#45;&gt;room_240 -->
<g id="edge60" class="edge">
<title>room_241&#45;&gt;room_240</title>
<path fill="none" stroke="black" d="M430.66,-1386.24C425.3,-1368.55 414.28,-1341.51 404.43,-1321.32"/>
<polygon fill="black" stroke="black" points="407.51,-1319.65 399.87,-1312.31 401.27,-1322.81 407.51,-1319.65"/>
<text text-anchor="middle" x="414.05" y="-1356.58" font-family="Times,serif" font-size="14.00">n</text>
</g>
<!-- room_242 -->
<g id="node33" class="node">
<title>room_242</title>
<ellipse fill="none" stroke="black" cx="512.41" cy="-1494.89" rx="69.13" ry="18"/>
<text text-anchor="middle" x="512.41" y="-1490.69" font-family="Times,serif" font-size="14.00">Spinning Globes</text>
</g>
<!-- room_241&#45;&gt;room_242 -->
<g id="edge61" class="edge">
<title>room_241&#45;&gt;room_242</title>
<path fill="none" stroke="black" d="M441.88,-1422.32C451.78,-1436.08 467.95,-1455.11 482.36,-1470.28"/>
<polygon fill="black" stroke="black" points="480.21,-1473.08 489.69,-1477.8 485.22,-1468.2 480.21,-1473.08"/>
<text text-anchor="middle" x="459.39" y="-1449.1" font-family="Times,serif" font-size="14.00">s</text>
</g>
<!-- room_242&#45;&gt;room_241 -->
<g id="edge62" class="edge">
<title>room_242&#45;&gt;room_241</title>
<path fill="none" stroke="black" d="M503.48,-1476.98C493.65,-1463.31 477.63,-1444.44 463.29,-1429.33"/>
<polygon fill="black" stroke="black" points="465.47,-1426.55 455.99,-1421.82 460.45,-1431.43 465.47,-1426.55"/>
<text text-anchor="middle" x="479.89" y="-1455.95" font-family="Times,serif" font-size="14.00">n</text>
</g>
<!-- room_243 -->
<g id="node34" class="node">
<title>room_243</title>
<ellipse fill="none" stroke="black" cx="618.15" cy="-1555.93" rx="71.99" ry="18"/>
<text text-anchor="middle" x="618.15" y="-1551.73" font-family="Times,serif" font-size="14.00">Dancing Daggers</text>
</g>
<!-- room_242&#45;&gt;room_243 -->
<g id="edge63" class="edge">
<title>room_242&#45;&gt;room_243</title>
<path fill="none" stroke="black" d="M531.52,-1512.38C542.35,-1519.75 556.41,-1528.28 570.04,-1535.87"/>
<polygon fill="black" stroke="black" points="568.44,-1538.99 578.9,-1540.7 571.79,-1532.84 568.44,-1538.99"/>
<text text-anchor="middle" x="548.05" y="-1526.93" font-family="Times,serif" font-size="14.00">s</text>
</g>
<!-- room_243&#45;&gt;room_242 -->
<g id="edge64" class="edge">
<title>room_243&#45;&gt;room_242</title>
<path fill="none" stroke="black" d="M599.03,-1538.44C588.11,-1531.01 573.9,-1522.39 560.16,-1514.75"/>
<polygon fill="black" stroke="black" points="561.69,-1511.6 551.23,-1509.89 558.34,-1517.75 561.69,-1511.6"/>
<text text-anchor="middle" x="576.1" y="-1515.39" font-family="Times,serif" font-size="14.00">n</text>
</g>
<!-- room_244 -->
<g id="node35" class="node">
<title>room_244</title>
<ellipse fill="none" stroke="black" cx="740.46" cy="-1600.14" rx="91.32" ry="18"/>
<text text-anchor="middle" x="740.46" y="-1595.94" font-family="Times,serif" font-size="14.00">Wizards&#39; Banquetroom</text>
</g>
<!-- room_243&#45;&gt;room_244 -->
<g id="edge65" class="edge">
<title>room_243&#45;&gt;room_244</title>
<path fill="none" stroke="black" d="M646.68,-1572.55C654.61,-1575.92 663.56,-1579.44 672.72,-1582.82"/>
<polygon fill="black" stroke="black" points="671.71,-1586.17 682.3,-1586.27 674.08,-1579.59 671.71,-1586.17"/>
<text text-anchor="middle" x="656.98" y="-1580.48" font-family="Times,serif" font-size="14.00">s</text>
</g>
<!-- room_244&#45;&gt;room_243 -->
<g id="edge66" class="edge">
<title>room_244&#45;&gt;room_243</title>
<path fill="none" stroke="black" d="M710.68,-1582.99C701.64,-1579.18 691.35,-1575.2 680.99,-1571.47"/>
<polygon fill="black" stroke="black" points="682.09,-1568.14 671.5,-1568.12 679.77,-1574.75 682.09,-1568.14"/>
<text text-anchor="middle" x="699.34" y="-1566.03" font-family="Times,serif" font-size="14.00">n</text>
</g>
<!-- room_245 -->
<g id="node36" class="node">
<title>room_245</title>
<ellipse fill="none" stroke="black" cx="686.91" cy="-1720.15" rx="74.64" ry="18"/>
<text text-anchor="middle" x="686.91" y="-1715.95" font-family="Times,serif" font-size="14.00">Archmage&#39;s Study</text>
</g>
<!-- room_244&#45;&gt;room_245 -->
<g id="edge67" class="edge">
<title>room_244&#45;&gt;room_245</title>
<path fill="none" stroke="black" d="M726.75,-1618.11C715.87,-1637.79 701.55,-1669.52 693.12,-1692.4"/>
<polygon fill="black" stroke="black" points="689.8,-1691.31 689.8,-1701.9 696.4,-1693.62 689.8,-1691.31"/>
<text text-anchor="middle" x="707.21" y="-1658.05" font-family="Times,serif" font-size="14.00">s</text>
</g>
<!-- room_374 -->
<g id="node37" class="node">
<title>room_374</title>
<ellipse fill="none" stroke="black" cx="837.18" cy="-1676.13" rx="81.68" ry="18"/>
<text text-anchor="middle" x="837.18" y="-1671.93" font-family="Times,serif" font-size="14.00">Resuscitation Room</text>
</g>
<!-- room_244&#45;&gt;room_374 -->
<g id="edge68" class="edge">
<title>room_244&#45;&gt;room_374</title>
<path fill="none" stroke="black" d="M754.88,-1618.29C766.23,-1628.85 782.52,-1642.15 797.63,-1653.37"/>
<polygon fill="black" stroke="black" points="795.72,-1656.31 805.87,-1659.36 799.84,-1650.65 795.72,-1656.31"/>
<text text-anchor="middle" x="773.15" y="-1638.63" font-family="Times,serif" font-size="14.00">e</text>
</g>
<!-- room_247 -->
<g id="node38" class="node">
<title>room_247</title>
<ellipse fill="none" stroke="black" cx="853.59" cy="-1536.55" rx="63.08" ry="18"/>
<text text-anchor="middle" x="853.59" y="-1532.35" font-family="Times,serif" font-size="14.00">Initiates&#39; Study</text>
</g>
<!-- room_244&#45;&gt;room_247 -->
<g id="edge69" class="edge">
<title>room_244&#45;&gt;room_247</title>
<path fill="none" stroke="black" d="M782.23,-1584.05C796.62,-1576.54 812.39,-1567.55 825.44,-1559.38"/>
<polygon fill="black" stroke="black" points="827.48,-1562.23 833.99,-1553.87 823.69,-1556.34 827.48,-1562.23"/>
<text text-anchor="middle" x="798.78" y="-1560.51" font-family="Times,serif" font-size="14.00">w</text>
</g>
<!-- room_245&#45;&gt;room_244 -->
<g id="edge70" class="edge">
<title>room_245&#45;&gt;room_244</title>
<path fill="none" stroke="black" d="M700.47,-1702.44C711.35,-1682.81 725.73,-1650.98 734.2,-1628.01"/>
<polygon fill="black" stroke="black" points="737.54,-1629.06 737.54,-1618.47 730.93,-1626.75 737.54,-1629.06"/>
<text text-anchor="middle" x="713.84" y="-1668.03" font-family="Times,serif" font-size="14.00">n</text>
</g>
<!-- room_246 -->
<g id="node39" class="node">
<title>room_246</title>
<ellipse fill="none" stroke="black" cx="692.2" cy="-1827.62" rx="69.61" ry="18"/>
<text text-anchor="middle" x="692.2" y="-1823.42" font-family="Times,serif" font-size="14.00">Conjuring Room</text>
</g>
<!-- room_245&#45;&gt;room_246 -->
<g id="edge71" class="edge">
<title>room_245&#45;&gt;room_246</title>
<path fill="none" stroke="black" d="M682.63,-1738.15C681.69,-1754.84 682.63,-1779.93 684.75,-1799.3"/>
<polygon fill="black" stroke="black" points="681.3,-1799.91 686.05,-1809.38 688.25,-1799.02 681.3,-1799.91"/>
<text text-anchor="middle" x="680.97" y="-1771.53" font-family="Times,serif" font-size="14.00">s</text>
</g>
<!-- room_374&#45;&gt;room_244 -->
<g id="edge86" class="edge">
<title>room_374&#45;&gt;room_244</title>
<path fill="none" stroke="black" d="M823.17,-1658.37C811.88,-1647.82 795.53,-1634.45 780.32,-1623.14"/>
<polygon fill="black" stroke="black" points="782.17,-1620.15 772.03,-1617.09 778.05,-1625.81 782.17,-1620.15"/>
<text text-anchor="middle" x="796.69" y="-1643.55" font-family="Times,serif" font-size="14.00">w</text>
</g>
<!-- room_247&#45;&gt;room_244 -->
<g id="edge73" class="edge">
<title>room_247&#45;&gt;room_244</title>
<path fill="none" stroke="black" d="M815.01,-1550.99C800.03,-1558.68 783.18,-1568.22 769.28,-1576.89"/>
<polygon fill="black" stroke="black" points="767.16,-1574.1 760.62,-1582.44 770.93,-1579.99 767.16,-1574.1"/>
<text text-anchor="middle" x="789.04" y="-1566.74" font-family="Times,serif" font-size="14.00">e</text>
</g>
<!-- room_248 -->
<g id="node40" class="node">
<title>room_248</title>
<ellipse fill="none" stroke="black" cx="943.34" cy="-1456.39" rx="80.67" ry="18"/>
<text text-anchor="middle" x="943.34" y="-1452.19" font-family="Times,serif" font-size="14.00">Errant Magic Room</text>
</g>
<!-- room_247&#45;&gt;room_248 -->
<g id="edge74" class="edge">
<title>room_247&#45;&gt;room_248</title>
<path fill="none" stroke="black" d="M881.19,-1519.98C894.99,-1508.95 911.33,-1494.35 923.83,-1481.88"/>
<polygon fill="black" stroke="black" points="926.6,-1484.05 931.06,-1474.44 921.58,-1479.17 926.6,-1484.05"/>
<text text-anchor="middle" x="897.45" y="-1503.73" font-family="Times,serif" font-size="14.00">w</text>
</g>
<!-- room_246&#45;&gt;room_245 -->
<g id="edge72" class="edge">
<title>room_246&#45;&gt;room_245</title>
<path fill="none" stroke="black" d="M696.49,-1809.62C697.43,-1792.93 696.49,-1767.84 694.36,-1748.47"/>
<polygon fill="black" stroke="black" points="697.81,-1747.86 693.06,-1738.39 690.87,-1748.75 697.81,-1747.86"/>
<text text-anchor="middle" x="691.92" y="-1781.85" font-family="Times,serif" font-size="14.00">n</text>
</g>
<!-- room_248&#45;&gt;room_247 -->
<g id="edge75" class="edge">
<title>room_248&#45;&gt;room_247</title>
<path fill="none" stroke="black" d="M915.25,-1473.35C901.47,-1484.4 885.25,-1498.91 872.87,-1511.28"/>
<polygon fill="black" stroke="black" points="870.17,-1509.05 865.72,-1518.66 875.19,-1513.92 870.17,-1509.05"/>
<text text-anchor="middle" x="890.96" y="-1481.12" font-family="Times,serif" font-size="14.00">e</text>
</g>
<!-- room_248&#45;&gt;room_249 -->
<g id="edge76" class="edge">
<title>room_248&#45;&gt;room_249</title>
<path fill="none" stroke="black" d="M958.71,-1438.39C969.48,-1421.13 983.15,-1394.9 991.81,-1375.03"/>
<polygon fill="black" stroke="black" points="995.14,-1376.15 995.74,-1365.58 988.67,-1373.47 995.14,-1376.15"/>
<text text-anchor="middle" x="970.21" y="-1409.51" font-family="Times,serif" font-size="14.00">w</text>
</g>
<!-- room_249&#45;&gt;room_250 -->
<g id="edge78" class="edge">
<title>room_249&#45;&gt;room_250</title>
<path fill="none" stroke="black" d="M1008.07,-1329.53C1013.84,-1309.79 1020.12,-1277.84 1022.94,-1254.72"/>
<polygon fill="black" stroke="black" points="1026.45,-1254.79 1024.01,-1244.48 1019.49,-1254.06 1026.45,-1254.79"/>
<text text-anchor="middle" x="1020.56" y="-1294.92" font-family="Times,serif" font-size="14.00">w</text>
</g>
<!-- room_249&#45;&gt;room_248 -->
<g id="edge77" class="edge">
<title>room_249&#45;&gt;room_248</title>
<path fill="none" stroke="black" d="M984.14,-1365.52C973.37,-1382.78 959.7,-1409.01 951.03,-1428.88"/>
<polygon fill="black" stroke="black" points="947.71,-1427.76 947.11,-1438.33 954.18,-1430.44 947.71,-1427.76"/>
<text text-anchor="middle" x="964.48" y="-1386" font-family="Times,serif" font-size="14.00">e</text>
</g>
<!-- room_312&#45;&gt;room_308 -->
<g id="edge84" class="edge">
<title>room_312&#45;&gt;room_308</title>
<path fill="none" stroke="black" d="M781.76,-263.93C770.74,-271.71 758.72,-281.01 748.72,-289.53"/>
<polygon fill="black" stroke="black" points="746.4,-286.91 741.19,-296.14 751.02,-292.17 746.4,-286.91"/>
<text text-anchor="middle" x="761.74" y="-279.53" font-family="Times,serif" font-size="14.00">n</text>
</g>
<!-- room_311 -->
<g id="node43" class="node">
<title>room_311</title>
<ellipse fill="none" stroke="black" cx="897.54" cy="-173.73" rx="62.11" ry="18"/>
<text text-anchor="middle" x="897.54" y="-169.53" font-family="Times,serif" font-size="14.00">Demon&#39;s Shaft</text>
</g>
<!-- room_312&#45;&gt;room_311 -->
<g id="edge85" class="edge">
<title>room_312&#45;&gt;room_311</title>
<path fill="none" stroke="black" d="M843.38,-229.71C854.95,-220.47 867.92,-209.01 878.3,-198.83"/>
<polygon fill="black" stroke="black" points="880.8,-201.27 885.34,-191.7 875.82,-196.35 880.8,-201.27"/>
<text text-anchor="middle" x="857.34" y="-217.07" font-family="Times,serif" font-size="14.00">d</text>
</g>
<!-- room_311&#45;&gt;room_312 -->
<g id="edge83" class="edge">
<title>room_311&#45;&gt;room_312</title>
<path fill="none" stroke="black" d="M869.83,-189.91C858.01,-199.26 844.52,-211.13 833.76,-221.66"/>
<polygon fill="black" stroke="black" points="831.01,-219.46 826.47,-229.04 835.99,-224.38 831.01,-219.46"/>
<text text-anchor="middle" x="848.3" y="-208.59" font-family="Times,serif" font-size="14.00">u</text>
</g>
</g>
</svg>
