<?xml version="1.0" encoding="UTF-8" standalone="no"?>
<!DOCTYPE svg PUBLIC "-//W3C//DTD SVG 1.1//EN"
 "http://www.w3.org/Graphics/SVG/1.1/DTD/svg11.dtd">
<!-- Generated by graphviz version 2.42.3 (20191010.1750)
 -->
<!-- Title: monster Pages: 1 -->
<svg width="396pt" height="430pt"
 viewBox="0.00 0.00 395.59 429.86" xmlns="http://www.w3.org/2000/svg" xmlns:xlink="http://www.w3.org/1999/xlink">
<g id="graph0" class="graph" transform="scale(1 1) rotate(0) translate(4 425.86)">
<title>monster</title>
<polygon fill="white" stroke="transparent" points="-4,4 -4,-425.86 391.59,-425.86 391.59,4 -4,4"/>
<!-- room_30 -->
<g id="node1" class="node">
<title>room_30</title>
<ellipse fill="none" stroke="black" cx="175.08" cy="-18" rx="62.3" ry="18"/>
<text text-anchor="middle" x="175.08" y="-13.8" font-family="Times,serif" font-size="14.00">Keep Entrance</text>
</g>
<!-- room_31 -->
<g id="node2" class="node">
<title>room_31</title>
<ellipse fill="none" stroke="black" cx="189.76" cy="-140.68" rx="28.53" ry="18"/>
<text text-anchor="middle" x="189.76" y="-136.48" font-family="Times,serif" font-size="14.00">foyer</text>
</g>
<!-- room_30&#45;&gt;room_31 -->
<g id="edge1" class="edge">
<title>room_30&#45;&gt;room_31</title>
<path fill="none" stroke="black" d="M172.32,-36.16C172.61,-56.41 176.25,-89.38 180.58,-112.88"/>
<polygon fill="black" stroke="black" points="177.2,-113.82 182.62,-122.93 184.07,-112.43 177.2,-113.82"/>
<text text-anchor="middle" x="173.34" y="-77.32" font-family="Times,serif" font-size="14.00">e</text>
</g>
<!-- room_31&#45;&gt;room_30 -->
<g id="edge2" class="edge">
<title>room_31&#45;&gt;room_30</title>
<path fill="none" stroke="black" d="M192.52,-122.52C192.23,-102.39 188.63,-69.68 184.33,-46.21"/>
<polygon fill="black" stroke="black" points="187.71,-45.27 182.31,-36.16 180.84,-46.65 187.71,-45.27"/>
<text text-anchor="middle" x="184.92" y="-87.17" font-family="Times,serif" font-size="14.00">n</text>
</g>
<!-- room_32 -->
<g id="node3" class="node">
<title>room_32</title>
<ellipse fill="none" stroke="black" cx="196.04" cy="-272.39" rx="59.94" ry="18"/>
<text text-anchor="middle" x="196.04" y="-268.19" font-family="Times,serif" font-size="14.00">Hall of Honor</text>
</g>
<!-- room_31&#45;&gt;room_32 -->
<g id="edge3" class="edge">
<title>room_31&#45;&gt;room_32</title>
<path fill="none" stroke="black" d="M185.82,-158.67C184.59,-180.75 186.1,-218.44 189.04,-244.34"/>
<polygon fill="black" stroke="black" points="185.57,-244.83 190.33,-254.3 192.51,-243.93 185.57,-244.83"/>
<text text-anchor="middle" x="184.7" y="-204.31" font-family="Times,serif" font-size="14.00">s</text>
</g>
<!-- room_32&#45;&gt;room_31 -->
<g id="edge5" class="edge">
<title>room_32&#45;&gt;room_31</title>
<path fill="none" stroke="black" d="M199.98,-254.4C201.22,-232.2 199.68,-194.21 196.71,-168.3"/>
<polygon fill="black" stroke="black" points="200.18,-167.81 195.41,-158.36 193.24,-168.73 200.18,-167.81"/>
<text text-anchor="middle" x="195.24" y="-214.15" font-family="Times,serif" font-size="14.00">e</text>
</g>
<!-- room_268 -->
<g id="node4" class="node">
<title>room_268</title>
<ellipse fill="none" stroke="black" cx="202.82" cy="-403.86" rx="69.57" ry="18"/>
<text text-anchor="middle" x="202.82" y="-399.66" font-family="Times,serif" font-size="14.00">corridor of ashes</text>
</g>
<!-- room_32&#45;&gt;room_268 -->
<g id="edge4" class="edge">
<title>room_32&#45;&gt;room_268</title>
<path fill="none" stroke="black" d="M196.97,-290.4C198.1,-312.3 200.02,-349.55 201.35,-375.37"/>
<polygon fill="black" stroke="black" points="197.87,-375.85 201.88,-385.65 204.86,-375.48 197.87,-375.85"/>
<text text-anchor="middle" x="195.66" y="-335.68" font-family="Times,serif" font-size="14.00">n</text>
</g>
<!-- room_89 -->
<g id="node5" class="node">
<title>room_89</title>
<ellipse fill="none" stroke="black" cx="330.1" cy="-284.05" rx="57.5" ry="18"/>
<text text-anchor="middle" x="330.1" y="-279.85" font-family="Times,serif" font-size="14.00">Dark passage</text>
</g>
<!-- room_32&#45;&gt;room_89 -->
<g id="edge6" class="edge">
<title>room_32&#45;&gt;room_89</title>
<path fill="none" stroke="black" d="M253.67,-277.4C257.26,-277.72 260.88,-278.03 264.5,-278.35"/>
<polygon fill="black" stroke="black" points="264.38,-281.85 274.64,-279.23 264.98,-274.87 264.38,-281.85"/>
<text text-anchor="middle" x="264.14" y="-280.68" font-family="Times,serif" font-size="14.00">w</text>
</g>
<!-- room_33 -->
<g id="node6" class="node">
<title>room_33</title>
<ellipse fill="none" stroke="black" cx="64.16" cy="-298.71" rx="64.31" ry="18"/>
<text text-anchor="middle" x="64.16" y="-294.51" font-family="Times,serif" font-size="14.00">World Window</text>
</g>
<!-- room_32&#45;&gt;room_33 -->
<g id="edge7" class="edge">
<title>room_32&#45;&gt;room_33</title>
<path fill="none" stroke="black" d="M146.18,-282.34C139.86,-283.6 133.34,-284.91 126.85,-286.2"/>
<polygon fill="black" stroke="black" points="125.85,-282.83 116.73,-288.22 127.22,-289.7 125.85,-282.83"/>
<text text-anchor="middle" x="133.02" y="-287.07" font-family="Times,serif" font-size="14.00">d</text>
</g>
</g>
</svg>
