<?xml version="1.0" encoding="UTF-8" standalone="no"?>
<!DOCTYPE svg PUBLIC "-//W3C//DTD SVG 1.1//EN"
 "http://www.w3.org/Graphics/SVG/1.1/DTD/svg11.dtd">
<!-- Generated by graphviz version 2.42.3 (20191010.1750)
 -->
<!-- Title: monster Pages: 1 -->
<svg width="1274pt" height="623pt"
 viewBox="0.00 0.00 1274.08 622.51" xmlns="http://www.w3.org/2000/svg" xmlns:xlink="http://www.w3.org/1999/xlink">
<g id="graph0" class="graph" transform="scale(1 1) rotate(0) translate(4 618.51)">
<title>monster</title>
<polygon fill="white" stroke="transparent" points="-4,4 -4,-618.51 1270.08,-618.51 1270.08,4 -4,4"/>
<!-- room_57 -->
<g id="node1" class="node">
<title>room_57</title>
<ellipse fill="none" stroke="black" cx="56.53" cy="-447.16" rx="56.55" ry="18"/>
<text text-anchor="middle" x="56.53" y="-442.96" font-family="Times,serif" font-size="14.00">Lake Bottom</text>
</g>
<!-- room_501 -->
<g id="node2" class="node">
<title>room_501</title>
<ellipse fill="none" stroke="black" cx="186.79" cy="-402.8" rx="64.24" ry="18"/>
<text text-anchor="middle" x="186.79" y="-398.6" font-family="Times,serif" font-size="14.00">Thick Seaweed</text>
</g>
<!-- room_57&#45;&gt;room_501 -->
<g id="edge1" class="edge">
<title>room_57&#45;&gt;room_501</title>
<path fill="none" stroke="black" d="M104.54,-437.66C118.82,-433.22 134.28,-427.9 147.9,-422.72"/>
<polygon fill="black" stroke="black" points="149.41,-425.89 157.45,-418.99 146.86,-419.37 149.41,-425.89"/>
<text text-anchor="middle" x="122.72" y="-432.99" font-family="Times,serif" font-size="14.00">d</text>
</g>
<!-- room_501&#45;&gt;room_57 -->
<g id="edge4" class="edge">
<title>room_501&#45;&gt;room_57</title>
<path fill="none" stroke="black" d="M134.68,-413.59C121.09,-417.9 106.71,-422.91 94.04,-427.77"/>
<polygon fill="black" stroke="black" points="92.75,-424.51 84.73,-431.44 95.32,-431.03 92.75,-424.51"/>
<text text-anchor="middle" x="110.86" y="-409.48" font-family="Times,serif" font-size="14.00">d</text>
</g>
<!-- room_502 -->
<g id="node5" class="node">
<title>room_502</title>
<ellipse fill="none" stroke="black" cx="315.08" cy="-365.64" rx="55.61" ry="18"/>
<text text-anchor="middle" x="315.08" y="-361.44" font-family="Times,serif" font-size="14.00">Watery Cave</text>
</g>
<!-- room_501&#45;&gt;room_502 -->
<g id="edge3" class="edge">
<title>room_501&#45;&gt;room_502</title>
<path fill="none" stroke="black" d="M242.31,-393.66C253.18,-390.69 264.39,-387.34 274.65,-384"/>
<polygon fill="black" stroke="black" points="275.8,-387.31 284.16,-380.8 273.57,-380.67 275.8,-387.31"/>
<text text-anchor="middle" x="255.37" y="-391.63" font-family="Times,serif" font-size="14.00">e</text>
</g>
<!-- room_305 -->
<g id="node3" class="node">
<title>room_305</title>
<ellipse fill="none" stroke="black" cx="1014.91" cy="-18" rx="61.61" ry="18"/>
<text text-anchor="middle" x="1014.91" y="-13.8" font-family="Times,serif" font-size="14.00">Uhto&#39;s Gallery</text>
</g>
<!-- room_645 -->
<g id="node4" class="node">
<title>room_645</title>
<ellipse fill="none" stroke="black" cx="1043.86" cy="-152.66" rx="72.47" ry="18"/>
<text text-anchor="middle" x="1043.86" y="-148.46" font-family="Times,serif" font-size="14.00">Chamber of Hues</text>
</g>
<!-- room_305&#45;&gt;room_645 -->
<g id="edge2" class="edge">
<title>room_305&#45;&gt;room_645</title>
<path fill="none" stroke="black" d="M1014.01,-36.04C1016.46,-58.78 1024.57,-98.1 1032.05,-124.74"/>
<polygon fill="black" stroke="black" points="1028.78,-126.01 1034.98,-134.6 1035.49,-124.02 1028.78,-126.01"/>
<text text-anchor="middle" x="1020.31" y="-83.19" font-family="Times,serif" font-size="14.00">s</text>
</g>
<!-- room_645&#45;&gt;room_305 -->
<g id="edge23" class="edge">
<title>room_645&#45;&gt;room_305</title>
<path fill="none" stroke="black" d="M1044.76,-134.62C1042.31,-111.88 1034.2,-72.56 1026.71,-45.93"/>
<polygon fill="black" stroke="black" points="1029.99,-44.65 1023.78,-36.06 1023.28,-46.64 1029.99,-44.65"/>
<text text-anchor="middle" x="1032.24" y="-93.08" font-family="Times,serif" font-size="14.00">n</text>
</g>
<!-- room_507 -->
<g id="node10" class="node">
<title>room_507</title>
<ellipse fill="none" stroke="black" cx="999.03" cy="-280.72" rx="64.26" ry="18"/>
<text text-anchor="middle" x="999.03" y="-276.52" font-family="Times,serif" font-size="14.00">Coral Chamber</text>
</g>
<!-- room_645&#45;&gt;room_507 -->
<g id="edge24" class="edge">
<title>room_645&#45;&gt;room_507</title>
<path fill="none" stroke="black" d="M1032.32,-170.46C1022.66,-191.68 1009.96,-227.37 1003.03,-252.39"/>
<polygon fill="black" stroke="black" points="999.55,-251.83 1000.43,-262.39 1006.33,-253.59 999.55,-251.83"/>
<text text-anchor="middle" x="1014.95" y="-214.22" font-family="Times,serif" font-size="14.00">s</text>
</g>
<!-- room_646 -->
<g id="node14" class="node">
<title>room_646</title>
<ellipse fill="none" stroke="black" cx="1164.86" cy="-107.97" rx="54.83" ry="18"/>
<text text-anchor="middle" x="1164.86" y="-103.77" font-family="Times,serif" font-size="14.00">Lake&#39;s Heart</text>
</g>
<!-- room_645&#45;&gt;room_646 -->
<g id="edge25" class="edge">
<title>room_645&#45;&gt;room_646</title>
<path fill="none" stroke="black" d="M1096.78,-140.22C1107.74,-136.37 1119.03,-132.07 1129.2,-127.87"/>
<polygon fill="black" stroke="black" points="1130.72,-131.02 1138.55,-123.89 1127.97,-124.58 1130.72,-131.02"/>
<text text-anchor="middle" x="1107.93" y="-122.85" font-family="Times,serif" font-size="14.00">w</text>
</g>
<!-- room_502&#45;&gt;room_501 -->
<g id="edge6" class="edge">
<title>room_502&#45;&gt;room_501</title>
<path fill="none" stroke="black" d="M264.39,-373.48C252.59,-376.61 240.16,-380.26 228.79,-383.93"/>
<polygon fill="black" stroke="black" points="227.49,-380.68 219.11,-387.15 229.7,-387.32 227.49,-380.68"/>
<text text-anchor="middle" x="241.53" y="-367.51" font-family="Times,serif" font-size="14.00">w</text>
</g>
<!-- room_503 -->
<g id="node6" class="node">
<title>room_503</title>
<ellipse fill="none" stroke="black" cx="429.54" cy="-345.62" rx="50.77" ry="18"/>
<text text-anchor="middle" x="429.54" y="-341.42" font-family="Times,serif" font-size="14.00">Aqua Steps</text>
</g>
<!-- room_502&#45;&gt;room_503 -->
<g id="edge5" class="edge">
<title>room_502&#45;&gt;room_503</title>
<path fill="none" stroke="black" d="M370.46,-362.8C374.88,-362.05 379.32,-361.24 383.67,-360.4"/>
<polygon fill="black" stroke="black" points="384.5,-363.8 393.6,-358.37 383.1,-356.94 384.5,-363.8"/>
<text text-anchor="middle" x="374.34" y="-364.4" font-family="Times,serif" font-size="14.00">s</text>
</g>
<!-- room_503&#45;&gt;room_502 -->
<g id="edge7" class="edge">
<title>room_503&#45;&gt;room_502</title>
<path fill="none" stroke="black" d="M379.18,-347.64C373.85,-348.49 368.44,-349.44 363.14,-350.44"/>
<polygon fill="black" stroke="black" points="362.24,-347.05 353.12,-352.45 363.62,-353.92 362.24,-347.05"/>
<text text-anchor="middle" x="374.66" y="-337.84" font-family="Times,serif" font-size="14.00">n</text>
</g>
<!-- room_504 -->
<g id="node7" class="node">
<title>room_504</title>
<ellipse fill="none" stroke="black" cx="569.35" cy="-331.15" rx="81.21" ry="18"/>
<text text-anchor="middle" x="569.35" y="-326.95" font-family="Times,serif" font-size="14.00">Glistening Columns</text>
</g>
<!-- room_503&#45;&gt;room_504 -->
<g id="edge8" class="edge">
<title>room_503&#45;&gt;room_504</title>
<path fill="none" stroke="black" d="M480.29,-346.91C487.05,-346.38 494.06,-345.74 501.06,-345.01"/>
<polygon fill="black" stroke="black" points="501.7,-348.46 511.25,-343.87 500.93,-341.5 501.7,-348.46"/>
<text text-anchor="middle" x="487.17" y="-348.76" font-family="Times,serif" font-size="14.00">u</text>
</g>
<!-- room_504&#45;&gt;room_503 -->
<g id="edge10" class="edge">
<title>room_504&#45;&gt;room_503</title>
<path fill="none" stroke="black" d="M488.55,-332.79C485.98,-333.09 483.43,-333.4 480.92,-333.72"/>
<polygon fill="black" stroke="black" points="480.25,-330.28 470.8,-335.08 481.18,-337.22 480.25,-330.28"/>
<text text-anchor="middle" x="484.73" y="-322.06" font-family="Times,serif" font-size="14.00">d</text>
</g>
<!-- room_505 -->
<g id="node8" class="node">
<title>room_505</title>
<ellipse fill="none" stroke="black" cx="723.72" cy="-316.19" rx="65.27" ry="18"/>
<text text-anchor="middle" x="723.72" y="-311.99" font-family="Times,serif" font-size="14.00">Room of Shells</text>
</g>
<!-- room_504&#45;&gt;room_505 -->
<g id="edge9" class="edge">
<title>room_504&#45;&gt;room_505</title>
<path fill="none" stroke="black" d="M650.35,-330.07C654.52,-329.66 658.67,-329.21 662.75,-328.75"/>
<polygon fill="black" stroke="black" points="663.24,-332.22 672.75,-327.56 662.41,-325.27 663.24,-332.22"/>
<text text-anchor="middle" x="653.44" y="-332.21" font-family="Times,serif" font-size="14.00">e</text>
</g>
<!-- room_505&#45;&gt;room_504 -->
<g id="edge12" class="edge">
<title>room_505&#45;&gt;room_504</title>
<path fill="none" stroke="black" d="M658.5,-315.81C651.99,-316.35 645.36,-316.98 638.8,-317.66"/>
<polygon fill="black" stroke="black" points="638.15,-314.21 628.59,-318.78 638.91,-321.17 638.15,-314.21"/>
<text text-anchor="middle" x="653.71" y="-305.53" font-family="Times,serif" font-size="14.00">w</text>
</g>
<!-- room_506 -->
<g id="node9" class="node">
<title>room_506</title>
<ellipse fill="none" stroke="black" cx="861.76" cy="-299.61" rx="64.75" ry="18"/>
<text text-anchor="middle" x="861.76" y="-295.41" font-family="Times,serif" font-size="14.00">Coral Doorway</text>
</g>
<!-- room_505&#45;&gt;room_506 -->
<g id="edge11" class="edge">
<title>room_505&#45;&gt;room_506</title>
<path fill="none" stroke="black" d="M789.1,-315.12C794.1,-314.55 799.13,-313.93 804.08,-313.27"/>
<polygon fill="black" stroke="black" points="804.67,-316.72 814.09,-311.86 803.7,-309.78 804.67,-316.72"/>
<text text-anchor="middle" x="793.48" y="-316.99" font-family="Times,serif" font-size="14.00">e</text>
</g>
<!-- room_506&#45;&gt;room_505 -->
<g id="edge14" class="edge">
<title>room_506&#45;&gt;room_505</title>
<path fill="none" stroke="black" d="M796.79,-300.63C791.77,-301.2 786.72,-301.83 781.75,-302.49"/>
<polygon fill="black" stroke="black" points="781.1,-299.04 771.69,-303.9 782.08,-305.98 781.1,-299.04"/>
<text text-anchor="middle" x="791.79" y="-290.36" font-family="Times,serif" font-size="14.00">w</text>
</g>
<!-- room_506&#45;&gt;room_507 -->
<g id="edge13" class="edge">
<title>room_506&#45;&gt;room_507</title>
<path fill="none" stroke="black" d="M926.49,-297.5C932.19,-296.75 937.91,-295.94 943.52,-295.08"/>
<polygon fill="black" stroke="black" points="944.13,-298.52 953.45,-293.48 943.02,-291.61 944.13,-298.52"/>
<text text-anchor="middle" x="931.9" y="-299.09" font-family="Times,serif" font-size="14.00">e</text>
</g>
<!-- room_507&#45;&gt;room_645 -->
<g id="edge15" class="edge">
<title>room_507&#45;&gt;room_645</title>
<path fill="none" stroke="black" d="M1010.57,-262.93C1020.23,-241.7 1032.93,-206.02 1039.86,-180.99"/>
<polygon fill="black" stroke="black" points="1043.33,-181.55 1042.46,-170.99 1036.56,-179.79 1043.33,-181.55"/>
<text text-anchor="middle" x="1021.71" y="-224.76" font-family="Times,serif" font-size="14.00">n</text>
</g>
<!-- room_507&#45;&gt;room_506 -->
<g id="edge17" class="edge">
<title>room_507&#45;&gt;room_506</title>
<path fill="none" stroke="black" d="M934.7,-282.78C928.99,-283.53 923.24,-284.34 917.6,-285.21"/>
<polygon fill="black" stroke="black" points="916.94,-281.77 907.63,-286.8 918.05,-288.68 916.94,-281.77"/>
<text text-anchor="middle" x="928.68" y="-272.79" font-family="Times,serif" font-size="14.00">w</text>
</g>
<!-- room_508 -->
<g id="node11" class="node">
<title>room_508</title>
<ellipse fill="none" stroke="black" cx="1064.37" cy="-398.77" rx="67.67" ry="18"/>
<text text-anchor="middle" x="1064.37" y="-394.57" font-family="Times,serif" font-size="14.00">Sinking Passage</text>
</g>
<!-- room_507&#45;&gt;room_508 -->
<g id="edge16" class="edge">
<title>room_507&#45;&gt;room_508</title>
<path fill="none" stroke="black" d="M1003.54,-298.7C1011.94,-318.39 1029.02,-350.05 1043.07,-372.51"/>
<polygon fill="black" stroke="black" points="1040.32,-374.7 1048.68,-381.21 1046.21,-370.91 1040.32,-374.7"/>
<text text-anchor="middle" x="1020.58" y="-338.4" font-family="Times,serif" font-size="14.00">s</text>
</g>
<!-- room_508&#45;&gt;room_507 -->
<g id="edge18" class="edge">
<title>room_508&#45;&gt;room_507</title>
<path fill="none" stroke="black" d="M1059.85,-380.79C1051.46,-361.1 1034.37,-329.44 1020.32,-306.98"/>
<polygon fill="black" stroke="black" points="1023.08,-304.79 1014.72,-298.28 1017.19,-308.58 1023.08,-304.79"/>
<text text-anchor="middle" x="1036.59" y="-346.68" font-family="Times,serif" font-size="14.00">n</text>
</g>
<!-- room_509 -->
<g id="node12" class="node">
<title>room_509</title>
<ellipse fill="none" stroke="black" cx="1136.95" cy="-502.22" rx="75.4" ry="18"/>
<text text-anchor="middle" x="1136.95" y="-498.02" font-family="Times,serif" font-size="14.00">Whirlpool Bottom</text>
</g>
<!-- room_508&#45;&gt;room_509 -->
<g id="edge19" class="edge">
<title>room_508&#45;&gt;room_509</title>
<path fill="none" stroke="black" d="M1071.02,-416.88C1080.34,-433.47 1097.13,-458.08 1111.51,-476.65"/>
<polygon fill="black" stroke="black" points="1108.95,-479.05 1117.91,-484.7 1114.43,-474.69 1108.95,-479.05"/>
<text text-anchor="middle" x="1088.54" y="-449.56" font-family="Times,serif" font-size="14.00">s</text>
</g>
<!-- room_509&#45;&gt;room_508 -->
<g id="edge20" class="edge">
<title>room_509&#45;&gt;room_508</title>
<path fill="none" stroke="black" d="M1130.3,-484.11C1120.97,-467.52 1104.19,-442.91 1089.81,-424.34"/>
<polygon fill="black" stroke="black" points="1092.37,-421.94 1083.41,-416.28 1086.89,-426.29 1092.37,-421.94"/>
<text text-anchor="middle" x="1106.55" y="-457.02" font-family="Times,serif" font-size="14.00">n</text>
</g>
<!-- room_550 -->
<g id="node13" class="node">
<title>room_550</title>
<ellipse fill="none" stroke="black" cx="1219.63" cy="-596.51" rx="46.41" ry="18"/>
<text text-anchor="middle" x="1219.63" y="-592.31" font-family="Times,serif" font-size="14.00">Whirlpool</text>
</g>
<!-- room_509&#45;&gt;room_550 -->
<g id="edge21" class="edge">
<title>room_509&#45;&gt;room_550</title>
<path fill="none" stroke="black" d="M1146.06,-520.29C1156.84,-535.24 1174.94,-556.48 1190.55,-572.78"/>
<polygon fill="black" stroke="black" points="1188.46,-575.65 1197.96,-580.34 1193.46,-570.75 1188.46,-575.65"/>
<text text-anchor="middle" x="1164.8" y="-549.33" font-family="Times,serif" font-size="14.00">u</text>
</g>
<!-- room_550&#45;&gt;room_509 -->
<g id="edge22" class="edge">
<title>room_550&#45;&gt;room_509</title>
<path fill="none" stroke="black" d="M1210.51,-578.44C1200.01,-563.87 1182.56,-543.34 1167.24,-527.22"/>
<polygon fill="black" stroke="black" points="1169.41,-524.43 1159.93,-519.7 1164.39,-529.31 1169.41,-524.43"/>
<text text-anchor="middle" x="1185.38" y="-555.63" font-family="Times,serif" font-size="14.00">d</text>
</g>
<!-- room_646&#45;&gt;room_645 -->
<g id="edge26" class="edge">
<title>room_646&#45;&gt;room_645</title>
<path fill="none" stroke="black" d="M1118.92,-117.99C1106.4,-122.24 1093,-127.23 1081.04,-132.14"/>
<polygon fill="black" stroke="black" points="1079.65,-128.92 1071.79,-136.03 1082.37,-135.37 1079.65,-128.92"/>
<text text-anchor="middle" x="1096.87" y="-113.87" font-family="Times,serif" font-size="14.00">e</text>
</g>
</g>
</svg>
