<?xml version="1.0" encoding="UTF-8" standalone="no"?>
<!DOCTYPE svg PUBLIC "-//W3C//DTD SVG 1.1//EN"
 "http://www.w3.org/Graphics/SVG/1.1/DTD/svg11.dtd">
<!-- Generated by graphviz version 2.42.3 (20191010.1750)
 -->
<!-- Title: monster Pages: 1 -->
<svg width="1847pt" height="1284pt"
 viewBox="0.00 0.00 1847.01 1283.73" xmlns="http://www.w3.org/2000/svg" xmlns:xlink="http://www.w3.org/1999/xlink">
<g id="graph0" class="graph" transform="scale(1 1) rotate(0) translate(4 1279.73)">
<title>monster</title>
<polygon fill="white" stroke="transparent" points="-4,4 -4,-1279.73 1843.01,-1279.73 1843.01,4 -4,4"/>
<!-- room_58 -->
<g id="node1" class="node">
<title>room_58</title>
<ellipse fill="none" stroke="black" cx="855.71" cy="-408.41" rx="82.13" ry="18"/>
<text text-anchor="middle" x="855.71" y="-404.21" font-family="Times,serif" font-size="14.00">Ancient City Square</text>
</g>
<!-- room_282 -->
<g id="node2" class="node">
<title>room_282</title>
<ellipse fill="none" stroke="black" cx="727.1" cy="-452.44" rx="59.44" ry="18"/>
<text text-anchor="middle" x="727.1" y="-448.24" font-family="Times,serif" font-size="14.00">Festival Place</text>
</g>
<!-- room_58&#45;&gt;room_282 -->
<g id="edge1" class="edge">
<title>room_58&#45;&gt;room_282</title>
<path fill="none" stroke="black" d="M797.51,-421.25C786.48,-424.88 775.22,-428.88 765.03,-432.79"/>
<polygon fill="black" stroke="black" points="763.64,-429.58 755.62,-436.5 766.21,-436.09 763.64,-429.58"/>
<text text-anchor="middle" x="784.77" y="-429.82" font-family="Times,serif" font-size="14.00">n</text>
</g>
<!-- room_295 -->
<g id="node3" class="node">
<title>room_295</title>
<ellipse fill="none" stroke="black" cx="733.05" cy="-607" rx="57.44" ry="18"/>
<text text-anchor="middle" x="733.05" y="-602.8" font-family="Times,serif" font-size="14.00">Via Paladinia</text>
</g>
<!-- room_58&#45;&gt;room_295 -->
<g id="edge2" class="edge">
<title>room_58&#45;&gt;room_295</title>
<path fill="none" stroke="black" d="M839.64,-426.3C814.28,-461.31 766.25,-538.84 744.24,-580.07"/>
<polygon fill="black" stroke="black" points="741.11,-578.52 739.6,-589.01 747.32,-581.75 741.11,-578.52"/>
<text text-anchor="middle" x="789.22" y="-505.98" font-family="Times,serif" font-size="14.00">s</text>
</g>
<!-- room_59 -->
<g id="node4" class="node">
<title>room_59</title>
<ellipse fill="none" stroke="black" cx="848.38" cy="-224.96" rx="64.26" ry="18"/>
<text text-anchor="middle" x="848.38" y="-220.76" font-family="Times,serif" font-size="14.00">Collapsed Gate</text>
</g>
<!-- room_58&#45;&gt;room_59 -->
<g id="edge3" class="edge">
<title>room_58&#45;&gt;room_59</title>
<path fill="none" stroke="black" d="M859.21,-390.32C861.01,-358.22 858.6,-291.11 854.54,-252.99"/>
<polygon fill="black" stroke="black" points="858.02,-252.58 853.35,-243.06 851.07,-253.41 858.02,-252.58"/>
<text text-anchor="middle" x="853.77" y="-324.45" font-family="Times,serif" font-size="14.00">e</text>
</g>
<!-- room_60 -->
<g id="node5" class="node">
<title>room_60</title>
<ellipse fill="none" stroke="black" cx="1015.77" cy="-354.25" rx="70.46" ry="18"/>
<text text-anchor="middle" x="1015.77" y="-350.05" font-family="Times,serif" font-size="14.00">Via Necromantia</text>
</g>
<!-- room_58&#45;&gt;room_60 -->
<g id="edge4" class="edge">
<title>room_58&#45;&gt;room_60</title>
<path fill="none" stroke="black" d="M913.77,-395.6C934.34,-389.15 957.02,-381.32 975.75,-374.15"/>
<polygon fill="black" stroke="black" points="977.12,-377.37 985.16,-370.47 974.57,-370.85 977.12,-377.37"/>
<text text-anchor="middle" x="939.71" y="-373.67" font-family="Times,serif" font-size="14.00">w</text>
</g>
<!-- room_282&#45;&gt;room_58 -->
<g id="edge34" class="edge">
<title>room_282&#45;&gt;room_58</title>
<path fill="none" stroke="black" d="M776.74,-442.36C789.61,-438.29 803.3,-433.55 815.61,-428.88"/>
<polygon fill="black" stroke="black" points="817.09,-432.06 825.14,-425.17 814.55,-425.54 817.09,-432.06"/>
<text text-anchor="middle" x="793.45" y="-438.42" font-family="Times,serif" font-size="14.00">s</text>
</g>
<!-- room_283 -->
<g id="node25" class="node">
<title>room_283</title>
<ellipse fill="none" stroke="black" cx="576.7" cy="-360.82" rx="67.41" ry="18"/>
<text text-anchor="middle" x="576.7" y="-356.62" font-family="Times,serif" font-size="14.00">Ancestor&#39;s Field</text>
</g>
<!-- room_282&#45;&gt;room_283 -->
<g id="edge33" class="edge">
<title>room_282&#45;&gt;room_283</title>
<path fill="none" stroke="black" d="M708.4,-435.34C686.76,-419.84 650.46,-397.25 621.43,-380.92"/>
<polygon fill="black" stroke="black" points="623.12,-377.85 612.68,-376.07 619.73,-383.98 623.12,-377.85"/>
<text text-anchor="middle" x="661.42" y="-410.93" font-family="Times,serif" font-size="14.00">n</text>
</g>
<!-- room_293 -->
<g id="node26" class="node">
<title>room_293</title>
<ellipse fill="none" stroke="black" cx="717.49" cy="-314.07" rx="66.18" ry="18"/>
<text text-anchor="middle" x="717.49" y="-309.87" font-family="Times,serif" font-size="14.00">Place of Graves</text>
</g>
<!-- room_282&#45;&gt;room_293 -->
<g id="edge35" class="edge">
<title>room_282&#45;&gt;room_293</title>
<path fill="none" stroke="black" d="M730.55,-434.3C731.32,-410.94 728.79,-370.07 725.09,-342.54"/>
<polygon fill="black" stroke="black" points="728.5,-341.73 723.56,-332.36 721.58,-342.77 728.5,-341.73"/>
<text text-anchor="middle" x="724.71" y="-391.22" font-family="Times,serif" font-size="14.00">e</text>
</g>
<!-- room_299 -->
<g id="node27" class="node">
<title>room_299</title>
<ellipse fill="none" stroke="black" cx="891.46" cy="-568.76" rx="77.29" ry="18"/>
<text text-anchor="middle" x="891.46" y="-564.56" font-family="Times,serif" font-size="14.00">Small Marketplace</text>
</g>
<!-- room_282&#45;&gt;room_299 -->
<g id="edge36" class="edge">
<title>room_282&#45;&gt;room_299</title>
<path fill="none" stroke="black" d="M743.97,-469.95C768.9,-490.59 816.15,-524.53 850.5,-546.85"/>
<polygon fill="black" stroke="black" points="848.62,-549.81 858.93,-552.26 852.4,-543.91 848.62,-549.81"/>
<text text-anchor="middle" x="802.29" y="-511.2" font-family="Times,serif" font-size="14.00">w</text>
</g>
<!-- room_295&#45;&gt;room_58 -->
<g id="edge61" class="edge">
<title>room_295&#45;&gt;room_58</title>
<path fill="none" stroke="black" d="M748.87,-589.46C774.14,-554.65 822.35,-476.85 844.46,-435.45"/>
<polygon fill="black" stroke="black" points="847.62,-436.96 849.13,-426.47 841.41,-433.73 847.62,-436.96"/>
<text text-anchor="middle" x="794.91" y="-501.25" font-family="Times,serif" font-size="14.00">n</text>
</g>
<!-- room_296 -->
<g id="node36" class="node">
<title>room_296</title>
<ellipse fill="none" stroke="black" cx="640.42" cy="-763.77" rx="57.44" ry="18"/>
<text text-anchor="middle" x="640.42" y="-759.57" font-family="Times,serif" font-size="14.00">Via Paladinia</text>
</g>
<!-- room_295&#45;&gt;room_296 -->
<g id="edge62" class="edge">
<title>room_295&#45;&gt;room_296</title>
<path fill="none" stroke="black" d="M717.29,-624.48C698.18,-651.67 667.02,-704.14 650.7,-736.38"/>
<polygon fill="black" stroke="black" points="647.4,-735.16 646.14,-745.68 653.68,-738.24 647.4,-735.16"/>
<text text-anchor="middle" x="681.27" y="-683.23" font-family="Times,serif" font-size="14.00">s</text>
</g>
<!-- room_59&#45;&gt;room_58 -->
<g id="edge6" class="edge">
<title>room_59&#45;&gt;room_58</title>
<path fill="none" stroke="black" d="M844.89,-243.05C843.09,-275.15 845.5,-342.26 849.56,-380.38"/>
<polygon fill="black" stroke="black" points="846.08,-380.8 850.74,-390.31 853.03,-379.96 846.08,-380.8"/>
<text text-anchor="middle" x="842.17" y="-314.52" font-family="Times,serif" font-size="14.00">w</text>
</g>
<!-- room_583 -->
<g id="node6" class="node">
<title>room_583</title>
<ellipse fill="none" stroke="black" cx="851.97" cy="-50.56" rx="72.96" ry="18"/>
<text text-anchor="middle" x="851.97" y="-46.36" font-family="Times,serif" font-size="14.00">Beyond the Gates</text>
</g>
<!-- room_59&#45;&gt;room_583 -->
<g id="edge5" class="edge">
<title>room_59&#45;&gt;room_583</title>
<path fill="none" stroke="black" d="M853.1,-206.72C856.64,-176.34 858.17,-115.19 856.53,-79.08"/>
<polygon fill="black" stroke="black" points="860,-78.51 855.91,-68.74 853.01,-78.93 860,-78.51"/>
<text text-anchor="middle" x="851.71" y="-145.7" font-family="Times,serif" font-size="14.00">e</text>
</g>
<!-- room_60&#45;&gt;room_58 -->
<g id="edge9" class="edge">
<title>room_60&#45;&gt;room_58</title>
<path fill="none" stroke="black" d="M961.76,-365.81C940.55,-372.35 916.6,-380.56 896.83,-388.09"/>
<polygon fill="black" stroke="black" points="895.54,-384.84 887.49,-391.73 898.08,-391.36 895.54,-384.84"/>
<text text-anchor="middle" x="926.19" y="-379.75" font-family="Times,serif" font-size="14.00">e</text>
</g>
<!-- room_302 -->
<g id="node7" class="node">
<title>room_302</title>
<ellipse fill="none" stroke="black" cx="985.97" cy="-470.84" rx="54.11" ry="18"/>
<text text-anchor="middle" x="985.97" y="-466.64" font-family="Times,serif" font-size="14.00">Ampitheater</text>
</g>
<!-- room_60&#45;&gt;room_302 -->
<g id="edge7" class="edge">
<title>room_60&#45;&gt;room_302</title>
<path fill="none" stroke="black" d="M1005.84,-372.23C999.11,-390.99 991.31,-420.66 987.22,-442.57"/>
<polygon fill="black" stroke="black" points="983.74,-442.18 985.53,-452.62 990.64,-443.34 983.74,-442.18"/>
<text text-anchor="middle" x="993.03" y="-410.2" font-family="Times,serif" font-size="14.00">n</text>
</g>
<!-- room_281 -->
<g id="node8" class="node">
<title>room_281</title>
<ellipse fill="none" stroke="black" cx="1051.88" cy="-198.34" rx="69.36" ry="18"/>
<text text-anchor="middle" x="1051.88" y="-194.14" font-family="Times,serif" font-size="14.00">Wizard Archives</text>
</g>
<!-- room_60&#45;&gt;room_281 -->
<g id="edge8" class="edge">
<title>room_60&#45;&gt;room_281</title>
<path fill="none" stroke="black" d="M1024.69,-336.18C1033.59,-309.3 1045.57,-258.58 1050.71,-226.72"/>
<polygon fill="black" stroke="black" points="1054.19,-227.1 1052.18,-216.7 1047.27,-226.09 1054.19,-227.1"/>
<text text-anchor="middle" x="1034.98" y="-284.25" font-family="Times,serif" font-size="14.00">s</text>
</g>
<!-- room_61 -->
<g id="node9" class="node">
<title>room_61</title>
<ellipse fill="none" stroke="black" cx="1179.95" cy="-395.38" rx="70.46" ry="18"/>
<text text-anchor="middle" x="1179.95" y="-391.18" font-family="Times,serif" font-size="14.00">Via Necromantia</text>
</g>
<!-- room_60&#45;&gt;room_61 -->
<g id="edge10" class="edge">
<title>room_60&#45;&gt;room_61</title>
<path fill="none" stroke="black" d="M1052.85,-369.54C1069.28,-374.47 1089.2,-379.75 1108.34,-384.33"/>
<polygon fill="black" stroke="black" points="1107.73,-387.78 1118.26,-386.66 1109.33,-380.97 1107.73,-387.78"/>
<text text-anchor="middle" x="1075.54" y="-379.74" font-family="Times,serif" font-size="14.00">w</text>
</g>
<!-- room_583&#45;&gt;room_59 -->
<g id="edge89" class="edge">
<title>room_583&#45;&gt;room_59</title>
<path fill="none" stroke="black" d="M847.25,-68.81C843.71,-99.18 842.18,-160.34 843.83,-196.45"/>
<polygon fill="black" stroke="black" points="840.36,-197.01 844.44,-206.79 847.34,-196.6 840.36,-197.01"/>
<text text-anchor="middle" x="840.49" y="-135.43" font-family="Times,serif" font-size="14.00">w</text>
</g>
<!-- room_302&#45;&gt;room_60 -->
<g id="edge78" class="edge">
<title>room_302&#45;&gt;room_60</title>
<path fill="none" stroke="black" d="M995.8,-453.12C1002.55,-434.41 1010.38,-404.64 1014.49,-382.65"/>
<polygon fill="black" stroke="black" points="1017.98,-383 1016.19,-372.56 1011.08,-381.84 1017.98,-383"/>
<text text-anchor="middle" x="1002.42" y="-420.69" font-family="Times,serif" font-size="14.00">s</text>
</g>
<!-- room_302&#45;&gt;room_299 -->
<g id="edge77" class="edge">
<title>room_302&#45;&gt;room_299</title>
<path fill="none" stroke="black" d="M962.36,-487.25C945.53,-502.53 923.41,-525.39 908.31,-543.06"/>
<polygon fill="black" stroke="black" points="905.61,-540.84 901.92,-550.77 911,-545.31 905.61,-540.84"/>
<text text-anchor="middle" x="931.84" y="-517.96" font-family="Times,serif" font-size="14.00">n</text>
</g>
<!-- room_281&#45;&gt;room_60 -->
<g id="edge32" class="edge">
<title>room_281&#45;&gt;room_60</title>
<path fill="none" stroke="black" d="M1042.95,-216.42C1034.05,-243.3 1022.08,-294.02 1016.93,-325.88"/>
<polygon fill="black" stroke="black" points="1013.45,-325.49 1015.46,-335.9 1020.38,-326.51 1013.45,-325.49"/>
<text text-anchor="middle" x="1026.44" y="-273.95" font-family="Times,serif" font-size="14.00">n</text>
</g>
<!-- room_61&#45;&gt;room_60 -->
<g id="edge12" class="edge">
<title>room_61&#45;&gt;room_60</title>
<path fill="none" stroke="black" d="M1142.87,-380.09C1126.43,-375.17 1106.52,-369.88 1087.37,-365.3"/>
<polygon fill="black" stroke="black" points="1087.99,-361.85 1077.45,-362.97 1086.39,-368.66 1087.99,-361.85"/>
<text text-anchor="middle" x="1112.01" y="-361.5" font-family="Times,serif" font-size="14.00">e</text>
</g>
<!-- room_300 -->
<g id="node10" class="node">
<title>room_300</title>
<ellipse fill="none" stroke="black" cx="1155.4" cy="-545.43" rx="65.89" ry="18"/>
<text text-anchor="middle" x="1155.4" y="-541.23" font-family="Times,serif" font-size="14.00">Narrow Avenue</text>
</g>
<!-- room_61&#45;&gt;room_300 -->
<g id="edge11" class="edge">
<title>room_61&#45;&gt;room_300</title>
<path fill="none" stroke="black" d="M1172.31,-413.33C1165.52,-439.06 1157.49,-486.67 1154.6,-517.16"/>
<polygon fill="black" stroke="black" points="1151.11,-516.92 1153.8,-527.16 1158.09,-517.47 1151.11,-516.92"/>
<text text-anchor="middle" x="1159.95" y="-468.04" font-family="Times,serif" font-size="14.00">n</text>
</g>
<!-- room_62 -->
<g id="node11" class="node">
<title>room_62</title>
<ellipse fill="none" stroke="black" cx="1344.04" cy="-357.62" rx="70.46" ry="18"/>
<text text-anchor="middle" x="1344.04" y="-353.42" font-family="Times,serif" font-size="14.00">Via Necromantia</text>
</g>
<!-- room_61&#45;&gt;room_62 -->
<g id="edge13" class="edge">
<title>room_61&#45;&gt;room_62</title>
<path fill="none" stroke="black" d="M1243.46,-387.5C1260.67,-383.87 1279.02,-379.54 1295.28,-375.28"/>
<polygon fill="black" stroke="black" points="1296.35,-378.61 1305.1,-372.63 1294.53,-371.85 1296.35,-378.61"/>
<text text-anchor="middle" x="1264.31" y="-384.19" font-family="Times,serif" font-size="14.00">w</text>
</g>
<!-- room_300&#45;&gt;room_61 -->
<g id="edge75" class="edge">
<title>room_300&#45;&gt;room_61</title>
<path fill="none" stroke="black" d="M1163.04,-527.48C1169.83,-501.75 1177.86,-454.14 1180.75,-423.65"/>
<polygon fill="black" stroke="black" points="1184.24,-423.89 1181.55,-413.65 1177.27,-423.34 1184.24,-423.89"/>
<text text-anchor="middle" x="1169.17" y="-478.37" font-family="Times,serif" font-size="14.00">s</text>
</g>
<!-- room_298 -->
<g id="node24" class="node">
<title>room_298</title>
<ellipse fill="none" stroke="black" cx="1049.44" cy="-662.94" rx="69.75" ry="18"/>
<text text-anchor="middle" x="1049.44" y="-658.74" font-family="Times,serif" font-size="14.00">Avenue of Kings</text>
</g>
<!-- room_300&#45;&gt;room_298 -->
<g id="edge74" class="edge">
<title>room_300&#45;&gt;room_298</title>
<path fill="none" stroke="black" d="M1133.03,-562.37C1112.81,-581.94 1083.7,-614.14 1065.62,-636.88"/>
<polygon fill="black" stroke="black" points="1062.85,-634.73 1059.5,-644.78 1068.39,-639.02 1062.85,-634.73"/>
<text text-anchor="middle" x="1095.83" y="-602.42" font-family="Times,serif" font-size="14.00">n</text>
</g>
<!-- room_62&#45;&gt;room_61 -->
<g id="edge15" class="edge">
<title>room_62&#45;&gt;room_61</title>
<path fill="none" stroke="black" d="M1280.53,-365.49C1263.33,-369.13 1244.97,-373.45 1228.71,-377.72"/>
<polygon fill="black" stroke="black" points="1227.64,-374.38 1218.89,-380.36 1229.46,-381.14 1227.64,-374.38"/>
<text text-anchor="middle" x="1251.52" y="-360.4" font-family="Times,serif" font-size="14.00">e</text>
</g>
<!-- room_301 -->
<g id="node12" class="node">
<title>room_301</title>
<ellipse fill="none" stroke="black" cx="1388.05" cy="-200.39" rx="73" ry="18"/>
<text text-anchor="middle" x="1388.05" y="-196.19" font-family="Times,serif" font-size="14.00">Unusual Building</text>
</g>
<!-- room_62&#45;&gt;room_301 -->
<g id="edge14" class="edge">
<title>room_62&#45;&gt;room_301</title>
<path fill="none" stroke="black" d="M1353.88,-339.58C1364.2,-312.44 1378.85,-260.9 1385.56,-228.72"/>
<polygon fill="black" stroke="black" points="1389.05,-229.09 1387.51,-218.61 1382.18,-227.76 1389.05,-229.09"/>
<text text-anchor="middle" x="1366.22" y="-286.95" font-family="Times,serif" font-size="14.00">n</text>
</g>
<!-- room_287 -->
<g id="node13" class="node">
<title>room_287</title>
<ellipse fill="none" stroke="black" cx="1488.25" cy="-451.99" rx="67.13" ry="18"/>
<text text-anchor="middle" x="1488.25" y="-447.79" font-family="Times,serif" font-size="14.00">Sealed Entrance</text>
</g>
<!-- room_62&#45;&gt;room_287 -->
<g id="edge16" class="edge">
<title>room_62&#45;&gt;room_287</title>
<path fill="none" stroke="black" d="M1362.02,-375.24C1382.8,-391.19 1417.59,-414.43 1445.41,-431.24"/>
<polygon fill="black" stroke="black" points="1443.79,-434.35 1454.17,-436.45 1447.37,-428.33 1443.79,-434.35"/>
<text text-anchor="middle" x="1398.66" y="-406.04" font-family="Times,serif" font-size="14.00">w</text>
</g>
<!-- room_301&#45;&gt;room_62 -->
<g id="edge76" class="edge">
<title>room_301&#45;&gt;room_62</title>
<path fill="none" stroke="black" d="M1378.21,-218.43C1367.89,-245.57 1353.25,-297.11 1346.54,-329.29"/>
<polygon fill="black" stroke="black" points="1343.04,-328.92 1344.58,-339.4 1349.92,-330.25 1343.04,-328.92"/>
<text text-anchor="middle" x="1359.65" y="-276.66" font-family="Times,serif" font-size="14.00">s</text>
</g>
<!-- room_287&#45;&gt;room_62 -->
<g id="edge49" class="edge">
<title>room_287&#45;&gt;room_62</title>
<path fill="none" stroke="black" d="M1470.56,-434.59C1449.93,-418.72 1415.2,-395.5 1387.32,-378.63"/>
<polygon fill="black" stroke="black" points="1388.92,-375.51 1378.54,-373.4 1385.34,-381.52 1388.92,-375.51"/>
<text text-anchor="middle" x="1425.83" y="-409.41" font-family="Times,serif" font-size="14.00">e</text>
</g>
<!-- room_70 -->
<g id="node14" class="node">
<title>room_70</title>
<ellipse fill="none" stroke="black" cx="1631.95" cy="-362.5" rx="67.21" ry="18"/>
<text text-anchor="middle" x="1631.95" y="-358.3" font-family="Times,serif" font-size="14.00">Forum of Shops</text>
</g>
<!-- room_287&#45;&gt;room_70 -->
<g id="edge48" class="edge">
<title>room_287&#45;&gt;room_70</title>
<path fill="none" stroke="black" d="M1523.9,-436.57C1549,-422.55 1582.05,-401.91 1604.98,-385.9"/>
<polygon fill="black" stroke="black" points="1607.12,-388.66 1613.23,-380.01 1603.06,-382.96 1607.12,-388.66"/>
<text text-anchor="middle" x="1561.71" y="-414.03" font-family="Times,serif" font-size="14.00">s</text>
</g>
<!-- room_276 -->
<g id="node17" class="node">
<title>room_276</title>
<ellipse fill="none" stroke="black" cx="1464.91" cy="-617.1" rx="69.61" ry="18"/>
<text text-anchor="middle" x="1464.91" y="-612.9" font-family="Times,serif" font-size="14.00">Crumbling Alley</text>
</g>
<!-- room_287&#45;&gt;room_276 -->
<g id="edge47" class="edge">
<title>room_287&#45;&gt;room_276</title>
<path fill="none" stroke="black" d="M1481.2,-469.98C1474.34,-498.59 1466.17,-554.66 1463.68,-588.72"/>
<polygon fill="black" stroke="black" points="1460.17,-588.75 1463.08,-598.94 1467.16,-589.16 1460.17,-588.75"/>
<text text-anchor="middle" x="1468.94" y="-532.15" font-family="Times,serif" font-size="14.00">n</text>
</g>
<!-- room_584 -->
<g id="node34" class="node">
<title>room_584</title>
<ellipse fill="none" stroke="black" cx="1620.91" cy="-525.22" rx="68.14" ry="18"/>
<text text-anchor="middle" x="1620.91" y="-521.02" font-family="Times,serif" font-size="14.00">Beyond the Seal</text>
</g>
<!-- room_287&#45;&gt;room_584 -->
<g id="edge50" class="edge">
<title>room_287&#45;&gt;room_584</title>
<path fill="none" stroke="black" d="M1508.52,-469.17C1525.52,-480.22 1550.45,-494.44 1572.53,-505.86"/>
<polygon fill="black" stroke="black" points="1570.96,-508.99 1581.46,-510.41 1574.13,-502.76 1570.96,-508.99"/>
<text text-anchor="middle" x="1535.47" y="-490.31" font-family="Times,serif" font-size="14.00">w</text>
</g>
<!-- room_70&#45;&gt;room_287 -->
<g id="edge17" class="edge">
<title>room_70&#45;&gt;room_287</title>
<path fill="none" stroke="black" d="M1596.3,-377.91C1571.19,-391.93 1538.15,-412.57 1515.22,-428.59"/>
<polygon fill="black" stroke="black" points="1513.07,-425.82 1506.96,-434.48 1517.14,-431.52 1513.07,-425.82"/>
<text text-anchor="middle" x="1552.26" y="-406.05" font-family="Times,serif" font-size="14.00">n</text>
</g>
<!-- room_288 -->
<g id="node15" class="node">
<title>room_288</title>
<ellipse fill="none" stroke="black" cx="1789.83" cy="-399.97" rx="49.35" ry="18"/>
<text text-anchor="middle" x="1789.83" y="-395.77" font-family="Times,serif" font-size="14.00">Cold Anvil</text>
</g>
<!-- room_70&#45;&gt;room_288 -->
<g id="edge18" class="edge">
<title>room_70&#45;&gt;room_288</title>
<path fill="none" stroke="black" d="M1669.61,-377.52C1688.32,-382.85 1711.34,-388.51 1732.2,-392.97"/>
<polygon fill="black" stroke="black" points="1731.75,-396.45 1742.25,-395.05 1733.17,-389.59 1731.75,-396.45"/>
<text text-anchor="middle" x="1697.8" y="-388.04" font-family="Times,serif" font-size="14.00">e</text>
</g>
<!-- room_289 -->
<g id="node16" class="node">
<title>room_289</title>
<ellipse fill="none" stroke="black" cx="1718.19" cy="-231.64" rx="72.01" ry="18"/>
<text text-anchor="middle" x="1718.19" y="-227.44" font-family="Times,serif" font-size="14.00">Forsaken Armory</text>
</g>
<!-- room_70&#45;&gt;room_289 -->
<g id="edge19" class="edge">
<title>room_70&#45;&gt;room_289</title>
<path fill="none" stroke="black" d="M1649.44,-345.11C1666.66,-322.93 1692.11,-284.51 1706.87,-258.55"/>
<polygon fill="black" stroke="black" points="1710.04,-260.06 1711.79,-249.61 1703.91,-256.68 1710.04,-260.06"/>
<text text-anchor="middle" x="1673.1" y="-304.63" font-family="Times,serif" font-size="14.00">w</text>
</g>
<!-- room_288&#45;&gt;room_70 -->
<g id="edge51" class="edge">
<title>room_288&#45;&gt;room_70</title>
<path fill="none" stroke="black" d="M1757.27,-386.43C1741.42,-381.76 1721.72,-376.73 1702.66,-372.39"/>
<polygon fill="black" stroke="black" points="1703.29,-368.95 1692.77,-370.19 1701.77,-375.78 1703.29,-368.95"/>
<text text-anchor="middle" x="1724.91" y="-382.21" font-family="Times,serif" font-size="14.00">w</text>
</g>
<!-- room_289&#45;&gt;room_70 -->
<g id="edge52" class="edge">
<title>room_289&#45;&gt;room_70</title>
<path fill="none" stroke="black" d="M1700.49,-249.3C1683.35,-271.43 1658.17,-309.43 1643.45,-335.27"/>
<polygon fill="black" stroke="black" points="1640.29,-333.74 1638.53,-344.19 1646.42,-337.12 1640.29,-333.74"/>
<text text-anchor="middle" x="1668.86" y="-281.08" font-family="Times,serif" font-size="14.00">e</text>
</g>
<!-- room_276&#45;&gt;room_287 -->
<g id="edge21" class="edge">
<title>room_276&#45;&gt;room_287</title>
<path fill="none" stroke="black" d="M1471.96,-599.11C1478.82,-570.5 1486.99,-514.43 1489.48,-480.37"/>
<polygon fill="black" stroke="black" points="1492.99,-480.34 1490.08,-470.15 1486,-479.93 1492.99,-480.34"/>
<text text-anchor="middle" x="1478" y="-542.54" font-family="Times,serif" font-size="14.00">s</text>
</g>
<!-- room_277 -->
<g id="node18" class="node">
<title>room_277</title>
<ellipse fill="none" stroke="black" cx="1361.43" cy="-742.33" rx="56.09" ry="18"/>
<text text-anchor="middle" x="1361.43" y="-738.13" font-family="Times,serif" font-size="14.00">Guild Forum</text>
</g>
<!-- room_276&#45;&gt;room_277 -->
<g id="edge20" class="edge">
<title>room_276&#45;&gt;room_277</title>
<path fill="none" stroke="black" d="M1443.84,-634.49C1423.76,-655.59 1394.25,-691.19 1376.43,-715.73"/>
<polygon fill="black" stroke="black" points="1373.35,-714.03 1370.44,-724.22 1379.07,-718.07 1373.35,-714.03"/>
<text text-anchor="middle" x="1406.64" y="-677.91" font-family="Times,serif" font-size="14.00">n</text>
</g>
<!-- room_277&#45;&gt;room_276 -->
<g id="edge23" class="edge">
<title>room_277&#45;&gt;room_276</title>
<path fill="none" stroke="black" d="M1382,-725.47C1402.22,-704.3 1432.35,-667.96 1450.27,-643.2"/>
<polygon fill="black" stroke="black" points="1453.17,-645.17 1456.07,-634.97 1447.45,-641.13 1453.17,-645.17"/>
<text text-anchor="middle" x="1413.41" y="-687.14" font-family="Times,serif" font-size="14.00">s</text>
</g>
<!-- room_280 -->
<g id="node19" class="node">
<title>room_280</title>
<ellipse fill="none" stroke="black" cx="1483.34" cy="-853.31" rx="63.34" ry="18"/>
<text text-anchor="middle" x="1483.34" y="-849.11" font-family="Times,serif" font-size="14.00">Burnt Building</text>
</g>
<!-- room_277&#45;&gt;room_280 -->
<g id="edge22" class="edge">
<title>room_277&#45;&gt;room_280</title>
<path fill="none" stroke="black" d="M1374.18,-760.34C1391.91,-779.47 1424.36,-809.54 1449.32,-830.33"/>
<polygon fill="black" stroke="black" points="1447.19,-833.11 1457.14,-836.74 1451.62,-827.69 1447.19,-833.11"/>
<text text-anchor="middle" x="1408.25" y="-798.14" font-family="Times,serif" font-size="14.00">n</text>
</g>
<!-- room_279 -->
<g id="node20" class="node">
<title>room_279</title>
<ellipse fill="none" stroke="black" cx="1180.36" cy="-778.97" rx="55.6" ry="18"/>
<text text-anchor="middle" x="1180.36" y="-774.77" font-family="Times,serif" font-size="14.00">Guild Rostra</text>
</g>
<!-- room_277&#45;&gt;room_279 -->
<g id="edge24" class="edge">
<title>room_277&#45;&gt;room_279</title>
<path fill="none" stroke="black" d="M1306.85,-747.03C1281.69,-751.35 1252.11,-757.39 1227.88,-763.17"/>
<polygon fill="black" stroke="black" points="1226.73,-759.84 1217.85,-765.62 1228.4,-766.64 1226.73,-759.84"/>
<text text-anchor="middle" x="1264.26" y="-757.9" font-family="Times,serif" font-size="14.00">e</text>
</g>
<!-- room_280&#45;&gt;room_277 -->
<g id="edge31" class="edge">
<title>room_280&#45;&gt;room_277</title>
<path fill="none" stroke="black" d="M1470.59,-835.3C1452.75,-816.05 1420.02,-785.74 1394.99,-764.93"/>
<polygon fill="black" stroke="black" points="1397.13,-762.15 1387.17,-758.53 1392.7,-767.57 1397.13,-762.15"/>
<text text-anchor="middle" x="1430.07" y="-802.91" font-family="Times,serif" font-size="14.00">s</text>
</g>
<!-- room_279&#45;&gt;room_277 -->
<g id="edge30" class="edge">
<title>room_279&#45;&gt;room_277</title>
<path fill="none" stroke="black" d="M1234.45,-774.35C1259.74,-770.02 1289.59,-763.94 1313.99,-758.11"/>
<polygon fill="black" stroke="black" points="1314.86,-761.51 1323.74,-755.73 1313.19,-754.71 1314.86,-761.51"/>
<text text-anchor="middle" x="1279.28" y="-769.03" font-family="Times,serif" font-size="14.00">w</text>
</g>
<!-- room_278 -->
<g id="node21" class="node">
<title>room_278</title>
<ellipse fill="none" stroke="black" cx="1145.71" cy="-953.94" rx="58.01" ry="18"/>
<text text-anchor="middle" x="1145.71" y="-949.74" font-family="Times,serif" font-size="14.00">Ruined Guild</text>
</g>
<!-- room_279&#45;&gt;room_278 -->
<g id="edge27" class="edge">
<title>room_279&#45;&gt;room_278</title>
<path fill="none" stroke="black" d="M1172.37,-796.84C1163.35,-827.33 1150.79,-889.56 1146.13,-925.89"/>
<polygon fill="black" stroke="black" points="1142.65,-925.5 1144.99,-935.83 1149.6,-926.29 1142.65,-925.5"/>
<text text-anchor="middle" x="1155.75" y="-864.17" font-family="Times,serif" font-size="14.00">n</text>
</g>
<!-- room_290 -->
<g id="node23" class="node">
<title>room_290</title>
<ellipse fill="none" stroke="black" cx="1243.48" cy="-891.94" rx="80.68" ry="18"/>
<text text-anchor="middle" x="1243.48" y="-887.74" font-family="Times,serif" font-size="14.00">Fire&#45;Ravaged Guild</text>
</g>
<!-- room_279&#45;&gt;room_290 -->
<g id="edge28" class="edge">
<title>room_279&#45;&gt;room_290</title>
<path fill="none" stroke="black" d="M1184.91,-797.04C1192.89,-815.55 1208.58,-844.43 1221.83,-865.5"/>
<polygon fill="black" stroke="black" points="1218.96,-867.5 1227.33,-874 1224.84,-863.7 1218.96,-867.5"/>
<text text-anchor="middle" x="1200.65" y="-834.07" font-family="Times,serif" font-size="14.00">s</text>
</g>
<!-- room_279&#45;&gt;room_298 -->
<g id="edge29" class="edge">
<title>room_279&#45;&gt;room_298</title>
<path fill="none" stroke="black" d="M1167.37,-761.29C1148.14,-741.1 1111.72,-708.28 1084.38,-686.1"/>
<polygon fill="black" stroke="black" points="1086.22,-683.09 1076.22,-679.58 1081.85,-688.56 1086.22,-683.09"/>
<text text-anchor="middle" x="1122.77" y="-726.49" font-family="Times,serif" font-size="14.00">e</text>
</g>
<!-- room_278&#45;&gt;room_279 -->
<g id="edge26" class="edge">
<title>room_278&#45;&gt;room_279</title>
<path fill="none" stroke="black" d="M1153.71,-936.07C1162.73,-905.58 1175.29,-843.35 1179.95,-807.03"/>
<polygon fill="black" stroke="black" points="1183.43,-807.41 1181.09,-797.08 1176.47,-806.62 1183.43,-807.41"/>
<text text-anchor="middle" x="1164.11" y="-860.35" font-family="Times,serif" font-size="14.00">s</text>
</g>
<!-- room_291 -->
<g id="node22" class="node">
<title>room_291</title>
<ellipse fill="none" stroke="black" cx="1181.78" cy="-1112.41" rx="64.31" ry="18"/>
<text text-anchor="middle" x="1181.78" y="-1108.21" font-family="Times,serif" font-size="14.00">Room of Study</text>
</g>
<!-- room_278&#45;&gt;room_291 -->
<g id="edge25" class="edge">
<title>room_278&#45;&gt;room_291</title>
<path fill="none" stroke="black" d="M1145.35,-972.18C1148.78,-999.72 1160.37,-1052.11 1169.91,-1084.47"/>
<polygon fill="black" stroke="black" points="1166.63,-1085.7 1172.93,-1094.22 1173.32,-1083.64 1166.63,-1085.7"/>
<text text-anchor="middle" x="1154.13" y="-1031.13" font-family="Times,serif" font-size="14.00">n</text>
</g>
<!-- room_291&#45;&gt;room_278 -->
<g id="edge54" class="edge">
<title>room_291&#45;&gt;room_278</title>
<path fill="none" stroke="black" d="M1182.14,-1094.17C1178.71,-1066.63 1167.12,-1014.25 1157.58,-981.88"/>
<polygon fill="black" stroke="black" points="1160.86,-980.65 1154.56,-972.13 1154.17,-982.72 1160.86,-980.65"/>
<text text-anchor="middle" x="1167.13" y="-1040.83" font-family="Times,serif" font-size="14.00">s</text>
</g>
<!-- room_292 -->
<g id="node35" class="node">
<title>room_292</title>
<ellipse fill="none" stroke="black" cx="1224.19" cy="-1257.73" rx="86.49" ry="18"/>
<text text-anchor="middle" x="1224.19" y="-1253.53" font-family="Times,serif" font-size="14.00">Chamber of Splendor</text>
</g>
<!-- room_291&#45;&gt;room_292 -->
<g id="edge55" class="edge">
<title>room_291&#45;&gt;room_292</title>
<path fill="none" stroke="black" d="M1182.38,-1130.63C1186.99,-1155.6 1199.77,-1200.62 1210.26,-1229.84"/>
<polygon fill="black" stroke="black" points="1207.08,-1231.32 1213.86,-1239.46 1213.64,-1228.86 1207.08,-1231.32"/>
<text text-anchor="middle" x="1192.82" y="-1183.04" font-family="Times,serif" font-size="14.00">u</text>
</g>
<!-- room_290&#45;&gt;room_279 -->
<g id="edge53" class="edge">
<title>room_290&#45;&gt;room_279</title>
<path fill="none" stroke="black" d="M1238.93,-873.87C1230.91,-855.24 1215.07,-826.12 1201.77,-805.02"/>
<polygon fill="black" stroke="black" points="1204.64,-803.01 1196.26,-796.52 1198.77,-806.82 1204.64,-803.01"/>
<text text-anchor="middle" x="1216.85" y="-842.24" font-family="Times,serif" font-size="14.00">n</text>
</g>
<!-- room_298&#45;&gt;room_300 -->
<g id="edge68" class="edge">
<title>room_298&#45;&gt;room_300</title>
<path fill="none" stroke="black" d="M1072.07,-645.75C1092.23,-626.21 1121.07,-594.31 1139.07,-571.68"/>
<polygon fill="black" stroke="black" points="1142.05,-573.56 1145.4,-563.51 1136.51,-569.27 1142.05,-573.56"/>
<text text-anchor="middle" x="1102.85" y="-611.51" font-family="Times,serif" font-size="14.00">s</text>
</g>
<!-- room_298&#45;&gt;room_279 -->
<g id="edge70" class="edge">
<title>room_298&#45;&gt;room_279</title>
<path fill="none" stroke="black" d="M1062.68,-680.88C1082.12,-701.24 1118.76,-734.23 1146.05,-756.32"/>
<polygon fill="black" stroke="black" points="1144.19,-759.31 1154.19,-762.8 1148.55,-753.83 1144.19,-759.31"/>
<text text-anchor="middle" x="1099.31" y="-721.4" font-family="Times,serif" font-size="14.00">w</text>
</g>
<!-- room_298&#45;&gt;room_299 -->
<g id="edge69" class="edge">
<title>room_298&#45;&gt;room_299</title>
<path fill="none" stroke="black" d="M1029.64,-645.46C1006.74,-629.49 968.36,-606.14 937.84,-589.32"/>
<polygon fill="black" stroke="black" points="939.51,-586.24 929.06,-584.54 936.17,-592.39 939.51,-586.24"/>
<text text-anchor="middle" x="980.63" y="-620.19" font-family="Times,serif" font-size="14.00">e</text>
</g>
<!-- room_283&#45;&gt;room_282 -->
<g id="edge38" class="edge">
<title>room_283&#45;&gt;room_282</title>
<path fill="none" stroke="black" d="M595.7,-378.13C617.54,-393.75 654.01,-416.43 683.01,-432.71"/>
<polygon fill="black" stroke="black" points="681.69,-435.98 692.14,-437.75 685.08,-429.85 681.69,-435.98"/>
<text text-anchor="middle" x="636.63" y="-408.22" font-family="Times,serif" font-size="14.00">s</text>
</g>
<!-- room_306 -->
<g id="node28" class="node">
<title>room_306</title>
<ellipse fill="none" stroke="black" cx="520.91" cy="-177.81" rx="76.75" ry="18"/>
<text text-anchor="middle" x="520.91" y="-173.61" font-family="Times,serif" font-size="14.00">Anciatus Terminus</text>
</g>
<!-- room_283&#45;&gt;room_306 -->
<g id="edge37" class="edge">
<title>room_283&#45;&gt;room_306</title>
<path fill="none" stroke="black" d="M575.49,-342.73C568.97,-310.54 548.78,-243.19 534.59,-205.26"/>
<polygon fill="black" stroke="black" points="537.82,-203.91 530.95,-195.84 531.29,-206.43 537.82,-203.91"/>
<text text-anchor="middle" x="551.54" y="-276.8" font-family="Times,serif" font-size="14.00">n</text>
</g>
<!-- room_294 -->
<g id="node29" class="node">
<title>room_294</title>
<ellipse fill="none" stroke="black" cx="605.46" cy="-228.94" rx="73.85" ry="18"/>
<text text-anchor="middle" x="605.46" y="-224.74" font-family="Times,serif" font-size="14.00">Collapsed Temple</text>
</g>
<!-- room_283&#45;&gt;room_294 -->
<g id="edge39" class="edge">
<title>room_283&#45;&gt;room_294</title>
<path fill="none" stroke="black" d="M585.61,-342.97C592.69,-320.91 601.16,-283.12 605.02,-257.13"/>
<polygon fill="black" stroke="black" points="608.5,-257.5 606.33,-247.13 601.56,-256.59 608.5,-257.5"/>
<text text-anchor="middle" x="592.21" y="-302.85" font-family="Times,serif" font-size="14.00">e</text>
</g>
<!-- room_284 -->
<g id="node30" class="node">
<title>room_284</title>
<ellipse fill="none" stroke="black" cx="421.86" cy="-388.01" rx="79.23" ry="18"/>
<text text-anchor="middle" x="421.86" y="-383.81" font-family="Times,serif" font-size="14.00">Library of Ancients</text>
</g>
<!-- room_283&#45;&gt;room_284 -->
<g id="edge40" class="edge">
<title>room_283&#45;&gt;room_284</title>
<path fill="none" stroke="black" d="M511.23,-365.56C500.37,-367.32 489.2,-369.31 478.58,-371.4"/>
<polygon fill="black" stroke="black" points="477.71,-368 468.6,-373.42 479.1,-374.87 477.71,-368"/>
<text text-anchor="middle" x="489.85" y="-357.28" font-family="Times,serif" font-size="14.00">w</text>
</g>
<!-- room_293&#45;&gt;room_282 -->
<g id="edge58" class="edge">
<title>room_293&#45;&gt;room_282</title>
<path fill="none" stroke="black" d="M714.03,-332.2C713.27,-355.56 715.8,-396.44 719.5,-423.96"/>
<polygon fill="black" stroke="black" points="716.09,-424.78 721.03,-434.15 723.01,-423.74 716.09,-424.78"/>
<text text-anchor="middle" x="711.71" y="-380.88" font-family="Times,serif" font-size="14.00">w</text>
</g>
<!-- room_293&#45;&gt;room_294 -->
<g id="edge57" class="edge">
<title>room_293&#45;&gt;room_294</title>
<path fill="none" stroke="black" d="M702.59,-296.32C687.98,-283.18 665.21,-265.36 645.36,-251.28"/>
<polygon fill="black" stroke="black" points="647.28,-248.35 637.07,-245.5 643.27,-254.09 647.28,-248.35"/>
<text text-anchor="middle" x="670.47" y="-276.6" font-family="Times,serif" font-size="14.00">n</text>
</g>
<!-- room_299&#45;&gt;room_282 -->
<g id="edge72" class="edge">
<title>room_299&#45;&gt;room_282</title>
<path fill="none" stroke="black" d="M874.28,-550.99C848.96,-530.08 801.11,-495.75 766.81,-473.54"/>
<polygon fill="black" stroke="black" points="768.28,-470.32 757.97,-467.89 764.51,-476.22 768.28,-470.32"/>
<text text-anchor="middle" x="817.44" y="-515.06" font-family="Times,serif" font-size="14.00">e</text>
</g>
<!-- room_299&#45;&gt;room_302 -->
<g id="edge71" class="edge">
<title>room_299&#45;&gt;room_302</title>
<path fill="none" stroke="black" d="M916.05,-551.46C932.65,-536.29 954.03,-514.17 968.82,-496.88"/>
<polygon fill="black" stroke="black" points="971.81,-498.77 975.5,-488.84 966.42,-494.3 971.81,-498.77"/>
<text text-anchor="middle" x="939.71" y="-526.97" font-family="Times,serif" font-size="14.00">s</text>
</g>
<!-- room_299&#45;&gt;room_298 -->
<g id="edge73" class="edge">
<title>room_299&#45;&gt;room_298</title>
<path fill="none" stroke="black" d="M911.26,-586.24C934.31,-602.32 973.03,-625.86 1003.65,-642.71"/>
<polygon fill="black" stroke="black" points="1002,-645.8 1012.46,-647.49 1005.34,-639.65 1002,-645.8"/>
<text text-anchor="middle" x="952.4" y="-617.28" font-family="Times,serif" font-size="14.00">w</text>
</g>
<!-- room_306&#45;&gt;room_283 -->
<g id="edge83" class="edge">
<title>room_306&#45;&gt;room_283</title>
<path fill="none" stroke="black" d="M522.12,-195.9C528.64,-228.09 548.83,-295.44 563.01,-333.37"/>
<polygon fill="black" stroke="black" points="559.79,-334.72 566.66,-342.79 566.31,-332.2 559.79,-334.72"/>
<text text-anchor="middle" x="539.84" y="-267.43" font-family="Times,serif" font-size="14.00">s</text>
</g>
<!-- room_307 -->
<g id="node40" class="node">
<title>room_307</title>
<ellipse fill="none" stroke="black" cx="479.84" cy="-18" rx="67.64" ry="18"/>
<text text-anchor="middle" x="479.84" y="-13.8" font-family="Times,serif" font-size="14.00">Senatorial Curia</text>
</g>
<!-- room_306&#45;&gt;room_307 -->
<g id="edge84" class="edge">
<title>room_306&#45;&gt;room_307</title>
<path fill="none" stroke="black" d="M520.75,-159.62C516.51,-131.89 503.23,-78.88 492.63,-46.16"/>
<polygon fill="black" stroke="black" points="495.82,-44.66 489.3,-36.31 489.19,-46.9 495.82,-44.66"/>
<text text-anchor="middle" x="503.58" y="-105.69" font-family="Times,serif" font-size="14.00">e</text>
</g>
<!-- room_294&#45;&gt;room_283 -->
<g id="edge60" class="edge">
<title>room_294&#45;&gt;room_283</title>
<path fill="none" stroke="black" d="M596.46,-247.07C589.39,-269.2 580.96,-306.87 577.13,-332.76"/>
<polygon fill="black" stroke="black" points="573.65,-332.35 575.82,-342.72 580.59,-333.26 573.65,-332.35"/>
<text text-anchor="middle" x="581.74" y="-292.71" font-family="Times,serif" font-size="14.00">w</text>
</g>
<!-- room_294&#45;&gt;room_293 -->
<g id="edge59" class="edge">
<title>room_294&#45;&gt;room_293</title>
<path fill="none" stroke="black" d="M620.37,-246.69C635.17,-260.01 658.37,-278.15 678.41,-292.31"/>
<polygon fill="black" stroke="black" points="676.56,-295.29 686.77,-298.12 680.55,-289.54 676.56,-295.29"/>
<text text-anchor="middle" x="646.67" y="-272.3" font-family="Times,serif" font-size="14.00">s</text>
</g>
<!-- room_284&#45;&gt;room_283 -->
<g id="edge43" class="edge">
<title>room_284&#45;&gt;room_283</title>
<path fill="none" stroke="black" d="M496.37,-381.78C505.48,-380.21 514.64,-378.52 523.35,-376.77"/>
<polygon fill="black" stroke="black" points="524.25,-380.16 533.34,-374.71 522.83,-373.3 524.25,-380.16"/>
<text text-anchor="middle" x="506.75" y="-382.07" font-family="Times,serif" font-size="14.00">e</text>
</g>
<!-- room_309 -->
<g id="node31" class="node">
<title>room_309</title>
<ellipse fill="none" stroke="black" cx="249.17" cy="-394.27" rx="85.03" ry="18"/>
<text text-anchor="middle" x="249.17" y="-390.07" font-family="Times,serif" font-size="14.00">Chamber of Ancients</text>
</g>
<!-- room_284&#45;&gt;room_309 -->
<g id="edge41" class="edge">
<title>room_284&#45;&gt;room_309</title>
<path fill="none" stroke="black" d="M344.36,-384.1C340.34,-384.22 336.28,-384.36 332.24,-384.51"/>
<polygon fill="black" stroke="black" points="332.06,-381.02 322.22,-384.94 332.36,-388.01 332.06,-381.02"/>
<text text-anchor="middle" x="338.3" y="-373.11" font-family="Times,serif" font-size="14.00">n</text>
</g>
<!-- room_285 -->
<g id="node32" class="node">
<title>room_285</title>
<ellipse fill="none" stroke="black" cx="325.99" cy="-521.09" rx="52.2" ry="18"/>
<text text-anchor="middle" x="325.99" y="-516.89" font-family="Times,serif" font-size="14.00">South Wing</text>
</g>
<!-- room_284&#45;&gt;room_285 -->
<g id="edge42" class="edge">
<title>room_284&#45;&gt;room_285</title>
<path fill="none" stroke="black" d="M403.01,-405.57C383.94,-428.29 355.28,-467.91 338.71,-494.36"/>
<polygon fill="black" stroke="black" points="335.59,-492.75 333.38,-503.12 341.57,-496.39 335.59,-492.75"/>
<text text-anchor="middle" x="368.13" y="-452.77" font-family="Times,serif" font-size="14.00">s</text>
</g>
<!-- room_286 -->
<g id="node33" class="node">
<title>room_286</title>
<ellipse fill="none" stroke="black" cx="312.11" cy="-253.78" rx="63.75" ry="18"/>
<text text-anchor="middle" x="312.11" y="-249.58" font-family="Times,serif" font-size="14.00">Caved&#45;in Wing</text>
</g>
<!-- room_284&#45;&gt;room_286 -->
<g id="edge44" class="edge">
<title>room_284&#45;&gt;room_286</title>
<path fill="none" stroke="black" d="M412.94,-370.05C396.99,-346.44 363.68,-305.09 339.63,-278.55"/>
<polygon fill="black" stroke="black" points="342.16,-276.13 332.8,-271.16 337.01,-280.88 342.16,-276.13"/>
<text text-anchor="middle" x="371.23" y="-327.1" font-family="Times,serif" font-size="14.00">w</text>
</g>
<!-- room_309&#45;&gt;room_284 -->
<g id="edge87" class="edge">
<title>room_309&#45;&gt;room_284</title>
<path fill="none" stroke="black" d="M332.72,-398C336.18,-397.88 339.63,-397.75 343.07,-397.6"/>
<polygon fill="black" stroke="black" points="343.5,-401.09 353.32,-397.13 343.17,-394.09 343.5,-401.09"/>
<text text-anchor="middle" x="339.26" y="-386.6" font-family="Times,serif" font-size="14.00">s</text>
</g>
<!-- room_310 -->
<g id="node41" class="node">
<title>room_310</title>
<ellipse fill="none" stroke="black" cx="77.9" cy="-402.15" rx="77.8" ry="18"/>
<text text-anchor="middle" x="77.9" y="-397.95" font-family="Times,serif" font-size="14.00">Bowels of Monster</text>
</g>
<!-- room_309&#45;&gt;room_310 -->
<g id="edge86" class="edge">
<title>room_309&#45;&gt;room_310</title>
<path fill="none" stroke="black" d="M164.98,-391.39C161.31,-391.56 157.63,-391.74 153.98,-391.93"/>
<polygon fill="black" stroke="black" points="153.56,-388.45 143.78,-392.52 153.96,-395.44 153.56,-388.45"/>
<text text-anchor="middle" x="159.48" y="-380.46" font-family="Times,serif" font-size="14.00">n</text>
</g>
<!-- room_285&#45;&gt;room_284 -->
<g id="edge45" class="edge">
<title>room_285&#45;&gt;room_284</title>
<path fill="none" stroke="black" d="M344.38,-504.08C363.4,-481.52 392.27,-441.63 409,-414.97"/>
<polygon fill="black" stroke="black" points="412.16,-416.5 414.37,-406.14 406.19,-412.86 412.16,-416.5"/>
<text text-anchor="middle" x="380.19" y="-462.32" font-family="Times,serif" font-size="14.00">n</text>
</g>
<!-- room_286&#45;&gt;room_284 -->
<g id="edge46" class="edge">
<title>room_286&#45;&gt;room_284</title>
<path fill="none" stroke="black" d="M321.03,-271.75C336.89,-295.22 369.92,-336.24 393.93,-362.79"/>
<polygon fill="black" stroke="black" points="391.41,-365.22 400.76,-370.21 396.56,-360.48 391.41,-365.22"/>
<text text-anchor="middle" x="354.37" y="-320.07" font-family="Times,serif" font-size="14.00">e</text>
</g>
<!-- room_584&#45;&gt;room_287 -->
<g id="edge90" class="edge">
<title>room_584&#45;&gt;room_287</title>
<path fill="none" stroke="black" d="M1600.35,-507.85C1583.38,-496.84 1558.65,-482.74 1536.72,-471.39"/>
<polygon fill="black" stroke="black" points="1538.03,-468.13 1527.53,-466.71 1534.85,-474.37 1538.03,-468.13"/>
<text text-anchor="middle" x="1565.43" y="-492.42" font-family="Times,serif" font-size="14.00">e</text>
</g>
<!-- room_292&#45;&gt;room_291 -->
<g id="edge56" class="edge">
<title>room_292&#45;&gt;room_291</title>
<path fill="none" stroke="black" d="M1223.58,-1239.51C1218.95,-1214.41 1206.05,-1169.03 1195.53,-1139.82"/>
<polygon fill="black" stroke="black" points="1198.71,-1138.35 1191.92,-1130.23 1192.16,-1140.82 1198.71,-1138.35"/>
<text text-anchor="middle" x="1206.05" y="-1192.47" font-family="Times,serif" font-size="14.00">d</text>
</g>
<!-- room_296&#45;&gt;room_295 -->
<g id="edge63" class="edge">
<title>room_296&#45;&gt;room_295</title>
<path fill="none" stroke="black" d="M656.18,-746.29C675.29,-719.1 706.45,-666.63 722.77,-634.39"/>
<polygon fill="black" stroke="black" points="726.07,-635.61 727.33,-625.08 719.79,-632.53 726.07,-635.61"/>
<text text-anchor="middle" x="692.98" y="-693.14" font-family="Times,serif" font-size="14.00">n</text>
</g>
<!-- room_303 -->
<g id="node37" class="node">
<title>room_303</title>
<ellipse fill="none" stroke="black" cx="499.54" cy="-854.52" rx="70.07" ry="18"/>
<text text-anchor="middle" x="499.54" y="-850.32" font-family="Times,serif" font-size="14.00">District of Borba</text>
</g>
<!-- room_296&#45;&gt;room_303 -->
<g id="edge64" class="edge">
<title>room_296&#45;&gt;room_303</title>
<path fill="none" stroke="black" d="M607.14,-778.48C582.25,-792.76 548.74,-814.37 525.74,-830.99"/>
<polygon fill="black" stroke="black" points="523.44,-828.34 517.48,-837.09 527.6,-833.97 523.44,-828.34"/>
<text text-anchor="middle" x="563.71" y="-807.54" font-family="Times,serif" font-size="14.00">s</text>
</g>
<!-- room_297 -->
<g id="node38" class="node">
<title>room_297</title>
<ellipse fill="none" stroke="black" cx="609.69" cy="-929.11" rx="87.69" ry="18"/>
<text text-anchor="middle" x="609.69" y="-924.91" font-family="Times,serif" font-size="14.00">Moneylender&#39;s Abode</text>
</g>
<!-- room_296&#45;&gt;room_297 -->
<g id="edge65" class="edge">
<title>room_296&#45;&gt;room_297</title>
<path fill="none" stroke="black" d="M632.48,-781.92C624.33,-810.65 613.66,-866.82 609.69,-900.86"/>
<polygon fill="black" stroke="black" points="606.18,-900.77 608.64,-911.07 613.14,-901.48 606.18,-900.77"/>
<text text-anchor="middle" x="617.98" y="-844.19" font-family="Times,serif" font-size="14.00">e</text>
</g>
<!-- room_303&#45;&gt;room_296 -->
<g id="edge79" class="edge">
<title>room_303&#45;&gt;room_296</title>
<path fill="none" stroke="black" d="M534.63,-838.77C559.42,-824.44 592.06,-803.34 614.52,-787.09"/>
<polygon fill="black" stroke="black" points="616.63,-789.88 622.59,-781.12 612.47,-784.25 616.63,-789.88"/>
<text text-anchor="middle" x="571.07" y="-815.73" font-family="Times,serif" font-size="14.00">n</text>
</g>
<!-- room_304 -->
<g id="node39" class="node">
<title>room_304</title>
<ellipse fill="none" stroke="black" cx="472.86" cy="-1009.62" rx="70.07" ry="18"/>
<text text-anchor="middle" x="472.86" y="-1005.42" font-family="Times,serif" font-size="14.00">District of Borba</text>
</g>
<!-- room_303&#45;&gt;room_304 -->
<g id="edge80" class="edge">
<title>room_303&#45;&gt;room_304</title>
<path fill="none" stroke="black" d="M491.81,-872.45C484.53,-899.22 475.58,-949.86 472.33,-981.56"/>
<polygon fill="black" stroke="black" points="468.85,-981.26 471.46,-991.53 475.82,-981.87 468.85,-981.26"/>
<text text-anchor="middle" x="478.96" y="-929.81" font-family="Times,serif" font-size="14.00">e</text>
</g>
<!-- room_297&#45;&gt;room_296 -->
<g id="edge67" class="edge">
<title>room_297&#45;&gt;room_296</title>
<path fill="none" stroke="black" d="M617.63,-910.97C625.79,-882.23 636.46,-826.06 640.43,-792.02"/>
<polygon fill="black" stroke="black" points="643.94,-792.12 641.47,-781.81 636.97,-791.4 643.94,-792.12"/>
<text text-anchor="middle" x="634.09" y="-854.29" font-family="Times,serif" font-size="14.00">w</text>
</g>
<!-- room_297&#45;&gt;room_304 -->
<g id="edge66" class="edge">
<title>room_297&#45;&gt;room_304</title>
<path fill="none" stroke="black" d="M570.32,-945.27C548.14,-957.12 520.98,-973.21 500.95,-986.41"/>
<polygon fill="black" stroke="black" points="498.91,-983.57 492.57,-992.06 502.82,-989.38 498.91,-983.57"/>
<text text-anchor="middle" x="532.91" y="-968.64" font-family="Times,serif" font-size="14.00">s</text>
</g>
<!-- room_304&#45;&gt;room_303 -->
<g id="edge82" class="edge">
<title>room_304&#45;&gt;room_303</title>
<path fill="none" stroke="black" d="M480.6,-991.69C487.88,-964.92 496.82,-914.28 500.07,-882.58"/>
<polygon fill="black" stroke="black" points="503.56,-882.89 500.94,-872.62 496.58,-882.28 503.56,-882.89"/>
<text text-anchor="middle" x="495.39" y="-939.94" font-family="Times,serif" font-size="14.00">w</text>
</g>
<!-- room_304&#45;&gt;room_297 -->
<g id="edge81" class="edge">
<title>room_304&#45;&gt;room_297</title>
<path fill="none" stroke="black" d="M510.77,-994.25C533.12,-982.37 560.92,-965.94 581.37,-952.48"/>
<polygon fill="black" stroke="black" points="583.58,-955.21 589.92,-946.72 579.67,-949.4 583.58,-955.21"/>
<text text-anchor="middle" x="542.57" y="-976.16" font-family="Times,serif" font-size="14.00">n</text>
</g>
<!-- room_307&#45;&gt;room_306 -->
<g id="edge85" class="edge">
<title>room_307&#45;&gt;room_306</title>
<path fill="none" stroke="black" d="M480.01,-36.19C484.25,-63.91 497.52,-116.92 508.12,-149.64"/>
<polygon fill="black" stroke="black" points="504.93,-151.14 511.45,-159.5 511.56,-148.9 504.93,-151.14"/>
<text text-anchor="middle" x="489.01" y="-95.72" font-family="Times,serif" font-size="14.00">w</text>
</g>
<!-- room_310&#45;&gt;room_309 -->
<g id="edge88" class="edge">
<title>room_310&#45;&gt;room_309</title>
<path fill="none" stroke="black" d="M154.83,-405.34C159.14,-405.17 163.48,-404.98 167.8,-404.77"/>
<polygon fill="black" stroke="black" points="168.05,-408.26 177.85,-404.23 167.67,-401.27 168.05,-408.26"/>
<text text-anchor="middle" x="158.59" y="-407.85" font-family="Times,serif" font-size="14.00">s</text>
</g>
</g>
</svg>
