<?xml version="1.0" encoding="UTF-8" standalone="no"?>
<!DOCTYPE svg PUBLIC "-//W3C//DTD SVG 1.1//EN"
 "http://www.w3.org/Graphics/SVG/1.1/DTD/svg11.dtd">
<!-- Generated by graphviz version 2.42.3 (20191010.1750)
 -->
<!-- Title: monster Pages: 1 -->
<svg width="724pt" height="668pt"
 viewBox="0.00 0.00 723.70 668.25" xmlns="http://www.w3.org/2000/svg" xmlns:xlink="http://www.w3.org/1999/xlink">
<g id="graph0" class="graph" transform="scale(1 1) rotate(0) translate(4 664.25)">
<title>monster</title>
<polygon fill="white" stroke="transparent" points="-4,4 -4,-664.25 719.7,-664.25 719.7,4 -4,4"/>
<!-- room_437 -->
<g id="node1" class="node">
<title>room_437</title>
<ellipse fill="none" stroke="black" cx="203.39" cy="-196.2" rx="73.67" ry="18"/>
<text text-anchor="middle" x="203.39" y="-192" font-family="Times,serif" font-size="14.00">Tower of Demons</text>
</g>
<!-- room_486 -->
<g id="node2" class="node">
<title>room_486</title>
<ellipse fill="none" stroke="black" cx="41.78" cy="-321.58" rx="41.55" ry="18"/>
<text text-anchor="middle" x="41.78" y="-317.38" font-family="Times,serif" font-size="14.00">the maze</text>
</g>
<!-- room_437&#45;&gt;room_486 -->
<g id="edge1" class="edge">
<title>room_437&#45;&gt;room_486</title>
<path fill="none" stroke="black" d="M173.54,-212.82C142.04,-234.56 93.2,-272.47 64.63,-297.38"/>
<polygon fill="black" stroke="black" points="61.94,-295.08 56.79,-304.34 66.59,-300.31 61.94,-295.08"/>
<text text-anchor="middle" x="115.58" y="-257.9" font-family="Times,serif" font-size="14.00">u</text>
</g>
<!-- room_558 -->
<g id="node3" class="node">
<title>room_558</title>
<ellipse fill="none" stroke="black" cx="367.24" cy="-333.33" rx="50.29" ry="18"/>
<text text-anchor="middle" x="367.24" y="-329.13" font-family="Times,serif" font-size="14.00">monster pit</text>
</g>
<!-- room_437&#45;&gt;room_558 -->
<g id="edge2" class="edge">
<title>room_437&#45;&gt;room_558</title>
<path fill="none" stroke="black" d="M224.14,-213.56C253.44,-238.08 306.97,-282.89 339.61,-310.2"/>
<polygon fill="black" stroke="black" points="337.51,-313.01 347.43,-316.75 342.01,-307.64 337.51,-313.01"/>
<text text-anchor="middle" x="278.38" y="-264.68" font-family="Times,serif" font-size="14.00">d</text>
</g>
<!-- room_486&#45;&gt;room_437 -->
<g id="edge23" class="edge">
<title>room_486&#45;&gt;room_437</title>
<path fill="none" stroke="black" d="M67.94,-307.49C98.91,-286.46 149.9,-247.02 179.74,-221.1"/>
<polygon fill="black" stroke="black" points="182.39,-223.42 187.56,-214.17 177.75,-218.18 182.39,-223.42"/>
<text text-anchor="middle" x="127.34" y="-267.09" font-family="Times,serif" font-size="14.00">d</text>
</g>
<!-- room_486&#45;&gt;room_486 -->
<g id="edge21" class="edge">
<title>room_486&#45;&gt;room_486</title>
<path fill="none" stroke="black" d="M82.85,-324.92C93.51,-324.72 101.55,-323.6 101.55,-321.58 101.55,-320.29 98.25,-319.37 93.08,-318.82"/>
<polygon fill="black" stroke="black" points="93.03,-315.31 82.85,-318.24 92.63,-322.3 93.03,-315.31"/>
<text text-anchor="middle" x="104.66" y="-317.38" font-family="Times,serif" font-size="14.00">e</text>
</g>
<!-- room_486&#45;&gt;room_486 -->
<g id="edge22" class="edge">
<title>room_486&#45;&gt;room_486</title>
<path fill="none" stroke="black" d="M80.99,-328.1C101.27,-329.1 119.55,-326.93 119.55,-321.58 119.55,-317.16 107.02,-314.91 91.19,-314.84"/>
<polygon fill="black" stroke="black" points="90.91,-311.34 80.99,-315.07 91.07,-318.34 90.91,-311.34"/>
<text text-anchor="middle" x="124.61" y="-317.38" font-family="Times,serif" font-size="14.00">w</text>
</g>
<!-- room_485 -->
<g id="node6" class="node">
<title>room_485</title>
<ellipse fill="none" stroke="black" cx="73.79" cy="-514.8" rx="41.55" ry="18"/>
<text text-anchor="middle" x="73.79" y="-510.6" font-family="Times,serif" font-size="14.00">the maze</text>
</g>
<!-- room_486&#45;&gt;room_485 -->
<g id="edge20" class="edge">
<title>room_486&#45;&gt;room_485</title>
<path fill="none" stroke="black" d="M40.65,-339.74C42.99,-373.69 54.84,-446.98 64.19,-487.13"/>
<polygon fill="black" stroke="black" points="60.84,-488.17 66.62,-497.05 67.63,-486.5 60.84,-488.17"/>
<text text-anchor="middle" x="49.69" y="-416.23" font-family="Times,serif" font-size="14.00">s</text>
</g>
<!-- room_487 -->
<g id="node9" class="node">
<title>room_487</title>
<ellipse fill="none" stroke="black" cx="207.54" cy="-384.12" rx="41.55" ry="18"/>
<text text-anchor="middle" x="207.54" y="-379.92" font-family="Times,serif" font-size="14.00">the maze</text>
</g>
<!-- room_486&#45;&gt;room_487 -->
<g id="edge19" class="edge">
<title>room_486&#45;&gt;room_487</title>
<path fill="none" stroke="black" d="M59.16,-338.07C82.09,-351.33 123.24,-367.93 156.43,-377.98"/>
<polygon fill="black" stroke="black" points="155.86,-381.46 166.44,-380.87 157.81,-374.73 155.86,-381.46"/>
<text text-anchor="middle" x="104.29" y="-360.82" font-family="Times,serif" font-size="14.00">n</text>
</g>
<!-- room_558&#45;&gt;room_558 -->
<g id="edge82" class="edge">
<title>room_558&#45;&gt;room_558</title>
<path fill="none" stroke="black" d="M414.06,-340.01C426.22,-339.6 435.39,-337.38 435.39,-333.33 435.39,-330.55 431.06,-328.63 424.4,-327.57"/>
<polygon fill="black" stroke="black" points="424.33,-324.05 414.06,-326.65 423.71,-331.02 424.33,-324.05"/>
<text text-anchor="middle" x="438.89" y="-329.13" font-family="Times,serif" font-size="14.00">d</text>
</g>
<!-- room_469 -->
<g id="node4" class="node">
<title>room_469</title>
<ellipse fill="none" stroke="black" cx="264.93" cy="-582.95" rx="41.55" ry="18"/>
<text text-anchor="middle" x="264.93" y="-578.75" font-family="Times,serif" font-size="14.00">the maze</text>
</g>
<!-- room_469&#45;&gt;room_558 -->
<g id="edge8" class="edge">
<title>room_469&#45;&gt;room_558</title>
<path fill="none" stroke="black" d="M272.29,-565C289.94,-521.92 334.8,-412.48 355.92,-360.95"/>
<polygon fill="black" stroke="black" points="359.26,-362.04 359.82,-351.46 352.78,-359.38 359.26,-362.04"/>
<text text-anchor="middle" x="310.61" y="-465.77" font-family="Times,serif" font-size="14.00">d</text>
</g>
<!-- room_484 -->
<g id="node5" class="node">
<title>room_484</title>
<ellipse fill="none" stroke="black" cx="356.49" cy="-574.07" rx="41.55" ry="18"/>
<text text-anchor="middle" x="356.49" y="-569.87" font-family="Times,serif" font-size="14.00">the maze</text>
</g>
<!-- room_469&#45;&gt;room_484 -->
<g id="edge3" class="edge">
<title>room_469&#45;&gt;room_484</title>
<path fill="none" stroke="black" d="M287.38,-598.14C301.22,-600.38 318.94,-599.01 332.98,-594.76"/>
<polygon fill="black" stroke="black" points="334.34,-597.99 342.44,-591.17 331.85,-591.45 334.34,-597.99"/>
<text text-anchor="middle" x="313.68" y="-599.25" font-family="Times,serif" font-size="14.00">n</text>
</g>
<!-- room_469&#45;&gt;room_484 -->
<g id="edge4" class="edge">
<title>room_469&#45;&gt;room_484</title>
<path fill="none" stroke="black" d="M278.95,-565.86C290.87,-560.2 308.43,-557.29 323.83,-557.89"/>
<polygon fill="black" stroke="black" points="323.76,-561.4 334.05,-558.88 324.43,-554.44 323.76,-561.4"/>
<text text-anchor="middle" x="298.67" y="-550.68" font-family="Times,serif" font-size="14.00">s</text>
</g>
<!-- room_469&#45;&gt;room_485 -->
<g id="edge5" class="edge">
<title>room_469&#45;&gt;room_485</title>
<path fill="none" stroke="black" d="M239.19,-568.57C209.1,-555.62 158.7,-537.31 121.42,-525.56"/>
<polygon fill="black" stroke="black" points="122.35,-522.19 111.76,-522.58 120.28,-528.88 122.35,-522.19"/>
<text text-anchor="middle" x="177.2" y="-549.87" font-family="Times,serif" font-size="14.00">e</text>
</g>
<!-- room_488 -->
<g id="node7" class="node">
<title>room_488</title>
<ellipse fill="none" stroke="black" cx="216.54" cy="-466.01" rx="41.55" ry="18"/>
<text text-anchor="middle" x="216.54" y="-461.81" font-family="Times,serif" font-size="14.00">the maze</text>
</g>
<!-- room_469&#45;&gt;room_488 -->
<g id="edge6" class="edge">
<title>room_469&#45;&gt;room_488</title>
<path fill="none" stroke="black" d="M262.68,-564.84C256.94,-545.44 244.54,-514.53 233.86,-492.43"/>
<polygon fill="black" stroke="black" points="236.88,-490.63 229.26,-483.26 230.62,-493.77 236.88,-490.63"/>
<text text-anchor="middle" x="243.22" y="-531.43" font-family="Times,serif" font-size="14.00">w</text>
</g>
<!-- room_490 -->
<g id="node8" class="node">
<title>room_490</title>
<ellipse fill="none" stroke="black" cx="496.86" cy="-615.01" rx="41.55" ry="18"/>
<text text-anchor="middle" x="496.86" y="-610.81" font-family="Times,serif" font-size="14.00">the maze</text>
</g>
<!-- room_469&#45;&gt;room_490 -->
<g id="edge7" class="edge">
<title>room_469&#45;&gt;room_490</title>
<path fill="none" stroke="black" d="M304.8,-588.46C344.05,-593.88 404.11,-602.19 446.6,-608.06"/>
<polygon fill="black" stroke="black" points="446.35,-611.56 456.73,-609.46 447.31,-604.62 446.35,-611.56"/>
<text text-anchor="middle" x="372.2" y="-601.06" font-family="Times,serif" font-size="14.00">u</text>
</g>
<!-- room_484&#45;&gt;room_469 -->
<g id="edge9" class="edge">
<title>room_484&#45;&gt;room_469</title>
<path fill="none" stroke="black" d="M315.15,-571.34C313.37,-571.48 311.59,-571.64 309.81,-571.82"/>
<polygon fill="black" stroke="black" points="309.24,-568.36 299.69,-572.95 310.02,-575.31 309.24,-568.36"/>
<text text-anchor="middle" x="310.73" y="-560.38" font-family="Times,serif" font-size="14.00">n</text>
</g>
<!-- room_484&#45;&gt;room_469 -->
<g id="edge10" class="edge">
<title>room_484&#45;&gt;room_469</title>
<path fill="none" stroke="black" d="M321.73,-584.07C320,-584.29 318.26,-584.5 316.5,-584.69"/>
<polygon fill="black" stroke="black" points="315.99,-581.23 306.37,-585.68 316.67,-588.19 315.99,-581.23"/>
<text text-anchor="middle" x="321.84" y="-587.18" font-family="Times,serif" font-size="14.00">s</text>
</g>
<!-- room_484&#45;&gt;room_487 -->
<g id="edge11" class="edge">
<title>room_484&#45;&gt;room_487</title>
<path fill="none" stroke="black" d="M347.61,-556.46C325.13,-522.19 266.48,-446.85 232.54,-408.09"/>
<polygon fill="black" stroke="black" points="234.96,-405.54 225.7,-400.4 229.73,-410.2 234.96,-405.54"/>
<text text-anchor="middle" x="286.97" y="-485.07" font-family="Times,serif" font-size="14.00">e</text>
</g>
<!-- room_489 -->
<g id="node10" class="node">
<title>room_489</title>
<ellipse fill="none" stroke="black" cx="367.35" cy="-458.87" rx="41.55" ry="18"/>
<text text-anchor="middle" x="367.35" y="-454.67" font-family="Times,serif" font-size="14.00">the maze</text>
</g>
<!-- room_484&#45;&gt;room_489 -->
<g id="edge12" class="edge">
<title>room_484&#45;&gt;room_489</title>
<path fill="none" stroke="black" d="M363.28,-556.3C366.93,-537.91 369.93,-508.93 370.58,-487.35"/>
<polygon fill="black" stroke="black" points="374.08,-487.18 370.69,-477.14 367.08,-487.09 374.08,-487.18"/>
<text text-anchor="middle" x="361.87" y="-524.62" font-family="Times,serif" font-size="14.00">w</text>
</g>
<!-- room_491 -->
<g id="node11" class="node">
<title>room_491</title>
<ellipse fill="none" stroke="black" cx="490.52" cy="-400.82" rx="41.55" ry="18"/>
<text text-anchor="middle" x="490.52" y="-396.62" font-family="Times,serif" font-size="14.00">the maze</text>
</g>
<!-- room_484&#45;&gt;room_491 -->
<g id="edge13" class="edge">
<title>room_484&#45;&gt;room_491</title>
<path fill="none" stroke="black" d="M369.83,-556.83C393.62,-526.08 443.43,-461.69 471.04,-425.99"/>
<polygon fill="black" stroke="black" points="473.88,-428.05 477.23,-417.99 468.35,-423.76 473.88,-428.05"/>
<text text-anchor="middle" x="416.94" y="-494.21" font-family="Times,serif" font-size="14.00">u</text>
</g>
<!-- room_485&#45;&gt;room_486 -->
<g id="edge14" class="edge">
<title>room_485&#45;&gt;room_486</title>
<path fill="none" stroke="black" d="M74.92,-496.64C72.58,-462.69 60.73,-389.4 51.38,-349.25"/>
<polygon fill="black" stroke="black" points="54.73,-348.21 48.94,-339.33 47.93,-349.88 54.73,-348.21"/>
<text text-anchor="middle" x="59.65" y="-425.75" font-family="Times,serif" font-size="14.00">n</text>
</g>
<!-- room_485&#45;&gt;room_469 -->
<g id="edge17" class="edge">
<title>room_485&#45;&gt;room_469</title>
<path fill="none" stroke="black" d="M99.53,-529.18C129.63,-542.13 180.02,-560.44 217.3,-572.18"/>
<polygon fill="black" stroke="black" points="216.37,-575.56 226.96,-575.17 218.44,-568.87 216.37,-575.56"/>
<text text-anchor="middle" x="153.36" y="-553.48" font-family="Times,serif" font-size="14.00">w</text>
</g>
<!-- room_485&#45;&gt;room_488 -->
<g id="edge16" class="edge">
<title>room_485&#45;&gt;room_488</title>
<path fill="none" stroke="black" d="M115.58,-513.28C139.62,-507.32 169.07,-496.97 189.97,-486.99"/>
<polygon fill="black" stroke="black" points="191.59,-490.1 198.93,-482.45 188.43,-483.85 191.59,-490.1"/>
<text text-anchor="middle" x="149.67" y="-502.94" font-family="Times,serif" font-size="14.00">e</text>
</g>
<!-- room_485&#45;&gt;room_487 -->
<g id="edge15" class="edge">
<title>room_485&#45;&gt;room_487</title>
<path fill="none" stroke="black" d="M102.1,-501.37C130.9,-479.58 173.61,-437.69 195.06,-410.07"/>
<polygon fill="black" stroke="black" points="197.89,-412.13 201,-402 192.25,-407.98 197.89,-412.13"/>
<text text-anchor="middle" x="145.85" y="-458.52" font-family="Times,serif" font-size="14.00">s</text>
</g>
<!-- room_485&#45;&gt;room_487 -->
<g id="edge18" class="edge">
<title>room_485&#45;&gt;room_487</title>
<path fill="none" stroke="black" d="M80.39,-496.86C97.3,-472.24 139.64,-429.44 171.04,-403.98"/>
<polygon fill="black" stroke="black" points="173.47,-406.53 179.17,-397.6 169.15,-401.02 173.47,-406.53"/>
<text text-anchor="middle" x="122.21" y="-453.22" font-family="Times,serif" font-size="14.00">u</text>
</g>
<!-- room_488&#45;&gt;room_558 -->
<g id="edge35" class="edge">
<title>room_488&#45;&gt;room_558</title>
<path fill="none" stroke="black" d="M235.02,-449.74C261.43,-426.49 310.11,-383.63 340.47,-356.9"/>
<polygon fill="black" stroke="black" points="342.95,-359.39 348.14,-350.15 338.32,-354.13 342.95,-359.39"/>
<text text-anchor="middle" x="284.24" y="-406.12" font-family="Times,serif" font-size="14.00">d</text>
</g>
<!-- room_488&#45;&gt;room_469 -->
<g id="edge32" class="edge">
<title>room_488&#45;&gt;room_469</title>
<path fill="none" stroke="black" d="M218.79,-484.12C224.53,-503.52 236.94,-534.42 247.61,-556.53"/>
<polygon fill="black" stroke="black" points="244.6,-558.32 252.21,-565.69 250.85,-555.18 244.6,-558.32"/>
<text text-anchor="middle" x="230.09" y="-523.12" font-family="Times,serif" font-size="14.00">e</text>
</g>
<!-- room_488&#45;&gt;room_485 -->
<g id="edge33" class="edge">
<title>room_488&#45;&gt;room_485</title>
<path fill="none" stroke="black" d="M174.75,-467.52C150.71,-473.49 121.26,-483.84 100.36,-493.81"/>
<polygon fill="black" stroke="black" points="98.74,-490.71 91.4,-498.35 101.91,-496.95 98.74,-490.71"/>
<text text-anchor="middle" x="132.5" y="-483.47" font-family="Times,serif" font-size="14.00">w</text>
</g>
<!-- room_488&#45;&gt;room_485 -->
<g id="edge34" class="edge">
<title>room_488&#45;&gt;room_485</title>
<path fill="none" stroke="black" d="M183.79,-477.2C163.8,-484.03 138.04,-492.84 116.46,-500.21"/>
<polygon fill="black" stroke="black" points="115.21,-496.94 106.88,-503.49 117.48,-503.57 115.21,-496.94"/>
<text text-anchor="middle" x="146.63" y="-477.51" font-family="Times,serif" font-size="14.00">u</text>
</g>
<!-- room_488&#45;&gt;room_489 -->
<g id="edge30" class="edge">
<title>room_488&#45;&gt;room_489</title>
<path fill="none" stroke="black" d="M242.18,-480.31C268.27,-484.93 308.72,-483.47 336.54,-477.19"/>
<polygon fill="black" stroke="black" points="337.76,-480.49 346.53,-474.55 335.97,-473.72 337.76,-480.49"/>
<text text-anchor="middle" x="285.86" y="-467.55" font-family="Times,serif" font-size="14.00">n</text>
</g>
<!-- room_488&#45;&gt;room_489 -->
<g id="edge31" class="edge">
<title>room_488&#45;&gt;room_489</title>
<path fill="none" stroke="black" d="M237.45,-450.3C261.75,-442.79 302.22,-439.98 331.55,-443.14"/>
<polygon fill="black" stroke="black" points="331.4,-446.66 341.79,-444.58 332.38,-439.73 331.4,-446.66"/>
<text text-anchor="middle" x="281.78" y="-449.52" font-family="Times,serif" font-size="14.00">s</text>
</g>
<!-- room_490&#45;&gt;room_491 -->
<g id="edge42" class="edge">
<title>room_490&#45;&gt;room_491</title>
<path fill="none" stroke="black" d="M507.98,-597.5C517.46,-560.24 515.71,-472.88 505.49,-428.19"/>
<polygon fill="black" stroke="black" points="508.82,-427.09 502.87,-418.32 502.05,-428.88 508.82,-427.09"/>
<text text-anchor="middle" x="503.23" y="-515.65" font-family="Times,serif" font-size="14.00">n</text>
</g>
<!-- room_490&#45;&gt;room_491 -->
<g id="edge43" class="edge">
<title>room_490&#45;&gt;room_491</title>
<path fill="none" stroke="black" d="M484.5,-597.46C472.94,-560.17 469.64,-472.78 477.35,-428.13"/>
<polygon fill="black" stroke="black" points="480.79,-428.76 479.42,-418.26 473.94,-427.33 480.79,-428.76"/>
<text text-anchor="middle" x="478.2" y="-515.59" font-family="Times,serif" font-size="14.00">s</text>
</g>
<!-- room_493 -->
<g id="node13" class="node">
<title>room_493</title>
<ellipse fill="none" stroke="black" cx="673.93" cy="-624.24" rx="41.55" ry="18"/>
<text text-anchor="middle" x="673.93" y="-620.04" font-family="Times,serif" font-size="14.00">the maze</text>
</g>
<!-- room_490&#45;&gt;room_493 -->
<g id="edge44" class="edge">
<title>room_490&#45;&gt;room_493</title>
<path fill="none" stroke="black" d="M506.52,-632.6C534.03,-654.25 613.21,-660.25 652,-645.79"/>
<polygon fill="black" stroke="black" points="653.79,-648.82 661.37,-641.42 650.83,-642.47 653.79,-648.82"/>
<text text-anchor="middle" x="576.15" y="-641.99" font-family="Times,serif" font-size="14.00">e</text>
</g>
<!-- room_490&#45;&gt;room_493 -->
<g id="edge45" class="edge">
<title>room_490&#45;&gt;room_493</title>
<path fill="none" stroke="black" d="M509.69,-597.67C540.75,-579.67 619.96,-582.46 655.82,-601.27"/>
<polygon fill="black" stroke="black" points="654.02,-604.27 664.33,-606.7 657.78,-598.37 654.02,-604.27"/>
<text text-anchor="middle" x="577.7" y="-602.27" font-family="Times,serif" font-size="14.00">w</text>
</g>
<!-- room_490&#45;&gt;room_493 -->
<g id="edge46" class="edge">
<title>room_490&#45;&gt;room_493</title>
<path fill="none" stroke="black" d="M524.53,-601.4C556.35,-596.48 608.48,-598.83 641.99,-606.41"/>
<polygon fill="black" stroke="black" points="641.2,-609.82 651.75,-608.93 642.94,-603.04 641.2,-609.82"/>
<text text-anchor="middle" x="586.76" y="-606.7" font-family="Times,serif" font-size="14.00">u</text>
</g>
<!-- room_487&#45;&gt;room_486 -->
<g id="edge25" class="edge">
<title>room_487&#45;&gt;room_486</title>
<path fill="none" stroke="black" d="M190.16,-367.64C167.22,-354.38 126.07,-337.78 92.89,-327.73"/>
<polygon fill="black" stroke="black" points="93.45,-324.25 82.88,-324.83 91.51,-330.98 93.45,-324.25"/>
<text text-anchor="middle" x="138.8" y="-350.49" font-family="Times,serif" font-size="14.00">s</text>
</g>
<!-- room_487&#45;&gt;room_486 -->
<g id="edge28" class="edge">
<title>room_487&#45;&gt;room_486</title>
<path fill="none" stroke="black" d="M175.97,-372.21C149.47,-362.22 111.43,-347.86 82.62,-336.99"/>
<polygon fill="black" stroke="black" points="83.82,-333.7 73.23,-333.45 81.35,-340.25 83.82,-333.7"/>
<text text-anchor="middle" x="125.79" y="-357.4" font-family="Times,serif" font-size="14.00">u</text>
</g>
<!-- room_487&#45;&gt;room_558 -->
<g id="edge29" class="edge">
<title>room_487&#45;&gt;room_558</title>
<path fill="none" stroke="black" d="M241.41,-373.35C264.2,-366.1 294.58,-356.44 319.78,-348.43"/>
<polygon fill="black" stroke="black" points="321.04,-351.7 329.51,-345.33 318.92,-345.03 321.04,-351.7"/>
<text text-anchor="middle" x="277.1" y="-363.69" font-family="Times,serif" font-size="14.00">d</text>
</g>
<!-- room_487&#45;&gt;room_484 -->
<g id="edge27" class="edge">
<title>room_487&#45;&gt;room_484</title>
<path fill="none" stroke="black" d="M216.43,-401.74C238.91,-436.01 297.55,-511.34 331.49,-550.1"/>
<polygon fill="black" stroke="black" points="329.07,-552.65 338.34,-557.79 334.3,-548 329.07,-552.65"/>
<text text-anchor="middle" x="268.9" y="-478.72" font-family="Times,serif" font-size="14.00">w</text>
</g>
<!-- room_487&#45;&gt;room_485 -->
<g id="edge24" class="edge">
<title>room_487&#45;&gt;room_485</title>
<path fill="none" stroke="black" d="M190.6,-400.67C167.31,-423.43 125.26,-464.52 98.47,-490.69"/>
<polygon fill="black" stroke="black" points="95.72,-488.48 91.02,-497.97 100.61,-493.49 95.72,-488.48"/>
<text text-anchor="middle" x="141.04" y="-434.48" font-family="Times,serif" font-size="14.00">n</text>
</g>
<!-- room_487&#45;&gt;room_489 -->
<g id="edge26" class="edge">
<title>room_487&#45;&gt;room_489</title>
<path fill="none" stroke="black" d="M229.02,-399.64C252.95,-413 292.23,-431.76 322.85,-444.7"/>
<polygon fill="black" stroke="black" points="321.88,-448.09 332.45,-448.69 324.56,-441.62 321.88,-448.09"/>
<text text-anchor="middle" x="272.83" y="-424.97" font-family="Times,serif" font-size="14.00">e</text>
</g>
<!-- room_489&#45;&gt;room_558 -->
<g id="edge41" class="edge">
<title>room_489&#45;&gt;room_558</title>
<path fill="none" stroke="black" d="M367.34,-440.62C367.32,-419.88 367.29,-385.8 367.27,-361.62"/>
<polygon fill="black" stroke="black" points="370.77,-361.61 367.26,-351.61 363.77,-361.61 370.77,-361.61"/>
<text text-anchor="middle" x="363.8" y="-403.92" font-family="Times,serif" font-size="14.00">d</text>
</g>
<!-- room_489&#45;&gt;room_484 -->
<g id="edge38" class="edge">
<title>room_489&#45;&gt;room_484</title>
<path fill="none" stroke="black" d="M360.57,-476.65C356.92,-495.03 353.92,-524.01 353.27,-545.59"/>
<polygon fill="black" stroke="black" points="349.77,-545.77 353.15,-555.81 356.77,-545.85 349.77,-545.77"/>
<text text-anchor="middle" x="353.81" y="-513.92" font-family="Times,serif" font-size="14.00">e</text>
</g>
<!-- room_489&#45;&gt;room_488 -->
<g id="edge36" class="edge">
<title>room_489&#45;&gt;room_488</title>
<path fill="none" stroke="black" d="M326.65,-454.73C307.52,-454.82 284.57,-455.81 264.59,-457.38"/>
<polygon fill="black" stroke="black" points="264.11,-453.91 254.45,-458.25 264.71,-460.88 264.11,-453.91"/>
<text text-anchor="middle" x="292.12" y="-444.86" font-family="Times,serif" font-size="14.00">n</text>
</g>
<!-- room_489&#45;&gt;room_488 -->
<g id="edge37" class="edge">
<title>room_489&#45;&gt;room_488</title>
<path fill="none" stroke="black" d="M329.58,-466.62C310.73,-468.39 287.67,-469.63 267.31,-470.02"/>
<polygon fill="black" stroke="black" points="267.21,-466.52 257.25,-470.15 267.29,-473.52 267.21,-466.52"/>
<text text-anchor="middle" x="295.72" y="-471.12" font-family="Times,serif" font-size="14.00">s</text>
</g>
<!-- room_489&#45;&gt;room_487 -->
<g id="edge39" class="edge">
<title>room_489&#45;&gt;room_487</title>
<path fill="none" stroke="black" d="M345.87,-443.35C321.94,-430 282.66,-411.23 252.05,-398.29"/>
<polygon fill="black" stroke="black" points="253.02,-394.91 242.44,-394.31 250.34,-401.37 253.02,-394.91"/>
<text text-anchor="middle" x="293.9" y="-423.62" font-family="Times,serif" font-size="14.00">w</text>
</g>
<!-- room_494 -->
<g id="node12" class="node">
<title>room_494</title>
<ellipse fill="none" stroke="black" cx="589.57" cy="-509.78" rx="41.55" ry="18"/>
<text text-anchor="middle" x="589.57" y="-505.58" font-family="Times,serif" font-size="14.00">the maze</text>
</g>
<!-- room_489&#45;&gt;room_494 -->
<g id="edge40" class="edge">
<title>room_489&#45;&gt;room_494</title>
<path fill="none" stroke="black" d="M398.57,-471.08C434.87,-481.57 495.31,-495.69 538.48,-503.96"/>
<polygon fill="black" stroke="black" points="538.04,-507.44 548.51,-505.83 539.32,-500.56 538.04,-507.44"/>
<text text-anchor="middle" x="465.02" y="-490.32" font-family="Times,serif" font-size="14.00">u</text>
</g>
<!-- room_491&#45;&gt;room_558 -->
<g id="edge52" class="edge">
<title>room_491&#45;&gt;room_558</title>
<path fill="none" stroke="black" d="M464.68,-386.67C447,-377 423.32,-364.03 403.73,-353.3"/>
<polygon fill="black" stroke="black" points="405.22,-350.13 394.76,-348.4 401.86,-356.27 405.22,-350.13"/>
<text text-anchor="middle" x="430.7" y="-372.79" font-family="Times,serif" font-size="14.00">d</text>
</g>
<!-- room_491&#45;&gt;room_490 -->
<g id="edge47" class="edge">
<title>room_491&#45;&gt;room_490</title>
<path fill="none" stroke="black" d="M487.11,-418.83C484.76,-456.08 487.03,-541.87 491.25,-586.64"/>
<polygon fill="black" stroke="black" points="487.8,-587.25 492.34,-596.83 494.76,-586.51 487.8,-587.25"/>
<text text-anchor="middle" x="485.68" y="-505.53" font-family="Times,serif" font-size="14.00">n</text>
</g>
<!-- room_491&#45;&gt;room_490 -->
<g id="edge48" class="edge">
<title>room_491&#45;&gt;room_490</title>
<path fill="none" stroke="black" d="M495.04,-418.96C499.57,-456.34 502.36,-542.15 500.76,-586.82"/>
<polygon fill="black" stroke="black" points="497.26,-586.82 500.27,-596.98 504.25,-587.15 497.26,-586.82"/>
<text text-anchor="middle" x="495.18" y="-505.69" font-family="Times,serif" font-size="14.00">s</text>
</g>
<!-- room_491&#45;&gt;room_494 -->
<g id="edge49" class="edge">
<title>room_491&#45;&gt;room_494</title>
<path fill="none" stroke="black" d="M483.79,-418.79C484.62,-443.52 511.84,-480.13 539.74,-500.33"/>
<polygon fill="black" stroke="black" points="538.12,-503.45 548.39,-506.04 541.97,-497.61 538.12,-503.45"/>
<text text-anchor="middle" x="508.66" y="-462.36" font-family="Times,serif" font-size="14.00">e</text>
</g>
<!-- room_491&#45;&gt;room_494 -->
<g id="edge50" class="edge">
<title>room_491&#45;&gt;room_494</title>
<path fill="none" stroke="black" d="M531.73,-404.59C558.73,-420.64 587.61,-454.99 594.68,-481.59"/>
<polygon fill="black" stroke="black" points="591.26,-482.38 596.29,-491.71 598.18,-481.28 591.26,-482.38"/>
<text text-anchor="middle" x="558.15" y="-445.89" font-family="Times,serif" font-size="14.00">w</text>
</g>
<!-- room_491&#45;&gt;room_494 -->
<g id="edge51" class="edge">
<title>room_491&#45;&gt;room_494</title>
<path fill="none" stroke="black" d="M523.46,-412.11C545.98,-429.29 572.89,-459.67 585.31,-482.49"/>
<polygon fill="black" stroke="black" points="582.24,-484.21 589.69,-491.75 588.57,-481.21 582.24,-484.21"/>
<text text-anchor="middle" x="550.88" y="-436.1" font-family="Times,serif" font-size="14.00">u</text>
</g>
<!-- room_494&#45;&gt;room_489 -->
<g id="edge69" class="edge">
<title>room_494&#45;&gt;room_489</title>
<path fill="none" stroke="black" d="M558.36,-497.57C522.05,-487.08 461.61,-472.96 418.44,-464.69"/>
<polygon fill="black" stroke="black" points="418.88,-461.21 408.41,-462.82 417.6,-468.09 418.88,-461.21"/>
<text text-anchor="middle" x="484.9" y="-483.93" font-family="Times,serif" font-size="14.00">d</text>
</g>
<!-- room_494&#45;&gt;room_491 -->
<g id="edge66" class="edge">
<title>room_494&#45;&gt;room_491</title>
<path fill="none" stroke="black" d="M579.75,-491.86C565.65,-473.12 539.54,-443.86 519.14,-423.53"/>
<polygon fill="black" stroke="black" points="521.51,-420.96 511.91,-416.48 516.63,-425.97 521.51,-420.96"/>
<text text-anchor="middle" x="546.34" y="-460.5" font-family="Times,serif" font-size="14.00">e</text>
</g>
<!-- room_494&#45;&gt;room_491 -->
<g id="edge67" class="edge">
<title>room_494&#45;&gt;room_491</title>
<path fill="none" stroke="black" d="M567.93,-493.87C549.36,-476.17 523.19,-447.5 506.46,-426.6"/>
<polygon fill="black" stroke="black" points="509.03,-424.21 500.13,-418.46 503.5,-428.5 509.03,-424.21"/>
<text text-anchor="middle" x="532.14" y="-463.04" font-family="Times,serif" font-size="14.00">w</text>
</g>
<!-- room_494&#45;&gt;room_491 -->
<g id="edge68" class="edge">
<title>room_494&#45;&gt;room_491</title>
<path fill="none" stroke="black" d="M556.63,-498.49C534.11,-481.31 507.2,-450.92 494.78,-428.1"/>
<polygon fill="black" stroke="black" points="497.84,-426.39 490.4,-418.85 491.52,-429.38 497.84,-426.39"/>
<text text-anchor="middle" x="522.21" y="-466.1" font-family="Times,serif" font-size="14.00">u</text>
</g>
<!-- room_494&#45;&gt;room_493 -->
<g id="edge64" class="edge">
<title>room_494&#45;&gt;room_493</title>
<path fill="none" stroke="black" d="M591.89,-527.98C600.84,-548.23 623.21,-580.29 642.64,-601.95"/>
<polygon fill="black" stroke="black" points="640.24,-604.51 649.63,-609.42 645.35,-599.73 640.24,-604.51"/>
<text text-anchor="middle" x="613.77" y="-567.77" font-family="Times,serif" font-size="14.00">n</text>
</g>
<!-- room_494&#45;&gt;room_493 -->
<g id="edge65" class="edge">
<title>room_494&#45;&gt;room_493</title>
<path fill="none" stroke="black" d="M614.15,-524.89C632.25,-543.37 655.02,-574.32 667.12,-596.93"/>
<polygon fill="black" stroke="black" points="664.05,-598.62 671.61,-606.05 670.33,-595.53 664.05,-598.62"/>
<text text-anchor="middle" x="637.91" y="-563.71" font-family="Times,serif" font-size="14.00">s</text>
</g>
<!-- room_493&#45;&gt;room_490 -->
<g id="edge61" class="edge">
<title>room_493&#45;&gt;room_490</title>
<path fill="none" stroke="black" d="M635.8,-616.57C610.14,-613.99 576,-612.04 547.99,-611.49"/>
<polygon fill="black" stroke="black" points="548.02,-607.99 537.97,-611.35 547.92,-614.99 548.02,-607.99"/>
<text text-anchor="middle" x="595" y="-616.83" font-family="Times,serif" font-size="14.00">e</text>
</g>
<!-- room_493&#45;&gt;room_490 -->
<g id="edge62" class="edge">
<title>room_493&#45;&gt;room_490</title>
<path fill="none" stroke="black" d="M633,-627.89C606.78,-627.71 572.62,-626.03 545.08,-623.62"/>
<polygon fill="black" stroke="black" points="545.16,-620.12 534.88,-622.67 544.51,-627.09 545.16,-620.12"/>
<text text-anchor="middle" x="583.98" y="-628.56" font-family="Times,serif" font-size="14.00">w</text>
</g>
<!-- room_493&#45;&gt;room_490 -->
<g id="edge63" class="edge">
<title>room_493&#45;&gt;room_490</title>
<path fill="none" stroke="black" d="M646.25,-637.85C614.43,-642.76 562.3,-640.42 528.79,-632.84"/>
<polygon fill="black" stroke="black" points="529.59,-629.43 519.03,-630.32 527.84,-636.21 529.59,-629.43"/>
<text text-anchor="middle" x="591.02" y="-638.14" font-family="Times,serif" font-size="14.00">u</text>
</g>
<!-- room_493&#45;&gt;room_494 -->
<g id="edge59" class="edge">
<title>room_493&#45;&gt;room_494</title>
<path fill="none" stroke="black" d="M661.12,-606.86C647.04,-587.75 624.29,-556.89 608.23,-535.1"/>
<polygon fill="black" stroke="black" points="610.97,-532.92 602.22,-526.95 605.34,-537.08 610.97,-532.92"/>
<text text-anchor="middle" x="631.17" y="-573.78" font-family="Times,serif" font-size="14.00">n</text>
</g>
<!-- room_492 -->
<g id="node14" class="node">
<title>room_492</title>
<ellipse fill="none" stroke="black" cx="602.38" cy="-429.67" rx="41.55" ry="18"/>
<text text-anchor="middle" x="602.38" y="-425.47" font-family="Times,serif" font-size="14.00">the maze</text>
</g>
<!-- room_493&#45;&gt;room_492 -->
<g id="edge60" class="edge">
<title>room_493&#45;&gt;room_492</title>
<path fill="none" stroke="black" d="M671.47,-605.93C662.3,-571.39 635.12,-496.59 617.48,-456.42"/>
<polygon fill="black" stroke="black" points="620.64,-454.9 613.33,-447.23 614.26,-457.79 620.64,-454.9"/>
<text text-anchor="middle" x="641.75" y="-533.97" font-family="Times,serif" font-size="14.00">s</text>
</g>
<!-- room_492&#45;&gt;room_558 -->
<g id="edge58" class="edge">
<title>room_492&#45;&gt;room_558</title>
<path fill="none" stroke="black" d="M571.64,-417.07C530.39,-400.17 456.89,-370.06 410.19,-350.93"/>
<polygon fill="black" stroke="black" points="411.23,-347.57 400.65,-347.02 408.58,-354.05 411.23,-347.57"/>
<text text-anchor="middle" x="487.42" y="-372.8" font-family="Times,serif" font-size="14.00">d</text>
</g>
<!-- room_492&#45;&gt;room_490 -->
<g id="edge56" class="edge">
<title>room_492&#45;&gt;room_490</title>
<path fill="none" stroke="black" d="M592.27,-447.44C573.67,-480.1 533.97,-549.82 512.1,-588.24"/>
<polygon fill="black" stroke="black" points="508.85,-586.87 506.95,-597.29 514.94,-590.33 508.85,-586.87"/>
<text text-anchor="middle" x="547.13" y="-520.64" font-family="Times,serif" font-size="14.00">w</text>
</g>
<!-- room_492&#45;&gt;room_491 -->
<g id="edge57" class="edge">
<title>room_492&#45;&gt;room_491</title>
<path fill="none" stroke="black" d="M566.37,-420.38C556.79,-417.91 546.32,-415.21 536.29,-412.62"/>
<polygon fill="black" stroke="black" points="537.02,-409.2 526.46,-410.09 535.27,-415.97 537.02,-409.2"/>
<text text-anchor="middle" x="547.83" y="-419.3" font-family="Times,serif" font-size="14.00">u</text>
</g>
<!-- room_492&#45;&gt;room_494 -->
<g id="edge54" class="edge">
<title>room_492&#45;&gt;room_494</title>
<path fill="none" stroke="black" d="M599.48,-447.84C597.89,-457.78 595.88,-470.31 594.09,-481.49"/>
<polygon fill="black" stroke="black" points="590.59,-481.24 592.46,-491.67 597.5,-482.35 590.59,-481.24"/>
<text text-anchor="middle" x="594.06" y="-467.47" font-family="Times,serif" font-size="14.00">s</text>
</g>
<!-- room_492&#45;&gt;room_493 -->
<g id="edge53" class="edge">
<title>room_492&#45;&gt;room_493</title>
<path fill="none" stroke="black" d="M604.84,-447.98C614.02,-482.52 641.19,-557.32 658.83,-597.49"/>
<polygon fill="black" stroke="black" points="655.67,-599 662.98,-606.68 662.05,-596.12 655.67,-599"/>
<text text-anchor="middle" x="635.34" y="-525.53" font-family="Times,serif" font-size="14.00">n</text>
</g>
<!-- room_495 -->
<g id="node15" class="node">
<title>room_495</title>
<ellipse fill="none" stroke="black" cx="568.8" cy="-298.65" rx="41.55" ry="18"/>
<text text-anchor="middle" x="568.8" y="-294.45" font-family="Times,serif" font-size="14.00">the maze</text>
</g>
<!-- room_492&#45;&gt;room_495 -->
<g id="edge55" class="edge">
<title>room_492&#45;&gt;room_495</title>
<path fill="none" stroke="black" d="M607.21,-411.59C606.49,-389.23 597.52,-351.12 587.54,-325.4"/>
<polygon fill="black" stroke="black" points="590.63,-323.73 583.52,-315.87 584.18,-326.45 590.63,-323.73"/>
<text text-anchor="middle" x="594.27" y="-371.29" font-family="Times,serif" font-size="14.00">e</text>
</g>
<!-- room_495&#45;&gt;room_558 -->
<g id="edge75" class="edge">
<title>room_495&#45;&gt;room_558</title>
<path fill="none" stroke="black" d="M529.94,-305.33C499.56,-310.56 456.94,-317.9 422.93,-323.75"/>
<polygon fill="black" stroke="black" points="421.94,-320.37 412.68,-325.51 423.13,-327.27 421.94,-320.37"/>
<text text-anchor="middle" x="472.94" y="-317.34" font-family="Times,serif" font-size="14.00">d</text>
</g>
<!-- room_495&#45;&gt;room_491 -->
<g id="edge74" class="edge">
<title>room_495&#45;&gt;room_491</title>
<path fill="none" stroke="black" d="M555.52,-315.98C543.04,-332.27 524.2,-356.86 510.02,-375.37"/>
<polygon fill="black" stroke="black" points="507.17,-373.34 503.86,-383.4 512.72,-377.59 507.17,-373.34"/>
<text text-anchor="middle" x="529.27" y="-348.48" font-family="Times,serif" font-size="14.00">u</text>
</g>
<!-- room_495&#45;&gt;room_494 -->
<g id="edge71" class="edge">
<title>room_495&#45;&gt;room_494</title>
<path fill="none" stroke="black" d="M570.57,-316.65C574.19,-353.41 582.44,-437.34 586.78,-481.47"/>
<polygon fill="black" stroke="black" points="583.31,-481.91 587.77,-491.52 590.28,-481.23 583.31,-481.91"/>
<text text-anchor="middle" x="575.95" y="-387.86" font-family="Times,serif" font-size="14.00">s</text>
</g>
<!-- room_495&#45;&gt;room_492 -->
<g id="edge72" class="edge">
<title>room_495&#45;&gt;room_492</title>
<path fill="none" stroke="black" d="M563.97,-316.73C564.7,-339.08 573.66,-377.19 583.65,-402.92"/>
<polygon fill="black" stroke="black" points="580.55,-404.59 587.66,-412.44 587,-401.87 580.55,-404.59"/>
<text text-anchor="middle" x="570.7" y="-362.62" font-family="Times,serif" font-size="14.00">e</text>
</g>
<!-- room_495&#45;&gt;room_492 -->
<g id="edge73" class="edge">
<title>room_495&#45;&gt;room_492</title>
<path fill="none" stroke="black" d="M573.4,-316.59C579.02,-338.52 588.6,-375.87 595.19,-401.61"/>
<polygon fill="black" stroke="black" points="591.86,-402.7 597.73,-411.52 598.64,-400.96 591.86,-402.7"/>
<text text-anchor="middle" x="579.24" y="-361.9" font-family="Times,serif" font-size="14.00">w</text>
</g>
<!-- room_496 -->
<g id="node16" class="node">
<title>room_496</title>
<ellipse fill="none" stroke="black" cx="471.11" cy="-193.6" rx="41.55" ry="18"/>
<text text-anchor="middle" x="471.11" y="-189.4" font-family="Times,serif" font-size="14.00">the maze</text>
</g>
<!-- room_495&#45;&gt;room_496 -->
<g id="edge70" class="edge">
<title>room_495&#45;&gt;room_496</title>
<path fill="none" stroke="black" d="M564.18,-280.48C553.1,-261.77 528.25,-233.48 506.81,-214.08"/>
<polygon fill="black" stroke="black" points="508.94,-211.3 499.1,-207.37 504.34,-216.58 508.94,-211.3"/>
<text text-anchor="middle" x="531.99" y="-250.08" font-family="Times,serif" font-size="14.00">n</text>
</g>
<!-- room_496&#45;&gt;room_558 -->
<g id="edge80" class="edge">
<title>room_496&#45;&gt;room_558</title>
<path fill="none" stroke="black" d="M458.16,-211.01C440.13,-235.28 407.3,-279.44 386.42,-307.53"/>
<polygon fill="black" stroke="black" points="383.51,-305.58 380.35,-315.7 389.13,-309.76 383.51,-305.58"/>
<text text-anchor="middle" x="418.79" y="-262.07" font-family="Times,serif" font-size="14.00">d</text>
</g>
<!-- room_496&#45;&gt;room_491 -->
<g id="edge79" class="edge">
<title>room_496&#45;&gt;room_491</title>
<path fill="none" stroke="black" d="M472.8,-211.62C476.18,-247.75 483.82,-329.26 487.87,-372.55"/>
<polygon fill="black" stroke="black" points="484.4,-373.06 488.82,-382.69 491.37,-372.4 484.4,-373.06"/>
<text text-anchor="middle" x="476.83" y="-294.89" font-family="Times,serif" font-size="14.00">u</text>
</g>
<!-- room_496&#45;&gt;room_495 -->
<g id="edge76" class="edge">
<title>room_496&#45;&gt;room_495</title>
<path fill="none" stroke="black" d="M475.73,-211.77C486.81,-230.47 511.66,-258.76 533.1,-278.16"/>
<polygon fill="black" stroke="black" points="530.97,-280.95 540.81,-284.87 535.57,-275.66 530.97,-280.95"/>
<text text-anchor="middle" x="500.92" y="-247.76" font-family="Times,serif" font-size="14.00">n</text>
</g>
<!-- room_496&#45;&gt;room_495 -->
<g id="edge77" class="edge">
<title>room_496&#45;&gt;room_495</title>
<path fill="none" stroke="black" d="M486.8,-210.47C502.9,-227.78 528.08,-254.86 546.3,-274.45"/>
<polygon fill="black" stroke="black" points="543.77,-276.87 553.14,-281.81 548.9,-272.1 543.77,-276.87"/>
<text text-anchor="middle" x="513.83" y="-245.26" font-family="Times,serif" font-size="14.00">s</text>
</g>
<!-- room_497 -->
<g id="node17" class="node">
<title>room_497</title>
<ellipse fill="none" stroke="black" cx="547.62" cy="-18" rx="74.86" ry="18"/>
<text text-anchor="middle" x="547.62" y="-13.8" font-family="Times,serif" font-size="14.00">The treasure room</text>
</g>
<!-- room_496&#45;&gt;room_497 -->
<g id="edge78" class="edge">
<title>room_496&#45;&gt;room_497</title>
<path fill="none" stroke="black" d="M483.48,-176.23C499.98,-145.72 527.78,-82.37 540.93,-45.74"/>
<polygon fill="black" stroke="black" points="544.28,-46.76 544.23,-36.17 537.66,-44.48 544.28,-46.76"/>
<text text-anchor="middle" x="509.1" y="-113.79" font-family="Times,serif" font-size="14.00">e</text>
</g>
<!-- room_497&#45;&gt;room_496 -->
<g id="edge81" class="edge">
<title>room_497&#45;&gt;room_496</title>
<path fill="none" stroke="black" d="M534.9,-36.02C518.33,-66.84 490.74,-129.75 477.72,-166.09"/>
<polygon fill="black" stroke="black" points="474.39,-164.99 474.45,-175.58 481.01,-167.27 474.39,-164.99"/>
<text text-anchor="middle" x="501.26" y="-89.85" font-family="Times,serif" font-size="14.00">w</text>
</g>
</g>
</svg>
