<?xml version="1.0" encoding="UTF-8" standalone="no"?>
<!DOCTYPE svg PUBLIC "-//W3C//DTD SVG 1.1//EN"
 "http://www.w3.org/Graphics/SVG/1.1/DTD/svg11.dtd">
<!-- Generated by graphviz version 2.42.3 (20191010.1750)
 -->
<!-- Title: monster Pages: 1 -->
<svg width="754pt" height="714pt"
 viewBox="0.00 0.00 754.20 714.00" xmlns="http://www.w3.org/2000/svg" xmlns:xlink="http://www.w3.org/1999/xlink">
<g id="graph0" class="graph" transform="scale(1 1) rotate(0) translate(4 710)">
<title>monster</title>
<polygon fill="white" stroke="transparent" points="-4,4 -4,-710 750.2,-710 750.2,4 -4,4"/>
<!-- room_3 -->
<g id="node1" class="node">
<title>room_3</title>
<ellipse fill="none" stroke="black" cx="298.57" cy="-218" rx="45.93" ry="18"/>
<text text-anchor="middle" x="298.57" y="-213.8" font-family="Times,serif" font-size="14.00">Red street</text>
</g>
<!-- room_477 -->
<g id="node2" class="node">
<title>room_477</title>
<ellipse fill="none" stroke="black" cx="312.01" cy="-262" rx="72.01" ry="18"/>
<text text-anchor="middle" x="312.01" y="-257.8" font-family="Times,serif" font-size="14.00">Street of Ribbons</text>
</g>
<!-- room_3&#45;&gt;room_477 -->
<g id="edge1" class="edge">
<title>room_3&#45;&gt;room_477</title>
<path fill="none" stroke="black" d="M297.25,-236.04C297.27,-236.13 297.29,-236.21 297.31,-236.3"/>
<polygon fill="black" stroke="black" points="293.47,-235.58 299.56,-244.24 300.2,-233.67 293.47,-235.58"/>
<text text-anchor="middle" x="294.17" y="-238.97" font-family="Times,serif" font-size="14.00">e</text>
</g>
<!-- room_477&#45;&gt;room_3 -->
<g id="edge5" class="edge">
<title>room_477&#45;&gt;room_3</title>
<path fill="none" stroke="black" d="M313.33,-243.96C313.31,-243.87 313.29,-243.79 313.27,-243.7"/>
<polygon fill="black" stroke="black" points="317.03,-244.12 310.92,-235.46 310.29,-246.04 317.03,-244.12"/>
<text text-anchor="middle" x="318.35" y="-232.63" font-family="Times,serif" font-size="14.00">w</text>
</g>
<!-- room_480 -->
<g id="node14" class="node">
<title>room_480</title>
<ellipse fill="none" stroke="black" cx="315.82" cy="-307.82" rx="49.34" ry="18"/>
<text text-anchor="middle" x="315.82" y="-303.62" font-family="Times,serif" font-size="14.00">Gold Alley</text>
</g>
<!-- room_477&#45;&gt;room_480 -->
<g id="edge4" class="edge">
<title>room_477&#45;&gt;room_480</title>
<path fill="none" stroke="black" d="M306.91,-280.13C306.91,-280.23 306.91,-280.33 306.91,-280.44"/>
<polygon fill="black" stroke="black" points="303.39,-280.31 307.68,-290 310.37,-279.75 303.39,-280.31"/>
<text text-anchor="middle" x="304.19" y="-283.08" font-family="Times,serif" font-size="14.00">s</text>
</g>
<!-- room_12 -->
<g id="node3" class="node">
<title>room_12</title>
<ellipse fill="none" stroke="black" cx="55.97" cy="-688" rx="45.95" ry="18"/>
<text text-anchor="middle" x="55.97" y="-683.8" font-family="Times,serif" font-size="14.00">Pit of Fire</text>
</g>
<!-- room_22 -->
<g id="node4" class="node">
<title>room_22</title>
<ellipse fill="none" stroke="black" cx="681.94" cy="-258" rx="61.87" ry="18"/>
<text text-anchor="middle" x="681.94" y="-253.8" font-family="Times,serif" font-size="14.00">Endless Forest</text>
</g>
<!-- room_37 -->
<g id="node5" class="node">
<title>room_37</title>
<ellipse fill="none" stroke="black" cx="493.78" cy="-258" rx="83.56" ry="18"/>
<text text-anchor="middle" x="493.78" y="-253.8" font-family="Times,serif" font-size="14.00">Defeat and Dishonor</text>
</g>
<!-- room_37&#45;&gt;room_37 -->
<g id="edge2" class="edge">
<title>room_37&#45;&gt;room_37</title>
<path fill="none" stroke="black" d="M572.3,-264.33C586.01,-263.48 595.56,-261.38 595.56,-258 595.56,-255.55 590.52,-253.76 582.5,-252.65"/>
<polygon fill="black" stroke="black" points="582.59,-249.14 572.3,-251.67 581.92,-256.11 582.59,-249.14"/>
<text text-anchor="middle" x="599.06" y="-253.8" font-family="Times,serif" font-size="14.00">d</text>
</g>
<!-- room_38 -->
<g id="node6" class="node">
<title>room_38</title>
<ellipse fill="none" stroke="black" cx="566.9" cy="-138" rx="76.81" ry="18"/>
<text text-anchor="middle" x="566.9" y="-133.8" font-family="Times,serif" font-size="14.00">tomb of Darkmage</text>
</g>
<!-- room_74 -->
<g id="node7" class="node">
<title>room_74</title>
<ellipse fill="none" stroke="black" cx="502.32" cy="-318" rx="102.13" ry="18"/>
<text text-anchor="middle" x="502.32" y="-313.8" font-family="Times,serif" font-size="14.00">Temple of the Horned Rat</text>
</g>
<!-- room_87 -->
<g id="node8" class="node">
<title>room_87</title>
<ellipse fill="none" stroke="black" cx="683.09" cy="-318" rx="53.19" ry="18"/>
<text text-anchor="middle" x="683.09" y="-313.8" font-family="Times,serif" font-size="14.00">Crypt Foyer</text>
</g>
<!-- room_101 -->
<g id="node9" class="node">
<title>room_101</title>
<ellipse fill="none" stroke="black" cx="448.26" cy="-198" rx="78.02" ry="18"/>
<text text-anchor="middle" x="448.26" y="-193.8" font-family="Times,serif" font-size="14.00">Arkinor&#39;s Specialty</text>
</g>
<!-- room_148 -->
<g id="node10" class="node">
<title>room_148</title>
<ellipse fill="none" stroke="black" cx="170.28" cy="-328" rx="70.05" ry="18"/>
<text text-anchor="middle" x="170.28" y="-323.8" font-family="Times,serif" font-size="14.00">Druidic Meadow</text>
</g>
<!-- room_258 -->
<g id="node11" class="node">
<title>room_258</title>
<ellipse fill="none" stroke="black" cx="401.94" cy="-568" rx="61.87" ry="18"/>
<text text-anchor="middle" x="401.94" y="-563.8" font-family="Times,serif" font-size="14.00">Endless Forest</text>
</g>
<!-- room_258&#45;&gt;room_258 -->
<g id="edge3" class="edge">
<title>room_258&#45;&gt;room_258</title>
<path fill="none" stroke="black" d="M459.78,-574.57C472.56,-573.95 481.87,-571.76 481.87,-568 481.87,-565.36 477.27,-563.49 470.09,-562.4"/>
<polygon fill="black" stroke="black" points="470.06,-558.88 459.78,-561.43 469.41,-565.85 470.06,-558.88"/>
<text text-anchor="middle" x="484.98" y="-563.8" font-family="Times,serif" font-size="14.00">e</text>
</g>
<!-- room_263 -->
<g id="node12" class="node">
<title>room_263</title>
<ellipse fill="none" stroke="black" cx="524.6" cy="-478" rx="84.71" ry="18"/>
<text text-anchor="middle" x="524.6" y="-473.8" font-family="Times,serif" font-size="14.00">Horned Rat&#39;s Temple</text>
</g>
<!-- room_465 -->
<g id="node13" class="node">
<title>room_465</title>
<ellipse fill="none" stroke="black" cx="393.35" cy="-138" rx="73.19" ry="18"/>
<text text-anchor="middle" x="393.35" y="-133.8" font-family="Times,serif" font-size="14.00">Vafthrudnir&#39;s Hall</text>
</g>
<!-- room_480&#45;&gt;room_477 -->
<g id="edge6" class="edge">
<title>room_480&#45;&gt;room_477</title>
<path fill="none" stroke="black" d="M320.92,-289.69C320.92,-289.59 320.91,-289.49 320.91,-289.4"/>
<polygon fill="black" stroke="black" points="324.46,-289.82 320.18,-280.13 317.48,-290.37 324.46,-289.82"/>
<text text-anchor="middle" x="317.41" y="-278.34" font-family="Times,serif" font-size="14.00">n</text>
</g>
<!-- room_481 -->
<g id="node15" class="node">
<title>room_481</title>
<ellipse fill="none" stroke="black" cx="315.93" cy="-353.74" rx="58.01" ry="18"/>
<text text-anchor="middle" x="315.93" y="-349.54" font-family="Times,serif" font-size="14.00">Shining court</text>
</g>
<!-- room_480&#45;&gt;room_481 -->
<g id="edge7" class="edge">
<title>room_480&#45;&gt;room_481</title>
<path fill="none" stroke="black" d="M309.26,-325.72C309.25,-325.82 309.25,-325.93 309.24,-326.03"/>
<polygon fill="black" stroke="black" points="305.74,-325.86 309.28,-335.84 312.74,-325.83 305.74,-325.86"/>
<text text-anchor="middle" x="306.14" y="-328.68" font-family="Times,serif" font-size="14.00">e</text>
</g>
<!-- room_481&#45;&gt;room_480 -->
<g id="edge9" class="edge">
<title>room_481&#45;&gt;room_480</title>
<path fill="none" stroke="black" d="M322.49,-335.84C322.49,-335.73 322.5,-335.63 322.5,-335.52"/>
<polygon fill="black" stroke="black" points="326.01,-335.7 322.46,-325.71 319.01,-335.73 326.01,-335.7"/>
<text text-anchor="middle" x="317.44" y="-324.48" font-family="Times,serif" font-size="14.00">w</text>
</g>
<!-- room_482 -->
<g id="node16" class="node">
<title>room_482</title>
<ellipse fill="none" stroke="black" cx="314.14" cy="-399.66" rx="41.1" ry="18"/>
<text text-anchor="middle" x="314.14" y="-395.46" font-family="Times,serif" font-size="14.00">The Rim</text>
</g>
<!-- room_481&#45;&gt;room_482 -->
<g id="edge8" class="edge">
<title>room_481&#45;&gt;room_482</title>
<path fill="none" stroke="black" d="M308.61,-371.63C308.6,-371.73 308.59,-371.84 308.58,-371.94"/>
<polygon fill="black" stroke="black" points="305.09,-371.57 308.25,-381.69 312.09,-371.81 305.09,-371.57"/>
<text text-anchor="middle" x="305.49" y="-374.59" font-family="Times,serif" font-size="14.00">e</text>
</g>
<!-- room_482&#45;&gt;room_481 -->
<g id="edge11" class="edge">
<title>room_482&#45;&gt;room_481</title>
<path fill="none" stroke="black" d="M321.46,-381.77C321.47,-381.67 321.48,-381.56 321.49,-381.46"/>
<polygon fill="black" stroke="black" points="324.98,-381.83 321.83,-371.71 317.98,-381.59 324.98,-381.83"/>
<text text-anchor="middle" x="316.42" y="-370.41" font-family="Times,serif" font-size="14.00">w</text>
</g>
<!-- room_483 -->
<g id="node17" class="node">
<title>room_483</title>
<ellipse fill="none" stroke="black" cx="302.34" cy="-444.13" rx="42.55" ry="18"/>
<text text-anchor="middle" x="302.34" y="-439.93" font-family="Times,serif" font-size="14.00">Sun Gate</text>
</g>
<!-- room_482&#45;&gt;room_483 -->
<g id="edge10" class="edge">
<title>room_482&#45;&gt;room_483</title>
<path fill="none" stroke="black" d="M302.6,-417.06C302.57,-417.16 302.55,-417.25 302.52,-417.34"/>
<polygon fill="black" stroke="black" points="299.34,-415.61 300.36,-426.15 306.14,-417.27 299.34,-415.61"/>
<text text-anchor="middle" x="299.45" y="-420" font-family="Times,serif" font-size="14.00">e</text>
</g>
<!-- room_483&#45;&gt;room_482 -->
<g id="edge12" class="edge">
<title>room_483&#45;&gt;room_482</title>
<path fill="none" stroke="black" d="M313.88,-426.73C313.91,-426.64 313.94,-426.54 313.97,-426.45"/>
<polygon fill="black" stroke="black" points="317.14,-428.19 316.13,-417.64 310.35,-426.52 317.14,-428.19"/>
<text text-anchor="middle" x="316.45" y="-415.39" font-family="Times,serif" font-size="14.00">w</text>
</g>
<!-- room_565 -->
<g id="node18" class="node">
<title>room_565</title>
<ellipse fill="none" stroke="black" cx="333.29" cy="-508" rx="83.08" ry="18"/>
<text text-anchor="middle" x="333.29" y="-503.8" font-family="Times,serif" font-size="14.00">Red Granite Passage</text>
</g>
<!-- room_566 -->
<g id="node19" class="node">
<title>room_566</title>
<ellipse fill="none" stroke="black" cx="577.39" cy="-538" rx="77.28" ry="18"/>
<text text-anchor="middle" x="577.39" y="-533.8" font-family="Times,serif" font-size="14.00">Upper Bronze Hall</text>
</g>
<!-- room_567 -->
<g id="node20" class="node">
<title>room_567</title>
<ellipse fill="none" stroke="black" cx="458.37" cy="-421.63" rx="78.24" ry="18"/>
<text text-anchor="middle" x="458.37" y="-417.43" font-family="Times,serif" font-size="14.00">Lower Bronze Hall</text>
</g>
<!-- room_568 -->
<g id="node21" class="node">
<title>room_568</title>
<ellipse fill="none" stroke="black" cx="616.51" cy="-398" rx="71.5" ry="18"/>
<text text-anchor="middle" x="616.51" y="-393.8" font-family="Times,serif" font-size="14.00">Draconis Maioris</text>
</g>
<!-- room_568&#45;&gt;room_567 -->
<g id="edge13" class="edge">
<title>room_568&#45;&gt;room_567</title>
<path fill="none" stroke="black" d="M554.46,-407.27C547.78,-408.27 540.92,-409.29 534.1,-410.31"/>
<polygon fill="black" stroke="black" points="533.52,-406.86 524.15,-411.8 534.56,-413.78 533.52,-406.86"/>
<text text-anchor="middle" x="540.78" y="-411.59" font-family="Times,serif" font-size="14.00">n</text>
</g>
<!-- room_574 -->
<g id="node22" class="node">
<title>room_574</title>
<ellipse fill="none" stroke="black" cx="546.35" cy="-78" rx="66.2" ry="18"/>
<text text-anchor="middle" x="546.35" y="-73.8" font-family="Times,serif" font-size="14.00">Symbala Coatal</text>
</g>
<!-- room_575 -->
<g id="node23" class="node">
<title>room_575</title>
<ellipse fill="none" stroke="black" cx="168.56" cy="-388" rx="68.62" ry="18"/>
<text text-anchor="middle" x="168.56" y="-383.8" font-family="Times,serif" font-size="14.00">Lost Drow Cave</text>
</g>
<!-- room_580 -->
<g id="node24" class="node">
<title>room_580</title>
<ellipse fill="none" stroke="black" cx="685.39" cy="-458" rx="55.27" ry="18"/>
<text text-anchor="middle" x="685.39" y="-453.8" font-family="Times,serif" font-size="14.00">Frozen Vault</text>
</g>
<!-- room_581 -->
<g id="node25" class="node">
<title>room_581</title>
<ellipse fill="none" stroke="black" cx="693.1" cy="-38" rx="53.2" ry="18"/>
<text text-anchor="middle" x="693.1" y="-33.8" font-family="Times,serif" font-size="14.00">Stone Prism</text>
</g>
<!-- room_592 -->
<g id="node26" class="node">
<title>room_592</title>
<ellipse fill="none" stroke="black" cx="48.66" cy="-208" rx="48.83" ry="18"/>
<text text-anchor="middle" x="48.66" y="-203.8" font-family="Times,serif" font-size="14.00">lower west</text>
</g>
<!-- room_593 -->
<g id="node27" class="node">
<title>room_593</title>
<ellipse fill="none" stroke="black" cx="160.28" cy="-508" rx="70.05" ry="18"/>
<text text-anchor="middle" x="160.28" y="-503.8" font-family="Times,serif" font-size="14.00">lower north&#45;west</text>
</g>
<!-- room_594 -->
<g id="node28" class="node">
<title>room_594</title>
<ellipse fill="none" stroke="black" cx="541.12" cy="-688" rx="51.24" ry="18"/>
<text text-anchor="middle" x="541.12" y="-683.8" font-family="Times,serif" font-size="14.00">lower north</text>
</g>
<!-- room_595 -->
<g id="node29" class="node">
<title>room_595</title>
<ellipse fill="none" stroke="black" cx="627.81" cy="-598" rx="67.63" ry="18"/>
<text text-anchor="middle" x="627.81" y="-593.8" font-family="Times,serif" font-size="14.00">lower north&#45;east</text>
</g>
<!-- room_596 -->
<g id="node30" class="node">
<title>room_596</title>
<ellipse fill="none" stroke="black" cx="366.2" cy="-18" rx="46.4" ry="18"/>
<text text-anchor="middle" x="366.2" y="-13.8" font-family="Times,serif" font-size="14.00">lower east</text>
</g>
<!-- room_597 -->
<g id="node31" class="node">
<title>room_597</title>
<ellipse fill="none" stroke="black" cx="148.31" cy="-268" rx="68.12" ry="18"/>
<text text-anchor="middle" x="148.31" y="-263.8" font-family="Times,serif" font-size="14.00">lower south&#45;east</text>
</g>
<!-- room_598 -->
<g id="node32" class="node">
<title>room_598</title>
<ellipse fill="none" stroke="black" cx="411.62" cy="-688" rx="51.73" ry="18"/>
<text text-anchor="middle" x="411.62" y="-683.8" font-family="Times,serif" font-size="14.00">lower south</text>
</g>
<!-- room_599 -->
<g id="node33" class="node">
<title>room_599</title>
<ellipse fill="none" stroke="black" cx="130.77" cy="-98" rx="70.54" ry="18"/>
<text text-anchor="middle" x="130.77" y="-93.8" font-family="Times,serif" font-size="14.00">lower south&#45;west</text>
</g>
<!-- room_600 -->
<g id="node34" class="node">
<title>room_600</title>
<ellipse fill="none" stroke="black" cx="165.2" cy="-448" rx="75.4" ry="18"/>
<text text-anchor="middle" x="165.2" y="-443.8" font-family="Times,serif" font-size="14.00">middle south&#45;west</text>
</g>
<!-- room_601 -->
<g id="node35" class="node">
<title>room_601</title>
<ellipse fill="none" stroke="black" cx="470.77" cy="-628" rx="70.54" ry="18"/>
<text text-anchor="middle" x="470.77" y="-623.8" font-family="Times,serif" font-size="14.00">upper south&#45;west</text>
</g>
<!-- room_602 -->
<g id="node36" class="node">
<title>room_602</title>
<ellipse fill="none" stroke="black" cx="242.74" cy="-568" rx="72.97" ry="18"/>
<text text-anchor="middle" x="242.74" y="-563.8" font-family="Times,serif" font-size="14.00">middle south&#45;east</text>
</g>
<!-- room_603 -->
<g id="node37" class="node">
<title>room_603</title>
<ellipse fill="none" stroke="black" cx="308.31" cy="-628" rx="68.12" ry="18"/>
<text text-anchor="middle" x="308.31" y="-623.8" font-family="Times,serif" font-size="14.00">upper south&#45;east</text>
</g>
<!-- room_604 -->
<g id="node38" class="node">
<title>room_604</title>
<ellipse fill="none" stroke="black" cx="622.24" cy="-198" rx="72.48" ry="18"/>
<text text-anchor="middle" x="622.24" y="-193.8" font-family="Times,serif" font-size="14.00">middle north&#45;east</text>
</g>
<!-- room_605 -->
<g id="node39" class="node">
<title>room_605</title>
<ellipse fill="none" stroke="black" cx="147.81" cy="-628" rx="67.63" ry="18"/>
<text text-anchor="middle" x="147.81" y="-623.8" font-family="Times,serif" font-size="14.00">upper north&#45;east</text>
</g>
<!-- room_606 -->
<g id="node40" class="node">
<title>room_606</title>
<ellipse fill="none" stroke="black" cx="194.7" cy="-158" rx="74.9" ry="18"/>
<text text-anchor="middle" x="194.7" y="-153.8" font-family="Times,serif" font-size="14.00">middle north&#45;west</text>
</g>
<!-- room_607 -->
<g id="node41" class="node">
<title>room_607</title>
<ellipse fill="none" stroke="black" cx="390.28" cy="-78" rx="70.05" ry="18"/>
<text text-anchor="middle" x="390.28" y="-73.8" font-family="Times,serif" font-size="14.00">upper north&#45;west</text>
</g>
<!-- room_608 -->
<g id="node42" class="node">
<title>room_608</title>
<ellipse fill="none" stroke="black" cx="51.12" cy="-38" rx="51.24" ry="18"/>
<text text-anchor="middle" x="51.12" y="-33.8" font-family="Times,serif" font-size="14.00">upper north</text>
</g>
<!-- room_609 -->
<g id="node43" class="node">
<title>room_609</title>
<ellipse fill="none" stroke="black" cx="166.2" cy="-688" rx="46.4" ry="18"/>
<text text-anchor="middle" x="166.2" y="-683.8" font-family="Times,serif" font-size="14.00">upper east</text>
</g>
<!-- room_610 -->
<g id="node44" class="node">
<title>room_610</title>
<ellipse fill="none" stroke="black" cx="181.62" cy="-38" rx="51.73" ry="18"/>
<text text-anchor="middle" x="181.62" y="-33.8" font-family="Times,serif" font-size="14.00">upper south</text>
</g>
<!-- room_611 -->
<g id="node45" class="node">
<title>room_611</title>
<ellipse fill="none" stroke="black" cx="288.66" cy="-688" rx="48.83" ry="18"/>
<text text-anchor="middle" x="288.66" y="-683.8" font-family="Times,serif" font-size="14.00">upper west</text>
</g>
<!-- room_648 -->
<g id="node46" class="node">
<title>room_648</title>
<ellipse fill="none" stroke="black" cx="248.77" cy="-98" rx="28.55" ry="18"/>
<text text-anchor="middle" x="248.77" y="-93.8" font-family="Times,serif" font-size="14.00">Vault</text>
</g>
<!-- room_712 -->
<g id="node47" class="node">
<title>room_712</title>
<ellipse fill="none" stroke="black" cx="90.47" cy="-568" rx="60.45" ry="18"/>
<text text-anchor="middle" x="90.47" y="-563.8" font-family="Times,serif" font-size="14.00">Bottom Room</text>
</g>
<!-- room_752 -->
<g id="node48" class="node">
<title>room_752</title>
<ellipse fill="none" stroke="black" cx="672.6" cy="-658" rx="52.69" ry="18"/>
<text text-anchor="middle" x="672.6" y="-653.8" font-family="Times,serif" font-size="14.00">Sanity ward</text>
</g>
</g>
</svg>
