<?xml version="1.0" encoding="UTF-8" standalone="no"?>
<!DOCTYPE svg PUBLIC "-//W3C//DTD SVG 1.1//EN"
 "http://www.w3.org/Graphics/SVG/1.1/DTD/svg11.dtd">
<!-- Generated by graphviz version 2.42.3 (20191010.1750)
 -->
<!-- Title: monster Pages: 1 -->
<svg width="282pt" height="351pt"
 viewBox="0.00 0.00 282.47 350.94" xmlns="http://www.w3.org/2000/svg" xmlns:xlink="http://www.w3.org/1999/xlink">
<g id="graph0" class="graph" transform="scale(1 1) rotate(0) translate(4 346.94)">
<title>monster</title>
<polygon fill="white" stroke="transparent" points="-4,4 -4,-346.94 278.47,-346.94 278.47,4 -4,4"/>
<!-- room_559 -->
<g id="node1" class="node">
<title>room_559</title>
<ellipse fill="none" stroke="black" cx="156.97" cy="-98.22" rx="69.61" ry="18"/>
<text text-anchor="middle" x="156.97" y="-94.02" font-family="Times,serif" font-size="14.00">Path of Shadows</text>
</g>
<!-- room_560 -->
<g id="node2" class="node">
<title>room_560</title>
<ellipse fill="none" stroke="black" cx="176.71" cy="-18" rx="52.22" ry="18"/>
<text text-anchor="middle" x="176.71" y="-13.8" font-family="Times,serif" font-size="14.00">Stone Cairn</text>
</g>
<!-- room_559&#45;&gt;room_560 -->
<g id="edge1" class="edge">
<title>room_559&#45;&gt;room_560</title>
<path fill="none" stroke="black" d="M167.46,-80.21C170.92,-70.14 174.23,-57.38 176.4,-46.04"/>
<polygon fill="black" stroke="black" points="179.85,-46.57 178.03,-36.14 172.95,-45.43 179.85,-46.57"/>
<text text-anchor="middle" x="168.43" y="-65.92" font-family="Times,serif" font-size="14.00">n</text>
</g>
<!-- room_613 -->
<g id="node3" class="node">
<title>room_613</title>
<ellipse fill="none" stroke="black" cx="151.61" cy="-181.54" rx="54.64" ry="18"/>
<text text-anchor="middle" x="151.61" y="-177.34" font-family="Times,serif" font-size="14.00">Long Stones</text>
</g>
<!-- room_559&#45;&gt;room_613 -->
<g id="edge2" class="edge">
<title>room_559&#45;&gt;room_613</title>
<path fill="none" stroke="black" d="M150.08,-116.35C148.29,-127.18 147.16,-141.17 147.01,-153.41"/>
<polygon fill="black" stroke="black" points="143.51,-153.64 147.13,-163.6 150.51,-153.56 143.51,-153.64"/>
<text text-anchor="middle" x="145.82" y="-137.68" font-family="Times,serif" font-size="14.00">s</text>
</g>
<!-- room_560&#45;&gt;room_559 -->
<g id="edge3" class="edge">
<title>room_560&#45;&gt;room_559</title>
<path fill="none" stroke="black" d="M166.22,-36.01C162.77,-46.08 159.45,-58.84 157.29,-70.18"/>
<polygon fill="black" stroke="black" points="153.83,-69.65 155.66,-80.08 160.74,-70.79 153.83,-69.65"/>
<text text-anchor="middle" x="159.03" y="-55.9" font-family="Times,serif" font-size="14.00">s</text>
</g>
<!-- room_613&#45;&gt;room_559 -->
<g id="edge4" class="edge">
<title>room_613&#45;&gt;room_559</title>
<path fill="none" stroke="black" d="M158.51,-163.42C160.28,-152.66 161.41,-138.78 161.58,-126.6"/>
<polygon fill="black" stroke="black" points="165.07,-126.41 161.47,-116.45 158.07,-126.49 165.07,-126.41"/>
<text text-anchor="middle" x="156.54" y="-147.81" font-family="Times,serif" font-size="14.00">n</text>
</g>
<!-- room_614 -->
<g id="node4" class="node">
<title>room_614</title>
<ellipse fill="none" stroke="black" cx="144.62" cy="-268.62" rx="78.29" ry="18"/>
<text text-anchor="middle" x="144.62" y="-264.42" font-family="Times,serif" font-size="14.00">Cobbled Courtyard</text>
</g>
<!-- room_613&#45;&gt;room_614 -->
<g id="edge5" class="edge">
<title>room_613&#45;&gt;room_614</title>
<path fill="none" stroke="black" d="M144.51,-199.56C142.36,-211.36 140.87,-227.03 140.53,-240.45"/>
<polygon fill="black" stroke="black" points="137.03,-240.62 140.5,-250.63 144.03,-240.63 137.03,-240.62"/>
<text text-anchor="middle" x="139.41" y="-222.81" font-family="Times,serif" font-size="14.00">e</text>
</g>
<!-- room_614&#45;&gt;room_613 -->
<g id="edge8" class="edge">
<title>room_614&#45;&gt;room_613</title>
<path fill="none" stroke="black" d="M151.72,-250.6C153.87,-238.8 155.36,-223.14 155.71,-209.71"/>
<polygon fill="black" stroke="black" points="159.21,-209.54 155.73,-199.54 152.21,-209.53 159.21,-209.54"/>
<text text-anchor="middle" x="148.66" y="-232.96" font-family="Times,serif" font-size="14.00">w</text>
</g>
<!-- room_615 -->
<g id="node5" class="node">
<title>room_615</title>
<ellipse fill="none" stroke="black" cx="213.52" cy="-324.94" rx="60.9" ry="18"/>
<text text-anchor="middle" x="213.52" y="-320.74" font-family="Times,serif" font-size="14.00">Chapel Stones</text>
</g>
<!-- room_614&#45;&gt;room_615 -->
<g id="edge6" class="edge">
<title>room_614&#45;&gt;room_615</title>
<path fill="none" stroke="black" d="M157.25,-286.49C162.62,-291.71 169.16,-297.44 175.86,-302.87"/>
<polygon fill="black" stroke="black" points="173.71,-305.63 183.74,-309.05 178.03,-300.12 173.71,-305.63"/>
<text text-anchor="middle" x="163.05" y="-297.48" font-family="Times,serif" font-size="14.00">n</text>
</g>
<!-- room_616 -->
<g id="node6" class="node">
<title>room_616</title>
<ellipse fill="none" stroke="black" cx="67.29" cy="-312.62" rx="67.08" ry="18"/>
<text text-anchor="middle" x="67.29" y="-308.42" font-family="Times,serif" font-size="14.00">Old Tower Base</text>
</g>
<!-- room_614&#45;&gt;room_616 -->
<g id="edge7" class="edge">
<title>room_614&#45;&gt;room_616</title>
<path fill="none" stroke="black" d="M103.52,-284.24C100.37,-286.02 97.25,-287.86 94.22,-289.7"/>
<polygon fill="black" stroke="black" points="92.11,-286.89 85.55,-295.21 95.87,-292.8 92.11,-286.89"/>
<text text-anchor="middle" x="95.77" y="-289.77" font-family="Times,serif" font-size="14.00">e</text>
</g>
<!-- room_615&#45;&gt;room_614 -->
<g id="edge9" class="edge">
<title>room_615&#45;&gt;room_614</title>
<path fill="none" stroke="black" d="M200.89,-307.07C195.84,-302.17 189.76,-296.81 183.49,-291.68"/>
<polygon fill="black" stroke="black" points="185.52,-288.82 175.51,-285.35 181.17,-294.3 185.52,-288.82"/>
<text text-anchor="middle" x="194.91" y="-288.17" font-family="Times,serif" font-size="14.00">s</text>
</g>
<!-- room_616&#45;&gt;room_614 -->
<g id="edge10" class="edge">
<title>room_616&#45;&gt;room_614</title>
<path fill="none" stroke="black" d="M107.02,-297.77C110.53,-295.81 114.04,-293.77 117.41,-291.71"/>
<polygon fill="black" stroke="black" points="119.39,-294.6 125.96,-286.29 115.64,-288.69 119.39,-294.6"/>
<text text-anchor="middle" x="107.16" y="-283.54" font-family="Times,serif" font-size="14.00">w</text>
</g>
</g>
</svg>
