<?xml version="1.0" encoding="UTF-8" standalone="no"?>
<!DOCTYPE svg PUBLIC "-//W3C//DTD SVG 1.1//EN"
 "http://www.w3.org/Graphics/SVG/1.1/DTD/svg11.dtd">
<!-- Generated by graphviz version 2.42.3 (20191010.1750)
 -->
<!-- Title: monster Pages: 1 -->
<svg width="340pt" height="341pt"
 viewBox="0.00 0.00 340.17 340.82" xmlns="http://www.w3.org/2000/svg" xmlns:xlink="http://www.w3.org/1999/xlink">
<g id="graph0" class="graph" transform="scale(1 1) rotate(0) translate(4 336.82)">
<title>monster</title>
<polygon fill="white" stroke="transparent" points="-4,4 -4,-336.82 336.17,-336.82 336.17,4 -4,4"/>
<!-- room_439 -->
<g id="node1" class="node">
<title>room_439</title>
<ellipse fill="none" stroke="black" cx="63.89" cy="-175.5" rx="63.78" ry="18"/>
<text text-anchor="middle" x="63.89" y="-171.3" font-family="Times,serif" font-size="14.00">Haunted Lands</text>
</g>
<!-- room_444 -->
<g id="node2" class="node">
<title>room_444</title>
<ellipse fill="none" stroke="black" cx="221.21" cy="-209.79" rx="60.42" ry="18"/>
<text text-anchor="middle" x="221.21" y="-205.59" font-family="Times,serif" font-size="14.00">Ilutian Downs</text>
</g>
<!-- room_439&#45;&gt;room_444 -->
<g id="edge1" class="edge">
<title>room_439&#45;&gt;room_444</title>
<path fill="none" stroke="black" d="M102.32,-189.97C117.77,-194.05 136.05,-198.28 153.59,-201.88"/>
<polygon fill="black" stroke="black" points="153.31,-205.4 163.8,-203.92 154.68,-198.53 153.31,-205.4"/>
<text text-anchor="middle" x="125.23" y="-198.73" font-family="Times,serif" font-size="14.00">s</text>
</g>
<!-- room_440 -->
<g id="node3" class="node">
<title>room_440</title>
<ellipse fill="none" stroke="black" cx="97.12" cy="-18" rx="72" ry="18"/>
<text text-anchor="middle" x="97.12" y="-13.8" font-family="Times,serif" font-size="14.00">Plain of the Dead</text>
</g>
<!-- room_439&#45;&gt;room_440 -->
<g id="edge2" class="edge">
<title>room_439&#45;&gt;room_440</title>
<path fill="none" stroke="black" d="M72.38,-157.45C80.84,-130.21 91.99,-78.39 96.54,-46.16"/>
<polygon fill="black" stroke="black" points="100.03,-46.41 97.81,-36.05 93.09,-45.53 100.03,-46.41"/>
<text text-anchor="middle" x="81.35" y="-104.61" font-family="Times,serif" font-size="14.00">e</text>
</g>
<!-- room_443 -->
<g id="node4" class="node">
<title>room_443</title>
<ellipse fill="none" stroke="black" cx="115.61" cy="-314.82" rx="68.34" ry="18"/>
<text text-anchor="middle" x="115.61" y="-310.62" font-family="Times,serif" font-size="14.00">Weathered Bluff</text>
</g>
<!-- room_439&#45;&gt;room_443 -->
<g id="edge3" class="edge">
<title>room_439&#45;&gt;room_443</title>
<path fill="none" stroke="black" d="M65.76,-193.62C71.96,-217.58 87.32,-259.94 99.57,-287.71"/>
<polygon fill="black" stroke="black" points="96.41,-289.23 103.75,-296.87 102.78,-286.32 96.41,-289.23"/>
<text text-anchor="middle" x="77.61" y="-243.46" font-family="Times,serif" font-size="14.00">w</text>
</g>
<!-- room_444&#45;&gt;room_439 -->
<g id="edge8" class="edge">
<title>room_444&#45;&gt;room_439</title>
<path fill="none" stroke="black" d="M183.58,-195.53C168.67,-191.58 151.02,-187.46 133.93,-183.91"/>
<polygon fill="black" stroke="black" points="134.45,-180.44 123.95,-181.89 133.06,-187.3 134.45,-180.44"/>
<text text-anchor="middle" x="155.26" y="-192.52" font-family="Times,serif" font-size="14.00">n</text>
</g>
<!-- room_444&#45;&gt;room_443 -->
<g id="edge11" class="edge">
<title>room_444&#45;&gt;room_443</title>
<path fill="none" stroke="black" d="M196.74,-226.4C177.31,-243.38 150.74,-269.76 133.31,-289.35"/>
<polygon fill="black" stroke="black" points="130.57,-287.17 126.67,-297.02 135.86,-291.75 130.57,-287.17"/>
<text text-anchor="middle" x="159.97" y="-260.68" font-family="Times,serif" font-size="14.00">w</text>
</g>
<!-- room_445 -->
<g id="node5" class="node">
<title>room_445</title>
<ellipse fill="none" stroke="black" cx="254.53" cy="-52.08" rx="77.78" ry="18"/>
<text text-anchor="middle" x="254.53" y="-47.88" font-family="Times,serif" font-size="14.00">Carolingian Prairie</text>
</g>
<!-- room_444&#45;&gt;room_445 -->
<g id="edge9" class="edge">
<title>room_444&#45;&gt;room_445</title>
<path fill="none" stroke="black" d="M239.3,-192.41C252.97,-165.31 264.43,-112.98 264.19,-80.4"/>
<polygon fill="black" stroke="black" points="267.67,-79.97 263.64,-70.17 260.68,-80.35 267.67,-79.97"/>
<text text-anchor="middle" x="249.02" y="-139.2" font-family="Times,serif" font-size="14.00">s</text>
</g>
<!-- room_444&#45;&gt;room_445 -->
<g id="edge10" class="edge">
<title>room_444&#45;&gt;room_445</title>
<path fill="none" stroke="black" d="M212.11,-191.77C209.05,-164.12 218.94,-111.31 232.08,-79.1"/>
<polygon fill="black" stroke="black" points="235.35,-80.37 236.26,-69.81 228.97,-77.5 235.35,-80.37"/>
<text text-anchor="middle" x="218.99" y="-138.23" font-family="Times,serif" font-size="14.00">e</text>
</g>
<!-- room_440&#45;&gt;room_439 -->
<g id="edge5" class="edge">
<title>room_440&#45;&gt;room_439</title>
<path fill="none" stroke="black" d="M88.63,-36.05C80.17,-63.29 69.02,-115.11 64.47,-147.34"/>
<polygon fill="black" stroke="black" points="60.98,-147.1 63.2,-157.46 67.92,-147.97 60.98,-147.1"/>
<text text-anchor="middle" x="71.49" y="-94.5" font-family="Times,serif" font-size="14.00">w</text>
</g>
<!-- room_440&#45;&gt;room_445 -->
<g id="edge4" class="edge">
<title>room_440&#45;&gt;room_445</title>
<path fill="none" stroke="black" d="M137.61,-32.95C149.19,-35.95 162.23,-39.01 175.29,-41.83"/>
<polygon fill="black" stroke="black" points="174.75,-45.29 185.26,-43.93 176.2,-38.44 174.75,-45.29"/>
<text text-anchor="middle" x="153.73" y="-40.19" font-family="Times,serif" font-size="14.00">s</text>
</g>
<!-- room_443&#45;&gt;room_439 -->
<g id="edge7" class="edge">
<title>room_443&#45;&gt;room_439</title>
<path fill="none" stroke="black" d="M113.74,-296.7C107.54,-272.74 92.18,-230.38 79.93,-202.61"/>
<polygon fill="black" stroke="black" points="83.08,-201.09 75.75,-193.45 76.72,-204 83.08,-201.09"/>
<text text-anchor="middle" x="93.73" y="-252.46" font-family="Times,serif" font-size="14.00">e</text>
</g>
<!-- room_443&#45;&gt;room_444 -->
<g id="edge6" class="edge">
<title>room_443&#45;&gt;room_444</title>
<path fill="none" stroke="black" d="M140.35,-297.97C159.79,-280.95 186.26,-254.65 203.61,-235.14"/>
<polygon fill="black" stroke="black" points="206.32,-237.36 210.21,-227.51 201.02,-232.78 206.32,-237.36"/>
<text text-anchor="middle" x="169.26" y="-269.35" font-family="Times,serif" font-size="14.00">s</text>
</g>
<!-- room_445&#45;&gt;room_444 -->
<g id="edge12" class="edge">
<title>room_445&#45;&gt;room_444</title>
<path fill="none" stroke="black" d="M246.02,-70.15C237.55,-97.43 226.37,-149.31 221.81,-181.59"/>
<polygon fill="black" stroke="black" points="218.31,-181.36 220.53,-191.72 225.26,-182.23 218.31,-181.36"/>
<text text-anchor="middle" x="230.42" y="-128.67" font-family="Times,serif" font-size="14.00">n</text>
</g>
<!-- room_445&#45;&gt;room_444 -->
<g id="edge14" class="edge">
<title>room_445&#45;&gt;room_444</title>
<path fill="none" stroke="black" d="M255.2,-70.17C252.25,-97.53 241.57,-149.67 232.59,-181.91"/>
<polygon fill="black" stroke="black" points="229.19,-181.04 229.74,-191.62 235.91,-183.01 229.19,-181.04"/>
<text text-anchor="middle" x="238.84" y="-128.84" font-family="Times,serif" font-size="14.00">w</text>
</g>
<!-- room_445&#45;&gt;room_440 -->
<g id="edge13" class="edge">
<title>room_445&#45;&gt;room_440</title>
<path fill="none" stroke="black" d="M212.8,-36.81C200.46,-33.64 186.54,-30.4 172.75,-27.48"/>
<polygon fill="black" stroke="black" points="173.25,-24.01 162.75,-25.41 171.83,-30.86 173.25,-24.01"/>
<text text-anchor="middle" x="189.67" y="-20.94" font-family="Times,serif" font-size="14.00">e</text>
</g>
</g>
</svg>
