<?xml version="1.0" encoding="UTF-8" standalone="no"?>
<!DOCTYPE svg PUBLIC "-//W3C//DTD SVG 1.1//EN"
 "http://www.w3.org/Graphics/SVG/1.1/DTD/svg11.dtd">
<!-- Generated by graphviz version 2.42.3 (20191010.1750)
 -->
<!-- Title: monster Pages: 1 -->
<svg width="524pt" height="500pt"
 viewBox="0.00 0.00 524.34 499.82" xmlns="http://www.w3.org/2000/svg" xmlns:xlink="http://www.w3.org/1999/xlink">
<g id="graph0" class="graph" transform="scale(1 1) rotate(0) translate(4 495.82)">
<title>monster</title>
<polygon fill="white" stroke="transparent" points="-4,4 -4,-495.82 520.34,-495.82 520.34,4 -4,4"/>
<!-- room_137 -->
<g id="node1" class="node">
<title>room_137</title>
<ellipse fill="none" stroke="black" cx="59.23" cy="-473.82" rx="59.47" ry="18"/>
<text text-anchor="middle" x="59.23" y="-469.62" font-family="Times,serif" font-size="14.00">Jaws of Stone</text>
</g>
<!-- room_194 -->
<g id="node2" class="node">
<title>room_194</title>
<ellipse fill="none" stroke="black" cx="136.32" cy="-416.89" rx="63.32" ry="18"/>
<text text-anchor="middle" x="136.32" y="-412.69" font-family="Times,serif" font-size="14.00">Rocky Hillside</text>
</g>
<!-- room_137&#45;&gt;room_194 -->
<g id="edge1" class="edge">
<title>room_137&#45;&gt;room_194</title>
<path fill="none" stroke="black" d="M90.93,-458.51C98.7,-453.2 106.84,-447.15 114.07,-441.31"/>
<polygon fill="black" stroke="black" points="116.63,-443.73 122.05,-434.62 112.14,-438.37 116.63,-443.73"/>
<text text-anchor="middle" x="99" y="-438.71" font-family="Times,serif" font-size="14.00">n</text>
</g>
<!-- room_194&#45;&gt;room_137 -->
<g id="edge2" class="edge">
<title>room_194&#45;&gt;room_137</title>
<path fill="none" stroke="black" d="M104.17,-432.51C96.44,-437.81 88.37,-443.83 81.21,-449.62"/>
<polygon fill="black" stroke="black" points="78.72,-447.14 73.32,-456.26 83.22,-452.5 78.72,-447.14"/>
<text text-anchor="middle" x="89.97" y="-443.87" font-family="Times,serif" font-size="14.00">s</text>
</g>
<!-- room_195 -->
<g id="node3" class="node">
<title>room_195</title>
<ellipse fill="none" stroke="black" cx="204.2" cy="-349.23" rx="61.84" ry="18"/>
<text text-anchor="middle" x="204.2" y="-345.03" font-family="Times,serif" font-size="14.00">Warlord&#39;s Vale</text>
</g>
<!-- room_194&#45;&gt;room_195 -->
<g id="edge3" class="edge">
<title>room_194&#45;&gt;room_195</title>
<path fill="none" stroke="black" d="M161.88,-400.32C170.4,-392.66 179.65,-383.44 187.36,-374.93"/>
<polygon fill="black" stroke="black" points="190.01,-377.22 193.94,-367.38 184.74,-372.62 190.01,-377.22"/>
<text text-anchor="middle" x="171.12" y="-376.43" font-family="Times,serif" font-size="14.00">d</text>
</g>
<!-- room_195&#45;&gt;room_194 -->
<g id="edge5" class="edge">
<title>room_195&#45;&gt;room_194</title>
<path fill="none" stroke="black" d="M178.65,-365.81C170.12,-373.46 160.87,-382.68 153.16,-391.19"/>
<polygon fill="black" stroke="black" points="150.51,-388.9 146.58,-398.74 155.79,-393.5 150.51,-388.9"/>
<text text-anchor="middle" x="162.4" y="-381.3" font-family="Times,serif" font-size="14.00">u</text>
</g>
<!-- room_196 -->
<g id="node4" class="node">
<title>room_196</title>
<ellipse fill="none" stroke="black" cx="268" cy="-277.55" rx="66.68" ry="18"/>
<text text-anchor="middle" x="268" y="-273.35" font-family="Times,serif" font-size="14.00">Execution Road</text>
</g>
<!-- room_195&#45;&gt;room_196 -->
<g id="edge4" class="edge">
<title>room_195&#45;&gt;room_196</title>
<path fill="none" stroke="black" d="M227.64,-332.25C236.11,-323.76 245.41,-313.35 252.99,-303.88"/>
<polygon fill="black" stroke="black" points="255.83,-305.93 259.15,-295.86 250.28,-301.66 255.83,-305.93"/>
<text text-anchor="middle" x="236.82" y="-306.86" font-family="Times,serif" font-size="14.00">n</text>
</g>
<!-- room_196&#45;&gt;room_195 -->
<g id="edge7" class="edge">
<title>room_196&#45;&gt;room_195</title>
<path fill="none" stroke="black" d="M244.56,-294.54C235.97,-303.15 226.53,-313.73 218.89,-323.31"/>
<polygon fill="black" stroke="black" points="216,-321.33 212.7,-331.4 221.56,-325.58 216,-321.33"/>
<text text-anchor="middle" x="229" y="-311.73" font-family="Times,serif" font-size="14.00">s</text>
</g>
<!-- room_197 -->
<g id="node5" class="node">
<title>room_197</title>
<ellipse fill="none" stroke="black" cx="321.17" cy="-197.35" rx="79.7" ry="18"/>
<text text-anchor="middle" x="321.17" y="-193.15" font-family="Times,serif" font-size="14.00">Marble Escarpment</text>
</g>
<!-- room_196&#45;&gt;room_197 -->
<g id="edge6" class="edge">
<title>room_196&#45;&gt;room_197</title>
<path fill="none" stroke="black" d="M286.68,-260.21C294.75,-249.74 303.8,-236.22 310.7,-224.38"/>
<polygon fill="black" stroke="black" points="313.93,-225.79 315.72,-215.34 307.81,-222.39 313.93,-225.79"/>
<text text-anchor="middle" x="295.19" y="-245.1" font-family="Times,serif" font-size="14.00">n</text>
</g>
<!-- room_197&#45;&gt;room_196 -->
<g id="edge8" class="edge">
<title>room_197&#45;&gt;room_196</title>
<path fill="none" stroke="black" d="M302.18,-215.09C294.2,-225.51 285.29,-238.83 278.47,-250.52"/>
<polygon fill="black" stroke="black" points="275.3,-249.01 273.5,-259.45 281.42,-252.41 275.3,-249.01"/>
<text text-anchor="middle" x="287.6" y="-235.61" font-family="Times,serif" font-size="14.00">s</text>
</g>
<!-- room_198 -->
<g id="node6" class="node">
<title>room_198</title>
<ellipse fill="none" stroke="black" cx="373.55" cy="-115.03" rx="66.7" ry="18"/>
<text text-anchor="middle" x="373.55" y="-110.83" font-family="Times,serif" font-size="14.00">Quarry of Souls</text>
</g>
<!-- room_197&#45;&gt;room_198 -->
<g id="edge9" class="edge">
<title>room_197&#45;&gt;room_198</title>
<path fill="none" stroke="black" d="M339.41,-179.77C347.53,-168.83 356.68,-154.59 363.58,-142.23"/>
<polygon fill="black" stroke="black" points="366.76,-143.7 368.35,-133.23 360.57,-140.42 366.76,-143.7"/>
<text text-anchor="middle" x="347.99" y="-163.8" font-family="Times,serif" font-size="14.00">d</text>
</g>
<!-- room_198&#45;&gt;room_197 -->
<g id="edge12" class="edge">
<title>room_198&#45;&gt;room_197</title>
<path fill="none" stroke="black" d="M355.31,-132.61C347.19,-143.54 338.04,-157.78 331.14,-170.14"/>
<polygon fill="black" stroke="black" points="327.96,-168.67 326.37,-179.14 334.15,-171.95 327.96,-168.67"/>
<text text-anchor="middle" x="339.73" y="-154.18" font-family="Times,serif" font-size="14.00">u</text>
</g>
<!-- room_199 -->
<g id="node7" class="node">
<title>room_199</title>
<ellipse fill="none" stroke="black" cx="381.8" cy="-18" rx="56.07" ry="18"/>
<text text-anchor="middle" x="381.8" y="-13.8" font-family="Times,serif" font-size="14.00">Marble Plain</text>
</g>
<!-- room_198&#45;&gt;room_199 -->
<g id="edge10" class="edge">
<title>room_198&#45;&gt;room_199</title>
<path fill="none" stroke="black" d="M380.58,-96.78C383.24,-82.54 385.18,-62.5 385.59,-46.2"/>
<polygon fill="black" stroke="black" points="389.09,-46.14 385.63,-36.12 382.09,-46.11 389.09,-46.14"/>
<text text-anchor="middle" x="379.58" y="-74.29" font-family="Times,serif" font-size="14.00">n</text>
</g>
<!-- room_200 -->
<g id="node8" class="node">
<title>room_200</title>
<ellipse fill="none" stroke="black" cx="460.31" cy="-71.02" rx="56.07" ry="18"/>
<text text-anchor="middle" x="460.31" y="-66.82" font-family="Times,serif" font-size="14.00">Marble Plain</text>
</g>
<!-- room_198&#45;&gt;room_200 -->
<g id="edge11" class="edge">
<title>room_198&#45;&gt;room_200</title>
<path fill="none" stroke="black" d="M415.91,-101.08C421.07,-98.54 426.26,-95.84 431.17,-93.14"/>
<polygon fill="black" stroke="black" points="433.26,-95.97 440.21,-87.97 429.79,-89.9 433.26,-95.97"/>
<text text-anchor="middle" x="420.43" y="-85.91" font-family="Times,serif" font-size="14.00">e</text>
</g>
<!-- room_199&#45;&gt;room_198 -->
<g id="edge13" class="edge">
<title>room_199&#45;&gt;room_198</title>
<path fill="none" stroke="black" d="M374.77,-36.25C372.11,-50.49 370.17,-70.53 369.76,-86.83"/>
<polygon fill="black" stroke="black" points="366.26,-86.89 369.72,-96.91 373.26,-86.92 366.26,-86.89"/>
<text text-anchor="middle" x="369.54" y="-64.34" font-family="Times,serif" font-size="14.00">s</text>
</g>
<!-- room_199&#45;&gt;room_200 -->
<g id="edge14" class="edge">
<title>room_199&#45;&gt;room_200</title>
<path fill="none" stroke="black" d="M397.14,-35.41C403.24,-40.28 410.56,-45.6 418.03,-50.61"/>
<polygon fill="black" stroke="black" points="416.51,-53.8 426.8,-56.33 420.33,-47.94 416.51,-53.8"/>
<text text-anchor="middle" x="404.48" y="-45.81" font-family="Times,serif" font-size="14.00">e</text>
</g>
<!-- room_200&#45;&gt;room_198 -->
<g id="edge16" class="edge">
<title>room_200&#45;&gt;room_198</title>
<path fill="none" stroke="black" d="M420.49,-83.73C414.64,-86.56 408.69,-89.62 403.09,-92.69"/>
<polygon fill="black" stroke="black" points="401.03,-89.84 394.07,-97.83 404.49,-95.92 401.03,-89.84"/>
<text text-anchor="middle" x="406.74" y="-91.01" font-family="Times,serif" font-size="14.00">w</text>
</g>
<!-- room_200&#45;&gt;room_199 -->
<g id="edge15" class="edge">
<title>room_200&#45;&gt;room_199</title>
<path fill="none" stroke="black" d="M444.97,-53.62C438.87,-48.74 431.55,-43.43 424.08,-38.41"/>
<polygon fill="black" stroke="black" points="425.6,-35.22 415.31,-32.7 421.77,-41.09 425.6,-35.22"/>
<text text-anchor="middle" x="438.02" y="-34.81" font-family="Times,serif" font-size="14.00">n</text>
</g>
</g>
</svg>
