<?xml version="1.0" encoding="UTF-8" standalone="no"?>
<!DOCTYPE svg PUBLIC "-//W3C//DTD SVG 1.1//EN"
 "http://www.w3.org/Graphics/SVG/1.1/DTD/svg11.dtd">
<!-- Generated by graphviz version 2.42.3 (20191010.1750)
 -->
<!-- Title: monster Pages: 1 -->
<svg width="340pt" height="244pt"
 viewBox="0.00 0.00 339.89 243.65" xmlns="http://www.w3.org/2000/svg" xmlns:xlink="http://www.w3.org/1999/xlink">
<g id="graph0" class="graph" transform="scale(1 1) rotate(0) translate(4 239.65)">
<title>monster</title>
<polygon fill="white" stroke="transparent" points="-4,4 -4,-239.65 335.89,-239.65 335.89,4 -4,4"/>
<!-- room_202 -->
<g id="node1" class="node">
<title>room_202</title>
<ellipse fill="none" stroke="black" cx="73.22" cy="-48.99" rx="73.43" ry="18"/>
<text text-anchor="middle" x="73.22" y="-44.79" font-family="Times,serif" font-size="14.00">Desolate Expanse</text>
</g>
<!-- room_206 -->
<g id="node2" class="node">
<title>room_206</title>
<ellipse fill="none" stroke="black" cx="265.03" cy="-104.66" rx="66.72" ry="18"/>
<text text-anchor="middle" x="265.03" y="-100.46" font-family="Times,serif" font-size="14.00">Rocky Foothills</text>
</g>
<!-- room_202&#45;&gt;room_206 -->
<g id="edge1" class="edge">
<title>room_202&#45;&gt;room_206</title>
<path fill="none" stroke="black" d="M108.23,-64.82C133.56,-73.54 168.54,-84.03 199.04,-92.19"/>
<polygon fill="black" stroke="black" points="198.21,-95.59 208.77,-94.75 199.99,-88.82 198.21,-95.59"/>
<text text-anchor="middle" x="150.91" y="-81.3" font-family="Times,serif" font-size="14.00">s</text>
</g>
<!-- room_203 -->
<g id="node3" class="node">
<title>room_203</title>
<ellipse fill="none" stroke="black" cx="197.72" cy="-18" rx="43.05" ry="18"/>
<text text-anchor="middle" x="197.72" y="-13.8" font-family="Times,serif" font-size="14.00">Salt Flats</text>
</g>
<!-- room_202&#45;&gt;room_203 -->
<g id="edge2" class="edge">
<title>room_202&#45;&gt;room_203</title>
<path fill="none" stroke="black" d="M137.1,-40.05C144.45,-38.22 151.77,-36.26 158.65,-34.29"/>
<polygon fill="black" stroke="black" points="159.78,-37.61 168.37,-31.4 157.79,-30.9 159.78,-37.61"/>
<text text-anchor="middle" x="150.98" y="-39.97" font-family="Times,serif" font-size="14.00">e</text>
</g>
<!-- room_206&#45;&gt;room_202 -->
<g id="edge10" class="edge">
<title>room_206&#45;&gt;room_202</title>
<path fill="none" stroke="black" d="M230.9,-89.15C206.45,-80.68 172.67,-70.5 142.64,-62.39"/>
<polygon fill="black" stroke="black" points="143.19,-58.92 132.63,-59.73 141.39,-65.68 143.19,-58.92"/>
<text text-anchor="middle" x="181.72" y="-78.57" font-family="Times,serif" font-size="14.00">w</text>
</g>
<!-- room_206&#45;&gt;room_203 -->
<g id="edge8" class="edge">
<title>room_206&#45;&gt;room_203</title>
<path fill="none" stroke="black" d="M257.73,-86.76C249.61,-73.78 236.42,-56.19 224.42,-42.02"/>
<polygon fill="black" stroke="black" points="226.75,-39.36 217.54,-34.13 221.48,-43.97 226.75,-39.36"/>
<text text-anchor="middle" x="237.58" y="-67.19" font-family="Times,serif" font-size="14.00">n</text>
</g>
<!-- room_204 -->
<g id="node4" class="node">
<title>room_204</title>
<ellipse fill="none" stroke="black" cx="204.23" cy="-217.65" rx="77.15" ry="18"/>
<text text-anchor="middle" x="204.23" y="-213.45" font-family="Times,serif" font-size="14.00">Windswept Tundra</text>
</g>
<!-- room_206&#45;&gt;room_204 -->
<g id="edge9" class="edge">
<title>room_206&#45;&gt;room_204</title>
<path fill="none" stroke="black" d="M249.48,-122.34C237.72,-140.46 222.31,-168.82 212.66,-189.92"/>
<polygon fill="black" stroke="black" points="209.35,-188.76 208.55,-199.32 215.76,-191.56 209.35,-188.76"/>
<text text-anchor="middle" x="227.97" y="-158.93" font-family="Times,serif" font-size="14.00">e</text>
</g>
<!-- room_203&#45;&gt;room_202 -->
<g id="edge5" class="edge">
<title>room_203&#45;&gt;room_202</title>
<path fill="none" stroke="black" d="M155.41,-21.96C144.01,-24.38 131.62,-27.39 119.99,-30.55"/>
<polygon fill="black" stroke="black" points="118.7,-27.28 110.02,-33.35 120.59,-34.02 118.7,-27.28"/>
<text text-anchor="middle" x="132.65" y="-15.05" font-family="Times,serif" font-size="14.00">w</text>
</g>
<!-- room_203&#45;&gt;room_206 -->
<g id="edge3" class="edge">
<title>room_203&#45;&gt;room_206</title>
<path fill="none" stroke="black" d="M205.02,-35.9C212.93,-48.53 225.62,-65.53 237.36,-79.49"/>
<polygon fill="black" stroke="black" points="234.93,-82.03 244.11,-87.31 240.22,-77.45 234.93,-82.03"/>
<text text-anchor="middle" x="218.46" y="-60.5" font-family="Times,serif" font-size="14.00">s</text>
</g>
<!-- room_203&#45;&gt;room_204 -->
<g id="edge4" class="edge">
<title>room_203&#45;&gt;room_204</title>
<path fill="none" stroke="black" d="M194.23,-36.2C192.1,-71.19 194.34,-148.03 198.44,-189.6"/>
<polygon fill="black" stroke="black" points="194.97,-190.06 199.55,-199.61 201.93,-189.28 194.97,-190.06"/>
<text text-anchor="middle" x="193.23" y="-115.7" font-family="Times,serif" font-size="14.00">e</text>
</g>
<!-- room_204&#45;&gt;room_206 -->
<g id="edge6" class="edge">
<title>room_204&#45;&gt;room_206</title>
<path fill="none" stroke="black" d="M219.78,-199.97C231.54,-181.84 246.95,-153.49 256.6,-132.39"/>
<polygon fill="black" stroke="black" points="259.91,-133.55 260.71,-122.98 253.5,-130.74 259.91,-133.55"/>
<text text-anchor="middle" x="235.47" y="-168.98" font-family="Times,serif" font-size="14.00">s</text>
</g>
<!-- room_204&#45;&gt;room_203 -->
<g id="edge7" class="edge">
<title>room_204&#45;&gt;room_203</title>
<path fill="none" stroke="black" d="M207.72,-199.45C209.85,-164.46 207.61,-87.62 203.51,-46.04"/>
<polygon fill="black" stroke="black" points="206.98,-45.59 202.4,-36.04 200.02,-46.36 206.98,-45.59"/>
<text text-anchor="middle" x="210.67" y="-125.54" font-family="Times,serif" font-size="14.00">w</text>
</g>
</g>
</svg>
