<?xml version="1.0" encoding="UTF-8" standalone="no"?>
<!DOCTYPE svg PUBLIC "-//W3C//DTD SVG 1.1//EN"
 "http://www.w3.org/Graphics/SVG/1.1/DTD/svg11.dtd">
<!-- Generated by graphviz version 2.42.3 (20191010.1750)
 -->
<!-- Title: monster Pages: 1 -->
<svg width="642pt" height="837pt"
 viewBox="0.00 0.00 642.09 837.30" xmlns="http://www.w3.org/2000/svg" xmlns:xlink="http://www.w3.org/1999/xlink">
<g id="graph0" class="graph" transform="scale(1 1) rotate(0) translate(4 833.3)">
<title>monster</title>
<polygon fill="white" stroke="transparent" points="-4,4 -4,-833.3 638.09,-833.3 638.09,4 -4,4"/>
<!-- room_202 -->
<g id="node1" class="node">
<title>room_202</title>
<ellipse fill="none" stroke="black" cx="73.22" cy="-715.77" rx="73.43" ry="18"/>
<text text-anchor="middle" x="73.22" y="-711.57" font-family="Times,serif" font-size="14.00">Desolate Expanse</text>
</g>
<!-- room_206 -->
<g id="node2" class="node">
<title>room_206</title>
<ellipse fill="none" stroke="black" cx="221.31" cy="-682.88" rx="66.72" ry="18"/>
<text text-anchor="middle" x="221.31" y="-678.68" font-family="Times,serif" font-size="14.00">Rocky Foothills</text>
</g>
<!-- room_202&#45;&gt;room_206 -->
<g id="edge1" class="edge">
<title>room_202&#45;&gt;room_206</title>
<path fill="none" stroke="black" d="M139.62,-707.89C150.84,-705.51 162.29,-702.87 172.93,-700.2"/>
<polygon fill="black" stroke="black" points="174.05,-703.52 182.85,-697.63 172.3,-696.75 174.05,-703.52"/>
<text text-anchor="middle" x="153.55" y="-706.84" font-family="Times,serif" font-size="14.00">s</text>
</g>
<!-- room_203 -->
<g id="node3" class="node">
<title>room_203</title>
<ellipse fill="none" stroke="black" cx="170.34" cy="-808.61" rx="43.05" ry="18"/>
<text text-anchor="middle" x="170.34" y="-804.41" font-family="Times,serif" font-size="14.00">Salt Flats</text>
</g>
<!-- room_202&#45;&gt;room_203 -->
<g id="edge2" class="edge">
<title>room_202&#45;&gt;room_203</title>
<path fill="none" stroke="black" d="M84.89,-733.93C98.21,-749.16 120.29,-770.76 138.71,-786.88"/>
<polygon fill="black" stroke="black" points="136.47,-789.57 146.35,-793.42 141.03,-784.25 136.47,-789.57"/>
<text text-anchor="middle" x="108.7" y="-763.21" font-family="Times,serif" font-size="14.00">e</text>
</g>
<!-- room_206&#45;&gt;room_202 -->
<g id="edge10" class="edge">
<title>room_206&#45;&gt;room_202</title>
<path fill="none" stroke="black" d="M159.2,-689.86C147.18,-692.35 134.72,-695.18 123.15,-698.06"/>
<polygon fill="black" stroke="black" points="122.06,-694.73 113.24,-700.6 123.79,-701.51 122.06,-694.73"/>
<text text-anchor="middle" x="136.12" y="-682.76" font-family="Times,serif" font-size="14.00">w</text>
</g>
<!-- room_206&#45;&gt;room_203 -->
<g id="edge8" class="edge">
<title>room_206&#45;&gt;room_203</title>
<path fill="none" stroke="black" d="M208.65,-700.63C197.97,-721.49 183.67,-756.29 175.62,-780.75"/>
<polygon fill="black" stroke="black" points="172.2,-779.94 172.58,-790.53 178.89,-782.02 172.2,-779.94"/>
<text text-anchor="middle" x="188.63" y="-743.49" font-family="Times,serif" font-size="14.00">n</text>
</g>
<!-- room_204 -->
<g id="node4" class="node">
<title>room_204</title>
<ellipse fill="none" stroke="black" cx="304.9" cy="-809.37" rx="77.15" ry="18"/>
<text text-anchor="middle" x="304.9" y="-805.17" font-family="Times,serif" font-size="14.00">Windswept Tundra</text>
</g>
<!-- room_206&#45;&gt;room_204 -->
<g id="edge9" class="edge">
<title>room_206&#45;&gt;room_204</title>
<path fill="none" stroke="black" d="M227.71,-700.94C239.14,-722.55 262.6,-758.75 280.77,-783.36"/>
<polygon fill="black" stroke="black" points="278.12,-785.67 286.94,-791.53 283.71,-781.45 278.12,-785.67"/>
<text text-anchor="middle" x="251.13" y="-744.95" font-family="Times,serif" font-size="14.00">e</text>
</g>
<!-- room_560 -->
<g id="node5" class="node">
<title>room_560</title>
<ellipse fill="none" stroke="black" cx="277.77" cy="-548.08" rx="52.22" ry="18"/>
<text text-anchor="middle" x="277.77" y="-543.88" font-family="Times,serif" font-size="14.00">Stone Cairn</text>
</g>
<!-- room_206&#45;&gt;room_560 -->
<g id="edge11" class="edge">
<title>room_206&#45;&gt;room_560</title>
<path fill="none" stroke="black" d="M234.06,-665.19C246.07,-642.36 262.95,-602.48 272.09,-575.67"/>
<polygon fill="black" stroke="black" points="275.44,-576.69 275.19,-566.09 268.78,-574.53 275.44,-576.69"/>
<text text-anchor="middle" x="249.58" y="-623.23" font-family="Times,serif" font-size="14.00">u</text>
</g>
<!-- room_203&#45;&gt;room_202 -->
<g id="edge5" class="edge">
<title>room_203&#45;&gt;room_202</title>
<path fill="none" stroke="black" d="M159.05,-790.89C146.25,-776.2 125.05,-755.35 106.88,-739.3"/>
<polygon fill="black" stroke="black" points="109.17,-736.64 99.32,-732.74 104.58,-741.93 109.17,-736.64"/>
<text text-anchor="middle" x="127.91" y="-767.89" font-family="Times,serif" font-size="14.00">w</text>
</g>
<!-- room_203&#45;&gt;room_206 -->
<g id="edge3" class="edge">
<title>room_203&#45;&gt;room_206</title>
<path fill="none" stroke="black" d="M182.85,-791.13C193.54,-770.34 207.89,-735.42 215.98,-710.86"/>
<polygon fill="black" stroke="black" points="219.41,-711.63 219.04,-701.04 212.73,-709.55 219.41,-711.63"/>
<text text-anchor="middle" x="196.7" y="-753.8" font-family="Times,serif" font-size="14.00">s</text>
</g>
<!-- room_203&#45;&gt;room_204 -->
<g id="edge4" class="edge">
<title>room_203&#45;&gt;room_204</title>
<path fill="none" stroke="black" d="M211.04,-815.1C214.66,-815.26 218.39,-815.39 222.2,-815.49"/>
<polygon fill="black" stroke="black" points="222.34,-819 232.4,-815.69 222.47,-812 222.34,-819"/>
<text text-anchor="middle" x="219.73" y="-818.1" font-family="Times,serif" font-size="14.00">e</text>
</g>
<!-- room_204&#45;&gt;room_206 -->
<g id="edge6" class="edge">
<title>room_204&#45;&gt;room_206</title>
<path fill="none" stroke="black" d="M298.5,-791.32C287,-769.58 263.34,-733.08 245.13,-708.47"/>
<polygon fill="black" stroke="black" points="247.77,-706.16 238.94,-700.3 242.19,-710.39 247.77,-706.16"/>
<text text-anchor="middle" x="269.09" y="-752.69" font-family="Times,serif" font-size="14.00">s</text>
</g>
<!-- room_204&#45;&gt;room_203 -->
<g id="edge7" class="edge">
<title>room_204&#45;&gt;room_203</title>
<path fill="none" stroke="black" d="M233.72,-802.23C229.63,-802.23 225.56,-802.26 221.58,-802.32"/>
<polygon fill="black" stroke="black" points="221.16,-798.83 211.25,-802.58 221.33,-805.83 221.16,-798.83"/>
<text text-anchor="middle" x="222.59" y="-791.08" font-family="Times,serif" font-size="14.00">w</text>
</g>
<!-- room_560&#45;&gt;room_206 -->
<g id="edge15" class="edge">
<title>room_560&#45;&gt;room_206</title>
<path fill="none" stroke="black" d="M265.01,-565.78C253.01,-588.61 236.13,-628.49 226.98,-655.3"/>
<polygon fill="black" stroke="black" points="223.63,-654.28 223.88,-664.87 230.29,-656.44 223.63,-654.28"/>
<text text-anchor="middle" x="242.5" y="-613.34" font-family="Times,serif" font-size="14.00">d</text>
</g>
<!-- room_559 -->
<g id="node6" class="node">
<title>room_559</title>
<ellipse fill="none" stroke="black" cx="327.4" cy="-416" rx="69.61" ry="18"/>
<text text-anchor="middle" x="327.4" y="-411.8" font-family="Times,serif" font-size="14.00">Path of Shadows</text>
</g>
<!-- room_560&#45;&gt;room_559 -->
<g id="edge14" class="edge">
<title>room_560&#45;&gt;room_559</title>
<path fill="none" stroke="black" d="M289.73,-530.34C300.4,-508.18 314.91,-470.07 322.76,-443.97"/>
<polygon fill="black" stroke="black" points="326.15,-444.86 325.51,-434.28 319.41,-442.95 326.15,-444.86"/>
<text text-anchor="middle" x="303.52" y="-489.95" font-family="Times,serif" font-size="14.00">s</text>
</g>
<!-- room_559&#45;&gt;room_560 -->
<g id="edge12" class="edge">
<title>room_559&#45;&gt;room_560</title>
<path fill="none" stroke="black" d="M315.43,-433.75C304.76,-455.91 290.25,-494.01 282.4,-520.11"/>
<polygon fill="black" stroke="black" points="279.02,-519.23 279.66,-529.8 285.75,-521.14 279.02,-519.23"/>
<text text-anchor="middle" x="295.42" y="-479.73" font-family="Times,serif" font-size="14.00">n</text>
</g>
<!-- room_613 -->
<g id="node7" class="node">
<title>room_613</title>
<ellipse fill="none" stroke="black" cx="374.27" cy="-282.8" rx="54.64" ry="18"/>
<text text-anchor="middle" x="374.27" y="-278.6" font-family="Times,serif" font-size="14.00">Long Stones</text>
</g>
<!-- room_559&#45;&gt;room_613 -->
<g id="edge13" class="edge">
<title>room_559&#45;&gt;room_613</title>
<path fill="none" stroke="black" d="M338.99,-397.99C349.2,-375.59 362.91,-337.16 370.22,-310.89"/>
<polygon fill="black" stroke="black" points="373.62,-311.69 372.76,-301.13 366.85,-309.92 373.62,-311.69"/>
<text text-anchor="middle" x="351.88" y="-357.24" font-family="Times,serif" font-size="14.00">s</text>
</g>
<!-- room_613&#45;&gt;room_559 -->
<g id="edge16" class="edge">
<title>room_613&#45;&gt;room_559</title>
<path fill="none" stroke="black" d="M362.81,-300.54C352.6,-322.86 338.83,-361.41 331.48,-387.79"/>
<polygon fill="black" stroke="black" points="328.07,-387.03 328.92,-397.59 334.84,-388.8 328.07,-387.03"/>
<text text-anchor="middle" x="343.64" y="-346.97" font-family="Times,serif" font-size="14.00">n</text>
</g>
<!-- room_614 -->
<g id="node8" class="node">
<title>room_614</title>
<ellipse fill="none" stroke="black" cx="422.97" cy="-144.17" rx="78.29" ry="18"/>
<text text-anchor="middle" x="422.97" y="-139.97" font-family="Times,serif" font-size="14.00">Cobbled Courtyard</text>
</g>
<!-- room_613&#45;&gt;room_614 -->
<g id="edge17" class="edge">
<title>room_613&#45;&gt;room_614</title>
<path fill="none" stroke="black" d="M385.61,-265.13C396.34,-241.63 411.21,-199.88 418.9,-172.09"/>
<polygon fill="black" stroke="black" points="422.34,-172.75 421.47,-162.2 415.57,-170.99 422.34,-172.75"/>
<text text-anchor="middle" x="399.15" y="-221.41" font-family="Times,serif" font-size="14.00">e</text>
</g>
<!-- room_614&#45;&gt;room_613 -->
<g id="edge20" class="edge">
<title>room_614&#45;&gt;room_613</title>
<path fill="none" stroke="black" d="M411.5,-162.12C400.82,-185.58 386.12,-226.88 378.43,-254.55"/>
<polygon fill="black" stroke="black" points="374.99,-253.86 375.85,-264.42 381.77,-255.63 374.99,-253.86"/>
<text text-anchor="middle" x="389.91" y="-211.13" font-family="Times,serif" font-size="14.00">w</text>
</g>
<!-- room_615 -->
<g id="node9" class="node">
<title>room_615</title>
<ellipse fill="none" stroke="black" cx="340.37" cy="-18" rx="60.9" ry="18"/>
<text text-anchor="middle" x="340.37" y="-13.8" font-family="Times,serif" font-size="14.00">Chapel Stones</text>
</g>
<!-- room_614&#45;&gt;room_615 -->
<g id="edge18" class="edge">
<title>room_614&#45;&gt;room_615</title>
<path fill="none" stroke="black" d="M416.7,-126.17C405.37,-104.49 381.99,-68.09 363.98,-43.53"/>
<polygon fill="black" stroke="black" points="366.66,-41.28 357.86,-35.39 361.06,-45.48 366.66,-41.28"/>
<text text-anchor="middle" x="386.84" y="-87.65" font-family="Times,serif" font-size="14.00">n</text>
</g>
<!-- room_616 -->
<g id="node10" class="node">
<title>room_616</title>
<ellipse fill="none" stroke="black" cx="566.8" cy="-98.96" rx="67.08" ry="18"/>
<text text-anchor="middle" x="566.8" y="-94.76" font-family="Times,serif" font-size="14.00">Old Tower Base</text>
</g>
<!-- room_614&#45;&gt;room_616 -->
<g id="edge19" class="edge">
<title>room_614&#45;&gt;room_616</title>
<path fill="none" stroke="black" d="M482.63,-132.37C497.17,-128.05 512.39,-123.13 525.84,-118.37"/>
<polygon fill="black" stroke="black" points="527.07,-121.65 535.28,-114.94 524.68,-115.07 527.07,-121.65"/>
<text text-anchor="middle" x="507.34" y="-128.17" font-family="Times,serif" font-size="14.00">e</text>
</g>
<!-- room_615&#45;&gt;room_614 -->
<g id="edge21" class="edge">
<title>room_615&#45;&gt;room_614</title>
<path fill="none" stroke="black" d="M346.64,-36C357.9,-57.55 381.08,-93.66 399.05,-118.21"/>
<polygon fill="black" stroke="black" points="396.36,-120.46 405.16,-126.36 401.97,-116.26 396.36,-120.46"/>
<text text-anchor="middle" x="370.12" y="-79.9" font-family="Times,serif" font-size="14.00">s</text>
</g>
<!-- room_616&#45;&gt;room_614 -->
<g id="edge22" class="edge">
<title>room_616&#45;&gt;room_614</title>
<path fill="none" stroke="black" d="M511.69,-109.43C496.37,-113.88 479.98,-119.12 465.5,-124.21"/>
<polygon fill="black" stroke="black" points="464.04,-121.01 455.82,-127.69 466.41,-127.6 464.04,-121.01"/>
<text text-anchor="middle" x="483.54" y="-105.62" font-family="Times,serif" font-size="14.00">w</text>
</g>
</g>
</svg>
