<?xml version="1.0" encoding="UTF-8" standalone="no"?>
<!DOCTYPE svg PUBLIC "-//W3C//DTD SVG 1.1//EN"
 "http://www.w3.org/Graphics/SVG/1.1/DTD/svg11.dtd">
<!-- Generated by graphviz version 2.42.3 (20191010.1750)
 -->
<!-- Title: monster Pages: 1 -->
<svg width="286pt" height="179pt"
 viewBox="0.00 0.00 286.30 179.33" xmlns="http://www.w3.org/2000/svg" xmlns:xlink="http://www.w3.org/1999/xlink">
<g id="graph0" class="graph" transform="scale(1 1) rotate(0) translate(4 175.33)">
<title>monster</title>
<polygon fill="white" stroke="transparent" points="-4,4 -4,-175.33 282.3,-175.33 282.3,4 -4,4"/>
<!-- room_4 -->
<g id="node1" class="node">
<title>room_4</title>
<ellipse fill="none" stroke="black" cx="102.55" cy="-85.84" rx="65.68" ry="18"/>
<text text-anchor="middle" x="102.55" y="-81.64" font-family="Times,serif" font-size="14.00">Sewer Entrance</text>
</g>
<!-- room_39 -->
<g id="node2" class="node">
<title>room_39</title>
<ellipse fill="none" stroke="black" cx="170.42" cy="-41.84" rx="35.3" ry="18"/>
<text text-anchor="middle" x="170.42" y="-37.64" font-family="Times,serif" font-size="14.00">sewer1</text>
</g>
<!-- room_4&#45;&gt;room_39 -->
<g id="edge1" class="edge">
<title>room_4&#45;&gt;room_39</title>
<path fill="none" stroke="black" d="M138.56,-70.53C141.74,-68.5 144.9,-66.38 147.93,-64.27"/>
<polygon fill="black" stroke="black" points="150.01,-67.08 156,-58.35 145.87,-61.44 150.01,-67.08"/>
<text text-anchor="middle" x="139.74" y="-56.2" font-family="Times,serif" font-size="14.00">n</text>
</g>
<!-- room_264 -->
<g id="node3" class="node">
<title>room_264</title>
<ellipse fill="none" stroke="black" cx="58.62" cy="-18" rx="35.3" ry="18"/>
<text text-anchor="middle" x="58.62" y="-13.8" font-family="Times,serif" font-size="14.00">sewer3</text>
</g>
<!-- room_4&#45;&gt;room_264 -->
<g id="edge2" class="edge">
<title>room_4&#45;&gt;room_264</title>
<path fill="none" stroke="black" d="M97.6,-67.68C93.62,-59.89 88.05,-50.71 82.32,-42.36"/>
<polygon fill="black" stroke="black" points="85.03,-40.13 76.36,-34.05 79.35,-44.21 85.03,-40.13"/>
<text text-anchor="middle" x="87.24" y="-43.82" font-family="Times,serif" font-size="14.00">s</text>
</g>
<!-- room_73 -->
<g id="node4" class="node">
<title>room_73</title>
<ellipse fill="none" stroke="black" cx="35.15" cy="-130.47" rx="35.3" ry="18"/>
<text text-anchor="middle" x="35.15" y="-126.27" font-family="Times,serif" font-size="14.00">sewer2</text>
</g>
<!-- room_4&#45;&gt;room_73 -->
<g id="edge3" class="edge">
<title>room_4&#45;&gt;room_73</title>
<path fill="none" stroke="black" d="M67.1,-101.23C63.84,-103.35 60.61,-105.55 57.51,-107.76"/>
<polygon fill="black" stroke="black" points="55.17,-105.14 49.27,-113.93 59.37,-110.74 55.17,-105.14"/>
<text text-anchor="middle" x="59.2" y="-107.29" font-family="Times,serif" font-size="14.00">e</text>
</g>
<!-- room_267 -->
<g id="node5" class="node">
<title>room_267</title>
<ellipse fill="none" stroke="black" cx="147.17" cy="-153.33" rx="35.3" ry="18"/>
<text text-anchor="middle" x="147.17" y="-149.13" font-family="Times,serif" font-size="14.00">sewer4</text>
</g>
<!-- room_4&#45;&gt;room_267 -->
<g id="edge4" class="edge">
<title>room_4&#45;&gt;room_267</title>
<path fill="none" stroke="black" d="M107.68,-103.97C111.74,-111.73 117.4,-120.87 123.22,-129.17"/>
<polygon fill="black" stroke="black" points="120.53,-131.43 129.26,-137.43 126.18,-127.3 120.53,-131.43"/>
<text text-anchor="middle" x="110.39" y="-119.37" font-family="Times,serif" font-size="14.00">w</text>
</g>
<!-- room_39&#45;&gt;room_4 -->
<g id="edge5" class="edge">
<title>room_39&#45;&gt;room_4</title>
<path fill="none" stroke="black" d="M141.98,-52.49C136.93,-55.48 131.71,-58.81 126.79,-62.19"/>
<polygon fill="black" stroke="black" points="124.42,-59.59 118.35,-68.27 128.51,-65.27 124.42,-59.59"/>
<text text-anchor="middle" x="131.66" y="-46.14" font-family="Times,serif" font-size="14.00">s</text>
</g>
<!-- room_264&#45;&gt;room_4 -->
<g id="edge7" class="edge">
<title>room_264&#45;&gt;room_4</title>
<path fill="none" stroke="black" d="M63.57,-36.17C67.32,-43.5 72.48,-52.08 77.86,-60.03"/>
<polygon fill="black" stroke="black" points="75.09,-62.18 83.71,-68.33 80.81,-58.14 75.09,-62.18"/>
<text text-anchor="middle" x="67.21" y="-50.9" font-family="Times,serif" font-size="14.00">n</text>
</g>
<!-- room_73&#45;&gt;room_4 -->
<g id="edge6" class="edge">
<title>room_73&#45;&gt;room_4</title>
<path fill="none" stroke="black" d="M63.47,-119.55C68.49,-116.52 73.67,-113.14 78.55,-109.71"/>
<polygon fill="black" stroke="black" points="80.95,-112.29 86.93,-103.55 76.8,-106.65 80.95,-112.29"/>
<text text-anchor="middle" x="76.07" y="-117.43" font-family="Times,serif" font-size="14.00">w</text>
</g>
<!-- room_267&#45;&gt;room_4 -->
<g id="edge8" class="edge">
<title>room_267&#45;&gt;room_4</title>
<path fill="none" stroke="black" d="M142.04,-135.2C138.21,-127.89 132.96,-119.36 127.51,-111.45"/>
<polygon fill="black" stroke="black" points="130.25,-109.26 121.56,-103.2 124.57,-113.35 130.25,-109.26"/>
<text text-anchor="middle" x="131.67" y="-112.12" font-family="Times,serif" font-size="14.00">e</text>
</g>
<!-- room_274 -->
<g id="node6" class="node">
<title>room_274</title>
<ellipse fill="none" stroke="black" cx="243.15" cy="-114" rx="35.3" ry="18"/>
<text text-anchor="middle" x="243.15" y="-109.8" font-family="Times,serif" font-size="14.00">sewer5</text>
</g>
</g>
</svg>
