<?xml version="1.0" encoding="UTF-8" standalone="no"?>
<!DOCTYPE svg PUBLIC "-//W3C//DTD SVG 1.1//EN"
 "http://www.w3.org/Graphics/SVG/1.1/DTD/svg11.dtd">
<!-- Generated by graphviz version 2.42.3 (20191010.1750)
 -->
<!-- Title: monster Pages: 1 -->
<svg width="953pt" height="607pt"
 viewBox="0.00 0.00 953.17 607.15" xmlns="http://www.w3.org/2000/svg" xmlns:xlink="http://www.w3.org/1999/xlink">
<g id="graph0" class="graph" transform="scale(1 1) rotate(0) translate(4 603.15)">
<title>monster</title>
<polygon fill="white" stroke="transparent" points="-4,4 -4,-603.15 949.17,-603.15 949.17,4 -4,4"/>
<!-- room_10 -->
<g id="node1" class="node">
<title>room_10</title>
<ellipse fill="none" stroke="black" cx="57.75" cy="-457.78" rx="58" ry="18"/>
<text text-anchor="middle" x="57.75" y="-453.58" font-family="Times,serif" font-size="14.00">Circle of Fire</text>
</g>
<!-- room_28 -->
<g id="node2" class="node">
<title>room_28</title>
<ellipse fill="none" stroke="black" cx="198.69" cy="-443.94" rx="60.44" ry="18"/>
<text text-anchor="middle" x="198.69" y="-439.74" font-family="Times,serif" font-size="14.00">smoking ruins</text>
</g>
<!-- room_10&#45;&gt;room_28 -->
<g id="edge1" class="edge">
<title>room_10&#45;&gt;room_28</title>
<path fill="none" stroke="black" d="M115.73,-458.77C124.08,-458.08 132.68,-457.24 141.03,-456.3"/>
<polygon fill="black" stroke="black" points="141.55,-459.76 151.07,-455.09 140.72,-452.81 141.55,-459.76"/>
<text text-anchor="middle" x="123.33" y="-460.33" font-family="Times,serif" font-size="14.00">w</text>
</g>
<!-- room_28&#45;&gt;room_10 -->
<g id="edge2" class="edge">
<title>room_28&#45;&gt;room_10</title>
<path fill="none" stroke="black" d="M138.27,-443.16C130.13,-443.85 121.82,-444.69 113.76,-445.62"/>
<polygon fill="black" stroke="black" points="113.24,-442.15 103.74,-446.84 114.09,-449.1 113.24,-442.15"/>
<text text-anchor="middle" x="122.91" y="-433.19" font-family="Times,serif" font-size="14.00">e</text>
</g>
<!-- room_35 -->
<g id="node3" class="node">
<title>room_35</title>
<ellipse fill="none" stroke="black" cx="516.14" cy="-195.84" rx="73.93" ry="18"/>
<text text-anchor="middle" x="516.14" y="-191.64" font-family="Times,serif" font-size="14.00">Dark of the Moon</text>
</g>
<!-- room_36 -->
<g id="node4" class="node">
<title>room_36</title>
<ellipse fill="none" stroke="black" cx="628.37" cy="-299.69" rx="59.94" ry="18"/>
<text text-anchor="middle" x="628.37" y="-295.49" font-family="Times,serif" font-size="14.00">Starless Night</text>
</g>
<!-- room_35&#45;&gt;room_36 -->
<g id="edge3" class="edge">
<title>room_35&#45;&gt;room_36</title>
<path fill="none" stroke="black" d="M528.45,-213.84C544.33,-231.32 572.3,-257.74 594.66,-276.71"/>
<polygon fill="black" stroke="black" points="592.69,-279.62 602.61,-283.33 597.17,-274.24 592.69,-279.62"/>
<text text-anchor="middle" x="558.83" y="-248.07" font-family="Times,serif" font-size="14.00">s</text>
</g>
<!-- room_36&#45;&gt;room_35 -->
<g id="edge4" class="edge">
<title>room_36&#45;&gt;room_35</title>
<path fill="none" stroke="black" d="M616.05,-281.69C600.37,-264.42 572.9,-238.44 550.69,-219.53"/>
<polygon fill="black" stroke="black" points="552.69,-216.64 542.77,-212.91 548.2,-222.01 552.69,-216.64"/>
<text text-anchor="middle" x="579.87" y="-253.41" font-family="Times,serif" font-size="14.00">n</text>
</g>
<!-- room_40 -->
<g id="node5" class="node">
<title>room_40</title>
<ellipse fill="none" stroke="black" cx="741.39" cy="-170.93" rx="49.33" ry="18"/>
<text text-anchor="middle" x="741.39" y="-166.73" font-family="Times,serif" font-size="14.00">War Dance</text>
</g>
<!-- room_36&#45;&gt;room_40 -->
<g id="edge5" class="edge">
<title>room_36&#45;&gt;room_40</title>
<path fill="none" stroke="black" d="M643.85,-282.05C663.38,-259.81 697.1,-221.4 719.32,-196.08"/>
<polygon fill="black" stroke="black" points="722.14,-198.18 726.1,-188.35 716.87,-193.56 722.14,-198.18"/>
<text text-anchor="middle" x="678.86" y="-241.87" font-family="Times,serif" font-size="14.00">s</text>
</g>
<!-- room_90 -->
<g id="node6" class="node">
<title>room_90</title>
<ellipse fill="none" stroke="black" cx="483.01" cy="-370.96" rx="69.1" ry="18"/>
<text text-anchor="middle" x="483.01" y="-366.76" font-family="Times,serif" font-size="14.00">winding hallway</text>
</g>
<!-- room_36&#45;&gt;room_90 -->
<g id="edge6" class="edge">
<title>room_36&#45;&gt;room_90</title>
<path fill="none" stroke="black" d="M596.83,-315.15C575.69,-325.51 547.64,-339.27 524.67,-350.53"/>
<polygon fill="black" stroke="black" points="522.93,-347.48 515.5,-355.03 526.02,-353.77 522.93,-347.48"/>
<text text-anchor="middle" x="557.64" y="-335.64" font-family="Times,serif" font-size="14.00">e</text>
</g>
<!-- room_269 -->
<g id="node7" class="node">
<title>room_269</title>
<ellipse fill="none" stroke="black" cx="700.47" cy="-446.72" rx="54.62" ry="18"/>
<text text-anchor="middle" x="700.47" y="-442.52" font-family="Times,serif" font-size="14.00">Under Stone</text>
</g>
<!-- room_36&#45;&gt;room_269 -->
<g id="edge7" class="edge">
<title>room_36&#45;&gt;room_269</title>
<path fill="none" stroke="black" d="M637.21,-317.71C649.7,-343.18 672.59,-389.87 687.15,-419.55"/>
<polygon fill="black" stroke="black" points="684.01,-421.1 691.55,-428.54 690.29,-418.02 684.01,-421.1"/>
<text text-anchor="middle" x="657.12" y="-371.43" font-family="Times,serif" font-size="14.00">w</text>
</g>
<!-- room_63 -->
<g id="node8" class="node">
<title>room_63</title>
<ellipse fill="none" stroke="black" cx="879.59" cy="-251.29" rx="62.16" ry="18"/>
<text text-anchor="middle" x="879.59" y="-247.09" font-family="Times,serif" font-size="14.00">Wind Blowing</text>
</g>
<!-- room_40&#45;&gt;room_63 -->
<g id="edge8" class="edge">
<title>room_40&#45;&gt;room_63</title>
<path fill="none" stroke="black" d="M760.15,-187.67C778.97,-200.61 808.61,-218.33 833.67,-231.87"/>
<polygon fill="black" stroke="black" points="832.19,-235.05 842.66,-236.65 835.48,-228.87 832.19,-235.05"/>
<text text-anchor="middle" x="793.41" y="-212.57" font-family="Times,serif" font-size="14.00">n</text>
</g>
<!-- room_71 -->
<g id="node9" class="node">
<title>room_71</title>
<ellipse fill="none" stroke="black" cx="654.55" cy="-32.5" rx="62.89" ry="18"/>
<text text-anchor="middle" x="654.55" y="-28.3" font-family="Times,serif" font-size="14.00">Water Flowing</text>
</g>
<!-- room_40&#45;&gt;room_71 -->
<g id="edge9" class="edge">
<title>room_40&#45;&gt;room_71</title>
<path fill="none" stroke="black" d="M735.38,-152.95C723.33,-128.85 696.96,-86.09 677.49,-58.5"/>
<polygon fill="black" stroke="black" points="680.13,-56.18 671.44,-50.12 674.45,-60.28 680.13,-56.18"/>
<text text-anchor="middle" x="703.71" y="-108.53" font-family="Times,serif" font-size="14.00">s</text>
</g>
<!-- room_46 -->
<g id="node10" class="node">
<title>room_46</title>
<ellipse fill="none" stroke="black" cx="889.63" cy="-117.61" rx="55.58" ry="18"/>
<text text-anchor="middle" x="889.63" y="-113.41" font-family="Times,serif" font-size="14.00">Fire Leaping</text>
</g>
<!-- room_40&#45;&gt;room_46 -->
<g id="edge10" class="edge">
<title>room_40&#45;&gt;room_46</title>
<path fill="none" stroke="black" d="M784.36,-161.97C805.97,-155.13 831.88,-145.78 852.6,-137.34"/>
<polygon fill="black" stroke="black" points="854.13,-140.49 862.01,-133.41 851.44,-134.03 854.13,-140.49"/>
<text text-anchor="middle" x="815.37" y="-152.45" font-family="Times,serif" font-size="14.00">e</text>
</g>
<!-- room_65 -->
<g id="node11" class="node">
<title>room_65</title>
<ellipse fill="none" stroke="black" cx="784.74" cy="-18" rx="59.45" ry="18"/>
<text text-anchor="middle" x="784.74" y="-13.8" font-family="Times,serif" font-size="14.00">Earth Moving</text>
</g>
<!-- room_40&#45;&gt;room_65 -->
<g id="edge11" class="edge">
<title>room_40&#45;&gt;room_65</title>
<path fill="none" stroke="black" d="M751.26,-153.14C761.42,-126.8 775.68,-77.22 782.27,-45.98"/>
<polygon fill="black" stroke="black" points="785.71,-46.64 784.2,-36.15 778.84,-45.3 785.71,-46.64"/>
<text text-anchor="middle" x="761.71" y="-102.36" font-family="Times,serif" font-size="14.00">w</text>
</g>
<!-- room_91 -->
<g id="node12" class="node">
<title>room_91</title>
<ellipse fill="none" stroke="black" cx="341.2" cy="-420.58" rx="72.49" ry="18"/>
<text text-anchor="middle" x="341.2" y="-416.38" font-family="Times,serif" font-size="14.00">Hall of Mourning</text>
</g>
<!-- room_90&#45;&gt;room_91 -->
<g id="edge16" class="edge">
<title>room_90&#45;&gt;room_91</title>
<path fill="none" stroke="black" d="M441.61,-385.44C426.45,-390.75 409.09,-396.83 393.12,-402.41"/>
<polygon fill="black" stroke="black" points="391.67,-399.21 383.39,-405.82 393.98,-405.82 391.67,-399.21"/>
<text text-anchor="middle" x="420.47" y="-396.73" font-family="Times,serif" font-size="14.00">e</text>
</g>
<!-- room_270 -->
<g id="node13" class="node">
<title>room_270</title>
<ellipse fill="none" stroke="black" cx="770.89" cy="-581.15" rx="84.31" ry="18"/>
<text text-anchor="middle" x="770.89" y="-576.95" font-family="Times,serif" font-size="14.00">Tapestry of Shadows</text>
</g>
<!-- room_269&#45;&gt;room_270 -->
<g id="edge18" class="edge">
<title>room_269&#45;&gt;room_270</title>
<path fill="none" stroke="black" d="M704.79,-464.78C714.06,-487.83 734.57,-527.78 750.43,-554.36"/>
<polygon fill="black" stroke="black" points="747.61,-556.46 755.83,-563.16 753.58,-552.8 747.61,-556.46"/>
<text text-anchor="middle" x="722.55" y="-512.37" font-family="Times,serif" font-size="14.00">w</text>
</g>
<!-- room_63&#45;&gt;room_40 -->
<g id="edge13" class="edge">
<title>room_63&#45;&gt;room_40</title>
<path fill="none" stroke="black" d="M860.25,-234.16C840.66,-220.74 809.79,-202.36 784.4,-188.79"/>
<polygon fill="black" stroke="black" points="785.81,-185.57 775.33,-184.02 782.55,-191.77 785.81,-185.57"/>
<text text-anchor="middle" x="819.6" y="-214.27" font-family="Times,serif" font-size="14.00">s</text>
</g>
<!-- room_71&#45;&gt;room_40 -->
<g id="edge15" class="edge">
<title>room_71&#45;&gt;room_40</title>
<path fill="none" stroke="black" d="M660.56,-50.48C672.68,-74.71 699.28,-117.82 718.78,-145.39"/>
<polygon fill="black" stroke="black" points="716.14,-147.71 724.84,-153.75 721.81,-143.6 716.14,-147.71"/>
<text text-anchor="middle" x="686.17" y="-100.74" font-family="Times,serif" font-size="14.00">n</text>
</g>
<!-- room_46&#45;&gt;room_40 -->
<g id="edge12" class="edge">
<title>room_46&#45;&gt;room_40</title>
<path fill="none" stroke="black" d="M843.04,-127.73C821.83,-134.56 797.11,-143.55 777.35,-151.64"/>
<polygon fill="black" stroke="black" points="775.96,-148.43 768.09,-155.53 778.67,-154.89 775.96,-148.43"/>
<text text-anchor="middle" x="805.14" y="-142.49" font-family="Times,serif" font-size="14.00">w</text>
</g>
<!-- room_65&#45;&gt;room_40 -->
<g id="edge14" class="edge">
<title>room_65&#45;&gt;room_40</title>
<path fill="none" stroke="black" d="M774.87,-35.79C764.71,-62.14 750.45,-111.72 743.86,-142.95"/>
<polygon fill="black" stroke="black" points="740.42,-142.29 741.93,-152.78 747.29,-143.64 740.42,-142.29"/>
<text text-anchor="middle" x="756.25" y="-78.17" font-family="Times,serif" font-size="14.00">e</text>
</g>
<!-- room_91&#45;&gt;room_28 -->
<g id="edge17" class="edge">
<title>room_91&#45;&gt;room_28</title>
<path fill="none" stroke="black" d="M280.35,-430.56C274.24,-431.56 268.03,-432.58 261.9,-433.58"/>
<polygon fill="black" stroke="black" points="261,-430.18 251.7,-435.25 262.13,-437.09 261,-430.18"/>
<text text-anchor="middle" x="268.4" y="-434.87" font-family="Times,serif" font-size="14.00">s</text>
</g>
<!-- room_270&#45;&gt;room_269 -->
<g id="edge19" class="edge">
<title>room_270&#45;&gt;room_269</title>
<path fill="none" stroke="black" d="M766.57,-563.08C757.24,-539.9 736.56,-499.63 720.66,-473.05"/>
<polygon fill="black" stroke="black" points="723.48,-470.95 715.26,-464.27 717.51,-474.62 723.48,-470.95"/>
<text text-anchor="middle" x="740.51" y="-520.87" font-family="Times,serif" font-size="14.00">e</text>
</g>
</g>
</svg>
