<?xml version="1.0" encoding="UTF-8" standalone="no"?>
<!DOCTYPE svg PUBLIC "-//W3C//DTD SVG 1.1//EN"
 "http://www.w3.org/Graphics/SVG/1.1/DTD/svg11.dtd">
<!-- Generated by graphviz version 2.42.3 (20191010.1750)
 -->
<!-- Title: monster Pages: 1 -->
<svg width="1172pt" height="1118pt"
 viewBox="0.00 0.00 1171.70 1117.85" xmlns="http://www.w3.org/2000/svg" xmlns:xlink="http://www.w3.org/1999/xlink">
<g id="graph0" class="graph" transform="scale(1 1) rotate(0) translate(4 1113.85)">
<title>monster</title>
<polygon fill="white" stroke="transparent" points="-4,4 -4,-1113.85 1167.7,-1113.85 1167.7,4 -4,4"/>
<!-- room_80 -->
<g id="node1" class="node">
<title>room_80</title>
<ellipse fill="none" stroke="black" cx="435.65" cy="-186.12" rx="72.24" ry="18"/>
<text text-anchor="middle" x="435.65" y="-181.92" font-family="Times,serif" font-size="14.00">Temple of Apollo</text>
</g>
<!-- room_201 -->
<g id="node2" class="node">
<title>room_201</title>
<ellipse fill="none" stroke="black" cx="358.96" cy="-18" rx="69.56" ry="18"/>
<text text-anchor="middle" x="358.96" y="-13.8" font-family="Times,serif" font-size="14.00">Oracle of Delphi</text>
</g>
<!-- room_80&#45;&gt;room_201 -->
<g id="edge1" class="edge">
<title>room_80&#45;&gt;room_201</title>
<path fill="none" stroke="black" d="M431.99,-167.95C421.73,-138.23 395.19,-79.22 376.92,-44.74"/>
<polygon fill="black" stroke="black" points="379.86,-42.82 372,-35.7 373.71,-46.16 379.86,-42.82"/>
<text text-anchor="middle" x="401.35" y="-109.14" font-family="Times,serif" font-size="14.00">e</text>
</g>
<!-- room_500 -->
<g id="node3" class="node">
<title>room_500</title>
<ellipse fill="none" stroke="black" cx="535.23" cy="-381.5" rx="59.94" ry="18"/>
<text text-anchor="middle" x="535.23" y="-377.3" font-family="Times,serif" font-size="14.00">Rickety Stairs</text>
</g>
<!-- room_80&#45;&gt;room_500 -->
<g id="edge2" class="edge">
<title>room_80&#45;&gt;room_500</title>
<path fill="none" stroke="black" d="M440.45,-204.23C454.36,-238.95 492.65,-314.8 516.24,-355.12"/>
<polygon fill="black" stroke="black" points="513.33,-357.08 521.47,-363.87 519.34,-353.49 513.33,-357.08"/>
<text text-anchor="middle" x="474.85" y="-282.48" font-family="Times,serif" font-size="14.00">d</text>
</g>
<!-- room_201&#45;&gt;room_80 -->
<g id="edge3" class="edge">
<title>room_201&#45;&gt;room_80</title>
<path fill="none" stroke="black" d="M362.62,-36.17C372.86,-65.81 399.28,-124.58 417.55,-159.11"/>
<polygon fill="black" stroke="black" points="414.61,-161.04 422.46,-168.16 420.76,-157.7 414.61,-161.04"/>
<text text-anchor="middle" x="385.03" y="-100.44" font-family="Times,serif" font-size="14.00">w</text>
</g>
<!-- room_500&#45;&gt;room_80 -->
<g id="edge5" class="edge">
<title>room_500&#45;&gt;room_80</title>
<path fill="none" stroke="black" d="M530.43,-363.38C516.55,-328.76 478.43,-253.2 454.82,-212.8"/>
<polygon fill="black" stroke="black" points="457.72,-210.83 449.59,-204.03 451.71,-214.41 457.72,-210.83"/>
<text text-anchor="middle" x="489.12" y="-290.89" font-family="Times,serif" font-size="14.00">u</text>
</g>
<!-- room_510 -->
<g id="node4" class="node">
<title>room_510</title>
<ellipse fill="none" stroke="black" cx="560.35" cy="-571.7" rx="87.44" ry="18"/>
<text text-anchor="middle" x="560.35" y="-567.5" font-family="Times,serif" font-size="14.00">Elemental Crossroads</text>
</g>
<!-- room_500&#45;&gt;room_510 -->
<g id="edge4" class="edge">
<title>room_500&#45;&gt;room_510</title>
<path fill="none" stroke="black" d="M529.44,-399.43C527.29,-432.75 536.09,-504.32 546.55,-543.93"/>
<polygon fill="black" stroke="black" points="543.25,-545.1 549.39,-553.73 549.97,-543.15 543.25,-545.1"/>
<text text-anchor="middle" x="532.94" y="-474.48" font-family="Times,serif" font-size="14.00">w</text>
</g>
<!-- room_500&#45;&gt;room_510 -->
<g id="edge6" class="edge">
<title>room_500&#45;&gt;room_510</title>
<path fill="none" stroke="black" d="M546.15,-399.32C556.82,-432.5 566.67,-503.92 566.47,-543.64"/>
<polygon fill="black" stroke="black" points="562.97,-543.6 566.15,-553.71 569.96,-543.82 562.97,-543.6"/>
<text text-anchor="middle" x="552.81" y="-474.28" font-family="Times,serif" font-size="14.00">d</text>
</g>
<!-- room_510&#45;&gt;room_500 -->
<g id="edge11" class="edge">
<title>room_510&#45;&gt;room_500</title>
<path fill="none" stroke="black" d="M557.94,-553.46C553.55,-520.16 544.19,-449.3 538.96,-409.72"/>
<polygon fill="black" stroke="black" points="542.41,-409.13 537.63,-399.68 535.47,-410.05 542.41,-409.13"/>
<text text-anchor="middle" x="544.95" y="-484.39" font-family="Times,serif" font-size="14.00">u</text>
</g>
<!-- room_511 -->
<g id="node5" class="node">
<title>room_511</title>
<ellipse fill="none" stroke="black" cx="742.97" cy="-525.4" rx="83.75" ry="18"/>
<text text-anchor="middle" x="742.97" y="-521.2" font-family="Times,serif" font-size="14.00">Arlindel&#39;s Testimony</text>
</g>
<!-- room_510&#45;&gt;room_511 -->
<g id="edge7" class="edge">
<title>room_510&#45;&gt;room_511</title>
<path fill="none" stroke="black" d="M630.22,-560.74C651.46,-555.74 674.33,-549.78 693.89,-544.15"/>
<polygon fill="black" stroke="black" points="694.89,-547.5 703.5,-541.32 692.92,-540.78 694.89,-547.5"/>
<text text-anchor="middle" x="658.56" y="-555.24" font-family="Times,serif" font-size="14.00">n</text>
</g>
<!-- room_521 -->
<g id="node6" class="node">
<title>room_521</title>
<ellipse fill="none" stroke="black" cx="401.67" cy="-682.75" rx="77.08" ry="18"/>
<text text-anchor="middle" x="401.67" y="-678.55" font-family="Times,serif" font-size="14.00">Tomb of Fastigonn</text>
</g>
<!-- room_510&#45;&gt;room_521 -->
<g id="edge8" class="edge">
<title>room_510&#45;&gt;room_521</title>
<path fill="none" stroke="black" d="M527.02,-588.39C497.14,-607.11 454.03,-637.33 426.92,-658.6"/>
<polygon fill="black" stroke="black" points="424.67,-655.91 419.05,-664.89 429.04,-661.38 424.67,-655.91"/>
<text text-anchor="middle" x="474.24" y="-626.29" font-family="Times,serif" font-size="14.00">s</text>
</g>
<!-- room_516 -->
<g id="node7" class="node">
<title>room_516</title>
<ellipse fill="none" stroke="black" cx="437.63" cy="-469.85" rx="77.24" ry="18"/>
<text text-anchor="middle" x="437.63" y="-465.65" font-family="Times,serif" font-size="14.00">Wystryk Memorial</text>
</g>
<!-- room_510&#45;&gt;room_516 -->
<g id="edge9" class="edge">
<title>room_510&#45;&gt;room_516</title>
<path fill="none" stroke="black" d="M546.38,-553.8C529.06,-536.8 499.05,-511.36 474.91,-492.88"/>
<polygon fill="black" stroke="black" points="476.74,-489.88 466.65,-486.66 472.53,-495.47 476.74,-489.88"/>
<text text-anchor="middle" x="507.54" y="-526.14" font-family="Times,serif" font-size="14.00">e</text>
</g>
<!-- room_526 -->
<g id="node8" class="node">
<title>room_526</title>
<ellipse fill="none" stroke="black" cx="632.22" cy="-740.62" rx="79.71" ry="18"/>
<text text-anchor="middle" x="632.22" y="-736.42" font-family="Times,serif" font-size="14.00">Shrine of Exomerol</text>
</g>
<!-- room_510&#45;&gt;room_526 -->
<g id="edge10" class="edge">
<title>room_510&#45;&gt;room_526</title>
<path fill="none" stroke="black" d="M563.5,-589.85C572.91,-619.63 597.76,-678.91 615.04,-713.63"/>
<polygon fill="black" stroke="black" points="612.02,-715.41 619.69,-722.72 618.25,-712.22 612.02,-715.41"/>
<text text-anchor="middle" x="584.21" y="-654.54" font-family="Times,serif" font-size="14.00">w</text>
</g>
<!-- room_511&#45;&gt;room_510 -->
<g id="edge12" class="edge">
<title>room_511&#45;&gt;room_510</title>
<path fill="none" stroke="black" d="M674.66,-535.98C653.21,-541.01 629.94,-547.04 610.04,-552.77"/>
<polygon fill="black" stroke="black" points="608.87,-549.46 600.26,-555.64 610.84,-556.18 608.87,-549.46"/>
<text text-anchor="middle" x="639.62" y="-533.18" font-family="Times,serif" font-size="14.00">s</text>
</g>
<!-- room_512 -->
<g id="node9" class="node">
<title>room_512</title>
<ellipse fill="none" stroke="black" cx="918.89" cy="-471.02" rx="54.61" ry="18"/>
<text text-anchor="middle" x="918.89" y="-466.82" font-family="Times,serif" font-size="14.00">Hall of Sleet</text>
</g>
<!-- room_511&#45;&gt;room_512 -->
<g id="edge13" class="edge">
<title>room_511&#45;&gt;room_512</title>
<path fill="none" stroke="black" d="M804.42,-513.13C828.97,-506.14 856.55,-497.42 878.49,-489.64"/>
<polygon fill="black" stroke="black" points="879.93,-492.84 888.14,-486.15 877.55,-486.26 879.93,-492.84"/>
<text text-anchor="middle" x="838.35" y="-504.19" font-family="Times,serif" font-size="14.00">e</text>
</g>
<!-- room_521&#45;&gt;room_510 -->
<g id="edge47" class="edge">
<title>room_521&#45;&gt;room_510</title>
<path fill="none" stroke="black" d="M434.62,-666.29C464.46,-647.62 507.74,-617.3 534.97,-595.95"/>
<polygon fill="black" stroke="black" points="537.25,-598.61 542.88,-589.63 532.88,-593.14 537.25,-598.61"/>
<text text-anchor="middle" x="481.3" y="-633.92" font-family="Times,serif" font-size="14.00">n</text>
</g>
<!-- room_522 -->
<g id="node19" class="node">
<title>room_522</title>
<ellipse fill="none" stroke="black" cx="244.32" cy="-781.78" rx="61.87" ry="18"/>
<text text-anchor="middle" x="244.32" y="-777.58" font-family="Times,serif" font-size="14.00">Hall of Smoke</text>
</g>
<!-- room_521&#45;&gt;room_522 -->
<g id="edge48" class="edge">
<title>room_521&#45;&gt;room_522</title>
<path fill="none" stroke="black" d="M365.69,-698.76C336.84,-715.05 297.03,-740.18 270.97,-758.62"/>
<polygon fill="black" stroke="black" points="268.75,-755.9 262.69,-764.59 272.85,-761.57 268.75,-755.9"/>
<text text-anchor="middle" x="313.28" y="-731.49" font-family="Times,serif" font-size="14.00">w</text>
</g>
<!-- room_516&#45;&gt;room_510 -->
<g id="edge31" class="edge">
<title>room_516&#45;&gt;room_510</title>
<path fill="none" stroke="black" d="M451.6,-487.74C468.81,-504.63 498.55,-529.86 522.61,-548.31"/>
<polygon fill="black" stroke="black" points="520.76,-551.3 530.85,-554.53 524.98,-545.71 520.76,-551.3"/>
<text text-anchor="middle" x="482.05" y="-520.82" font-family="Times,serif" font-size="14.00">w</text>
</g>
<!-- room_517 -->
<g id="node15" class="node">
<title>room_517</title>
<ellipse fill="none" stroke="black" cx="385.12" cy="-299.51" rx="59.45" ry="18"/>
<text text-anchor="middle" x="385.12" y="-295.31" font-family="Times,serif" font-size="14.00">Hall of Steam</text>
</g>
<!-- room_516&#45;&gt;room_517 -->
<g id="edge30" class="edge">
<title>room_516&#45;&gt;room_517</title>
<path fill="none" stroke="black" d="M436.45,-451.64C430.35,-421.74 412.31,-362.1 399.07,-327.03"/>
<polygon fill="black" stroke="black" points="402.21,-325.45 395.31,-317.41 395.69,-328 402.21,-325.45"/>
<text text-anchor="middle" x="415.04" y="-392.13" font-family="Times,serif" font-size="14.00">s</text>
</g>
<!-- room_526&#45;&gt;room_510 -->
<g id="edge65" class="edge">
<title>room_526&#45;&gt;room_510</title>
<path fill="none" stroke="black" d="M629.08,-722.47C619.66,-692.69 594.81,-633.41 577.54,-598.69"/>
<polygon fill="black" stroke="black" points="580.55,-596.91 572.88,-589.6 574.32,-600.1 580.55,-596.91"/>
<text text-anchor="middle" x="600.2" y="-663.38" font-family="Times,serif" font-size="14.00">e</text>
</g>
<!-- room_527 -->
<g id="node23" class="node">
<title>room_527</title>
<ellipse fill="none" stroke="black" cx="706.65" cy="-911.28" rx="53.66" ry="18"/>
<text text-anchor="middle" x="706.65" y="-907.08" font-family="Times,serif" font-size="14.00">Hall of Dust</text>
</g>
<!-- room_526&#45;&gt;room_527 -->
<g id="edge64" class="edge">
<title>room_526&#45;&gt;room_527</title>
<path fill="none" stroke="black" d="M635.53,-758.66C645.35,-788.77 671.39,-849.34 689.27,-884.46"/>
<polygon fill="black" stroke="black" points="686.34,-886.41 694.08,-893.65 692.54,-883.17 686.34,-886.41"/>
<text text-anchor="middle" x="658.9" y="-824.36" font-family="Times,serif" font-size="14.00">n</text>
</g>
<!-- room_512&#45;&gt;room_511 -->
<g id="edge16" class="edge">
<title>room_512&#45;&gt;room_511</title>
<path fill="none" stroke="black" d="M870.42,-479.68C844.35,-486.74 812.44,-496.61 787.06,-505.48"/>
<polygon fill="black" stroke="black" points="785.58,-502.29 777.33,-508.94 787.93,-508.88 785.58,-502.29"/>
<text text-anchor="middle" x="823.69" y="-495.38" font-family="Times,serif" font-size="14.00">w</text>
</g>
<!-- room_530 -->
<g id="node10" class="node">
<title>room_530</title>
<ellipse fill="none" stroke="black" cx="1037.34" cy="-616.34" rx="77.33" ry="18"/>
<text text-anchor="middle" x="1037.34" y="-612.14" font-family="Times,serif" font-size="14.00">Corridor of Storms</text>
</g>
<!-- room_512&#45;&gt;room_530 -->
<g id="edge14" class="edge">
<title>room_512&#45;&gt;room_530</title>
<path fill="none" stroke="black" d="M927.98,-489.04C945.38,-514.77 983.29,-561.88 1009.63,-591.06"/>
<polygon fill="black" stroke="black" points="1007.38,-593.79 1016.73,-598.79 1012.54,-589.06 1007.38,-593.79"/>
<text text-anchor="middle" x="965.3" y="-542.85" font-family="Times,serif" font-size="14.00">n</text>
</g>
<!-- room_513 -->
<g id="node11" class="node">
<title>room_513</title>
<ellipse fill="none" stroke="black" cx="929.09" cy="-283.17" rx="65.71" ry="18"/>
<text text-anchor="middle" x="929.09" y="-278.97" font-family="Times,serif" font-size="14.00">Frozen Caverns</text>
</g>
<!-- room_512&#45;&gt;room_513 -->
<g id="edge15" class="edge">
<title>room_512&#45;&gt;room_513</title>
<path fill="none" stroke="black" d="M924.09,-452.9C928.98,-420.07 933.01,-350.56 932.54,-311.44"/>
<polygon fill="black" stroke="black" points="936.03,-311.18 932.28,-301.27 929.03,-311.36 936.03,-311.18"/>
<text text-anchor="middle" x="925.2" y="-384.97" font-family="Times,serif" font-size="14.00">e</text>
</g>
<!-- room_530&#45;&gt;room_512 -->
<g id="edge78" class="edge">
<title>room_530&#45;&gt;room_512</title>
<path fill="none" stroke="black" d="M1028.25,-598.32C1010.75,-572.46 972.52,-524.96 946.16,-495.82"/>
<polygon fill="black" stroke="black" points="948.41,-493.1 939.06,-488.12 943.27,-497.84 948.41,-493.1"/>
<text text-anchor="middle" x="984.48" y="-549.87" font-family="Times,serif" font-size="14.00">s</text>
</g>
<!-- room_530&#45;&gt;room_530 -->
<g id="edge77" class="edge">
<title>room_530&#45;&gt;room_530</title>
<path fill="none" stroke="black" d="M1113.7,-619.4C1125.07,-618.93 1132.75,-617.91 1132.75,-616.34 1132.75,-615.32 1129.44,-614.52 1123.95,-613.96"/>
<polygon fill="black" stroke="black" points="1123.91,-610.45 1113.7,-613.28 1123.44,-617.44 1123.91,-610.45"/>
<text text-anchor="middle" x="1136.25" y="-612.14" font-family="Times,serif" font-size="14.00">n</text>
</g>
<!-- room_530&#45;&gt;room_530 -->
<g id="edge79" class="edge">
<title>room_530&#45;&gt;room_530</title>
<path fill="none" stroke="black" d="M1109.33,-623.09C1132.44,-623.02 1150.75,-620.77 1150.75,-616.34 1150.75,-612.59 1137.59,-610.4 1119.51,-609.78"/>
<polygon fill="black" stroke="black" points="1119.39,-606.27 1109.33,-609.59 1119.26,-613.27 1119.39,-606.27"/>
<text text-anchor="middle" x="1153.86" y="-612.14" font-family="Times,serif" font-size="14.00">e</text>
</g>
<!-- room_529 -->
<g id="node25" class="node">
<title>room_529</title>
<ellipse fill="none" stroke="black" cx="1040.16" cy="-802.09" rx="71.49" ry="18"/>
<text text-anchor="middle" x="1040.16" y="-797.89" font-family="Times,serif" font-size="14.00">Corridor of Wind</text>
</g>
<!-- room_530&#45;&gt;room_529 -->
<g id="edge80" class="edge">
<title>room_530&#45;&gt;room_529</title>
<path fill="none" stroke="black" d="M1033.41,-634.55C1030.81,-667.06 1031.57,-735.27 1034.72,-773.88"/>
<polygon fill="black" stroke="black" points="1031.24,-774.3 1035.67,-783.93 1038.21,-773.64 1031.24,-774.3"/>
<text text-anchor="middle" x="1029.01" y="-707.02" font-family="Times,serif" font-size="14.00">w</text>
</g>
<!-- room_513&#45;&gt;room_512 -->
<g id="edge20" class="edge">
<title>room_513&#45;&gt;room_512</title>
<path fill="none" stroke="black" d="M923.89,-301.29C918.99,-334.12 914.96,-403.63 915.44,-442.75"/>
<polygon fill="black" stroke="black" points="911.95,-443.01 915.7,-452.92 918.94,-442.84 911.95,-443.01"/>
<text text-anchor="middle" x="914.61" y="-374.82" font-family="Times,serif" font-size="14.00">w</text>
</g>
<!-- room_513&#45;&gt;room_513 -->
<g id="edge17" class="edge">
<title>room_513&#45;&gt;room_513</title>
<path fill="none" stroke="black" d="M994.13,-286.32C1005.24,-285.89 1012.94,-284.84 1012.94,-283.17 1012.94,-282.07 1009.63,-281.24 1004.21,-280.68"/>
<polygon fill="black" stroke="black" points="1004.34,-277.18 994.13,-280.02 1003.88,-284.17 1004.34,-277.18"/>
<text text-anchor="middle" x="1016.44" y="-278.97" font-family="Times,serif" font-size="14.00">n</text>
</g>
<!-- room_513&#45;&gt;room_513 -->
<g id="edge19" class="edge">
<title>room_513&#45;&gt;room_513</title>
<path fill="none" stroke="black" d="M990.24,-289.91C1012.62,-290.09 1030.94,-287.84 1030.94,-283.17 1030.94,-279.22 1017.9,-277.01 1000.38,-276.52"/>
<polygon fill="black" stroke="black" points="1000.27,-273.02 990.24,-276.43 1000.21,-280.02 1000.27,-273.02"/>
<text text-anchor="middle" x="1034.05" y="-278.97" font-family="Times,serif" font-size="14.00">e</text>
</g>
<!-- room_514 -->
<g id="node12" class="node">
<title>room_514</title>
<ellipse fill="none" stroke="black" cx="777.8" cy="-161.28" rx="64.76" ry="18"/>
<text text-anchor="middle" x="777.8" y="-157.08" font-family="Times,serif" font-size="14.00">Liquid Caverns</text>
</g>
<!-- room_513&#45;&gt;room_514 -->
<g id="edge18" class="edge">
<title>room_513&#45;&gt;room_514</title>
<path fill="none" stroke="black" d="M914.28,-265.42C891.3,-243.7 846.65,-207.22 814.64,-183.64"/>
<polygon fill="black" stroke="black" points="816.54,-180.69 806.39,-177.64 812.42,-186.35 816.54,-180.69"/>
<text text-anchor="middle" x="861.74" y="-227.33" font-family="Times,serif" font-size="14.00">s</text>
</g>
<!-- room_549 -->
<g id="node13" class="node">
<title>room_549</title>
<ellipse fill="none" stroke="black" cx="1077.92" cy="-191.18" rx="85.55" ry="18"/>
<text text-anchor="middle" x="1077.92" y="-186.98" font-family="Times,serif" font-size="14.00">Cavern Beyond Time</text>
</g>
<!-- room_513&#45;&gt;room_549 -->
<g id="edge21" class="edge">
<title>room_513&#45;&gt;room_549</title>
<path fill="none" stroke="black" d="M964.75,-267.83C990.96,-253.32 1026.03,-231.6 1050.17,-214.9"/>
<polygon fill="black" stroke="black" points="1052.38,-217.62 1058.53,-208.99 1048.35,-211.9 1052.38,-217.62"/>
<text text-anchor="middle" x="1003.96" y="-244.16" font-family="Times,serif" font-size="14.00">d</text>
</g>
<!-- room_514&#45;&gt;room_513 -->
<g id="edge22" class="edge">
<title>room_514&#45;&gt;room_513</title>
<path fill="none" stroke="black" d="M792.61,-179.02C815.59,-200.74 860.24,-237.22 892.25,-260.81"/>
<polygon fill="black" stroke="black" points="890.35,-263.76 900.5,-266.8 894.47,-258.1 890.35,-263.76"/>
<text text-anchor="middle" x="838.93" y="-222.72" font-family="Times,serif" font-size="14.00">n</text>
</g>
<!-- room_514&#45;&gt;room_514 -->
<g id="edge24" class="edge">
<title>room_514&#45;&gt;room_514</title>
<path fill="none" stroke="black" d="M841.74,-164.44C852.91,-164.02 860.68,-162.96 860.68,-161.28 860.68,-160.17 857.33,-159.33 851.88,-158.77"/>
<polygon fill="black" stroke="black" points="851.95,-155.27 841.74,-158.11 851.49,-162.25 851.95,-155.27"/>
<text text-anchor="middle" x="863.79" y="-157.08" font-family="Times,serif" font-size="14.00">e</text>
</g>
<!-- room_514&#45;&gt;room_514 -->
<g id="edge25" class="edge">
<title>room_514&#45;&gt;room_514</title>
<path fill="none" stroke="black" d="M838.12,-168.01C860.39,-168.22 878.68,-165.97 878.68,-161.28 878.68,-157.32 865.66,-155.1 848.21,-154.62"/>
<polygon fill="black" stroke="black" points="848.15,-151.12 838.12,-154.54 848.09,-158.12 848.15,-151.12"/>
<text text-anchor="middle" x="883.73" y="-157.08" font-family="Times,serif" font-size="14.00">w</text>
</g>
<!-- room_515 -->
<g id="node14" class="node">
<title>room_515</title>
<ellipse fill="none" stroke="black" cx="583.87" cy="-175.47" rx="67.66" ry="18"/>
<text text-anchor="middle" x="583.87" y="-171.27" font-family="Times,serif" font-size="14.00">Boiling Caverns</text>
</g>
<!-- room_514&#45;&gt;room_515 -->
<g id="edge23" class="edge">
<title>room_514&#45;&gt;room_515</title>
<path fill="none" stroke="black" d="M713.03,-159.6C692.71,-160.63 670.27,-162.26 649.88,-164.17"/>
<polygon fill="black" stroke="black" points="649.35,-160.71 639.73,-165.17 650.03,-167.68 649.35,-160.71"/>
<text text-anchor="middle" x="678.73" y="-164.69" font-family="Times,serif" font-size="14.00">s</text>
</g>
<!-- room_549&#45;&gt;room_513 -->
<g id="edge81" class="edge">
<title>room_549&#45;&gt;room_513</title>
<path fill="none" stroke="black" d="M1040.35,-207.58C1014.1,-222.22 979.7,-243.59 956.11,-259.96"/>
<polygon fill="black" stroke="black" points="954.09,-257.1 947.95,-265.74 958.13,-262.81 954.09,-257.1"/>
<text text-anchor="middle" x="994.73" y="-236.57" font-family="Times,serif" font-size="14.00">u</text>
</g>
<!-- room_515&#45;&gt;room_514 -->
<g id="edge26" class="edge">
<title>room_515&#45;&gt;room_514</title>
<path fill="none" stroke="black" d="M651.62,-176.99C671.77,-175.92 693.78,-174.29 713.7,-172.39"/>
<polygon fill="black" stroke="black" points="714.29,-175.85 723.9,-171.37 713.6,-168.88 714.29,-175.85"/>
<text text-anchor="middle" x="679.16" y="-177.49" font-family="Times,serif" font-size="14.00">n</text>
</g>
<!-- room_515&#45;&gt;room_515 -->
<g id="edge27" class="edge">
<title>room_515&#45;&gt;room_515</title>
<path fill="none" stroke="black" d="M650.8,-178.6C661.98,-178.16 669.7,-177.12 669.7,-175.47 669.7,-174.38 666.37,-173.56 660.93,-173"/>
<polygon fill="black" stroke="black" points="661.01,-169.49 650.8,-172.33 660.55,-176.48 661.01,-169.49"/>
<text text-anchor="middle" x="672.42" y="-171.27" font-family="Times,serif" font-size="14.00">s</text>
</g>
<!-- room_515&#45;&gt;room_515 -->
<g id="edge28" class="edge">
<title>room_515&#45;&gt;room_515</title>
<path fill="none" stroke="black" d="M646.98,-182.21C669.43,-182.34 687.7,-180.09 687.7,-175.47 687.7,-171.56 674.69,-169.35 657.14,-168.83"/>
<polygon fill="black" stroke="black" points="657.02,-165.33 646.98,-168.72 656.94,-172.33 657.02,-165.33"/>
<text text-anchor="middle" x="690.8" y="-171.27" font-family="Times,serif" font-size="14.00">e</text>
</g>
<!-- room_515&#45;&gt;room_517 -->
<g id="edge29" class="edge">
<title>room_515&#45;&gt;room_517</title>
<path fill="none" stroke="black" d="M549.23,-191.06C510.42,-212.66 448.38,-251.43 412.71,-276.38"/>
<polygon fill="black" stroke="black" points="410.36,-273.76 404.24,-282.41 414.41,-279.46 410.36,-273.76"/>
<text text-anchor="middle" x="475.91" y="-236.52" font-family="Times,serif" font-size="14.00">w</text>
</g>
<!-- room_517&#45;&gt;room_516 -->
<g id="edge32" class="edge">
<title>room_517&#45;&gt;room_516</title>
<path fill="none" stroke="black" d="M386.29,-317.71C392.4,-347.62 410.44,-407.25 423.67,-442.33"/>
<polygon fill="black" stroke="black" points="420.53,-443.91 427.44,-451.94 427.05,-441.36 420.53,-443.91"/>
<text text-anchor="middle" x="401.48" y="-382.82" font-family="Times,serif" font-size="14.00">n</text>
</g>
<!-- room_517&#45;&gt;room_515 -->
<g id="edge34" class="edge">
<title>room_517&#45;&gt;room_515</title>
<path fill="none" stroke="black" d="M418.85,-284.42C457.39,-263.03 519.67,-224.15 555.71,-198.99"/>
<polygon fill="black" stroke="black" points="558.15,-201.55 564.28,-192.91 554.1,-195.84 558.15,-201.55"/>
<text text-anchor="middle" x="484.17" y="-244.51" font-family="Times,serif" font-size="14.00">e</text>
</g>
<!-- room_518 -->
<g id="node16" class="node">
<title>room_518</title>
<ellipse fill="none" stroke="black" cx="187.71" cy="-345.98" rx="55.44" ry="18"/>
<text text-anchor="middle" x="187.71" y="-341.78" font-family="Times,serif" font-size="14.00">Trail of Heat</text>
</g>
<!-- room_517&#45;&gt;room_518 -->
<g id="edge33" class="edge">
<title>room_517&#45;&gt;room_518</title>
<path fill="none" stroke="black" d="M330.04,-306.23C299.49,-312.43 261.95,-321.35 233.1,-329.3"/>
<polygon fill="black" stroke="black" points="231.96,-325.98 223.28,-332.06 233.85,-332.72 231.96,-325.98"/>
<text text-anchor="middle" x="278.85" y="-320.56" font-family="Times,serif" font-size="14.00">s</text>
</g>
<!-- room_518&#45;&gt;room_517 -->
<g id="edge35" class="edge">
<title>room_518&#45;&gt;room_517</title>
<path fill="none" stroke="black" d="M239.92,-339.84C270.64,-333.69 309.15,-324.59 338.8,-316.45"/>
<polygon fill="black" stroke="black" points="339.8,-319.8 348.48,-313.73 337.91,-313.06 339.8,-319.8"/>
<text text-anchor="middle" x="285.86" y="-316.95" font-family="Times,serif" font-size="14.00">n</text>
</g>
<!-- room_518&#45;&gt;room_518 -->
<g id="edge36" class="edge">
<title>room_518&#45;&gt;room_518</title>
<path fill="none" stroke="black" d="M242.5,-349.22C253.4,-348.85 261.18,-347.77 261.18,-345.98 261.18,-344.83 257.98,-343.98 252.82,-343.42"/>
<polygon fill="black" stroke="black" points="252.7,-339.9 242.5,-342.75 252.25,-346.89 252.7,-339.9"/>
<text text-anchor="middle" x="263.9" y="-341.78" font-family="Times,serif" font-size="14.00">s</text>
</g>
<!-- room_518&#45;&gt;room_518 -->
<g id="edge37" class="edge">
<title>room_518&#45;&gt;room_518</title>
<path fill="none" stroke="black" d="M239.42,-352.67C260.94,-353.13 279.18,-350.9 279.18,-345.98 279.18,-341.87 266.43,-339.63 249.68,-339.28"/>
<polygon fill="black" stroke="black" points="249.42,-335.78 239.42,-339.29 249.43,-342.78 249.42,-335.78"/>
<text text-anchor="middle" x="282.28" y="-341.78" font-family="Times,serif" font-size="14.00">e</text>
</g>
<!-- room_519 -->
<g id="node17" class="node">
<title>room_519</title>
<ellipse fill="none" stroke="black" cx="62.35" cy="-492.94" rx="62.19" ry="18"/>
<text text-anchor="middle" x="62.35" y="-488.74" font-family="Times,serif" font-size="14.00">Trail of Blazes</text>
</g>
<!-- room_518&#45;&gt;room_519 -->
<g id="edge38" class="edge">
<title>room_518&#45;&gt;room_519</title>
<path fill="none" stroke="black" d="M166.87,-362.98C141.91,-388.42 100.93,-436.33 78.32,-466.38"/>
<polygon fill="black" stroke="black" points="75.29,-464.59 72.19,-474.72 80.93,-468.73 75.29,-464.59"/>
<text text-anchor="middle" x="117.54" y="-417.48" font-family="Times,serif" font-size="14.00">w</text>
</g>
<!-- room_519&#45;&gt;room_518 -->
<g id="edge41" class="edge">
<title>room_519&#45;&gt;room_518</title>
<path fill="none" stroke="black" d="M83.18,-475.94C108.27,-450.38 149.56,-402.09 172.09,-372.07"/>
<polygon fill="black" stroke="black" points="175.1,-373.89 178.18,-363.75 169.45,-369.75 175.1,-373.89"/>
<text text-anchor="middle" x="130.74" y="-426.81" font-family="Times,serif" font-size="14.00">e</text>
</g>
<!-- room_519&#45;&gt;room_519 -->
<g id="edge39" class="edge">
<title>room_519&#45;&gt;room_519</title>
<path fill="none" stroke="black" d="M123.99,-496.12C135,-495.71 142.69,-494.65 142.69,-492.94 142.69,-491.83 139.38,-490.99 133.99,-490.42"/>
<polygon fill="black" stroke="black" points="134.2,-486.93 123.99,-489.77 133.74,-493.91 134.2,-486.93"/>
<text text-anchor="middle" x="146.19" y="-488.74" font-family="Times,serif" font-size="14.00">n</text>
</g>
<!-- room_519&#45;&gt;room_519 -->
<g id="edge40" class="edge">
<title>room_519&#45;&gt;room_519</title>
<path fill="none" stroke="black" d="M120.42,-499.67C142.46,-499.93 160.69,-497.69 160.69,-492.94 160.69,-488.98 147.95,-486.76 130.9,-486.29"/>
<polygon fill="black" stroke="black" points="130.44,-482.79 120.42,-486.22 130.39,-489.79 130.44,-482.79"/>
<text text-anchor="middle" x="163.42" y="-488.74" font-family="Times,serif" font-size="14.00">s</text>
</g>
<!-- room_520 -->
<g id="node18" class="node">
<title>room_520</title>
<ellipse fill="none" stroke="black" cx="91.2" cy="-677.49" rx="66.07" ry="18"/>
<text text-anchor="middle" x="91.2" y="-673.29" font-family="Times,serif" font-size="14.00">Trail of Cinders</text>
</g>
<!-- room_519&#45;&gt;room_520 -->
<g id="edge42" class="edge">
<title>room_519&#45;&gt;room_520</title>
<path fill="none" stroke="black" d="M60.97,-510.95C62.84,-543.17 73.11,-610.9 81.67,-649.33"/>
<polygon fill="black" stroke="black" points="78.33,-650.4 84.03,-659.33 85.14,-648.8 78.33,-650.4"/>
<text text-anchor="middle" x="66.26" y="-582.94" font-family="Times,serif" font-size="14.00">w</text>
</g>
<!-- room_520&#45;&gt;room_519 -->
<g id="edge45" class="edge">
<title>room_520&#45;&gt;room_519</title>
<path fill="none" stroke="black" d="M92.58,-659.49C90.71,-627.18 80.38,-559.18 71.82,-520.81"/>
<polygon fill="black" stroke="black" points="75.16,-519.76 69.46,-510.83 68.35,-521.37 75.16,-519.76"/>
<text text-anchor="middle" x="79.09" y="-592.95" font-family="Times,serif" font-size="14.00">e</text>
</g>
<!-- room_520&#45;&gt;room_520 -->
<g id="edge44" class="edge">
<title>room_520&#45;&gt;room_520</title>
<path fill="none" stroke="black" d="M156.58,-680.64C167.75,-680.21 175.49,-679.16 175.49,-677.49 175.49,-676.39 172.16,-675.56 166.71,-675"/>
<polygon fill="black" stroke="black" points="166.79,-671.5 156.58,-674.34 166.33,-678.48 166.79,-671.5"/>
<text text-anchor="middle" x="178.21" y="-673.29" font-family="Times,serif" font-size="14.00">s</text>
</g>
<!-- room_520&#45;&gt;room_520 -->
<g id="edge46" class="edge">
<title>room_520&#45;&gt;room_520</title>
<path fill="none" stroke="black" d="M152.87,-684.23C175.22,-684.39 193.49,-682.15 193.49,-677.49 193.49,-673.56 180.48,-671.34 162.99,-670.85"/>
<polygon fill="black" stroke="black" points="162.9,-667.35 152.87,-670.75 162.83,-674.35 162.9,-667.35"/>
<text text-anchor="middle" x="198.54" y="-673.29" font-family="Times,serif" font-size="14.00">w</text>
</g>
<!-- room_520&#45;&gt;room_522 -->
<g id="edge43" class="edge">
<title>room_520&#45;&gt;room_522</title>
<path fill="none" stroke="black" d="M108.56,-695.03C131.44,-713.29 172.27,-741.58 203.22,-760.93"/>
<polygon fill="black" stroke="black" points="201.72,-764.12 212.07,-766.39 205.39,-758.16 201.72,-764.12"/>
<text text-anchor="middle" x="152.39" y="-730.78" font-family="Times,serif" font-size="14.00">n</text>
</g>
<!-- room_522&#45;&gt;room_521 -->
<g id="edge50" class="edge">
<title>room_522&#45;&gt;room_521</title>
<path fill="none" stroke="black" d="M278.73,-766.65C307.49,-750.51 347.91,-725.04 374.46,-706.31"/>
<polygon fill="black" stroke="black" points="376.82,-708.92 382.89,-700.23 372.73,-703.24 376.82,-708.92"/>
<text text-anchor="middle" x="323.48" y="-739.28" font-family="Times,serif" font-size="14.00">e</text>
</g>
<!-- room_522&#45;&gt;room_520 -->
<g id="edge49" class="edge">
<title>room_522&#45;&gt;room_520</title>
<path fill="none" stroke="black" d="M227.26,-764.47C204.62,-746.36 164.04,-718.22 133.04,-698.79"/>
<polygon fill="black" stroke="black" points="134.52,-695.59 124.17,-693.31 130.84,-701.55 134.52,-695.59"/>
<text text-anchor="middle" x="177.43" y="-734.43" font-family="Times,serif" font-size="14.00">s</text>
</g>
<!-- room_523 -->
<g id="node20" class="node">
<title>room_523</title>
<ellipse fill="none" stroke="black" cx="268.34" cy="-966.09" rx="55.11" ry="18"/>
<text text-anchor="middle" x="268.34" y="-961.89" font-family="Times,serif" font-size="14.00">Magma Path</text>
</g>
<!-- room_522&#45;&gt;room_523 -->
<g id="edge51" class="edge">
<title>room_522&#45;&gt;room_523</title>
<path fill="none" stroke="black" d="M242.48,-799.99C243.56,-832.35 252.09,-900.02 259.63,-938.25"/>
<polygon fill="black" stroke="black" points="256.23,-939.14 261.72,-948.2 263.08,-937.69 256.23,-939.14"/>
<text text-anchor="middle" x="246" y="-871.92" font-family="Times,serif" font-size="14.00">w</text>
</g>
<!-- room_523&#45;&gt;room_522 -->
<g id="edge54" class="edge">
<title>room_523&#45;&gt;room_522</title>
<path fill="none" stroke="black" d="M270.18,-947.88C269.1,-915.6 260.61,-848.19 253.09,-809.91"/>
<polygon fill="black" stroke="black" points="256.48,-809.01 251,-799.94 249.63,-810.44 256.48,-809.01"/>
<text text-anchor="middle" x="258.53" y="-881.69" font-family="Times,serif" font-size="14.00">e</text>
</g>
<!-- room_523&#45;&gt;room_523 -->
<g id="edge53" class="edge">
<title>room_523&#45;&gt;room_523</title>
<path fill="none" stroke="black" d="M322.5,-969.33C333.51,-968.98 341.39,-967.9 341.39,-966.09 341.39,-964.9 338,-964.03 332.55,-963.46"/>
<polygon fill="black" stroke="black" points="332.69,-959.97 322.5,-962.84 332.26,-966.95 332.69,-959.97"/>
<text text-anchor="middle" x="344.12" y="-961.89" font-family="Times,serif" font-size="14.00">s</text>
</g>
<!-- room_523&#45;&gt;room_523 -->
<g id="edge55" class="edge">
<title>room_523&#45;&gt;room_523</title>
<path fill="none" stroke="black" d="M319.82,-972.78C341.24,-973.24 359.39,-971.01 359.39,-966.09 359.39,-961.97 346.71,-959.74 330.03,-959.39"/>
<polygon fill="black" stroke="black" points="329.82,-955.89 319.82,-959.4 329.82,-962.89 329.82,-955.89"/>
<text text-anchor="middle" x="364.45" y="-961.89" font-family="Times,serif" font-size="14.00">w</text>
</g>
<!-- room_524 -->
<g id="node21" class="node">
<title>room_524</title>
<ellipse fill="none" stroke="black" cx="405.41" cy="-1091.85" rx="55.58" ry="18"/>
<text text-anchor="middle" x="405.41" y="-1087.65" font-family="Times,serif" font-size="14.00">Earthen Path</text>
</g>
<!-- room_523&#45;&gt;room_524 -->
<g id="edge52" class="edge">
<title>room_523&#45;&gt;room_524</title>
<path fill="none" stroke="black" d="M281.02,-983.83C301.73,-1006.29 343.05,-1044.73 372.43,-1069.25"/>
<polygon fill="black" stroke="black" points="370.42,-1072.13 380.37,-1075.77 374.86,-1066.72 370.42,-1072.13"/>
<text text-anchor="middle" x="323.23" y="-1029.34" font-family="Times,serif" font-size="14.00">n</text>
</g>
<!-- room_524&#45;&gt;room_523 -->
<g id="edge57" class="edge">
<title>room_524&#45;&gt;room_523</title>
<path fill="none" stroke="black" d="M392.72,-1074.11C372.02,-1051.65 330.69,-1013.21 301.32,-988.69"/>
<polygon fill="black" stroke="black" points="303.32,-985.81 293.37,-982.17 298.88,-991.22 303.32,-985.81"/>
<text text-anchor="middle" x="344.29" y="-1034.2" font-family="Times,serif" font-size="14.00">s</text>
</g>
<!-- room_524&#45;&gt;room_524 -->
<g id="edge58" class="edge">
<title>room_524&#45;&gt;room_524</title>
<path fill="none" stroke="black" d="M460.25,-1095.09C471.16,-1094.72 478.94,-1093.64 478.94,-1091.85 478.94,-1090.7 475.75,-1089.85 470.59,-1089.28"/>
<polygon fill="black" stroke="black" points="470.45,-1085.77 460.25,-1088.61 470,-1092.75 470.45,-1085.77"/>
<text text-anchor="middle" x="482.05" y="-1087.65" font-family="Times,serif" font-size="14.00">e</text>
</g>
<!-- room_524&#45;&gt;room_524 -->
<g id="edge59" class="edge">
<title>room_524&#45;&gt;room_524</title>
<path fill="none" stroke="black" d="M457.16,-1098.54C478.69,-1099 496.94,-1096.77 496.94,-1091.85 496.94,-1087.74 484.19,-1085.5 467.43,-1085.15"/>
<polygon fill="black" stroke="black" points="467.16,-1081.65 457.16,-1085.16 467.17,-1088.65 467.16,-1081.65"/>
<text text-anchor="middle" x="502" y="-1087.65" font-family="Times,serif" font-size="14.00">w</text>
</g>
<!-- room_525 -->
<g id="node22" class="node">
<title>room_525</title>
<ellipse fill="none" stroke="black" cx="587.6" cy="-1055.67" rx="51.24" ry="18"/>
<text text-anchor="middle" x="587.6" y="-1051.47" font-family="Times,serif" font-size="14.00">Desert Path</text>
</g>
<!-- room_524&#45;&gt;room_525 -->
<g id="edge56" class="edge">
<title>room_524&#45;&gt;room_525</title>
<path fill="none" stroke="black" d="M459.31,-1087.45C485.42,-1083.09 516.46,-1076.87 541.46,-1070.95"/>
<polygon fill="black" stroke="black" points="542.53,-1074.29 551.42,-1068.53 540.88,-1067.49 542.53,-1074.29"/>
<text text-anchor="middle" x="503.88" y="-1068" font-family="Times,serif" font-size="14.00">n</text>
</g>
<!-- room_525&#45;&gt;room_524 -->
<g id="edge61" class="edge">
<title>room_525&#45;&gt;room_524</title>
<path fill="none" stroke="black" d="M537.59,-1059.42C511.27,-1063.71 479.15,-1070.09 453.16,-1076.19"/>
<polygon fill="black" stroke="black" points="452.07,-1072.85 443.17,-1078.59 453.71,-1079.66 452.07,-1072.85"/>
<text text-anchor="middle" x="492.65" y="-1070.6" font-family="Times,serif" font-size="14.00">s</text>
</g>
<!-- room_525&#45;&gt;room_525 -->
<g id="edge60" class="edge">
<title>room_525&#45;&gt;room_525</title>
<path fill="none" stroke="black" d="M637.92,-1058.94C648.82,-1058.62 656.72,-1057.53 656.72,-1055.67 656.72,-1054.47 653.48,-1053.6 648.28,-1053.04"/>
<polygon fill="black" stroke="black" points="648.12,-1049.52 637.92,-1052.39 647.69,-1056.51 648.12,-1049.52"/>
<text text-anchor="middle" x="660.22" y="-1051.47" font-family="Times,serif" font-size="14.00">n</text>
</g>
<!-- room_525&#45;&gt;room_525 -->
<g id="edge63" class="edge">
<title>room_525&#45;&gt;room_525</title>
<path fill="none" stroke="black" d="M635.54,-1062.33C656.6,-1062.91 674.72,-1060.7 674.72,-1055.67 674.72,-1051.47 662.05,-1049.23 645.6,-1048.95"/>
<polygon fill="black" stroke="black" points="645.51,-1045.45 635.54,-1049.01 645.56,-1052.45 645.51,-1045.45"/>
<text text-anchor="middle" x="679.77" y="-1051.47" font-family="Times,serif" font-size="14.00">w</text>
</g>
<!-- room_525&#45;&gt;room_527 -->
<g id="edge62" class="edge">
<title>room_525&#45;&gt;room_527</title>
<path fill="none" stroke="black" d="M607.62,-1038.96C631.45,-1013.97 670.37,-966.9 691.73,-937.37"/>
<polygon fill="black" stroke="black" points="694.61,-939.37 697.51,-929.18 688.89,-935.33 694.61,-939.37"/>
<text text-anchor="middle" x="646.57" y="-990.97" font-family="Times,serif" font-size="14.00">e</text>
</g>
<!-- room_527&#45;&gt;room_526 -->
<g id="edge67" class="edge">
<title>room_527&#45;&gt;room_526</title>
<path fill="none" stroke="black" d="M703.35,-893.25C693.55,-863.21 667.63,-802.88 649.75,-767.72"/>
<polygon fill="black" stroke="black" points="652.67,-765.76 644.94,-758.52 646.47,-769 652.67,-765.76"/>
<text text-anchor="middle" x="673.82" y="-833.29" font-family="Times,serif" font-size="14.00">s</text>
</g>
<!-- room_527&#45;&gt;room_525 -->
<g id="edge68" class="edge">
<title>room_527&#45;&gt;room_525</title>
<path fill="none" stroke="black" d="M686.63,-927.99C662.81,-952.98 623.88,-1000.05 602.52,-1029.58"/>
<polygon fill="black" stroke="black" points="599.64,-1027.58 596.74,-1037.77 605.36,-1031.62 599.64,-1027.58"/>
<text text-anchor="middle" x="639.52" y="-967.59" font-family="Times,serif" font-size="14.00">w</text>
</g>
<!-- room_528 -->
<g id="node24" class="node">
<title>room_528</title>
<ellipse fill="none" stroke="black" cx="893.8" cy="-916.26" rx="72.98" ry="18"/>
<text text-anchor="middle" x="893.8" y="-912.06" font-family="Times,serif" font-size="14.00">Corridor of Smog</text>
</g>
<!-- room_527&#45;&gt;room_528 -->
<g id="edge66" class="edge">
<title>room_527&#45;&gt;room_528</title>
<path fill="none" stroke="black" d="M756.15,-918.64C773.66,-919.72 793.83,-920.47 813.24,-920.81"/>
<polygon fill="black" stroke="black" points="813.25,-924.31 823.3,-920.95 813.35,-917.31 813.25,-924.31"/>
<text text-anchor="middle" x="781.2" y="-922.53" font-family="Times,serif" font-size="14.00">n</text>
</g>
<!-- room_528&#45;&gt;room_527 -->
<g id="edge70" class="edge">
<title>room_528&#45;&gt;room_527</title>
<path fill="none" stroke="black" d="M828.78,-908.06C809.39,-907.15 788.18,-906.61 768.97,-906.54"/>
<polygon fill="black" stroke="black" points="768.82,-903.04 758.82,-906.55 768.83,-910.04 768.82,-903.04"/>
<text text-anchor="middle" x="796.15" y="-910.1" font-family="Times,serif" font-size="14.00">s</text>
</g>
<!-- room_528&#45;&gt;room_528 -->
<g id="edge69" class="edge">
<title>room_528&#45;&gt;room_528</title>
<path fill="none" stroke="black" d="M965.88,-919.35C977.13,-918.89 984.79,-917.86 984.79,-916.26 984.79,-915.21 981.49,-914.41 976.04,-913.85"/>
<polygon fill="black" stroke="black" points="976.09,-910.34 965.88,-913.17 975.63,-917.33 976.09,-910.34"/>
<text text-anchor="middle" x="988.29" y="-912.06" font-family="Times,serif" font-size="14.00">n</text>
</g>
<!-- room_528&#45;&gt;room_528 -->
<g id="edge72" class="edge">
<title>room_528&#45;&gt;room_528</title>
<path fill="none" stroke="black" d="M961.65,-923.01C984.48,-923.03 1002.79,-920.78 1002.79,-916.26 1002.79,-912.45 989.76,-910.25 971.97,-909.67"/>
<polygon fill="black" stroke="black" points="971.71,-906.16 961.65,-909.51 971.6,-913.16 971.71,-906.16"/>
<text text-anchor="middle" x="1007.85" y="-912.06" font-family="Times,serif" font-size="14.00">w</text>
</g>
<!-- room_528&#45;&gt;room_529 -->
<g id="edge71" class="edge">
<title>room_528&#45;&gt;room_529</title>
<path fill="none" stroke="black" d="M923.59,-899.8C951.36,-880.53 992.1,-848.74 1017.37,-826.59"/>
<polygon fill="black" stroke="black" points="1019.88,-829.05 1025,-819.77 1015.21,-823.83 1019.88,-829.05"/>
<text text-anchor="middle" x="967.37" y="-866" font-family="Times,serif" font-size="14.00">e</text>
</g>
<!-- room_529&#45;&gt;room_530 -->
<g id="edge75" class="edge">
<title>room_529&#45;&gt;room_530</title>
<path fill="none" stroke="black" d="M1044.1,-783.88C1046.69,-751.37 1045.93,-683.16 1042.78,-644.55"/>
<polygon fill="black" stroke="black" points="1046.26,-644.13 1041.83,-634.5 1039.29,-644.78 1046.26,-644.13"/>
<text text-anchor="middle" x="1040.33" y="-717.01" font-family="Times,serif" font-size="14.00">e</text>
</g>
<!-- room_529&#45;&gt;room_528 -->
<g id="edge76" class="edge">
<title>room_529&#45;&gt;room_528</title>
<path fill="none" stroke="black" d="M1010.37,-818.55C982.6,-837.82 941.86,-869.61 916.59,-891.75"/>
<polygon fill="black" stroke="black" points="914.08,-889.3 908.96,-898.57 918.75,-894.52 914.08,-889.3"/>
<text text-anchor="middle" x="958.42" y="-857.95" font-family="Times,serif" font-size="14.00">w</text>
</g>
<!-- room_529&#45;&gt;room_529 -->
<g id="edge73" class="edge">
<title>room_529&#45;&gt;room_529</title>
<path fill="none" stroke="black" d="M1110.69,-805.2C1121.95,-804.74 1129.65,-803.7 1129.65,-802.09 1129.65,-801.03 1126.33,-800.21 1120.87,-799.65"/>
<polygon fill="black" stroke="black" points="1120.9,-796.15 1110.69,-798.98 1120.44,-803.13 1120.9,-796.15"/>
<text text-anchor="middle" x="1133.15" y="-797.89" font-family="Times,serif" font-size="14.00">n</text>
</g>
<!-- room_529&#45;&gt;room_529 -->
<g id="edge74" class="edge">
<title>room_529&#45;&gt;room_529</title>
<path fill="none" stroke="black" d="M1106.55,-808.84C1129.31,-808.89 1147.65,-806.64 1147.65,-802.09 1147.65,-798.25 1134.6,-796.04 1116.85,-795.48"/>
<polygon fill="black" stroke="black" points="1116.6,-791.98 1106.55,-795.34 1116.5,-798.98 1116.6,-791.98"/>
<text text-anchor="middle" x="1150.38" y="-797.89" font-family="Times,serif" font-size="14.00">s</text>
</g>
</g>
</svg>
