<?xml version="1.0" encoding="UTF-8" standalone="no"?>
<!DOCTYPE svg PUBLIC "-//W3C//DTD SVG 1.1//EN"
 "http://www.w3.org/Graphics/SVG/1.1/DTD/svg11.dtd">
<!-- Generated by graphviz version 2.42.3 (20191010.1750)
 -->
<!-- Title: monster Pages: 1 -->
<svg width="1040pt" height="637pt"
 viewBox="0.00 0.00 1039.89 636.66" xmlns="http://www.w3.org/2000/svg" xmlns:xlink="http://www.w3.org/1999/xlink">
<g id="graph0" class="graph" transform="scale(1 1) rotate(0) translate(4 632.66)">
<title>monster</title>
<polygon fill="white" stroke="transparent" points="-4,4 -4,-632.66 1035.89,-632.66 1035.89,4 -4,4"/>
<!-- room_375 -->
<g id="node1" class="node">
<title>room_375</title>
<ellipse fill="none" stroke="black" cx="371.94" cy="-257.49" rx="74.42" ry="18"/>
<text text-anchor="middle" x="371.94" y="-253.29" font-family="Times,serif" font-size="14.00">Shaded Courtyard</text>
</g>
<!-- room_413 -->
<g id="node2" class="node">
<title>room_413</title>
<ellipse fill="none" stroke="black" cx="525.49" cy="-270.45" rx="61.35" ry="18"/>
<text text-anchor="middle" x="525.49" y="-266.25" font-family="Times,serif" font-size="14.00">Audience Hall</text>
</g>
<!-- room_375&#45;&gt;room_413 -->
<g id="edge1" class="edge">
<title>room_375&#45;&gt;room_413</title>
<path fill="none" stroke="black" d="M429.44,-268.93C437.52,-269.77 445.9,-270.54 454.19,-271.18"/>
<polygon fill="black" stroke="black" points="454.02,-274.68 464.24,-271.92 454.52,-267.7 454.02,-274.68"/>
<text text-anchor="middle" x="445.32" y="-272.86" font-family="Times,serif" font-size="14.00">n</text>
</g>
<!-- room_720 -->
<g id="node3" class="node">
<title>room_720</title>
<ellipse fill="none" stroke="black" cx="223.82" cy="-237" rx="62.44" ry="18"/>
<text text-anchor="middle" x="223.82" y="-232.8" font-family="Times,serif" font-size="14.00">Tower of Yslsl</text>
</g>
<!-- room_375&#45;&gt;room_720 -->
<g id="edge2" class="edge">
<title>room_375&#45;&gt;room_720</title>
<path fill="none" stroke="black" d="M322.27,-244.12C313.77,-242.7 304.8,-241.36 295.86,-240.15"/>
<polygon fill="black" stroke="black" points="296.19,-236.67 285.82,-238.85 295.29,-243.61 296.19,-236.67"/>
<text text-anchor="middle" x="311.79" y="-230.93" font-family="Times,serif" font-size="14.00">s</text>
</g>
<!-- room_413&#45;&gt;room_375 -->
<g id="edge4" class="edge">
<title>room_413&#45;&gt;room_375</title>
<path fill="none" stroke="black" d="M475.75,-259.85C469.56,-259.14 463.11,-258.48 456.58,-257.88"/>
<polygon fill="black" stroke="black" points="456.55,-254.37 446.29,-256.99 455.95,-261.34 456.55,-254.37"/>
<text text-anchor="middle" x="463.44" y="-247.67" font-family="Times,serif" font-size="14.00">s</text>
</g>
<!-- room_430 -->
<g id="node4" class="node">
<title>room_430</title>
<ellipse fill="none" stroke="black" cx="689.79" cy="-290.16" rx="65.71" ry="18"/>
<text text-anchor="middle" x="689.79" y="-285.96" font-family="Times,serif" font-size="14.00">Dark Chambers</text>
</g>
<!-- room_413&#45;&gt;room_430 -->
<g id="edge3" class="edge">
<title>room_413&#45;&gt;room_430</title>
<path fill="none" stroke="black" d="M572.28,-282.29C585.19,-284.29 599.54,-286.2 613.65,-287.8"/>
<polygon fill="black" stroke="black" points="613.54,-291.31 623.86,-288.92 614.3,-284.35 613.54,-291.31"/>
<text text-anchor="middle" x="596.46" y="-287.85" font-family="Times,serif" font-size="14.00">n</text>
</g>
<!-- room_720&#45;&gt;room_375 -->
<g id="edge19" class="edge">
<title>room_720&#45;&gt;room_375</title>
<path fill="none" stroke="black" d="M268.61,-249.54C275.03,-250.65 281.81,-251.73 288.69,-252.75"/>
<polygon fill="black" stroke="black" points="288.43,-256.24 298.82,-254.18 289.41,-249.31 288.43,-256.24"/>
<text text-anchor="middle" x="275.15" y="-253.94" font-family="Times,serif" font-size="14.00">n</text>
</g>
<!-- room_721 -->
<g id="node12" class="node">
<title>room_721</title>
<ellipse fill="none" stroke="black" cx="76.8" cy="-245.51" rx="76.59" ry="18"/>
<text text-anchor="middle" x="76.8" y="-241.31" font-family="Times,serif" font-size="14.00">Upper Yslsl Tower</text>
</g>
<!-- room_720&#45;&gt;room_721 -->
<g id="edge20" class="edge">
<title>room_720&#45;&gt;room_721</title>
<path fill="none" stroke="black" d="M162.36,-233.88C158.3,-234.06 154.19,-234.27 150.08,-234.51"/>
<polygon fill="black" stroke="black" points="149.66,-231.03 139.9,-235.15 150.1,-238.01 149.66,-231.03"/>
<text text-anchor="middle" x="157.97" y="-222.99" font-family="Times,serif" font-size="14.00">u</text>
</g>
<!-- room_430&#45;&gt;room_413 -->
<g id="edge6" class="edge">
<title>room_430&#45;&gt;room_413</title>
<path fill="none" stroke="black" d="M640.8,-277.98C627.04,-275.88 611.78,-273.91 597,-272.29"/>
<polygon fill="black" stroke="black" points="597.17,-268.79 586.86,-271.23 596.44,-275.75 597.17,-268.79"/>
<text text-anchor="middle" x="616.17" y="-277.93" font-family="Times,serif" font-size="14.00">s</text>
</g>
<!-- room_714 -->
<g id="node5" class="node">
<title>room_714</title>
<ellipse fill="none" stroke="black" cx="820.56" cy="-172.48" rx="70.05" ry="18"/>
<text text-anchor="middle" x="820.56" y="-168.28" font-family="Times,serif" font-size="14.00">Upper Chambers</text>
</g>
<!-- room_430&#45;&gt;room_714 -->
<g id="edge5" class="edge">
<title>room_430&#45;&gt;room_714</title>
<path fill="none" stroke="black" d="M716.09,-273.58C741.07,-253.74 777.94,-220.58 800.6,-197.61"/>
<polygon fill="black" stroke="black" points="803.28,-199.88 807.7,-190.25 798.24,-195.02 803.28,-199.88"/>
<text text-anchor="middle" x="754.85" y="-238.4" font-family="Times,serif" font-size="14.00">n</text>
</g>
<!-- room_718 -->
<g id="node6" class="node">
<title>room_718</title>
<ellipse fill="none" stroke="black" cx="714.55" cy="-456.88" rx="68.12" ry="18"/>
<text text-anchor="middle" x="714.55" y="-452.68" font-family="Times,serif" font-size="14.00">Hidden Hallway</text>
</g>
<!-- room_430&#45;&gt;room_718 -->
<g id="edge7" class="edge">
<title>room_430&#45;&gt;room_718</title>
<path fill="none" stroke="black" d="M688.1,-308.33C689.52,-337.46 697.73,-394.83 705.14,-429.13"/>
<polygon fill="black" stroke="black" points="701.75,-430.01 707.4,-438.97 708.57,-428.44 701.75,-430.01"/>
<text text-anchor="middle" x="693.12" y="-371.53" font-family="Times,serif" font-size="14.00">d</text>
</g>
<!-- room_714&#45;&gt;room_430 -->
<g id="edge12" class="edge">
<title>room_714&#45;&gt;room_430</title>
<path fill="none" stroke="black" d="M793.94,-189.32C768.93,-209.22 732.2,-242.27 709.65,-265.14"/>
<polygon fill="black" stroke="black" points="707,-262.85 702.58,-272.48 712.04,-267.7 707,-262.85"/>
<text text-anchor="middle" x="748.3" y="-230.03" font-family="Times,serif" font-size="14.00">d</text>
</g>
<!-- room_715 -->
<g id="node7" class="node">
<title>room_715</title>
<ellipse fill="none" stroke="black" cx="740.83" cy="-28.96" rx="52.18" ry="18"/>
<text text-anchor="middle" x="740.83" y="-24.76" font-family="Times,serif" font-size="14.00">North Wing</text>
</g>
<!-- room_714&#45;&gt;room_715 -->
<g id="edge8" class="edge">
<title>room_714&#45;&gt;room_715</title>
<path fill="none" stroke="black" d="M815.6,-154.42C804.69,-129.29 779.8,-83.74 761.6,-54.97"/>
<polygon fill="black" stroke="black" points="764.33,-52.74 755.95,-46.26 758.45,-56.55 764.33,-52.74"/>
<text text-anchor="middle" x="785.1" y="-107.49" font-family="Times,serif" font-size="14.00">n</text>
</g>
<!-- room_717 -->
<g id="node8" class="node">
<title>room_717</title>
<ellipse fill="none" stroke="black" cx="947" cy="-279.09" rx="84.77" ry="18"/>
<text text-anchor="middle" x="947" y="-274.89" font-family="Times,serif" font-size="14.00">Tower of the Prophet</text>
</g>
<!-- room_714&#45;&gt;room_717 -->
<g id="edge9" class="edge">
<title>room_714&#45;&gt;room_717</title>
<path fill="none" stroke="black" d="M834.53,-190.52C852.63,-208.54 884.67,-236.09 909.97,-255.74"/>
<polygon fill="black" stroke="black" points="907.85,-258.53 917.92,-261.82 912.1,-252.96 907.85,-258.53"/>
<text text-anchor="middle" x="869.52" y="-225.93" font-family="Times,serif" font-size="14.00">s</text>
</g>
<!-- room_722 -->
<g id="node9" class="node">
<title>room_722</title>
<ellipse fill="none" stroke="black" cx="882.58" cy="-18" rx="46.87" ry="18"/>
<text text-anchor="middle" x="882.58" y="-13.8" font-family="Times,serif" font-size="14.00">East Wing</text>
</g>
<!-- room_714&#45;&gt;room_722 -->
<g id="edge10" class="edge">
<title>room_714&#45;&gt;room_722</title>
<path fill="none" stroke="black" d="M832.75,-154.66C846.21,-128.05 866.59,-77.76 876.9,-46.15"/>
<polygon fill="black" stroke="black" points="880.36,-46.8 879.98,-36.21 873.68,-44.72 880.36,-46.8"/>
<text text-anchor="middle" x="851.72" y="-103.21" font-family="Times,serif" font-size="14.00">e</text>
</g>
<!-- room_724 -->
<g id="node10" class="node">
<title>room_724</title>
<ellipse fill="none" stroke="black" cx="981.79" cy="-137.5" rx="48.85" ry="18"/>
<text text-anchor="middle" x="981.79" y="-133.3" font-family="Times,serif" font-size="14.00">West Wing</text>
</g>
<!-- room_714&#45;&gt;room_724 -->
<g id="edge11" class="edge">
<title>room_714&#45;&gt;room_724</title>
<path fill="none" stroke="black" d="M885.22,-165.22C902.96,-161.67 921.78,-157.42 938.04,-153.26"/>
<polygon fill="black" stroke="black" points="939.03,-156.62 947.81,-150.7 937.25,-149.85 939.03,-156.62"/>
<text text-anchor="middle" x="906.58" y="-162.04" font-family="Times,serif" font-size="14.00">w</text>
</g>
<!-- room_718&#45;&gt;room_430 -->
<g id="edge16" class="edge">
<title>room_718&#45;&gt;room_430</title>
<path fill="none" stroke="black" d="M716.24,-438.71C714.82,-409.57 706.61,-352.2 699.2,-317.91"/>
<polygon fill="black" stroke="black" points="702.59,-317.03 696.94,-308.07 695.77,-318.6 702.59,-317.03"/>
<text text-anchor="middle" x="702.67" y="-381.11" font-family="Times,serif" font-size="14.00">w</text>
</g>
<!-- room_719 -->
<g id="node11" class="node">
<title>room_719</title>
<ellipse fill="none" stroke="black" cx="738.16" cy="-610.66" rx="56.57" ry="18"/>
<text text-anchor="middle" x="738.16" y="-606.46" font-family="Times,serif" font-size="14.00">Forlorn Altar</text>
</g>
<!-- room_718&#45;&gt;room_719 -->
<g id="edge15" class="edge">
<title>room_718&#45;&gt;room_719</title>
<path fill="none" stroke="black" d="M712.8,-474.89C714.15,-501.41 721.47,-551.18 728.37,-582.53"/>
<polygon fill="black" stroke="black" points="724.99,-583.46 730.68,-592.4 731.8,-581.87 724.99,-583.46"/>
<text text-anchor="middle" x="717.86" y="-531.51" font-family="Times,serif" font-size="14.00">s</text>
</g>
<!-- room_715&#45;&gt;room_714 -->
<g id="edge13" class="edge">
<title>room_715&#45;&gt;room_714</title>
<path fill="none" stroke="black" d="M745.79,-47.02C756.64,-72.01 781.31,-117.19 799.49,-146"/>
<polygon fill="black" stroke="black" points="796.77,-148.23 805.14,-154.73 802.64,-144.43 796.77,-148.23"/>
<text text-anchor="middle" x="769.92" y="-99.31" font-family="Times,serif" font-size="14.00">s</text>
</g>
<!-- room_717&#45;&gt;room_714 -->
<g id="edge14" class="edge">
<title>room_717&#45;&gt;room_714</title>
<path fill="none" stroke="black" d="M933.04,-261.05C914.7,-242.81 882.09,-214.79 856.65,-195.1"/>
<polygon fill="black" stroke="black" points="858.75,-192.3 848.67,-189.02 854.5,-197.87 858.75,-192.3"/>
<text text-anchor="middle" x="891.34" y="-230.88" font-family="Times,serif" font-size="14.00">n</text>
</g>
<!-- room_722&#45;&gt;room_714 -->
<g id="edge22" class="edge">
<title>room_722&#45;&gt;room_714</title>
<path fill="none" stroke="black" d="M870.54,-35.52C857.04,-62.14 836.46,-112.92 826.15,-144.62"/>
<polygon fill="black" stroke="black" points="822.8,-143.61 823.18,-154.19 829.48,-145.68 822.8,-143.61"/>
<text text-anchor="middle" x="843.29" y="-92.87" font-family="Times,serif" font-size="14.00">w</text>
</g>
<!-- room_724&#45;&gt;room_714 -->
<g id="edge23" class="edge">
<title>room_724&#45;&gt;room_714</title>
<path fill="none" stroke="black" d="M933.84,-141.57C913.88,-145.19 890.71,-150.17 870.54,-155.15"/>
<polygon fill="black" stroke="black" points="869.44,-151.82 860.61,-157.68 871.16,-158.61 869.44,-151.82"/>
<text text-anchor="middle" x="899.09" y="-137.16" font-family="Times,serif" font-size="14.00">e</text>
</g>
<!-- room_719&#45;&gt;room_718 -->
<g id="edge17" class="edge">
<title>room_719&#45;&gt;room_718</title>
<path fill="none" stroke="black" d="M739.91,-592.64C738.56,-566.12 731.24,-516.35 724.34,-485"/>
<polygon fill="black" stroke="black" points="727.72,-484.07 722.03,-475.13 720.9,-485.66 727.72,-484.07"/>
<text text-anchor="middle" x="728.63" y="-541.62" font-family="Times,serif" font-size="14.00">n</text>
</g>
<!-- room_719&#45;&gt;room_719 -->
<g id="edge18" class="edge">
<title>room_719&#45;&gt;room_719</title>
<path fill="none" stroke="black" d="M790.75,-617.29C803.35,-616.77 812.7,-614.56 812.7,-610.66 812.7,-607.91 808.08,-606 800.95,-604.93"/>
<polygon fill="black" stroke="black" points="801.02,-601.43 790.75,-604.02 800.4,-608.4 801.02,-601.43"/>
<text text-anchor="middle" x="815.8" y="-606.46" font-family="Times,serif" font-size="14.00">e</text>
</g>
<!-- room_721&#45;&gt;room_720 -->
<g id="edge21" class="edge">
<title>room_721&#45;&gt;room_720</title>
<path fill="none" stroke="black" d="M153.28,-247.84C155.83,-247.69 158.36,-247.52 160.88,-247.35"/>
<polygon fill="black" stroke="black" points="161.41,-250.82 171.12,-246.57 160.88,-243.84 161.41,-250.82"/>
<text text-anchor="middle" x="157.08" y="-236.39" font-family="Times,serif" font-size="14.00">d</text>
</g>
</g>
</svg>
