<?xml version="1.0" encoding="UTF-8" standalone="no"?>
<!DOCTYPE svg PUBLIC "-//W3C//DTD SVG 1.1//EN"
 "http://www.w3.org/Graphics/SVG/1.1/DTD/svg11.dtd">
<!-- Generated by graphviz version 2.42.3 (20191010.1750)
 -->
<!-- Title: monster Pages: 1 -->
<svg width="1408pt" height="1507pt"
 viewBox="0.00 0.00 1408.26 1507.12" xmlns="http://www.w3.org/2000/svg" xmlns:xlink="http://www.w3.org/1999/xlink">
<g id="graph0" class="graph" transform="scale(1 1) rotate(0) translate(4 1503.12)">
<title>monster</title>
<polygon fill="white" stroke="transparent" points="-4,4 -4,-1503.12 1404.26,-1503.12 1404.26,4 -4,4"/>
<!-- room_82 -->
<g id="node1" class="node">
<title>room_82</title>
<ellipse fill="none" stroke="black" cx="368.23" cy="-438.47" rx="69.12" ry="18"/>
<text text-anchor="middle" x="368.23" y="-434.27" font-family="Times,serif" font-size="14.00">Feast of Corpses</text>
</g>
<!-- room_345 -->
<g id="node2" class="node">
<title>room_345</title>
<ellipse fill="none" stroke="black" cx="432.62" cy="-557.33" rx="52.93" ry="18"/>
<text text-anchor="middle" x="432.62" y="-553.13" font-family="Times,serif" font-size="14.00">Rat&#39;s Haven</text>
</g>
<!-- room_82&#45;&gt;room_345 -->
<g id="edge1" class="edge">
<title>room_82&#45;&gt;room_345</title>
<path fill="none" stroke="black" d="M372.6,-456.52C380.92,-476.53 398.01,-508.86 411.96,-531.52"/>
<polygon fill="black" stroke="black" points="409.02,-533.41 417.33,-539.99 414.93,-529.66 409.02,-533.41"/>
<text text-anchor="middle" x="389.17" y="-496.82" font-family="Times,serif" font-size="14.00">e</text>
</g>
<!-- room_83 -->
<g id="node3" class="node">
<title>room_83</title>
<ellipse fill="none" stroke="black" cx="307.37" cy="-321.35" rx="72.04" ry="18"/>
<text text-anchor="middle" x="307.37" y="-317.15" font-family="Times,serif" font-size="14.00">Burrowed Tunnel</text>
</g>
<!-- room_82&#45;&gt;room_83 -->
<g id="edge2" class="edge">
<title>room_82&#45;&gt;room_83</title>
<path fill="none" stroke="black" d="M364.27,-420.47C356.6,-401.04 340.89,-369.98 327.79,-347.79"/>
<polygon fill="black" stroke="black" points="330.74,-345.91 322.55,-339.18 324.76,-349.54 330.74,-345.91"/>
<text text-anchor="middle" x="340.98" y="-386.93" font-family="Times,serif" font-size="14.00">w</text>
</g>
<!-- room_345&#45;&gt;room_82 -->
<g id="edge10" class="edge">
<title>room_345&#45;&gt;room_82</title>
<path fill="none" stroke="black" d="M428.25,-539.28C419.98,-519.39 403.04,-487.32 389.13,-464.68"/>
<polygon fill="black" stroke="black" points="392.08,-462.8 383.78,-456.21 386.16,-466.53 392.08,-462.8"/>
<text text-anchor="middle" x="403.64" y="-504.78" font-family="Times,serif" font-size="14.00">w</text>
</g>
<!-- room_346 -->
<g id="node7" class="node">
<title>room_346</title>
<ellipse fill="none" stroke="black" cx="505.34" cy="-677.56" rx="76.34" ry="18"/>
<text text-anchor="middle" x="505.34" y="-673.36" font-family="Times,serif" font-size="14.00">Corridor of Stench</text>
</g>
<!-- room_345&#45;&gt;room_346 -->
<g id="edge9" class="edge">
<title>room_345&#45;&gt;room_346</title>
<path fill="none" stroke="black" d="M438.07,-575.5C447.71,-595.73 467.07,-628.48 482.66,-651.44"/>
<polygon fill="black" stroke="black" points="479.84,-653.51 488.43,-659.72 485.58,-649.51 479.84,-653.51"/>
<text text-anchor="middle" x="457.26" y="-616.27" font-family="Times,serif" font-size="14.00">e</text>
</g>
<!-- room_83&#45;&gt;room_82 -->
<g id="edge3" class="edge">
<title>room_83&#45;&gt;room_82</title>
<path fill="none" stroke="black" d="M311.33,-339.36C319,-358.79 334.71,-389.84 347.81,-412.03"/>
<polygon fill="black" stroke="black" points="344.86,-413.92 353.05,-420.64 350.84,-410.28 344.86,-413.92"/>
<text text-anchor="middle" x="326.46" y="-378.49" font-family="Times,serif" font-size="14.00">e</text>
</g>
<!-- room_442 -->
<g id="node4" class="node">
<title>room_442</title>
<ellipse fill="none" stroke="black" cx="241.75" cy="-209.08" rx="63.07" ry="18"/>
<text text-anchor="middle" x="241.75" y="-204.88" font-family="Times,serif" font-size="14.00">Tomb of Useth</text>
</g>
<!-- room_83&#45;&gt;room_442 -->
<g id="edge4" class="edge">
<title>room_83&#45;&gt;room_442</title>
<path fill="none" stroke="black" d="M302.43,-303.3C294.04,-284.86 277.71,-256.14 263.99,-235.23"/>
<polygon fill="black" stroke="black" points="266.8,-233.13 258.3,-226.8 260.99,-237.05 266.8,-233.13"/>
<text text-anchor="middle" x="278.15" y="-272.06" font-family="Times,serif" font-size="14.00">w</text>
</g>
<!-- room_442&#45;&gt;room_83 -->
<g id="edge56" class="edge">
<title>room_442&#45;&gt;room_83</title>
<path fill="none" stroke="black" d="M246.69,-227.13C255.08,-245.57 271.41,-274.29 285.13,-295.2"/>
<polygon fill="black" stroke="black" points="282.32,-297.3 290.81,-303.63 288.12,-293.38 282.32,-297.3"/>
<text text-anchor="middle" x="262.8" y="-263.96" font-family="Times,serif" font-size="14.00">e</text>
</g>
<!-- room_441 -->
<g id="node6" class="node">
<title>room_441</title>
<ellipse fill="none" stroke="black" cx="163.98" cy="-106.32" rx="64.98" ry="18"/>
<text text-anchor="middle" x="163.98" y="-102.12" font-family="Times,serif" font-size="14.00">Tower of Useth</text>
</g>
<!-- room_442&#45;&gt;room_441 -->
<g id="edge57" class="edge">
<title>room_442&#45;&gt;room_441</title>
<path fill="none" stroke="black" d="M234.23,-190.92C224.09,-174.38 206.07,-149.92 190.75,-131.52"/>
<polygon fill="black" stroke="black" points="193.1,-128.87 183.94,-123.53 187.77,-133.41 193.1,-128.87"/>
<text text-anchor="middle" x="208.99" y="-164.02" font-family="Times,serif" font-size="14.00">u</text>
</g>
<!-- room_271 -->
<g id="node5" class="node">
<title>room_271</title>
<ellipse fill="none" stroke="black" cx="71.18" cy="-18" rx="54.62" ry="18"/>
<text text-anchor="middle" x="71.18" y="-13.8" font-family="Times,serif" font-size="14.00">Upper Crypt</text>
</g>
<!-- room_271&#45;&gt;room_271 -->
<g id="edge5" class="edge">
<title>room_271&#45;&gt;room_271</title>
<path fill="none" stroke="black" d="M125.61,-20.15C136.21,-19.9 143.74,-19.18 143.74,-18 143.74,-17.24 140.65,-16.68 135.64,-16.3"/>
<polygon fill="black" stroke="black" points="135.75,-12.8 125.61,-15.85 135.44,-19.79 135.75,-12.8"/>
<text text-anchor="middle" x="147.24" y="-13.8" font-family="Times,serif" font-size="14.00">n</text>
</g>
<!-- room_271&#45;&gt;room_271 -->
<g id="edge6" class="edge">
<title>room_271&#45;&gt;room_271</title>
<path fill="none" stroke="black" d="M122.28,-24.37C152,-25.69 179.74,-23.57 179.74,-18 179.74,-13.08 158.12,-10.85 132.6,-11.31"/>
<polygon fill="black" stroke="black" points="132.16,-7.82 122.28,-11.63 132.38,-14.82 132.16,-7.82"/>
<text text-anchor="middle" x="182.85" y="-13.8" font-family="Times,serif" font-size="14.00">e</text>
</g>
<!-- room_271&#45;&gt;room_271 -->
<g id="edge7" class="edge">
<title>room_271&#45;&gt;room_271</title>
<path fill="none" stroke="black" d="M124.2,-22.48C144.7,-22.68 161.74,-21.19 161.74,-18 161.74,-15.36 150.06,-13.88 134.4,-13.56"/>
<polygon fill="black" stroke="black" points="134.22,-10.06 124.2,-13.52 134.18,-17.06 134.22,-10.06"/>
<text text-anchor="middle" x="166.8" y="-13.8" font-family="Times,serif" font-size="14.00">w</text>
</g>
<!-- room_271&#45;&gt;room_441 -->
<g id="edge8" class="edge">
<title>room_271&#45;&gt;room_441</title>
<path fill="none" stroke="black" d="M82.56,-35.9C94.47,-49.49 113.5,-68.16 130.2,-82.91"/>
<polygon fill="black" stroke="black" points="128.32,-85.91 138.17,-89.8 132.89,-80.61 128.32,-85.91"/>
<text text-anchor="middle" x="102.88" y="-62.2" font-family="Times,serif" font-size="14.00">d</text>
</g>
<!-- room_441&#45;&gt;room_442 -->
<g id="edge55" class="edge">
<title>room_441&#45;&gt;room_442</title>
<path fill="none" stroke="black" d="M171.51,-124.47C181.65,-141.01 199.66,-165.47 214.98,-183.88"/>
<polygon fill="black" stroke="black" points="212.64,-186.52 221.79,-191.86 217.96,-181.98 212.64,-186.52"/>
<text text-anchor="middle" x="189.74" y="-156.97" font-family="Times,serif" font-size="14.00">d</text>
</g>
<!-- room_441&#45;&gt;room_271 -->
<g id="edge54" class="edge">
<title>room_441&#45;&gt;room_271</title>
<path fill="none" stroke="black" d="M152.6,-88.42C140.62,-74.74 121.41,-55.91 104.62,-41.11"/>
<polygon fill="black" stroke="black" points="106.48,-38.09 96.62,-34.21 101.91,-43.39 106.48,-38.09"/>
<text text-anchor="middle" x="125.11" y="-67.57" font-family="Times,serif" font-size="14.00">u</text>
</g>
<!-- room_346&#45;&gt;room_345 -->
<g id="edge12" class="edge">
<title>room_346&#45;&gt;room_345</title>
<path fill="none" stroke="black" d="M499.88,-659.4C490.19,-639.05 470.65,-606.02 455.01,-583.04"/>
<polygon fill="black" stroke="black" points="457.83,-580.97 449.24,-574.77 452.09,-584.98 457.83,-580.97"/>
<text text-anchor="middle" x="472.39" y="-624.02" font-family="Times,serif" font-size="14.00">w</text>
</g>
<!-- room_347 -->
<g id="node8" class="node">
<title>room_347</title>
<ellipse fill="none" stroke="black" cx="588.2" cy="-796.13" rx="65.74" ry="18"/>
<text text-anchor="middle" x="588.2" y="-791.93" font-family="Times,serif" font-size="14.00">Rotunda Mortis</text>
</g>
<!-- room_346&#45;&gt;room_347 -->
<g id="edge11" class="edge">
<title>room_346&#45;&gt;room_347</title>
<path fill="none" stroke="black" d="M512.15,-695.52C523.45,-715.64 545.77,-748.26 563.41,-770.92"/>
<polygon fill="black" stroke="black" points="560.7,-773.13 569.67,-778.77 566.18,-768.77 560.7,-773.13"/>
<text text-anchor="middle" x="534.67" y="-736.02" font-family="Times,serif" font-size="14.00">e</text>
</g>
<!-- room_347&#45;&gt;room_346 -->
<g id="edge16" class="edge">
<title>room_347&#45;&gt;room_346</title>
<path fill="none" stroke="black" d="M581.39,-778.18C570.15,-758.18 548.02,-725.82 530.43,-703.18"/>
<polygon fill="black" stroke="black" points="533.15,-700.97 524.19,-695.32 527.67,-705.33 533.15,-700.97"/>
<text text-anchor="middle" x="550.85" y="-743.48" font-family="Times,serif" font-size="14.00">w</text>
</g>
<!-- room_350 -->
<g id="node9" class="node">
<title>room_350</title>
<ellipse fill="none" stroke="black" cx="694.45" cy="-688.53" rx="68.62" ry="18"/>
<text text-anchor="middle" x="694.45" y="-684.33" font-family="Times,serif" font-size="14.00">Steps of Disease</text>
</g>
<!-- room_347&#45;&gt;room_350 -->
<g id="edge13" class="edge">
<title>room_347&#45;&gt;room_350</title>
<path fill="none" stroke="black" d="M612.57,-779.22C632.21,-761.73 659.25,-734.39 676.85,-714.25"/>
<polygon fill="black" stroke="black" points="679.74,-716.26 683.55,-706.38 674.4,-711.73 679.74,-716.26"/>
<text text-anchor="middle" x="641.21" y="-749.54" font-family="Times,serif" font-size="14.00">n</text>
</g>
<!-- room_348 -->
<g id="node10" class="node">
<title>room_348</title>
<ellipse fill="none" stroke="black" cx="458.01" cy="-879.05" rx="67.67" ry="18"/>
<text text-anchor="middle" x="458.01" y="-874.85" font-family="Times,serif" font-size="14.00">Steps of Famine</text>
</g>
<!-- room_347&#45;&gt;room_348 -->
<g id="edge14" class="edge">
<title>room_347&#45;&gt;room_348</title>
<path fill="none" stroke="black" d="M553.18,-811.44C531.43,-823.89 503.96,-841.44 484.11,-855.62"/>
<polygon fill="black" stroke="black" points="481.85,-852.94 475.84,-861.67 485.98,-858.59 481.85,-852.94"/>
<text text-anchor="middle" x="515.92" y="-836.33" font-family="Times,serif" font-size="14.00">s</text>
</g>
<!-- room_349 -->
<g id="node11" class="node">
<title>room_349</title>
<ellipse fill="none" stroke="black" cx="688.85" cy="-905.65" rx="60.91" ry="18"/>
<text text-anchor="middle" x="688.85" y="-901.45" font-family="Times,serif" font-size="14.00">Steps of Strife</text>
</g>
<!-- room_347&#45;&gt;room_349 -->
<g id="edge15" class="edge">
<title>room_347&#45;&gt;room_349</title>
<path fill="none" stroke="black" d="M598.24,-814.14C612.35,-832.64 638.19,-861.34 658.74,-881.72"/>
<polygon fill="black" stroke="black" points="656.42,-884.35 666.03,-888.81 661.3,-879.33 656.42,-884.35"/>
<text text-anchor="middle" x="625.38" y="-850.73" font-family="Times,serif" font-size="14.00">e</text>
</g>
<!-- room_350&#45;&gt;room_347 -->
<g id="edge21" class="edge">
<title>room_350&#45;&gt;room_347</title>
<path fill="none" stroke="black" d="M670.08,-705.44C650.43,-722.93 623.39,-750.27 605.79,-770.41"/>
<polygon fill="black" stroke="black" points="602.9,-768.4 599.09,-778.29 608.24,-772.94 602.9,-768.4"/>
<text text-anchor="middle" x="635.21" y="-740.73" font-family="Times,serif" font-size="14.00">s</text>
</g>
<!-- room_364 -->
<g id="node14" class="node">
<title>room_364</title>
<ellipse fill="none" stroke="black" cx="788.62" cy="-577.14" rx="82.85" ry="18"/>
<text text-anchor="middle" x="788.62" y="-572.94" font-family="Times,serif" font-size="14.00">Chamber of Wasting</text>
</g>
<!-- room_350&#45;&gt;room_364 -->
<g id="edge22" class="edge">
<title>room_350&#45;&gt;room_364</title>
<path fill="none" stroke="black" d="M716.29,-671.07C733.91,-652.91 758.06,-624.43 773.59,-603.54"/>
<polygon fill="black" stroke="black" points="776.46,-605.54 779.48,-595.38 770.79,-601.44 776.46,-605.54"/>
<text text-anchor="middle" x="741.44" y="-640.11" font-family="Times,serif" font-size="14.00">d</text>
</g>
<!-- room_348&#45;&gt;room_347 -->
<g id="edge17" class="edge">
<title>room_348&#45;&gt;room_347</title>
<path fill="none" stroke="black" d="M493.37,-863.54C514.98,-851.16 542.14,-833.8 561.87,-819.72"/>
<polygon fill="black" stroke="black" points="564.08,-822.44 570.1,-813.72 559.95,-816.79 564.08,-822.44"/>
<text text-anchor="middle" x="524.12" y="-844.43" font-family="Times,serif" font-size="14.00">n</text>
</g>
<!-- room_356 -->
<g id="node12" class="node">
<title>room_356</title>
<ellipse fill="none" stroke="black" cx="330.22" cy="-948.51" rx="78.25" ry="18"/>
<text text-anchor="middle" x="330.22" y="-944.31" font-family="Times,serif" font-size="14.00">Gallery of Hungers</text>
</g>
<!-- room_348&#45;&gt;room_356 -->
<g id="edge18" class="edge">
<title>room_348&#45;&gt;room_356</title>
<path fill="none" stroke="black" d="M418.1,-893.71C399.25,-903.02 377.16,-915.11 359.83,-925.63"/>
<polygon fill="black" stroke="black" points="357.89,-922.72 351.25,-930.97 361.59,-928.66 357.89,-922.72"/>
<text text-anchor="middle" x="385.46" y="-912.47" font-family="Times,serif" font-size="14.00">d</text>
</g>
<!-- room_349&#45;&gt;room_347 -->
<g id="edge19" class="edge">
<title>room_349&#45;&gt;room_347</title>
<path fill="none" stroke="black" d="M678.8,-887.64C664.78,-869.26 639.16,-840.79 618.68,-820.44"/>
<polygon fill="black" stroke="black" points="621,-817.82 611.4,-813.35 616.12,-822.83 621,-817.82"/>
<text text-anchor="middle" x="643.68" y="-856.84" font-family="Times,serif" font-size="14.00">w</text>
</g>
<!-- room_351 -->
<g id="node13" class="node">
<title>room_351</title>
<ellipse fill="none" stroke="black" cx="790.34" cy="-1005.57" rx="67.64" ry="18"/>
<text text-anchor="middle" x="790.34" y="-1001.37" font-family="Times,serif" font-size="14.00">Grand Mortuary</text>
</g>
<!-- room_349&#45;&gt;room_351 -->
<g id="edge20" class="edge">
<title>room_349&#45;&gt;room_351</title>
<path fill="none" stroke="black" d="M699.95,-923.46C713.78,-939.8 737.72,-963.95 757.54,-981.89"/>
<polygon fill="black" stroke="black" points="755.37,-984.65 765.18,-988.67 760.02,-979.41 755.37,-984.65"/>
<text text-anchor="middle" x="725.24" y="-955.47" font-family="Times,serif" font-size="14.00">d</text>
</g>
<!-- room_356&#45;&gt;room_348 -->
<g id="edge35" class="edge">
<title>room_356&#45;&gt;room_348</title>
<path fill="none" stroke="black" d="M371.55,-933.16C390.15,-923.91 411.66,-912.11 428.59,-901.82"/>
<polygon fill="black" stroke="black" points="430.84,-904.54 437.48,-896.28 427.14,-898.6 430.84,-904.54"/>
<text text-anchor="middle" x="396.57" y="-906.29" font-family="Times,serif" font-size="14.00">u</text>
</g>
<!-- room_357 -->
<g id="node22" class="node">
<title>room_357</title>
<ellipse fill="none" stroke="black" cx="206.66" cy="-1012.35" rx="81.67" ry="18"/>
<text text-anchor="middle" x="206.66" y="-1008.15" font-family="Times,serif" font-size="14.00">Chamber of Poisons</text>
</g>
<!-- room_356&#45;&gt;room_357 -->
<g id="edge34" class="edge">
<title>room_356&#45;&gt;room_357</title>
<path fill="none" stroke="black" d="M287.18,-963.58C270.81,-971.38 252.5,-980.95 237.47,-989.59"/>
<polygon fill="black" stroke="black" points="235.42,-986.73 228.58,-994.83 238.97,-992.76 235.42,-986.73"/>
<text text-anchor="middle" x="259.6" y="-979.39" font-family="Times,serif" font-size="14.00">s</text>
</g>
<!-- room_351&#45;&gt;room_349 -->
<g id="edge24" class="edge">
<title>room_351&#45;&gt;room_349</title>
<path fill="none" stroke="black" d="M779.24,-987.76C765.32,-971.32 741.16,-946.96 721.28,-928.99"/>
<polygon fill="black" stroke="black" points="723.42,-926.22 713.62,-922.21 718.78,-931.46 723.42,-926.22"/>
<text text-anchor="middle" x="746.76" y="-961.18" font-family="Times,serif" font-size="14.00">u</text>
</g>
<!-- room_353 -->
<g id="node15" class="node">
<title>room_353</title>
<ellipse fill="none" stroke="black" cx="890.58" cy="-1105.72" rx="77.29" ry="18"/>
<text text-anchor="middle" x="890.58" y="-1101.52" font-family="Times,serif" font-size="14.00">Passage of Undead</text>
</g>
<!-- room_351&#45;&gt;room_353 -->
<g id="edge23" class="edge">
<title>room_351&#45;&gt;room_353</title>
<path fill="none" stroke="black" d="M801.24,-1023.39C814.79,-1039.65 838.21,-1063.64 857.72,-1081.59"/>
<polygon fill="black" stroke="black" points="855.48,-1084.28 865.25,-1088.39 860.17,-1079.09 855.48,-1084.28"/>
<text text-anchor="middle" x="826.37" y="-1055.29" font-family="Times,serif" font-size="14.00">e</text>
</g>
<!-- room_364&#45;&gt;room_350 -->
<g id="edge52" class="edge">
<title>room_364&#45;&gt;room_350</title>
<path fill="none" stroke="black" d="M766.77,-594.6C749.05,-612.86 724.72,-641.57 709.2,-662.49"/>
<polygon fill="black" stroke="black" points="706.33,-660.49 703.33,-670.65 712.01,-664.58 706.33,-660.49"/>
<text text-anchor="middle" x="734.49" y="-631.35" font-family="Times,serif" font-size="14.00">u</text>
</g>
<!-- room_365 -->
<g id="node28" class="node">
<title>room_365</title>
<ellipse fill="none" stroke="black" cx="875.37" cy="-468.4" rx="88.44" ry="18"/>
<text text-anchor="middle" x="875.37" y="-464.2" font-family="Times,serif" font-size="14.00">Room of Rotted Flesh</text>
</g>
<!-- room_364&#45;&gt;room_365 -->
<g id="edge51" class="edge">
<title>room_364&#45;&gt;room_365</title>
<path fill="none" stroke="black" d="M809.61,-559.58C825.75,-542.02 847.43,-514.93 861.5,-494.8"/>
<polygon fill="black" stroke="black" points="864.5,-496.61 867.2,-486.37 858.7,-492.69 864.5,-496.61"/>
<text text-anchor="middle" x="832.05" y="-529.99" font-family="Times,serif" font-size="14.00">n</text>
</g>
<!-- room_353&#45;&gt;room_351 -->
<g id="edge27" class="edge">
<title>room_353&#45;&gt;room_351</title>
<path fill="none" stroke="black" d="M879.29,-1087.43C865.54,-1071 842.02,-1046.96 822.57,-1029.12"/>
<polygon fill="black" stroke="black" points="824.85,-1026.46 815.08,-1022.38 820.17,-1031.67 824.85,-1026.46"/>
<text text-anchor="middle" x="845.88" y="-1061.08" font-family="Times,serif" font-size="14.00">w</text>
</g>
<!-- room_355 -->
<g id="node18" class="node">
<title>room_355</title>
<ellipse fill="none" stroke="black" cx="989.21" cy="-1216.51" rx="90.35" ry="18"/>
<text text-anchor="middle" x="989.21" y="-1212.31" font-family="Times,serif" font-size="14.00">Room of Living Death</text>
</g>
<!-- room_353&#45;&gt;room_355 -->
<g id="edge26" class="edge">
<title>room_353&#45;&gt;room_355</title>
<path fill="none" stroke="black" d="M900.3,-1123.84C913.99,-1142.4 939.08,-1171.19 959.18,-1191.8"/>
<polygon fill="black" stroke="black" points="956.8,-1194.37 966.33,-1198.99 961.76,-1189.43 956.8,-1194.37"/>
<text text-anchor="middle" x="926.63" y="-1160.62" font-family="Times,serif" font-size="14.00">e</text>
</g>
<!-- room_352 -->
<g id="node16" class="node">
<title>room_352</title>
<ellipse fill="none" stroke="black" cx="1236.91" cy="-1054.27" rx="49.48" ry="18"/>
<text text-anchor="middle" x="1236.91" y="-1050.07" font-family="Times,serif" font-size="14.00">Dead Vault</text>
</g>
<!-- room_362 -->
<g id="node17" class="node">
<title>room_362</title>
<ellipse fill="none" stroke="black" cx="1128.52" cy="-1151.14" rx="63.31" ry="18"/>
<text text-anchor="middle" x="1128.52" y="-1146.94" font-family="Times,serif" font-size="14.00">Malus Occulus</text>
</g>
<!-- room_352&#45;&gt;room_362 -->
<g id="edge25" class="edge">
<title>room_352&#45;&gt;room_362</title>
<path fill="none" stroke="black" d="M1211.28,-1069.73C1191.94,-1084.92 1165.91,-1108.13 1148.19,-1125.95"/>
<polygon fill="black" stroke="black" points="1145.59,-1123.6 1141.14,-1133.22 1150.62,-1128.47 1145.59,-1123.6"/>
<text text-anchor="middle" x="1176.23" y="-1100.64" font-family="Times,serif" font-size="14.00">n</text>
</g>
<!-- room_362&#45;&gt;room_352 -->
<g id="edge49" class="edge">
<title>room_362&#45;&gt;room_352</title>
<path fill="none" stroke="black" d="M1155.26,-1134.79C1174.45,-1119.61 1199.81,-1096.97 1217.2,-1079.5"/>
<polygon fill="black" stroke="black" points="1220.13,-1081.5 1224.57,-1071.88 1215.1,-1076.63 1220.13,-1081.5"/>
<text text-anchor="middle" x="1183.5" y="-1109.95" font-family="Times,serif" font-size="14.00">s</text>
</g>
<!-- room_362&#45;&gt;room_355 -->
<g id="edge48" class="edge">
<title>room_362&#45;&gt;room_355</title>
<path fill="none" stroke="black" d="M1085.6,-1164.44C1065.22,-1173.1 1041.26,-1184.42 1022.32,-1194.37"/>
<polygon fill="black" stroke="black" points="1020.62,-1191.31 1013.46,-1199.12 1023.93,-1197.48 1020.62,-1191.31"/>
<text text-anchor="middle" x="1050.46" y="-1182.21" font-family="Times,serif" font-size="14.00">n</text>
</g>
<!-- room_361 -->
<g id="node27" class="node">
<title>room_361</title>
<ellipse fill="none" stroke="black" cx="1249.49" cy="-1226.23" rx="77.26" ry="18"/>
<text text-anchor="middle" x="1249.49" y="-1222.03" font-family="Times,serif" font-size="14.00">Tezcatlipoca&#39;s Hall</text>
</g>
<!-- room_362&#45;&gt;room_361 -->
<g id="edge50" class="edge">
<title>room_362&#45;&gt;room_361</title>
<path fill="none" stroke="black" d="M1146.55,-1168.5C1161.5,-1179.45 1183.37,-1193.52 1203.12,-1205.08"/>
<polygon fill="black" stroke="black" points="1201.6,-1208.25 1212.01,-1210.2 1205.09,-1202.18 1201.6,-1208.25"/>
<text text-anchor="middle" x="1171.73" y="-1189.59" font-family="Times,serif" font-size="14.00">e</text>
</g>
<!-- room_355&#45;&gt;room_353 -->
<g id="edge33" class="edge">
<title>room_355&#45;&gt;room_353</title>
<path fill="none" stroke="black" d="M979.48,-1198.38C965.8,-1179.83 940.71,-1151.03 920.6,-1130.42"/>
<polygon fill="black" stroke="black" points="922.99,-1127.86 913.45,-1123.23 918.02,-1132.79 922.99,-1127.86"/>
<text text-anchor="middle" x="944.99" y="-1167.2" font-family="Times,serif" font-size="14.00">w</text>
</g>
<!-- room_355&#45;&gt;room_362 -->
<g id="edge31" class="edge">
<title>room_355&#45;&gt;room_362</title>
<path fill="none" stroke="black" d="M1037.14,-1201.05C1056.58,-1192.62 1078.52,-1182.17 1096.04,-1172.95"/>
<polygon fill="black" stroke="black" points="1098.13,-1175.79 1105.27,-1167.97 1094.8,-1169.63 1098.13,-1175.79"/>
<text text-anchor="middle" x="1063.87" y="-1175.8" font-family="Times,serif" font-size="14.00">s</text>
</g>
<!-- room_354 -->
<g id="node19" class="node">
<title>room_354</title>
<ellipse fill="none" stroke="black" cx="889.04" cy="-1330.26" rx="63.82" ry="18"/>
<text text-anchor="middle" x="889.04" y="-1326.06" font-family="Times,serif" font-size="14.00">Flame of Souls</text>
</g>
<!-- room_355&#45;&gt;room_354 -->
<g id="edge32" class="edge">
<title>room_355&#45;&gt;room_354</title>
<path fill="none" stroke="black" d="M966.56,-1234.08C947.64,-1252.87 921.33,-1282.69 904.66,-1304.2"/>
<polygon fill="black" stroke="black" points="901.8,-1302.18 898.57,-1312.28 907.39,-1306.4 901.8,-1302.18"/>
<text text-anchor="middle" x="932.5" y="-1271.94" font-family="Times,serif" font-size="14.00">e</text>
</g>
<!-- room_359 -->
<g id="node21" class="node">
<title>room_359</title>
<ellipse fill="none" stroke="black" cx="1073.32" cy="-1337.32" rx="67.67" ry="18"/>
<text text-anchor="middle" x="1073.32" y="-1333.12" font-family="Times,serif" font-size="14.00">Smoking Mirror</text>
</g>
<!-- room_355&#45;&gt;room_359 -->
<g id="edge30" class="edge">
<title>room_355&#45;&gt;room_359</title>
<path fill="none" stroke="black" d="M996.03,-1234.48C1007.53,-1255.02 1030.45,-1288.64 1048.45,-1311.85"/>
<polygon fill="black" stroke="black" points="1045.87,-1314.23 1054.83,-1319.89 1051.36,-1309.88 1045.87,-1314.23"/>
<text text-anchor="middle" x="1018.74" y="-1275.96" font-family="Times,serif" font-size="14.00">n</text>
</g>
<!-- room_354&#45;&gt;room_355 -->
<g id="edge28" class="edge">
<title>room_354&#45;&gt;room_355</title>
<path fill="none" stroke="black" d="M911.19,-1313.19C930.07,-1294.5 956.59,-1264.48 973.41,-1242.8"/>
<polygon fill="black" stroke="black" points="976.33,-1244.74 979.56,-1234.65 970.74,-1240.52 976.33,-1244.74"/>
<text text-anchor="middle" x="947.36" y="-1280.79" font-family="Times,serif" font-size="14.00">w</text>
</g>
<!-- room_676 -->
<g id="node20" class="node">
<title>room_676</title>
<ellipse fill="none" stroke="black" cx="820.43" cy="-1458.32" rx="82.64" ry="18"/>
<text text-anchor="middle" x="820.43" y="-1454.12" font-family="Times,serif" font-size="14.00">Ghalstract Absolung</text>
</g>
<!-- room_354&#45;&gt;room_676 -->
<g id="edge29" class="edge">
<title>room_354&#45;&gt;room_676</title>
<path fill="none" stroke="black" d="M879.5,-1348.06C867.94,-1369.64 848.36,-1406.2 834.93,-1431.26"/>
<polygon fill="black" stroke="black" points="831.75,-1429.78 830.11,-1440.25 837.92,-1433.09 831.75,-1429.78"/>
<text text-anchor="middle" x="853.72" y="-1392.46" font-family="Times,serif" font-size="14.00">u</text>
</g>
<!-- room_359&#45;&gt;room_355 -->
<g id="edge40" class="edge">
<title>room_359&#45;&gt;room_355</title>
<path fill="none" stroke="black" d="M1066.5,-1319.35C1055.07,-1298.94 1032.34,-1265.59 1014.39,-1242.39"/>
<polygon fill="black" stroke="black" points="1016.98,-1240.02 1008.03,-1234.35 1011.49,-1244.36 1016.98,-1240.02"/>
<text text-anchor="middle" x="1037.72" y="-1283.67" font-family="Times,serif" font-size="14.00">s</text>
</g>
<!-- room_675 -->
<g id="node24" class="node">
<title>room_675</title>
<ellipse fill="none" stroke="black" cx="1057.27" cy="-1481.12" rx="74.41" ry="18"/>
<text text-anchor="middle" x="1057.27" y="-1476.92" font-family="Times,serif" font-size="14.00">Behind the Mirror</text>
</g>
<!-- room_359&#45;&gt;room_675 -->
<g id="edge39" class="edge">
<title>room_359&#45;&gt;room_675</title>
<path fill="none" stroke="black" d="M1066.58,-1355.31C1061.38,-1379.79 1056.21,-1423.85 1054.94,-1452.8"/>
<polygon fill="black" stroke="black" points="1051.43,-1452.98 1054.65,-1463.08 1058.43,-1453.18 1051.43,-1452.98"/>
<text text-anchor="middle" x="1057.26" y="-1406.85" font-family="Times,serif" font-size="14.00">n</text>
</g>
<!-- room_360 -->
<g id="node25" class="node">
<title>room_360</title>
<ellipse fill="none" stroke="black" cx="1218.08" cy="-1351.46" rx="68.83" ry="18"/>
<text text-anchor="middle" x="1218.08" y="-1347.26" font-family="Times,serif" font-size="14.00">Temple to Death</text>
</g>
<!-- room_359&#45;&gt;room_360 -->
<g id="edge41" class="edge">
<title>room_359&#45;&gt;room_360</title>
<path fill="none" stroke="black" d="M1125.36,-1348.96C1129.79,-1349.5 1134.33,-1350.01 1138.9,-1350.49"/>
<polygon fill="black" stroke="black" points="1138.66,-1353.98 1148.95,-1351.48 1139.35,-1347.02 1138.66,-1353.98"/>
<text text-anchor="middle" x="1135.24" y="-1352.52" font-family="Times,serif" font-size="14.00">e</text>
</g>
<!-- room_357&#45;&gt;room_356 -->
<g id="edge36" class="edge">
<title>room_357&#45;&gt;room_356</title>
<path fill="none" stroke="black" d="M250.4,-996.95C266.73,-989.15 284.89,-979.65 299.77,-971.07"/>
<polygon fill="black" stroke="black" points="301.74,-973.98 308.57,-965.88 298.18,-967.95 301.74,-973.98"/>
<text text-anchor="middle" x="271.58" y="-972.81" font-family="Times,serif" font-size="14.00">n</text>
</g>
<!-- room_358 -->
<g id="node23" class="node">
<title>room_358</title>
<ellipse fill="none" stroke="black" cx="86.97" cy="-1073.33" rx="86.94" ry="18"/>
<text text-anchor="middle" x="86.97" y="-1069.13" font-family="Times,serif" font-size="14.00">Place of Deep Misery</text>
</g>
<!-- room_357&#45;&gt;room_358 -->
<g id="edge37" class="edge">
<title>room_357&#45;&gt;room_358</title>
<path fill="none" stroke="black" d="M162.54,-1027.59C147.71,-1034.6 131.49,-1042.98 117.89,-1050.68"/>
<polygon fill="black" stroke="black" points="115.82,-1047.83 108.94,-1055.89 119.34,-1053.89 115.82,-1047.83"/>
<text text-anchor="middle" x="137.49" y="-1041.94" font-family="Times,serif" font-size="14.00">s</text>
</g>
<!-- room_358&#45;&gt;room_357 -->
<g id="edge38" class="edge">
<title>room_358&#45;&gt;room_357</title>
<path fill="none" stroke="black" d="M131.77,-1057.77C146.44,-1050.81 162.39,-1042.56 175.8,-1034.96"/>
<polygon fill="black" stroke="black" points="177.74,-1037.88 184.63,-1029.83 174.22,-1031.83 177.74,-1037.88"/>
<text text-anchor="middle" x="150.29" y="-1035.16" font-family="Times,serif" font-size="14.00">n</text>
</g>
<!-- room_675&#45;&gt;room_359 -->
<g id="edge60" class="edge">
<title>room_675&#45;&gt;room_359</title>
<path fill="none" stroke="black" d="M1064.01,-1463.14C1069.2,-1438.66 1074.38,-1394.59 1075.65,-1365.65"/>
<polygon fill="black" stroke="black" points="1079.15,-1365.46 1075.94,-1355.37 1072.16,-1365.27 1079.15,-1365.46"/>
<text text-anchor="middle" x="1067.1" y="-1417.19" font-family="Times,serif" font-size="14.00">s</text>
</g>
<!-- room_360&#45;&gt;room_359 -->
<g id="edge45" class="edge">
<title>room_360&#45;&gt;room_359</title>
<path fill="none" stroke="black" d="M1165.63,-1339.78C1161.07,-1339.22 1156.4,-1338.7 1151.69,-1338.21"/>
<polygon fill="black" stroke="black" points="1151.65,-1334.69 1141.35,-1337.2 1150.96,-1341.66 1151.65,-1334.69"/>
<text text-anchor="middle" x="1153.61" y="-1327.79" font-family="Times,serif" font-size="14.00">w</text>
</g>
<!-- room_650 -->
<g id="node26" class="node">
<title>room_650</title>
<ellipse fill="none" stroke="black" cx="1330.86" cy="-1429.82" rx="69.31" ry="18"/>
<text text-anchor="middle" x="1330.86" y="-1425.62" font-family="Times,serif" font-size="14.00">Temple of Death</text>
</g>
<!-- room_360&#45;&gt;room_650 -->
<g id="edge42" class="edge">
<title>room_360&#45;&gt;room_650</title>
<path fill="none" stroke="black" d="M1222.05,-1369.72C1231.15,-1383.04 1250.52,-1399.48 1270.54,-1412.37"/>
<polygon fill="black" stroke="black" points="1268.78,-1415.39 1279.13,-1417.65 1272.44,-1409.43 1268.78,-1415.39"/>
<text text-anchor="middle" x="1242.79" y="-1393.84" font-family="Times,serif" font-size="14.00">n</text>
</g>
<!-- room_360&#45;&gt;room_650 -->
<g id="edge44" class="edge">
<title>room_360&#45;&gt;room_650</title>
<path fill="none" stroke="black" d="M1269.61,-1363.51C1288.7,-1374.67 1308.48,-1389.97 1320.59,-1403.6"/>
<polygon fill="black" stroke="black" points="1318.13,-1406.12 1327.07,-1411.81 1323.63,-1401.79 1318.13,-1406.12"/>
<text text-anchor="middle" x="1292" y="-1386.35" font-family="Times,serif" font-size="14.00">e</text>
</g>
<!-- room_360&#45;&gt;room_361 -->
<g id="edge43" class="edge">
<title>room_360&#45;&gt;room_361</title>
<path fill="none" stroke="black" d="M1227.81,-1333.39C1235.11,-1312.74 1243.86,-1278.69 1248.23,-1254.51"/>
<polygon fill="black" stroke="black" points="1251.71,-1254.93 1249.87,-1244.5 1244.8,-1253.8 1251.71,-1254.93"/>
<text text-anchor="middle" x="1235.3" y="-1296.75" font-family="Times,serif" font-size="14.00">s</text>
</g>
<!-- room_650&#45;&gt;room_360 -->
<g id="edge58" class="edge">
<title>room_650&#45;&gt;room_360</title>
<path fill="none" stroke="black" d="M1314.71,-1412.24C1300.41,-1400.49 1278.99,-1385.12 1259.94,-1372.71"/>
<polygon fill="black" stroke="black" points="1261.69,-1369.68 1251.38,-1367.25 1257.92,-1375.58 1261.69,-1369.68"/>
<text text-anchor="middle" x="1284.6" y="-1395.28" font-family="Times,serif" font-size="14.00">s</text>
</g>
<!-- room_650&#45;&gt;room_360 -->
<g id="edge59" class="edge">
<title>room_650&#45;&gt;room_360</title>
<path fill="none" stroke="black" d="M1297.49,-1413.98C1279.69,-1402.83 1258.24,-1387.86 1242.09,-1375.3"/>
<polygon fill="black" stroke="black" points="1244.18,-1372.49 1234.18,-1368.99 1239.81,-1377.96 1244.18,-1372.49"/>
<text text-anchor="middle" x="1264.73" y="-1397.44" font-family="Times,serif" font-size="14.00">w</text>
</g>
<!-- room_361&#45;&gt;room_362 -->
<g id="edge47" class="edge">
<title>room_361&#45;&gt;room_362</title>
<path fill="none" stroke="black" d="M1231.2,-1208.67C1215.8,-1197.42 1193.2,-1182.93 1173.11,-1171.24"/>
<polygon fill="black" stroke="black" points="1174.8,-1168.18 1164.39,-1166.26 1171.33,-1174.26 1174.8,-1168.18"/>
<text text-anchor="middle" x="1197.1" y="-1192.76" font-family="Times,serif" font-size="14.00">w</text>
</g>
<!-- room_361&#45;&gt;room_360 -->
<g id="edge46" class="edge">
<title>room_361&#45;&gt;room_360</title>
<path fill="none" stroke="black" d="M1239.77,-1244.3C1232.47,-1264.95 1223.72,-1299 1219.34,-1323.18"/>
<polygon fill="black" stroke="black" points="1215.86,-1322.76 1217.7,-1333.19 1222.77,-1323.89 1215.86,-1322.76"/>
<text text-anchor="middle" x="1226.05" y="-1286.54" font-family="Times,serif" font-size="14.00">n</text>
</g>
<!-- room_365&#45;&gt;room_364 -->
<g id="edge53" class="edge">
<title>room_365&#45;&gt;room_364</title>
<path fill="none" stroke="black" d="M854.38,-485.96C838.23,-503.52 816.56,-530.61 802.49,-550.74"/>
<polygon fill="black" stroke="black" points="799.49,-548.92 796.78,-559.17 805.28,-552.85 799.49,-548.92"/>
<text text-anchor="middle" x="825.71" y="-521.15" font-family="Times,serif" font-size="14.00">s</text>
</g>
</g>
</svg>
