<?xml version="1.0" encoding="UTF-8" standalone="no"?>
<!DOCTYPE svg PUBLIC "-//W3C//DTD SVG 1.1//EN"
 "http://www.w3.org/Graphics/SVG/1.1/DTD/svg11.dtd">
<!-- Generated by graphviz version 2.42.3 (20191010.1750)
 -->
<!-- Title: monster Pages: 1 -->
<svg width="2001pt" height="689pt"
 viewBox="0.00 0.00 2001.46 689.38" xmlns="http://www.w3.org/2000/svg" xmlns:xlink="http://www.w3.org/1999/xlink">
<g id="graph0" class="graph" transform="scale(1 1) rotate(0) translate(4 685.38)">
<title>monster</title>
<polygon fill="white" stroke="transparent" points="-4,4 -4,-685.38 1997.46,-685.38 1997.46,4 -4,4"/>
<!-- room_42 -->
<g id="node1" class="node">
<title>room_42</title>
<ellipse fill="none" stroke="black" cx="73" cy="-18" rx="73.01" ry="18"/>
<text text-anchor="middle" x="73" y="-13.8" font-family="Times,serif" font-size="14.00">Doom Pit Bottom</text>
</g>
<!-- room_43 -->
<g id="node2" class="node">
<title>room_43</title>
<ellipse fill="none" stroke="black" cx="270.52" cy="-113.02" rx="84.53" ry="18"/>
<text text-anchor="middle" x="270.52" y="-108.82" font-family="Times,serif" font-size="14.00">Cave of Mangled Elf</text>
</g>
<!-- room_42&#45;&gt;room_43 -->
<g id="edge1" class="edge">
<title>room_42&#45;&gt;room_43</title>
<path fill="none" stroke="black" d="M97.57,-35.13C127.04,-51.64 177.27,-76.26 216.04,-93.49"/>
<polygon fill="black" stroke="black" points="215.06,-96.88 225.63,-97.7 217.88,-90.48 215.06,-96.88"/>
<text text-anchor="middle" x="153.69" y="-67.11" font-family="Times,serif" font-size="14.00">e</text>
</g>
<!-- room_43&#45;&gt;room_42 -->
<g id="edge5" class="edge">
<title>room_43&#45;&gt;room_42</title>
<path fill="none" stroke="black" d="M245.56,-95.66C215.6,-78.91 164.6,-53.95 125.78,-36.77"/>
<polygon fill="black" stroke="black" points="126.76,-33.38 116.2,-32.58 123.96,-39.79 126.76,-33.38"/>
<text text-anchor="middle" x="180.61" y="-69.02" font-family="Times,serif" font-size="14.00">w</text>
</g>
<!-- room_49 -->
<g id="node3" class="node">
<title>room_49</title>
<ellipse fill="none" stroke="black" cx="478.55" cy="-85.35" rx="80.72" ry="18"/>
<text text-anchor="middle" x="478.55" y="-81.15" font-family="Times,serif" font-size="14.00">Confusing Passages</text>
</g>
<!-- room_43&#45;&gt;room_49 -->
<g id="edge2" class="edge">
<title>room_43&#45;&gt;room_49</title>
<path fill="none" stroke="black" d="M352.71,-108.75C373.13,-106.3 394.71,-103.33 414.14,-100.29"/>
<polygon fill="black" stroke="black" points="414.76,-103.73 424.08,-98.69 413.65,-96.82 414.76,-103.73"/>
<text text-anchor="middle" x="379.92" y="-107.32" font-family="Times,serif" font-size="14.00">n</text>
</g>
<!-- room_50 -->
<g id="node4" class="node">
<title>room_50</title>
<ellipse fill="none" stroke="black" cx="431.38" cy="-354.99" rx="68.44" ry="18"/>
<text text-anchor="middle" x="431.38" y="-350.79" font-family="Times,serif" font-size="14.00">Twisted Tunnels</text>
</g>
<!-- room_43&#45;&gt;room_50 -->
<g id="edge3" class="edge">
<title>room_43&#45;&gt;room_50</title>
<path fill="none" stroke="black" d="M278.33,-131.26C302.02,-173.88 372.07,-279.81 408.72,-329.09"/>
<polygon fill="black" stroke="black" points="406.12,-331.46 414.94,-337.33 411.7,-327.24 406.12,-331.46"/>
<text text-anchor="middle" x="340.8" y="-232.97" font-family="Times,serif" font-size="14.00">s</text>
</g>
<!-- room_44 -->
<g id="node5" class="node">
<title>room_44</title>
<ellipse fill="none" stroke="black" cx="297.48" cy="-268.29" rx="87.45" ry="18"/>
<text text-anchor="middle" x="297.48" y="-264.09" font-family="Times,serif" font-size="14.00">Cave of Skinned Man</text>
</g>
<!-- room_43&#45;&gt;room_44 -->
<g id="edge4" class="edge">
<title>room_43&#45;&gt;room_44</title>
<path fill="none" stroke="black" d="M269.16,-131.29C271.09,-158.11 279.49,-208.37 287.07,-239.99"/>
<polygon fill="black" stroke="black" points="283.74,-241.11 289.6,-249.94 290.53,-239.39 283.74,-241.11"/>
<text text-anchor="middle" x="275.01" y="-188.44" font-family="Times,serif" font-size="14.00">e</text>
</g>
<!-- room_49&#45;&gt;room_43 -->
<g id="edge21" class="edge">
<title>room_49&#45;&gt;room_43</title>
<path fill="none" stroke="black" d="M399.63,-89.23C378.78,-91.69 356.49,-94.72 336.41,-97.85"/>
<polygon fill="black" stroke="black" points="335.76,-94.41 326.44,-99.44 336.87,-101.32 335.76,-94.41"/>
<text text-anchor="middle" x="364.52" y="-96.34" font-family="Times,serif" font-size="14.00">n</text>
</g>
<!-- room_49&#45;&gt;room_44 -->
<g id="edge24" class="edge">
<title>room_49&#45;&gt;room_44</title>
<path fill="none" stroke="black" d="M454.96,-102.84C418.54,-135.37 349.67,-204.88 316.34,-242.68"/>
<polygon fill="black" stroke="black" points="313.69,-240.39 309.79,-250.24 318.98,-244.98 313.69,-240.39"/>
<text text-anchor="middle" x="380.59" y="-175.56" font-family="Times,serif" font-size="14.00">w</text>
</g>
<!-- room_45 -->
<g id="node6" class="node">
<title>room_45</title>
<ellipse fill="none" stroke="black" cx="505.38" cy="-255.18" rx="84.99" ry="18"/>
<text text-anchor="middle" x="505.38" y="-250.98" font-family="Times,serif" font-size="14.00">Cave of Eaten Dwarf</text>
</g>
<!-- room_49&#45;&gt;room_45 -->
<g id="edge22" class="edge">
<title>room_49&#45;&gt;room_45</title>
<path fill="none" stroke="black" d="M477.06,-103.56C478.79,-133.2 487.78,-192.07 495.65,-227.1"/>
<polygon fill="black" stroke="black" points="492.32,-228.23 498.05,-237.14 499.13,-226.6 492.32,-228.23"/>
<text text-anchor="middle" x="483.63" y="-168.13" font-family="Times,serif" font-size="14.00">s</text>
</g>
<!-- room_47 -->
<g id="node7" class="node">
<title>room_47</title>
<ellipse fill="none" stroke="black" cx="682.23" cy="-235.05" rx="83.69" ry="18"/>
<text text-anchor="middle" x="682.23" y="-230.85" font-family="Times,serif" font-size="14.00">Cave of Violated Pig</text>
</g>
<!-- room_49&#45;&gt;room_47 -->
<g id="edge23" class="edge">
<title>room_49&#45;&gt;room_47</title>
<path fill="none" stroke="black" d="M495.6,-103.07C527.81,-130.46 598.08,-182.57 642.64,-212.55"/>
<polygon fill="black" stroke="black" points="640.92,-215.61 651.19,-218.24 644.8,-209.78 640.92,-215.61"/>
<text text-anchor="middle" x="566.01" y="-160.61" font-family="Times,serif" font-size="14.00">e</text>
</g>
<!-- room_50&#45;&gt;room_43 -->
<g id="edge28" class="edge">
<title>room_50&#45;&gt;room_43</title>
<path fill="none" stroke="black" d="M423.57,-336.75C399.88,-294.12 329.83,-188.2 293.19,-138.92"/>
<polygon fill="black" stroke="black" points="295.78,-136.55 286.96,-130.68 290.2,-140.77 295.78,-136.55"/>
<text text-anchor="middle" x="353.32" y="-226.63" font-family="Times,serif" font-size="14.00">w</text>
</g>
<!-- room_50&#45;&gt;room_44 -->
<g id="edge25" class="edge">
<title>room_50&#45;&gt;room_44</title>
<path fill="none" stroke="black" d="M413.49,-337.41C395.41,-323.65 366.85,-304.65 342.58,-289.98"/>
<polygon fill="black" stroke="black" points="344.24,-286.9 333.86,-284.79 340.66,-292.92 344.24,-286.9"/>
<text text-anchor="middle" x="374.53" y="-316.5" font-family="Times,serif" font-size="14.00">n</text>
</g>
<!-- room_50&#45;&gt;room_45 -->
<g id="edge27" class="edge">
<title>room_50&#45;&gt;room_45</title>
<path fill="none" stroke="black" d="M451.21,-337.64C464.42,-322.27 481.25,-299.7 492.72,-282.02"/>
<polygon fill="black" stroke="black" points="495.85,-283.62 498.18,-273.29 489.91,-279.91 495.85,-283.62"/>
<text text-anchor="middle" x="468.86" y="-312.63" font-family="Times,serif" font-size="14.00">e</text>
</g>
<!-- room_50&#45;&gt;room_47 -->
<g id="edge26" class="edge">
<title>room_50&#45;&gt;room_47</title>
<path fill="none" stroke="black" d="M473.04,-340.7C521.91,-319.85 602,-281.52 647.61,-257.09"/>
<polygon fill="black" stroke="black" points="649.4,-260.09 656.52,-252.24 646.06,-253.94 649.4,-260.09"/>
<text text-anchor="middle" x="557.6" y="-301.69" font-family="Times,serif" font-size="14.00">s</text>
</g>
<!-- room_44&#45;&gt;room_43 -->
<g id="edge9" class="edge">
<title>room_44&#45;&gt;room_43</title>
<path fill="none" stroke="black" d="M298.83,-250.02C296.91,-223.19 288.5,-172.93 280.93,-141.31"/>
<polygon fill="black" stroke="black" points="284.25,-140.2 278.4,-131.37 277.47,-141.92 284.25,-140.2"/>
<text text-anchor="middle" x="284.82" y="-198.47" font-family="Times,serif" font-size="14.00">w</text>
</g>
<!-- room_44&#45;&gt;room_49 -->
<g id="edge6" class="edge">
<title>room_44&#45;&gt;room_49</title>
<path fill="none" stroke="black" d="M321.07,-250.8C357.48,-218.28 426.35,-148.77 459.68,-110.96"/>
<polygon fill="black" stroke="black" points="462.33,-113.25 466.23,-103.4 457.04,-108.67 462.33,-113.25"/>
<text text-anchor="middle" x="393.88" y="-183.68" font-family="Times,serif" font-size="14.00">n</text>
</g>
<!-- room_44&#45;&gt;room_50 -->
<g id="edge7" class="edge">
<title>room_44&#45;&gt;room_50</title>
<path fill="none" stroke="black" d="M315.65,-286.09C334.09,-300.1 363.25,-319.45 387.71,-334.16"/>
<polygon fill="black" stroke="black" points="386.09,-337.27 396.47,-339.35 389.65,-331.24 386.09,-337.27"/>
<text text-anchor="middle" x="348.95" y="-312.92" font-family="Times,serif" font-size="14.00">s</text>
</g>
<!-- room_44&#45;&gt;room_45 -->
<g id="edge8" class="edge">
<title>room_44&#45;&gt;room_45</title>
<path fill="none" stroke="black" d="M384.86,-269.46C398.7,-268.72 412.94,-267.79 426.57,-266.74"/>
<polygon fill="black" stroke="black" points="427.17,-270.2 436.86,-265.91 426.61,-263.22 427.17,-270.2"/>
<text text-anchor="middle" x="402.61" y="-270.9" font-family="Times,serif" font-size="14.00">e</text>
</g>
<!-- room_45&#45;&gt;room_49 -->
<g id="edge10" class="edge">
<title>room_45&#45;&gt;room_49</title>
<path fill="none" stroke="black" d="M506.86,-236.97C505.13,-207.33 496.14,-148.46 488.27,-113.44"/>
<polygon fill="black" stroke="black" points="491.6,-112.3 485.87,-103.39 484.79,-113.93 491.6,-112.3"/>
<text text-anchor="middle" x="494.07" y="-178" font-family="Times,serif" font-size="14.00">n</text>
</g>
<!-- room_45&#45;&gt;room_50 -->
<g id="edge11" class="edge">
<title>room_45&#45;&gt;room_50</title>
<path fill="none" stroke="black" d="M485.16,-272.99C471.94,-288.42 455.25,-310.84 443.89,-328.38"/>
<polygon fill="black" stroke="black" points="440.81,-326.71 438.48,-337.04 446.74,-330.42 440.81,-326.71"/>
<text text-anchor="middle" x="461.8" y="-303.49" font-family="Times,serif" font-size="14.00">s</text>
</g>
<!-- room_45&#45;&gt;room_44 -->
<g id="edge13" class="edge">
<title>room_45&#45;&gt;room_44</title>
<path fill="none" stroke="black" d="M420.4,-253.88C406.28,-254.62 391.67,-255.55 377.67,-256.62"/>
<polygon fill="black" stroke="black" points="377.29,-253.14 367.6,-257.43 377.85,-260.12 377.29,-253.14"/>
<text text-anchor="middle" x="393.98" y="-258.05" font-family="Times,serif" font-size="14.00">w</text>
</g>
<!-- room_45&#45;&gt;room_47 -->
<g id="edge12" class="edge">
<title>room_45&#45;&gt;room_47</title>
<path fill="none" stroke="black" d="M589.39,-252.4C597.71,-251.49 606.08,-250.49 614.21,-249.44"/>
<polygon fill="black" stroke="black" points="614.9,-252.87 624.35,-248.08 613.97,-245.94 614.9,-252.87"/>
<text text-anchor="middle" x="598.69" y="-253.72" font-family="Times,serif" font-size="14.00">e</text>
</g>
<!-- room_47&#45;&gt;room_49 -->
<g id="edge14" class="edge">
<title>room_47&#45;&gt;room_49</title>
<path fill="none" stroke="black" d="M665.18,-217.33C632.97,-189.95 562.7,-137.83 518.14,-107.85"/>
<polygon fill="black" stroke="black" points="519.86,-104.79 509.59,-102.17 515.98,-110.62 519.86,-104.79"/>
<text text-anchor="middle" x="588.16" y="-165.39" font-family="Times,serif" font-size="14.00">n</text>
</g>
<!-- room_47&#45;&gt;room_50 -->
<g id="edge15" class="edge">
<title>room_47&#45;&gt;room_50</title>
<path fill="none" stroke="black" d="M638.01,-250.44C588.76,-271.59 510.27,-309.22 465.53,-333.21"/>
<polygon fill="black" stroke="black" points="463.63,-330.26 456.51,-338.12 466.97,-336.41 463.63,-330.26"/>
<text text-anchor="middle" x="549.04" y="-294.63" font-family="Times,serif" font-size="14.00">s</text>
</g>
<!-- room_47&#45;&gt;room_45 -->
<g id="edge17" class="edge">
<title>room_47&#45;&gt;room_45</title>
<path fill="none" stroke="black" d="M599.26,-237.72C590.72,-238.65 582.12,-239.67 573.77,-240.75"/>
<polygon fill="black" stroke="black" points="573.18,-237.3 563.73,-242.09 574.11,-244.23 573.18,-237.3"/>
<text text-anchor="middle" x="591.57" y="-228.03" font-family="Times,serif" font-size="14.00">w</text>
</g>
<!-- room_48 -->
<g id="node8" class="node">
<title>room_48</title>
<ellipse fill="none" stroke="black" cx="902.22" cy="-245.12" rx="79.27" ry="18"/>
<text text-anchor="middle" x="902.22" y="-240.92" font-family="Times,serif" font-size="14.00">Grand Troll Cavern</text>
</g>
<!-- room_47&#45;&gt;room_48 -->
<g id="edge16" class="edge">
<title>room_47&#45;&gt;room_48</title>
<path fill="none" stroke="black" d="M753.37,-244.68C772.56,-245.96 793.57,-247.01 813.59,-247.7"/>
<polygon fill="black" stroke="black" points="813.53,-251.2 823.64,-248.03 813.76,-244.21 813.53,-251.2"/>
<text text-anchor="middle" x="780.37" y="-248.99" font-family="Times,serif" font-size="14.00">e</text>
</g>
<!-- room_48&#45;&gt;room_47 -->
<g id="edge20" class="edge">
<title>room_48&#45;&gt;room_47</title>
<path fill="none" stroke="black" d="M834.41,-235.72C815.84,-234.44 795.38,-233.38 775.65,-232.64"/>
<polygon fill="black" stroke="black" points="775.52,-229.14 765.41,-232.29 775.28,-236.13 775.52,-229.14"/>
<text text-anchor="middle" x="799.97" y="-236.98" font-family="Times,serif" font-size="14.00">w</text>
</g>
<!-- room_459 -->
<g id="node9" class="node">
<title>room_459</title>
<ellipse fill="none" stroke="black" cx="991.22" cy="-19.46" rx="59.45" ry="18"/>
<text text-anchor="middle" x="991.22" y="-15.26" font-family="Times,serif" font-size="14.00">Blood Cavern</text>
</g>
<!-- room_48&#45;&gt;room_459 -->
<g id="edge18" class="edge">
<title>room_48&#45;&gt;room_459</title>
<path fill="none" stroke="black" d="M913.7,-226.96C932.97,-187.56 970,-94.14 985.11,-47.26"/>
<polygon fill="black" stroke="black" points="988.53,-48.05 988.15,-37.46 981.84,-45.98 988.53,-48.05"/>
<text text-anchor="middle" x="946.68" y="-139.91" font-family="Times,serif" font-size="14.00">s</text>
</g>
<!-- room_446 -->
<g id="node10" class="node">
<title>room_446</title>
<ellipse fill="none" stroke="black" cx="1065.58" cy="-425.23" rx="59.97" ry="18"/>
<text text-anchor="middle" x="1065.58" y="-421.03" font-family="Times,serif" font-size="14.00">Pool of Blood</text>
</g>
<!-- room_48&#45;&gt;room_446 -->
<g id="edge19" class="edge">
<title>room_48&#45;&gt;room_446</title>
<path fill="none" stroke="black" d="M913.2,-263.15C938.34,-295.79 1000.02,-364.31 1036.8,-400.99"/>
<polygon fill="black" stroke="black" points="1034.66,-403.8 1044.25,-408.31 1039.57,-398.8 1034.66,-403.8"/>
<text text-anchor="middle" x="971.89" y="-334.87" font-family="Times,serif" font-size="14.00">e</text>
</g>
<!-- room_459&#45;&gt;room_48 -->
<g id="edge41" class="edge">
<title>room_459&#45;&gt;room_48</title>
<path fill="none" stroke="black" d="M979.93,-37.24C960.73,-76.38 923.56,-170.14 908.38,-217.2"/>
<polygon fill="black" stroke="black" points="904.95,-216.45 905.33,-227.04 911.63,-218.52 904.95,-216.45"/>
<text text-anchor="middle" x="940.66" y="-116.02" font-family="Times,serif" font-size="14.00">n</text>
</g>
<!-- room_446&#45;&gt;room_48 -->
<g id="edge31" class="edge">
<title>room_446&#45;&gt;room_48</title>
<path fill="none" stroke="black" d="M1054.6,-407.2C1029.59,-374.74 968.43,-306.76 931.58,-269.95"/>
<polygon fill="black" stroke="black" points="933.69,-267.11 924.11,-262.59 928.78,-272.1 933.69,-267.11"/>
<text text-anchor="middle" x="988.03" y="-341.37" font-family="Times,serif" font-size="14.00">w</text>
</g>
<!-- room_448 -->
<g id="node11" class="node">
<title>room_448</title>
<ellipse fill="none" stroke="black" cx="1294.64" cy="-411.41" rx="46.29" ry="18"/>
<text text-anchor="middle" x="1294.64" y="-407.21" font-family="Times,serif" font-size="14.00">Troll Stair</text>
</g>
<!-- room_446&#45;&gt;room_448 -->
<g id="edge29" class="edge">
<title>room_446&#45;&gt;room_448</title>
<path fill="none" stroke="black" d="M1124.93,-427.65C1161.43,-426.54 1207.75,-423.67 1242.78,-420.32"/>
<polygon fill="black" stroke="black" points="1243.2,-423.8 1252.8,-419.32 1242.5,-416.83 1243.2,-423.8"/>
<text text-anchor="middle" x="1180.35" y="-426.79" font-family="Times,serif" font-size="14.00">n</text>
</g>
<!-- room_447 -->
<g id="node12" class="node">
<title>room_447</title>
<ellipse fill="none" stroke="black" cx="1041.28" cy="-663.38" rx="77.4" ry="18"/>
<text text-anchor="middle" x="1041.28" y="-659.18" font-family="Times,serif" font-size="14.00">Troll Warrior Cave</text>
</g>
<!-- room_446&#45;&gt;room_447 -->
<g id="edge30" class="edge">
<title>room_446&#45;&gt;room_447</title>
<path fill="none" stroke="black" d="M1059.85,-443.53C1051.98,-484.86 1041.47,-585.64 1039.62,-635.09"/>
<polygon fill="black" stroke="black" points="1036.11,-635.29 1039.35,-645.38 1043.11,-635.47 1036.11,-635.29"/>
<text text-anchor="middle" x="1047.01" y="-542.11" font-family="Times,serif" font-size="14.00">s</text>
</g>
<!-- room_448&#45;&gt;room_446 -->
<g id="edge34" class="edge">
<title>room_448&#45;&gt;room_446</title>
<path fill="none" stroke="black" d="M1248.78,-408.66C1213.96,-409.32 1165.71,-412.05 1127.47,-415.41"/>
<polygon fill="black" stroke="black" points="1127.12,-411.92 1117.48,-416.32 1127.76,-418.89 1127.12,-411.92"/>
<text text-anchor="middle" x="1185.4" y="-400.83" font-family="Times,serif" font-size="14.00">s</text>
</g>
<!-- room_449 -->
<g id="node13" class="node">
<title>room_449</title>
<ellipse fill="none" stroke="black" cx="1510.12" cy="-427.69" rx="74.96" ry="18"/>
<text text-anchor="middle" x="1510.12" y="-423.49" font-family="Times,serif" font-size="14.00">Troll King&#39;s Tomb</text>
</g>
<!-- room_448&#45;&gt;room_449 -->
<g id="edge35" class="edge">
<title>room_448&#45;&gt;room_449</title>
<path fill="none" stroke="black" d="M1335.52,-419.96C1360.69,-423.02 1393.9,-425.92 1424.6,-427.87"/>
<polygon fill="black" stroke="black" points="1424.7,-431.38 1434.9,-428.49 1425.13,-424.39 1424.7,-431.38"/>
<text text-anchor="middle" x="1376.56" y="-426.72" font-family="Times,serif" font-size="14.00">u</text>
</g>
<!-- room_447&#45;&gt;room_446 -->
<g id="edge32" class="edge">
<title>room_447&#45;&gt;room_446</title>
<path fill="none" stroke="black" d="M1047.01,-645.09C1054.88,-603.76 1065.39,-502.98 1067.24,-453.53"/>
<polygon fill="black" stroke="black" points="1070.75,-453.33 1067.51,-443.24 1063.75,-453.15 1070.75,-453.33"/>
<text text-anchor="middle" x="1053.63" y="-552.11" font-family="Times,serif" font-size="14.00">n</text>
</g>
<!-- room_447&#45;&gt;room_447 -->
<g id="edge33" class="edge">
<title>room_447&#45;&gt;room_447</title>
<path fill="none" stroke="black" d="M1113.52,-669.79C1126.99,-669 1136.48,-666.87 1136.48,-663.38 1136.48,-660.86 1131.47,-659.04 1123.56,-657.93"/>
<polygon fill="black" stroke="black" points="1123.8,-654.44 1113.52,-656.98 1123.14,-661.41 1123.8,-654.44"/>
<text text-anchor="middle" x="1139.59" y="-659.18" font-family="Times,serif" font-size="14.00">e</text>
</g>
<!-- room_449&#45;&gt;room_448 -->
<g id="edge37" class="edge">
<title>room_449&#45;&gt;room_448</title>
<path fill="none" stroke="black" d="M1449.7,-416.96C1418.68,-413.77 1381.13,-410.98 1350.75,-409.64"/>
<polygon fill="black" stroke="black" points="1350.87,-406.14 1340.74,-409.25 1350.59,-413.14 1350.87,-406.14"/>
<text text-anchor="middle" x="1396.73" y="-416.1" font-family="Times,serif" font-size="14.00">d</text>
</g>
<!-- room_450 -->
<g id="node14" class="node">
<title>room_450</title>
<ellipse fill="none" stroke="black" cx="1716.5" cy="-474.22" rx="54.11" ry="18"/>
<text text-anchor="middle" x="1716.5" y="-470.02" font-family="Times,serif" font-size="14.00">Crawl&#45;space</text>
</g>
<!-- room_449&#45;&gt;room_450 -->
<g id="edge36" class="edge">
<title>room_449&#45;&gt;room_450</title>
<path fill="none" stroke="black" d="M1551.66,-442.79C1581.22,-450.79 1621.45,-460.07 1654.76,-466.66"/>
<polygon fill="black" stroke="black" points="1654.37,-470.15 1664.86,-468.62 1655.71,-463.28 1654.37,-470.15"/>
<text text-anchor="middle" x="1599.71" y="-457.53" font-family="Times,serif" font-size="14.00">n</text>
</g>
<!-- room_450&#45;&gt;room_449 -->
<g id="edge39" class="edge">
<title>room_450&#45;&gt;room_449</title>
<path fill="none" stroke="black" d="M1680.3,-460.58C1654.38,-453.39 1618.53,-444.9 1586.42,-438.21"/>
<polygon fill="black" stroke="black" points="1587.09,-434.78 1576.59,-436.2 1585.68,-441.63 1587.09,-434.78"/>
<text text-anchor="middle" x="1630.64" y="-452.2" font-family="Times,serif" font-size="14.00">s</text>
</g>
<!-- room_451 -->
<g id="node15" class="node">
<title>room_451</title>
<ellipse fill="none" stroke="black" cx="1909.47" cy="-556.88" rx="83.99" ry="18"/>
<text text-anchor="middle" x="1909.47" y="-552.68" font-family="Times,serif" font-size="14.00">Troll Treasure Room</text>
</g>
<!-- room_450&#45;&gt;room_451 -->
<g id="edge38" class="edge">
<title>room_450&#45;&gt;room_451</title>
<path fill="none" stroke="black" d="M1741.82,-490.37C1769.38,-504.27 1814.36,-524.02 1850.8,-538.49"/>
<polygon fill="black" stroke="black" points="1849.76,-541.85 1860.35,-542.24 1852.31,-535.33 1849.76,-541.85"/>
<text text-anchor="middle" x="1792.81" y="-517.23" font-family="Times,serif" font-size="14.00">n</text>
</g>
<!-- room_451&#45;&gt;room_450 -->
<g id="edge40" class="edge">
<title>room_451&#45;&gt;room_450</title>
<path fill="none" stroke="black" d="M1882.13,-539.72C1852.41,-524.88 1804.28,-503.92 1767.54,-489.61"/>
<polygon fill="black" stroke="black" points="1768.57,-486.25 1757.98,-485.94 1766.06,-492.79 1768.57,-486.25"/>
<text text-anchor="middle" x="1822.11" y="-517.47" font-family="Times,serif" font-size="14.00">s</text>
</g>
</g>
</svg>
