<?xml version="1.0" encoding="UTF-8" standalone="no"?>
<!DOCTYPE svg PUBLIC "-//W3C//DTD SVG 1.1//EN"
 "http://www.w3.org/Graphics/SVG/1.1/DTD/svg11.dtd">
<!-- Generated by graphviz version 2.42.3 (20191010.1750)
 -->
<!-- Title: monster Pages: 1 -->
<svg width="569pt" height="430pt"
 viewBox="0.00 0.00 568.98 429.56" xmlns="http://www.w3.org/2000/svg" xmlns:xlink="http://www.w3.org/1999/xlink">
<g id="graph0" class="graph" transform="scale(1 1) rotate(0) translate(4 425.56)">
<title>monster</title>
<polygon fill="white" stroke="transparent" points="-4,4 -4,-425.56 564.98,-425.56 564.98,4 -4,4"/>
<!-- room_1 -->
<g id="node1" class="node">
<title>room_1</title>
<ellipse fill="none" stroke="black" cx="47.18" cy="-403.56" rx="47.36" ry="18"/>
<text text-anchor="middle" x="47.18" y="-399.36" font-family="Times,serif" font-size="14.00">Great Hall</text>
</g>
<!-- room_79 -->
<g id="node2" class="node">
<title>room_79</title>
<ellipse fill="none" stroke="black" cx="97.36" cy="-359.56" rx="64.63" ry="18"/>
<text text-anchor="middle" x="97.36" y="-355.36" font-family="Times,serif" font-size="14.00">Sucking Vortex</text>
</g>
<!-- room_1&#45;&gt;room_79 -->
<g id="edge1" class="edge">
<title>room_1&#45;&gt;room_79</title>
<path fill="none" stroke="black" d="M66.15,-386.93C67.45,-385.79 68.77,-384.63 70.1,-383.46"/>
<polygon fill="black" stroke="black" points="72.48,-386.03 77.69,-376.8 67.87,-380.77 72.48,-386.03"/>
<text text-anchor="middle" x="64.62" y="-373.99" font-family="Times,serif" font-size="14.00">d</text>
</g>
<!-- room_471 -->
<g id="node3" class="node">
<title>room_471</title>
<ellipse fill="none" stroke="black" cx="140.98" cy="-309.04" rx="59.94" ry="18"/>
<text text-anchor="middle" x="140.98" y="-304.84" font-family="Times,serif" font-size="14.00">Golden Doors</text>
</g>
<!-- room_79&#45;&gt;room_471 -->
<g id="edge2" class="edge">
<title>room_79&#45;&gt;room_471</title>
<path fill="none" stroke="black" d="M112.61,-341.89C114.59,-339.6 116.65,-337.21 118.72,-334.82"/>
<polygon fill="black" stroke="black" points="121.77,-336.64 125.65,-326.79 116.47,-332.07 121.77,-336.64"/>
<text text-anchor="middle" x="112.17" y="-327.15" font-family="Times,serif" font-size="14.00">n</text>
</g>
<!-- room_472 -->
<g id="node4" class="node">
<title>room_472</title>
<ellipse fill="none" stroke="black" cx="183.16" cy="-257.26" rx="82.12" ry="18"/>
<text text-anchor="middle" x="183.16" y="-253.06" font-family="Times,serif" font-size="14.00">Carpeted Concourse</text>
</g>
<!-- room_471&#45;&gt;room_472 -->
<g id="edge3" class="edge">
<title>room_471&#45;&gt;room_472</title>
<path fill="none" stroke="black" d="M163.28,-292.18C165.69,-289.43 168.07,-286.52 170.31,-283.62"/>
<polygon fill="black" stroke="black" points="173.15,-285.67 176.18,-275.51 167.48,-281.56 173.15,-285.67"/>
<text text-anchor="middle" x="163.3" y="-276.7" font-family="Times,serif" font-size="14.00">n</text>
</g>
<!-- room_472&#45;&gt;room_471 -->
<g id="edge5" class="edge">
<title>room_472&#45;&gt;room_471</title>
<path fill="none" stroke="black" d="M160.34,-274.71C158.05,-277.36 155.78,-280.14 153.64,-282.92"/>
<polygon fill="black" stroke="black" points="150.72,-280.99 147.71,-291.15 156.4,-285.08 150.72,-280.99"/>
<text text-anchor="middle" x="154.27" y="-281.61" font-family="Times,serif" font-size="14.00">s</text>
</g>
<!-- room_473 -->
<g id="node5" class="node">
<title>room_473</title>
<ellipse fill="none" stroke="black" cx="218.58" cy="-200.58" rx="65.72" ry="18"/>
<text text-anchor="middle" x="218.58" y="-196.38" font-family="Times,serif" font-size="14.00">Silver Chamber</text>
</g>
<!-- room_472&#45;&gt;room_473 -->
<g id="edge4" class="edge">
<title>room_472&#45;&gt;room_473</title>
<path fill="none" stroke="black" d="M201.9,-239.63C204.47,-235.92 207.02,-231.92 209.34,-227.96"/>
<polygon fill="black" stroke="black" points="212.57,-229.35 214.27,-218.89 206.42,-226.01 212.57,-229.35"/>
<text text-anchor="middle" x="202.12" y="-222.59" font-family="Times,serif" font-size="14.00">n</text>
</g>
<!-- room_473&#45;&gt;room_472 -->
<g id="edge6" class="edge">
<title>room_473&#45;&gt;room_472</title>
<path fill="none" stroke="black" d="M200.05,-217.9C197.34,-221.79 194.65,-226.01 192.22,-230.19"/>
<polygon fill="black" stroke="black" points="189.06,-228.68 187.37,-239.14 195.21,-232.01 189.06,-228.68"/>
<text text-anchor="middle" x="193.41" y="-226.84" font-family="Times,serif" font-size="14.00">s</text>
</g>
<!-- room_474 -->
<g id="node6" class="node">
<title>room_474</title>
<ellipse fill="none" stroke="black" cx="246.51" cy="-139.89" rx="68.01" ry="18"/>
<text text-anchor="middle" x="246.51" y="-135.69" font-family="Times,serif" font-size="14.00">Trial by Combat</text>
</g>
<!-- room_473&#45;&gt;room_474 -->
<g id="edge7" class="edge">
<title>room_473&#45;&gt;room_474</title>
<path fill="none" stroke="black" d="M226.81,-182.7C229.06,-177.81 231.55,-172.39 233.99,-167.1"/>
<polygon fill="black" stroke="black" points="237.24,-168.4 238.24,-157.86 230.88,-165.48 237.24,-168.4"/>
<text text-anchor="middle" x="227.29" y="-163.7" font-family="Times,serif" font-size="14.00">e</text>
</g>
<!-- room_475 -->
<g id="node7" class="node">
<title>room_475</title>
<ellipse fill="none" stroke="black" cx="269.24" cy="-77.13" rx="69.07" ry="18"/>
<text text-anchor="middle" x="269.24" y="-72.93" font-family="Times,serif" font-size="14.00">Lair of the Beast</text>
</g>
<!-- room_474&#45;&gt;room_475 -->
<g id="edge8" class="edge">
<title>room_474&#45;&gt;room_475</title>
<path fill="none" stroke="black" d="M266.63,-122.35C269.24,-117.1 271.44,-111.22 272.96,-105.47"/>
<polygon fill="black" stroke="black" points="276.44,-105.92 274.9,-95.43 269.57,-104.59 276.44,-105.92"/>
<text text-anchor="middle" x="266.3" y="-102.71" font-family="Times,serif" font-size="14.00">n</text>
</g>
<!-- room_474&#45;&gt;room_475 -->
<g id="edge9" class="edge">
<title>room_474&#45;&gt;room_475</title>
<path fill="none" stroke="black" d="M240.84,-121.73C241.44,-116.29 242.93,-110.22 245.03,-104.34"/>
<polygon fill="black" stroke="black" points="248.4,-105.36 249.07,-94.79 241.95,-102.64 248.4,-105.36"/>
<text text-anchor="middle" x="237.88" y="-101.84" font-family="Times,serif" font-size="14.00">w</text>
</g>
<!-- room_475&#45;&gt;room_474 -->
<g id="edge10" class="edge">
<title>room_475&#45;&gt;room_474</title>
<path fill="none" stroke="black" d="M262.67,-95.28C260.8,-100.44 258.72,-106.19 256.69,-111.79"/>
<polygon fill="black" stroke="black" points="253.26,-110.97 253.15,-121.56 259.85,-113.35 253.26,-110.97"/>
<text text-anchor="middle" x="256.95" y="-106.34" font-family="Times,serif" font-size="14.00">s</text>
</g>
<!-- room_476 -->
<g id="node8" class="node">
<title>room_476</title>
<ellipse fill="none" stroke="black" cx="299.92" cy="-18" rx="55.64" ry="18"/>
<text text-anchor="middle" x="299.92" y="-13.8" font-family="Times,serif" font-size="14.00">Long Tunnel</text>
</g>
<!-- room_475&#45;&gt;room_476 -->
<g id="edge11" class="edge">
<title>room_475&#45;&gt;room_476</title>
<path fill="none" stroke="black" d="M285.72,-59.43C288.31,-55.06 290.87,-50.27 293.13,-45.56"/>
<polygon fill="black" stroke="black" points="296.45,-46.68 297.28,-36.12 290.05,-43.86 296.45,-46.68"/>
<text text-anchor="middle" x="286.31" y="-41.29" font-family="Times,serif" font-size="14.00">e</text>
</g>
<!-- room_476&#45;&gt;room_475 -->
<g id="edge12" class="edge">
<title>room_476&#45;&gt;room_475</title>
<path fill="none" stroke="black" d="M283.64,-35.38C281.02,-39.76 278.44,-44.57 276.16,-49.32"/>
<polygon fill="black" stroke="black" points="272.8,-48.27 271.95,-58.83 279.2,-51.1 272.8,-48.27"/>
<text text-anchor="middle" x="274.84" y="-45.15" font-family="Times,serif" font-size="14.00">w</text>
</g>
<!-- room_478 -->
<g id="node9" class="node">
<title>room_478</title>
<ellipse fill="none" stroke="black" cx="324.46" cy="-337.78" rx="60.42" ry="18"/>
<text text-anchor="middle" x="324.46" y="-333.58" font-family="Times,serif" font-size="14.00">Glum Passage</text>
</g>
<!-- room_479 -->
<g id="node10" class="node">
<title>room_479</title>
<ellipse fill="none" stroke="black" cx="476.96" cy="-315" rx="84.04" ry="18"/>
<text text-anchor="middle" x="476.96" y="-310.8" font-family="Times,serif" font-size="14.00">Introverted Chamber</text>
</g>
<!-- room_478&#45;&gt;room_479 -->
<g id="edge13" class="edge">
<title>room_478&#45;&gt;room_479</title>
<path fill="none" stroke="black" d="M384.83,-335.44C394.89,-334.12 405.34,-332.57 415.43,-330.92"/>
<polygon fill="black" stroke="black" points="416.1,-334.35 425.38,-329.23 414.93,-327.45 416.1,-334.35"/>
<text text-anchor="middle" x="396.63" y="-335.98" font-family="Times,serif" font-size="14.00">n</text>
</g>
<!-- room_479&#45;&gt;room_478 -->
<g id="edge14" class="edge">
<title>room_479&#45;&gt;room_478</title>
<path fill="none" stroke="black" d="M396.14,-320.26C389.86,-321.22 383.63,-322.23 377.61,-323.28"/>
<polygon fill="black" stroke="black" points="376.93,-319.85 367.7,-325.07 378.17,-326.74 376.93,-319.85"/>
<text text-anchor="middle" x="389.6" y="-324.57" font-family="Times,serif" font-size="14.00">s</text>
</g>
</g>
</svg>
