<?xml version="1.0" encoding="UTF-8" standalone="no"?>
<!DOCTYPE svg PUBLIC "-//W3C//DTD SVG 1.1//EN"
 "http://www.w3.org/Graphics/SVG/1.1/DTD/svg11.dtd">
<!-- Generated by graphviz version 2.42.3 (20191010.1750)
 -->
<!-- Title: monster Pages: 1 -->
<svg width="187pt" height="140pt"
 viewBox="0.00 0.00 187.24 140.32" xmlns="http://www.w3.org/2000/svg" xmlns:xlink="http://www.w3.org/1999/xlink">
<g id="graph0" class="graph" transform="scale(1 1) rotate(0) translate(4 136.32)">
<title>monster</title>
<polygon fill="white" stroke="transparent" points="-4,4 -4,-136.32 183.24,-136.32 183.24,4 -4,4"/>
<!-- room_2 -->
<g id="node1" class="node">
<title>room_2</title>
<ellipse fill="none" stroke="black" cx="27" cy="-114.32" rx="27" ry="18"/>
<text text-anchor="middle" x="27" y="-110.12" font-family="Times,serif" font-size="14.00">Void</text>
</g>
<!-- room_470 -->
<g id="node2" class="node">
<title>room_470</title>
<ellipse fill="none" stroke="black" cx="60.79" cy="-70.32" rx="44.66" ry="18"/>
<text text-anchor="middle" x="60.79" y="-66.12" font-family="Times,serif" font-size="14.00">Purgatory</text>
</g>
<!-- room_2&#45;&gt;room_470 -->
<g id="edge1" class="edge">
<title>room_2&#45;&gt;room_470</title>
<path fill="none" stroke="black" d="M39.39,-98.19C40.05,-97.33 40.72,-96.46 41.39,-95.58"/>
<polygon fill="black" stroke="black" points="44.18,-97.7 47.49,-87.64 38.63,-93.44 44.18,-97.7"/>
<text text-anchor="middle" x="36.89" y="-85.68" font-family="Times,serif" font-size="14.00">n</text>
</g>
<!-- room_731 -->
<g id="node3" class="node">
<title>room_731</title>
<ellipse fill="none" stroke="black" cx="79.3" cy="-18" rx="53.67" ry="18"/>
<text text-anchor="middle" x="79.3" y="-13.8" font-family="Times,serif" font-size="14.00">Class&#45;Room</text>
</g>
<!-- room_470&#45;&gt;room_731 -->
<g id="edge2" class="edge">
<title>room_470&#45;&gt;room_731</title>
<path fill="none" stroke="black" d="M73.86,-53.02C74.86,-50.63 75.82,-48.13 76.69,-45.61"/>
<polygon fill="black" stroke="black" points="80.05,-46.58 79.58,-36 73.35,-44.57 80.05,-46.58"/>
<text text-anchor="middle" x="71.77" y="-38.12" font-family="Times,serif" font-size="14.00">d</text>
</g>
<!-- room_731&#45;&gt;room_470 -->
<g id="edge5" class="edge">
<title>room_731&#45;&gt;room_470</title>
<path fill="none" stroke="black" d="M66.11,-35.59C65.17,-37.84 64.28,-40.19 63.46,-42.55"/>
<polygon fill="black" stroke="black" points="60.09,-41.58 60.55,-52.16 66.8,-43.6 60.09,-41.58"/>
<text text-anchor="middle" x="61.28" y="-41.87" font-family="Times,serif" font-size="14.00">u</text>
</g>
<!-- room_731&#45;&gt;room_731 -->
<g id="edge3" class="edge">
<title>room_731&#45;&gt;room_731</title>
<path fill="none" stroke="black" d="M132.55,-21.25C143.38,-20.89 151.13,-19.81 151.13,-18 151.13,-16.84 147.95,-15.98 142.82,-15.42"/>
<polygon fill="black" stroke="black" points="142.76,-11.91 132.55,-14.75 142.31,-18.89 142.76,-11.91"/>
<text text-anchor="middle" x="154.24" y="-13.8" font-family="Times,serif" font-size="14.00">e</text>
</g>
<!-- room_731&#45;&gt;room_731 -->
<g id="edge4" class="edge">
<title>room_731&#45;&gt;room_731</title>
<path fill="none" stroke="black" d="M129.64,-24.68C150.96,-25.18 169.13,-22.96 169.13,-18 169.13,-13.86 156.44,-11.62 139.81,-11.29"/>
<polygon fill="black" stroke="black" points="139.63,-7.79 129.64,-11.32 139.65,-14.79 139.63,-7.79"/>
<text text-anchor="middle" x="174.19" y="-13.8" font-family="Times,serif" font-size="14.00">w</text>
</g>
</g>
</svg>
