<?xml version="1.0" encoding="UTF-8" standalone="no"?>
<!DOCTYPE svg PUBLIC "-//W3C//DTD SVG 1.1//EN"
 "http://www.w3.org/Graphics/SVG/1.1/DTD/svg11.dtd">
<!-- Generated by graphviz version 2.42.3 (20191010.1750)
 -->
<!-- Title: monster Pages: 1 -->
<svg width="1300pt" height="1489pt"
 viewBox="0.00 0.00 1299.79 1488.52" xmlns="http://www.w3.org/2000/svg" xmlns:xlink="http://www.w3.org/1999/xlink">
<g id="graph0" class="graph" transform="scale(1 1) rotate(0) translate(4 1484.52)">
<title>monster</title>
<polygon fill="white" stroke="transparent" points="-4,4 -4,-1484.52 1295.79,-1484.52 1295.79,4 -4,4"/>
<!-- room_321 -->
<g id="node1" class="node">
<title>room_321</title>
<ellipse fill="none" stroke="black" cx="662.08" cy="-883.58" rx="69.18" ry="18"/>
<text text-anchor="middle" x="662.08" y="-879.38" font-family="Times,serif" font-size="14.00">Deserted Village</text>
</g>
<!-- room_331 -->
<g id="node2" class="node">
<title>room_331</title>
<ellipse fill="none" stroke="black" cx="470.98" cy="-1032.41" rx="73.43" ry="18"/>
<text text-anchor="middle" x="470.98" y="-1028.21" font-family="Times,serif" font-size="14.00">Bridge of Despair</text>
</g>
<!-- room_321&#45;&gt;room_331 -->
<g id="edge1" class="edge">
<title>room_321&#45;&gt;room_331</title>
<path fill="none" stroke="black" d="M632.95,-900.16C595.03,-926.44 529.64,-977.35 494.62,-1007.85"/>
<polygon fill="black" stroke="black" points="491.98,-1005.52 486.81,-1014.77 496.62,-1010.75 491.98,-1005.52"/>
<text text-anchor="middle" x="560.29" y="-956.81" font-family="Times,serif" font-size="14.00">n</text>
</g>
<!-- room_322 -->
<g id="node3" class="node">
<title>room_322</title>
<ellipse fill="none" stroke="black" cx="586.51" cy="-628.18" rx="80.18" ry="18"/>
<text text-anchor="middle" x="586.51" y="-623.98" font-family="Times,serif" font-size="14.00">Empty Marketplace</text>
</g>
<!-- room_321&#45;&gt;room_322 -->
<g id="edge2" class="edge">
<title>room_321&#45;&gt;room_322</title>
<path fill="none" stroke="black" d="M660.46,-865.41C651.46,-821.31 618.39,-708.51 599.38,-655.92"/>
<polygon fill="black" stroke="black" points="602.55,-654.4 595.78,-646.25 595.99,-656.84 602.55,-654.4"/>
<text text-anchor="middle" x="627.2" y="-763.46" font-family="Times,serif" font-size="14.00">s</text>
</g>
<!-- room_325 -->
<g id="node4" class="node">
<title>room_325</title>
<ellipse fill="none" stroke="black" cx="703.86" cy="-755.05" rx="67.14" ry="18"/>
<text text-anchor="middle" x="703.86" y="-750.85" font-family="Times,serif" font-size="14.00">Scorched Grove</text>
</g>
<!-- room_321&#45;&gt;room_325 -->
<g id="edge3" class="edge">
<title>room_321&#45;&gt;room_325</title>
<path fill="none" stroke="black" d="M673.19,-865.61C682.35,-844.26 694.2,-808.43 700.54,-783.36"/>
<polygon fill="black" stroke="black" points="704.01,-783.88 702.89,-773.34 697.2,-782.27 704.01,-783.88"/>
<text text-anchor="middle" x="683.76" y="-827.28" font-family="Times,serif" font-size="14.00">e</text>
</g>
<!-- room_323 -->
<g id="node5" class="node">
<title>room_323</title>
<ellipse fill="none" stroke="black" cx="668.93" cy="-1056.25" rx="71.04" ry="18"/>
<text text-anchor="middle" x="668.93" y="-1052.05" font-family="Times,serif" font-size="14.00">Abandoned Shop</text>
</g>
<!-- room_321&#45;&gt;room_323 -->
<g id="edge4" class="edge">
<title>room_321&#45;&gt;room_323</title>
<path fill="none" stroke="black" d="M658.49,-901.58C656.74,-931.6 658.85,-992.13 662.64,-1027.92"/>
<polygon fill="black" stroke="black" points="659.2,-1028.66 663.86,-1038.17 666.15,-1027.83 659.2,-1028.66"/>
<text text-anchor="middle" x="655.51" y="-967.55" font-family="Times,serif" font-size="14.00">w</text>
</g>
<!-- room_337 -->
<g id="node6" class="node">
<title>room_337</title>
<ellipse fill="none" stroke="black" cx="919.77" cy="-925.12" rx="69.1" ry="18"/>
<text text-anchor="middle" x="919.77" y="-920.92" font-family="Times,serif" font-size="14.00">Shaken Platform</text>
</g>
<!-- room_321&#45;&gt;room_337 -->
<g id="edge5" class="edge">
<title>room_321&#45;&gt;room_337</title>
<path fill="none" stroke="black" d="M709.69,-896.74C746.92,-904.21 799.44,-912.95 842.65,-918.99"/>
<polygon fill="black" stroke="black" points="842.19,-922.46 852.57,-920.35 843.14,-915.53 842.19,-922.46"/>
<text text-anchor="middle" x="772.67" y="-910.66" font-family="Times,serif" font-size="14.00">u</text>
</g>
<!-- room_331&#45;&gt;room_321 -->
<g id="edge29" class="edge">
<title>room_331&#45;&gt;room_321</title>
<path fill="none" stroke="black" d="M500.11,-1015.83C538.03,-989.55 603.42,-938.64 638.44,-908.14"/>
<polygon fill="black" stroke="black" points="641.08,-910.47 646.25,-901.22 636.44,-905.24 641.08,-910.47"/>
<text text-anchor="middle" x="566.55" y="-964.78" font-family="Times,serif" font-size="14.00">s</text>
</g>
<!-- room_344 -->
<g id="node17" class="node">
<title>room_344</title>
<ellipse fill="none" stroke="black" cx="449.31" cy="-1259.56" rx="73.23" ry="18"/>
<text text-anchor="middle" x="449.31" y="-1255.36" font-family="Times,serif" font-size="14.00">Wilted Lothlorien</text>
</g>
<!-- room_331&#45;&gt;room_344 -->
<g id="edge28" class="edge">
<title>room_331&#45;&gt;room_344</title>
<path fill="none" stroke="black" d="M465.31,-1050.63C458,-1090.1 448.82,-1183.78 447.37,-1231.12"/>
<polygon fill="black" stroke="black" points="443.87,-1231.23 447.18,-1241.29 450.87,-1231.36 443.87,-1231.23"/>
<text text-anchor="middle" x="452.84" y="-1143.67" font-family="Times,serif" font-size="14.00">n</text>
</g>
<!-- room_332 -->
<g id="node18" class="node">
<title>room_332</title>
<ellipse fill="none" stroke="black" cx="253.72" cy="-1055.86" rx="58.47" ry="18"/>
<text text-anchor="middle" x="253.72" y="-1051.66" font-family="Times,serif" font-size="14.00">Dry Riverbed</text>
</g>
<!-- room_331&#45;&gt;room_332 -->
<g id="edge30" class="edge">
<title>room_331&#45;&gt;room_332</title>
<path fill="none" stroke="black" d="M397.64,-1033.88C369.25,-1036.38 337.26,-1039.96 310.65,-1043.64"/>
<polygon fill="black" stroke="black" points="310.14,-1040.18 300.74,-1045.06 311.13,-1047.11 310.14,-1040.18"/>
<text text-anchor="middle" x="350.65" y="-1041.56" font-family="Times,serif" font-size="14.00">d</text>
</g>
<!-- room_322&#45;&gt;room_321 -->
<g id="edge6" class="edge">
<title>room_322&#45;&gt;room_321</title>
<path fill="none" stroke="black" d="M588.13,-646.35C597.13,-690.44 630.2,-803.25 649.21,-855.83"/>
<polygon fill="black" stroke="black" points="646.04,-857.36 652.81,-865.51 652.6,-854.92 646.04,-857.36"/>
<text text-anchor="middle" x="615.17" y="-753.89" font-family="Times,serif" font-size="14.00">n</text>
</g>
<!-- room_329 -->
<g id="node7" class="node">
<title>room_329</title>
<ellipse fill="none" stroke="black" cx="717.89" cy="-404.31" rx="72.94" ry="18"/>
<text text-anchor="middle" x="717.89" y="-400.11" font-family="Times,serif" font-size="14.00">Decaying Library</text>
</g>
<!-- room_322&#45;&gt;room_329 -->
<g id="edge7" class="edge">
<title>room_322&#45;&gt;room_329</title>
<path fill="none" stroke="black" d="M601.65,-610.36C628.63,-571.25 683.54,-477.94 707.09,-431.48"/>
<polygon fill="black" stroke="black" points="710.33,-432.83 711.62,-422.32 704.05,-429.73 710.33,-432.83"/>
<text text-anchor="middle" x="651.65" y="-523.72" font-family="Times,serif" font-size="14.00">s</text>
</g>
<!-- room_324 -->
<g id="node8" class="node">
<title>room_324</title>
<ellipse fill="none" stroke="black" cx="719.01" cy="-553.08" rx="79.63" ry="18"/>
<text text-anchor="middle" x="719.01" y="-548.88" font-family="Times,serif" font-size="14.00">Fire&#45;Gutted Temple</text>
</g>
<!-- room_322&#45;&gt;room_324 -->
<g id="edge8" class="edge">
<title>room_322&#45;&gt;room_324</title>
<path fill="none" stroke="black" d="M626.8,-612.4C647.24,-601.85 671.58,-587.95 690.14,-576.18"/>
<polygon fill="black" stroke="black" points="692.25,-578.98 698.74,-570.6 688.44,-573.11 692.25,-578.98"/>
<text text-anchor="middle" x="655.36" y="-597.09" font-family="Times,serif" font-size="14.00">e</text>
</g>
<!-- room_326 -->
<g id="node9" class="node">
<title>room_326</title>
<ellipse fill="none" stroke="black" cx="376.7" cy="-565.58" rx="65.74" ry="18"/>
<text text-anchor="middle" x="376.7" y="-561.38" font-family="Times,serif" font-size="14.00">Withered Wood</text>
</g>
<!-- room_322&#45;&gt;room_326 -->
<g id="edge9" class="edge">
<title>room_322&#45;&gt;room_326</title>
<path fill="none" stroke="black" d="M550.52,-611.89C520.57,-601.36 477.2,-588.1 441.27,-578.33"/>
<polygon fill="black" stroke="black" points="441.91,-574.88 431.35,-575.67 440.1,-581.64 441.91,-574.88"/>
<text text-anchor="middle" x="490.84" y="-597.91" font-family="Times,serif" font-size="14.00">w</text>
</g>
<!-- room_325&#45;&gt;room_321 -->
<g id="edge16" class="edge">
<title>room_325&#45;&gt;room_321</title>
<path fill="none" stroke="black" d="M692.75,-773.02C683.6,-794.37 671.75,-830.19 665.41,-855.27"/>
<polygon fill="black" stroke="black" points="661.94,-854.75 663.05,-865.29 668.75,-856.35 661.94,-854.75"/>
<text text-anchor="middle" x="674.03" y="-816.95" font-family="Times,serif" font-size="14.00">w</text>
</g>
<!-- room_325&#45;&gt;room_324 -->
<g id="edge15" class="edge">
<title>room_325&#45;&gt;room_324</title>
<path fill="none" stroke="black" d="M709.3,-737.07C715.24,-701.86 721.37,-623.54 721.74,-581.34"/>
<polygon fill="black" stroke="black" points="725.24,-581.17 721.7,-571.19 718.24,-581.2 725.24,-581.17"/>
<text text-anchor="middle" x="712.8" y="-662" font-family="Times,serif" font-size="14.00">s</text>
</g>
<!-- room_323&#45;&gt;room_321 -->
<g id="edge10" class="edge">
<title>room_323&#45;&gt;room_321</title>
<path fill="none" stroke="black" d="M672.53,-1038.25C674.28,-1008.23 672.17,-947.7 668.38,-911.91"/>
<polygon fill="black" stroke="black" points="671.82,-911.17 667.15,-901.66 664.87,-912 671.82,-911.17"/>
<text text-anchor="middle" x="667.35" y="-977.88" font-family="Times,serif" font-size="14.00">e</text>
</g>
<!-- room_337&#45;&gt;room_321 -->
<g id="edge43" class="edge">
<title>room_337&#45;&gt;room_321</title>
<path fill="none" stroke="black" d="M872.16,-911.97C834.79,-904.46 782.03,-895.69 738.73,-889.65"/>
<polygon fill="black" stroke="black" points="739.18,-886.18 728.79,-888.29 738.23,-893.11 739.18,-886.18"/>
<text text-anchor="middle" x="801.94" y="-903.61" font-family="Times,serif" font-size="14.00">d</text>
</g>
<!-- room_336 -->
<g id="node15" class="node">
<title>room_336</title>
<ellipse fill="none" stroke="black" cx="1031.94" cy="-709.78" rx="56.53" ry="18"/>
<text text-anchor="middle" x="1031.94" y="-705.58" font-family="Times,serif" font-size="14.00">Dead Branch</text>
</g>
<!-- room_337&#45;&gt;room_336 -->
<g id="edge40" class="edge">
<title>room_337&#45;&gt;room_336</title>
<path fill="none" stroke="black" d="M933.76,-907.15C957.22,-869.41 1002.97,-781.88 1022.8,-737.14"/>
<polygon fill="black" stroke="black" points="1026.1,-738.33 1026.83,-727.76 1019.67,-735.56 1026.1,-738.33"/>
<text text-anchor="middle" x="975.56" y="-824.94" font-family="Times,serif" font-size="14.00">s</text>
</g>
<!-- room_340 -->
<g id="node21" class="node">
<title>room_340</title>
<ellipse fill="none" stroke="black" cx="1185.56" cy="-1008" rx="77.79" ry="18"/>
<text text-anchor="middle" x="1185.56" y="-1003.8" font-family="Times,serif" font-size="14.00">Thinning Branches</text>
</g>
<!-- room_337&#45;&gt;room_340 -->
<g id="edge39" class="edge">
<title>room_337&#45;&gt;room_340</title>
<path fill="none" stroke="black" d="M954.19,-940.87C995.48,-956.01 1065.64,-978.28 1117.91,-993.1"/>
<polygon fill="black" stroke="black" points="1117.21,-996.54 1127.78,-995.87 1119.1,-989.8 1117.21,-996.54"/>
<text text-anchor="middle" x="1032.55" y="-969.79" font-family="Times,serif" font-size="14.00">n</text>
</g>
<!-- room_341 -->
<g id="node22" class="node">
<title>room_341</title>
<ellipse fill="none" stroke="black" cx="997.02" cy="-1153.99" rx="70.51" ry="18"/>
<text text-anchor="middle" x="997.02" y="-1149.79" font-family="Times,serif" font-size="14.00">Blackened Eaves</text>
</g>
<!-- room_337&#45;&gt;room_341 -->
<g id="edge41" class="edge">
<title>room_337&#45;&gt;room_341</title>
<path fill="none" stroke="black" d="M921.9,-943.15C931.52,-983.17 963.73,-1079.52 982.95,-1126.85"/>
<polygon fill="black" stroke="black" points="979.76,-1128.29 986.84,-1136.17 986.22,-1125.6 979.76,-1128.29"/>
<text text-anchor="middle" x="949.32" y="-1037.8" font-family="Times,serif" font-size="14.00">e</text>
</g>
<!-- room_338 -->
<g id="node23" class="node">
<title>room_338</title>
<ellipse fill="none" stroke="black" cx="1031.73" cy="-998.06" rx="68.35" ry="18"/>
<text text-anchor="middle" x="1031.73" y="-993.86" font-family="Times,serif" font-size="14.00">Forgotten Room</text>
</g>
<!-- room_337&#45;&gt;room_338 -->
<g id="edge42" class="edge">
<title>room_337&#45;&gt;room_338</title>
<path fill="none" stroke="black" d="M936.88,-942.62C950.52,-953.12 970.17,-966.39 988.07,-977.38"/>
<polygon fill="black" stroke="black" points="986.31,-980.4 996.68,-982.57 989.92,-974.41 986.31,-980.4"/>
<text text-anchor="middle" x="958.97" y="-962.8" font-family="Times,serif" font-size="14.00">u</text>
</g>
<!-- room_329&#45;&gt;room_322 -->
<g id="edge21" class="edge">
<title>room_329&#45;&gt;room_322</title>
<path fill="none" stroke="black" d="M702.74,-422.13C675.77,-461.23 620.85,-554.54 597.3,-601"/>
<polygon fill="black" stroke="black" points="594.07,-599.65 592.78,-610.17 600.34,-602.75 594.07,-599.65"/>
<text text-anchor="middle" x="646.52" y="-500.36" font-family="Times,serif" font-size="14.00">n</text>
</g>
<!-- room_333 -->
<g id="node12" class="node">
<title>room_333</title>
<ellipse fill="none" stroke="black" cx="581.07" cy="-215.88" rx="56.04" ry="18"/>
<text text-anchor="middle" x="581.07" y="-211.68" font-family="Times,serif" font-size="14.00">Place of Lies</text>
</g>
<!-- room_329&#45;&gt;room_333 -->
<g id="edge22" class="edge">
<title>room_329&#45;&gt;room_333</title>
<path fill="none" stroke="black" d="M709.65,-386.25C689.26,-352.46 636.99,-279.88 605.63,-241.22"/>
<polygon fill="black" stroke="black" points="607.97,-238.55 598.9,-233.07 602.57,-243.01 607.97,-238.55"/>
<text text-anchor="middle" x="654.54" y="-316.54" font-family="Times,serif" font-size="14.00">e</text>
</g>
<!-- room_335 -->
<g id="node13" class="node">
<title>room_335</title>
<ellipse fill="none" stroke="black" cx="799.17" cy="-198.79" rx="64.26" ry="18"/>
<text text-anchor="middle" x="799.17" y="-194.59" font-family="Times,serif" font-size="14.00">Heap of Debris</text>
</g>
<!-- room_329&#45;&gt;room_335 -->
<g id="edge23" class="edge">
<title>room_329&#45;&gt;room_335</title>
<path fill="none" stroke="black" d="M729.39,-386.5C747.08,-350.69 779.25,-269.83 793.12,-226.85"/>
<polygon fill="black" stroke="black" points="796.54,-227.62 796.16,-217.03 789.85,-225.55 796.54,-227.62"/>
<text text-anchor="middle" x="756.2" y="-309.47" font-family="Times,serif" font-size="14.00">w</text>
</g>
<!-- room_330 -->
<g id="node14" class="node">
<title>room_330</title>
<ellipse fill="none" stroke="black" cx="984.05" cy="-480.96" rx="60.87" ry="18"/>
<text text-anchor="middle" x="984.05" y="-476.76" font-family="Times,serif" font-size="14.00">Upper Library</text>
</g>
<!-- room_329&#45;&gt;room_330 -->
<g id="edge24" class="edge">
<title>room_329&#45;&gt;room_330</title>
<path fill="none" stroke="black" d="M754.39,-419.9C797.48,-434.55 869.84,-455.69 921.83,-469.04"/>
<polygon fill="black" stroke="black" points="921.06,-472.46 931.61,-471.52 922.78,-465.67 921.06,-472.46"/>
<text text-anchor="middle" x="834.61" y="-447.27" font-family="Times,serif" font-size="14.00">u</text>
</g>
<!-- room_324&#45;&gt;room_322 -->
<g id="edge14" class="edge">
<title>room_324&#45;&gt;room_322</title>
<path fill="none" stroke="black" d="M679.08,-568.67C658.53,-579.26 633.97,-593.29 615.29,-605.13"/>
<polygon fill="black" stroke="black" points="613.39,-602.2 606.9,-610.57 617.19,-608.07 613.39,-602.2"/>
<text text-anchor="middle" x="642.13" y="-589.7" font-family="Times,serif" font-size="14.00">w</text>
</g>
<!-- room_324&#45;&gt;room_325 -->
<g id="edge11" class="edge">
<title>room_324&#45;&gt;room_325</title>
<path fill="none" stroke="black" d="M713.57,-571.05C707.63,-606.27 701.51,-684.58 701.14,-726.79"/>
<polygon fill="black" stroke="black" points="697.64,-726.95 701.17,-736.94 704.64,-726.93 697.64,-726.95"/>
<text text-anchor="middle" x="703.85" y="-651.72" font-family="Times,serif" font-size="14.00">n</text>
</g>
<!-- room_324&#45;&gt;room_324 -->
<g id="edge12" class="edge">
<title>room_324&#45;&gt;room_324</title>
<path fill="none" stroke="black" d="M794.06,-559.43C807.47,-558.61 816.83,-556.49 816.83,-553.08 816.83,-550.6 811.89,-548.81 804.04,-547.69"/>
<polygon fill="black" stroke="black" points="804.35,-544.21 794.06,-546.73 803.68,-551.17 804.35,-544.21"/>
<text text-anchor="middle" x="819.55" y="-548.88" font-family="Times,serif" font-size="14.00">s</text>
</g>
<!-- room_328 -->
<g id="node10" class="node">
<title>room_328</title>
<ellipse fill="none" stroke="black" cx="863.83" cy="-360.03" rx="52.69" ry="18"/>
<text text-anchor="middle" x="863.83" y="-355.83" font-family="Times,serif" font-size="14.00">Mass Grave</text>
</g>
<!-- room_324&#45;&gt;room_328 -->
<g id="edge13" class="edge">
<title>room_324&#45;&gt;room_328</title>
<path fill="none" stroke="black" d="M737.71,-535.39C767.21,-501.26 823.42,-426.48 849.78,-386.45"/>
<polygon fill="black" stroke="black" points="852.75,-388.29 855.22,-377.99 846.86,-384.51 852.75,-388.29"/>
<text text-anchor="middle" x="790.64" y="-463.72" font-family="Times,serif" font-size="14.00">e</text>
</g>
<!-- room_326&#45;&gt;room_322 -->
<g id="edge17" class="edge">
<title>room_326&#45;&gt;room_322</title>
<path fill="none" stroke="black" d="M410.8,-581.2C439.11,-591.23 480.31,-603.93 515.71,-613.72"/>
<polygon fill="black" stroke="black" points="514.95,-617.14 525.52,-616.39 516.8,-610.39 514.95,-617.14"/>
<text text-anchor="middle" x="460.15" y="-600.26" font-family="Times,serif" font-size="14.00">e</text>
</g>
<!-- room_327 -->
<g id="node11" class="node">
<title>room_327</title>
<ellipse fill="none" stroke="black" cx="179.15" cy="-487.23" rx="75.9" ry="18"/>
<text text-anchor="middle" x="179.15" y="-483.03" font-family="Times,serif" font-size="14.00">Fallen Tree&#45;House</text>
</g>
<!-- room_326&#45;&gt;room_327 -->
<g id="edge18" class="edge">
<title>room_326&#45;&gt;room_327</title>
<path fill="none" stroke="black" d="M348.96,-549.22C320.59,-535.99 275.64,-517.73 239.11,-504.34"/>
<polygon fill="black" stroke="black" points="240.13,-500.99 229.53,-500.87 237.74,-507.57 240.13,-500.99"/>
<text text-anchor="middle" x="288.98" y="-529.58" font-family="Times,serif" font-size="14.00">w</text>
</g>
<!-- room_328&#45;&gt;room_324 -->
<g id="edge20" class="edge">
<title>room_328&#45;&gt;room_324</title>
<path fill="none" stroke="black" d="M845.72,-377.04C816.44,-410.78 759.8,-486.09 733.21,-526.44"/>
<polygon fill="black" stroke="black" points="730.19,-524.67 727.71,-534.97 736.07,-528.46 730.19,-524.67"/>
<text text-anchor="middle" x="784.41" y="-440.54" font-family="Times,serif" font-size="14.00">w</text>
</g>
<!-- room_327&#45;&gt;room_326 -->
<g id="edge19" class="edge">
<title>room_327&#45;&gt;room_326</title>
<path fill="none" stroke="black" d="M207.72,-503.98C236.95,-517.55 283.12,-536.25 319.82,-549.6"/>
<polygon fill="black" stroke="black" points="318.82,-552.96 329.41,-553.04 321.18,-546.37 318.82,-552.96"/>
<text text-anchor="middle" x="260.66" y="-529.59" font-family="Times,serif" font-size="14.00">e</text>
</g>
<!-- room_333&#45;&gt;room_329 -->
<g id="edge34" class="edge">
<title>room_333&#45;&gt;room_329</title>
<path fill="none" stroke="black" d="M589.31,-233.94C609.65,-267.65 661.7,-339.93 693.08,-378.66"/>
<polygon fill="black" stroke="black" points="690.76,-381.35 699.82,-386.84 696.16,-376.9 690.76,-381.35"/>
<text text-anchor="middle" x="636.14" y="-309.1" font-family="Times,serif" font-size="14.00">w</text>
</g>
<!-- room_334 -->
<g id="node20" class="node">
<title>room_334</title>
<ellipse fill="none" stroke="black" cx="503.22" cy="-18" rx="91.83" ry="18"/>
<text text-anchor="middle" x="503.22" y="-13.8" font-family="Times,serif" font-size="14.00">Looted Treasure Room</text>
</g>
<!-- room_333&#45;&gt;room_334 -->
<g id="edge33" class="edge">
<title>room_333&#45;&gt;room_334</title>
<path fill="none" stroke="black" d="M578.13,-197.55C567.94,-162.5 538.14,-85.91 519.14,-45"/>
<polygon fill="black" stroke="black" points="522.25,-43.4 514.79,-35.88 515.93,-46.41 522.25,-43.4"/>
<text text-anchor="middle" x="545.53" y="-124.07" font-family="Times,serif" font-size="14.00">e</text>
</g>
<!-- room_335&#45;&gt;room_329 -->
<g id="edge36" class="edge">
<title>room_335&#45;&gt;room_329</title>
<path fill="none" stroke="black" d="M787.66,-216.6C769.98,-252.41 737.8,-333.26 723.94,-376.25"/>
<polygon fill="black" stroke="black" points="720.51,-375.47 720.9,-386.06 727.2,-377.54 720.51,-375.47"/>
<text text-anchor="middle" x="752.69" y="-285.22" font-family="Times,serif" font-size="14.00">e</text>
</g>
<!-- room_330&#45;&gt;room_329 -->
<g id="edge27" class="edge">
<title>room_330&#45;&gt;room_329</title>
<path fill="none" stroke="black" d="M949.48,-466.02C908.22,-451.9 838.26,-431.35 786.01,-417.75"/>
<polygon fill="black" stroke="black" points="786.69,-414.31 776.14,-415.21 784.95,-421.09 786.69,-414.31"/>
<text text-anchor="middle" x="864.24" y="-444.68" font-family="Times,serif" font-size="14.00">d</text>
</g>
<!-- room_330&#45;&gt;room_336 -->
<g id="edge25" class="edge">
<title>room_330&#45;&gt;room_336</title>
<path fill="none" stroke="black" d="M984,-499.32C988.69,-539.35 1008.34,-634.67 1021.38,-682.06"/>
<polygon fill="black" stroke="black" points="1018.02,-683.03 1024.13,-691.68 1024.75,-681.1 1018.02,-683.03"/>
<text text-anchor="middle" x="999.19" y="-593.49" font-family="Times,serif" font-size="14.00">n</text>
</g>
<!-- room_339 -->
<g id="node16" class="node">
<title>room_339</title>
<ellipse fill="none" stroke="black" cx="1179.65" cy="-363.68" rx="87.42" ry="18"/>
<text text-anchor="middle" x="1179.65" y="-359.48" font-family="Times,serif" font-size="14.00">Rubble&#45;Choked Wing</text>
</g>
<!-- room_330&#45;&gt;room_339 -->
<g id="edge26" class="edge">
<title>room_330&#45;&gt;room_339</title>
<path fill="none" stroke="black" d="M1019.01,-466.02C1056.61,-445.96 1115.66,-410.53 1150.75,-386.98"/>
<polygon fill="black" stroke="black" points="1152.83,-389.79 1159.12,-381.27 1148.89,-384.01 1152.83,-389.79"/>
<text text-anchor="middle" x="1081.77" y="-429.3" font-family="Times,serif" font-size="14.00">e</text>
</g>
<!-- room_336&#45;&gt;room_337 -->
<g id="edge37" class="edge">
<title>room_336&#45;&gt;room_337</title>
<path fill="none" stroke="black" d="M1018.17,-727.39C994.8,-764.9 948.87,-852.73 928.95,-897.65"/>
<polygon fill="black" stroke="black" points="925.64,-896.5 924.9,-907.07 932.07,-899.27 925.64,-896.5"/>
<text text-anchor="middle" x="970.06" y="-801.32" font-family="Times,serif" font-size="14.00">n</text>
</g>
<!-- room_336&#45;&gt;room_330 -->
<g id="edge38" class="edge">
<title>room_336&#45;&gt;room_330</title>
<path fill="none" stroke="black" d="M1031.99,-691.43C1027.3,-651.4 1007.65,-556.08 994.61,-508.68"/>
<polygon fill="black" stroke="black" points="997.97,-507.72 991.86,-499.07 991.24,-509.64 997.97,-507.72"/>
<text text-anchor="middle" x="1010.57" y="-602.86" font-family="Times,serif" font-size="14.00">s</text>
</g>
<!-- room_339&#45;&gt;room_330 -->
<g id="edge45" class="edge">
<title>room_339&#45;&gt;room_330</title>
<path fill="none" stroke="black" d="M1141.95,-380.09C1104.11,-400.46 1046.73,-434.95 1012.53,-457.94"/>
<polygon fill="black" stroke="black" points="1010.23,-455.28 1003.95,-463.81 1014.18,-461.05 1010.23,-455.28"/>
<text text-anchor="middle" x="1072.19" y="-421.81" font-family="Times,serif" font-size="14.00">w</text>
</g>
<!-- room_344&#45;&gt;room_331 -->
<g id="edge53" class="edge">
<title>room_344&#45;&gt;room_331</title>
<path fill="none" stroke="black" d="M454.97,-1241.34C462.29,-1201.86 471.46,-1108.19 472.91,-1060.84"/>
<polygon fill="black" stroke="black" points="476.41,-1060.74 473.1,-1050.67 469.41,-1060.6 476.41,-1060.74"/>
<text text-anchor="middle" x="461.22" y="-1153.89" font-family="Times,serif" font-size="14.00">s</text>
</g>
<!-- room_343 -->
<g id="node25" class="node">
<title>room_343</title>
<ellipse fill="none" stroke="black" cx="397.25" cy="-1462.52" rx="55.11" ry="18"/>
<text text-anchor="middle" x="397.25" y="-1458.32" font-family="Times,serif" font-size="14.00">Hidden Stair</text>
</g>
<!-- room_344&#45;&gt;room_343 -->
<g id="edge54" class="edge">
<title>room_344&#45;&gt;room_343</title>
<path fill="none" stroke="black" d="M440.39,-1277.62C427.93,-1313.11 407.46,-1392.1 399.54,-1434.45"/>
<polygon fill="black" stroke="black" points="396.08,-1433.92 397.81,-1444.37 402.97,-1435.12 396.08,-1433.92"/>
<text text-anchor="middle" x="416.46" y="-1358.83" font-family="Times,serif" font-size="14.00">u</text>
</g>
<!-- room_332&#45;&gt;room_331 -->
<g id="edge32" class="edge">
<title>room_332&#45;&gt;room_331</title>
<path fill="none" stroke="black" d="M312.3,-1055.62C341.07,-1053.38 375.82,-1049.7 405.47,-1045.79"/>
<polygon fill="black" stroke="black" points="406.28,-1049.21 415.72,-1044.4 405.34,-1042.27 406.28,-1049.21"/>
<text text-anchor="middle" x="362.38" y="-1053.5" font-family="Times,serif" font-size="14.00">u</text>
</g>
<!-- room_579 -->
<g id="node19" class="node">
<title>room_579</title>
<ellipse fill="none" stroke="black" cx="56.52" cy="-1126.38" rx="56.54" ry="18"/>
<text text-anchor="middle" x="56.52" y="-1122.18" font-family="Times,serif" font-size="14.00">Hidden Cave</text>
</g>
<!-- room_332&#45;&gt;room_579 -->
<g id="edge31" class="edge">
<title>room_332&#45;&gt;room_579</title>
<path fill="none" stroke="black" d="M206.53,-1066.6C172.27,-1077.4 126.53,-1093.84 94.59,-1106.88"/>
<polygon fill="black" stroke="black" points="93.04,-1103.73 85.15,-1110.8 95.72,-1110.19 93.04,-1103.73"/>
<text text-anchor="middle" x="147.84" y="-1089.54" font-family="Times,serif" font-size="14.00">s</text>
</g>
<!-- room_579&#45;&gt;room_332 -->
<g id="edge55" class="edge">
<title>room_579&#45;&gt;room_332</title>
<path fill="none" stroke="black" d="M102.71,-1115.96C136.94,-1105.21 183.03,-1088.67 215.26,-1075.53"/>
<polygon fill="black" stroke="black" points="216.9,-1078.64 224.79,-1071.57 214.21,-1072.18 216.9,-1078.64"/>
<text text-anchor="middle" x="155.49" y="-1098.55" font-family="Times,serif" font-size="14.00">n</text>
</g>
<!-- room_334&#45;&gt;room_333 -->
<g id="edge35" class="edge">
<title>room_334&#45;&gt;room_333</title>
<path fill="none" stroke="black" d="M506.15,-36.33C516.35,-71.38 546.14,-147.97 565.15,-188.89"/>
<polygon fill="black" stroke="black" points="562.03,-190.48 569.5,-198 568.35,-187.47 562.03,-190.48"/>
<text text-anchor="middle" x="530.6" y="-115.41" font-family="Times,serif" font-size="14.00">w</text>
</g>
<!-- room_340&#45;&gt;room_337 -->
<g id="edge46" class="edge">
<title>room_340&#45;&gt;room_337</title>
<path fill="none" stroke="black" d="M1150.32,-991.95C1108.02,-976.49 1036.28,-953.77 984.03,-939.06"/>
<polygon fill="black" stroke="black" points="984.76,-935.63 974.19,-936.32 982.88,-942.37 984.76,-935.63"/>
<text text-anchor="middle" x="1064.45" y="-968.3" font-family="Times,serif" font-size="14.00">s</text>
</g>
<!-- room_342 -->
<g id="node24" class="node">
<title>room_342</title>
<ellipse fill="none" stroke="black" cx="1210.2" cy="-1216.34" rx="81.68" ry="18"/>
<text text-anchor="middle" x="1210.2" y="-1212.14" font-family="Times,serif" font-size="14.00">Crumbling Platform</text>
</g>
<!-- room_340&#45;&gt;room_342 -->
<g id="edge47" class="edge">
<title>room_340&#45;&gt;room_342</title>
<path fill="none" stroke="black" d="M1183.71,-1026.23C1184.62,-1062.71 1194.06,-1144.92 1202.04,-1188.31"/>
<polygon fill="black" stroke="black" points="1198.62,-1189.06 1203.97,-1198.2 1205.49,-1187.71 1198.62,-1189.06"/>
<text text-anchor="middle" x="1189.77" y="-1110.07" font-family="Times,serif" font-size="14.00">e</text>
</g>
<!-- room_341&#45;&gt;room_337 -->
<g id="edge49" class="edge">
<title>room_341&#45;&gt;room_337</title>
<path fill="none" stroke="black" d="M994.88,-1135.97C985.26,-1095.95 953.06,-999.59 933.83,-952.26"/>
<polygon fill="black" stroke="black" points="937.03,-950.82 929.94,-942.94 930.57,-953.52 937.03,-950.82"/>
<text text-anchor="middle" x="959.3" y="-1046.92" font-family="Times,serif" font-size="14.00">w</text>
</g>
<!-- room_341&#45;&gt;room_342 -->
<g id="edge48" class="edge">
<title>room_341&#45;&gt;room_342</title>
<path fill="none" stroke="black" d="M1032.2,-1169.74C1060.94,-1179.71 1102.5,-1192.26 1138.24,-1201.95"/>
<polygon fill="black" stroke="black" points="1137.59,-1205.39 1148.15,-1204.6 1139.39,-1198.63 1137.59,-1205.39"/>
<text text-anchor="middle" x="1081.72" y="-1188.64" font-family="Times,serif" font-size="14.00">n</text>
</g>
<!-- room_338&#45;&gt;room_337 -->
<g id="edge44" class="edge">
<title>room_338&#45;&gt;room_337</title>
<path fill="none" stroke="black" d="M1014.62,-980.57C1001.08,-970.15 981.62,-956.99 963.83,-946.05"/>
<polygon fill="black" stroke="black" points="965.64,-943.05 955.27,-940.88 962.02,-949.05 965.64,-943.05"/>
<text text-anchor="middle" x="985.72" y="-966.11" font-family="Times,serif" font-size="14.00">d</text>
</g>
<!-- room_342&#45;&gt;room_340 -->
<g id="edge51" class="edge">
<title>room_342&#45;&gt;room_340</title>
<path fill="none" stroke="black" d="M1212.06,-1198.11C1211.15,-1161.62 1201.71,-1079.41 1193.73,-1036.02"/>
<polygon fill="black" stroke="black" points="1197.15,-1035.27 1191.8,-1026.13 1190.28,-1036.62 1197.15,-1035.27"/>
<text text-anchor="middle" x="1197.84" y="-1119.86" font-family="Times,serif" font-size="14.00">w</text>
</g>
<!-- room_342&#45;&gt;room_341 -->
<g id="edge50" class="edge">
<title>room_342&#45;&gt;room_341</title>
<path fill="none" stroke="black" d="M1173.58,-1200.09C1143.68,-1189.78 1100.63,-1176.85 1064.52,-1167.18"/>
<polygon fill="black" stroke="black" points="1065.09,-1163.71 1054.53,-1164.54 1063.31,-1170.48 1065.09,-1163.71"/>
<text text-anchor="middle" x="1116.33" y="-1186.43" font-family="Times,serif" font-size="14.00">s</text>
</g>
<!-- room_343&#45;&gt;room_344 -->
<g id="edge52" class="edge">
<title>room_343&#45;&gt;room_344</title>
<path fill="none" stroke="black" d="M406.16,-1444.46C418.62,-1408.97 439.09,-1329.98 447.02,-1287.63"/>
<polygon fill="black" stroke="black" points="450.48,-1288.16 448.75,-1277.7 443.58,-1286.95 450.48,-1288.16"/>
<text text-anchor="middle" x="423.09" y="-1368.84" font-family="Times,serif" font-size="14.00">d</text>
</g>
</g>
</svg>
